<?xml version="1.0" encoding="UTF-8"?><svg id="ARREDI_attrezzature_-_furniture" xmlns="http://www.w3.org/2000/svg" width="282.02" height="271.64" viewBox="0 0 282.02 271.64"><defs><style>.cls-1{stroke:#4c4c99;}.cls-1,.cls-2,.cls-3,.cls-4,.cls-5,.cls-6,.cls-7{fill:none;stroke-linecap:round;stroke-linejoin:round;}.cls-1,.cls-3{stroke-width:.26px;}.cls-2{stroke-width:1.13px;}.cls-2,.cls-5{stroke:#000;}.cls-3{stroke:#4c9a85;}.cls-4{stroke-width:5.98px;}.cls-4,.cls-7{stroke:#848484;}.cls-5{stroke-width:.37px;}.cls-6{stroke:#ff0;stroke-width:.71px;}.cls-7{stroke-dasharray:0 0 3.75 1.87;stroke-width:.14px;}</style></defs><g id="LWPOLYLINE"><polyline class="cls-5" points="111.07 261.57 111.07 249.77 122.87 249.77 122.87 261.57 111.07 261.57"/></g><g id="LWPOLYLINE-2"><polyline class="cls-5" points="13.69 261.57 13.69 249.77 25.5 249.77 25.5 261.57 13.69 261.57"/></g><g id="LWPOLYLINE-3"><polyline class="cls-5" points="111.07 56.5 111.07 44.7 122.87 44.7 122.87 56.5 111.07 56.5"/></g><g id="LWPOLYLINE-4"><polyline class="cls-5" points="13.69 164.2 13.69 152.4 25.5 152.4 25.5 164.2 13.69 164.2"/></g><g id="LWPOLYLINE-5"><polyline class="cls-2" points="13.69 44.7 18.12 44.7 18.12 152.4 13.69 152.4 13.69 44.7"/></g><g id="LWPOLYLINE-6"><polyline class="cls-2" points="13.69 164.2 18.12 164.2 18.12 249.77 13.69 249.77 13.69 164.2"/></g><g id="LWPOLYLINE-7"><polyline class="cls-2" points="111.07 257.14 111.07 261.57 25.5 261.57 25.5 257.14 111.07 257.14"/></g><g id="LWPOLYLINE-8"><polyline class="cls-2" points="111.07 49.12 108.12 49.12 108.12 257.14 111.07 257.14 111.07 49.12"/></g><g id="LWPOLYLINE-9"><polyline class="cls-2" points="46.89 44.7 46.89 49.12 18.12 49.12 18.12 44.7 46.89 44.7"/></g><g id="LWPOLYLINE-10"><polyline class="cls-2" points="28.45 246.82 25.5 246.82 25.5 257.14 28.45 257.14 28.45 246.82"/></g><g id="LWPOLYLINE-11"><polyline class="cls-2" points="25.5 249.77 25.5 246.82 18.12 246.82 18.12 249.77 25.5 249.77"/></g><g id="LWPOLYLINE-12"><polyline class="cls-2" points="25.5 167.15 25.5 164.2 18.12 164.2 18.12 167.15 25.5 167.15"/></g><g id="LWPOLYLINE-13"><polyline class="cls-2" points="28.45 143.54 25.5 143.54 25.5 167.15 28.45 167.15 28.45 143.54"/></g><g id="LWPOLYLINE-14"><polyline class="cls-2" points="18.12 140.59 18.12 143.54 35.82 143.54 35.82 140.59 18.12 140.59"/></g><g id="LWPOLYLINE-15"><polyline class="cls-2" points="111.07 44.7 111.07 49.12 77.87 49.12 77.87 44.7 111.07 44.7"/></g><g id="LWPOLYLINE-16"><polyline class="cls-2" points="125.82 128.79 122.87 128.79 122.87 257.14 125.82 257.14 125.82 128.79"/></g><g id="LWPOLYLINE-17"><polyline class="cls-2" points="171.56 124.36 171.56 128.79 111.07 128.79 111.07 124.36 171.56 124.36"/></g><g id="LWPOLYLINE-18"><polyline class="cls-2" points="270.4 257.14 265.98 257.14 265.98 49.12 270.4 49.12 270.4 257.14"/></g><g id="LWPOLYLINE-19"><polyline class="cls-2" points="270.4 44.7 270.4 49.12 233.67 49.12 233.67 44.7 270.4 44.7"/></g><g id="LWPOLYLINE-20"><polyline class="cls-2" points="227.62 125.84 227.62 128.79 265.98 128.79 265.98 125.84 227.62 125.84"/></g><g id="LWPOLYLINE-21"><polyline class="cls-2" points="202.68 44.7 202.68 49.12 122.87 49.12 122.87 44.7 202.68 44.7"/></g><g id="LWPOLYLINE-22"><polyline class="cls-2" points="174.51 49.12 171.56 49.12 171.56 57.98 174.51 57.98 174.51 49.12"/></g><g id="LWPOLYLINE-23"><polyline class="cls-2" points="174.51 125.84 171.56 125.84 171.56 88.96 174.51 88.96 174.51 125.84"/></g><g id="LWPOLYLINE-24"><polyline class="cls-2" points="192.21 128.79 192.21 125.84 171.56 125.84 171.56 128.79 192.21 128.79"/></g><g id="LWPOLYLINE-25"><polyline class="cls-2" points="114.02 124.36 111.07 124.36 111.07 56.5 114.02 56.5 114.02 124.36"/></g><g id="LWPOLYLINE-26"><polyline class="cls-2" points="108.12 94.86 108.12 91.91 90.41 91.91 90.41 94.86 108.12 94.86"/></g><g id="LWPOLYLINE-27"><polyline class="cls-2" points="270.4 257.14 270.4 261.57 122.87 261.57 122.87 257.14 270.4 257.14"/></g><g id="LWPOLYLINE-28"><polyline class="cls-2" points="18.12 149.45 18.12 152.4 25.5 152.4 25.5 149.45 18.12 149.45"/></g><g id="LWPOLYLINE-29"><polyline class="cls-6" points="108.12 224.69 108.12 226.16 69.76 226.16 69.76 224.69 108.12 224.69"/></g><g id="LWPOLYLINE-30"><polyline class="cls-6" points="108.12 192.23 108.12 193.71 69.76 193.71 69.76 192.23 108.12 192.23"/></g><g id="LWPOLYLINE-31"><polyline class="cls-6" points="108.12 159.77 108.12 161.25 69.76 161.25 69.76 159.77 108.12 159.77"/></g><g id="LWPOLYLINE-32"><polyline class="cls-6" points="108.12 127.32 108.12 128.79 69.76 128.79 69.76 127.32 108.12 127.32"/></g><g id="LWPOLYLINE-33"><polyline class="cls-6" points="125.82 224.69 125.82 226.16 164.18 226.16 164.18 224.69 125.82 224.69"/></g><g id="LWPOLYLINE-34"><polyline class="cls-6" points="125.82 192.23 125.82 193.71 164.18 193.71 164.18 192.23 125.82 192.23"/></g><g id="LWPOLYLINE-35"><polyline class="cls-6" points="125.82 159.77 125.82 161.25 164.18 161.25 164.18 159.77 125.82 159.77"/></g><g id="LWPOLYLINE-36"><polyline class="cls-6" points="265.98 224.69 265.98 226.16 227.62 226.16 227.62 224.69 265.98 224.69"/></g><g id="LWPOLYLINE-37"><polyline class="cls-6" points="265.98 192.23 265.98 193.71 227.62 193.71 227.62 192.23 265.98 192.23"/></g><g id="LWPOLYLINE-38"><polyline class="cls-6" points="265.98 159.77 265.98 161.25 227.62 161.25 227.62 159.77 265.98 159.77"/></g><g id="LWPOLYLINE-39"><polyline class="cls-6" points="108.12 94.86 108.12 96.33 69.76 96.33 69.76 94.86 108.12 94.86"/></g><g id="LWPOLYLINE-40"><polyline class="cls-4" points="49.94 235.85 50.16 235.63 50.38 235.41 50.6 235.2 50.83 234.99 51.06 234.78 51.29 234.58 51.53 234.37 51.77 234.17 52 233.98 52.25 233.78 52.49 233.59 52.73 233.4 52.98 233.21 53.23 233.03 53.48 232.85 53.74 232.67 53.99 232.49 54.25 232.32 54.51 232.15 54.77 231.98 55.03 231.82 55.3 231.66 55.56 231.5 55.83 231.34 56.1 231.19 56.37 231.04 56.65 230.89 56.66 230.89"/></g><g id="LWPOLYLINE-41"><polyline class="cls-4" points="60.72 229.14 60.92 229.07 61.21 228.97 61.51 228.88 61.81 228.79 62.1 228.7 62.4 228.62 62.7 228.54 63 228.46 63.3 228.39 63.61 228.32 63.91 228.26 64.21 228.19 64.52 228.13 64.82 228.08 65.13 228.02 65.43 227.97 65.74 227.93 66.05 227.88 66.36 227.85 66.66 227.81 66.97 227.78 67.28 227.75 67.59 227.72 67.9 227.7 68.21 227.68 68.52 227.67 68.83 227.65 69.14 227.64 69.42 227.64"/></g><g id="LWPOLYLINE-42"><polyline class="cls-4" points="72.71 226.16 72.71 228.38 71.23 228.38"/></g><g id="LWPOLYLINE-43"><line class="cls-4" x1="69.76" y1="227.64" x2="69.76" y2="226.16"/></g><g id="LWPOLYLINE-44"><line class="cls-4" x1="71.23" y1="227.64" x2="71.23" y2="255.67"/></g><g id="LWPOLYLINE-45"><line class="cls-4" x1="69.76" y1="255.67" x2="66.11" y2="252.02"/></g><g id="LWPOLYLINE-46"><line class="cls-4" x1="62.98" y1="248.89" x2="56.71" y2="242.63"/></g><g id="LWPOLYLINE-47"><line class="cls-4" x1="53.58" y1="239.49" x2="49.94" y2="235.85"/></g><g id="LWPOLYLINE-48"><line class="cls-4" x1="72.71" y1="228.38" x2="72.71" y2="239.44"/></g><g id="LWPOLYLINE-49"><line class="cls-4" x1="72.71" y1="243.87" x2="72.71" y2="254.93"/></g><g id="LWPOLYLINE-50"><line class="cls-4" x1="72.71" y1="226.16" x2="69.76" y2="226.16"/></g><g id="LWPOLYLINE-51"><line class="cls-4" x1="71.23" y1="227.64" x2="69.76" y2="227.64"/></g><g id="LWPOLYLINE-52"><polyline class="cls-4" points="71.23 255.67 69.76 255.67 69.76 257.14 72.71 257.14 72.71 254.93 71.23 254.93"/></g><g id="LWPOLYLINE-53"><line class="cls-4" x1="72.71" y1="226.9" x2="69.76" y2="226.9"/></g><g id="LWPOLYLINE-54"><line class="cls-4" x1="72.71" y1="256.41" x2="69.76" y2="256.41"/></g><g id="LWPOLYLINE-55"><line class="cls-4" x1="69.76" y1="227.64" x2="69.76" y2="255.67"/></g><g id="LWPOLYLINE-56"><polyline class="cls-4" points="49.94 203.39 50.16 203.17 50.38 202.96 50.6 202.74 50.83 202.53 51.06 202.33 51.29 202.12 51.53 201.92 51.77 201.72 52 201.52 52.25 201.32 52.49 201.13 52.73 200.94 52.98 200.75 53.23 200.57 53.48 200.39 53.74 200.21 53.99 200.03 54.25 199.86 54.51 199.69 54.77 199.52 55.03 199.36 55.3 199.2 55.56 199.04 55.83 198.89 56.1 198.73 56.37 198.58 56.65 198.44 56.66 198.43"/></g><g id="LWPOLYLINE-57"><polyline class="cls-4" points="60.72 196.68 60.92 196.61 61.21 196.51 61.51 196.42 61.81 196.33 62.1 196.25 62.4 196.16 62.7 196.08 63 196.01 63.3 195.93 63.61 195.86 63.91 195.8 64.21 195.73 64.52 195.67 64.82 195.62 65.13 195.57 65.43 195.52 65.74 195.47 66.05 195.43 66.36 195.39 66.66 195.35 66.97 195.32 67.28 195.29 67.59 195.26 67.9 195.24 68.21 195.22 68.52 195.21 68.83 195.2 69.14 195.19 69.42 195.18"/></g><g id="LWPOLYLINE-58"><polyline class="cls-4" points="72.71 193.71 72.71 195.92 71.23 195.92"/></g><g id="LWPOLYLINE-59"><line class="cls-4" x1="69.76" y1="195.18" x2="69.76" y2="193.71"/></g><g id="LWPOLYLINE-60"><line class="cls-4" x1="71.23" y1="195.18" x2="71.23" y2="223.21"/></g><g id="LWPOLYLINE-61"><line class="cls-4" x1="69.76" y1="223.21" x2="66.11" y2="219.57"/></g><g id="LWPOLYLINE-62"><line class="cls-4" x1="62.98" y1="216.43" x2="56.71" y2="210.17"/></g><g id="LWPOLYLINE-63"><line class="cls-4" x1="53.58" y1="207.04" x2="49.94" y2="203.39"/></g><g id="LWPOLYLINE-64"><line class="cls-4" x1="72.71" y1="195.92" x2="72.71" y2="206.98"/></g><g id="LWPOLYLINE-65"><line class="cls-4" x1="72.71" y1="211.41" x2="72.71" y2="222.47"/></g><g id="LWPOLYLINE-66"><line class="cls-4" x1="72.71" y1="193.71" x2="69.76" y2="193.71"/></g><g id="LWPOLYLINE-67"><line class="cls-4" x1="71.23" y1="195.18" x2="69.76" y2="195.18"/></g><g id="LWPOLYLINE-68"><polyline class="cls-4" points="71.23 223.21 69.76 223.21 69.76 224.69 72.71 224.69 72.71 222.47 71.23 222.47"/></g><g id="LWPOLYLINE-69"><line class="cls-4" x1="72.71" y1="194.44" x2="69.76" y2="194.44"/></g><g id="LWPOLYLINE-70"><line class="cls-4" x1="72.71" y1="223.95" x2="69.76" y2="223.95"/></g><g id="LWPOLYLINE-71"><line class="cls-4" x1="69.76" y1="195.18" x2="69.76" y2="223.21"/></g><g id="LWPOLYLINE-72"><polyline class="cls-4" points="49.94 170.93 50.16 170.72 50.38 170.5 50.6 170.29 50.83 170.08 51.06 169.87 51.29 169.66 51.53 169.46 51.77 169.26 52 169.06 52.25 168.87 52.49 168.67 52.73 168.48 52.98 168.3 53.23 168.11 53.48 167.93 53.74 167.75 53.99 167.58 54.25 167.4 54.51 167.23 54.77 167.07 55.03 166.9 55.3 166.74 55.56 166.58 55.83 166.43 56.1 166.27 56.37 166.13 56.65 165.98 56.66 165.97"/></g><g id="LWPOLYLINE-73"><polyline class="cls-4" points="60.72 164.22 60.92 164.15 61.21 164.06 61.51 163.96 61.81 163.87 62.1 163.79 62.4 163.71 62.7 163.63 63 163.55 63.3 163.48 63.61 163.41 63.91 163.34 64.21 163.28 64.52 163.22 64.82 163.16 65.13 163.11 65.43 163.06 65.74 163.01 66.05 162.97 66.36 162.93 66.66 162.9 66.97 162.86 67.28 162.83 67.59 162.81 67.9 162.79 68.21 162.77 68.52 162.75 68.83 162.74 69.14 162.73 69.42 162.73"/></g><g id="LWPOLYLINE-74"><polyline class="cls-4" points="72.71 161.25 72.71 163.46 71.23 163.46"/></g><g id="LWPOLYLINE-75"><line class="cls-4" x1="69.76" y1="162.72" x2="69.76" y2="161.25"/></g><g id="LWPOLYLINE-76"><line class="cls-4" x1="71.23" y1="162.72" x2="71.23" y2="190.75"/></g><g id="LWPOLYLINE-77"><line class="cls-4" x1="69.76" y1="190.75" x2="66.11" y2="187.11"/></g><g id="LWPOLYLINE-78"><line class="cls-4" x1="62.98" y1="183.98" x2="56.71" y2="177.71"/></g><g id="LWPOLYLINE-79"><line class="cls-4" x1="53.58" y1="174.58" x2="49.94" y2="170.93"/></g><g id="LWPOLYLINE-80"><line class="cls-4" x1="72.71" y1="163.46" x2="72.71" y2="174.52"/></g><g id="LWPOLYLINE-81"><line class="cls-4" x1="72.71" y1="178.95" x2="72.71" y2="190.02"/></g><g id="LWPOLYLINE-82"><line class="cls-4" x1="72.71" y1="161.25" x2="69.76" y2="161.25"/></g><g id="LWPOLYLINE-83"><line class="cls-4" x1="71.23" y1="162.72" x2="69.76" y2="162.72"/></g><g id="LWPOLYLINE-84"><polyline class="cls-4" points="71.23 190.75 69.76 190.75 69.76 192.23 72.71 192.23 72.71 190.02 71.23 190.02"/></g><g id="LWPOLYLINE-85"><line class="cls-4" x1="72.71" y1="161.99" x2="69.76" y2="161.99"/></g><g id="LWPOLYLINE-86"><line class="cls-4" x1="72.71" y1="191.49" x2="69.76" y2="191.49"/></g><g id="LWPOLYLINE-87"><line class="cls-4" x1="69.76" y1="162.72" x2="69.76" y2="190.75"/></g><g id="LWPOLYLINE-88"><polyline class="cls-4" points="49.94 138.48 50.16 138.26 50.38 138.04 50.6 137.83 50.83 137.62 51.06 137.41 51.29 137.21 51.53 137 51.77 136.8 52 136.6 52.25 136.41 52.49 136.22 52.73 136.03 52.98 135.84 53.23 135.66 53.48 135.47 53.74 135.3 53.99 135.12 54.25 134.95 54.51 134.78 54.77 134.61 55.03 134.45 55.3 134.28 55.56 134.13 55.83 133.97 56.1 133.82 56.37 133.67 56.65 133.52 56.66 133.52"/></g><g id="LWPOLYLINE-89"><polyline class="cls-4" points="60.72 131.76 60.92 131.7 61.21 131.6 61.51 131.51 61.81 131.42 62.1 131.33 62.4 131.25 62.7 131.17 63 131.09 63.3 131.02 63.61 130.95 63.91 130.88 64.21 130.82 64.52 130.76 64.82 130.7 65.13 130.65 65.43 130.6 65.74 130.56 66.05 130.51 66.36 130.47 66.66 130.44 66.97 130.41 67.28 130.38 67.59 130.35 67.9 130.33 68.21 130.31 68.52 130.29 68.83 130.28 69.14 130.27 69.42 130.27"/></g><g id="LWPOLYLINE-90"><polyline class="cls-4" points="72.71 128.79 72.71 131 71.23 131"/></g><g id="LWPOLYLINE-91"><line class="cls-4" x1="69.76" y1="130.27" x2="69.76" y2="128.79"/></g><g id="LWPOLYLINE-92"><line class="cls-4" x1="71.23" y1="130.27" x2="71.23" y2="158.3"/></g><g id="LWPOLYLINE-93"><line class="cls-4" x1="69.76" y1="158.3" x2="66.11" y2="154.65"/></g><g id="LWPOLYLINE-94"><line class="cls-4" x1="62.98" y1="151.52" x2="56.71" y2="145.25"/></g><g id="LWPOLYLINE-95"><line class="cls-4" x1="53.58" y1="142.12" x2="49.94" y2="138.48"/></g><g id="LWPOLYLINE-96"><line class="cls-4" x1="72.71" y1="131" x2="72.71" y2="142.07"/></g><g id="LWPOLYLINE-97"><line class="cls-4" x1="72.71" y1="146.5" x2="72.71" y2="157.56"/></g><g id="LWPOLYLINE-98"><line class="cls-4" x1="72.71" y1="128.79" x2="69.76" y2="128.79"/></g><g id="LWPOLYLINE-99"><line class="cls-4" x1="71.23" y1="130.27" x2="69.76" y2="130.27"/></g><g id="LWPOLYLINE-100"><polyline class="cls-4" points="71.23 158.3 69.76 158.3 69.76 159.77 72.71 159.77 72.71 157.56 71.23 157.56"/></g><g id="LWPOLYLINE-101"><line class="cls-4" x1="72.71" y1="129.53" x2="69.76" y2="129.53"/></g><g id="LWPOLYLINE-102"><line class="cls-4" x1="72.71" y1="159.03" x2="69.76" y2="159.03"/></g><g id="LWPOLYLINE-103"><line class="cls-4" x1="69.76" y1="130.27" x2="69.76" y2="158.3"/></g><g id="ARC"><path class="cls-4" d="m143.52,59.45c0,15.48,12.55,28.03,28.03,28.03"/></g><g id="LWPOLYLINE-104"><polyline class="cls-4" points="174.51 88.96 174.51 86.74 173.03 86.74"/></g><g id="LWPOLYLINE-105"><line class="cls-4" x1="171.56" y1="87.48" x2="171.56" y2="88.96"/></g><g id="LWPOLYLINE-106"><line class="cls-4" x1="173.03" y1="87.48" x2="173.03" y2="59.45"/></g><g id="LWPOLYLINE-107"><line class="cls-4" x1="171.56" y1="59.45" x2="143.52" y2="59.45"/></g><g id="LWPOLYLINE-108"><line class="cls-4" x1="174.51" y1="86.74" x2="174.51" y2="75.68"/></g><g id="LWPOLYLINE-109"><line class="cls-4" x1="174.51" y1="71.25" x2="174.51" y2="60.19"/></g><g id="LWPOLYLINE-110"><line class="cls-4" x1="174.51" y1="88.96" x2="171.56" y2="88.96"/></g><g id="LWPOLYLINE-111"><line class="cls-4" x1="173.03" y1="87.48" x2="171.56" y2="87.48"/></g><g id="LWPOLYLINE-112"><polyline class="cls-4" points="173.03 59.45 171.56 59.45 171.56 57.98 174.51 57.98 174.51 60.19 173.03 60.19"/></g><g id="LWPOLYLINE-113"><line class="cls-4" x1="174.51" y1="88.22" x2="171.56" y2="88.22"/></g><g id="LWPOLYLINE-114"><line class="cls-4" x1="174.51" y1="58.71" x2="171.56" y2="58.71"/></g><g id="LWPOLYLINE-115"><line class="cls-4" x1="171.56" y1="87.48" x2="171.56" y2="59.45"/></g><g id="LWPOLYLINE-116"><polyline class="cls-4" points="184 235.85 183.78 235.63 183.56 235.41 183.33 235.2 183.1 234.99 182.87 234.78 182.64 234.58 182.41 234.37 182.17 234.17 181.93 233.98 181.69 233.78 181.45 233.59 181.2 233.4 180.95 233.21 180.7 233.03 180.45 232.85 180.2 232.67 179.94 232.49 179.69 232.32 179.43 232.15 179.17 231.98 178.9 231.82 178.64 231.66 178.37 231.5 178.1 231.34 177.83 231.19 177.56 231.04 177.29 230.89 177.01 230.75 176.92 230.7"/></g><g id="LWPOLYLINE-117"><polyline class="cls-4" points="172.83 229.01 172.72 228.97 172.43 228.88 172.13 228.79 171.83 228.7 171.53 228.62 171.23 228.54 170.93 228.46 170.63 228.39 170.33 228.32 170.03 228.26 169.72 228.19 169.42 228.13 169.11 228.08 168.81 228.02 168.5 227.97 168.2 227.93 167.89 227.88 167.58 227.85 167.27 227.81 166.96 227.78 166.66 227.75 166.35 227.72 166.04 227.7 165.73 227.68 165.42 227.67 165.11 227.65 164.8 227.64 164.49 227.64 164.18 227.64"/></g><g id="LWPOLYLINE-118"><polyline class="cls-4" points="161.23 226.16 161.23 228.38 162.7 228.38"/></g><g id="LWPOLYLINE-119"><line class="cls-4" x1="164.18" y1="227.64" x2="164.18" y2="226.16"/></g><g id="LWPOLYLINE-120"><line class="cls-4" x1="162.7" y1="227.64" x2="162.7" y2="255.67"/></g><g id="LWPOLYLINE-121"><line class="cls-4" x1="164.18" y1="255.67" x2="167.82" y2="252.02"/></g><g id="LWPOLYLINE-122"><line class="cls-4" x1="170.96" y1="248.89" x2="177.22" y2="242.63"/></g><g id="LWPOLYLINE-123"><line class="cls-4" x1="180.35" y1="239.49" x2="184" y2="235.85"/></g><g id="LWPOLYLINE-124"><line class="cls-4" x1="161.23" y1="228.38" x2="161.23" y2="239.44"/></g><g id="LWPOLYLINE-125"><line class="cls-4" x1="161.23" y1="243.87" x2="161.23" y2="254.93"/></g><g id="LWPOLYLINE-126"><line class="cls-4" x1="161.23" y1="226.16" x2="164.18" y2="226.16"/></g><g id="LWPOLYLINE-127"><line class="cls-4" x1="162.7" y1="227.64" x2="164.18" y2="227.64"/></g><g id="LWPOLYLINE-128"><polyline class="cls-4" points="162.7 255.67 164.18 255.67 164.18 257.14 161.23 257.14 161.23 254.93 162.7 254.93"/></g><g id="LWPOLYLINE-129"><line class="cls-4" x1="161.23" y1="226.9" x2="164.18" y2="226.9"/></g><g id="LWPOLYLINE-130"><line class="cls-4" x1="161.23" y1="256.41" x2="164.18" y2="256.41"/></g><g id="LWPOLYLINE-131"><line class="cls-4" x1="164.18" y1="227.64" x2="164.18" y2="255.67"/></g><g id="LWPOLYLINE-132"><polyline class="cls-4" points="184 203.39 183.78 203.17 183.56 202.96 183.33 202.74 183.1 202.53 182.87 202.33 182.64 202.12 182.41 201.92 182.17 201.72 181.93 201.52 181.69 201.32 181.45 201.13 181.2 200.94 180.95 200.75 180.7 200.57 180.45 200.39 180.2 200.21 179.94 200.03 179.69 199.86 179.43 199.69 179.17 199.52 178.9 199.36 178.64 199.2 178.37 199.04 178.1 198.89 177.83 198.73 177.56 198.58 177.29 198.44 177.01 198.29 176.92 198.24"/></g><g id="LWPOLYLINE-133"><polyline class="cls-4" points="172.83 196.55 172.72 196.51 172.43 196.42 172.13 196.33 171.83 196.25 171.53 196.16 171.23 196.08 170.93 196.01 170.63 195.93 170.33 195.86 170.03 195.8 169.72 195.73 169.42 195.67 169.11 195.62 168.81 195.57 168.5 195.52 168.2 195.47 167.89 195.43 167.58 195.39 167.27 195.35 166.96 195.32 166.66 195.29 166.35 195.26 166.04 195.24 165.73 195.22 165.42 195.21 165.11 195.2 164.8 195.19 164.49 195.18 164.18 195.18"/></g><g id="LWPOLYLINE-134"><polyline class="cls-4" points="161.23 193.71 161.23 195.92 162.7 195.92"/></g><g id="LWPOLYLINE-135"><line class="cls-4" x1="164.18" y1="195.18" x2="164.18" y2="193.71"/></g><g id="LWPOLYLINE-136"><line class="cls-4" x1="162.7" y1="195.18" x2="162.7" y2="223.21"/></g><g id="LWPOLYLINE-137"><line class="cls-4" x1="164.18" y1="223.21" x2="167.82" y2="219.57"/></g><g id="LWPOLYLINE-138"><line class="cls-4" x1="170.96" y1="216.43" x2="177.22" y2="210.17"/></g><g id="LWPOLYLINE-139"><line class="cls-4" x1="180.35" y1="207.04" x2="184" y2="203.39"/></g><g id="LWPOLYLINE-140"><line class="cls-4" x1="161.23" y1="195.92" x2="161.23" y2="206.98"/></g><g id="LWPOLYLINE-141"><line class="cls-4" x1="161.23" y1="211.41" x2="161.23" y2="222.47"/></g><g id="LWPOLYLINE-142"><line class="cls-4" x1="161.23" y1="193.71" x2="164.18" y2="193.71"/></g><g id="LWPOLYLINE-143"><line class="cls-4" x1="162.7" y1="195.18" x2="164.18" y2="195.18"/></g><g id="LWPOLYLINE-144"><polyline class="cls-4" points="162.7 223.21 164.18 223.21 164.18 224.69 161.23 224.69 161.23 222.47 162.7 222.47"/></g><g id="LWPOLYLINE-145"><line class="cls-4" x1="161.23" y1="194.44" x2="164.18" y2="194.44"/></g><g id="LWPOLYLINE-146"><line class="cls-4" x1="161.23" y1="223.95" x2="164.18" y2="223.95"/></g><g id="LWPOLYLINE-147"><line class="cls-4" x1="164.18" y1="195.18" x2="164.18" y2="223.21"/></g><g id="LWPOLYLINE-148"><polyline class="cls-4" points="184 170.93 183.78 170.72 183.56 170.5 183.33 170.29 183.1 170.08 182.87 169.87 182.64 169.66 182.41 169.46 182.17 169.26 181.93 169.06 181.69 168.87 181.45 168.67 181.2 168.48 180.95 168.3 180.7 168.11 180.45 167.93 180.2 167.75 179.94 167.58 179.69 167.4 179.43 167.23 179.17 167.07 178.9 166.9 178.64 166.74 178.37 166.58 178.1 166.43 177.83 166.27 177.56 166.13 177.29 165.98 177.01 165.84 176.92 165.79"/></g><g id="LWPOLYLINE-149"><polyline class="cls-4" points="172.83 164.09 172.72 164.06 172.43 163.96 172.13 163.87 171.83 163.79 171.53 163.71 171.23 163.63 170.93 163.55 170.63 163.48 170.33 163.41 170.03 163.34 169.72 163.28 169.42 163.22 169.11 163.16 168.81 163.11 168.5 163.06 168.2 163.01 167.89 162.97 167.58 162.93 167.27 162.9 166.96 162.86 166.66 162.83 166.35 162.81 166.04 162.79 165.73 162.77 165.42 162.75 165.11 162.74 164.8 162.73 164.49 162.73 164.18 162.72"/></g><g id="LWPOLYLINE-150"><polyline class="cls-4" points="161.23 161.25 161.23 163.46 162.7 163.46"/></g><g id="LWPOLYLINE-151"><line class="cls-4" x1="164.18" y1="162.72" x2="164.18" y2="161.25"/></g><g id="LWPOLYLINE-152"><line class="cls-4" x1="162.7" y1="162.72" x2="162.7" y2="190.75"/></g><g id="LWPOLYLINE-153"><line class="cls-4" x1="164.18" y1="190.75" x2="167.82" y2="187.11"/></g><g id="LWPOLYLINE-154"><line class="cls-4" x1="170.96" y1="183.98" x2="177.22" y2="177.71"/></g><g id="LWPOLYLINE-155"><line class="cls-4" x1="180.35" y1="174.58" x2="184" y2="170.93"/></g><g id="LWPOLYLINE-156"><line class="cls-4" x1="161.23" y1="163.46" x2="161.23" y2="174.52"/></g><g id="LWPOLYLINE-157"><line class="cls-4" x1="161.23" y1="178.95" x2="161.23" y2="190.02"/></g><g id="LWPOLYLINE-158"><line class="cls-4" x1="161.23" y1="161.25" x2="164.18" y2="161.25"/></g><g id="LWPOLYLINE-159"><line class="cls-4" x1="162.7" y1="162.72" x2="164.18" y2="162.72"/></g><g id="LWPOLYLINE-160"><polyline class="cls-4" points="162.7 190.75 164.18 190.75 164.18 192.23 161.23 192.23 161.23 190.02 162.7 190.02"/></g><g id="LWPOLYLINE-161"><line class="cls-4" x1="161.23" y1="161.99" x2="164.18" y2="161.99"/></g><g id="LWPOLYLINE-162"><line class="cls-4" x1="161.23" y1="191.49" x2="164.18" y2="191.49"/></g><g id="LWPOLYLINE-163"><line class="cls-4" x1="164.18" y1="162.72" x2="164.18" y2="190.75"/></g><g id="LWPOLYLINE-164"><polyline class="cls-4" points="184 138.48 183.78 138.26 183.56 138.04 183.33 137.83 183.1 137.62 182.87 137.41 182.64 137.21 182.41 137 182.17 136.8 181.93 136.6 181.69 136.41 181.45 136.22 181.2 136.03 180.95 135.84 180.7 135.66 180.45 135.47 180.2 135.3 179.94 135.12 179.69 134.95 179.43 134.78 179.17 134.61 178.9 134.45 178.64 134.28 178.37 134.13 178.1 133.97 177.83 133.82 177.56 133.67 177.29 133.52 177.01 133.38 176.92 133.33"/></g><g id="LWPOLYLINE-165"><polyline class="cls-4" points="172.83 131.63 172.72 131.6 172.43 131.51 172.13 131.42 171.83 131.33 171.53 131.25 171.23 131.17 170.93 131.09 170.63 131.02 170.33 130.95 170.03 130.88 169.72 130.82 169.42 130.76 169.11 130.7 168.81 130.65 168.5 130.6 168.2 130.56 167.89 130.51 167.58 130.47 167.27 130.44 166.96 130.41 166.66 130.38 166.35 130.35 166.04 130.33 165.73 130.31 165.42 130.29 165.11 130.28 164.8 130.27 164.49 130.27 164.18 130.27"/></g><g id="LWPOLYLINE-166"><polyline class="cls-4" points="161.23 128.79 161.23 131 162.7 131"/></g><g id="LWPOLYLINE-167"><line class="cls-4" x1="164.18" y1="130.27" x2="164.18" y2="128.79"/></g><g id="LWPOLYLINE-168"><line class="cls-4" x1="162.7" y1="130.27" x2="162.7" y2="158.3"/></g><g id="LWPOLYLINE-169"><line class="cls-4" x1="164.18" y1="158.3" x2="167.82" y2="154.65"/></g><g id="LWPOLYLINE-170"><line class="cls-4" x1="170.96" y1="151.52" x2="177.22" y2="145.25"/></g><g id="LWPOLYLINE-171"><line class="cls-4" x1="180.35" y1="142.12" x2="184" y2="138.48"/></g><g id="LWPOLYLINE-172"><line class="cls-4" x1="161.23" y1="131" x2="161.23" y2="142.07"/></g><g id="LWPOLYLINE-173"><line class="cls-4" x1="161.23" y1="146.5" x2="161.23" y2="157.56"/></g><g id="LWPOLYLINE-174"><line class="cls-4" x1="161.23" y1="128.79" x2="164.18" y2="128.79"/></g><g id="LWPOLYLINE-175"><line class="cls-4" x1="162.7" y1="130.27" x2="164.18" y2="130.27"/></g><g id="LWPOLYLINE-176"><polyline class="cls-4" points="162.7 158.3 164.18 158.3 164.18 159.77 161.23 159.77 161.23 157.56 162.7 157.56"/></g><g id="LWPOLYLINE-177"><line class="cls-4" x1="161.23" y1="129.53" x2="164.18" y2="129.53"/></g><g id="LWPOLYLINE-178"><line class="cls-4" x1="161.23" y1="159.03" x2="164.18" y2="159.03"/></g><g id="LWPOLYLINE-179"><line class="cls-4" x1="164.18" y1="130.27" x2="164.18" y2="158.3"/></g><g id="LWPOLYLINE-180"><polyline class="cls-4" points="207.8 235.85 208.02 235.63 208.24 235.41 208.46 235.2 208.69 234.99 208.92 234.78 209.15 234.58 209.39 234.37 209.63 234.17 209.86 233.98 210.11 233.78 210.35 233.59 210.59 233.4 210.84 233.21 211.09 233.03 211.34 232.85 211.6 232.67 211.85 232.49 212.11 232.32 212.37 232.15 212.63 231.98 212.89 231.82 213.16 231.66 213.42 231.5 213.69 231.34 213.96 231.19 214.23 231.04 214.51 230.89 214.52 230.89"/></g><g id="LWPOLYLINE-181"><polyline class="cls-4" points="218.58 229.14 218.78 229.07 219.07 228.97 219.37 228.88 219.67 228.79 219.96 228.7 220.26 228.62 220.56 228.54 220.86 228.46 221.16 228.39 221.47 228.32 221.77 228.26 222.07 228.19 222.38 228.13 222.68 228.08 222.99 228.02 223.29 227.97 223.6 227.93 223.91 227.88 224.21 227.85 224.52 227.81 224.83 227.78 225.14 227.75 225.45 227.72 225.76 227.7 226.07 227.68 226.38 227.67 226.69 227.65 227 227.64 227.28 227.64"/></g><g id="LWPOLYLINE-182"><polyline class="cls-4" points="230.57 226.16 230.57 228.38 229.09 228.38"/></g><g id="LWPOLYLINE-183"><line class="cls-4" x1="227.62" y1="227.64" x2="227.62" y2="226.16"/></g><g id="LWPOLYLINE-184"><line class="cls-4" x1="229.09" y1="227.64" x2="229.09" y2="255.67"/></g><g id="LWPOLYLINE-185"><line class="cls-4" x1="227.62" y1="255.67" x2="223.97" y2="252.02"/></g><g id="LWPOLYLINE-186"><line class="cls-4" x1="220.84" y1="248.89" x2="214.57" y2="242.63"/></g><g id="LWPOLYLINE-187"><line class="cls-4" x1="211.44" y1="239.49" x2="207.8" y2="235.85"/></g><g id="LWPOLYLINE-188"><line class="cls-4" x1="230.57" y1="228.38" x2="230.57" y2="239.44"/></g><g id="LWPOLYLINE-189"><line class="cls-4" x1="230.57" y1="243.87" x2="230.57" y2="254.93"/></g><g id="LWPOLYLINE-190"><line class="cls-4" x1="230.57" y1="226.16" x2="227.62" y2="226.16"/></g><g id="LWPOLYLINE-191"><line class="cls-4" x1="229.09" y1="227.64" x2="227.62" y2="227.64"/></g><g id="LWPOLYLINE-192"><polyline class="cls-4" points="229.09 255.67 227.62 255.67 227.62 257.14 230.57 257.14 230.57 254.93 229.09 254.93"/></g><g id="LWPOLYLINE-193"><line class="cls-4" x1="230.57" y1="226.9" x2="227.62" y2="226.9"/></g><g id="LWPOLYLINE-194"><line class="cls-4" x1="230.57" y1="256.41" x2="227.62" y2="256.41"/></g><g id="LWPOLYLINE-195"><line class="cls-4" x1="227.62" y1="227.64" x2="227.62" y2="255.67"/></g><g id="LWPOLYLINE-196"><polyline class="cls-4" points="207.8 203.39 208.02 203.17 208.24 202.96 208.46 202.74 208.69 202.53 208.92 202.33 209.15 202.12 209.39 201.92 209.63 201.72 209.86 201.52 210.11 201.32 210.35 201.13 210.59 200.94 210.84 200.75 211.09 200.57 211.34 200.39 211.6 200.21 211.85 200.03 212.11 199.86 212.37 199.69 212.63 199.52 212.89 199.36 213.16 199.2 213.42 199.04 213.69 198.89 213.96 198.73 214.23 198.58 214.51 198.44 214.52 198.43"/></g><g id="LWPOLYLINE-197"><polyline class="cls-4" points="218.58 196.68 218.78 196.61 219.07 196.51 219.37 196.42 219.67 196.33 219.96 196.25 220.26 196.16 220.56 196.08 220.86 196.01 221.16 195.93 221.47 195.86 221.77 195.8 222.07 195.73 222.38 195.67 222.68 195.62 222.99 195.57 223.29 195.52 223.6 195.47 223.91 195.43 224.21 195.39 224.52 195.35 224.83 195.32 225.14 195.29 225.45 195.26 225.76 195.24 226.07 195.22 226.38 195.21 226.69 195.2 227 195.19 227.28 195.18"/></g><g id="LWPOLYLINE-198"><polyline class="cls-4" points="230.57 193.71 230.57 195.92 229.09 195.92"/></g><g id="LWPOLYLINE-199"><line class="cls-4" x1="227.62" y1="195.18" x2="227.62" y2="193.71"/></g><g id="LWPOLYLINE-200"><line class="cls-4" x1="229.09" y1="195.18" x2="229.09" y2="223.21"/></g><g id="LWPOLYLINE-201"><line class="cls-4" x1="227.62" y1="223.21" x2="223.97" y2="219.57"/></g><g id="LWPOLYLINE-202"><line class="cls-4" x1="220.84" y1="216.43" x2="214.57" y2="210.17"/></g><g id="LWPOLYLINE-203"><line class="cls-4" x1="211.44" y1="207.04" x2="207.8" y2="203.39"/></g><g id="LWPOLYLINE-204"><line class="cls-4" x1="230.57" y1="195.92" x2="230.57" y2="206.98"/></g><g id="LWPOLYLINE-205"><line class="cls-4" x1="230.57" y1="211.41" x2="230.57" y2="222.47"/></g><g id="LWPOLYLINE-206"><line class="cls-4" x1="230.57" y1="193.71" x2="227.62" y2="193.71"/></g><g id="LWPOLYLINE-207"><line class="cls-4" x1="229.09" y1="195.18" x2="227.62" y2="195.18"/></g><g id="LWPOLYLINE-208"><polyline class="cls-4" points="229.09 223.21 227.62 223.21 227.62 224.69 230.57 224.69 230.57 222.47 229.09 222.47"/></g><g id="LWPOLYLINE-209"><line class="cls-4" x1="230.57" y1="194.44" x2="227.62" y2="194.44"/></g><g id="LWPOLYLINE-210"><line class="cls-4" x1="230.57" y1="223.95" x2="227.62" y2="223.95"/></g><g id="LWPOLYLINE-211"><line class="cls-4" x1="227.62" y1="195.18" x2="227.62" y2="223.21"/></g><g id="LWPOLYLINE-212"><polyline class="cls-4" points="207.8 170.93 208.02 170.72 208.24 170.5 208.46 170.29 208.69 170.08 208.92 169.87 209.15 169.66 209.39 169.46 209.63 169.26 209.86 169.06 210.11 168.87 210.35 168.67 210.59 168.48 210.84 168.3 211.09 168.11 211.34 167.93 211.6 167.75 211.85 167.58 212.11 167.4 212.37 167.23 212.63 167.07 212.89 166.9 213.16 166.74 213.42 166.58 213.69 166.43 213.96 166.27 214.23 166.13 214.51 165.98 214.52 165.97"/></g><g id="LWPOLYLINE-213"><polyline class="cls-4" points="218.58 164.22 218.78 164.15 219.07 164.06 219.37 163.96 219.67 163.87 219.96 163.79 220.26 163.71 220.56 163.63 220.86 163.55 221.16 163.48 221.47 163.41 221.77 163.34 222.07 163.28 222.38 163.22 222.68 163.16 222.99 163.11 223.29 163.06 223.6 163.01 223.91 162.97 224.21 162.93 224.52 162.9 224.83 162.86 225.14 162.83 225.45 162.81 225.76 162.79 226.07 162.77 226.38 162.75 226.69 162.74 227 162.73 227.28 162.73"/></g><g id="LWPOLYLINE-214"><polyline class="cls-4" points="230.57 161.25 230.57 163.46 229.09 163.46"/></g><g id="LWPOLYLINE-215"><line class="cls-4" x1="227.62" y1="162.72" x2="227.62" y2="161.25"/></g><g id="LWPOLYLINE-216"><line class="cls-4" x1="229.09" y1="162.72" x2="229.09" y2="190.75"/></g><g id="LWPOLYLINE-217"><line class="cls-4" x1="227.62" y1="190.75" x2="223.97" y2="187.11"/></g><g id="LWPOLYLINE-218"><line class="cls-4" x1="220.84" y1="183.98" x2="214.57" y2="177.71"/></g><g id="LWPOLYLINE-219"><line class="cls-4" x1="211.44" y1="174.58" x2="207.8" y2="170.93"/></g><g id="LWPOLYLINE-220"><line class="cls-4" x1="230.57" y1="163.46" x2="230.57" y2="174.52"/></g><g id="LWPOLYLINE-221"><line class="cls-4" x1="230.57" y1="178.95" x2="230.57" y2="190.02"/></g><g id="LWPOLYLINE-222"><line class="cls-4" x1="230.57" y1="161.25" x2="227.62" y2="161.25"/></g><g id="LWPOLYLINE-223"><line class="cls-4" x1="229.09" y1="162.72" x2="227.62" y2="162.72"/></g><g id="LWPOLYLINE-224"><polyline class="cls-4" points="229.09 190.75 227.62 190.75 227.62 192.23 230.57 192.23 230.57 190.02 229.09 190.02"/></g><g id="LWPOLYLINE-225"><line class="cls-4" x1="230.57" y1="161.99" x2="227.62" y2="161.99"/></g><g id="LWPOLYLINE-226"><line class="cls-4" x1="230.57" y1="191.49" x2="227.62" y2="191.49"/></g><g id="LWPOLYLINE-227"><line class="cls-4" x1="227.62" y1="162.72" x2="227.62" y2="190.75"/></g><g id="LWPOLYLINE-228"><polyline class="cls-4" points="207.8 138.48 208.02 138.26 208.24 138.04 208.46 137.83 208.69 137.62 208.92 137.41 209.15 137.21 209.39 137 209.63 136.8 209.86 136.6 210.11 136.41 210.35 136.22 210.59 136.03 210.84 135.84 211.09 135.66 211.34 135.47 211.6 135.3 211.85 135.12 212.11 134.95 212.37 134.78 212.63 134.61 212.89 134.45 213.16 134.28 213.42 134.13 213.69 133.97 213.96 133.82 214.23 133.67 214.51 133.52 214.52 133.52"/></g><g id="LWPOLYLINE-229"><polyline class="cls-4" points="218.58 131.76 218.78 131.7 219.07 131.6 219.37 131.51 219.67 131.42 219.96 131.33 220.26 131.25 220.56 131.17 220.86 131.09 221.16 131.02 221.47 130.95 221.77 130.88 222.07 130.82 222.38 130.76 222.68 130.7 222.99 130.65 223.29 130.6 223.6 130.56 223.91 130.51 224.21 130.47 224.52 130.44 224.83 130.41 225.14 130.38 225.45 130.35 225.76 130.33 226.07 130.31 226.38 130.29 226.69 130.28 227 130.27 227.28 130.27"/></g><g id="LWPOLYLINE-230"><polyline class="cls-4" points="230.57 128.79 230.57 131 229.09 131"/></g><g id="LWPOLYLINE-231"><line class="cls-4" x1="227.62" y1="130.27" x2="227.62" y2="128.79"/></g><g id="LWPOLYLINE-232"><line class="cls-4" x1="229.09" y1="130.27" x2="229.09" y2="158.3"/></g><g id="LWPOLYLINE-233"><line class="cls-4" x1="227.62" y1="158.3" x2="223.97" y2="154.65"/></g><g id="LWPOLYLINE-234"><line class="cls-4" x1="220.84" y1="151.52" x2="214.57" y2="145.25"/></g><g id="LWPOLYLINE-235"><line class="cls-4" x1="211.44" y1="142.12" x2="207.8" y2="138.48"/></g><g id="LWPOLYLINE-236"><line class="cls-4" x1="230.57" y1="131" x2="230.57" y2="142.07"/></g><g id="LWPOLYLINE-237"><line class="cls-4" x1="230.57" y1="146.5" x2="230.57" y2="157.56"/></g><g id="LWPOLYLINE-238"><line class="cls-4" x1="230.57" y1="128.79" x2="227.62" y2="128.79"/></g><g id="LWPOLYLINE-239"><line class="cls-4" x1="229.09" y1="130.27" x2="227.62" y2="130.27"/></g><g id="LWPOLYLINE-240"><polyline class="cls-4" points="229.09 158.3 227.62 158.3 227.62 159.77 230.57 159.77 230.57 157.56 229.09 157.56"/></g><g id="LWPOLYLINE-241"><line class="cls-4" x1="230.57" y1="129.53" x2="227.62" y2="129.53"/></g><g id="LWPOLYLINE-242"><line class="cls-4" x1="230.57" y1="159.03" x2="227.62" y2="159.03"/></g><g id="LWPOLYLINE-243"><line class="cls-4" x1="227.62" y1="130.27" x2="227.62" y2="158.3"/></g><g id="ARC-2"><path class="cls-7" d="m76.4,44.7c0-15.48-12.55-28.03-28.03-28.03"/></g><g id="LWPOLYLINE-244"><line class="cls-7" x1="48.36" y1="44.7" x2="48.36" y2="16.67"/></g><g id="ARC-3"><path class="cls-7" d="m232.19,44.7c0-15.48-12.55-28.03-28.03-28.03"/></g><g id="LWPOLYLINE-245"><line class="cls-7" x1="204.16" y1="44.7" x2="204.16" y2="16.67"/></g><g id="LWPOLYLINE-246"><polyline class="cls-4" points="49.94 106.02 50.16 105.8 50.38 105.59 50.6 105.37 50.83 105.16 51.06 104.95 51.29 104.75 51.53 104.55 51.77 104.34 52 104.15 52.25 103.95 52.49 103.76 52.73 103.57 52.98 103.38 53.23 103.2 53.48 103.02 53.74 102.84 53.99 102.66 54.25 102.49 54.51 102.32 54.77 102.15 55.03 101.99 55.3 101.83 55.56 101.67 55.83 101.51 56.1 101.36 56.37 101.21 56.65 101.06 56.66 101.06"/></g><g id="LWPOLYLINE-247"><polyline class="cls-4" points="60.72 99.31 60.92 99.24 61.21 99.14 61.51 99.05 61.81 98.96 62.1 98.87 62.4 98.79 62.7 98.71 63 98.64 63.3 98.56 63.61 98.49 63.91 98.43 64.21 98.36 64.52 98.3 64.82 98.25 65.13 98.19 65.43 98.14 65.74 98.1 66.05 98.06 66.36 98.02 66.66 97.98 66.97 97.95 67.28 97.92 67.59 97.89 67.9 97.87 68.21 97.85 68.52 97.84 68.83 97.82 69.14 97.82 69.42 97.81"/></g><g id="LWPOLYLINE-248"><polyline class="cls-4" points="72.71 96.33 72.71 98.55 71.23 98.55"/></g><g id="LWPOLYLINE-249"><line class="cls-4" x1="69.76" y1="97.81" x2="69.76" y2="96.33"/></g><g id="LWPOLYLINE-250"><line class="cls-4" x1="71.23" y1="97.81" x2="71.23" y2="125.84"/></g><g id="LWPOLYLINE-251"><line class="cls-4" x1="69.76" y1="125.84" x2="66.11" y2="122.2"/></g><g id="LWPOLYLINE-252"><line class="cls-4" x1="62.98" y1="119.06" x2="56.71" y2="112.8"/></g><g id="LWPOLYLINE-253"><line class="cls-4" x1="53.58" y1="109.66" x2="49.94" y2="106.02"/></g><g id="LWPOLYLINE-254"><line class="cls-4" x1="72.71" y1="98.55" x2="72.71" y2="109.61"/></g><g id="LWPOLYLINE-255"><line class="cls-4" x1="72.71" y1="114.04" x2="72.71" y2="125.1"/></g><g id="LWPOLYLINE-256"><line class="cls-4" x1="72.71" y1="96.33" x2="69.76" y2="96.33"/></g><g id="LWPOLYLINE-257"><line class="cls-4" x1="71.23" y1="97.81" x2="69.76" y2="97.81"/></g><g id="LWPOLYLINE-258"><polyline class="cls-4" points="71.23 125.84 69.76 125.84 69.76 127.32 72.71 127.32 72.71 125.1 71.23 125.1"/></g><g id="LWPOLYLINE-259"><line class="cls-4" x1="72.71" y1="97.07" x2="69.76" y2="97.07"/></g><g id="LWPOLYLINE-260"><line class="cls-4" x1="72.71" y1="126.58" x2="69.76" y2="126.58"/></g><g id="LWPOLYLINE-261"><line class="cls-4" x1="69.76" y1="97.81" x2="69.76" y2="125.84"/></g><g id="LWPOLYLINE-262"><polyline class="cls-3" points="77.87 47.65 75.66 47.65 75.66 46.17"/></g><g id="LWPOLYLINE-263"><line class="cls-3" x1="76.4" y1="44.7" x2="77.87" y2="44.7"/></g><g id="LWPOLYLINE-264"><line class="cls-3" x1="76.4" y1="46.17" x2="48.36" y2="46.17"/></g><g id="LWPOLYLINE-265"><line class="cls-3" x1="75.66" y1="47.65" x2="64.6" y2="47.65"/></g><g id="LWPOLYLINE-266"><line class="cls-3" x1="60.17" y1="47.65" x2="49.1" y2="47.65"/></g><g id="LWPOLYLINE-267"><line class="cls-3" x1="77.87" y1="47.65" x2="77.87" y2="44.7"/></g><g id="LWPOLYLINE-268"><line class="cls-3" x1="76.4" y1="46.17" x2="76.4" y2="44.7"/></g><g id="LWPOLYLINE-269"><polyline class="cls-3" points="48.36 46.17 48.36 44.7 46.89 44.7 46.89 47.65 49.1 47.65 49.1 46.17"/></g><g id="LWPOLYLINE-270"><line class="cls-3" x1="77.13" y1="47.65" x2="77.13" y2="44.7"/></g><g id="LWPOLYLINE-271"><line class="cls-3" x1="47.63" y1="47.65" x2="47.63" y2="44.7"/></g><g id="LWPOLYLINE-272"><line class="cls-3" x1="76.4" y1="44.7" x2="48.36" y2="44.7"/></g><g id="LWPOLYLINE-273"><polyline class="cls-3" points="233.67 47.65 231.45 47.65 231.45 46.17"/></g><g id="LWPOLYLINE-274"><line class="cls-3" x1="232.19" y1="44.7" x2="233.67" y2="44.7"/></g><g id="LWPOLYLINE-275"><line class="cls-3" x1="232.19" y1="46.17" x2="204.16" y2="46.17"/></g><g id="LWPOLYLINE-276"><line class="cls-3" x1="231.45" y1="47.65" x2="220.39" y2="47.65"/></g><g id="LWPOLYLINE-277"><line class="cls-3" x1="215.96" y1="47.65" x2="204.9" y2="47.65"/></g><g id="LWPOLYLINE-278"><line class="cls-3" x1="233.67" y1="47.65" x2="233.67" y2="44.7"/></g><g id="LWPOLYLINE-279"><line class="cls-3" x1="232.19" y1="46.17" x2="232.19" y2="44.7"/></g><g id="LWPOLYLINE-280"><polyline class="cls-3" points="204.16 46.17 204.16 44.7 202.68 44.7 202.68 47.65 204.9 47.65 204.9 46.17"/></g><g id="LWPOLYLINE-281"><line class="cls-3" x1="232.93" y1="47.65" x2="232.93" y2="44.7"/></g><g id="LWPOLYLINE-282"><line class="cls-3" x1="203.42" y1="47.65" x2="203.42" y2="44.7"/></g><g id="LWPOLYLINE-283"><line class="cls-3" x1="232.19" y1="44.7" x2="204.16" y2="44.7"/></g><g id="LWPOLYLINE-284"><polyline class="cls-3" points="232.19 47.65 233.67 47.65 233.67 49.12 232.19 49.12 232.19 47.65"/></g><g id="LWPOLYLINE-285"><polyline class="cls-3" points="202.68 47.65 204.16 47.65 204.16 49.12 202.68 49.12 202.68 47.65"/></g><g id="LWPOLYLINE-286"><polyline class="cls-3" points="76.4 47.65 77.87 47.65 77.87 49.12 76.4 49.12 76.4 47.65"/></g><g id="LWPOLYLINE-287"><polyline class="cls-3" points="46.89 47.65 48.36 47.65 48.36 49.12 46.89 49.12 46.89 47.65"/></g><g id="ARC-4"><path class="cls-1" d="m99.48,237.53c-.99,0-1.97.11-2.93.33"/></g><g id="ARC-5"><path class="cls-1" d="m96.54,237.86c-.78.18-1.53.47-2.22.85"/></g><g id="ARC-6"><path class="cls-1" d="m94.32,238.71c-.65.36-1.22.86-1.67,1.46"/></g><g id="ARC-7"><path class="cls-1" d="m92.65,240.17c-.3.41-.47.9-.47,1.41"/></g><g id="ARC-8"><path class="cls-1" d="m92.18,241.58c0,.51.16,1,.47,1.41"/></g><g id="ARC-9"><path class="cls-1" d="m92.65,242.98c.45.6,1.02,1.1,1.67,1.46"/></g><g id="ARC-10"><path class="cls-1" d="m94.32,244.45c.7.39,1.45.68,2.22.85"/></g><g id="ARC-11"><path class="cls-1" d="m96.54,245.3c.96.22,1.95.33,2.93.33"/></g><g id="ARC-12"><path class="cls-1" d="m99.48,245.63c2.24,0,4.05-1.82,4.05-4.05s-1.82-4.05-4.05-4.05"/></g><g id="ARC-13"><path class="cls-1" d="m98.08,236.34c-.92,0-1.84.12-2.74.36"/></g><g id="ARC-14"><path class="cls-1" d="m95.35,236.7c-.79.21-1.55.55-2.24,1"/></g><g id="ARC-15"><path class="cls-1" d="m93.11,237.7c-.71.46-1.31,1.07-1.77,1.78"/></g><g id="ARC-16"><path class="cls-1" d="m91.34,239.49c-.41.65-.63,1.4-.63,2.16"/></g><g id="ARC-17"><path class="cls-1" d="m90.71,241.65c0,.77.22,1.52.63,2.16"/></g><g id="ARC-18"><path class="cls-1" d="m91.34,243.82c.46.71,1.06,1.32,1.77,1.78"/></g><g id="ARC-19"><path class="cls-1" d="m93.11,245.6c.69.45,1.45.79,2.24,1"/></g><g id="ARC-20"><path class="cls-1" d="m95.35,246.6c.89.24,1.81.36,2.74.36"/></g><g id="ARC-21"><path class="cls-1" d="m100.62,239.89c-.97,0-1.76.79-1.76,1.76s.79,1.76,1.76,1.76"/></g><g id="ARC-22"><path class="cls-1" d="m98.09,246.96c3.12-.01,6.23-.29,9.3-.81"/></g><g id="ARC-23"><path class="cls-1" d="m107.38,237.15c-3.07-.52-6.18-.79-9.3-.81"/></g><g id="LWPOLYLINE-288"><line class="cls-1" x1="108.12" y1="245.28" x2="108.12" y2="238.02"/></g><g id="ARC-24"><path class="cls-1" d="m108.12,238.02c0-.43-.31-.8-.74-.87"/></g><g id="ARC-25"><path class="cls-1" d="m107.38,246.16c.43-.07.74-.44.74-.87"/></g><g id="ARC-26"><path class="cls-1" d="m99.48,205.07c-.99,0-1.97.11-2.93.33"/></g><g id="ARC-27"><path class="cls-1" d="m96.54,205.4c-.78.18-1.53.47-2.22.85"/></g><g id="ARC-28"><path class="cls-1" d="m94.32,206.25c-.65.36-1.22.86-1.67,1.46"/></g><g id="ARC-29"><path class="cls-1" d="m92.65,207.72c-.3.41-.47.9-.47,1.41"/></g><g id="ARC-30"><path class="cls-1" d="m92.18,209.12c0,.51.16,1,.47,1.41"/></g><g id="ARC-31"><path class="cls-1" d="m92.65,210.53c.45.6,1.02,1.1,1.67,1.46"/></g><g id="ARC-32"><path class="cls-1" d="m94.32,211.99c.7.39,1.45.68,2.22.85"/></g><g id="ARC-33"><path class="cls-1" d="m96.54,212.84c.96.22,1.95.33,2.93.33"/></g><g id="ARC-34"><path class="cls-1" d="m99.48,213.18c2.24,0,4.05-1.82,4.05-4.05s-1.82-4.05-4.05-4.05"/></g><g id="ARC-35"><path class="cls-1" d="m98.08,203.89c-.92,0-1.84.12-2.74.36"/></g><g id="ARC-36"><path class="cls-1" d="m95.35,204.25c-.79.21-1.55.55-2.24,1"/></g><g id="ARC-37"><path class="cls-1" d="m93.11,205.25c-.71.46-1.31,1.07-1.77,1.78"/></g><g id="ARC-38"><path class="cls-1" d="m91.34,207.03c-.41.65-.63,1.4-.63,2.16"/></g><g id="ARC-39"><path class="cls-1" d="m90.71,209.2c0,.77.22,1.52.63,2.16"/></g><g id="ARC-40"><path class="cls-1" d="m91.34,211.36c.46.71,1.06,1.32,1.77,1.78"/></g><g id="ARC-41"><path class="cls-1" d="m93.11,213.15c.69.45,1.45.79,2.24,1"/></g><g id="ARC-42"><path class="cls-1" d="m95.35,214.14c.89.24,1.81.36,2.74.36"/></g><g id="ARC-43"><path class="cls-1" d="m100.62,207.43c-.97,0-1.76.79-1.76,1.76s.79,1.76,1.76,1.76"/></g><g id="ARC-44"><path class="cls-1" d="m98.09,214.51c3.12-.01,6.23-.29,9.3-.81"/></g><g id="ARC-45"><path class="cls-1" d="m107.38,204.69c-3.07-.52-6.18-.79-9.3-.81"/></g><g id="LWPOLYLINE-289"><line class="cls-1" x1="108.12" y1="212.83" x2="108.12" y2="205.57"/></g><g id="ARC-46"><path class="cls-1" d="m108.12,205.57c0-.43-.31-.8-.74-.87"/></g><g id="ARC-47"><path class="cls-1" d="m107.38,213.7c.43-.07.74-.44.74-.87"/></g><g id="ARC-48"><path class="cls-1" d="m99.48,172.61c-.99,0-1.97.11-2.93.33"/></g><g id="ARC-49"><path class="cls-1" d="m96.54,172.94c-.78.18-1.53.47-2.22.85"/></g><g id="ARC-50"><path class="cls-1" d="m94.32,173.8c-.65.36-1.22.86-1.67,1.46"/></g><g id="ARC-51"><path class="cls-1" d="m92.65,175.26c-.3.41-.47.9-.47,1.41"/></g><g id="ARC-52"><path class="cls-1" d="m92.18,176.66c0,.51.16,1,.47,1.41"/></g><g id="ARC-53"><path class="cls-1" d="m92.65,178.07c.45.6,1.02,1.1,1.67,1.46"/></g><g id="ARC-54"><path class="cls-1" d="m94.32,179.53c.7.39,1.45.68,2.22.85"/></g><g id="ARC-55"><path class="cls-1" d="m96.54,180.38c.96.22,1.95.33,2.93.33"/></g><g id="ARC-56"><path class="cls-1" d="m99.48,180.72c2.24,0,4.05-1.82,4.05-4.05s-1.82-4.05-4.05-4.05"/></g><g id="ARC-57"><path class="cls-1" d="m98.08,171.43c-.92,0-1.84.12-2.74.36"/></g><g id="ARC-58"><path class="cls-1" d="m95.35,171.79c-.79.21-1.55.55-2.24,1"/></g><g id="ARC-59"><path class="cls-1" d="m93.11,172.79c-.71.46-1.31,1.07-1.77,1.78"/></g><g id="ARC-60"><path class="cls-1" d="m91.34,174.57c-.41.65-.63,1.4-.63,2.16"/></g><g id="ARC-61"><path class="cls-1" d="m90.71,176.74c0,.77.22,1.52.63,2.16"/></g><g id="ARC-62"><path class="cls-1" d="m91.34,178.9c.46.71,1.06,1.32,1.77,1.78"/></g><g id="ARC-63"><path class="cls-1" d="m93.11,180.69c.69.45,1.45.79,2.24,1"/></g><g id="ARC-64"><path class="cls-1" d="m95.35,181.69c.89.24,1.81.36,2.74.36"/></g><g id="ARC-65"><path class="cls-1" d="m100.62,174.97c-.97,0-1.76.79-1.76,1.76s.79,1.76,1.76,1.76"/></g><g id="ARC-66"><path class="cls-1" d="m98.09,182.05c3.12-.01,6.23-.29,9.3-.81"/></g><g id="ARC-67"><path class="cls-1" d="m107.38,172.24c-3.07-.52-6.18-.79-9.3-.81"/></g><g id="LWPOLYLINE-290"><line class="cls-1" x1="108.12" y1="180.37" x2="108.12" y2="173.11"/></g><g id="ARC-68"><path class="cls-1" d="m108.12,173.11c0-.43-.31-.8-.74-.87"/></g><g id="ARC-69"><path class="cls-1" d="m107.38,181.24c.43-.07.74-.44.74-.87"/></g><g id="ARC-70"><path class="cls-1" d="m99.48,140.15c-.99,0-1.97.11-2.93.33"/></g><g id="ARC-71"><path class="cls-1" d="m96.54,140.49c-.78.18-1.53.47-2.22.85"/></g><g id="ARC-72"><path class="cls-1" d="m94.32,141.34c-.65.36-1.22.86-1.67,1.46"/></g><g id="ARC-73"><path class="cls-1" d="m92.65,142.8c-.3.41-.47.9-.47,1.41"/></g><g id="ARC-74"><path class="cls-1" d="m92.18,144.21c0,.51.16,1,.47,1.41"/></g><g id="ARC-75"><path class="cls-1" d="m92.65,145.61c.45.6,1.02,1.1,1.67,1.46"/></g><g id="ARC-76"><path class="cls-1" d="m94.32,147.07c.7.39,1.45.68,2.22.85"/></g><g id="ARC-77"><path class="cls-1" d="m96.54,147.93c.96.22,1.95.33,2.93.33"/></g><g id="ARC-78"><path class="cls-1" d="m99.48,148.26c2.24,0,4.05-1.82,4.05-4.05s-1.82-4.05-4.05-4.05"/></g><g id="ARC-79"><path class="cls-1" d="m98.08,138.97c-.92,0-1.84.12-2.74.36"/></g><g id="ARC-80"><path class="cls-1" d="m95.35,139.33c-.79.21-1.55.55-2.24,1"/></g><g id="ARC-81"><path class="cls-1" d="m93.11,140.33c-.71.46-1.31,1.07-1.77,1.78"/></g><g id="ARC-82"><path class="cls-1" d="m91.34,142.12c-.41.65-.63,1.4-.63,2.16"/></g><g id="ARC-83"><path class="cls-1" d="m90.71,144.28c0,.77.22,1.52.63,2.16"/></g><g id="ARC-84"><path class="cls-1" d="m91.34,146.45c.46.71,1.06,1.32,1.77,1.78"/></g><g id="ARC-85"><path class="cls-1" d="m93.11,148.23c.69.45,1.45.79,2.24,1"/></g><g id="ARC-86"><path class="cls-1" d="m95.35,149.23c.89.24,1.81.36,2.74.36"/></g><g id="ARC-87"><path class="cls-1" d="m100.62,142.52c-.97,0-1.76.79-1.76,1.76s.79,1.76,1.76,1.76"/></g><g id="ARC-88"><path class="cls-1" d="m98.09,149.59c3.12-.01,6.23-.29,9.3-.81"/></g><g id="ARC-89"><path class="cls-1" d="m107.38,139.78c-3.07-.52-6.18-.79-9.3-.81"/></g><g id="LWPOLYLINE-291"><line class="cls-1" x1="108.12" y1="147.91" x2="108.12" y2="140.65"/></g><g id="ARC-90"><path class="cls-1" d="m108.12,140.65c0-.43-.31-.8-.74-.87"/></g><g id="ARC-91"><path class="cls-1" d="m107.38,148.78c.43-.07.74-.44.74-.87"/></g><g id="LWPOLYLINE-292"><polyline class="cls-1" points="18.12 230.15 18.12 231.62 28.45 231.62 28.45 230.15 18.12 230.15"/></g><g id="LWPOLYLINE-293"><line class="cls-1" x1="28.45" y1="246.82" x2="28.45" y2="167.15"/></g><g id="LWPOLYLINE-294"><polyline class="cls-1" points="18.12 214.21 18.12 215.69 28.45 215.69 28.45 214.21 18.12 214.21"/></g><g id="LWPOLYLINE-295"><polyline class="cls-1" points="18.12 198.28 18.12 199.75 28.45 199.75 28.45 198.28 18.12 198.28"/></g><g id="LWPOLYLINE-296"><polyline class="cls-1" points="18.12 182.35 18.12 183.82 28.45 183.82 28.45 182.35 18.12 182.35"/></g><g id="LWPOLYLINE-297"><line class="cls-1" x1="35.82" y1="140.59" x2="35.82" y2="49.12"/></g><g id="ARC-92"><path class="cls-1" d="m24.52,71.6c.48.67,1.09,1.23,1.8,1.65"/></g><g id="ARC-93"><path class="cls-1" d="m23.41,69.3c.24.82.62,1.6,1.11,2.3"/></g><g id="ARC-94"><path class="cls-1" d="m22.99,66.38c0,.99.14,1.97.42,2.92"/></g><g id="ARC-95"><path class="cls-1" d="m23.41,63.46c-.28.95-.42,1.93-.42,2.92"/></g><g id="ARC-96"><path class="cls-1" d="m24.52,61.17c-.5.7-.87,1.47-1.11,2.3"/></g><g id="ARC-97"><path class="cls-1" d="m26.32,59.52c-.71.41-1.32.98-1.8,1.65"/></g><g id="ARC-98"><path class="cls-1" d="m28.23,59.01c-.67,0-1.33.18-1.9.51"/></g><g id="ARC-99"><path class="cls-1" d="m30.13,59.52c-.58-.34-1.23-.51-1.9-.51"/></g><g id="ARC-100"><path class="cls-1" d="m31.93,61.17c-.48-.67-1.09-1.23-1.8-1.65"/></g><g id="ARC-101"><path class="cls-1" d="m33.04,63.46c-.24-.82-.62-1.6-1.11-2.3"/></g><g id="ARC-102"><path class="cls-1" d="m33.46,66.38c0-.99-.14-1.97-.42-2.92"/></g><g id="ARC-103"><path class="cls-1" d="m33.04,69.3c.28-.95.42-1.93.42-2.92"/></g><g id="ARC-104"><path class="cls-1" d="m31.93,71.6c.5-.7.87-1.47,1.11-2.3"/></g><g id="ARC-105"><path class="cls-1" d="m30.13,73.24c.71-.41,1.32-.98,1.8-1.65"/></g><g id="ARC-106"><path class="cls-1" d="m28.23,73.76c.67,0,1.33-.18,1.9-.51"/></g><g id="ARC-107"><path class="cls-1" d="m26.32,73.24c.58.34,1.23.51,1.9.51"/></g><g id="CIRCLE"><circle class="cls-1" cx="25.33" cy="66.38" r=".74"/></g><g id="ARC-108"><path class="cls-1" d="m26.32,78.7c-.71.41-1.32.98-1.8,1.65"/></g><g id="ARC-109"><path class="cls-1" d="m24.52,80.35c-.5.7-.87,1.47-1.11,2.3"/></g><g id="ARC-110"><path class="cls-1" d="m23.41,82.64c-.28.95-.42,1.93-.42,2.92"/></g><g id="ARC-111"><path class="cls-1" d="m22.99,85.56c0,.99.14,1.97.42,2.92"/></g><g id="ARC-112"><path class="cls-1" d="m23.41,88.48c.24.82.62,1.6,1.11,2.3"/></g><g id="ARC-113"><path class="cls-1" d="m24.52,90.78c.48.67,1.09,1.23,1.8,1.65"/></g><g id="ARC-114"><path class="cls-1" d="m26.32,92.42c.58.34,1.23.51,1.9.51"/></g><g id="ARC-115"><path class="cls-1" d="m28.23,92.94c.67,0,1.33-.18,1.9-.51"/></g><g id="ARC-116"><path class="cls-1" d="m30.13,92.42c.71-.41,1.32-.98,1.8-1.65"/></g><g id="ARC-117"><path class="cls-1" d="m31.93,90.78c.5-.7.87-1.47,1.11-2.3"/></g><g id="ARC-118"><path class="cls-1" d="m33.04,88.48c.28-.95.42-1.93.42-2.92"/></g><g id="ARC-119"><path class="cls-1" d="m33.46,85.56c0-.99-.14-1.97-.42-2.92"/></g><g id="ARC-120"><path class="cls-1" d="m33.04,82.64c-.24-.82-.62-1.6-1.11-2.3"/></g><g id="ARC-121"><path class="cls-1" d="m31.93,80.35c-.48-.67-1.09-1.23-1.8-1.65"/></g><g id="ARC-122"><path class="cls-1" d="m30.13,78.7c-.58-.34-1.23-.51-1.9-.51"/></g><g id="ARC-123"><path class="cls-1" d="m28.23,78.19c-.67,0-1.33.18-1.9.51"/></g><g id="CIRCLE-2"><circle class="cls-1" cx="25.33" cy="85.56" r=".74"/></g><g id="ARC-124"><path class="cls-1" d="m24.52,109.96c.48.67,1.09,1.23,1.8,1.65"/></g><g id="ARC-125"><path class="cls-1" d="m23.41,107.66c.24.82.62,1.6,1.11,2.3"/></g><g id="ARC-126"><path class="cls-1" d="m22.99,104.74c0,.99.14,1.97.42,2.92"/></g><g id="ARC-127"><path class="cls-1" d="m23.41,101.82c-.28.95-.42,1.93-.42,2.92"/></g><g id="ARC-128"><path class="cls-1" d="m24.52,99.53c-.5.7-.87,1.47-1.11,2.3"/></g><g id="ARC-129"><path class="cls-1" d="m26.32,97.88c-.71.41-1.32.98-1.8,1.65"/></g><g id="ARC-130"><path class="cls-1" d="m28.23,97.37c-.67,0-1.33.18-1.9.51"/></g><g id="ARC-131"><path class="cls-1" d="m30.13,97.88c-.58-.34-1.23-.51-1.9-.51"/></g><g id="ARC-132"><path class="cls-1" d="m31.93,99.53c-.48-.67-1.09-1.23-1.8-1.65"/></g><g id="ARC-133"><path class="cls-1" d="m33.04,101.82c-.24-.82-.62-1.6-1.11-2.3"/></g><g id="ARC-134"><path class="cls-1" d="m33.46,104.74c0-.99-.14-1.97-.42-2.92"/></g><g id="ARC-135"><path class="cls-1" d="m33.04,107.66c.28-.95.42-1.93.42-2.92"/></g><g id="ARC-136"><path class="cls-1" d="m31.93,109.96c.5-.7.87-1.47,1.11-2.3"/></g><g id="ARC-137"><path class="cls-1" d="m30.13,111.6c.71-.41,1.32-.98,1.8-1.65"/></g><g id="ARC-138"><path class="cls-1" d="m28.23,112.12c.67,0,1.33-.18,1.9-.51"/></g><g id="ARC-139"><path class="cls-1" d="m26.32,111.6c.58.34,1.23.51,1.9.51"/></g><g id="CIRCLE-3"><circle class="cls-1" cx="25.33" cy="104.74" r=".74"/></g><g id="ARC-140"><path class="cls-1" d="m26.32,117.06c-.71.41-1.32.98-1.8,1.65"/></g><g id="ARC-141"><path class="cls-1" d="m24.52,118.71c-.5.7-.87,1.47-1.11,2.3"/></g><g id="ARC-142"><path class="cls-1" d="m23.41,121c-.28.95-.42,1.93-.42,2.92"/></g><g id="ARC-143"><path class="cls-1" d="m22.99,123.92c0,.99.14,1.97.42,2.92"/></g><g id="ARC-144"><path class="cls-1" d="m23.41,126.84c.24.82.62,1.6,1.11,2.3"/></g><g id="ARC-145"><path class="cls-1" d="m24.52,129.14c.48.67,1.09,1.23,1.8,1.65"/></g><g id="ARC-146"><path class="cls-1" d="m26.32,130.78c.58.34,1.23.51,1.9.51"/></g><g id="ARC-147"><path class="cls-1" d="m28.23,131.3c.67,0,1.33-.18,1.9-.51"/></g><g id="ARC-148"><path class="cls-1" d="m30.13,130.78c.71-.41,1.32-.98,1.8-1.65"/></g><g id="ARC-149"><path class="cls-1" d="m31.93,129.14c.5-.7.87-1.47,1.11-2.3"/></g><g id="ARC-150"><path class="cls-1" d="m33.04,126.84c.28-.95.42-1.93.42-2.92"/></g><g id="ARC-151"><path class="cls-1" d="m33.46,123.92c0-.99-.14-1.97-.42-2.92"/></g><g id="ARC-152"><path class="cls-1" d="m33.04,121c-.24-.82-.62-1.6-1.11-2.3"/></g><g id="ARC-153"><path class="cls-1" d="m31.93,118.71c-.48-.67-1.09-1.23-1.8-1.65"/></g><g id="ARC-154"><path class="cls-1" d="m30.13,117.06c-.58-.34-1.23-.51-1.9-.51"/></g><g id="ARC-155"><path class="cls-1" d="m28.23,116.54c-.67,0-1.33.18-1.9.51"/></g><g id="CIRCLE-4"><circle class="cls-1" cx="25.33" cy="123.92" r=".74"/></g><g id="LWPOLYLINE-298"><line class="cls-1" x1="192.21" y1="127.32" x2="192.21" y2="93.38"/></g><g id="ARC-156"><path class="cls-1" d="m182.71,91.91c-.71.41-1.32.98-1.8,1.65"/></g><g id="ARC-157"><path class="cls-1" d="m180.91,93.56c-.5.7-.87,1.47-1.11,2.3"/></g><g id="ARC-158"><path class="cls-1" d="m179.79,95.86c-.28.95-.42,1.93-.42,2.92"/></g><g id="ARC-159"><path class="cls-1" d="m179.37,98.78c0,.99.14,1.97.42,2.92"/></g><g id="ARC-160"><path class="cls-1" d="m179.8,101.7c.24.82.62,1.6,1.11,2.3"/></g><g id="ARC-161"><path class="cls-1" d="m180.91,103.99c.48.67,1.09,1.23,1.8,1.65"/></g><g id="ARC-162"><path class="cls-1" d="m182.71,105.64c.58.34,1.23.51,1.9.51"/></g><g id="ARC-163"><path class="cls-1" d="m184.61,106.15c.67,0,1.33-.18,1.9-.51"/></g><g id="ARC-164"><path class="cls-1" d="m186.52,105.64c.71-.41,1.32-.98,1.8-1.65"/></g><g id="ARC-165"><path class="cls-1" d="m188.32,103.99c.5-.7.87-1.47,1.11-2.3"/></g><g id="ARC-166"><path class="cls-1" d="m189.43,101.7c.28-.95.42-1.93.42-2.92"/></g><g id="ARC-167"><path class="cls-1" d="m189.85,98.78c0-.99-.14-1.97-.42-2.92"/></g><g id="ARC-168"><path class="cls-1" d="m189.43,95.86c-.24-.82-.62-1.6-1.11-2.3"/></g><g id="ARC-169"><path class="cls-1" d="m188.32,93.56c-.48-.67-1.09-1.23-1.8-1.65"/></g><g id="ARC-170"><path class="cls-1" d="m186.52,91.91c-.58-.34-1.23-.51-1.9-.51"/></g><g id="ARC-171"><path class="cls-1" d="m184.61,91.4c-.67,0-1.33.18-1.9.51"/></g><g id="CIRCLE-5"><circle class="cls-1" cx="181.71" cy="98.78" r=".74"/></g><g id="ARC-172"><path class="cls-1" d="m180.91,121.65c.48.67,1.09,1.23,1.8,1.65"/></g><g id="ARC-173"><path class="cls-1" d="m179.8,119.35c.24.82.62,1.6,1.11,2.3"/></g><g id="ARC-174"><path class="cls-1" d="m179.37,116.43c0,.99.14,1.97.42,2.92"/></g><g id="ARC-175"><path class="cls-1" d="m179.79,113.51c-.28.95-.42,1.93-.42,2.92"/></g><g id="ARC-176"><path class="cls-1" d="m180.91,111.21c-.5.7-.87,1.47-1.11,2.3"/></g><g id="ARC-177"><path class="cls-1" d="m182.71,109.57c-.71.41-1.32.98-1.8,1.65"/></g><g id="ARC-178"><path class="cls-1" d="m184.61,109.05c-.67,0-1.33.18-1.9.51"/></g><g id="ARC-179"><path class="cls-1" d="m186.52,109.57c-.58-.34-1.23-.51-1.9-.51"/></g><g id="ARC-180"><path class="cls-1" d="m188.32,111.21c-.48-.67-1.09-1.23-1.8-1.65"/></g><g id="ARC-181"><path class="cls-1" d="m189.43,113.51c-.24-.82-.62-1.6-1.11-2.3"/></g><g id="ARC-182"><path class="cls-1" d="m189.85,116.43c0-.99-.14-1.97-.42-2.92"/></g><g id="ARC-183"><path class="cls-1" d="m189.43,119.35c.28-.95.42-1.93.42-2.92"/></g><g id="ARC-184"><path class="cls-1" d="m188.32,121.65c.5-.7.87-1.47,1.11-2.3"/></g><g id="ARC-185"><path class="cls-1" d="m186.52,123.29c.71-.41,1.32-.98,1.8-1.65"/></g><g id="ARC-186"><path class="cls-1" d="m184.61,123.81c.67,0,1.33-.18,1.9-.51"/></g><g id="ARC-187"><path class="cls-1" d="m182.71,123.29c.58.34,1.23.51,1.9.51"/></g><g id="CIRCLE-6"><circle class="cls-1" cx="181.71" cy="116.43" r=".74"/></g><g id="LWPOLYLINE-299"><polyline class="cls-1" points="174.51 88.96 187.78 88.96 192.21 93.38"/></g><g id="ARC-188"><path class="cls-1" d="m137.39,237.86c-.96-.22-1.95-.33-2.93-.33"/></g><g id="ARC-189"><path class="cls-1" d="m139.62,238.71c-.7-.39-1.45-.68-2.22-.85"/></g><g id="ARC-190"><path class="cls-1" d="m141.29,240.17c-.45-.6-1.02-1.1-1.67-1.46"/></g><g id="ARC-191"><path class="cls-1" d="m141.75,241.58c0-.51-.16-1-.47-1.41"/></g><g id="ARC-192"><path class="cls-1" d="m141.29,242.98c.3-.41.47-.9.47-1.4"/></g><g id="ARC-193"><path class="cls-1" d="m139.62,244.45c.65-.36,1.22-.86,1.67-1.46"/></g><g id="ARC-194"><path class="cls-1" d="m137.4,245.3c.78-.18,1.53-.47,2.22-.85"/></g><g id="ARC-195"><path class="cls-1" d="m134.46,245.63c.99,0,1.97-.11,2.93-.33"/></g><g id="ARC-196"><path class="cls-1" d="m134.46,237.52c-2.24,0-4.05,1.82-4.05,4.05s1.82,4.05,4.05,4.05"/></g><g id="ARC-197"><path class="cls-1" d="m138.59,236.71c-.89-.24-1.81-.36-2.74-.36"/></g><g id="ARC-198"><path class="cls-1" d="m140.83,237.7c-.69-.45-1.45-.79-2.24-1"/></g><g id="ARC-199"><path class="cls-1" d="m142.6,239.49c-.46-.71-1.06-1.32-1.77-1.78"/></g><g id="ARC-200"><path class="cls-1" d="m143.23,241.65c0-.77-.22-1.52-.63-2.16"/></g><g id="ARC-201"><path class="cls-1" d="m142.6,243.82c.41-.65.63-1.4.63-2.16"/></g><g id="ARC-202"><path class="cls-1" d="m140.83,245.6c.71-.46,1.31-1.07,1.77-1.78"/></g><g id="ARC-203"><path class="cls-1" d="m138.59,246.6c.79-.21,1.55-.55,2.24-1"/></g><g id="ARC-204"><path class="cls-1" d="m135.85,246.96c.92,0,1.84-.12,2.74-.36"/></g><g id="ARC-205"><path class="cls-1" d="m133.32,243.42c.97,0,1.76-.79,1.76-1.76s-.79-1.76-1.76-1.76"/></g><g id="ARC-206"><path class="cls-1" d="m126.56,246.16c3.07.52,6.18.79,9.3.81"/></g><g id="ARC-207"><path class="cls-1" d="m135.86,236.34c-3.12.01-6.23.29-9.3.81"/></g><g id="LWPOLYLINE-300"><line class="cls-1" x1="125.82" y1="245.28" x2="125.82" y2="238.02"/></g><g id="ARC-208"><path class="cls-1" d="m126.56,237.15c-.43.07-.74.44-.74.87"/></g><g id="ARC-209"><path class="cls-1" d="m125.82,245.28c0,.43.31.8.74.87"/></g><g id="ARC-210"><path class="cls-1" d="m137.39,205.4c-.96-.22-1.95-.33-2.93-.33"/></g><g id="ARC-211"><path class="cls-1" d="m139.62,206.26c-.7-.39-1.45-.68-2.22-.85"/></g><g id="ARC-212"><path class="cls-1" d="m141.29,207.72c-.45-.6-1.02-1.1-1.67-1.46"/></g><g id="ARC-213"><path class="cls-1" d="m141.75,209.12c0-.51-.16-1-.47-1.41"/></g><g id="ARC-214"><path class="cls-1" d="m141.29,210.53c.3-.41.47-.9.47-1.4"/></g><g id="ARC-215"><path class="cls-1" d="m139.62,211.99c.65-.36,1.22-.86,1.67-1.46"/></g><g id="ARC-216"><path class="cls-1" d="m137.4,212.84c.78-.18,1.53-.47,2.22-.85"/></g><g id="ARC-217"><path class="cls-1" d="m134.46,213.17c.99,0,1.97-.11,2.93-.33"/></g><g id="ARC-218"><path class="cls-1" d="m134.46,205.07c-2.24,0-4.05,1.82-4.05,4.05s1.82,4.05,4.05,4.05"/></g><g id="ARC-219"><path class="cls-1" d="m138.59,204.25c-.89-.24-1.81-.36-2.74-.36"/></g><g id="ARC-220"><path class="cls-1" d="m140.83,205.25c-.69-.45-1.45-.79-2.24-1"/></g><g id="ARC-221"><path class="cls-1" d="m142.6,207.03c-.46-.71-1.06-1.32-1.77-1.78"/></g><g id="ARC-222"><path class="cls-1" d="m143.23,209.2c0-.77-.22-1.52-.63-2.16"/></g><g id="ARC-223"><path class="cls-1" d="m142.6,211.36c.41-.65.63-1.4.63-2.16"/></g><g id="ARC-224"><path class="cls-1" d="m140.83,213.14c.71-.46,1.31-1.07,1.77-1.78"/></g><g id="ARC-225"><path class="cls-1" d="m138.59,214.15c.79-.21,1.55-.55,2.24-1"/></g><g id="ARC-226"><path class="cls-1" d="m135.85,214.51c.92,0,1.84-.12,2.74-.36"/></g><g id="ARC-227"><path class="cls-1" d="m133.32,210.96c.97,0,1.76-.79,1.76-1.76s-.79-1.76-1.76-1.76"/></g><g id="ARC-228"><path class="cls-1" d="m126.56,213.7c3.07.52,6.18.79,9.3.81"/></g><g id="ARC-229"><path class="cls-1" d="m135.86,203.89c-3.12.01-6.23.29-9.3.81"/></g><g id="LWPOLYLINE-301"><line class="cls-1" x1="125.82" y1="212.83" x2="125.82" y2="205.57"/></g><g id="ARC-230"><path class="cls-1" d="m126.56,204.69c-.43.07-.74.44-.74.87"/></g><g id="ARC-231"><path class="cls-1" d="m125.82,212.83c0,.43.31.8.74.87"/></g><g id="ARC-232"><path class="cls-1" d="m137.39,172.94c-.96-.22-1.95-.33-2.93-.33"/></g><g id="ARC-233"><path class="cls-1" d="m139.62,173.8c-.7-.39-1.45-.68-2.22-.85"/></g><g id="ARC-234"><path class="cls-1" d="m141.29,175.26c-.45-.6-1.02-1.1-1.67-1.46"/></g><g id="ARC-235"><path class="cls-1" d="m141.75,176.66c0-.51-.16-1-.47-1.41"/></g><g id="ARC-236"><path class="cls-1" d="m141.29,178.07c.3-.41.47-.9.47-1.4"/></g><g id="ARC-237"><path class="cls-1" d="m139.62,179.53c.65-.36,1.22-.86,1.67-1.46"/></g><g id="ARC-238"><path class="cls-1" d="m137.4,180.38c.78-.18,1.53-.47,2.22-.85"/></g><g id="ARC-239"><path class="cls-1" d="m134.46,180.72c.99,0,1.97-.11,2.93-.33"/></g><g id="ARC-240"><path class="cls-1" d="m134.46,172.61c-2.24,0-4.05,1.82-4.05,4.05s1.82,4.05,4.05,4.05"/></g><g id="ARC-241"><path class="cls-1" d="m138.59,171.79c-.89-.24-1.81-.36-2.74-.36"/></g><g id="ARC-242"><path class="cls-1" d="m140.83,172.79c-.69-.45-1.45-.79-2.24-1"/></g><g id="ARC-243"><path class="cls-1" d="m142.6,174.57c-.46-.71-1.06-1.32-1.77-1.78"/></g><g id="ARC-244"><path class="cls-1" d="m143.23,176.74c0-.77-.22-1.52-.63-2.16"/></g><g id="ARC-245"><path class="cls-1" d="m142.6,178.9c.41-.65.63-1.4.63-2.16"/></g><g id="ARC-246"><path class="cls-1" d="m140.83,180.69c.71-.46,1.31-1.07,1.77-1.78"/></g><g id="ARC-247"><path class="cls-1" d="m138.59,181.69c.79-.21,1.55-.55,2.24-1"/></g><g id="ARC-248"><path class="cls-1" d="m135.85,182.05c.92,0,1.84-.12,2.74-.36"/></g><g id="ARC-249"><path class="cls-1" d="m133.32,178.5c.97,0,1.76-.79,1.76-1.76s-.79-1.76-1.76-1.76"/></g><g id="ARC-250"><path class="cls-1" d="m126.56,181.24c3.07.52,6.18.79,9.3.81"/></g><g id="ARC-251"><path class="cls-1" d="m135.86,171.43c-3.12.01-6.23.29-9.3.81"/></g><g id="LWPOLYLINE-302"><line class="cls-1" x1="125.82" y1="180.37" x2="125.82" y2="173.11"/></g><g id="ARC-252"><path class="cls-1" d="m126.56,172.24c-.43.07-.74.44-.74.87"/></g><g id="ARC-253"><path class="cls-1" d="m125.82,180.37c0,.43.31.8.74.87"/></g><g id="ARC-254"><path class="cls-1" d="m137.39,140.49c-.96-.22-1.95-.33-2.93-.33"/></g><g id="ARC-255"><path class="cls-1" d="m139.62,141.34c-.7-.39-1.45-.68-2.22-.85"/></g><g id="ARC-256"><path class="cls-1" d="m141.29,142.8c-.45-.6-1.02-1.1-1.67-1.46"/></g><g id="ARC-257"><path class="cls-1" d="m141.75,144.21c0-.51-.16-1-.47-1.41"/></g><g id="ARC-258"><path class="cls-1" d="m141.29,145.61c.3-.41.47-.9.47-1.4"/></g><g id="ARC-259"><path class="cls-1" d="m139.62,147.07c.65-.36,1.22-.86,1.67-1.46"/></g><g id="ARC-260"><path class="cls-1" d="m137.4,147.93c.78-.18,1.53-.47,2.22-.85"/></g><g id="ARC-261"><path class="cls-1" d="m134.46,148.26c.99,0,1.97-.11,2.93-.33"/></g><g id="ARC-262"><path class="cls-1" d="m134.46,140.15c-2.24,0-4.05,1.82-4.05,4.05s1.82,4.05,4.05,4.05"/></g><g id="ARC-263"><path class="cls-1" d="m138.59,139.33c-.89-.24-1.81-.36-2.74-.36"/></g><g id="ARC-264"><path class="cls-1" d="m140.83,140.33c-.69-.45-1.45-.79-2.24-1"/></g><g id="ARC-265"><path class="cls-1" d="m142.6,142.12c-.46-.71-1.06-1.32-1.77-1.78"/></g><g id="ARC-266"><path class="cls-1" d="m143.23,144.28c0-.77-.22-1.52-.63-2.16"/></g><g id="ARC-267"><path class="cls-1" d="m142.6,146.45c.41-.65.63-1.4.63-2.16"/></g><g id="ARC-268"><path class="cls-1" d="m140.83,148.23c.71-.46,1.31-1.07,1.77-1.78"/></g><g id="ARC-269"><path class="cls-1" d="m138.59,149.23c.79-.21,1.55-.55,2.24-1"/></g><g id="ARC-270"><path class="cls-1" d="m135.85,149.59c.92,0,1.84-.12,2.74-.36"/></g><g id="ARC-271"><path class="cls-1" d="m133.32,146.05c.97,0,1.76-.79,1.76-1.76s-.79-1.76-1.76-1.76"/></g><g id="ARC-272"><path class="cls-1" d="m126.56,148.78c3.07.52,6.18.79,9.3.81"/></g><g id="ARC-273"><path class="cls-1" d="m135.86,138.97c-3.12.01-6.23.29-9.3.81"/></g><g id="LWPOLYLINE-303"><line class="cls-1" x1="125.82" y1="147.91" x2="125.82" y2="140.65"/></g><g id="ARC-274"><path class="cls-1" d="m126.56,139.78c-.43.07-.74.44-.74.87"/></g><g id="ARC-275"><path class="cls-1" d="m125.82,147.91c0,.43.31.8.74.87"/></g><g id="ARC-276"><path class="cls-1" d="m99.91,67.56c.71-.41,1.32-.98,1.8-1.65"/></g><g id="ARC-277"><path class="cls-1" d="m101.71,65.92c.5-.7.87-1.47,1.11-2.3"/></g><g id="ARC-278"><path class="cls-1" d="m102.83,63.62c.28-.95.42-1.93.42-2.92"/></g><g id="ARC-279"><path class="cls-1" d="m103.25,60.7c0-.99-.14-1.97-.42-2.92"/></g><g id="ARC-280"><path class="cls-1" d="m102.83,57.78c-.24-.82-.62-1.6-1.11-2.3"/></g><g id="ARC-281"><path class="cls-1" d="m101.71,55.49c-.48-.67-1.09-1.23-1.8-1.65"/></g><g id="ARC-282"><path class="cls-1" d="m99.91,53.84c-.58-.34-1.23-.51-1.9-.51"/></g><g id="ARC-283"><path class="cls-1" d="m98.01,53.33c-.67,0-1.33.18-1.9.51"/></g><g id="ARC-284"><path class="cls-1" d="m96.11,53.84c-.71.41-1.32.98-1.8,1.65"/></g><g id="ARC-285"><path class="cls-1" d="m94.31,55.49c-.5.7-.87,1.47-1.11,2.3"/></g><g id="ARC-286"><path class="cls-1" d="m93.19,57.78c-.28.95-.42,1.93-.42,2.92"/></g><g id="ARC-287"><path class="cls-1" d="m92.77,60.7c0,.99.14,1.97.42,2.92"/></g><g id="ARC-288"><path class="cls-1" d="m93.19,63.62c.24.82.62,1.6,1.11,2.3"/></g><g id="ARC-289"><path class="cls-1" d="m94.31,65.92c.48.67,1.09,1.23,1.8,1.65"/></g><g id="ARC-290"><path class="cls-1" d="m96.11,67.56c.58.34,1.23.51,1.9.51"/></g><g id="ARC-291"><path class="cls-1" d="m98.01,68.08c.67,0,1.33-.18,1.9-.51"/></g><g id="CIRCLE-7"><circle class="cls-1" cx="100.91" cy="60.7" r=".74"/></g><g id="LWPOLYLINE-304"><line class="cls-1" x1="90.41" y1="94.86" x2="90.41" y2="49.12"/></g><g id="ARC-292"><path class="cls-1" d="m99.91,85.76c.71-.41,1.32-.98,1.8-1.65"/></g><g id="ARC-293"><path class="cls-1" d="m101.71,84.11c.5-.7.87-1.47,1.11-2.3"/></g><g id="ARC-294"><path class="cls-1" d="m102.83,81.82c.28-.95.42-1.93.42-2.92"/></g><g id="ARC-295"><path class="cls-1" d="m103.25,78.9c0-.99-.14-1.97-.42-2.92"/></g><g id="ARC-296"><path class="cls-1" d="m102.83,75.98c-.24-.82-.62-1.6-1.11-2.3"/></g><g id="ARC-297"><path class="cls-1" d="m101.71,73.68c-.48-.67-1.09-1.23-1.8-1.65"/></g><g id="ARC-298"><path class="cls-1" d="m99.91,72.04c-.58-.34-1.23-.51-1.9-.51"/></g><g id="ARC-299"><path class="cls-1" d="m98.01,71.52c-.67,0-1.33.18-1.9.51"/></g><g id="ARC-300"><path class="cls-1" d="m96.11,72.04c-.71.41-1.32.98-1.8,1.65"/></g><g id="ARC-301"><path class="cls-1" d="m94.31,73.68c-.5.7-.87,1.47-1.11,2.3"/></g><g id="ARC-302"><path class="cls-1" d="m93.19,75.98c-.28.95-.42,1.93-.42,2.92"/></g><g id="ARC-303"><path class="cls-1" d="m92.77,78.9c0,.99.14,1.97.42,2.92"/></g><g id="ARC-304"><path class="cls-1" d="m93.19,81.82c.24.82.62,1.6,1.11,2.3"/></g><g id="ARC-305"><path class="cls-1" d="m94.31,84.11c.48.67,1.09,1.23,1.8,1.65"/></g><g id="ARC-306"><path class="cls-1" d="m96.11,85.76c.58.34,1.23.51,1.9.51"/></g><g id="ARC-307"><path class="cls-1" d="m98.01,86.27c.67,0,1.33-.18,1.9-.51"/></g><g id="CIRCLE-8"><circle class="cls-1" cx="100.91" cy="78.9" r=".74"/></g><g id="ARC-308"><path class="cls-1" d="m257.77,66.31c.71-.41,1.32-.98,1.8-1.65"/></g><g id="ARC-309"><path class="cls-1" d="m259.57,64.67c.5-.7.87-1.47,1.11-2.3"/></g><g id="ARC-310"><path class="cls-1" d="m260.69,62.37c.28-.95.42-1.93.42-2.92"/></g><g id="ARC-311"><path class="cls-1" d="m261.11,59.45c0-.99-.14-1.97-.42-2.92"/></g><g id="ARC-312"><path class="cls-1" d="m260.69,56.53c-.24-.82-.62-1.6-1.11-2.3"/></g><g id="ARC-313"><path class="cls-1" d="m259.57,54.23c-.48-.67-1.09-1.23-1.8-1.65"/></g><g id="ARC-314"><path class="cls-1" d="m257.77,52.59c-.58-.34-1.23-.51-1.9-.51"/></g><g id="ARC-315"><path class="cls-1" d="m255.87,52.07c-.67,0-1.33.18-1.9.51"/></g><g id="ARC-316"><path class="cls-1" d="m253.97,52.59c-.71.41-1.32.98-1.8,1.65"/></g><g id="ARC-317"><path class="cls-1" d="m252.17,54.24c-.5.7-.87,1.47-1.11,2.3"/></g><g id="ARC-318"><path class="cls-1" d="m251.05,56.53c-.28.95-.42,1.93-.42,2.92"/></g><g id="ARC-319"><path class="cls-1" d="m250.63,59.45c0,.99.14,1.97.42,2.92"/></g><g id="ARC-320"><path class="cls-1" d="m251.05,62.37c.24.82.62,1.6,1.11,2.3"/></g><g id="ARC-321"><path class="cls-1" d="m252.17,64.67c.48.67,1.09,1.23,1.8,1.65"/></g><g id="ARC-322"><path class="cls-1" d="m253.97,66.31c.58.34,1.23.51,1.9.51"/></g><g id="ARC-323"><path class="cls-1" d="m255.87,66.83c.67,0,1.33-.18,1.9-.51"/></g><g id="CIRCLE-9"><circle class="cls-1" cx="258.77" cy="59.45" r=".74"/></g><g id="ARC-324"><path class="cls-1" d="m259.57,108.82c-.48-.67-1.09-1.23-1.8-1.65"/></g><g id="ARC-325"><path class="cls-1" d="m260.69,111.12c-.24-.82-.62-1.6-1.11-2.3"/></g><g id="ARC-326"><path class="cls-1" d="m261.11,114.04c0-.99-.14-1.97-.42-2.92"/></g><g id="ARC-327"><path class="cls-1" d="m260.69,116.96c.28-.95.42-1.93.42-2.92"/></g><g id="ARC-328"><path class="cls-1" d="m259.57,119.25c.5-.7.87-1.47,1.11-2.3"/></g><g id="ARC-329"><path class="cls-1" d="m257.77,120.9c.71-.41,1.32-.98,1.8-1.65"/></g><g id="ARC-330"><path class="cls-1" d="m255.87,121.41c.67,0,1.33-.18,1.9-.51"/></g><g id="ARC-331"><path class="cls-1" d="m253.97,120.9c.58.34,1.23.51,1.9.51"/></g><g id="ARC-332"><path class="cls-1" d="m252.17,119.25c.48.67,1.09,1.23,1.8,1.65"/></g><g id="ARC-333"><path class="cls-1" d="m251.05,116.96c.24.82.62,1.6,1.11,2.3"/></g><g id="ARC-334"><path class="cls-1" d="m250.63,114.04c0,.99.14,1.97.42,2.92"/></g><g id="ARC-335"><path class="cls-1" d="m251.05,111.12c-.28.95-.42,1.93-.42,2.92"/></g><g id="ARC-336"><path class="cls-1" d="m252.17,108.82c-.5.7-.87,1.47-1.11,2.3"/></g><g id="ARC-337"><path class="cls-1" d="m253.97,107.18c-.71.41-1.32.98-1.8,1.65"/></g><g id="ARC-338"><path class="cls-1" d="m255.87,106.66c-.67,0-1.33.18-1.9.51"/></g><g id="ARC-339"><path class="cls-1" d="m257.77,107.18c-.58-.34-1.23-.51-1.9-.51"/></g><g id="CIRCLE-10"><circle class="cls-1" cx="258.77" cy="114.04" r=".74"/></g><g id="LWPOLYLINE-305"><line class="cls-1" x1="248.27" y1="125.84" x2="248.27" y2="49.12"/></g><g id="ARC-340"><path class="cls-1" d="m259.57,90.63c-.48-.67-1.09-1.23-1.8-1.65"/></g><g id="ARC-341"><path class="cls-1" d="m260.69,92.92c-.24-.82-.62-1.6-1.11-2.3"/></g><g id="ARC-342"><path class="cls-1" d="m261.11,95.84c0-.99-.14-1.97-.42-2.92"/></g><g id="ARC-343"><path class="cls-1" d="m260.69,98.76c.28-.95.42-1.93.42-2.92"/></g><g id="ARC-344"><path class="cls-1" d="m259.57,101.06c.5-.7.87-1.47,1.11-2.3"/></g><g id="ARC-345"><path class="cls-1" d="m257.77,102.7c.71-.41,1.32-.98,1.8-1.65"/></g><g id="ARC-346"><path class="cls-1" d="m255.87,103.22c.67,0,1.33-.18,1.9-.51"/></g><g id="ARC-347"><path class="cls-1" d="m253.97,102.7c.58.34,1.23.51,1.9.51"/></g><g id="ARC-348"><path class="cls-1" d="m252.17,101.06c.48.67,1.09,1.23,1.8,1.65"/></g><g id="ARC-349"><path class="cls-1" d="m251.05,98.76c.24.82.62,1.6,1.11,2.3"/></g><g id="ARC-350"><path class="cls-1" d="m250.63,95.84c0,.99.14,1.97.42,2.92"/></g><g id="ARC-351"><path class="cls-1" d="m251.05,92.92c-.28.95-.42,1.93-.42,2.92"/></g><g id="ARC-352"><path class="cls-1" d="m252.17,90.63c-.5.7-.87,1.47-1.11,2.3"/></g><g id="ARC-353"><path class="cls-1" d="m253.97,88.98c-.71.41-1.32.98-1.8,1.65"/></g><g id="ARC-354"><path class="cls-1" d="m255.87,88.47c-.67,0-1.33.18-1.9.51"/></g><g id="ARC-355"><path class="cls-1" d="m257.77,88.98c-.58-.34-1.23-.51-1.9-.51"/></g><g id="CIRCLE-11"><circle class="cls-1" cx="258.77" cy="95.84" r=".74"/></g><g id="ARC-356"><path class="cls-1" d="m257.77,84.51c.71-.41,1.32-.98,1.8-1.65"/></g><g id="ARC-357"><path class="cls-1" d="m259.57,82.86c.5-.7.87-1.47,1.11-2.3"/></g><g id="ARC-358"><path class="cls-1" d="m260.69,80.57c.28-.95.42-1.93.42-2.92"/></g><g id="ARC-359"><path class="cls-1" d="m261.11,77.65c0-.99-.14-1.97-.42-2.92"/></g><g id="ARC-360"><path class="cls-1" d="m260.69,74.72c-.24-.82-.62-1.6-1.11-2.3"/></g><g id="ARC-361"><path class="cls-1" d="m259.57,72.43c-.48-.67-1.09-1.23-1.8-1.65"/></g><g id="ARC-362"><path class="cls-1" d="m257.77,70.78c-.58-.34-1.23-.51-1.9-.51"/></g><g id="ARC-363"><path class="cls-1" d="m255.87,70.27c-.67,0-1.33.18-1.9.51"/></g><g id="ARC-364"><path class="cls-1" d="m253.97,70.79c-.71.41-1.32.98-1.8,1.65"/></g><g id="ARC-365"><path class="cls-1" d="m252.17,72.43c-.5.7-.87,1.47-1.11,2.3"/></g><g id="ARC-366"><path class="cls-1" d="m251.05,74.73c-.28.95-.42,1.93-.42,2.92"/></g><g id="ARC-367"><path class="cls-1" d="m250.63,77.65c0,.99.14,1.97.42,2.92"/></g><g id="ARC-368"><path class="cls-1" d="m251.05,80.57c.24.82.62,1.6,1.11,2.3"/></g><g id="ARC-369"><path class="cls-1" d="m252.17,82.86c.48.67,1.09,1.23,1.8,1.65"/></g><g id="ARC-370"><path class="cls-1" d="m253.97,84.51c.58.34,1.23.51,1.9.51"/></g><g id="ARC-371"><path class="cls-1" d="m255.87,85.02c.67,0,1.33-.18,1.9-.51"/></g><g id="CIRCLE-12"><circle class="cls-1" cx="258.77" cy="77.65" r=".74"/></g><g id="ARC-372"><path class="cls-1" d="m257.34,237.53c-.99,0-1.97.11-2.93.33"/></g><g id="ARC-373"><path class="cls-1" d="m254.4,237.86c-.78.18-1.53.47-2.22.85"/></g><g id="ARC-374"><path class="cls-1" d="m252.18,238.71c-.65.36-1.22.86-1.67,1.46"/></g><g id="ARC-375"><path class="cls-1" d="m250.51,240.17c-.3.41-.47.9-.47,1.41"/></g><g id="ARC-376"><path class="cls-1" d="m250.04,241.58c0,.51.16,1,.47,1.41"/></g><g id="ARC-377"><path class="cls-1" d="m250.51,242.98c.45.6,1.02,1.1,1.67,1.46"/></g><g id="ARC-378"><path class="cls-1" d="m252.18,244.45c.7.39,1.45.68,2.22.85"/></g><g id="ARC-379"><path class="cls-1" d="m254.4,245.3c.96.22,1.95.33,2.93.33"/></g><g id="ARC-380"><path class="cls-1" d="m257.34,245.63c2.24,0,4.05-1.82,4.05-4.05s-1.82-4.05-4.05-4.05"/></g><g id="ARC-381"><path class="cls-1" d="m255.94,236.34c-.92,0-1.84.12-2.74.36"/></g><g id="ARC-382"><path class="cls-1" d="m253.21,236.7c-.79.21-1.55.55-2.24,1"/></g><g id="ARC-383"><path class="cls-1" d="m250.97,237.7c-.71.46-1.31,1.07-1.77,1.78"/></g><g id="ARC-384"><path class="cls-1" d="m249.2,239.49c-.41.65-.63,1.4-.63,2.16"/></g><g id="ARC-385"><path class="cls-1" d="m248.57,241.65c0,.77.22,1.52.63,2.16"/></g><g id="ARC-386"><path class="cls-1" d="m249.2,243.82c.46.71,1.06,1.32,1.77,1.78"/></g><g id="ARC-387"><path class="cls-1" d="m250.97,245.6c.69.45,1.45.79,2.24,1"/></g><g id="ARC-388"><path class="cls-1" d="m253.21,246.6c.89.24,1.81.36,2.74.36"/></g><g id="ARC-389"><path class="cls-1" d="m258.48,239.89c-.97,0-1.76.79-1.76,1.76s.79,1.76,1.76,1.76"/></g><g id="ARC-390"><path class="cls-1" d="m255.95,246.96c3.12-.01,6.23-.29,9.3-.81"/></g><g id="ARC-391"><path class="cls-1" d="m265.24,237.15c-3.07-.52-6.18-.79-9.3-.81"/></g><g id="LWPOLYLINE-306"><line class="cls-1" x1="265.98" y1="245.28" x2="265.98" y2="238.02"/></g><g id="ARC-392"><path class="cls-1" d="m265.98,238.02c0-.43-.31-.8-.74-.87"/></g><g id="ARC-393"><path class="cls-1" d="m265.24,246.16c.43-.07.74-.44.74-.87"/></g><g id="ARC-394"><path class="cls-1" d="m257.34,205.07c-.99,0-1.97.11-2.93.33"/></g><g id="ARC-395"><path class="cls-1" d="m254.4,205.4c-.78.18-1.53.47-2.22.85"/></g><g id="ARC-396"><path class="cls-1" d="m252.18,206.25c-.65.36-1.22.86-1.67,1.46"/></g><g id="ARC-397"><path class="cls-1" d="m250.51,207.72c-.3.41-.47.9-.47,1.41"/></g><g id="ARC-398"><path class="cls-1" d="m250.04,209.12c0,.51.16,1,.47,1.41"/></g><g id="ARC-399"><path class="cls-1" d="m250.51,210.53c.45.6,1.02,1.1,1.67,1.46"/></g><g id="ARC-400"><path class="cls-1" d="m252.18,211.99c.7.39,1.45.68,2.22.85"/></g><g id="ARC-401"><path class="cls-1" d="m254.4,212.84c.96.22,1.95.33,2.93.33"/></g><g id="ARC-402"><path class="cls-1" d="m257.34,213.18c2.24,0,4.05-1.82,4.05-4.05s-1.82-4.05-4.05-4.05"/></g><g id="ARC-403"><path class="cls-1" d="m255.94,203.89c-.92,0-1.84.12-2.74.36"/></g><g id="ARC-404"><path class="cls-1" d="m253.21,204.25c-.79.21-1.55.55-2.24,1"/></g><g id="ARC-405"><path class="cls-1" d="m250.97,205.25c-.71.46-1.31,1.07-1.77,1.78"/></g><g id="ARC-406"><path class="cls-1" d="m249.2,207.03c-.41.65-.63,1.4-.63,2.16"/></g><g id="ARC-407"><path class="cls-1" d="m248.57,209.2c0,.77.22,1.52.63,2.16"/></g><g id="ARC-408"><path class="cls-1" d="m249.2,211.36c.46.71,1.06,1.32,1.77,1.78"/></g><g id="ARC-409"><path class="cls-1" d="m250.97,213.15c.69.45,1.45.79,2.24,1"/></g><g id="ARC-410"><path class="cls-1" d="m253.21,214.14c.89.24,1.81.36,2.74.36"/></g><g id="ARC-411"><path class="cls-1" d="m258.48,207.43c-.97,0-1.76.79-1.76,1.76s.79,1.76,1.76,1.76"/></g><g id="ARC-412"><path class="cls-1" d="m255.95,214.51c3.12-.01,6.23-.29,9.3-.81"/></g><g id="ARC-413"><path class="cls-1" d="m265.24,204.69c-3.07-.52-6.18-.79-9.3-.81"/></g><g id="LWPOLYLINE-307"><line class="cls-1" x1="265.98" y1="212.83" x2="265.98" y2="205.57"/></g><g id="ARC-414"><path class="cls-1" d="m265.98,205.57c0-.43-.31-.8-.74-.87"/></g><g id="ARC-415"><path class="cls-1" d="m265.24,213.7c.43-.07.74-.44.74-.87"/></g><g id="ARC-416"><path class="cls-1" d="m257.34,172.61c-.99,0-1.97.11-2.93.33"/></g><g id="ARC-417"><path class="cls-1" d="m254.4,172.94c-.78.18-1.53.47-2.22.85"/></g><g id="ARC-418"><path class="cls-1" d="m252.18,173.8c-.65.36-1.22.86-1.67,1.46"/></g><g id="ARC-419"><path class="cls-1" d="m250.51,175.26c-.3.41-.47.9-.47,1.41"/></g><g id="ARC-420"><path class="cls-1" d="m250.04,176.66c0,.51.16,1,.47,1.41"/></g><g id="ARC-421"><path class="cls-1" d="m250.51,178.07c.45.6,1.02,1.1,1.67,1.46"/></g><g id="ARC-422"><path class="cls-1" d="m252.18,179.53c.7.39,1.45.68,2.22.85"/></g><g id="ARC-423"><path class="cls-1" d="m254.4,180.38c.96.22,1.95.33,2.93.33"/></g><g id="ARC-424"><path class="cls-1" d="m257.34,180.72c2.24,0,4.05-1.82,4.05-4.05s-1.82-4.05-4.05-4.05"/></g><g id="ARC-425"><path class="cls-1" d="m255.94,171.43c-.92,0-1.84.12-2.74.36"/></g><g id="ARC-426"><path class="cls-1" d="m253.21,171.79c-.79.21-1.55.55-2.24,1"/></g><g id="ARC-427"><path class="cls-1" d="m250.97,172.79c-.71.46-1.31,1.07-1.77,1.78"/></g><g id="ARC-428"><path class="cls-1" d="m249.2,174.57c-.41.65-.63,1.4-.63,2.16"/></g><g id="ARC-429"><path class="cls-1" d="m248.57,176.74c0,.77.22,1.52.63,2.16"/></g><g id="ARC-430"><path class="cls-1" d="m249.2,178.9c.46.71,1.06,1.32,1.77,1.78"/></g><g id="ARC-431"><path class="cls-1" d="m250.97,180.69c.69.45,1.45.79,2.24,1"/></g><g id="ARC-432"><path class="cls-1" d="m253.21,181.69c.89.24,1.81.36,2.74.36"/></g><g id="ARC-433"><path class="cls-1" d="m258.48,174.97c-.97,0-1.76.79-1.76,1.76s.79,1.76,1.76,1.76"/></g><g id="ARC-434"><path class="cls-1" d="m255.95,182.05c3.12-.01,6.23-.29,9.3-.81"/></g><g id="ARC-435"><path class="cls-1" d="m265.24,172.24c-3.07-.52-6.18-.79-9.3-.81"/></g><g id="LWPOLYLINE-308"><line class="cls-1" x1="265.98" y1="180.37" x2="265.98" y2="173.11"/></g><g id="ARC-436"><path class="cls-1" d="m265.98,173.11c0-.43-.31-.8-.74-.87"/></g><g id="ARC-437"><path class="cls-1" d="m265.24,181.24c.43-.07.74-.44.74-.87"/></g><g id="ARC-438"><path class="cls-1" d="m257.34,140.15c-.99,0-1.97.11-2.93.33"/></g><g id="ARC-439"><path class="cls-1" d="m254.4,140.49c-.78.18-1.53.47-2.22.85"/></g><g id="ARC-440"><path class="cls-1" d="m252.18,141.34c-.65.36-1.22.86-1.67,1.46"/></g><g id="ARC-441"><path class="cls-1" d="m250.51,142.8c-.3.41-.47.9-.47,1.41"/></g><g id="ARC-442"><path class="cls-1" d="m250.04,144.21c0,.51.16,1,.47,1.41"/></g><g id="ARC-443"><path class="cls-1" d="m250.51,145.61c.45.6,1.02,1.1,1.67,1.46"/></g><g id="ARC-444"><path class="cls-1" d="m252.18,147.07c.7.39,1.45.68,2.22.85"/></g><g id="ARC-445"><path class="cls-1" d="m254.4,147.93c.96.22,1.95.33,2.93.33"/></g><g id="ARC-446"><path class="cls-1" d="m257.34,148.26c2.24,0,4.05-1.82,4.05-4.05s-1.82-4.05-4.05-4.05"/></g><g id="ARC-447"><path class="cls-1" d="m255.94,138.97c-.92,0-1.84.12-2.74.36"/></g><g id="ARC-448"><path class="cls-1" d="m253.21,139.33c-.79.21-1.55.55-2.24,1"/></g><g id="ARC-449"><path class="cls-1" d="m250.97,140.33c-.71.46-1.31,1.07-1.77,1.78"/></g><g id="ARC-450"><path class="cls-1" d="m249.2,142.12c-.41.65-.63,1.4-.63,2.16"/></g><g id="ARC-451"><path class="cls-1" d="m248.57,144.28c0,.77.22,1.52.63,2.16"/></g><g id="ARC-452"><path class="cls-1" d="m249.2,146.45c.46.71,1.06,1.32,1.77,1.78"/></g><g id="ARC-453"><path class="cls-1" d="m250.97,148.23c.69.45,1.45.79,2.24,1"/></g><g id="ARC-454"><path class="cls-1" d="m253.21,149.23c.89.24,1.81.36,2.74.36"/></g><g id="ARC-455"><path class="cls-1" d="m258.48,142.52c-.97,0-1.76.79-1.76,1.76s.79,1.76,1.76,1.76"/></g><g id="ARC-456"><path class="cls-1" d="m255.95,149.59c3.12-.01,6.23-.29,9.3-.81"/></g><g id="ARC-457"><path class="cls-1" d="m265.24,139.78c-3.07-.52-6.18-.79-9.3-.81"/></g><g id="LWPOLYLINE-309"><line class="cls-1" x1="265.98" y1="147.91" x2="265.98" y2="140.65"/></g><g id="ARC-458"><path class="cls-1" d="m265.98,140.65c0-.43-.31-.8-.74-.87"/></g><g id="ARC-459"><path class="cls-1" d="m265.24,148.78c.43-.07.74-.44.74-.87"/></g><g id="ARC-460"><path class="cls-1" d="m125.59,67.64c-.96-.22-1.95-.33-2.93-.33"/></g><g id="ARC-461"><path class="cls-1" d="m127.81,68.49c-.7-.39-1.45-.68-2.22-.85"/></g><g id="ARC-462"><path class="cls-1" d="m129.48,69.95c-.45-.6-1.02-1.1-1.67-1.46"/></g><g id="ARC-463"><path class="cls-1" d="m129.95,71.36c0-.51-.16-1-.47-1.41"/></g><g id="ARC-464"><path class="cls-1" d="m129.48,72.76c.3-.41.47-.9.47-1.4"/></g><g id="ARC-465"><path class="cls-1" d="m127.82,74.22c.65-.36,1.22-.86,1.67-1.46"/></g><g id="ARC-466"><path class="cls-1" d="m125.59,75.08c.78-.18,1.53-.47,2.22-.85"/></g><g id="ARC-467"><path class="cls-1" d="m122.66,75.41c.99,0,1.97-.11,2.93-.33"/></g><g id="ARC-468"><path class="cls-1" d="m122.66,67.3c-2.24,0-4.05,1.82-4.05,4.05s1.82,4.05,4.05,4.05"/></g><g id="ARC-469"><path class="cls-1" d="m126.78,66.48c-.89-.24-1.81-.36-2.74-.36"/></g><g id="ARC-470"><path class="cls-1" d="m129.03,67.48c-.69-.45-1.45-.79-2.24-1"/></g><g id="ARC-471"><path class="cls-1" d="m130.79,69.27c-.46-.71-1.06-1.32-1.77-1.78"/></g><g id="ARC-472"><path class="cls-1" d="m131.43,71.43c0-.77-.22-1.52-.63-2.16"/></g><g id="ARC-473"><path class="cls-1" d="m130.8,73.59c.41-.65.63-1.4.63-2.16"/></g><g id="ARC-474"><path class="cls-1" d="m129.03,75.38c.71-.46,1.31-1.07,1.77-1.78"/></g><g id="ARC-475"><path class="cls-1" d="m126.79,76.38c.79-.21,1.55-.55,2.24-1"/></g><g id="ARC-476"><path class="cls-1" d="m124.05,76.74c.92,0,1.84-.12,2.74-.36"/></g><g id="ARC-477"><path class="cls-1" d="m121.51,73.19c.97,0,1.76-.79,1.76-1.76s-.79-1.76-1.76-1.76"/></g><g id="ARC-478"><path class="cls-1" d="m114.75,75.93c3.07.52,6.18.79,9.3.81"/></g><g id="ARC-479"><path class="cls-1" d="m124.05,66.12c-3.12.01-6.23.29-9.3.81"/></g><g id="LWPOLYLINE-310"><line class="cls-1" x1="114.02" y1="75.06" x2="114.02" y2="67.8"/></g><g id="ARC-480"><path class="cls-1" d="m114.75,66.93c-.43.07-.74.44-.74.87"/></g><g id="ARC-481"><path class="cls-1" d="m114.02,75.06c0,.43.31.8.74.87"/></g><g id="ARC-482"><path class="cls-1" d="m141.07,123.56c.04.46.42.81.88.81"/></g><g id="ARC-483"><path class="cls-1" d="m157.78,124.36c.46,0,.84-.35.88-.81"/></g><g id="LWPOLYLINE-311"><line class="cls-1" x1="140.41" y1="116.22" x2="141.07" y2="123.56"/></g><g id="LWPOLYLINE-312"><line class="cls-1" x1="159.33" y1="116.22" x2="158.66" y2="123.56"/></g><g id="ARC-484"><path class="cls-1" d="m143,118.13c.41.71.98,1.32,1.65,1.8"/></g><g id="ARC-485"><path class="cls-1" d="m144.65,119.93c.7.5,1.47.87,2.3,1.11"/></g><g id="ARC-486"><path class="cls-1" d="m146.95,121.04c.95.28,1.93.42,2.92.42"/></g><g id="ARC-487"><path class="cls-1" d="m149.87,121.46c.99,0,1.97-.14,2.92-.42"/></g><g id="ARC-488"><path class="cls-1" d="m152.79,121.04c.82-.24,1.6-.62,2.3-1.11"/></g><g id="ARC-489"><path class="cls-1" d="m155.08,119.93c.67-.48,1.23-1.09,1.65-1.8"/></g><g id="ARC-490"><path class="cls-1" d="m156.73,118.13c.34-.58.51-1.23.51-1.9"/></g><g id="ARC-491"><path class="cls-1" d="m157.24,116.22c0-.67-.18-1.33-.51-1.9"/></g><g id="ARC-492"><path class="cls-1" d="m156.73,114.32c-.41-.71-.98-1.32-1.65-1.8"/></g><g id="ARC-493"><path class="cls-1" d="m155.08,112.52c-.7-.5-1.47-.87-2.3-1.11"/></g><g id="ARC-494"><path class="cls-1" d="m152.79,111.41c-.95-.28-1.93-.42-2.92-.42"/></g><g id="ARC-495"><path class="cls-1" d="m149.87,110.99c-.99,0-1.97.14-2.92.42"/></g><g id="ARC-496"><path class="cls-1" d="m146.94,111.41c-.82.24-1.6.62-2.29,1.11"/></g><g id="ARC-497"><path class="cls-1" d="m144.65,112.52c-.67.48-1.23,1.09-1.65,1.8"/></g><g id="ARC-498"><path class="cls-1" d="m143,114.32c-.34.58-.51,1.23-.51,1.9"/></g><g id="ARC-499"><path class="cls-1" d="m142.49,116.22c0,.67.18,1.33.51,1.9"/></g><g id="ARC-500"><path class="cls-1" d="m159.33,116.22c0-1.04-.28-2.06-.8-2.95"/></g><g id="ARC-501"><path class="cls-1" d="m158.53,113.27c-.56-.97-1.33-1.8-2.24-2.45"/></g><g id="ARC-502"><path class="cls-1" d="m156.29,110.82c-.89-.63-1.87-1.11-2.91-1.41"/></g><g id="ARC-503"><path class="cls-1" d="m153.37,109.41c-1.14-.34-2.32-.51-3.51-.51"/></g><g id="ARC-504"><path class="cls-1" d="m149.86,108.9c-1.19,0-2.37.17-3.51.51"/></g><g id="ARC-505"><path class="cls-1" d="m146.36,109.41c-1.04.31-2.03.78-2.91,1.41"/></g><g id="ARC-506"><path class="cls-1" d="m143.44,110.82c-.91.65-1.68,1.48-2.24,2.45"/></g><g id="ARC-507"><path class="cls-1" d="m141.2,113.27c-.52.9-.8,1.92-.8,2.95"/></g><g id="LWPOLYLINE-313"><line class="cls-1" x1="141.95" y1="124.36" x2="157.78" y2="124.36"/></g><g id="CIRCLE-13"><circle class="cls-1" cx="149.87" cy="118.46" r=".74"/></g><g id="ARC-508"><path class="cls-1" d="m99.48,107.7c-.99,0-1.97.11-2.93.33"/></g><g id="ARC-509"><path class="cls-1" d="m96.54,108.03c-.78.18-1.53.47-2.22.85"/></g><g id="ARC-510"><path class="cls-1" d="m94.32,108.88c-.65.36-1.22.86-1.67,1.46"/></g><g id="ARC-511"><path class="cls-1" d="m92.65,110.34c-.3.41-.47.9-.47,1.41"/></g><g id="ARC-512"><path class="cls-1" d="m92.18,111.75c0,.51.16,1,.47,1.41"/></g><g id="ARC-513"><path class="cls-1" d="m92.65,113.16c.45.6,1.02,1.1,1.67,1.46"/></g><g id="ARC-514"><path class="cls-1" d="m94.32,114.62c.7.39,1.45.68,2.22.85"/></g><g id="ARC-515"><path class="cls-1" d="m96.54,115.47c.96.22,1.95.33,2.93.33"/></g><g id="ARC-516"><path class="cls-1" d="m99.48,115.8c2.24,0,4.05-1.82,4.05-4.05s-1.82-4.05-4.05-4.05"/></g><g id="ARC-517"><path class="cls-1" d="m98.08,106.51c-.92,0-1.84.12-2.74.36"/></g><g id="ARC-518"><path class="cls-1" d="m95.35,106.88c-.79.21-1.55.55-2.24,1"/></g><g id="ARC-519"><path class="cls-1" d="m93.11,107.88c-.71.46-1.31,1.07-1.77,1.78"/></g><g id="ARC-520"><path class="cls-1" d="m91.34,109.66c-.41.65-.63,1.4-.63,2.16"/></g><g id="ARC-521"><path class="cls-1" d="m90.71,111.82c0,.77.22,1.52.63,2.16"/></g><g id="ARC-522"><path class="cls-1" d="m91.34,113.99c.46.71,1.06,1.32,1.77,1.78"/></g><g id="ARC-523"><path class="cls-1" d="m93.11,115.77c.69.45,1.45.79,2.24,1"/></g><g id="ARC-524"><path class="cls-1" d="m95.35,116.77c.89.24,1.81.36,2.74.36"/></g><g id="ARC-525"><path class="cls-1" d="m100.62,110.06c-.97,0-1.76.79-1.76,1.76s.79,1.76,1.76,1.76"/></g><g id="ARC-526"><path class="cls-1" d="m98.09,117.14c3.12-.01,6.23-.29,9.3-.81"/></g><g id="ARC-527"><path class="cls-1" d="m107.38,107.32c-3.07-.52-6.18-.79-9.3-.81"/></g><g id="LWPOLYLINE-314"><line class="cls-1" x1="108.12" y1="115.46" x2="108.12" y2="108.19"/></g><g id="ARC-528"><path class="cls-1" d="m108.12,108.19c0-.43-.31-.8-.74-.87"/></g><g id="ARC-529"><path class="cls-1" d="m107.38,116.33c.43-.07.74-.44.74-.87"/></g></svg>