<?xml version="1.0" encoding="UTF-8"?><svg id="MURATURA_sezioni_-_section_wall" xmlns="http://www.w3.org/2000/svg" width="594.39" height="616.74" viewBox="0 0 594.39 616.74"><defs><style>.cls-1{stroke:#848484;stroke-width:.14px;}.cls-1,.cls-2,.cls-3,.cls-4,.cls-5{fill:none;stroke-linecap:round;stroke-linejoin:round;}.cls-2{stroke:#4c4c99;}.cls-2,.cls-4,.cls-5{stroke-width:.26px;}.cls-3{stroke:#000;stroke-width:1.13px;}.cls-4{stroke:#ff0;}.cls-5{stroke:#5b5b5b;}</style></defs><g id="LINE"><line class="cls-1" x1="507.12" y1="211.48" x2="509.59" y2="211.48"/></g><g id="LINE-2"><line class="cls-1" x1="509.59" y1="211.48" x2="509.59" y2="215.61"/></g><g id="LINE-3"><line class="cls-1" x1="509.59" y1="215.61" x2="511.24" y2="215.61"/></g><g id="LINE-4"><line class="cls-1" x1="511.24" y1="215.61" x2="511.24" y2="219.73"/></g><g id="LINE-5"><line class="cls-1" x1="511.24" y1="219.73" x2="507.12" y2="219.73"/></g><g id="LINE-6"><line class="cls-1" x1="507.12" y1="219.73" x2="507.12" y2="211.48"/></g><g id="LINE-7"><line class="cls-1" x1="573.13" y1="211.48" x2="570.65" y2="211.48"/></g><g id="LINE-8"><line class="cls-1" x1="570.65" y1="211.48" x2="570.65" y2="215.61"/></g><g id="LINE-9"><line class="cls-1" x1="570.65" y1="215.61" x2="569" y2="215.61"/></g><g id="LINE-10"><line class="cls-1" x1="569" y1="215.61" x2="569" y2="219.73"/></g><g id="LINE-11"><line class="cls-1" x1="569" y1="219.73" x2="573.13" y2="219.73"/></g><g id="LINE-12"><line class="cls-1" x1="573.13" y1="219.73" x2="573.13" y2="211.48"/></g><g id="LINE-13"><line class="cls-1" x1="566.53" y1="211.6" x2="570.65" y2="211.6"/></g><g id="LINE-14"><line class="cls-1" x1="570.65" y1="150.68" x2="566.53" y2="150.68"/></g><g id="LINE-15"><line class="cls-1" x1="570.65" y1="150.68" x2="570.65" y2="150.68"/></g><g id="LINE-16"><line class="cls-1" x1="566.53" y1="150.68" x2="566.53" y2="211.6"/></g><g id="LINE-17"><line class="cls-1" x1="570.65" y1="211.6" x2="570.65" y2="150.68"/></g><g id="LINE-18"><line class="cls-1" x1="507.12" y1="410.12" x2="509.59" y2="410.12"/></g><g id="LINE-19"><line class="cls-1" x1="509.59" y1="410.12" x2="509.59" y2="406"/></g><g id="LINE-20"><line class="cls-1" x1="509.59" y1="406" x2="511.24" y2="406"/></g><g id="LINE-21"><line class="cls-1" x1="511.24" y1="406" x2="511.24" y2="401.87"/></g><g id="LINE-22"><line class="cls-1" x1="511.24" y1="401.87" x2="507.12" y2="401.87"/></g><g id="LINE-23"><line class="cls-1" x1="507.12" y1="401.87" x2="507.12" y2="410.12"/></g><g id="LINE-24"><line class="cls-1" x1="573.13" y1="410.12" x2="570.65" y2="410.12"/></g><g id="LINE-25"><line class="cls-1" x1="570.65" y1="410.12" x2="570.65" y2="406"/></g><g id="LINE-26"><line class="cls-1" x1="570.65" y1="406" x2="569" y2="406"/></g><g id="LINE-27"><line class="cls-1" x1="569" y1="406" x2="569" y2="401.87"/></g><g id="LINE-28"><line class="cls-1" x1="569" y1="401.87" x2="573.13" y2="401.87"/></g><g id="LINE-29"><line class="cls-1" x1="573.13" y1="401.87" x2="573.13" y2="410.12"/></g><g id="LINE-30"><line class="cls-1" x1="566.53" y1="410.01" x2="570.65" y2="410.01"/></g><g id="LINE-31"><line class="cls-1" x1="570.65" y1="470.93" x2="566.53" y2="470.93"/></g><g id="LINE-32"><line class="cls-1" x1="570.65" y1="470.93" x2="570.65" y2="470.93"/></g><g id="LINE-33"><line class="cls-1" x1="566.53" y1="470.93" x2="566.53" y2="410.01"/></g><g id="LINE-34"><line class="cls-1" x1="570.65" y1="410.01" x2="570.65" y2="470.93"/></g><g id="ARC"><path class="cls-2" d="m47.3,262.79c.17,2.28.51,4.55.99,6.78"/></g><g id="ARC-2"><path class="cls-2" d="m52.01,248.46c-3.25,4.05-4.92,9.14-4.71,14.33"/></g><g id="ARC-3"><path class="cls-2" d="m48.29,269.57c.96,4.68,2.08,9.33,3.36,13.94"/></g><g id="LINE-35"><line class="cls-2" x1="57.82" y1="264.19" x2="57.82" y2="265.85"/></g><g id="ARC-4"><path class="cls-2" d="m58.81,262.2c-.63.47-.99,1.21-.99,1.99"/></g><g id="ARC-5"><path class="cls-2" d="m57.82,265.85c0,.63.47,1.16,1.1,1.23"/></g><g id="ARC-6"><path class="cls-2" d="m52.71,252.34c-2.08,3.74-2.76,8.11-1.89,12.3"/></g><g id="ARC-7"><path class="cls-2" d="m60.17,275.11c1.08.12,2.16.12,3.24,0"/></g><g id="ARC-8"><path class="cls-2" d="m50.81,264.64c.38,1.86,1.02,3.67,1.9,5.36"/></g><g id="LINE-36"><line class="cls-2" x1="43.37" y1="295.07" x2="43.37" y2="289.14"/></g><g id="ARC-9"><path class="cls-2" d="m48.04,283.88c-2.67.32-4.67,2.58-4.67,5.26"/></g><g id="ARC-10"><path class="cls-2" d="m43.37,295.07c0,1.83,1.48,3.31,3.31,3.31"/></g><g id="CIRCLE"><circle class="cls-2" cx="61.79" cy="288.28" r="1.12"/></g><g id="CIRCLE-2"><circle class="cls-2" cx="55.17" cy="279.34" r=".62"/></g><g id="ARC-11"><path class="cls-2" d="m45.27,291.03c0,1.69,1.27,3.11,2.95,3.29"/></g><g id="ARC-12"><path class="cls-2" d="m45.27,291.03c.26,1.44,1.44,2.54,2.9,2.7"/></g><g id="ARC-13"><path class="cls-2" d="m75.41,293.73c1.46-.16,2.64-1.26,2.9-2.7"/></g><g id="ARC-14"><path class="cls-2" d="m75.36,294.32c1.68-.18,2.95-1.6,2.95-3.29"/></g><g id="ARC-15"><path class="cls-2" d="m48.17,293.73c9.05,1,18.19,1,27.25,0"/></g><g id="ARC-16"><path class="cls-2" d="m48.22,294.32c9.02.99,18.12.99,27.13,0"/></g><g id="CIRCLE-3"><circle class="cls-2" cx="68.41" cy="279.34" r=".62"/></g><g id="CIRCLE-4"><circle class="cls-2" cx="61.79" cy="288.28" r="1.12"/></g><g id="ARC-17"><path class="cls-2" d="m76.9,298.38c1.83,0,3.31-1.48,3.31-3.31"/></g><g id="ARC-18"><path class="cls-2" d="m80.21,289.14c0-2.68-2.01-4.94-4.67-5.26"/></g><g id="ARC-19"><path class="cls-2" d="m75.54,283.88c-9.13-1.09-18.36-1.09-27.5,0"/></g><g id="LINE-37"><line class="cls-2" x1="76.9" y1="298.38" x2="46.68" y2="298.38"/></g><g id="LINE-38"><line class="cls-2" x1="80.21" y1="295.07" x2="80.21" y2="289.14"/></g><g id="ARC-20"><path class="cls-2" d="m70.87,270c.88-1.69,1.51-3.49,1.9-5.36"/></g><g id="ARC-21"><path class="cls-2" d="m63.41,275.11c3.18-.35,5.98-2.27,7.46-5.11"/></g><g id="ARC-22"><path class="cls-2" d="m70.87,252.34c-2.79-5.02-9.12-6.82-14.14-4.02-1.69.94-3.08,2.33-4.02,4.02"/></g><g id="ARC-23"><path class="cls-2" d="m72.77,264.64c.86-4.2.19-8.56-1.89-12.3"/></g><g id="ARC-24"><path class="cls-2" d="m64.67,267.08c.63-.07,1.1-.6,1.1-1.23"/></g><g id="ARC-25"><path class="cls-2" d="m65.76,264.19c0-.78-.37-1.52-.99-1.99"/></g><g id="LINE-39"><line class="cls-2" x1="65.76" y1="264.19" x2="65.76" y2="265.85"/></g><g id="ARC-26"><path class="cls-2" d="m64.77,262.2c-1.77-1.32-4.19-1.32-5.96,0"/></g><g id="ARC-27"><path class="cls-2" d="m58.91,267.08c1.91.22,3.84.22,5.75,0"/></g><g id="ARC-28"><path class="cls-2" d="m71.92,283.5c1.28-4.61,2.4-9.25,3.36-13.94"/></g><g id="ARC-29"><path class="cls-2" d="m76.28,262.79c.21-5.19-1.46-10.28-4.71-14.33"/></g><g id="ARC-30"><path class="cls-2" d="m75.28,269.57c.49-2.23.82-4.5.99-6.78"/></g><g id="ARC-31"><path class="cls-2" d="m71.57,248.46c-4.94-5.4-13.32-5.77-18.71-.84-.29.27-.57.55-.84.84"/></g><g id="ARC-32"><path class="cls-2" d="m52.71,270c1.47,2.84,4.27,4.76,7.46,5.11"/></g><g id="ARC-33"><path class="cls-2" d="m116.02,262.79c.17,2.28.51,4.55.99,6.78"/></g><g id="ARC-34"><path class="cls-2" d="m120.73,248.46c-3.25,4.05-4.92,9.14-4.71,14.33"/></g><g id="ARC-35"><path class="cls-2" d="m117.01,269.57c.96,4.68,2.08,9.33,3.36,13.94"/></g><g id="LINE-40"><line class="cls-2" x1="126.53" y1="264.19" x2="126.53" y2="265.85"/></g><g id="ARC-36"><path class="cls-2" d="m127.52,262.2c-.63.47-.99,1.21-.99,1.99"/></g><g id="ARC-37"><path class="cls-2" d="m126.53,265.85c0,.63.47,1.16,1.1,1.23"/></g><g id="ARC-38"><path class="cls-2" d="m121.42,252.34c-2.08,3.74-2.76,8.11-1.89,12.3"/></g><g id="ARC-39"><path class="cls-2" d="m128.88,275.11c1.08.12,2.16.12,3.24,0"/></g><g id="ARC-40"><path class="cls-2" d="m119.53,264.64c.38,1.86,1.02,3.67,1.9,5.36"/></g><g id="LINE-41"><line class="cls-2" x1="112.08" y1="295.07" x2="112.08" y2="289.14"/></g><g id="ARC-41"><path class="cls-2" d="m116.76,283.88c-2.67.32-4.67,2.58-4.67,5.26"/></g><g id="ARC-42"><path class="cls-2" d="m112.08,295.07c0,1.83,1.48,3.31,3.31,3.31"/></g><g id="CIRCLE-5"><circle class="cls-2" cx="130.51" cy="288.28" r="1.12"/></g><g id="CIRCLE-6"><circle class="cls-2" cx="123.88" cy="279.34" r=".62"/></g><g id="ARC-43"><path class="cls-2" d="m113.99,291.03c0,1.69,1.27,3.11,2.95,3.29"/></g><g id="ARC-44"><path class="cls-2" d="m113.99,291.03c.26,1.44,1.44,2.54,2.9,2.7"/></g><g id="ARC-45"><path class="cls-2" d="m144.12,293.73c1.46-.16,2.64-1.26,2.9-2.7"/></g><g id="ARC-46"><path class="cls-2" d="m144.07,294.32c1.68-.18,2.95-1.6,2.95-3.29"/></g><g id="ARC-47"><path class="cls-2" d="m116.89,293.73c9.05,1,18.19,1,27.25,0"/></g><g id="ARC-48"><path class="cls-2" d="m116.94,294.32c9.02.99,18.12.99,27.13,0"/></g><g id="CIRCLE-7"><circle class="cls-2" cx="137.13" cy="279.34" r=".62"/></g><g id="CIRCLE-8"><circle class="cls-2" cx="130.51" cy="288.28" r="1.12"/></g><g id="ARC-49"><path class="cls-2" d="m145.61,298.38c1.83,0,3.31-1.48,3.31-3.31"/></g><g id="ARC-50"><path class="cls-2" d="m148.93,289.14c0-2.68-2.01-4.94-4.67-5.26"/></g><g id="ARC-51"><path class="cls-2" d="m144.25,283.88c-9.13-1.09-18.36-1.09-27.5,0"/></g><g id="LINE-42"><line class="cls-2" x1="145.61" y1="298.38" x2="115.4" y2="298.38"/></g><g id="LINE-43"><line class="cls-2" x1="148.93" y1="295.07" x2="148.93" y2="289.14"/></g><g id="ARC-52"><path class="cls-2" d="m139.58,270c.88-1.69,1.51-3.49,1.9-5.36"/></g><g id="ARC-53"><path class="cls-2" d="m132.13,275.11c3.18-.35,5.98-2.27,7.46-5.11"/></g><g id="ARC-54"><path class="cls-2" d="m139.59,252.34c-2.79-5.02-9.12-6.82-14.14-4.02-1.69.94-3.08,2.33-4.02,4.02"/></g><g id="ARC-55"><path class="cls-2" d="m141.48,264.64c.86-4.2.19-8.56-1.89-12.3"/></g><g id="ARC-56"><path class="cls-2" d="m133.38,267.08c.63-.07,1.1-.6,1.1-1.23"/></g><g id="ARC-57"><path class="cls-2" d="m134.48,264.19c0-.78-.37-1.52-.99-1.99"/></g><g id="LINE-44"><line class="cls-2" x1="134.48" y1="264.19" x2="134.48" y2="265.85"/></g><g id="ARC-58"><path class="cls-2" d="m133.49,262.2c-1.77-1.32-4.19-1.32-5.96,0"/></g><g id="ARC-59"><path class="cls-2" d="m127.63,267.08c1.91.22,3.84.22,5.75,0"/></g><g id="ARC-60"><path class="cls-2" d="m140.64,283.5c1.28-4.61,2.4-9.25,3.36-13.94"/></g><g id="ARC-61"><path class="cls-2" d="m144.99,262.79c.21-5.19-1.46-10.28-4.71-14.33"/></g><g id="ARC-62"><path class="cls-2" d="m144,269.57c.49-2.23.82-4.5.99-6.78"/></g><g id="ARC-63"><path class="cls-2" d="m140.28,248.46c-4.94-5.4-13.32-5.77-18.71-.84-.29.27-.57.55-.84.84"/></g><g id="ARC-64"><path class="cls-2" d="m121.43,270c1.47,2.84,4.27,4.76,7.46,5.11"/></g><g id="LINE-45"><line class="cls-4" x1="300.72" y1="302.52" x2="300.72" y2="203.18"/></g><g id="ARC-65"><path class="cls-2" d="m253.45,262.79c.17,2.28.51,4.55.99,6.78"/></g><g id="ARC-66"><path class="cls-2" d="m258.16,248.46c-3.25,4.05-4.92,9.14-4.71,14.33"/></g><g id="ARC-67"><path class="cls-2" d="m254.44,269.57c.96,4.68,2.08,9.33,3.36,13.94"/></g><g id="LINE-46"><line class="cls-2" x1="263.96" y1="264.19" x2="263.96" y2="265.85"/></g><g id="ARC-68"><path class="cls-2" d="m264.96,262.2c-.63.47-.99,1.21-.99,1.99"/></g><g id="ARC-69"><path class="cls-2" d="m263.96,265.85c0,.63.47,1.16,1.1,1.23"/></g><g id="ARC-70"><path class="cls-2" d="m258.85,252.34c-2.08,3.74-2.76,8.11-1.89,12.3"/></g><g id="ARC-71"><path class="cls-2" d="m266.32,275.11c1.08.12,2.16.12,3.24,0"/></g><g id="ARC-72"><path class="cls-2" d="m256.96,264.64c.38,1.86,1.02,3.67,1.9,5.36"/></g><g id="LINE-47"><line class="cls-2" x1="249.52" y1="295.07" x2="249.52" y2="289.14"/></g><g id="ARC-73"><path class="cls-2" d="m254.19,283.88c-2.67.32-4.67,2.58-4.67,5.26"/></g><g id="ARC-74"><path class="cls-2" d="m249.52,295.07c0,1.83,1.48,3.31,3.31,3.31"/></g><g id="CIRCLE-9"><circle class="cls-2" cx="267.94" cy="288.28" r="1.12"/></g><g id="CIRCLE-10"><circle class="cls-2" cx="261.31" cy="279.34" r=".62"/></g><g id="ARC-75"><path class="cls-2" d="m251.42,291.03c0,1.69,1.27,3.11,2.95,3.29"/></g><g id="ARC-76"><path class="cls-2" d="m251.42,291.03c.26,1.44,1.44,2.54,2.9,2.7"/></g><g id="ARC-77"><path class="cls-2" d="m281.55,293.73c1.46-.16,2.64-1.26,2.9-2.7"/></g><g id="ARC-78"><path class="cls-2" d="m281.5,294.32c1.68-.18,2.95-1.6,2.95-3.29"/></g><g id="ARC-79"><path class="cls-2" d="m254.32,293.73c9.05,1,18.19,1,27.25,0"/></g><g id="ARC-80"><path class="cls-2" d="m254.37,294.32c9.02.99,18.12.99,27.13,0"/></g><g id="CIRCLE-11"><circle class="cls-2" cx="274.56" cy="279.34" r=".62"/></g><g id="CIRCLE-12"><circle class="cls-2" cx="267.94" cy="288.28" r="1.12"/></g><g id="ARC-81"><path class="cls-2" d="m283.05,298.38c1.83,0,3.31-1.48,3.31-3.31"/></g><g id="ARC-82"><path class="cls-2" d="m286.36,289.14c0-2.68-2.01-4.94-4.67-5.26"/></g><g id="ARC-83"><path class="cls-2" d="m281.69,283.88c-9.13-1.09-18.36-1.09-27.5,0"/></g><g id="LINE-48"><line class="cls-2" x1="283.05" y1="298.38" x2="252.83" y2="298.38"/></g><g id="LINE-49"><line class="cls-2" x1="286.36" y1="295.07" x2="286.36" y2="289.14"/></g><g id="ARC-84"><path class="cls-2" d="m277.01,270c.88-1.69,1.51-3.49,1.9-5.36"/></g><g id="ARC-85"><path class="cls-2" d="m269.56,275.11c3.18-.35,5.98-2.27,7.46-5.11"/></g><g id="ARC-86"><path class="cls-2" d="m277.02,252.34c-2.79-5.02-9.12-6.82-14.14-4.02-1.69.94-3.08,2.33-4.02,4.02"/></g><g id="ARC-87"><path class="cls-2" d="m278.91,264.64c.86-4.2.19-8.56-1.89-12.3"/></g><g id="ARC-88"><path class="cls-2" d="m270.81,267.08c.63-.07,1.1-.6,1.1-1.23"/></g><g id="ARC-89"><path class="cls-2" d="m271.91,264.19c0-.78-.37-1.52-.99-1.99"/></g><g id="LINE-50"><line class="cls-2" x1="271.91" y1="264.19" x2="271.91" y2="265.85"/></g><g id="ARC-90"><path class="cls-2" d="m270.92,262.2c-1.77-1.32-4.19-1.32-5.96,0"/></g><g id="ARC-91"><path class="cls-2" d="m265.06,267.08c1.91.22,3.84.22,5.75,0"/></g><g id="ARC-92"><path class="cls-2" d="m278.07,283.5c1.28-4.61,2.4-9.25,3.36-13.94"/></g><g id="ARC-93"><path class="cls-2" d="m282.42,262.79c.21-5.19-1.46-10.28-4.71-14.33"/></g><g id="ARC-94"><path class="cls-2" d="m281.43,269.57c.49-2.23.82-4.5.99-6.78"/></g><g id="ARC-95"><path class="cls-2" d="m277.71,248.46c-4.94-5.4-13.32-5.77-18.71-.84-.29.27-.57.55-.84.84"/></g><g id="ARC-96"><path class="cls-2" d="m258.86,270c1.47,2.84,4.27,4.76,7.46,5.11"/></g><g id="LINE-51"><line class="cls-4" x1="303.2" y1="302.52" x2="303.2" y2="203.18"/></g><g id="ARC-97"><path class="cls-2" d="m184.73,262.79c.17,2.28.51,4.55.99,6.78"/></g><g id="ARC-98"><path class="cls-2" d="m189.44,248.46c-3.25,4.05-4.92,9.14-4.71,14.33"/></g><g id="ARC-99"><path class="cls-2" d="m185.73,269.57c.96,4.68,2.08,9.33,3.36,13.94"/></g><g id="LINE-52"><line class="cls-2" x1="195.25" y1="264.19" x2="195.25" y2="265.85"/></g><g id="ARC-100"><path class="cls-2" d="m196.24,262.2c-.63.47-.99,1.21-.99,1.99"/></g><g id="ARC-101"><path class="cls-2" d="m195.25,265.85c0,.63.47,1.16,1.1,1.23"/></g><g id="ARC-102"><path class="cls-2" d="m190.14,252.34c-2.08,3.74-2.76,8.11-1.89,12.3"/></g><g id="ARC-103"><path class="cls-2" d="m197.6,275.11c1.08.12,2.16.12,3.24,0"/></g><g id="ARC-104"><path class="cls-2" d="m188.25,264.64c.38,1.86,1.02,3.67,1.9,5.36"/></g><g id="LINE-53"><line class="cls-2" x1="180.8" y1="295.07" x2="180.8" y2="289.14"/></g><g id="ARC-105"><path class="cls-2" d="m185.47,283.88c-2.67.32-4.67,2.58-4.67,5.26"/></g><g id="ARC-106"><path class="cls-2" d="m180.8,295.07c0,1.83,1.48,3.31,3.31,3.31"/></g><g id="CIRCLE-13"><circle class="cls-2" cx="199.22" cy="288.28" r="1.12"/></g><g id="CIRCLE-14"><circle class="cls-2" cx="192.6" cy="279.34" r=".62"/></g><g id="ARC-107"><path class="cls-2" d="m182.7,291.03c0,1.69,1.27,3.11,2.95,3.29"/></g><g id="ARC-108"><path class="cls-2" d="m182.7,291.03c.26,1.44,1.44,2.54,2.9,2.7"/></g><g id="ARC-109"><path class="cls-2" d="m212.84,293.73c1.46-.16,2.64-1.26,2.9-2.7"/></g><g id="ARC-110"><path class="cls-2" d="m212.79,294.32c1.68-.18,2.95-1.6,2.95-3.29"/></g><g id="ARC-111"><path class="cls-2" d="m185.6,293.73c9.05,1,18.19,1,27.25,0"/></g><g id="ARC-112"><path class="cls-2" d="m185.65,294.32c9.02.99,18.12.99,27.13,0"/></g><g id="CIRCLE-15"><circle class="cls-2" cx="205.84" cy="279.34" r=".62"/></g><g id="CIRCLE-16"><circle class="cls-2" cx="199.22" cy="288.28" r="1.12"/></g><g id="ARC-113"><path class="cls-2" d="m214.33,298.38c1.83,0,3.31-1.48,3.31-3.31"/></g><g id="ARC-114"><path class="cls-2" d="m217.64,289.14c0-2.68-2.01-4.94-4.67-5.26"/></g><g id="ARC-115"><path class="cls-2" d="m212.97,283.88c-9.13-1.09-18.36-1.09-27.5,0"/></g><g id="LINE-54"><line class="cls-2" x1="214.33" y1="298.38" x2="184.11" y2="298.38"/></g><g id="LINE-55"><line class="cls-2" x1="217.64" y1="295.07" x2="217.64" y2="289.14"/></g><g id="ARC-116"><path class="cls-2" d="m208.3,270c.88-1.69,1.51-3.49,1.9-5.36"/></g><g id="ARC-117"><path class="cls-2" d="m200.84,275.11c3.18-.35,5.98-2.27,7.46-5.11"/></g><g id="ARC-118"><path class="cls-2" d="m208.3,252.34c-2.79-5.02-9.12-6.82-14.14-4.02-1.69.94-3.08,2.33-4.02,4.02"/></g><g id="ARC-119"><path class="cls-2" d="m210.2,264.64c.86-4.2.19-8.56-1.89-12.3"/></g><g id="ARC-120"><path class="cls-2" d="m202.1,267.08c.63-.07,1.1-.6,1.1-1.23"/></g><g id="ARC-121"><path class="cls-2" d="m203.19,264.19c0-.78-.37-1.52-.99-1.99"/></g><g id="LINE-56"><line class="cls-2" x1="203.19" y1="264.19" x2="203.19" y2="265.85"/></g><g id="ARC-122"><path class="cls-2" d="m202.2,262.2c-1.77-1.32-4.19-1.32-5.96,0"/></g><g id="ARC-123"><path class="cls-2" d="m196.34,267.08c1.91.22,3.84.22,5.75,0"/></g><g id="ARC-124"><path class="cls-2" d="m209.35,283.5c1.28-4.61,2.4-9.25,3.36-13.94"/></g><g id="ARC-125"><path class="cls-2" d="m213.71,262.79c.21-5.19-1.46-10.28-4.71-14.33"/></g><g id="ARC-126"><path class="cls-2" d="m212.72,269.57c.49-2.23.82-4.5.99-6.78"/></g><g id="ARC-127"><path class="cls-2" d="m209,248.46c-4.94-5.4-13.32-5.77-18.71-.84-.29.27-.57.55-.84.84"/></g><g id="ARC-128"><path class="cls-2" d="m190.14,270c1.47,2.84,4.27,4.76,7.46,5.11"/></g><g id="ARC-129"><path class="cls-2" d="m322.16,262.79c.17,2.28.51,4.55.99,6.78"/></g><g id="ARC-130"><path class="cls-2" d="m326.88,248.46c-3.25,4.05-4.92,9.14-4.71,14.33"/></g><g id="ARC-131"><path class="cls-2" d="m323.16,269.57c.96,4.68,2.08,9.33,3.36,13.94"/></g><g id="LINE-57"><line class="cls-2" x1="332.68" y1="264.19" x2="332.68" y2="265.85"/></g><g id="ARC-132"><path class="cls-2" d="m333.67,262.2c-.63.47-.99,1.21-.99,1.99"/></g><g id="ARC-133"><path class="cls-2" d="m332.68,265.85c0,.63.47,1.16,1.1,1.23"/></g><g id="ARC-134"><path class="cls-2" d="m327.57,252.34c-2.08,3.74-2.76,8.11-1.89,12.3"/></g><g id="ARC-135"><path class="cls-2" d="m335.03,275.11c1.08.12,2.16.12,3.24,0"/></g><g id="ARC-136"><path class="cls-2" d="m325.68,264.64c.38,1.86,1.02,3.67,1.9,5.36"/></g><g id="LINE-58"><line class="cls-2" x1="318.23" y1="295.07" x2="318.23" y2="289.14"/></g><g id="ARC-137"><path class="cls-2" d="m322.9,283.88c-2.67.32-4.67,2.58-4.67,5.26"/></g><g id="ARC-138"><path class="cls-2" d="m318.23,295.07c0,1.83,1.48,3.31,3.31,3.31"/></g><g id="CIRCLE-17"><circle class="cls-2" cx="336.65" cy="288.28" r="1.12"/></g><g id="CIRCLE-18"><circle class="cls-2" cx="330.03" cy="279.34" r=".62"/></g><g id="ARC-139"><path class="cls-2" d="m320.14,291.03c0,1.69,1.27,3.11,2.95,3.29"/></g><g id="ARC-140"><path class="cls-2" d="m320.14,291.03c.26,1.44,1.44,2.54,2.9,2.7"/></g><g id="ARC-141"><path class="cls-2" d="m350.27,293.73c1.46-.16,2.64-1.26,2.9-2.7"/></g><g id="ARC-142"><path class="cls-2" d="m350.22,294.32c1.68-.18,2.95-1.6,2.95-3.29"/></g><g id="ARC-143"><path class="cls-2" d="m323.04,293.73c9.05,1,18.19,1,27.25,0"/></g><g id="ARC-144"><path class="cls-2" d="m323.09,294.32c9.02.99,18.12.99,27.13,0"/></g><g id="CIRCLE-19"><circle class="cls-2" cx="343.28" cy="279.34" r=".62"/></g><g id="CIRCLE-20"><circle class="cls-2" cx="336.65" cy="288.28" r="1.12"/></g><g id="ARC-145"><path class="cls-2" d="m351.76,298.38c1.83,0,3.31-1.48,3.31-3.31"/></g><g id="ARC-146"><path class="cls-2" d="m355.07,289.14c0-2.68-2.01-4.94-4.67-5.26"/></g><g id="ARC-147"><path class="cls-2" d="m350.4,283.88c-9.13-1.09-18.36-1.09-27.5,0"/></g><g id="LINE-59"><line class="cls-2" x1="351.76" y1="298.38" x2="321.54" y2="298.38"/></g><g id="LINE-60"><line class="cls-2" x1="355.07" y1="295.07" x2="355.07" y2="289.14"/></g><g id="ARC-148"><path class="cls-2" d="m345.73,270c.88-1.69,1.51-3.49,1.9-5.36"/></g><g id="ARC-149"><path class="cls-2" d="m338.27,275.11c3.18-.35,5.98-2.27,7.46-5.11"/></g><g id="ARC-150"><path class="cls-2" d="m345.73,252.34c-2.79-5.02-9.12-6.82-14.14-4.02-1.69.94-3.08,2.33-4.02,4.02"/></g><g id="ARC-151"><path class="cls-2" d="m347.63,264.64c.86-4.2.19-8.56-1.89-12.3"/></g><g id="ARC-152"><path class="cls-2" d="m339.53,267.08c.63-.07,1.1-.6,1.1-1.23"/></g><g id="ARC-153"><path class="cls-2" d="m340.63,264.19c0-.78-.37-1.52-.99-1.99"/></g><g id="LINE-61"><line class="cls-2" x1="340.63" y1="264.19" x2="340.63" y2="265.85"/></g><g id="ARC-154"><path class="cls-2" d="m339.63,262.2c-1.77-1.32-4.19-1.32-5.96,0"/></g><g id="ARC-155"><path class="cls-2" d="m333.78,267.08c1.91.22,3.84.22,5.75,0"/></g><g id="ARC-156"><path class="cls-2" d="m346.79,283.5c1.28-4.61,2.4-9.25,3.36-13.94"/></g><g id="ARC-157"><path class="cls-2" d="m351.14,262.79c.21-5.19-1.46-10.28-4.71-14.33"/></g><g id="ARC-158"><path class="cls-2" d="m350.15,269.57c.49-2.23.82-4.5.99-6.78"/></g><g id="ARC-159"><path class="cls-2" d="m346.43,248.46c-4.94-5.4-13.32-5.77-18.71-.84-.29.27-.57.55-.84.84"/></g><g id="ARC-160"><path class="cls-2" d="m327.57,270c1.47,2.84,4.27,4.76,7.46,5.11"/></g><g id="LINE-62"><line class="cls-4" x1="369.44" y1="302.52" x2="369.44" y2="203.18"/></g><g id="LINE-63"><line class="cls-4" x1="371.92" y1="302.52" x2="371.92" y2="203.18"/></g><g id="ARC-161"><path class="cls-2" d="m397.7,262.52c.17,2.28.51,4.55.99,6.78"/></g><g id="ARC-162"><path class="cls-2" d="m402.41,248.19c-3.25,4.05-4.92,9.14-4.71,14.33"/></g><g id="ARC-163"><path class="cls-2" d="m398.69,269.3c.96,4.68,2.08,9.33,3.36,13.94"/></g><g id="LINE-64"><line class="cls-2" x1="408.21" y1="263.92" x2="408.21" y2="265.58"/></g><g id="ARC-164"><path class="cls-2" d="m409.21,261.93c-.63.47-.99,1.21-.99,1.99"/></g><g id="ARC-165"><path class="cls-2" d="m408.21,265.58c0,.63.47,1.16,1.1,1.23"/></g><g id="ARC-166"><path class="cls-2" d="m403.11,252.07c-2.08,3.74-2.76,8.11-1.89,12.3"/></g><g id="ARC-167"><path class="cls-2" d="m410.57,274.84c1.08.12,2.16.12,3.24,0"/></g><g id="ARC-168"><path class="cls-2" d="m401.21,264.38c.38,1.86,1.02,3.67,1.9,5.36"/></g><g id="LINE-65"><line class="cls-2" x1="393.77" y1="294.8" x2="393.77" y2="288.87"/></g><g id="ARC-169"><path class="cls-2" d="m398.44,283.61c-2.67.32-4.67,2.58-4.67,5.26"/></g><g id="ARC-170"><path class="cls-2" d="m393.77,294.8c0,1.83,1.48,3.31,3.31,3.31"/></g><g id="CIRCLE-21"><circle class="cls-2" cx="412.19" cy="288.01" r="1.12"/></g><g id="CIRCLE-22"><circle class="cls-2" cx="405.57" cy="279.07" r=".62"/></g><g id="ARC-171"><path class="cls-2" d="m395.67,290.77c0,1.69,1.27,3.11,2.95,3.29"/></g><g id="ARC-172"><path class="cls-2" d="m395.67,290.77c.26,1.44,1.44,2.54,2.9,2.7"/></g><g id="ARC-173"><path class="cls-2" d="m425.8,293.47c1.46-.16,2.64-1.26,2.9-2.7"/></g><g id="ARC-174"><path class="cls-2" d="m425.76,294.06c1.68-.18,2.95-1.6,2.95-3.29"/></g><g id="ARC-175"><path class="cls-2" d="m398.57,293.47c9.05,1,18.19,1,27.25,0"/></g><g id="ARC-176"><path class="cls-2" d="m398.62,294.06c9.02.99,18.12.99,27.13,0"/></g><g id="CIRCLE-23"><circle class="cls-2" cx="418.81" cy="279.07" r=".62"/></g><g id="CIRCLE-24"><circle class="cls-2" cx="412.19" cy="288.01" r="1.12"/></g><g id="ARC-177"><path class="cls-2" d="m427.3,298.11c1.83,0,3.31-1.48,3.31-3.31"/></g><g id="ARC-178"><path class="cls-2" d="m430.61,288.87c0-2.68-2.01-4.94-4.67-5.26"/></g><g id="ARC-179"><path class="cls-2" d="m425.94,283.61c-9.13-1.09-18.36-1.09-27.5,0"/></g><g id="LINE-66"><line class="cls-2" x1="427.3" y1="298.11" x2="397.08" y2="298.11"/></g><g id="LINE-67"><line class="cls-2" x1="430.61" y1="294.8" x2="430.61" y2="288.87"/></g><g id="ARC-180"><path class="cls-2" d="m421.27,269.73c.88-1.69,1.51-3.49,1.9-5.36"/></g><g id="ARC-181"><path class="cls-2" d="m413.81,274.84c3.18-.35,5.98-2.27,7.46-5.11"/></g><g id="ARC-182"><path class="cls-2" d="m421.27,252.07c-2.79-5.02-9.12-6.82-14.14-4.02-1.69.94-3.08,2.33-4.02,4.02"/></g><g id="ARC-183"><path class="cls-2" d="m423.16,264.38c.86-4.2.19-8.56-1.89-12.3"/></g><g id="ARC-184"><path class="cls-2" d="m415.06,266.82c.63-.07,1.1-.6,1.1-1.23"/></g><g id="ARC-185"><path class="cls-2" d="m416.16,263.92c0-.78-.37-1.52-.99-1.99"/></g><g id="LINE-68"><line class="cls-2" x1="416.16" y1="263.92" x2="416.16" y2="265.58"/></g><g id="ARC-186"><path class="cls-2" d="m415.17,261.93c-1.77-1.32-4.19-1.32-5.96,0"/></g><g id="ARC-187"><path class="cls-2" d="m409.31,266.82c1.91.22,3.84.22,5.75,0"/></g><g id="ARC-188"><path class="cls-2" d="m422.32,283.24c1.28-4.61,2.4-9.25,3.36-13.94"/></g><g id="ARC-189"><path class="cls-2" d="m426.68,262.52c.21-5.19-1.46-10.28-4.71-14.33"/></g><g id="ARC-190"><path class="cls-2" d="m425.68,269.3c.49-2.23.82-4.5.99-6.78"/></g><g id="ARC-191"><path class="cls-2" d="m421.96,248.19c-4.94-5.4-13.32-5.77-18.71-.84-.29.27-.57.55-.84.84"/></g><g id="ARC-192"><path class="cls-2" d="m403.11,269.73c1.47,2.84,4.27,4.76,7.46,5.11"/></g><g id="LINE-69"><line class="cls-4" x1="456.11" y1="203.18" x2="441.7" y2="203.06"/></g><g id="LINE-70"><line class="cls-4" x1="456.11" y1="205.66" x2="441.7" y2="205.66"/></g><g id="LWPOLYLINE"><rect class="cls-2" x="439.23" y="139.57" width="2.48" height="63.49"/></g><g id="LINE-71"><line class="cls-4" x1="441.7" y1="203.06" x2="441.7" y2="205.66"/></g><g id="LINE-72"><line class="cls-4" x1="371.92" y1="203.18" x2="369.44" y2="203.18"/></g><g id="LINE-73"><line class="cls-4" x1="369.44" y1="203.18" x2="358.78" y2="203.18"/></g><g id="LINE-74"><line class="cls-4" x1="369.44" y1="205.66" x2="358.78" y2="205.66"/></g><g id="LINE-75"><line class="cls-4" x1="358.78" y1="203.06" x2="358.78" y2="205.66"/></g><g id="LWPOLYLINE-2"><rect class="cls-2" x="356.29" y="147.6" width="2.48" height="55.45"/></g><g id="LINE-76"><line class="cls-4" x1="303.2" y1="203.18" x2="300.72" y2="203.18"/></g><g id="LINE-77"><line class="cls-4" x1="232" y1="302.52" x2="232" y2="203.18"/></g><g id="LINE-78"><line class="cls-4" x1="234.49" y1="302.52" x2="234.49" y2="203.18"/></g><g id="LINE-79"><line class="cls-4" x1="300.72" y1="205.66" x2="290.06" y2="205.66"/></g><g id="LINE-80"><line class="cls-4" x1="300.72" y1="203.18" x2="290.06" y2="203.18"/></g><g id="LINE-81"><line class="cls-4" x1="290.06" y1="203.06" x2="290.06" y2="205.66"/></g><g id="LWPOLYLINE-3"><rect class="cls-2" x="287.58" y="147.6" width="2.48" height="55.45"/></g><g id="LINE-82"><line class="cls-4" x1="234.49" y1="203.18" x2="232" y2="203.18"/></g><g id="LINE-83"><line class="cls-4" x1="165.77" y1="203.18" x2="163.29" y2="203.18"/></g><g id="LWPOLYLINE-4"><rect class="cls-2" x="218.86" y="147.6" width="2.48" height="55.45"/></g><g id="LINE-84"><line class="cls-4" x1="221.35" y1="203.06" x2="221.35" y2="205.66"/></g><g id="LINE-85"><line class="cls-4" x1="232" y1="203.18" x2="221.35" y2="203.18"/></g><g id="LINE-86"><line class="cls-4" x1="232" y1="205.66" x2="221.35" y2="205.66"/></g><g id="LINE-87"><line class="cls-4" x1="165.77" y1="302.52" x2="165.77" y2="203.18"/></g><g id="LINE-88"><line class="cls-4" x1="163.29" y1="302.52" x2="163.29" y2="203.18"/></g><g id="LINE-89"><line class="cls-4" x1="94.57" y1="302.52" x2="94.57" y2="203.18"/></g><g id="LINE-90"><line class="cls-4" x1="97.06" y1="302.52" x2="97.06" y2="203.18"/></g><g id="LINE-91"><line class="cls-4" x1="97.06" y1="203.18" x2="94.57" y2="203.18"/></g><g id="LINE-92"><line class="cls-4" x1="163.29" y1="205.66" x2="152.63" y2="205.66"/></g><g id="LINE-93"><line class="cls-4" x1="163.29" y1="203.18" x2="152.63" y2="203.18"/></g><g id="LINE-94"><line class="cls-4" x1="152.63" y1="203.06" x2="152.63" y2="205.66"/></g><g id="LWPOLYLINE-5"><rect class="cls-2" x="150.15" y="147.6" width="2.48" height="55.45"/></g><g id="LWPOLYLINE-6"><rect class="cls-2" x="81.43" y="147.6" width="2.48" height="55.45"/></g><g id="LINE-95"><line class="cls-4" x1="83.92" y1="203.06" x2="83.92" y2="205.66"/></g><g id="LINE-96"><line class="cls-4" x1="94.57" y1="203.18" x2="83.92" y2="203.18"/></g><g id="LINE-97"><line class="cls-4" x1="94.57" y1="205.66" x2="83.92" y2="205.66"/></g><g id="LINE-98"><line class="cls-4" x1="28.34" y1="203.18" x2="17.13" y2="203.18"/></g><g id="LINE-99"><line class="cls-4" x1="28.34" y1="205.66" x2="17.63" y2="205.66"/></g><g id="LINE-100"><line class="cls-4" x1="28.34" y1="203.18" x2="28.34" y2="205.66"/></g><g id="LINE-101"><line class="cls-2" x1="133.79" y1="31.43" x2="133.79" y2="30.6"/></g><g id="LINE-102"><line class="cls-2" x1="81.42" y1="75.72" x2="61.59" y2="75.72"/></g><g id="LINE-103"><line class="cls-2" x1="27.61" y1="62.94" x2="27.61" y2="32.09"/></g><g id="LINE-104"><line class="cls-2" x1="28.27" y1="31.43" x2="81.42" y2="31.43"/></g><g id="LINE-105"><line class="cls-2" x1="81.42" y1="71.75" x2="61.59" y2="71.75"/></g><g id="ARC-193"><path class="cls-2" d="m52.24,44.05c-6.97,2.22-10.83,9.66-8.61,16.64,1.3,4.1,4.51,7.31,8.61,8.61"/></g><g id="ARC-194"><path class="cls-2" d="m70.95,69.3c6.97-2.22,10.83-9.66,8.61-16.64-1.3-4.1-4.51-7.31-8.61-8.61"/></g><g id="ARC-195"><path class="cls-2" d="m70.95,44.05c-6.08-1.93-12.62-1.93-18.7,0"/></g><g id="ARC-196"><path class="cls-2" d="m52.24,69.3c6.08,1.93,12.62,1.93,18.7,0"/></g><g id="ARC-197"><path class="cls-2" d="m51.94,70.25c3.12.99,6.38,1.5,9.65,1.5"/></g><g id="ARC-198"><path class="cls-2" d="m42.01,56.68c0,6.2,4.02,11.69,9.93,13.57"/></g><g id="LINE-106"><line class="cls-2" x1="42.01" y1="56.68" x2="42.01" y2="35.9"/></g><g id="ARC-199"><path class="cls-2" d="m50.74,74.04c3.51,1.12,7.17,1.68,10.86,1.68"/></g><g id="LINE-107"><line class="cls-2" x1="29.21" y1="64.59" x2="36.06" y2="64.8"/></g><g id="ARC-200"><path class="cls-2" d="m41.12,67.38c2.43,3.17,5.8,5.49,9.62,6.65"/></g><g id="ARC-201"><path class="cls-2" d="m41.12,67.38c-1.21-1.58-3.07-2.53-5.06-2.59"/></g><g id="ARC-202"><path class="cls-2" d="m27.61,62.94c0,.9.71,1.63,1.61,1.66"/></g><g id="ARC-203"><path class="cls-2" d="m28.27,31.43c-.37,0-.66.3-.66.66"/></g><g id="LINE-108"><line class="cls-2" x1="29.25" y1="33.66" x2="81.42" y2="33.66"/></g><g id="ARC-204"><path class="cls-2" d="m27.61,32.22c.11.82.81,1.44,1.64,1.44"/></g><g id="ARC-205"><path class="cls-2" d="m31.34,31.43s0,0,0,0"/></g><g id="LINE-109"><line class="cls-2" x1="43.67" y1="34.24" x2="81.42" y2="34.24"/></g><g id="ARC-206"><path class="cls-2" d="m43.67,34.24c-.91,0-1.66.74-1.66,1.66"/></g><g id="CIRCLE-25"><circle class="cls-2" cx="61.59" cy="48.4" r="2.48"/></g><g id="CIRCLE-26"><circle class="cls-2" cx="61.59" cy="48.4" r="3.73"/></g><g id="CIRCLE-27"><circle class="cls-2" cx="61.59" cy="37.88" r="1.45"/></g><g id="CIRCLE-28"><circle class="cls-2" cx="69.87" cy="38.96" r="1.24"/></g><g id="CIRCLE-29"><circle class="cls-2" cx="53.32" cy="38.96" r="1.24"/></g><g id="CIRCLE-30"><circle class="cls-2" cx="109.53" cy="38.96" r="1.24"/></g><g id="CIRCLE-31"><circle class="cls-2" cx="92.97" cy="38.96" r="1.24"/></g><g id="CIRCLE-32"><circle class="cls-2" cx="101.25" cy="37.88" r="1.45"/></g><g id="CIRCLE-33"><circle class="cls-2" cx="101.25" cy="48.4" r="3.73"/></g><g id="CIRCLE-34"><circle class="cls-2" cx="101.25" cy="48.4" r="2.48"/></g><g id="ARC-207"><path class="cls-2" d="m120.83,35.9c0-.91-.74-1.66-1.66-1.66"/></g><g id="LINE-110"><line class="cls-2" x1="119.17" y1="34.24" x2="81.42" y2="34.24"/></g><g id="ARC-208"><path class="cls-2" d="m131.51,31.43s0,0,0,0"/></g><g id="ARC-209"><path class="cls-2" d="m133.59,33.66c.83,0,1.53-.62,1.64-1.44"/></g><g id="LINE-111"><line class="cls-2" x1="133.59" y1="33.66" x2="81.42" y2="33.66"/></g><g id="ARC-210"><path class="cls-2" d="m135.24,32.09c0-.37-.3-.66-.66-.66"/></g><g id="ARC-211"><path class="cls-2" d="m133.63,64.59c.89-.03,1.61-.76,1.61-1.66"/></g><g id="ARC-212"><path class="cls-2" d="m126.78,64.8c-1.99.06-3.84,1.01-5.06,2.59"/></g><g id="ARC-213"><path class="cls-2" d="m112.1,74.03c3.82-1.15,7.19-3.48,9.62-6.65"/></g><g id="LINE-112"><line class="cls-2" x1="133.63" y1="64.59" x2="126.78" y2="64.8"/></g><g id="ARC-214"><path class="cls-2" d="m101.25,75.72c3.68,0,7.34-.57,10.86-1.68"/></g><g id="LINE-113"><line class="cls-2" x1="120.83" y1="56.68" x2="120.83" y2="35.9"/></g><g id="ARC-215"><path class="cls-2" d="m110.9,70.25c5.91-1.88,9.93-7.37,9.93-13.57"/></g><g id="ARC-216"><path class="cls-2" d="m101.25,71.75c3.28,0,6.53-.5,9.65-1.5"/></g><g id="ARC-217"><path class="cls-2" d="m91.9,69.3c6.08,1.93,12.62,1.93,18.7,0"/></g><g id="ARC-218"><path class="cls-2" d="m110.6,44.05c-6.08-1.93-12.62-1.93-18.7,0"/></g><g id="ARC-219"><path class="cls-2" d="m91.9,44.05c-6.97,2.22-10.83,9.66-8.61,16.64,1.3,4.1,4.51,7.31,8.61,8.61"/></g><g id="ARC-220"><path class="cls-2" d="m110.6,69.3c6.97-2.22,10.83-9.66,8.61-16.64-1.3-4.1-4.51-7.31-8.61-8.61"/></g><g id="LINE-114"><line class="cls-2" x1="81.42" y1="71.75" x2="101.25" y2="71.75"/></g><g id="LINE-115"><line class="cls-2" x1="134.57" y1="31.43" x2="81.42" y2="31.43"/></g><g id="LINE-116"><line class="cls-2" x1="135.24" y1="62.94" x2="135.24" y2="32.09"/></g><g id="LINE-117"><line class="cls-2" x1="81.42" y1="75.72" x2="101.25" y2="75.72"/></g><g id="LINE-118"><line class="cls-2" x1="29.06" y1="31.43" x2="29.06" y2="30.6"/></g><g id="LINE-119"><line class="cls-2" x1="133.79" y1="30.6" x2="29.06" y2="30.6"/></g><g id="LINE-120"><line class="cls-2" x1="244.16" y1="31.43" x2="244.16" y2="30.6"/></g><g id="LINE-121"><line class="cls-2" x1="191.79" y1="75.72" x2="171.96" y2="75.72"/></g><g id="LINE-122"><line class="cls-2" x1="137.98" y1="62.94" x2="137.98" y2="32.09"/></g><g id="LINE-123"><line class="cls-2" x1="138.64" y1="31.43" x2="191.79" y2="31.43"/></g><g id="LINE-124"><line class="cls-2" x1="191.79" y1="71.75" x2="171.96" y2="71.75"/></g><g id="ARC-221"><path class="cls-2" d="m162.61,44.05c-6.97,2.22-10.83,9.66-8.61,16.64,1.3,4.1,4.51,7.31,8.61,8.61"/></g><g id="ARC-222"><path class="cls-2" d="m181.31,69.3c6.97-2.22,10.83-9.66,8.61-16.64-1.3-4.1-4.51-7.31-8.61-8.61"/></g><g id="ARC-223"><path class="cls-2" d="m181.31,44.05c-6.08-1.93-12.62-1.93-18.7,0"/></g><g id="ARC-224"><path class="cls-2" d="m162.61,69.3c6.08,1.93,12.62,1.93,18.7,0"/></g><g id="ARC-225"><path class="cls-2" d="m162.31,70.25c3.12.99,6.38,1.5,9.65,1.5"/></g><g id="ARC-226"><path class="cls-2" d="m152.38,56.68c0,6.2,4.02,11.69,9.93,13.57"/></g><g id="LINE-125"><line class="cls-2" x1="152.38" y1="56.68" x2="152.38" y2="35.9"/></g><g id="ARC-227"><path class="cls-2" d="m161.11,74.04c3.51,1.12,7.17,1.68,10.86,1.68"/></g><g id="LINE-126"><line class="cls-2" x1="139.58" y1="64.59" x2="146.43" y2="64.8"/></g><g id="ARC-228"><path class="cls-2" d="m151.49,67.38c2.43,3.17,5.8,5.49,9.62,6.65"/></g><g id="ARC-229"><path class="cls-2" d="m151.49,67.38c-1.21-1.58-3.07-2.53-5.06-2.59"/></g><g id="ARC-230"><path class="cls-2" d="m137.98,62.94c0,.9.71,1.63,1.61,1.66"/></g><g id="ARC-231"><path class="cls-2" d="m138.64,31.43c-.37,0-.66.3-.66.66"/></g><g id="LINE-127"><line class="cls-2" x1="139.62" y1="33.66" x2="191.79" y2="33.66"/></g><g id="ARC-232"><path class="cls-2" d="m137.98,32.22c.11.82.81,1.44,1.64,1.44"/></g><g id="ARC-233"><path class="cls-2" d="m141.71,31.43s0,0,0,0"/></g><g id="LINE-128"><line class="cls-2" x1="154.04" y1="34.24" x2="191.79" y2="34.24"/></g><g id="ARC-234"><path class="cls-2" d="m154.04,34.24c-.91,0-1.66.74-1.66,1.66"/></g><g id="CIRCLE-35"><circle class="cls-2" cx="171.96" cy="48.4" r="2.48"/></g><g id="CIRCLE-36"><circle class="cls-2" cx="171.96" cy="48.4" r="3.73"/></g><g id="CIRCLE-37"><circle class="cls-2" cx="171.96" cy="37.88" r="1.45"/></g><g id="CIRCLE-38"><circle class="cls-2" cx="180.24" cy="38.96" r="1.24"/></g><g id="CIRCLE-39"><circle class="cls-2" cx="163.68" cy="38.96" r="1.24"/></g><g id="CIRCLE-40"><circle class="cls-2" cx="219.9" cy="38.96" r="1.24"/></g><g id="CIRCLE-41"><circle class="cls-2" cx="203.34" cy="38.96" r="1.24"/></g><g id="CIRCLE-42"><circle class="cls-2" cx="211.62" cy="37.88" r="1.45"/></g><g id="CIRCLE-43"><circle class="cls-2" cx="211.62" cy="48.4" r="3.73"/></g><g id="CIRCLE-44"><circle class="cls-2" cx="211.62" cy="48.4" r="2.48"/></g><g id="ARC-235"><path class="cls-2" d="m231.2,35.9c0-.91-.74-1.66-1.66-1.66"/></g><g id="LINE-129"><line class="cls-2" x1="229.54" y1="34.24" x2="191.79" y2="34.24"/></g><g id="ARC-236"><path class="cls-2" d="m241.87,31.43s0,0,0,0"/></g><g id="ARC-237"><path class="cls-2" d="m243.96,33.66c.83,0,1.53-.62,1.64-1.44"/></g><g id="LINE-130"><line class="cls-2" x1="243.96" y1="33.66" x2="191.79" y2="33.66"/></g><g id="ARC-238"><path class="cls-2" d="m245.6,32.09c0-.37-.3-.66-.66-.66"/></g><g id="ARC-239"><path class="cls-2" d="m244,64.59c.89-.03,1.61-.76,1.61-1.66"/></g><g id="ARC-240"><path class="cls-2" d="m237.15,64.8c-1.99.06-3.84,1.01-5.06,2.59"/></g><g id="ARC-241"><path class="cls-2" d="m222.47,74.03c3.82-1.15,7.19-3.48,9.62-6.65"/></g><g id="LINE-131"><line class="cls-2" x1="244" y1="64.59" x2="237.15" y2="64.8"/></g><g id="ARC-242"><path class="cls-2" d="m211.62,75.72c3.68,0,7.34-.57,10.86-1.68"/></g><g id="LINE-132"><line class="cls-2" x1="231.2" y1="56.68" x2="231.2" y2="35.9"/></g><g id="ARC-243"><path class="cls-2" d="m221.27,70.25c5.91-1.88,9.93-7.37,9.93-13.57"/></g><g id="ARC-244"><path class="cls-2" d="m211.62,71.75c3.28,0,6.53-.5,9.65-1.5"/></g><g id="ARC-245"><path class="cls-2" d="m202.27,69.3c6.08,1.93,12.62,1.93,18.7,0"/></g><g id="ARC-246"><path class="cls-2" d="m220.97,44.05c-6.08-1.93-12.62-1.93-18.7,0"/></g><g id="ARC-247"><path class="cls-2" d="m202.27,44.05c-6.97,2.22-10.83,9.66-8.61,16.64,1.3,4.1,4.51,7.31,8.61,8.61"/></g><g id="ARC-248"><path class="cls-2" d="m220.97,69.3c6.97-2.22,10.83-9.66,8.61-16.64-1.3-4.1-4.51-7.31-8.61-8.61"/></g><g id="LINE-133"><line class="cls-2" x1="191.79" y1="71.75" x2="211.62" y2="71.75"/></g><g id="LINE-134"><line class="cls-2" x1="244.94" y1="31.43" x2="191.79" y2="31.43"/></g><g id="LINE-135"><line class="cls-2" x1="245.6" y1="62.94" x2="245.6" y2="32.09"/></g><g id="LINE-136"><line class="cls-2" x1="191.79" y1="75.72" x2="211.62" y2="75.72"/></g><g id="LINE-137"><line class="cls-2" x1="139.43" y1="31.43" x2="139.43" y2="30.6"/></g><g id="LINE-138"><line class="cls-2" x1="244.16" y1="30.6" x2="139.43" y2="30.6"/></g><g id="LINE-139"><line class="cls-2" x1="354.74" y1="31.43" x2="354.74" y2="30.6"/></g><g id="LINE-140"><line class="cls-2" x1="302.37" y1="75.72" x2="282.55" y2="75.72"/></g><g id="LINE-141"><line class="cls-2" x1="248.56" y1="62.94" x2="248.56" y2="32.09"/></g><g id="LINE-142"><line class="cls-2" x1="249.22" y1="31.43" x2="302.37" y2="31.43"/></g><g id="LINE-143"><line class="cls-2" x1="302.37" y1="71.75" x2="282.55" y2="71.75"/></g><g id="ARC-249"><path class="cls-2" d="m273.2,44.05c-6.97,2.22-10.83,9.66-8.61,16.64,1.3,4.1,4.51,7.31,8.61,8.61"/></g><g id="ARC-250"><path class="cls-2" d="m291.9,69.3c6.97-2.22,10.83-9.66,8.61-16.64-1.3-4.1-4.51-7.31-8.61-8.61"/></g><g id="ARC-251"><path class="cls-2" d="m291.9,44.05c-6.08-1.93-12.62-1.93-18.7,0"/></g><g id="ARC-252"><path class="cls-2" d="m273.2,69.3c6.08,1.93,12.62,1.93,18.7,0"/></g><g id="ARC-253"><path class="cls-2" d="m272.89,70.25c3.12.99,6.38,1.5,9.65,1.5"/></g><g id="ARC-254"><path class="cls-2" d="m262.97,56.68c0,6.2,4.02,11.69,9.93,13.57"/></g><g id="LINE-144"><line class="cls-2" x1="262.97" y1="56.68" x2="262.97" y2="35.9"/></g><g id="ARC-255"><path class="cls-2" d="m271.69,74.04c3.51,1.12,7.17,1.68,10.86,1.68"/></g><g id="LINE-145"><line class="cls-2" x1="250.17" y1="64.59" x2="257.02" y2="64.8"/></g><g id="ARC-256"><path class="cls-2" d="m262.07,67.38c2.43,3.17,5.8,5.49,9.62,6.65"/></g><g id="ARC-257"><path class="cls-2" d="m262.07,67.38c-1.21-1.58-3.07-2.53-5.06-2.59"/></g><g id="ARC-258"><path class="cls-2" d="m248.56,62.94c0,.9.71,1.63,1.61,1.66"/></g><g id="ARC-259"><path class="cls-2" d="m249.22,31.43c-.37,0-.66.3-.66.66"/></g><g id="LINE-146"><line class="cls-2" x1="250.2" y1="33.66" x2="302.37" y2="33.66"/></g><g id="ARC-260"><path class="cls-2" d="m248.56,32.22c.11.82.81,1.44,1.64,1.44"/></g><g id="ARC-261"><path class="cls-2" d="m252.29,31.43s0,0,0,0"/></g><g id="LINE-147"><line class="cls-2" x1="264.62" y1="34.24" x2="302.37" y2="34.24"/></g><g id="ARC-262"><path class="cls-2" d="m264.62,34.24c-.91,0-1.66.74-1.66,1.66"/></g><g id="CIRCLE-45"><circle class="cls-2" cx="282.55" cy="48.4" r="2.48"/></g><g id="CIRCLE-46"><circle class="cls-2" cx="282.55" cy="48.4" r="3.73"/></g><g id="CIRCLE-47"><circle class="cls-2" cx="282.55" cy="37.88" r="1.45"/></g><g id="CIRCLE-48"><circle class="cls-2" cx="290.83" cy="38.96" r="1.24"/></g><g id="CIRCLE-49"><circle class="cls-2" cx="274.27" cy="38.96" r="1.24"/></g><g id="CIRCLE-50"><circle class="cls-2" cx="330.48" cy="38.96" r="1.24"/></g><g id="CIRCLE-51"><circle class="cls-2" cx="313.92" cy="38.96" r="1.24"/></g><g id="CIRCLE-52"><circle class="cls-2" cx="322.2" cy="37.88" r="1.45"/></g><g id="CIRCLE-53"><circle class="cls-2" cx="322.2" cy="48.4" r="3.73"/></g><g id="CIRCLE-54"><circle class="cls-2" cx="322.2" cy="48.4" r="2.48"/></g><g id="ARC-263"><path class="cls-2" d="m341.78,35.9c0-.91-.74-1.66-1.66-1.66"/></g><g id="LINE-148"><line class="cls-2" x1="340.13" y1="34.24" x2="302.37" y2="34.24"/></g><g id="ARC-264"><path class="cls-2" d="m352.46,31.43s0,0,0,0"/></g><g id="ARC-265"><path class="cls-2" d="m354.55,33.66c.83,0,1.53-.62,1.64-1.44"/></g><g id="LINE-149"><line class="cls-2" x1="354.55" y1="33.66" x2="302.37" y2="33.66"/></g><g id="ARC-266"><path class="cls-2" d="m356.19,32.09c0-.37-.3-.66-.66-.66"/></g><g id="ARC-267"><path class="cls-2" d="m354.58,64.59c.89-.03,1.61-.76,1.61-1.66"/></g><g id="ARC-268"><path class="cls-2" d="m347.73,64.8c-1.99.06-3.84,1.01-5.06,2.59"/></g><g id="ARC-269"><path class="cls-2" d="m333.06,74.03c3.82-1.15,7.19-3.48,9.62-6.65"/></g><g id="LINE-150"><line class="cls-2" x1="354.58" y1="64.59" x2="347.73" y2="64.8"/></g><g id="ARC-270"><path class="cls-2" d="m322.2,75.72c3.68,0,7.34-.57,10.86-1.68"/></g><g id="LINE-151"><line class="cls-2" x1="341.78" y1="56.68" x2="341.78" y2="35.9"/></g><g id="ARC-271"><path class="cls-2" d="m331.85,70.25c5.91-1.88,9.93-7.37,9.93-13.57"/></g><g id="ARC-272"><path class="cls-2" d="m322.2,71.75c3.28,0,6.53-.5,9.65-1.5"/></g><g id="ARC-273"><path class="cls-2" d="m312.85,69.3c6.08,1.93,12.62,1.93,18.7,0"/></g><g id="ARC-274"><path class="cls-2" d="m331.55,44.05c-6.08-1.93-12.62-1.93-18.7,0"/></g><g id="ARC-275"><path class="cls-2" d="m312.85,44.05c-6.97,2.22-10.83,9.66-8.61,16.64,1.3,4.1,4.51,7.31,8.61,8.61"/></g><g id="ARC-276"><path class="cls-2" d="m331.55,69.3c6.97-2.22,10.83-9.66,8.61-16.64-1.3-4.1-4.51-7.31-8.61-8.61"/></g><g id="LINE-152"><line class="cls-2" x1="302.37" y1="71.75" x2="322.2" y2="71.75"/></g><g id="LINE-153"><line class="cls-2" x1="355.53" y1="31.43" x2="302.37" y2="31.43"/></g><g id="LINE-154"><line class="cls-2" x1="356.19" y1="62.94" x2="356.19" y2="32.09"/></g><g id="LINE-155"><line class="cls-2" x1="302.37" y1="75.72" x2="322.2" y2="75.72"/></g><g id="LINE-156"><line class="cls-2" x1="250.01" y1="31.43" x2="250.01" y2="30.6"/></g><g id="LINE-157"><line class="cls-2" x1="354.74" y1="30.6" x2="250.01" y2="30.6"/></g><g id="LWPOLYLINE-7"><rect class="cls-2" x="444.4" y="225.42" width="2.51" height="50.43"/></g><g id="LWPOLYLINE-8"><rect class="cls-2" x="446.91" y="266.2" width="9.21" height="2.27"/></g><g id="LWPOLYLINE-9"><rect class="cls-2" x="446.91" y="233.97" width="9.21" height="2.27"/></g><g id="LWPOLYLINE-10"><rect class="cls-2" x="381.13" y="225.42" width="2.51" height="50.43"/></g><g id="LWPOLYLINE-11"><rect class="cls-2" x="371.92" y="266.2" width="9.21" height="2.27"/></g><g id="LWPOLYLINE-12"><rect class="cls-2" x="371.92" y="233.97" width="9.21" height="2.27"/></g><g id="ARC-277"><path class="cls-2" d="m48.29,352.04c-.49,2.23-.82,4.5-.99,6.78"/></g><g id="ARC-278"><path class="cls-2" d="m47.3,358.82c-.21,5.19,1.46,10.28,4.71,14.33"/></g><g id="ARC-279"><path class="cls-2" d="m51.66,338.1c-1.28,4.61-2.4,9.25-3.36,13.94"/></g><g id="LINE-158"><line class="cls-2" x1="57.82" y1="357.42" x2="57.82" y2="355.76"/></g><g id="ARC-280"><path class="cls-2" d="m57.82,357.42c0,.78.37,1.52.99,1.99"/></g><g id="ARC-281"><path class="cls-2" d="m58.91,354.52c-.63.07-1.1.6-1.1,1.23"/></g><g id="ARC-282"><path class="cls-2" d="m50.81,356.96c-.86,4.2-.19,8.56,1.89,12.3"/></g><g id="ARC-283"><path class="cls-2" d="m63.41,346.5c-1.08-.12-2.16-.12-3.24,0"/></g><g id="ARC-284"><path class="cls-2" d="m52.71,351.61c-.88,1.69-1.51,3.49-1.9,5.36"/></g><g id="LINE-159"><line class="cls-2" x1="43.37" y1="326.54" x2="43.37" y2="332.47"/></g><g id="ARC-285"><path class="cls-2" d="m43.37,332.47c0,2.68,2.01,4.94,4.67,5.26"/></g><g id="ARC-286"><path class="cls-2" d="m46.68,323.23c-1.83,0-3.31,1.48-3.31,3.31"/></g><g id="CIRCLE-55"><circle class="cls-2" cx="61.79" cy="333.33" r="1.12"/></g><g id="CIRCLE-56"><circle class="cls-2" cx="55.17" cy="342.27" r=".62"/></g><g id="ARC-287"><path class="cls-2" d="m48.22,327.28c-1.68.18-2.95,1.6-2.95,3.29"/></g><g id="ARC-288"><path class="cls-2" d="m48.17,327.87c-1.46.16-2.64,1.26-2.9,2.7"/></g><g id="ARC-289"><path class="cls-2" d="m78.31,330.57c-.26-1.44-1.44-2.54-2.9-2.7"/></g><g id="ARC-290"><path class="cls-2" d="m78.31,330.57c0-1.69-1.27-3.11-2.95-3.29"/></g><g id="ARC-291"><path class="cls-2" d="m75.42,327.87c-9.05-1-18.19-1-27.25,0"/></g><g id="ARC-292"><path class="cls-2" d="m75.36,327.28c-9.02-.99-18.12-.99-27.13,0"/></g><g id="CIRCLE-57"><circle class="cls-2" cx="68.41" cy="342.27" r=".62"/></g><g id="CIRCLE-58"><circle class="cls-2" cx="61.79" cy="333.33" r="1.12"/></g><g id="ARC-293"><path class="cls-2" d="m80.21,326.54c0-1.83-1.48-3.31-3.31-3.31"/></g><g id="ARC-294"><path class="cls-2" d="m75.54,337.73c2.67-.32,4.67-2.58,4.67-5.26"/></g><g id="ARC-295"><path class="cls-2" d="m48.04,337.73c9.13,1.09,18.36,1.09,27.5,0"/></g><g id="LINE-160"><line class="cls-2" x1="76.9" y1="323.23" x2="46.68" y2="323.23"/></g><g id="LINE-161"><line class="cls-2" x1="80.21" y1="326.54" x2="80.21" y2="332.47"/></g><g id="ARC-296"><path class="cls-2" d="m72.77,356.96c-.38-1.86-1.02-3.67-1.9-5.36"/></g><g id="ARC-297"><path class="cls-2" d="m70.87,351.61c-1.47-2.84-4.27-4.76-7.46-5.11"/></g><g id="ARC-298"><path class="cls-2" d="m52.71,369.27c2.79,5.02,9.12,6.82,14.14,4.02,1.69-.94,3.08-2.33,4.02-4.02"/></g><g id="ARC-299"><path class="cls-2" d="m70.87,369.27c2.08-3.74,2.76-8.11,1.89-12.3"/></g><g id="ARC-300"><path class="cls-2" d="m65.76,355.76c0-.63-.47-1.16-1.1-1.23"/></g><g id="ARC-301"><path class="cls-2" d="m64.77,359.41c.63-.47.99-1.21.99-1.99"/></g><g id="LINE-162"><line class="cls-2" x1="65.76" y1="357.42" x2="65.76" y2="355.76"/></g><g id="ARC-302"><path class="cls-2" d="m58.81,359.41c1.77,1.32,4.19,1.32,5.96,0"/></g><g id="ARC-303"><path class="cls-2" d="m64.67,354.52c-1.91-.22-3.84-.22-5.75,0"/></g><g id="ARC-304"><path class="cls-2" d="m75.28,352.04c-.96-4.68-2.08-9.33-3.36-13.94"/></g><g id="ARC-305"><path class="cls-2" d="m71.57,373.15c3.25-4.05,4.92-9.14,4.71-14.33"/></g><g id="ARC-306"><path class="cls-2" d="m76.28,358.82c-.17-2.28-.51-4.55-.99-6.78"/></g><g id="ARC-307"><path class="cls-2" d="m52.01,373.15c4.94,5.4,13.32,5.77,18.71.84.29-.27.57-.55.84-.84"/></g><g id="ARC-308"><path class="cls-2" d="m60.17,346.5c-3.18.35-5.98,2.27-7.46,5.11"/></g><g id="ARC-309"><path class="cls-2" d="m117.01,352.04c-.49,2.23-.82,4.5-.99,6.78"/></g><g id="ARC-310"><path class="cls-2" d="m116.02,358.82c-.21,5.19,1.46,10.28,4.71,14.33"/></g><g id="ARC-311"><path class="cls-2" d="m120.37,338.1c-1.28,4.61-2.4,9.25-3.36,13.94"/></g><g id="LINE-163"><line class="cls-2" x1="126.53" y1="357.42" x2="126.53" y2="355.76"/></g><g id="ARC-312"><path class="cls-2" d="m126.53,357.42c0,.78.37,1.52.99,1.99"/></g><g id="ARC-313"><path class="cls-2" d="m127.63,354.52c-.63.07-1.1.6-1.1,1.23"/></g><g id="ARC-314"><path class="cls-2" d="m119.53,356.96c-.86,4.2-.19,8.56,1.89,12.3"/></g><g id="ARC-315"><path class="cls-2" d="m132.13,346.5c-1.08-.12-2.16-.12-3.24,0"/></g><g id="ARC-316"><path class="cls-2" d="m121.43,351.61c-.88,1.69-1.51,3.49-1.9,5.36"/></g><g id="LINE-164"><line class="cls-2" x1="112.08" y1="326.54" x2="112.08" y2="332.47"/></g><g id="ARC-317"><path class="cls-2" d="m112.08,332.47c0,2.68,2.01,4.94,4.67,5.26"/></g><g id="ARC-318"><path class="cls-2" d="m115.4,323.23c-1.83,0-3.31,1.48-3.31,3.31"/></g><g id="CIRCLE-59"><circle class="cls-2" cx="130.51" cy="333.33" r="1.12"/></g><g id="CIRCLE-60"><circle class="cls-2" cx="123.88" cy="342.27" r=".62"/></g><g id="ARC-319"><path class="cls-2" d="m116.94,327.28c-1.68.18-2.95,1.6-2.95,3.29"/></g><g id="ARC-320"><path class="cls-2" d="m116.89,327.87c-1.46.16-2.64,1.26-2.9,2.7"/></g><g id="ARC-321"><path class="cls-2" d="m147.02,330.57c-.26-1.44-1.44-2.54-2.9-2.7"/></g><g id="ARC-322"><path class="cls-2" d="m147.02,330.57c0-1.69-1.27-3.11-2.95-3.29"/></g><g id="ARC-323"><path class="cls-2" d="m144.13,327.87c-9.05-1-18.19-1-27.25,0"/></g><g id="ARC-324"><path class="cls-2" d="m144.07,327.28c-9.02-.99-18.12-.99-27.13,0"/></g><g id="CIRCLE-61"><circle class="cls-2" cx="137.13" cy="342.27" r=".62"/></g><g id="CIRCLE-62"><circle class="cls-2" cx="130.51" cy="333.33" r="1.12"/></g><g id="ARC-325"><path class="cls-2" d="m148.93,326.54c0-1.83-1.48-3.31-3.31-3.31"/></g><g id="ARC-326"><path class="cls-2" d="m144.25,337.73c2.67-.32,4.67-2.58,4.67-5.26"/></g><g id="ARC-327"><path class="cls-2" d="m116.76,337.73c9.13,1.09,18.36,1.09,27.5,0"/></g><g id="LINE-165"><line class="cls-2" x1="145.61" y1="323.23" x2="115.4" y2="323.23"/></g><g id="LINE-166"><line class="cls-2" x1="148.93" y1="326.54" x2="148.93" y2="332.47"/></g><g id="ARC-328"><path class="cls-2" d="m141.48,356.96c-.38-1.86-1.02-3.67-1.9-5.36"/></g><g id="ARC-329"><path class="cls-2" d="m139.58,351.61c-1.47-2.84-4.27-4.76-7.46-5.11"/></g><g id="ARC-330"><path class="cls-2" d="m121.42,369.27c2.79,5.02,9.12,6.82,14.14,4.02,1.69-.94,3.08-2.33,4.02-4.02"/></g><g id="ARC-331"><path class="cls-2" d="m139.59,369.27c2.08-3.74,2.76-8.11,1.89-12.3"/></g><g id="ARC-332"><path class="cls-2" d="m134.48,355.76c0-.63-.47-1.16-1.1-1.23"/></g><g id="ARC-333"><path class="cls-2" d="m133.49,359.41c.63-.47.99-1.21.99-1.99"/></g><g id="LINE-167"><line class="cls-2" x1="134.48" y1="357.42" x2="134.48" y2="355.76"/></g><g id="ARC-334"><path class="cls-2" d="m127.52,359.41c1.77,1.32,4.19,1.32,5.96,0"/></g><g id="ARC-335"><path class="cls-2" d="m133.38,354.52c-1.91-.22-3.84-.22-5.75,0"/></g><g id="ARC-336"><path class="cls-2" d="m144,352.04c-.96-4.68-2.08-9.33-3.36-13.94"/></g><g id="ARC-337"><path class="cls-2" d="m140.28,373.15c3.25-4.05,4.92-9.14,4.71-14.33"/></g><g id="ARC-338"><path class="cls-2" d="m144.99,358.82c-.17-2.28-.51-4.55-.99-6.78"/></g><g id="ARC-339"><path class="cls-2" d="m120.73,373.15c4.94,5.4,13.32,5.77,18.71.84.29-.27.57-.55.84-.84"/></g><g id="ARC-340"><path class="cls-2" d="m128.88,346.5c-3.18.35-5.98,2.27-7.46,5.11"/></g><g id="LINE-168"><line class="cls-4" x1="300.72" y1="319.08" x2="300.72" y2="418.43"/></g><g id="ARC-341"><path class="cls-2" d="m254.44,352.04c-.49,2.23-.82,4.5-.99,6.78"/></g><g id="ARC-342"><path class="cls-2" d="m253.45,358.82c-.21,5.19,1.46,10.28,4.71,14.33"/></g><g id="ARC-343"><path class="cls-2" d="m257.8,338.1c-1.28,4.61-2.4,9.25-3.36,13.94"/></g><g id="LINE-169"><line class="cls-2" x1="263.96" y1="357.42" x2="263.96" y2="355.76"/></g><g id="ARC-344"><path class="cls-2" d="m263.96,357.42c0,.78.37,1.52.99,1.99"/></g><g id="ARC-345"><path class="cls-2" d="m265.06,354.52c-.63.07-1.1.6-1.1,1.23"/></g><g id="ARC-346"><path class="cls-2" d="m256.96,356.96c-.86,4.2-.19,8.56,1.89,12.3"/></g><g id="ARC-347"><path class="cls-2" d="m269.56,346.5c-1.08-.12-2.16-.12-3.24,0"/></g><g id="ARC-348"><path class="cls-2" d="m258.86,351.61c-.88,1.69-1.51,3.49-1.9,5.36"/></g><g id="LINE-170"><line class="cls-2" x1="249.52" y1="326.54" x2="249.52" y2="332.47"/></g><g id="ARC-349"><path class="cls-2" d="m249.52,332.47c0,2.68,2.01,4.94,4.67,5.26"/></g><g id="ARC-350"><path class="cls-2" d="m252.83,323.23c-1.83,0-3.31,1.48-3.31,3.31"/></g><g id="CIRCLE-63"><circle class="cls-2" cx="267.94" cy="333.33" r="1.12"/></g><g id="CIRCLE-64"><circle class="cls-2" cx="261.31" cy="342.27" r=".62"/></g><g id="ARC-351"><path class="cls-2" d="m254.37,327.28c-1.68.18-2.95,1.6-2.95,3.29"/></g><g id="ARC-352"><path class="cls-2" d="m254.32,327.87c-1.46.16-2.64,1.26-2.9,2.7"/></g><g id="ARC-353"><path class="cls-2" d="m284.45,330.57c-.26-1.44-1.44-2.54-2.9-2.7"/></g><g id="ARC-354"><path class="cls-2" d="m284.45,330.57c0-1.69-1.27-3.11-2.95-3.29"/></g><g id="ARC-355"><path class="cls-2" d="m281.57,327.87c-9.05-1-18.19-1-27.25,0"/></g><g id="ARC-356"><path class="cls-2" d="m281.5,327.28c-9.02-.99-18.12-.99-27.13,0"/></g><g id="CIRCLE-65"><circle class="cls-2" cx="274.56" cy="342.27" r=".62"/></g><g id="CIRCLE-66"><circle class="cls-2" cx="267.94" cy="333.33" r="1.12"/></g><g id="ARC-357"><path class="cls-2" d="m286.36,326.54c0-1.83-1.48-3.31-3.31-3.31"/></g><g id="ARC-358"><path class="cls-2" d="m281.69,337.73c2.67-.32,4.67-2.58,4.67-5.26"/></g><g id="ARC-359"><path class="cls-2" d="m254.19,337.73c9.13,1.09,18.36,1.09,27.5,0"/></g><g id="LINE-171"><line class="cls-2" x1="283.05" y1="323.23" x2="252.83" y2="323.23"/></g><g id="LINE-172"><line class="cls-2" x1="286.36" y1="326.54" x2="286.36" y2="332.47"/></g><g id="ARC-360"><path class="cls-2" d="m278.91,356.96c-.38-1.86-1.02-3.67-1.9-5.36"/></g><g id="ARC-361"><path class="cls-2" d="m277.01,351.61c-1.47-2.84-4.27-4.76-7.46-5.11"/></g><g id="ARC-362"><path class="cls-2" d="m258.85,369.27c2.79,5.02,9.12,6.82,14.14,4.02,1.69-.94,3.08-2.33,4.02-4.02"/></g><g id="ARC-363"><path class="cls-2" d="m277.02,369.27c2.08-3.74,2.76-8.11,1.89-12.3"/></g><g id="ARC-364"><path class="cls-2" d="m271.91,355.76c0-.63-.47-1.16-1.1-1.23"/></g><g id="ARC-365"><path class="cls-2" d="m270.92,359.41c.63-.47.99-1.21.99-1.99"/></g><g id="LINE-173"><line class="cls-2" x1="271.91" y1="357.42" x2="271.91" y2="355.76"/></g><g id="ARC-366"><path class="cls-2" d="m264.96,359.41c1.77,1.32,4.19,1.32,5.96,0"/></g><g id="ARC-367"><path class="cls-2" d="m270.81,354.52c-1.91-.22-3.84-.22-5.75,0"/></g><g id="ARC-368"><path class="cls-2" d="m281.43,352.04c-.96-4.68-2.08-9.33-3.36-13.94"/></g><g id="ARC-369"><path class="cls-2" d="m277.71,373.15c3.25-4.05,4.92-9.14,4.71-14.33"/></g><g id="ARC-370"><path class="cls-2" d="m282.42,358.82c-.17-2.28-.51-4.55-.99-6.78"/></g><g id="ARC-371"><path class="cls-2" d="m258.16,373.15c4.94,5.4,13.32,5.77,18.71.84.29-.27.57-.55.84-.84"/></g><g id="ARC-372"><path class="cls-2" d="m266.32,346.5c-3.18.35-5.98,2.27-7.46,5.11"/></g><g id="LINE-174"><line class="cls-4" x1="303.2" y1="319.08" x2="303.2" y2="418.43"/></g><g id="ARC-373"><path class="cls-2" d="m185.73,352.04c-.49,2.23-.82,4.5-.99,6.78"/></g><g id="ARC-374"><path class="cls-2" d="m184.73,358.82c-.21,5.19,1.46,10.28,4.71,14.33"/></g><g id="ARC-375"><path class="cls-2" d="m189.09,338.1c-1.28,4.61-2.4,9.25-3.36,13.94"/></g><g id="LINE-175"><line class="cls-2" x1="195.25" y1="357.42" x2="195.25" y2="355.76"/></g><g id="ARC-376"><path class="cls-2" d="m195.25,357.42c0,.78.37,1.52.99,1.99"/></g><g id="ARC-377"><path class="cls-2" d="m196.34,354.52c-.63.07-1.1.6-1.1,1.23"/></g><g id="ARC-378"><path class="cls-2" d="m188.25,356.96c-.86,4.2-.19,8.56,1.89,12.3"/></g><g id="ARC-379"><path class="cls-2" d="m200.84,346.5c-1.08-.12-2.16-.12-3.24,0"/></g><g id="ARC-380"><path class="cls-2" d="m190.14,351.61c-.88,1.69-1.51,3.49-1.9,5.36"/></g><g id="LINE-176"><line class="cls-2" x1="180.8" y1="326.54" x2="180.8" y2="332.47"/></g><g id="ARC-381"><path class="cls-2" d="m180.8,332.47c0,2.68,2.01,4.94,4.67,5.26"/></g><g id="ARC-382"><path class="cls-2" d="m184.11,323.23c-1.83,0-3.31,1.48-3.31,3.31"/></g><g id="CIRCLE-67"><circle class="cls-2" cx="199.22" cy="333.33" r="1.12"/></g><g id="CIRCLE-68"><circle class="cls-2" cx="192.6" cy="342.27" r=".62"/></g><g id="ARC-383"><path class="cls-2" d="m185.65,327.28c-1.68.18-2.95,1.6-2.95,3.29"/></g><g id="ARC-384"><path class="cls-2" d="m185.6,327.87c-1.46.16-2.64,1.26-2.9,2.7"/></g><g id="ARC-385"><path class="cls-2" d="m215.74,330.57c-.26-1.44-1.44-2.54-2.9-2.7"/></g><g id="ARC-386"><path class="cls-2" d="m215.74,330.57c0-1.69-1.27-3.11-2.95-3.29"/></g><g id="ARC-387"><path class="cls-2" d="m212.85,327.87c-9.05-1-18.19-1-27.25,0"/></g><g id="ARC-388"><path class="cls-2" d="m212.79,327.28c-9.02-.99-18.12-.99-27.13,0"/></g><g id="CIRCLE-69"><circle class="cls-2" cx="205.84" cy="342.27" r=".62"/></g><g id="CIRCLE-70"><circle class="cls-2" cx="199.22" cy="333.33" r="1.12"/></g><g id="ARC-389"><path class="cls-2" d="m217.64,326.54c0-1.83-1.48-3.31-3.31-3.31"/></g><g id="ARC-390"><path class="cls-2" d="m212.97,337.73c2.67-.32,4.67-2.58,4.67-5.26"/></g><g id="ARC-391"><path class="cls-2" d="m185.47,337.73c9.13,1.09,18.36,1.09,27.5,0"/></g><g id="LINE-177"><line class="cls-2" x1="214.33" y1="323.23" x2="184.11" y2="323.23"/></g><g id="LINE-178"><line class="cls-2" x1="217.64" y1="326.54" x2="217.64" y2="332.47"/></g><g id="ARC-392"><path class="cls-2" d="m210.2,356.96c-.38-1.86-1.02-3.67-1.9-5.36"/></g><g id="ARC-393"><path class="cls-2" d="m208.3,351.61c-1.47-2.84-4.27-4.76-7.46-5.11"/></g><g id="ARC-394"><path class="cls-2" d="m190.14,369.27c2.79,5.02,9.12,6.82,14.14,4.02,1.69-.94,3.08-2.33,4.02-4.02"/></g><g id="ARC-395"><path class="cls-2" d="m208.3,369.27c2.08-3.74,2.76-8.11,1.89-12.3"/></g><g id="ARC-396"><path class="cls-2" d="m203.19,355.76c0-.63-.47-1.16-1.1-1.23"/></g><g id="ARC-397"><path class="cls-2" d="m202.2,359.41c.63-.47.99-1.21.99-1.99"/></g><g id="LINE-179"><line class="cls-2" x1="203.19" y1="357.42" x2="203.19" y2="355.76"/></g><g id="ARC-398"><path class="cls-2" d="m196.24,359.41c1.77,1.32,4.19,1.32,5.96,0"/></g><g id="ARC-399"><path class="cls-2" d="m202.1,354.52c-1.91-.22-3.84-.22-5.75,0"/></g><g id="ARC-400"><path class="cls-2" d="m212.72,352.04c-.96-4.68-2.08-9.33-3.36-13.94"/></g><g id="ARC-401"><path class="cls-2" d="m209,373.15c3.25-4.05,4.92-9.14,4.71-14.33"/></g><g id="ARC-402"><path class="cls-2" d="m213.71,358.82c-.17-2.28-.51-4.55-.99-6.78"/></g><g id="ARC-403"><path class="cls-2" d="m189.44,373.15c4.94,5.4,13.32,5.77,18.71.84.29-.27.57-.55.84-.84"/></g><g id="ARC-404"><path class="cls-2" d="m197.6,346.5c-3.18.35-5.98,2.27-7.46,5.11"/></g><g id="ARC-405"><path class="cls-2" d="m323.16,352.04c-.49,2.23-.82,4.5-.99,6.78"/></g><g id="ARC-406"><path class="cls-2" d="m322.16,358.82c-.21,5.19,1.46,10.28,4.71,14.33"/></g><g id="ARC-407"><path class="cls-2" d="m326.52,338.1c-1.28,4.61-2.4,9.25-3.36,13.94"/></g><g id="LINE-180"><line class="cls-2" x1="332.68" y1="357.42" x2="332.68" y2="355.76"/></g><g id="ARC-408"><path class="cls-2" d="m332.68,357.42c0,.78.37,1.52.99,1.99"/></g><g id="ARC-409"><path class="cls-2" d="m333.78,354.52c-.63.07-1.1.6-1.1,1.23"/></g><g id="ARC-410"><path class="cls-2" d="m325.68,356.96c-.86,4.2-.19,8.56,1.89,12.3"/></g><g id="ARC-411"><path class="cls-2" d="m338.27,346.5c-1.08-.12-2.16-.12-3.24,0"/></g><g id="ARC-412"><path class="cls-2" d="m327.57,351.61c-.88,1.69-1.51,3.49-1.9,5.36"/></g><g id="LINE-181"><line class="cls-2" x1="318.23" y1="326.54" x2="318.23" y2="332.47"/></g><g id="ARC-413"><path class="cls-2" d="m318.23,332.47c0,2.68,2.01,4.94,4.67,5.26"/></g><g id="ARC-414"><path class="cls-2" d="m321.54,323.23c-1.83,0-3.31,1.48-3.31,3.31"/></g><g id="CIRCLE-71"><circle class="cls-2" cx="336.65" cy="333.33" r="1.12"/></g><g id="CIRCLE-72"><circle class="cls-2" cx="330.03" cy="342.27" r=".62"/></g><g id="ARC-415"><path class="cls-2" d="m323.09,327.28c-1.68.18-2.95,1.6-2.95,3.29"/></g><g id="ARC-416"><path class="cls-2" d="m323.04,327.87c-1.46.16-2.64,1.26-2.9,2.7"/></g><g id="ARC-417"><path class="cls-2" d="m353.17,330.57c-.26-1.44-1.44-2.54-2.9-2.7"/></g><g id="ARC-418"><path class="cls-2" d="m353.17,330.57c0-1.69-1.27-3.11-2.95-3.29"/></g><g id="ARC-419"><path class="cls-2" d="m350.28,327.87c-9.05-1-18.19-1-27.25,0"/></g><g id="ARC-420"><path class="cls-2" d="m350.22,327.28c-9.02-.99-18.12-.99-27.13,0"/></g><g id="CIRCLE-73"><circle class="cls-2" cx="343.28" cy="342.27" r=".62"/></g><g id="CIRCLE-74"><circle class="cls-2" cx="336.65" cy="333.33" r="1.12"/></g><g id="ARC-421"><path class="cls-2" d="m355.07,326.54c0-1.83-1.48-3.31-3.31-3.31"/></g><g id="ARC-422"><path class="cls-2" d="m350.4,337.73c2.67-.32,4.67-2.58,4.67-5.26"/></g><g id="ARC-423"><path class="cls-2" d="m322.9,337.73c9.13,1.09,18.36,1.09,27.5,0"/></g><g id="LINE-182"><line class="cls-2" x1="351.76" y1="323.23" x2="321.54" y2="323.23"/></g><g id="LINE-183"><line class="cls-2" x1="355.07" y1="326.54" x2="355.07" y2="332.47"/></g><g id="ARC-424"><path class="cls-2" d="m347.63,356.96c-.38-1.86-1.02-3.67-1.9-5.36"/></g><g id="ARC-425"><path class="cls-2" d="m345.73,351.61c-1.47-2.84-4.27-4.76-7.46-5.11"/></g><g id="ARC-426"><path class="cls-2" d="m327.57,369.27c2.79,5.02,9.12,6.82,14.14,4.02,1.69-.94,3.08-2.33,4.02-4.02"/></g><g id="ARC-427"><path class="cls-2" d="m345.73,369.27c2.08-3.74,2.76-8.11,1.89-12.3"/></g><g id="ARC-428"><path class="cls-2" d="m340.63,355.76c0-.63-.47-1.16-1.1-1.23"/></g><g id="ARC-429"><path class="cls-2" d="m339.63,359.41c.63-.47.99-1.21.99-1.99"/></g><g id="LINE-184"><line class="cls-2" x1="340.63" y1="357.42" x2="340.63" y2="355.76"/></g><g id="ARC-430"><path class="cls-2" d="m333.67,359.41c1.77,1.32,4.19,1.32,5.96,0"/></g><g id="ARC-431"><path class="cls-2" d="m339.53,354.52c-1.91-.22-3.84-.22-5.75,0"/></g><g id="ARC-432"><path class="cls-2" d="m350.15,352.04c-.96-4.68-2.08-9.33-3.36-13.94"/></g><g id="ARC-433"><path class="cls-2" d="m346.43,373.15c3.25-4.05,4.92-9.14,4.71-14.33"/></g><g id="ARC-434"><path class="cls-2" d="m351.14,358.82c-.17-2.28-.51-4.55-.99-6.78"/></g><g id="ARC-435"><path class="cls-2" d="m326.88,373.15c4.94,5.4,13.32,5.77,18.71.84.29-.27.57-.55.84-.84"/></g><g id="ARC-436"><path class="cls-2" d="m335.03,346.5c-3.18.35-5.98,2.27-7.46,5.11"/></g><g id="LINE-185"><line class="cls-4" x1="369.44" y1="319.08" x2="369.44" y2="418.43"/></g><g id="LINE-186"><line class="cls-4" x1="371.92" y1="319.08" x2="371.92" y2="418.43"/></g><g id="ARC-437"><path class="cls-2" d="m398.69,352.3c-.49,2.23-.82,4.5-.99,6.78"/></g><g id="ARC-438"><path class="cls-2" d="m397.7,359.09c-.21,5.19,1.46,10.28,4.71,14.33"/></g><g id="ARC-439"><path class="cls-2" d="m402.05,338.37c-1.28,4.61-2.4,9.25-3.36,13.94"/></g><g id="LINE-187"><line class="cls-2" x1="408.21" y1="357.69" x2="408.21" y2="356.02"/></g><g id="ARC-440"><path class="cls-2" d="m408.21,357.69c0,.78.37,1.52.99,1.99"/></g><g id="ARC-441"><path class="cls-2" d="m409.31,354.79c-.63.07-1.1.6-1.1,1.23"/></g><g id="ARC-442"><path class="cls-2" d="m401.21,357.23c-.86,4.2-.19,8.56,1.89,12.3"/></g><g id="ARC-443"><path class="cls-2" d="m413.81,346.76c-1.08-.12-2.16-.12-3.24,0"/></g><g id="ARC-444"><path class="cls-2" d="m403.11,351.87c-.88,1.69-1.51,3.49-1.9,5.36"/></g><g id="LINE-188"><line class="cls-2" x1="393.77" y1="326.81" x2="393.77" y2="332.73"/></g><g id="ARC-445"><path class="cls-2" d="m393.77,332.73c0,2.68,2.01,4.94,4.67,5.26"/></g><g id="ARC-446"><path class="cls-2" d="m397.08,323.49c-1.83,0-3.31,1.48-3.31,3.31"/></g><g id="CIRCLE-75"><circle class="cls-2" cx="412.19" cy="333.59" r="1.12"/></g><g id="CIRCLE-76"><circle class="cls-2" cx="405.57" cy="342.54" r=".62"/></g><g id="ARC-447"><path class="cls-2" d="m398.62,327.55c-1.68.18-2.95,1.6-2.95,3.29"/></g><g id="ARC-448"><path class="cls-2" d="m398.57,328.14c-1.46.16-2.64,1.26-2.9,2.7"/></g><g id="ARC-449"><path class="cls-2" d="m428.7,330.84c-.26-1.44-1.44-2.54-2.9-2.7"/></g><g id="ARC-450"><path class="cls-2" d="m428.7,330.84c0-1.69-1.27-3.11-2.95-3.29"/></g><g id="ARC-451"><path class="cls-2" d="m425.82,328.14c-9.05-1-18.19-1-27.25,0"/></g><g id="ARC-452"><path class="cls-2" d="m425.76,327.55c-9.02-.99-18.12-.99-27.13,0"/></g><g id="CIRCLE-77"><circle class="cls-2" cx="418.81" cy="342.54" r=".62"/></g><g id="CIRCLE-78"><circle class="cls-2" cx="412.19" cy="333.59" r="1.12"/></g><g id="ARC-453"><path class="cls-2" d="m430.61,326.81c0-1.83-1.48-3.31-3.31-3.31"/></g><g id="ARC-454"><path class="cls-2" d="m425.94,337.99c2.67-.32,4.67-2.58,4.67-5.26"/></g><g id="ARC-455"><path class="cls-2" d="m398.44,337.99c9.13,1.09,18.36,1.09,27.5,0"/></g><g id="LINE-189"><line class="cls-2" x1="427.3" y1="323.49" x2="397.08" y2="323.49"/></g><g id="LINE-190"><line class="cls-2" x1="430.61" y1="326.81" x2="430.61" y2="332.73"/></g><g id="ARC-456"><path class="cls-2" d="m423.16,357.23c-.38-1.86-1.02-3.67-1.9-5.36"/></g><g id="ARC-457"><path class="cls-2" d="m421.27,351.87c-1.47-2.84-4.27-4.76-7.46-5.11"/></g><g id="ARC-458"><path class="cls-2" d="m403.11,369.53c2.79,5.02,9.12,6.82,14.14,4.02,1.69-.94,3.08-2.33,4.02-4.02"/></g><g id="ARC-459"><path class="cls-2" d="m421.27,369.53c2.08-3.74,2.76-8.11,1.89-12.3"/></g><g id="ARC-460"><path class="cls-2" d="m416.16,356.02c0-.63-.47-1.16-1.1-1.23"/></g><g id="ARC-461"><path class="cls-2" d="m415.17,359.67c.63-.47.99-1.21.99-1.99"/></g><g id="LINE-191"><line class="cls-2" x1="416.16" y1="357.69" x2="416.16" y2="356.02"/></g><g id="ARC-462"><path class="cls-2" d="m409.21,359.67c1.77,1.32,4.19,1.32,5.96,0"/></g><g id="ARC-463"><path class="cls-2" d="m415.06,354.79c-1.91-.22-3.84-.22-5.75,0"/></g><g id="ARC-464"><path class="cls-2" d="m425.68,352.3c-.96-4.68-2.08-9.33-3.36-13.94"/></g><g id="ARC-465"><path class="cls-2" d="m421.96,373.41c3.25-4.05,4.92-9.14,4.71-14.33"/></g><g id="ARC-466"><path class="cls-2" d="m426.68,359.09c-.17-2.28-.51-4.55-.99-6.78"/></g><g id="ARC-467"><path class="cls-2" d="m402.41,373.41c4.94,5.4,13.32,5.77,18.71.84.29-.27.57-.55.84-.84"/></g><g id="ARC-468"><path class="cls-2" d="m410.57,346.76c-3.18.35-5.98,2.27-7.46,5.11"/></g><g id="LINE-192"><line class="cls-4" x1="456.11" y1="418.43" x2="441.7" y2="418.55"/></g><g id="LINE-193"><line class="cls-4" x1="456.11" y1="415.95" x2="441.7" y2="415.95"/></g><g id="LWPOLYLINE-13"><rect class="cls-2" x="439.23" y="418.55" width="2.48" height="63.49"/></g><g id="LINE-194"><line class="cls-4" x1="441.7" y1="418.55" x2="441.7" y2="415.95"/></g><g id="LINE-195"><line class="cls-4" x1="371.92" y1="418.43" x2="369.44" y2="418.43"/></g><g id="LINE-196"><line class="cls-4" x1="369.44" y1="418.43" x2="358.78" y2="418.43"/></g><g id="LINE-197"><line class="cls-4" x1="369.44" y1="415.95" x2="358.78" y2="415.95"/></g><g id="LINE-198"><line class="cls-4" x1="358.78" y1="418.55" x2="358.78" y2="415.95"/></g><g id="LWPOLYLINE-14"><rect class="cls-2" x="356.29" y="418.55" width="2.48" height="55.45"/></g><g id="LINE-199"><line class="cls-4" x1="303.2" y1="418.43" x2="300.72" y2="418.43"/></g><g id="LINE-200"><line class="cls-4" x1="232" y1="319.08" x2="232" y2="418.43"/></g><g id="LINE-201"><line class="cls-4" x1="234.49" y1="319.08" x2="234.49" y2="418.43"/></g><g id="LINE-202"><line class="cls-4" x1="300.72" y1="415.95" x2="290.06" y2="415.95"/></g><g id="LINE-203"><line class="cls-4" x1="300.72" y1="418.43" x2="290.06" y2="418.43"/></g><g id="LINE-204"><line class="cls-4" x1="290.06" y1="418.55" x2="290.06" y2="415.95"/></g><g id="LWPOLYLINE-15"><rect class="cls-2" x="287.58" y="418.55" width="2.48" height="55.45"/></g><g id="LINE-205"><line class="cls-4" x1="234.49" y1="418.43" x2="232" y2="418.43"/></g><g id="LINE-206"><line class="cls-4" x1="165.77" y1="418.43" x2="163.29" y2="418.43"/></g><g id="LWPOLYLINE-16"><rect class="cls-2" x="218.86" y="418.55" width="2.48" height="55.45"/></g><g id="LINE-207"><line class="cls-4" x1="221.35" y1="418.55" x2="221.35" y2="415.95"/></g><g id="LINE-208"><line class="cls-4" x1="232" y1="418.43" x2="221.35" y2="418.43"/></g><g id="LINE-209"><line class="cls-4" x1="232" y1="415.95" x2="221.35" y2="415.95"/></g><g id="LINE-210"><line class="cls-4" x1="165.77" y1="319.08" x2="165.77" y2="418.43"/></g><g id="LINE-211"><line class="cls-4" x1="163.29" y1="319.08" x2="163.29" y2="418.43"/></g><g id="LINE-212"><line class="cls-4" x1="94.57" y1="319.08" x2="94.57" y2="418.43"/></g><g id="LINE-213"><line class="cls-4" x1="97.06" y1="319.08" x2="97.06" y2="418.43"/></g><g id="LINE-214"><line class="cls-4" x1="97.06" y1="418.43" x2="94.57" y2="418.43"/></g><g id="LINE-215"><line class="cls-4" x1="163.29" y1="415.95" x2="152.63" y2="415.95"/></g><g id="LINE-216"><line class="cls-4" x1="163.29" y1="418.43" x2="152.63" y2="418.43"/></g><g id="LINE-217"><line class="cls-4" x1="152.63" y1="418.55" x2="152.63" y2="415.95"/></g><g id="LWPOLYLINE-17"><rect class="cls-2" x="150.15" y="418.55" width="2.48" height="55.45"/></g><g id="LWPOLYLINE-18"><rect class="cls-2" x="81.43" y="418.55" width="2.48" height="55.45"/></g><g id="LINE-218"><line class="cls-4" x1="83.92" y1="418.55" x2="83.92" y2="415.95"/></g><g id="LINE-219"><line class="cls-4" x1="94.57" y1="418.43" x2="83.92" y2="418.43"/></g><g id="LINE-220"><line class="cls-4" x1="94.57" y1="415.95" x2="83.92" y2="415.95"/></g><g id="LINE-221"><line class="cls-4" x1="28.34" y1="418.43" x2="17.13" y2="418.43"/></g><g id="LINE-222"><line class="cls-4" x1="28.34" y1="415.95" x2="17.63" y2="415.95"/></g><g id="LINE-223"><line class="cls-4" x1="28.34" y1="418.43" x2="28.34" y2="415.95"/></g><g id="LINE-224"><line class="cls-2" x1="133.79" y1="590.18" x2="133.79" y2="591.01"/></g><g id="LINE-225"><line class="cls-2" x1="81.42" y1="545.89" x2="61.59" y2="545.89"/></g><g id="LINE-226"><line class="cls-2" x1="27.61" y1="558.67" x2="27.61" y2="589.52"/></g><g id="LINE-227"><line class="cls-2" x1="28.27" y1="590.18" x2="81.42" y2="590.18"/></g><g id="LINE-228"><line class="cls-2" x1="81.42" y1="549.86" x2="61.59" y2="549.86"/></g><g id="ARC-469"><path class="cls-2" d="m52.24,552.3c-6.97,2.22-10.83,9.66-8.61,16.64,1.3,4.1,4.51,7.31,8.61,8.61"/></g><g id="ARC-470"><path class="cls-2" d="m70.95,577.55c6.97-2.22,10.83-9.66,8.61-16.64-1.3-4.1-4.51-7.31-8.61-8.61"/></g><g id="ARC-471"><path class="cls-2" d="m52.24,577.55c6.08,1.93,12.62,1.93,18.7,0"/></g><g id="ARC-472"><path class="cls-2" d="m70.95,552.3c-6.08-1.93-12.62-1.93-18.7,0"/></g><g id="ARC-473"><path class="cls-2" d="m61.59,549.86c-3.28,0-6.53.5-9.65,1.5"/></g><g id="ARC-474"><path class="cls-2" d="m51.94,551.36c-5.91,1.88-9.93,7.37-9.93,13.57"/></g><g id="LINE-229"><line class="cls-2" x1="42.01" y1="564.93" x2="42.01" y2="585.71"/></g><g id="ARC-475"><path class="cls-2" d="m61.59,545.89c-3.68,0-7.34.57-10.86,1.68"/></g><g id="LINE-230"><line class="cls-2" x1="29.21" y1="557.01" x2="36.06" y2="556.81"/></g><g id="ARC-476"><path class="cls-2" d="m50.74,547.57c-3.82,1.15-7.19,3.48-9.62,6.65"/></g><g id="ARC-477"><path class="cls-2" d="m36.06,556.81c1.99-.06,3.84-1.01,5.06-2.59"/></g><g id="ARC-478"><path class="cls-2" d="m29.21,557.01c-.89.03-1.61.76-1.61,1.66"/></g><g id="ARC-479"><path class="cls-2" d="m27.61,589.52c0,.37.3.66.66.66"/></g><g id="LINE-231"><line class="cls-2" x1="29.25" y1="587.94" x2="81.42" y2="587.94"/></g><g id="ARC-480"><path class="cls-2" d="m29.25,587.94c-.83,0-1.53.62-1.64,1.44"/></g><g id="ARC-481"><path class="cls-2" d="m31.34,590.18s0,0,0,0"/></g><g id="LINE-232"><line class="cls-2" x1="43.67" y1="587.36" x2="81.42" y2="587.36"/></g><g id="ARC-482"><path class="cls-2" d="m42.01,585.71c0,.91.74,1.66,1.66,1.66"/></g><g id="CIRCLE-79"><circle class="cls-2" cx="61.59" cy="573.21" r="2.48"/></g><g id="CIRCLE-80"><circle class="cls-2" cx="61.59" cy="573.21" r="3.73"/></g><g id="CIRCLE-81"><circle class="cls-2" cx="61.59" cy="583.72" r="1.45"/></g><g id="CIRCLE-82"><circle class="cls-2" cx="69.87" cy="582.64" r="1.24"/></g><g id="CIRCLE-83"><circle class="cls-2" cx="53.32" cy="582.64" r="1.24"/></g><g id="CIRCLE-84"><circle class="cls-2" cx="109.53" cy="582.64" r="1.24"/></g><g id="CIRCLE-85"><circle class="cls-2" cx="92.97" cy="582.64" r="1.24"/></g><g id="CIRCLE-86"><circle class="cls-2" cx="101.25" cy="583.72" r="1.45"/></g><g id="CIRCLE-87"><circle class="cls-2" cx="101.25" cy="573.21" r="3.73"/></g><g id="CIRCLE-88"><circle class="cls-2" cx="101.25" cy="573.21" r="2.48"/></g><g id="ARC-483"><path class="cls-2" d="m119.17,587.36c.91,0,1.66-.74,1.66-1.66"/></g><g id="LINE-233"><line class="cls-2" x1="119.17" y1="587.36" x2="81.42" y2="587.36"/></g><g id="ARC-484"><path class="cls-2" d="m131.51,590.18s0,0,0,0"/></g><g id="ARC-485"><path class="cls-2" d="m135.24,589.38c-.11-.82-.81-1.44-1.64-1.44"/></g><g id="LINE-234"><line class="cls-2" x1="133.59" y1="587.94" x2="81.42" y2="587.94"/></g><g id="ARC-486"><path class="cls-2" d="m134.57,590.18c.37,0,.66-.3.66-.66"/></g><g id="ARC-487"><path class="cls-2" d="m135.24,558.67c0-.9-.71-1.63-1.61-1.66"/></g><g id="ARC-488"><path class="cls-2" d="m121.73,554.22c1.21,1.58,3.07,2.53,5.06,2.59"/></g><g id="ARC-489"><path class="cls-2" d="m121.73,554.22c-2.43-3.17-5.8-5.49-9.62-6.65"/></g><g id="LINE-235"><line class="cls-2" x1="133.63" y1="557.01" x2="126.78" y2="556.81"/></g><g id="ARC-490"><path class="cls-2" d="m112.11,547.57c-3.51-1.12-7.17-1.68-10.86-1.68"/></g><g id="LINE-236"><line class="cls-2" x1="120.83" y1="564.93" x2="120.83" y2="585.71"/></g><g id="ARC-491"><path class="cls-2" d="m120.83,564.93c0-6.2-4.02-11.69-9.93-13.57"/></g><g id="ARC-492"><path class="cls-2" d="m110.9,551.36c-3.12-.99-6.38-1.5-9.65-1.5"/></g><g id="ARC-493"><path class="cls-2" d="m110.6,552.3c-6.08-1.93-12.62-1.93-18.7,0"/></g><g id="ARC-494"><path class="cls-2" d="m91.9,577.55c6.08,1.93,12.62,1.93,18.7,0"/></g><g id="ARC-495"><path class="cls-2" d="m91.9,552.3c-6.97,2.22-10.83,9.66-8.61,16.64,1.3,4.1,4.51,7.31,8.61,8.61"/></g><g id="ARC-496"><path class="cls-2" d="m110.6,577.55c6.97-2.22,10.83-9.66,8.61-16.64-1.3-4.1-4.51-7.31-8.61-8.61"/></g><g id="LINE-237"><line class="cls-2" x1="81.42" y1="549.86" x2="101.25" y2="549.86"/></g><g id="LINE-238"><line class="cls-2" x1="134.57" y1="590.18" x2="81.42" y2="590.18"/></g><g id="LINE-239"><line class="cls-2" x1="135.24" y1="558.67" x2="135.24" y2="589.52"/></g><g id="LINE-240"><line class="cls-2" x1="81.42" y1="545.89" x2="101.25" y2="545.89"/></g><g id="LINE-241"><line class="cls-2" x1="29.06" y1="590.18" x2="29.06" y2="591.01"/></g><g id="LINE-242"><line class="cls-2" x1="133.79" y1="591.01" x2="29.06" y2="591.01"/></g><g id="LINE-243"><line class="cls-2" x1="244.16" y1="590.18" x2="244.16" y2="591.01"/></g><g id="LINE-244"><line class="cls-2" x1="191.79" y1="545.89" x2="171.96" y2="545.89"/></g><g id="LINE-245"><line class="cls-2" x1="137.98" y1="558.67" x2="137.98" y2="589.52"/></g><g id="LINE-246"><line class="cls-2" x1="138.64" y1="590.18" x2="191.79" y2="590.18"/></g><g id="LINE-247"><line class="cls-2" x1="191.79" y1="549.86" x2="171.96" y2="549.86"/></g><g id="ARC-497"><path class="cls-2" d="m162.61,552.3c-6.97,2.22-10.83,9.66-8.61,16.64,1.3,4.1,4.51,7.31,8.61,8.61"/></g><g id="ARC-498"><path class="cls-2" d="m181.31,577.55c6.97-2.22,10.83-9.66,8.61-16.64-1.3-4.1-4.51-7.31-8.61-8.61"/></g><g id="ARC-499"><path class="cls-2" d="m162.61,577.55c6.08,1.93,12.62,1.93,18.7,0"/></g><g id="ARC-500"><path class="cls-2" d="m181.31,552.3c-6.08-1.93-12.62-1.93-18.7,0"/></g><g id="ARC-501"><path class="cls-2" d="m171.96,549.86c-3.28,0-6.53.5-9.65,1.5"/></g><g id="ARC-502"><path class="cls-2" d="m162.31,551.36c-5.91,1.88-9.93,7.37-9.93,13.57"/></g><g id="LINE-248"><line class="cls-2" x1="152.38" y1="564.93" x2="152.38" y2="585.71"/></g><g id="ARC-503"><path class="cls-2" d="m171.96,545.89c-3.68,0-7.34.57-10.86,1.68"/></g><g id="LINE-249"><line class="cls-2" x1="139.58" y1="557.01" x2="146.43" y2="556.81"/></g><g id="ARC-504"><path class="cls-2" d="m161.11,547.57c-3.82,1.15-7.19,3.48-9.62,6.65"/></g><g id="ARC-505"><path class="cls-2" d="m146.43,556.81c1.99-.06,3.84-1.01,5.06-2.59"/></g><g id="ARC-506"><path class="cls-2" d="m139.58,557.01c-.89.03-1.61.76-1.61,1.66"/></g><g id="ARC-507"><path class="cls-2" d="m137.98,589.52c0,.37.3.66.66.66"/></g><g id="LINE-250"><line class="cls-2" x1="139.62" y1="587.94" x2="191.79" y2="587.94"/></g><g id="ARC-508"><path class="cls-2" d="m139.62,587.94c-.83,0-1.53.62-1.64,1.44"/></g><g id="ARC-509"><path class="cls-2" d="m141.71,590.18s0,0,0,0"/></g><g id="LINE-251"><line class="cls-2" x1="154.04" y1="587.36" x2="191.79" y2="587.36"/></g><g id="ARC-510"><path class="cls-2" d="m152.38,585.71c0,.91.74,1.66,1.66,1.66"/></g><g id="CIRCLE-89"><circle class="cls-2" cx="171.96" cy="573.21" r="2.48"/></g><g id="CIRCLE-90"><circle class="cls-2" cx="171.96" cy="573.21" r="3.73"/></g><g id="CIRCLE-91"><circle class="cls-2" cx="171.96" cy="583.72" r="1.45"/></g><g id="CIRCLE-92"><circle class="cls-2" cx="180.24" cy="582.64" r="1.24"/></g><g id="CIRCLE-93"><circle class="cls-2" cx="163.68" cy="582.64" r="1.24"/></g><g id="CIRCLE-94"><circle class="cls-2" cx="219.9" cy="582.64" r="1.24"/></g><g id="CIRCLE-95"><circle class="cls-2" cx="203.34" cy="582.64" r="1.24"/></g><g id="CIRCLE-96"><circle class="cls-2" cx="211.62" cy="583.72" r="1.45"/></g><g id="CIRCLE-97"><circle class="cls-2" cx="211.62" cy="573.21" r="3.73"/></g><g id="CIRCLE-98"><circle class="cls-2" cx="211.62" cy="573.21" r="2.48"/></g><g id="ARC-511"><path class="cls-2" d="m229.54,587.36c.91,0,1.66-.74,1.66-1.66"/></g><g id="LINE-252"><line class="cls-2" x1="229.54" y1="587.36" x2="191.79" y2="587.36"/></g><g id="ARC-512"><path class="cls-2" d="m241.87,590.18s0,0,0,0"/></g><g id="ARC-513"><path class="cls-2" d="m245.6,589.38c-.11-.82-.81-1.44-1.64-1.44"/></g><g id="LINE-253"><line class="cls-2" x1="243.96" y1="587.94" x2="191.79" y2="587.94"/></g><g id="ARC-514"><path class="cls-2" d="m244.94,590.18c.37,0,.66-.3.66-.66"/></g><g id="ARC-515"><path class="cls-2" d="m245.6,558.67c0-.9-.71-1.63-1.61-1.66"/></g><g id="ARC-516"><path class="cls-2" d="m232.09,554.22c1.21,1.58,3.07,2.53,5.06,2.59"/></g><g id="ARC-517"><path class="cls-2" d="m232.09,554.22c-2.43-3.17-5.8-5.49-9.62-6.65"/></g><g id="LINE-254"><line class="cls-2" x1="244" y1="557.01" x2="237.15" y2="556.81"/></g><g id="ARC-518"><path class="cls-2" d="m222.47,547.57c-3.51-1.12-7.17-1.68-10.86-1.68"/></g><g id="LINE-255"><line class="cls-2" x1="231.2" y1="564.93" x2="231.2" y2="585.71"/></g><g id="ARC-519"><path class="cls-2" d="m231.2,564.93c0-6.2-4.02-11.69-9.93-13.57"/></g><g id="ARC-520"><path class="cls-2" d="m221.27,551.36c-3.12-.99-6.38-1.5-9.65-1.5"/></g><g id="ARC-521"><path class="cls-2" d="m220.97,552.3c-6.08-1.93-12.62-1.93-18.7,0"/></g><g id="ARC-522"><path class="cls-2" d="m202.27,577.55c6.08,1.93,12.62,1.93,18.7,0"/></g><g id="ARC-523"><path class="cls-2" d="m202.27,552.3c-6.97,2.22-10.83,9.66-8.61,16.64,1.3,4.1,4.51,7.31,8.61,8.61"/></g><g id="ARC-524"><path class="cls-2" d="m220.97,577.55c6.97-2.22,10.83-9.66,8.61-16.64-1.3-4.1-4.51-7.31-8.61-8.61"/></g><g id="LINE-256"><line class="cls-2" x1="191.79" y1="549.86" x2="211.62" y2="549.86"/></g><g id="LINE-257"><line class="cls-2" x1="244.94" y1="590.18" x2="191.79" y2="590.18"/></g><g id="LINE-258"><line class="cls-2" x1="245.6" y1="558.67" x2="245.6" y2="589.52"/></g><g id="LINE-259"><line class="cls-2" x1="191.79" y1="545.89" x2="211.62" y2="545.89"/></g><g id="LINE-260"><line class="cls-2" x1="139.43" y1="590.18" x2="139.43" y2="591.01"/></g><g id="LINE-261"><line class="cls-2" x1="244.16" y1="591.01" x2="139.43" y2="591.01"/></g><g id="LINE-262"><line class="cls-2" x1="354.74" y1="590.18" x2="354.74" y2="591.01"/></g><g id="LINE-263"><line class="cls-2" x1="302.37" y1="545.89" x2="282.55" y2="545.89"/></g><g id="LINE-264"><line class="cls-2" x1="248.56" y1="558.67" x2="248.56" y2="589.52"/></g><g id="LINE-265"><line class="cls-2" x1="249.22" y1="590.18" x2="302.37" y2="590.18"/></g><g id="LINE-266"><line class="cls-2" x1="302.37" y1="549.86" x2="282.55" y2="549.86"/></g><g id="ARC-525"><path class="cls-2" d="m273.2,552.3c-6.97,2.22-10.83,9.66-8.61,16.64,1.3,4.1,4.51,7.31,8.61,8.61"/></g><g id="ARC-526"><path class="cls-2" d="m291.9,577.55c6.97-2.22,10.83-9.66,8.61-16.64-1.3-4.1-4.51-7.31-8.61-8.61"/></g><g id="ARC-527"><path class="cls-2" d="m273.2,577.55c6.08,1.93,12.62,1.93,18.7,0"/></g><g id="ARC-528"><path class="cls-2" d="m291.9,552.3c-6.08-1.93-12.62-1.93-18.7,0"/></g><g id="ARC-529"><path class="cls-2" d="m282.55,549.86c-3.28,0-6.53.5-9.65,1.5"/></g><g id="ARC-530"><path class="cls-2" d="m272.89,551.36c-5.91,1.88-9.93,7.37-9.93,13.57"/></g><g id="LINE-267"><line class="cls-2" x1="262.97" y1="564.93" x2="262.97" y2="585.71"/></g><g id="ARC-531"><path class="cls-2" d="m282.55,545.89c-3.68,0-7.34.57-10.86,1.68"/></g><g id="LINE-268"><line class="cls-2" x1="250.17" y1="557.01" x2="257.02" y2="556.81"/></g><g id="ARC-532"><path class="cls-2" d="m271.69,547.57c-3.82,1.15-7.19,3.48-9.62,6.65"/></g><g id="ARC-533"><path class="cls-2" d="m257.02,556.81c1.99-.06,3.84-1.01,5.06-2.59"/></g><g id="ARC-534"><path class="cls-2" d="m250.17,557.01c-.89.03-1.61.76-1.61,1.66"/></g><g id="ARC-535"><path class="cls-2" d="m248.56,589.52c0,.37.3.66.66.66"/></g><g id="LINE-269"><line class="cls-2" x1="250.2" y1="587.94" x2="302.37" y2="587.94"/></g><g id="ARC-536"><path class="cls-2" d="m250.2,587.94c-.83,0-1.53.62-1.64,1.44"/></g><g id="ARC-537"><path class="cls-2" d="m252.29,590.18s0,0,0,0"/></g><g id="LINE-270"><line class="cls-2" x1="264.62" y1="587.36" x2="302.37" y2="587.36"/></g><g id="ARC-538"><path class="cls-2" d="m262.97,585.71c0,.91.74,1.66,1.66,1.66"/></g><g id="CIRCLE-99"><circle class="cls-2" cx="282.55" cy="573.21" r="2.48"/></g><g id="CIRCLE-100"><circle class="cls-2" cx="282.55" cy="573.21" r="3.73"/></g><g id="CIRCLE-101"><circle class="cls-2" cx="282.55" cy="583.72" r="1.45"/></g><g id="CIRCLE-102"><circle class="cls-2" cx="290.83" cy="582.64" r="1.24"/></g><g id="CIRCLE-103"><circle class="cls-2" cx="274.27" cy="582.64" r="1.24"/></g><g id="CIRCLE-104"><circle class="cls-2" cx="330.48" cy="582.64" r="1.24"/></g><g id="CIRCLE-105"><circle class="cls-2" cx="313.92" cy="582.64" r="1.24"/></g><g id="CIRCLE-106"><circle class="cls-2" cx="322.2" cy="583.72" r="1.45"/></g><g id="CIRCLE-107"><circle class="cls-2" cx="322.2" cy="573.21" r="3.73"/></g><g id="CIRCLE-108"><circle class="cls-2" cx="322.2" cy="573.21" r="2.48"/></g><g id="ARC-539"><path class="cls-2" d="m340.13,587.36c.91,0,1.66-.74,1.66-1.66"/></g><g id="LINE-271"><line class="cls-2" x1="340.13" y1="587.36" x2="302.37" y2="587.36"/></g><g id="ARC-540"><path class="cls-2" d="m352.46,590.18s0,0,0,0"/></g><g id="ARC-541"><path class="cls-2" d="m356.19,589.38c-.11-.82-.81-1.44-1.64-1.44"/></g><g id="LINE-272"><line class="cls-2" x1="354.55" y1="587.94" x2="302.37" y2="587.94"/></g><g id="ARC-542"><path class="cls-2" d="m355.53,590.18c.37,0,.66-.3.66-.66"/></g><g id="ARC-543"><path class="cls-2" d="m356.19,558.67c0-.9-.71-1.63-1.61-1.66"/></g><g id="ARC-544"><path class="cls-2" d="m342.68,554.22c1.21,1.58,3.07,2.53,5.06,2.59"/></g><g id="ARC-545"><path class="cls-2" d="m342.68,554.22c-2.43-3.17-5.8-5.49-9.62-6.65"/></g><g id="LINE-273"><line class="cls-2" x1="354.58" y1="557.01" x2="347.73" y2="556.81"/></g><g id="ARC-546"><path class="cls-2" d="m333.06,547.57c-3.51-1.12-7.17-1.68-10.86-1.68"/></g><g id="LINE-274"><line class="cls-2" x1="341.78" y1="564.93" x2="341.78" y2="585.71"/></g><g id="ARC-547"><path class="cls-2" d="m341.78,564.93c0-6.2-4.02-11.69-9.93-13.57"/></g><g id="ARC-548"><path class="cls-2" d="m331.85,551.36c-3.12-.99-6.38-1.5-9.65-1.5"/></g><g id="ARC-549"><path class="cls-2" d="m331.55,552.3c-6.08-1.93-12.62-1.93-18.7,0"/></g><g id="ARC-550"><path class="cls-2" d="m312.85,577.55c6.08,1.93,12.62,1.93,18.7,0"/></g><g id="ARC-551"><path class="cls-2" d="m312.85,552.3c-6.97,2.22-10.83,9.66-8.61,16.64,1.3,4.1,4.51,7.31,8.61,8.61"/></g><g id="ARC-552"><path class="cls-2" d="m331.55,577.55c6.97-2.22,10.83-9.66,8.61-16.64-1.3-4.1-4.51-7.31-8.61-8.61"/></g><g id="LINE-275"><line class="cls-2" x1="302.37" y1="549.86" x2="322.2" y2="549.86"/></g><g id="LINE-276"><line class="cls-2" x1="355.53" y1="590.18" x2="302.37" y2="590.18"/></g><g id="LINE-277"><line class="cls-2" x1="356.19" y1="558.67" x2="356.19" y2="589.52"/></g><g id="LINE-278"><line class="cls-2" x1="302.37" y1="545.89" x2="322.2" y2="545.89"/></g><g id="LINE-279"><line class="cls-2" x1="250.01" y1="590.18" x2="250.01" y2="591.01"/></g><g id="LINE-280"><line class="cls-2" x1="354.74" y1="591.01" x2="250.01" y2="591.01"/></g><g id="LWPOLYLINE-19"><rect class="cls-2" x="444.4" y="345.75" width="2.51" height="50.43"/></g><g id="LWPOLYLINE-20"><rect class="cls-2" x="446.91" y="353.13" width="9.21" height="2.27"/></g><g id="LWPOLYLINE-21"><rect class="cls-2" x="446.91" y="385.36" width="9.21" height="2.27"/></g><g id="LWPOLYLINE-22"><rect class="cls-2" x="381.13" y="345.75" width="2.51" height="50.43"/></g><g id="LWPOLYLINE-23"><rect class="cls-2" x="371.92" y="353.13" width="9.21" height="2.27"/></g><g id="LWPOLYLINE-24"><rect class="cls-2" x="371.92" y="385.36" width="9.21" height="2.27"/></g><g id="ARC-553"><path class="cls-5" d="m439.23,139.57c-35.64.28-65.02,28.04-67.31,63.61"/></g><g id="ARC-554"><path class="cls-5" d="m356.29,147.6c-29.88.98-53.48,25.68-53.09,55.57"/></g><g id="ARC-555"><path class="cls-5" d="m287.58,147.6c-29.88.98-53.48,25.68-53.09,55.57"/></g><g id="ARC-556"><path class="cls-5" d="m218.86,147.6c-29.88.98-53.48,25.68-53.09,55.57"/></g><g id="ARC-557"><path class="cls-5" d="m150.15,147.6c-29.88.98-53.48,25.68-53.09,55.57"/></g><g id="ARC-558"><path class="cls-5" d="m81.43,147.6c-29.88.98-53.48,25.68-53.09,55.57"/></g><g id="ARC-559"><path class="cls-5" d="m371.92,418.43c2.3,35.57,31.67,63.33,67.31,63.61"/></g><g id="ARC-560"><path class="cls-5" d="m303.2,418.43c-.39,29.89,23.21,54.6,53.09,55.57"/></g><g id="ARC-561"><path class="cls-5" d="m234.49,418.43c-.39,29.89,23.21,54.6,53.09,55.57"/></g><g id="ARC-562"><path class="cls-5" d="m165.77,418.43c-.39,29.89,23.21,54.6,53.09,55.57"/></g><g id="ARC-563"><path class="cls-5" d="m97.06,418.43c-.39,29.89,23.21,54.6,53.09,55.57"/></g><g id="ARC-564"><path class="cls-5" d="m28.34,418.43c-.39,29.89,23.21,54.6,53.09,55.57"/></g><g id="ARC-565"><path class="cls-5" d="m566.53,150.68c-32,2.17-56.87,28.73-56.93,60.8"/></g><g id="ARC-566"><path class="cls-5" d="m509.59,410.12c.06,32.08,24.93,58.64,56.93,60.8"/></g><g id="LINE-281"><line class="cls-3" x1="37.01" y1="302.52" x2="456.11" y2="302.52"/></g><g id="LINE-282"><line class="cls-3" x1="37.01" y1="319.08" x2="456.11" y2="319.08"/></g><g id="LINE-283"><line class="cls-3" x1="17.13" y1="29.32" x2="573.13" y2="29.32"/></g><g id="LINE-284"><line class="cls-3" x1=".57" y1=".57" x2="593.83" y2=".57"/></g><g id="LINE-285"><line class="cls-3" x1="573.13" y1="29.32" x2="573.13" y2="244.57"/></g><g id="LINE-286"><line class="cls-3" x1=".57" y1="616.18" x2="593.83" y2="616.18"/></g><g id="LINE-287"><line class="cls-3" x1=".57" y1=".57" x2=".57" y2="616.18"/></g><g id="LINE-288"><line class="cls-3" x1="472.67" y1="219.73" x2="472.67" y2="401.87"/></g><g id="LINE-289"><line class="cls-3" x1="456.11" y1="203.18" x2="456.11" y2="302.52"/></g><g id="LINE-290"><line class="cls-3" x1="472.67" y1="219.73" x2="506.9" y2="219.73"/></g><g id="LINE-291"><line class="cls-3" x1="456.11" y1="203.18" x2="506.9" y2="203.18"/></g><g id="LINE-292"><line class="cls-3" x1="506.9" y1="203.18" x2="506.9" y2="219.73"/></g><g id="LINE-293"><line class="cls-3" x1="573.13" y1="244.57" x2="593.83" y2="244.57"/></g><g id="LINE-294"><line class="cls-3" x1="17.13" y1="319.08" x2="456.11" y2="319.08"/></g><g id="LINE-295"><line class="cls-3" x1="17.13" y1="302.52" x2="456.11" y2="302.52"/></g><g id="LINE-296"><line class="cls-3" x1="17.13" y1="592.29" x2="573.13" y2="592.29"/></g><g id="LINE-297"><line class="cls-3" x1="573.13" y1="592.29" x2="573.13" y2="377.03"/></g><g id="LINE-298"><line class="cls-3" x1="593.83" y1="616.18" x2="593.83" y2="517.28"/></g><g id="LINE-299"><line class="cls-3" x1="593.83" y1="616.18" x2="593.83" y2="377.03"/></g><g id="LINE-300"><line class="cls-3" x1="593.83" y1="244.57" x2="593.83" y2=".57"/></g><g id="LINE-301"><line class="cls-3" x1="472.67" y1="401.87" x2="472.67" y2="219.73"/></g><g id="LINE-302"><line class="cls-3" x1="456.11" y1="418.43" x2="456.11" y2="319.08"/></g><g id="LINE-303"><line class="cls-3" x1="456.11" y1="418.43" x2="506.9" y2="418.43"/></g><g id="LINE-304"><line class="cls-3" x1="17.13" y1="592.29" x2="17.13" y2="319.08"/></g><g id="LINE-305"><line class="cls-3" x1="17.13" y1="302.52" x2="17.13" y2="29.32"/></g><g id="LINE-306"><line class="cls-3" x1="472.67" y1="401.87" x2="506.9" y2="401.87"/></g><g id="LINE-307"><line class="cls-3" x1="506.9" y1="418.43" x2="506.9" y2="401.87"/></g><g id="LINE-308"><line class="cls-3" x1="573.13" y1="377.03" x2="593.83" y2="377.03"/></g></svg>