<?xml version="1.0" encoding="UTF-8"?><svg id="PROIEZIONI_finissime_-_fine_lines" xmlns="http://www.w3.org/2000/svg" width="289" height="246.14" viewBox="0 0 289 246.14"><defs><style>.cls-1{stroke-dasharray:0 0 0 0 7.92 3.96 0 3.96;stroke-width:.37px;}.cls-1,.cls-2,.cls-3,.cls-4,.cls-5{fill:none;stroke:#000;stroke-linecap:round;stroke-linejoin:round;}.cls-2{stroke-width:1.13px;}.cls-3{stroke-width:.71px;}.cls-4{stroke-width:.14px;}.cls-5{stroke-width:.26px;}</style></defs><g id="LINE"><line class="cls-4" x1="73.65" y1="74.93" x2="73.61" y2="73.6"/></g><g id="LINE-2"><line class="cls-4" x1="92.31" y1="73.6" x2="73.61" y2="73.6"/></g><g id="LINE-3"><line class="cls-4" x1="92.31" y1="74.93" x2="73.65" y2="74.93"/></g><g id="LINE-4"><line class="cls-4" x1="67.44" y1="223.69" x2="67.37" y2="225.48"/></g><g id="LINE-5"><line class="cls-4" x1="92.31" y1="225.48" x2="67.37" y2="225.48"/></g><g id="LINE-6"><line class="cls-4" x1="92.31" y1="223.69" x2="67.44" y2="223.69"/></g><g id="LINE-7"><line class="cls-4" x1="92.31" y1="223.69" x2="92.31" y2="225.48"/></g><g id="LINE-8"><line class="cls-4" x1="73.65" y1="168.46" x2="73.61" y2="167.12"/></g><g id="LINE-9"><line class="cls-4" x1="92.31" y1="167.12" x2="73.61" y2="167.12"/></g><g id="LINE-10"><line class="cls-4" x1="92.31" y1="168.46" x2="73.65" y2="168.46"/></g><g id="LINE-11"><line class="cls-4" x1="92.31" y1="168.46" x2="92.31" y2="167.12"/></g><g id="LINE-12"><line class="cls-4" x1="73.65" y1="137.28" x2="73.61" y2="135.95"/></g><g id="LINE-13"><line class="cls-4" x1="92.31" y1="135.95" x2="73.61" y2="135.95"/></g><g id="LINE-14"><line class="cls-4" x1="92.31" y1="137.28" x2="73.65" y2="137.28"/></g><g id="LINE-15"><line class="cls-4" x1="92.31" y1="137.28" x2="92.31" y2="135.95"/></g><g id="LINE-16"><line class="cls-4" x1="73.65" y1="106.11" x2="73.61" y2="104.77"/></g><g id="LINE-17"><line class="cls-4" x1="92.31" y1="104.77" x2="73.61" y2="104.77"/></g><g id="LINE-18"><line class="cls-4" x1="92.31" y1="106.11" x2="73.65" y2="106.11"/></g><g id="LINE-19"><line class="cls-4" x1="92.31" y1="106.11" x2="92.31" y2="104.77"/></g><g id="LINE-20"><line class="cls-4" x1="207.61" y1="74.93" x2="207.66" y2="73.6"/></g><g id="LINE-21"><line class="cls-4" x1="188.95" y1="73.6" x2="207.66" y2="73.6"/></g><g id="LINE-22"><line class="cls-4" x1="188.95" y1="74.93" x2="207.61" y2="74.93"/></g><g id="LINE-23"><line class="cls-4" x1="188.95" y1="74.93" x2="188.95" y2="73.6"/></g><g id="LINE-24"><line class="cls-4" x1="207.61" y1="43.76" x2="207.66" y2="42.42"/></g><g id="LINE-25"><line class="cls-4" x1="188.95" y1="42.42" x2="207.66" y2="42.42"/></g><g id="LINE-26"><line class="cls-4" x1="188.95" y1="43.76" x2="207.61" y2="43.76"/></g><g id="LINE-27"><line class="cls-4" x1="188.95" y1="43.76" x2="188.95" y2="42.42"/></g><g id="LINE-28"><line class="cls-4" x1="213.83" y1="223.69" x2="213.89" y2="225.48"/></g><g id="LINE-29"><line class="cls-4" x1="188.95" y1="225.48" x2="213.89" y2="225.48"/></g><g id="LINE-30"><line class="cls-4" x1="188.95" y1="223.69" x2="213.83" y2="223.69"/></g><g id="LINE-31"><line class="cls-4" x1="188.95" y1="223.69" x2="188.95" y2="225.48"/></g><g id="LINE-32"><line class="cls-4" x1="207.61" y1="137.28" x2="207.66" y2="135.95"/></g><g id="LINE-33"><line class="cls-4" x1="188.95" y1="135.95" x2="207.66" y2="135.95"/></g><g id="LINE-34"><line class="cls-4" x1="188.95" y1="137.28" x2="207.61" y2="137.28"/></g><g id="LINE-35"><line class="cls-4" x1="188.95" y1="137.28" x2="188.95" y2="135.95"/></g><g id="LINE-36"><line class="cls-4" x1="207.61" y1="168.46" x2="207.66" y2="167.12"/></g><g id="LINE-37"><line class="cls-4" x1="188.95" y1="167.12" x2="207.66" y2="167.12"/></g><g id="LINE-38"><line class="cls-4" x1="188.95" y1="168.46" x2="207.61" y2="168.46"/></g><g id="LINE-39"><line class="cls-4" x1="188.95" y1="168.46" x2="188.95" y2="167.12"/></g><g id="LINE-40"><line class="cls-4" x1="207.61" y1="106.11" x2="207.66" y2="104.77"/></g><g id="LINE-41"><line class="cls-4" x1="188.95" y1="104.77" x2="207.66" y2="104.77"/></g><g id="LINE-42"><line class="cls-4" x1="188.95" y1="106.11" x2="207.61" y2="106.11"/></g><g id="LINE-43"><line class="cls-4" x1="188.95" y1="106.11" x2="188.95" y2="104.77"/></g><g id="LINE-44"><line class="cls-4" x1="73.65" y1="43.76" x2="73.61" y2="42.42"/></g><g id="LINE-45"><line class="cls-4" x1="92.31" y1="42.42" x2="73.61" y2="42.42"/></g><g id="LINE-46"><line class="cls-4" x1="92.31" y1="43.76" x2="73.65" y2="43.76"/></g><g id="LINE-47"><line class="cls-4" x1="92.31" y1="43.76" x2="92.31" y2="42.42"/></g><g id="LWPOLYLINE"><rect class="cls-4" x="13.38" y="201.06" width="1.25" height="31.49"/></g><g id="LWPOLYLINE-2"><rect class="cls-4" x="44.86" y="232.55" width="1.56" height="3.09"/></g><g id="LWPOLYLINE-3"><rect class="cls-4" x="11.82" y="232.55" width="1.56" height="3.09"/></g><g id="LWPOLYLINE-4"><rect class="cls-4" x="266.64" y="201.06" width="1.25" height="31.49"/></g><g id="LWPOLYLINE-5"><rect class="cls-4" x="234.84" y="232.55" width="1.56" height="3.09"/></g><g id="LWPOLYLINE-6"><rect class="cls-4" x="267.89" y="232.55" width="1.56" height="3.09"/></g><g id="LINE-48"><line class="cls-4" x1="92.31" y1="74.93" x2="92.31" y2="73.6"/></g><g id="ARC"><path class="cls-5" d="m73.65,74.93c.7,9.79,8.85,17.37,18.66,17.37"/></g><g id="ARC-2"><path class="cls-5" d="m92.31,200.54c-13.08,0-23.94,10.11-24.88,23.16"/></g><g id="ARC-3"><path class="cls-5" d="m73.65,168.46c.7,9.79,8.85,17.37,18.66,17.37"/></g><g id="ARC-4"><path class="cls-5" d="m73.65,137.28c.7,9.79,8.85,17.37,18.66,17.37"/></g><g id="ARC-5"><path class="cls-5" d="m73.65,106.11c.7,9.79,8.85,17.37,18.66,17.37"/></g><g id="ARC-6"><path class="cls-5" d="m188.95,92.3c9.81,0,17.96-7.58,18.66-17.37"/></g><g id="ARC-7"><path class="cls-5" d="m188.95,61.13c9.81,0,17.96-7.58,18.66-17.37"/></g><g id="ARC-8"><path class="cls-5" d="m213.83,223.69c-.93-13.05-11.79-23.16-24.88-23.16"/></g><g id="ARC-9"><path class="cls-5" d="m188.95,154.65c9.81,0,17.96-7.58,18.66-17.37"/></g><g id="ARC-10"><path class="cls-5" d="m188.95,185.83c9.81,0,17.96-7.58,18.66-17.37"/></g><g id="ARC-11"><path class="cls-5" d="m188.95,123.48c9.81,0,17.96-7.58,18.66-17.37"/></g><g id="ARC-12"><path class="cls-5" d="m73.65,43.76c.7,9.79,8.85,17.37,18.66,17.37"/></g><g id="ARC-13"><path class="cls-5" d="m13.38,201.06c17.39,0,31.49,14.1,31.49,31.49"/></g><g id="ARC-14"><path class="cls-5" d="m236.4,232.55c0-17.39,14.1-31.49,31.49-31.49"/></g><g id="ARC-15"><path class="cls-5" d="m167.47,13.81c.11,0,.22.02.32.02"/></g><g id="ARC-16"><path class="cls-5" d="m164.9,17.8c.16.73.59,1.39,1.19,1.83"/></g><g id="ARC-17"><path class="cls-5" d="m164.9,15.53c-.11.32-.16.66-.15,1.01"/></g><g id="ARC-18"><path class="cls-5" d="m164.75,16.53c0,.43.06.85.15,1.27"/></g><g id="ARC-19"><path class="cls-5" d="m167.47,13.81c-1.15-.09-2.21.62-2.57,1.72"/></g><g id="ARC-20"><path class="cls-5" d="m171.75,15.53c-.36-1.1-1.42-1.81-2.57-1.72"/></g><g id="ARC-21"><path class="cls-5" d="m168.86,13.83c.11,0,.22-.01.32-.02"/></g><g id="ARC-22"><path class="cls-5" d="m170.64,13.35c-.58-.16-1.19-.18-1.79-.05"/></g><g id="LINE-49"><line class="cls-5" x1="167.8" y1="13.3" x2="168.86" y2="13.3"/></g><g id="ARC-23"><path class="cls-5" d="m167.76,13.29c-.58-.12-1.18-.1-1.75.06"/></g><g id="ARC-24"><path class="cls-5" d="m167.76,13.29s.02,0,.04,0"/></g><g id="ARC-25"><path class="cls-5" d="m172.97,16.43c.47-1.2-.12-2.56-1.33-3.03-.14-.06-.29-.1-.44-.12"/></g><g id="ARC-26"><path class="cls-5" d="m165.45,13.27c-1.27.23-2.12,1.45-1.89,2.72.03.15.07.3.12.44"/></g><g id="ARC-27"><path class="cls-5" d="m171.21,13.27c-.95-.17-1.92-.26-2.88-.26"/></g><g id="ARC-28"><path class="cls-5" d="m166.01,13.35c-.86.24-1.51.95-1.68,1.83"/></g><g id="ARC-29"><path class="cls-5" d="m163.68,16.43c.44,1.12,1.14,2.11,2.04,2.9"/></g><g id="ARC-30"><path class="cls-5" d="m164.33,15.18c-.32,1.72.39,3.47,1.81,4.49"/></g><g id="ARC-31"><path class="cls-5" d="m170.57,19.63c.6-.45,1.03-1.1,1.19-1.83"/></g><g id="ARC-32"><path class="cls-5" d="m171.9,16.53c0-.34-.05-.68-.15-1.01"/></g><g id="ARC-33"><path class="cls-5" d="m171.76,17.8c.09-.42.14-.84.15-1.27"/></g><g id="ARC-34"><path class="cls-5" d="m168.33,15.36c-.43,0-.78.35-.78.78s.35.78.78.78"/></g><g id="ARC-35"><path class="cls-5" d="m168.33,15.12c-.56,0-1.01.45-1.01,1.01s.45,1.01,1.01,1.01"/></g><g id="ARC-36"><path class="cls-5" d="m164.96,19.8c.88.91,2.1,1.43,3.36,1.43"/></g><g id="ARC-37"><path class="cls-5" d="m163.06,16.91c.45,1.07,1.1,2.05,1.91,2.89"/></g><g id="ARC-38"><path class="cls-5" d="m170.93,19.33c.9-.79,1.6-1.79,2.04-2.9"/></g><g id="ARC-39"><path class="cls-5" d="m172.32,15.18c-.16-.88-.81-1.59-1.68-1.83"/></g><g id="ARC-40"><path class="cls-5" d="m170.51,19.67c1.42-1.02,2.13-2.77,1.81-4.49"/></g><g id="ARC-41"><path class="cls-5" d="m171.69,19.8c.81-.84,1.46-1.82,1.91-2.89"/></g><g id="ARC-42"><path class="cls-5" d="m168.33,21.23c1.27,0,2.48-.51,3.36-1.43"/></g><g id="ARC-43"><path class="cls-5" d="m168.33,17.15c.56,0,1.01-.45,1.01-1.01s-.45-1.01-1.01-1.01"/></g><g id="ARC-44"><path class="cls-5" d="m168.33,16.92c.43,0,.78-.35.78-.78s-.35-.78-.78-.78"/></g><g id="LINE-50"><line class="cls-5" x1="162.08" y1="12.08" x2="168.33" y2="12.08"/></g><g id="ARC-45"><path class="cls-5" d="m162.08,12.08c0,1.66.33,3.3.97,4.83"/></g><g id="ARC-46"><path class="cls-5" d="m173.6,16.91c.64-1.53.97-3.17.97-4.83"/></g><g id="LINE-51"><line class="cls-5" x1="174.57" y1="12.08" x2="168.33" y2="12.08"/></g><g id="LINE-52"><line class="cls-5" x1="167.8" y1="13.92" x2="168.86" y2="13.92"/></g><g id="LINE-53"><line class="cls-5" x1="167.8" y1="13.92" x2="167.8" y2="13.3"/></g><g id="LINE-54"><line class="cls-5" x1="168.86" y1="13.92" x2="168.86" y2="13.3"/></g><g id="ARC-47"><path class="cls-5" d="m168.33,13.02c-.97,0-1.93.09-2.88.26"/></g><g id="ARC-48"><path class="cls-5" d="m149.45,80.81c-.71,1.8-1.08,3.72-1.11,5.66"/></g><g id="ARC-49"><path class="cls-5" d="m145.81,86.47c0,.7.57,1.26,1.26,1.26s1.26-.57,1.26-1.26"/></g><g id="ARC-50"><path class="cls-5" d="m147.11,80.51c-.86,1.87-1.3,3.9-1.3,5.96"/></g><g id="ARC-51"><path class="cls-5" d="m146.99,80.61c-1.67,3.72-1.67,7.98,0,11.71"/></g><g id="ARC-52"><path class="cls-5" d="m147.5,80.2c-.18,0-.34.12-.39.3"/></g><g id="LINE-55"><line class="cls-5" x1="147.5" y1="80.2" x2="149.1" y2="80.2"/></g><g id="ARC-53"><path class="cls-5" d="m149.45,80.81c.11-.19.05-.44-.15-.55-.06-.04-.13-.05-.2-.05"/></g><g id="CIRCLE"><circle class="cls-5" cx="147.07" cy="86.47" r=".62"/></g><g id="LINE-56"><line class="cls-5" x1="143.95" y1="82.69" x2="143.95" y2="90.24"/></g><g id="ARC-54"><path class="cls-5" d="m145.82,80.82c-1.03,0-1.87.84-1.87,1.87"/></g><g id="LINE-57"><line class="cls-5" x1="145.82" y1="80.82" x2="146.6" y2="80.82"/></g><g id="ARC-55"><path class="cls-5" d="m146.6,80.82c.21,0,.39-.14.45-.34"/></g><g id="ARC-56"><path class="cls-5" d="m147.5,80.14c-.21,0-.39.14-.45.34"/></g><g id="LINE-58"><line class="cls-5" x1="147.5" y1="80.14" x2="149.1" y2="80.14"/></g><g id="ARC-57"><path class="cls-5" d="m149.56,80.6c0-.26-.21-.47-.47-.47"/></g><g id="LINE-59"><line class="cls-5" x1="149.56" y1="80.6" x2="149.56" y2="92.33"/></g><g id="ARC-58"><path class="cls-5" d="m143.95,90.24c0,1.03.84,1.87,1.87,1.87"/></g><g id="ARC-59"><path class="cls-5" d="m147.05,92.45c.06.2.24.34.45.34"/></g><g id="ARC-60"><path class="cls-5" d="m147.05,92.45c-.06-.2-.24-.34-.45-.34"/></g><g id="LINE-60"><line class="cls-5" x1="145.82" y1="92.11" x2="146.6" y2="92.11"/></g><g id="LINE-61"><line class="cls-5" x1="147.5" y1="92.79" x2="149.1" y2="92.79"/></g><g id="ARC-61"><path class="cls-5" d="m150.94,92.54c.17,0,.31-.14.31-.31"/></g><g id="ARC-62"><path class="cls-5" d="m150.84,92.54c.17,0,.31-.14.31-.31"/></g><g id="ARC-63"><path class="cls-5" d="m151.15,80.7c0-.17-.14-.31-.31-.31"/></g><g id="ARC-64"><path class="cls-5" d="m151.25,80.7c0-.17-.14-.31-.31-.31"/></g><g id="LINE-62"><line class="cls-5" x1="159.41" y1="80.39" x2="149.51" y2="80.39"/></g><g id="LINE-63"><line class="cls-5" x1="151.25" y1="92.23" x2="151.25" y2="80.7"/></g><g id="LINE-64"><line class="cls-5" x1="151.15" y1="92.23" x2="151.15" y2="80.7"/></g><g id="ARC-65"><path class="cls-5" d="m156.24,84.91c-.24,0-.44.18-.46.41"/></g><g id="ARC-66"><path class="cls-5" d="m155.78,87.61c.03.23.23.41.46.41"/></g><g id="ARC-67"><path class="cls-5" d="m156.64,88.02c.86,0,1.56-.7,1.56-1.56s-.7-1.56-1.56-1.56"/></g><g id="LINE-65"><line class="cls-5" x1="156.24" y1="84.91" x2="156.64" y2="84.91"/></g><g id="LINE-66"><line class="cls-5" x1="156.24" y1="88.02" x2="156.64" y2="88.02"/></g><g id="ARC-68"><path class="cls-5" d="m155.78,85.32c-.09.76-.09,1.53,0,2.3"/></g><g id="ARC-69"><path class="cls-5" d="m153.21,89.34c.04.83.72,1.49,1.56,1.49"/></g><g id="ARC-70"><path class="cls-5" d="m154.77,82.1c-.83,0-1.52.65-1.56,1.49"/></g><g id="ARC-71"><path class="cls-5" d="m153.21,83.59c-.09,1.92-.09,3.84,0,5.76"/></g><g id="LINE-67"><line class="cls-5" x1="159.41" y1="90.83" x2="154.77" y2="90.83"/></g><g id="LINE-68"><line class="cls-5" x1="159.41" y1="82.1" x2="154.77" y2="82.1"/></g><g id="ARC-72"><path class="cls-5" d="m159.41,90.83c2.41,0,4.36-1.95,4.36-4.36s-1.95-4.36-4.36-4.36h0"/></g><g id="ARC-73"><path class="cls-5" d="m159.41,92.54c3.36,0,6.08-2.72,6.08-6.08s-2.72-6.08-6.08-6.08h0"/></g><g id="LINE-69"><line class="cls-5" x1="159.41" y1="92.54" x2="149.51" y2="92.54"/></g><g id="ARC-74"><path class="cls-5" d="m149.1,92.79c.26,0,.47-.21.47-.47"/></g><g id="ARC-75"><path class="cls-5" d="m149.45,49.63c-.71,1.8-1.08,3.72-1.11,5.66"/></g><g id="ARC-76"><path class="cls-5" d="m145.81,55.29c0,.7.57,1.26,1.26,1.26s1.26-.57,1.26-1.26"/></g><g id="ARC-77"><path class="cls-5" d="m147.11,49.33c-.86,1.87-1.3,3.9-1.3,5.96"/></g><g id="ARC-78"><path class="cls-5" d="m146.99,49.44c-1.67,3.72-1.67,7.98,0,11.71"/></g><g id="ARC-79"><path class="cls-5" d="m147.5,49.02c-.18,0-.34.12-.39.3"/></g><g id="LINE-70"><line class="cls-5" x1="147.5" y1="49.02" x2="149.1" y2="49.02"/></g><g id="ARC-80"><path class="cls-5" d="m149.45,49.63c.11-.19.05-.44-.15-.55-.06-.04-.13-.05-.2-.05"/></g><g id="CIRCLE-2"><circle class="cls-5" cx="147.07" cy="55.29" r=".62"/></g><g id="LINE-71"><line class="cls-5" x1="143.95" y1="51.52" x2="143.95" y2="59.06"/></g><g id="ARC-81"><path class="cls-5" d="m145.82,49.65c-1.03,0-1.87.84-1.87,1.87"/></g><g id="LINE-72"><line class="cls-5" x1="145.82" y1="49.65" x2="146.6" y2="49.65"/></g><g id="ARC-82"><path class="cls-5" d="m146.6,49.65c.21,0,.39-.14.45-.34"/></g><g id="ARC-83"><path class="cls-5" d="m147.5,48.96c-.21,0-.39.14-.45.34"/></g><g id="LINE-73"><line class="cls-5" x1="147.5" y1="48.96" x2="149.1" y2="48.96"/></g><g id="ARC-84"><path class="cls-5" d="m149.56,49.43c0-.26-.21-.47-.47-.47"/></g><g id="LINE-74"><line class="cls-5" x1="149.56" y1="49.43" x2="149.56" y2="61.15"/></g><g id="ARC-85"><path class="cls-5" d="m143.95,59.06c0,1.03.84,1.87,1.87,1.87"/></g><g id="ARC-86"><path class="cls-5" d="m147.05,61.28c.06.2.24.34.45.34"/></g><g id="ARC-87"><path class="cls-5" d="m147.05,61.28c-.06-.2-.24-.34-.45-.34"/></g><g id="LINE-75"><line class="cls-5" x1="145.82" y1="60.93" x2="146.6" y2="60.93"/></g><g id="LINE-76"><line class="cls-5" x1="147.5" y1="61.62" x2="149.1" y2="61.62"/></g><g id="ARC-88"><path class="cls-5" d="m150.94,61.37c.17,0,.31-.14.31-.31"/></g><g id="ARC-89"><path class="cls-5" d="m150.84,61.37c.17,0,.31-.14.31-.31"/></g><g id="ARC-90"><path class="cls-5" d="m151.15,49.52c0-.17-.14-.31-.31-.31"/></g><g id="ARC-91"><path class="cls-5" d="m151.25,49.52c0-.17-.14-.31-.31-.31"/></g><g id="LINE-77"><line class="cls-5" x1="159.41" y1="49.21" x2="149.51" y2="49.21"/></g><g id="LINE-78"><line class="cls-5" x1="151.25" y1="61.06" x2="151.25" y2="49.52"/></g><g id="LINE-79"><line class="cls-5" x1="151.15" y1="61.06" x2="151.15" y2="49.52"/></g><g id="ARC-92"><path class="cls-5" d="m156.24,53.73c-.24,0-.44.18-.46.41"/></g><g id="ARC-93"><path class="cls-5" d="m155.78,56.44c.03.23.23.41.46.41"/></g><g id="ARC-94"><path class="cls-5" d="m156.64,56.85c.86,0,1.56-.7,1.56-1.56s-.7-1.56-1.56-1.56"/></g><g id="LINE-80"><line class="cls-5" x1="156.24" y1="53.73" x2="156.64" y2="53.73"/></g><g id="LINE-81"><line class="cls-5" x1="156.24" y1="56.85" x2="156.64" y2="56.85"/></g><g id="ARC-95"><path class="cls-5" d="m155.78,54.14c-.09.76-.09,1.53,0,2.3"/></g><g id="ARC-96"><path class="cls-5" d="m153.21,58.17c.04.83.72,1.49,1.56,1.49"/></g><g id="ARC-97"><path class="cls-5" d="m154.77,50.93c-.83,0-1.52.65-1.56,1.49"/></g><g id="ARC-98"><path class="cls-5" d="m153.21,52.41c-.09,1.92-.09,3.84,0,5.76"/></g><g id="LINE-82"><line class="cls-5" x1="159.41" y1="59.65" x2="154.77" y2="59.65"/></g><g id="LINE-83"><line class="cls-5" x1="159.41" y1="50.93" x2="154.77" y2="50.93"/></g><g id="ARC-99"><path class="cls-5" d="m159.41,59.65c2.41,0,4.36-1.95,4.36-4.36s-1.95-4.36-4.36-4.36h0"/></g><g id="ARC-100"><path class="cls-5" d="m159.41,61.37c3.36,0,6.08-2.72,6.08-6.08s-2.72-6.08-6.08-6.08h0"/></g><g id="LINE-84"><line class="cls-5" x1="159.41" y1="61.37" x2="149.51" y2="61.37"/></g><g id="ARC-101"><path class="cls-5" d="m149.1,61.62c.26,0,.47-.21.47-.47"/></g><g id="ARC-102"><path class="cls-5" d="m132.93,86.47c-.03-1.94-.41-3.85-1.11-5.66"/></g><g id="ARC-103"><path class="cls-5" d="m132.93,86.47c0,.7.57,1.26,1.26,1.26s1.26-.57,1.26-1.26"/></g><g id="ARC-104"><path class="cls-5" d="m135.46,86.47c0-2.06-.44-4.09-1.3-5.96"/></g><g id="ARC-105"><path class="cls-5" d="m134.27,92.32c1.67-3.72,1.67-7.98,0-11.71"/></g><g id="ARC-106"><path class="cls-5" d="m134.15,80.5c-.05-.18-.21-.3-.39-.3"/></g><g id="LINE-85"><line class="cls-5" x1="133.76" y1="80.2" x2="132.17" y2="80.2"/></g><g id="ARC-107"><path class="cls-5" d="m132.17,80.2c-.22,0-.41.18-.41.41,0,.07.02.14.05.2"/></g><g id="CIRCLE-3"><circle class="cls-5" cx="134.2" cy="86.47" r=".62"/></g><g id="LINE-86"><line class="cls-5" x1="137.31" y1="82.69" x2="137.31" y2="90.24"/></g><g id="ARC-108"><path class="cls-5" d="m137.31,82.69c0-1.03-.84-1.87-1.87-1.87"/></g><g id="LINE-87"><line class="cls-5" x1="135.44" y1="80.82" x2="134.67" y2="80.82"/></g><g id="ARC-109"><path class="cls-5" d="m134.21,80.48c.06.2.24.34.45.34"/></g><g id="ARC-110"><path class="cls-5" d="m134.21,80.48c-.06-.2-.24-.34-.45-.34"/></g><g id="LINE-88"><line class="cls-5" x1="133.76" y1="80.14" x2="132.17" y2="80.14"/></g><g id="ARC-111"><path class="cls-5" d="m132.17,80.14c-.26,0-.47.21-.47.47"/></g><g id="LINE-89"><line class="cls-5" x1="131.7" y1="80.6" x2="131.7" y2="92.33"/></g><g id="ARC-112"><path class="cls-5" d="m135.44,92.11c1.03,0,1.87-.84,1.87-1.87"/></g><g id="ARC-113"><path class="cls-5" d="m133.76,92.79c.21,0,.39-.14.45-.34"/></g><g id="ARC-114"><path class="cls-5" d="m134.67,92.11c-.21,0-.39.14-.45.34"/></g><g id="LINE-90"><line class="cls-5" x1="135.44" y1="92.11" x2="134.67" y2="92.11"/></g><g id="LINE-91"><line class="cls-5" x1="133.76" y1="92.79" x2="132.17" y2="92.79"/></g><g id="ARC-115"><path class="cls-5" d="m130.02,92.23c0,.17.14.31.31.31"/></g><g id="ARC-116"><path class="cls-5" d="m130.11,92.23c0,.17.14.31.31.31"/></g><g id="ARC-117"><path class="cls-5" d="m130.43,80.39c-.17,0-.31.14-.31.31"/></g><g id="ARC-118"><path class="cls-5" d="m130.33,80.39c-.17,0-.31.14-.31.31"/></g><g id="LINE-92"><line class="cls-5" x1="121.85" y1="80.39" x2="131.76" y2="80.39"/></g><g id="LINE-93"><line class="cls-5" x1="130.02" y1="92.23" x2="130.02" y2="80.7"/></g><g id="LINE-94"><line class="cls-5" x1="130.11" y1="92.23" x2="130.11" y2="80.7"/></g><g id="ARC-119"><path class="cls-5" d="m125.49,85.32c-.03-.23-.23-.41-.46-.41"/></g><g id="ARC-120"><path class="cls-5" d="m125.03,88.02c.24,0,.44-.18.46-.41"/></g><g id="ARC-121"><path class="cls-5" d="m124.63,84.91c-.86,0-1.56.7-1.56,1.56s.7,1.56,1.56,1.56"/></g><g id="LINE-95"><line class="cls-5" x1="125.03" y1="84.91" x2="124.63" y2="84.91"/></g><g id="LINE-96"><line class="cls-5" x1="125.03" y1="88.02" x2="124.63" y2="88.02"/></g><g id="ARC-122"><path class="cls-5" d="m125.49,87.61c.09-.76.09-1.53,0-2.3"/></g><g id="ARC-123"><path class="cls-5" d="m126.49,90.83c.83,0,1.52-.65,1.56-1.49"/></g><g id="ARC-124"><path class="cls-5" d="m128.05,83.59c-.04-.83-.72-1.49-1.56-1.49"/></g><g id="ARC-125"><path class="cls-5" d="m128.05,89.34c.09-1.92.09-3.84,0-5.76"/></g><g id="LINE-97"><line class="cls-5" x1="121.85" y1="90.83" x2="126.49" y2="90.83"/></g><g id="LINE-98"><line class="cls-5" x1="121.85" y1="82.1" x2="126.49" y2="82.1"/></g><g id="ARC-126"><path class="cls-5" d="m121.85,82.1c-2.41,0-4.36,1.95-4.36,4.36s1.95,4.36,4.36,4.36h0"/></g><g id="ARC-127"><path class="cls-5" d="m121.85,80.39c-3.36,0-6.08,2.72-6.08,6.08s2.72,6.08,6.08,6.08h0"/></g><g id="LINE-99"><line class="cls-5" x1="121.85" y1="92.54" x2="131.76" y2="92.54"/></g><g id="ARC-128"><path class="cls-5" d="m131.7,92.33c0,.26.21.47.47.47"/></g><g id="ARC-129"><path class="cls-5" d="m149.45,111.98c-.71,1.8-1.08,3.72-1.11,5.66"/></g><g id="ARC-130"><path class="cls-5" d="m145.81,117.64c0,.7.57,1.26,1.26,1.26s1.26-.57,1.26-1.26"/></g><g id="ARC-131"><path class="cls-5" d="m147.11,111.68c-.86,1.87-1.3,3.9-1.3,5.96"/></g><g id="ARC-132"><path class="cls-5" d="m146.99,111.79c-1.67,3.72-1.67,7.98,0,11.71"/></g><g id="ARC-133"><path class="cls-5" d="m147.5,111.37c-.18,0-.34.12-.39.3"/></g><g id="LINE-100"><line class="cls-5" x1="147.5" y1="111.37" x2="149.1" y2="111.37"/></g><g id="ARC-134"><path class="cls-5" d="m149.45,111.98c.11-.19.05-.44-.15-.55-.06-.04-.13-.05-.2-.05"/></g><g id="CIRCLE-4"><circle class="cls-5" cx="147.07" cy="117.64" r=".62"/></g><g id="LINE-101"><line class="cls-5" x1="143.95" y1="113.87" x2="143.95" y2="121.41"/></g><g id="ARC-135"><path class="cls-5" d="m145.82,112c-1.03,0-1.87.84-1.87,1.87"/></g><g id="LINE-102"><line class="cls-5" x1="145.82" y1="112" x2="146.6" y2="112"/></g><g id="ARC-136"><path class="cls-5" d="m146.6,112c.21,0,.39-.14.45-.34"/></g><g id="ARC-137"><path class="cls-5" d="m147.5,111.31c-.21,0-.39.14-.45.34"/></g><g id="LINE-103"><line class="cls-5" x1="147.5" y1="111.31" x2="149.1" y2="111.31"/></g><g id="ARC-138"><path class="cls-5" d="m149.56,111.78c0-.26-.21-.47-.47-.47"/></g><g id="LINE-104"><line class="cls-5" x1="149.56" y1="111.78" x2="149.56" y2="123.5"/></g><g id="ARC-139"><path class="cls-5" d="m143.95,121.41c0,1.03.84,1.87,1.87,1.87"/></g><g id="ARC-140"><path class="cls-5" d="m147.05,123.63c.06.2.24.34.45.34"/></g><g id="ARC-141"><path class="cls-5" d="m147.05,123.63c-.06-.2-.24-.34-.45-.34"/></g><g id="LINE-105"><line class="cls-5" x1="145.82" y1="123.28" x2="146.6" y2="123.28"/></g><g id="LINE-106"><line class="cls-5" x1="147.5" y1="123.97" x2="149.1" y2="123.97"/></g><g id="ARC-142"><path class="cls-5" d="m150.94,123.72c.17,0,.31-.14.31-.31"/></g><g id="ARC-143"><path class="cls-5" d="m150.84,123.72c.17,0,.31-.14.31-.31"/></g><g id="ARC-144"><path class="cls-5" d="m151.15,111.87c0-.17-.14-.31-.31-.31"/></g><g id="ARC-145"><path class="cls-5" d="m151.25,111.87c0-.17-.14-.31-.31-.31"/></g><g id="LINE-107"><line class="cls-5" x1="159.41" y1="111.56" x2="149.51" y2="111.56"/></g><g id="LINE-108"><line class="cls-5" x1="151.25" y1="123.41" x2="151.25" y2="111.87"/></g><g id="LINE-109"><line class="cls-5" x1="151.15" y1="123.41" x2="151.15" y2="111.87"/></g><g id="ARC-146"><path class="cls-5" d="m156.24,116.08c-.24,0-.44.18-.46.41"/></g><g id="ARC-147"><path class="cls-5" d="m155.78,118.79c.03.23.23.41.46.41"/></g><g id="ARC-148"><path class="cls-5" d="m156.64,119.2c.86,0,1.56-.7,1.56-1.56s-.7-1.56-1.56-1.56"/></g><g id="LINE-110"><line class="cls-5" x1="156.24" y1="116.08" x2="156.64" y2="116.08"/></g><g id="LINE-111"><line class="cls-5" x1="156.24" y1="119.2" x2="156.64" y2="119.2"/></g><g id="ARC-149"><path class="cls-5" d="m155.78,116.49c-.09.76-.09,1.53,0,2.3"/></g><g id="ARC-150"><path class="cls-5" d="m153.21,120.52c.04.83.72,1.49,1.56,1.49"/></g><g id="ARC-151"><path class="cls-5" d="m154.77,113.28c-.83,0-1.52.65-1.56,1.49"/></g><g id="ARC-152"><path class="cls-5" d="m153.21,114.76c-.09,1.92-.09,3.84,0,5.76"/></g><g id="LINE-112"><line class="cls-5" x1="159.41" y1="122" x2="154.77" y2="122"/></g><g id="LINE-113"><line class="cls-5" x1="159.41" y1="113.28" x2="154.77" y2="113.28"/></g><g id="ARC-153"><path class="cls-5" d="m159.41,122c2.41,0,4.36-1.95,4.36-4.36s-1.95-4.36-4.36-4.36h0"/></g><g id="ARC-154"><path class="cls-5" d="m159.41,123.72c3.36,0,6.08-2.72,6.08-6.08s-2.72-6.08-6.08-6.08h0"/></g><g id="LINE-114"><line class="cls-5" x1="159.41" y1="123.72" x2="149.51" y2="123.72"/></g><g id="ARC-155"><path class="cls-5" d="m149.1,123.97c.26,0,.47-.21.47-.47"/></g><g id="ARC-156"><path class="cls-5" d="m149.45,143.16c-.71,1.8-1.08,3.72-1.11,5.66"/></g><g id="ARC-157"><path class="cls-5" d="m145.81,148.82c0,.7.57,1.26,1.26,1.26s1.26-.57,1.26-1.26"/></g><g id="ARC-158"><path class="cls-5" d="m147.11,142.86c-.86,1.87-1.3,3.9-1.3,5.96"/></g><g id="ARC-159"><path class="cls-5" d="m146.99,142.96c-1.67,3.72-1.67,7.98,0,11.71"/></g><g id="ARC-160"><path class="cls-5" d="m147.5,142.55c-.18,0-.34.12-.39.3"/></g><g id="LINE-115"><line class="cls-5" x1="147.5" y1="142.55" x2="149.1" y2="142.55"/></g><g id="ARC-161"><path class="cls-5" d="m149.45,143.16c.11-.19.05-.44-.15-.55-.06-.04-.13-.05-.2-.05"/></g><g id="CIRCLE-5"><circle class="cls-5" cx="147.07" cy="148.82" r=".62"/></g><g id="LINE-116"><line class="cls-5" x1="143.95" y1="145.04" x2="143.95" y2="152.59"/></g><g id="ARC-162"><path class="cls-5" d="m145.82,143.17c-1.03,0-1.87.84-1.87,1.87"/></g><g id="LINE-117"><line class="cls-5" x1="145.82" y1="143.17" x2="146.6" y2="143.17"/></g><g id="ARC-163"><path class="cls-5" d="m146.6,143.17c.21,0,.39-.14.45-.34"/></g><g id="ARC-164"><path class="cls-5" d="m147.5,142.49c-.21,0-.39.14-.45.34"/></g><g id="LINE-118"><line class="cls-5" x1="147.5" y1="142.49" x2="149.1" y2="142.49"/></g><g id="ARC-165"><path class="cls-5" d="m149.56,142.95c0-.26-.21-.47-.47-.47"/></g><g id="LINE-119"><line class="cls-5" x1="149.56" y1="142.95" x2="149.56" y2="154.68"/></g><g id="ARC-166"><path class="cls-5" d="m143.95,152.59c0,1.03.84,1.87,1.87,1.87"/></g><g id="ARC-167"><path class="cls-5" d="m147.05,154.8c.06.2.24.34.45.34"/></g><g id="ARC-168"><path class="cls-5" d="m147.05,154.8c-.06-.2-.24-.34-.45-.34"/></g><g id="LINE-120"><line class="cls-5" x1="145.82" y1="154.46" x2="146.6" y2="154.46"/></g><g id="LINE-121"><line class="cls-5" x1="147.5" y1="155.14" x2="149.1" y2="155.14"/></g><g id="ARC-169"><path class="cls-5" d="m150.94,154.89c.17,0,.31-.14.31-.31"/></g><g id="ARC-170"><path class="cls-5" d="m150.84,154.89c.17,0,.31-.14.31-.31"/></g><g id="ARC-171"><path class="cls-5" d="m151.15,143.05c0-.17-.14-.31-.31-.31"/></g><g id="ARC-172"><path class="cls-5" d="m151.25,143.05c0-.17-.14-.31-.31-.31"/></g><g id="LINE-122"><line class="cls-5" x1="159.41" y1="142.74" x2="149.51" y2="142.74"/></g><g id="LINE-123"><line class="cls-5" x1="151.25" y1="154.58" x2="151.25" y2="143.05"/></g><g id="LINE-124"><line class="cls-5" x1="151.15" y1="154.58" x2="151.15" y2="143.05"/></g><g id="ARC-173"><path class="cls-5" d="m156.24,147.26c-.24,0-.44.18-.46.41"/></g><g id="ARC-174"><path class="cls-5" d="m155.78,149.96c.03.23.23.41.46.41"/></g><g id="ARC-175"><path class="cls-5" d="m156.64,150.37c.86,0,1.56-.7,1.56-1.56s-.7-1.56-1.56-1.56"/></g><g id="LINE-125"><line class="cls-5" x1="156.24" y1="147.26" x2="156.64" y2="147.26"/></g><g id="LINE-126"><line class="cls-5" x1="156.24" y1="150.37" x2="156.64" y2="150.37"/></g><g id="ARC-176"><path class="cls-5" d="m155.78,147.67c-.09.76-.09,1.53,0,2.3"/></g><g id="ARC-177"><path class="cls-5" d="m153.21,151.69c.04.83.72,1.49,1.56,1.49"/></g><g id="ARC-178"><path class="cls-5" d="m154.77,144.45c-.83,0-1.52.65-1.56,1.49"/></g><g id="ARC-179"><path class="cls-5" d="m153.21,145.94c-.09,1.92-.09,3.84,0,5.76"/></g><g id="LINE-127"><line class="cls-5" x1="159.41" y1="153.18" x2="154.77" y2="153.18"/></g><g id="LINE-128"><line class="cls-5" x1="159.41" y1="144.45" x2="154.77" y2="144.45"/></g><g id="ARC-180"><path class="cls-5" d="m159.41,153.18c2.41,0,4.36-1.95,4.36-4.36s-1.95-4.36-4.36-4.36h0"/></g><g id="ARC-181"><path class="cls-5" d="m159.41,154.89c3.36,0,6.08-2.72,6.08-6.08s-2.72-6.08-6.08-6.08h0"/></g><g id="LINE-129"><line class="cls-5" x1="159.41" y1="154.89" x2="149.51" y2="154.89"/></g><g id="ARC-182"><path class="cls-5" d="m149.1,155.14c.26,0,.47-.21.47-.47"/></g><g id="ARC-183"><path class="cls-5" d="m149.45,174.33c-.71,1.8-1.08,3.72-1.11,5.66"/></g><g id="ARC-184"><path class="cls-5" d="m145.81,179.99c0,.7.57,1.26,1.26,1.26s1.26-.57,1.26-1.26"/></g><g id="ARC-185"><path class="cls-5" d="m147.11,174.03c-.86,1.87-1.3,3.9-1.3,5.96"/></g><g id="ARC-186"><path class="cls-5" d="m146.99,174.14c-1.67,3.72-1.67,7.98,0,11.71"/></g><g id="ARC-187"><path class="cls-5" d="m147.5,173.72c-.18,0-.34.12-.39.3"/></g><g id="LINE-130"><line class="cls-5" x1="147.5" y1="173.72" x2="149.1" y2="173.72"/></g><g id="ARC-188"><path class="cls-5" d="m149.45,174.33c.11-.19.05-.44-.15-.55-.06-.04-.13-.05-.2-.05"/></g><g id="CIRCLE-6"><circle class="cls-5" cx="147.07" cy="179.99" r=".62"/></g><g id="LINE-131"><line class="cls-5" x1="143.95" y1="176.22" x2="143.95" y2="183.76"/></g><g id="ARC-189"><path class="cls-5" d="m145.82,174.35c-1.03,0-1.87.84-1.87,1.87"/></g><g id="LINE-132"><line class="cls-5" x1="145.82" y1="174.35" x2="146.6" y2="174.35"/></g><g id="ARC-190"><path class="cls-5" d="m146.6,174.35c.21,0,.39-.14.45-.34"/></g><g id="ARC-191"><path class="cls-5" d="m147.5,173.66c-.21,0-.39.14-.45.34"/></g><g id="LINE-133"><line class="cls-5" x1="147.5" y1="173.66" x2="149.1" y2="173.66"/></g><g id="ARC-192"><path class="cls-5" d="m149.56,174.13c0-.26-.21-.47-.47-.47"/></g><g id="LINE-134"><line class="cls-5" x1="149.56" y1="174.13" x2="149.56" y2="185.85"/></g><g id="ARC-193"><path class="cls-5" d="m143.95,183.76c0,1.03.84,1.87,1.87,1.87"/></g><g id="ARC-194"><path class="cls-5" d="m147.05,185.98c.06.2.24.34.45.34"/></g><g id="ARC-195"><path class="cls-5" d="m147.05,185.98c-.06-.2-.24-.34-.45-.34"/></g><g id="LINE-135"><line class="cls-5" x1="145.82" y1="185.63" x2="146.6" y2="185.63"/></g><g id="LINE-136"><line class="cls-5" x1="147.5" y1="186.32" x2="149.1" y2="186.32"/></g><g id="ARC-196"><path class="cls-5" d="m150.94,186.07c.17,0,.31-.14.31-.31"/></g><g id="ARC-197"><path class="cls-5" d="m150.84,186.07c.17,0,.31-.14.31-.31"/></g><g id="ARC-198"><path class="cls-5" d="m151.15,174.22c0-.17-.14-.31-.31-.31"/></g><g id="ARC-199"><path class="cls-5" d="m151.25,174.22c0-.17-.14-.31-.31-.31"/></g><g id="LINE-137"><line class="cls-5" x1="159.41" y1="173.91" x2="149.51" y2="173.91"/></g><g id="LINE-138"><line class="cls-5" x1="151.25" y1="185.76" x2="151.25" y2="174.22"/></g><g id="LINE-139"><line class="cls-5" x1="151.15" y1="185.76" x2="151.15" y2="174.22"/></g><g id="ARC-200"><path class="cls-5" d="m156.24,178.43c-.24,0-.44.18-.46.41"/></g><g id="ARC-201"><path class="cls-5" d="m155.78,181.14c.03.23.23.41.46.41"/></g><g id="ARC-202"><path class="cls-5" d="m156.64,181.55c.86,0,1.56-.7,1.56-1.56s-.7-1.56-1.56-1.56"/></g><g id="LINE-140"><line class="cls-5" x1="156.24" y1="178.43" x2="156.64" y2="178.43"/></g><g id="LINE-141"><line class="cls-5" x1="156.24" y1="181.55" x2="156.64" y2="181.55"/></g><g id="ARC-203"><path class="cls-5" d="m155.78,178.84c-.09.76-.09,1.53,0,2.3"/></g><g id="ARC-204"><path class="cls-5" d="m153.21,182.87c.04.83.72,1.49,1.56,1.49"/></g><g id="ARC-205"><path class="cls-5" d="m154.77,175.63c-.83,0-1.52.65-1.56,1.49"/></g><g id="ARC-206"><path class="cls-5" d="m153.21,177.11c-.09,1.92-.09,3.84,0,5.76"/></g><g id="LINE-142"><line class="cls-5" x1="159.41" y1="184.35" x2="154.77" y2="184.35"/></g><g id="LINE-143"><line class="cls-5" x1="159.41" y1="175.63" x2="154.77" y2="175.63"/></g><g id="ARC-207"><path class="cls-5" d="m159.41,184.35c2.41,0,4.36-1.95,4.36-4.36s-1.95-4.36-4.36-4.36h0"/></g><g id="ARC-208"><path class="cls-5" d="m159.41,186.07c3.36,0,6.08-2.72,6.08-6.08s-2.72-6.08-6.08-6.08h0"/></g><g id="LINE-144"><line class="cls-5" x1="159.41" y1="186.07" x2="149.51" y2="186.07"/></g><g id="ARC-209"><path class="cls-5" d="m149.1,186.32c.26,0,.47-.21.47-.47"/></g><g id="ARC-210"><path class="cls-5" d="m132.93,179.99c-.03-1.94-.41-3.85-1.11-5.66"/></g><g id="ARC-211"><path class="cls-5" d="m132.93,179.99c0,.7.57,1.26,1.26,1.26s1.26-.57,1.26-1.26"/></g><g id="ARC-212"><path class="cls-5" d="m135.46,179.99c0-2.06-.44-4.09-1.3-5.96"/></g><g id="ARC-213"><path class="cls-5" d="m134.27,185.84c1.67-3.72,1.67-7.98,0-11.71"/></g><g id="ARC-214"><path class="cls-5" d="m134.15,174.02c-.05-.18-.21-.3-.39-.3"/></g><g id="LINE-145"><line class="cls-5" x1="133.76" y1="173.72" x2="132.17" y2="173.72"/></g><g id="ARC-215"><path class="cls-5" d="m132.17,173.72c-.22,0-.41.18-.41.41,0,.07.02.14.05.2"/></g><g id="CIRCLE-7"><circle class="cls-5" cx="134.2" cy="179.99" r=".62"/></g><g id="LINE-146"><line class="cls-5" x1="137.31" y1="176.22" x2="137.31" y2="183.76"/></g><g id="ARC-216"><path class="cls-5" d="m137.31,176.22c0-1.03-.84-1.87-1.87-1.87"/></g><g id="LINE-147"><line class="cls-5" x1="135.44" y1="174.35" x2="134.67" y2="174.35"/></g><g id="ARC-217"><path class="cls-5" d="m134.21,174c.06.2.24.34.45.34"/></g><g id="ARC-218"><path class="cls-5" d="m134.21,174c-.06-.2-.24-.34-.45-.34"/></g><g id="LINE-148"><line class="cls-5" x1="133.76" y1="173.66" x2="132.17" y2="173.66"/></g><g id="ARC-219"><path class="cls-5" d="m132.17,173.66c-.26,0-.47.21-.47.47"/></g><g id="LINE-149"><line class="cls-5" x1="131.7" y1="174.13" x2="131.7" y2="185.85"/></g><g id="ARC-220"><path class="cls-5" d="m135.44,185.63c1.03,0,1.87-.84,1.87-1.87"/></g><g id="ARC-221"><path class="cls-5" d="m133.76,186.32c.21,0,.39-.14.45-.34"/></g><g id="ARC-222"><path class="cls-5" d="m134.67,185.63c-.21,0-.39.14-.45.34"/></g><g id="LINE-150"><line class="cls-5" x1="135.44" y1="185.63" x2="134.67" y2="185.63"/></g><g id="LINE-151"><line class="cls-5" x1="133.76" y1="186.32" x2="132.17" y2="186.32"/></g><g id="ARC-223"><path class="cls-5" d="m130.02,185.76c0,.17.14.31.31.31"/></g><g id="ARC-224"><path class="cls-5" d="m130.11,185.76c0,.17.14.31.31.31"/></g><g id="ARC-225"><path class="cls-5" d="m130.43,173.91c-.17,0-.31.14-.31.31"/></g><g id="ARC-226"><path class="cls-5" d="m130.33,173.91c-.17,0-.31.14-.31.31"/></g><g id="LINE-152"><line class="cls-5" x1="121.85" y1="173.91" x2="131.76" y2="173.91"/></g><g id="LINE-153"><line class="cls-5" x1="130.02" y1="185.76" x2="130.02" y2="174.22"/></g><g id="LINE-154"><line class="cls-5" x1="130.11" y1="185.76" x2="130.11" y2="174.22"/></g><g id="ARC-227"><path class="cls-5" d="m125.49,178.84c-.03-.23-.23-.41-.46-.41"/></g><g id="ARC-228"><path class="cls-5" d="m125.03,181.55c.24,0,.44-.18.46-.41"/></g><g id="ARC-229"><path class="cls-5" d="m124.63,178.43c-.86,0-1.56.7-1.56,1.56s.7,1.56,1.56,1.56"/></g><g id="LINE-155"><line class="cls-5" x1="125.03" y1="178.43" x2="124.63" y2="178.43"/></g><g id="LINE-156"><line class="cls-5" x1="125.03" y1="181.55" x2="124.63" y2="181.55"/></g><g id="ARC-230"><path class="cls-5" d="m125.49,181.14c.09-.76.09-1.53,0-2.3"/></g><g id="ARC-231"><path class="cls-5" d="m126.49,184.35c.83,0,1.52-.65,1.56-1.49"/></g><g id="ARC-232"><path class="cls-5" d="m128.05,177.11c-.04-.83-.72-1.49-1.56-1.49"/></g><g id="ARC-233"><path class="cls-5" d="m128.05,182.87c.09-1.92.09-3.84,0-5.76"/></g><g id="LINE-157"><line class="cls-5" x1="121.85" y1="184.35" x2="126.49" y2="184.35"/></g><g id="LINE-158"><line class="cls-5" x1="121.85" y1="175.63" x2="126.49" y2="175.63"/></g><g id="ARC-234"><path class="cls-5" d="m121.85,175.63c-2.41,0-4.36,1.95-4.36,4.36s1.95,4.36,4.36,4.36h0"/></g><g id="ARC-235"><path class="cls-5" d="m121.85,173.91c-3.36,0-6.08,2.72-6.08,6.08s2.72,6.08,6.08,6.08h0"/></g><g id="LINE-159"><line class="cls-5" x1="121.85" y1="186.07" x2="131.76" y2="186.07"/></g><g id="ARC-236"><path class="cls-5" d="m131.7,185.85c0,.26.21.47.47.47"/></g><g id="ARC-237"><path class="cls-5" d="m132.93,148.82c-.03-1.94-.41-3.85-1.11-5.66"/></g><g id="ARC-238"><path class="cls-5" d="m132.93,148.82c0,.7.57,1.26,1.26,1.26s1.26-.57,1.26-1.26"/></g><g id="ARC-239"><path class="cls-5" d="m135.46,148.82c0-2.06-.44-4.09-1.3-5.96"/></g><g id="ARC-240"><path class="cls-5" d="m134.27,154.67c1.67-3.72,1.67-7.98,0-11.71"/></g><g id="ARC-241"><path class="cls-5" d="m134.15,142.85c-.05-.18-.21-.3-.39-.3"/></g><g id="LINE-160"><line class="cls-5" x1="133.76" y1="142.55" x2="132.17" y2="142.55"/></g><g id="ARC-242"><path class="cls-5" d="m132.17,142.55c-.22,0-.41.18-.41.41,0,.07.02.14.05.2"/></g><g id="CIRCLE-8"><circle class="cls-5" cx="134.2" cy="148.82" r=".62"/></g><g id="LINE-161"><line class="cls-5" x1="137.31" y1="145.04" x2="137.31" y2="152.59"/></g><g id="ARC-243"><path class="cls-5" d="m137.31,145.04c0-1.03-.84-1.87-1.87-1.87"/></g><g id="LINE-162"><line class="cls-5" x1="135.44" y1="143.17" x2="134.67" y2="143.17"/></g><g id="ARC-244"><path class="cls-5" d="m134.21,142.83c.06.2.24.34.45.34"/></g><g id="ARC-245"><path class="cls-5" d="m134.21,142.83c-.06-.2-.24-.34-.45-.34"/></g><g id="LINE-163"><line class="cls-5" x1="133.76" y1="142.49" x2="132.17" y2="142.49"/></g><g id="ARC-246"><path class="cls-5" d="m132.17,142.49c-.26,0-.47.21-.47.47"/></g><g id="LINE-164"><line class="cls-5" x1="131.7" y1="142.95" x2="131.7" y2="154.68"/></g><g id="ARC-247"><path class="cls-5" d="m135.44,154.46c1.03,0,1.87-.84,1.87-1.87"/></g><g id="ARC-248"><path class="cls-5" d="m133.76,155.14c.21,0,.39-.14.45-.34"/></g><g id="ARC-249"><path class="cls-5" d="m134.67,154.46c-.21,0-.39.14-.45.34"/></g><g id="LINE-165"><line class="cls-5" x1="135.44" y1="154.46" x2="134.67" y2="154.46"/></g><g id="LINE-166"><line class="cls-5" x1="133.76" y1="155.14" x2="132.17" y2="155.14"/></g><g id="ARC-250"><path class="cls-5" d="m130.02,154.58c0,.17.14.31.31.31"/></g><g id="ARC-251"><path class="cls-5" d="m130.11,154.58c0,.17.14.31.31.31"/></g><g id="ARC-252"><path class="cls-5" d="m130.43,142.74c-.17,0-.31.14-.31.31"/></g><g id="ARC-253"><path class="cls-5" d="m130.33,142.74c-.17,0-.31.14-.31.31"/></g><g id="LINE-167"><line class="cls-5" x1="121.85" y1="142.74" x2="131.76" y2="142.74"/></g><g id="LINE-168"><line class="cls-5" x1="130.02" y1="154.58" x2="130.02" y2="143.05"/></g><g id="LINE-169"><line class="cls-5" x1="130.11" y1="154.58" x2="130.11" y2="143.05"/></g><g id="ARC-254"><path class="cls-5" d="m125.49,147.67c-.03-.23-.23-.41-.46-.41"/></g><g id="ARC-255"><path class="cls-5" d="m125.03,150.37c.24,0,.44-.18.46-.41"/></g><g id="ARC-256"><path class="cls-5" d="m124.63,147.26c-.86,0-1.56.7-1.56,1.56s.7,1.56,1.56,1.56"/></g><g id="LINE-170"><line class="cls-5" x1="125.03" y1="147.26" x2="124.63" y2="147.26"/></g><g id="LINE-171"><line class="cls-5" x1="125.03" y1="150.37" x2="124.63" y2="150.37"/></g><g id="ARC-257"><path class="cls-5" d="m125.49,149.96c.09-.76.09-1.53,0-2.3"/></g><g id="ARC-258"><path class="cls-5" d="m126.49,153.18c.83,0,1.52-.65,1.56-1.49"/></g><g id="ARC-259"><path class="cls-5" d="m128.05,145.94c-.04-.83-.72-1.49-1.56-1.49"/></g><g id="ARC-260"><path class="cls-5" d="m128.05,151.69c.09-1.92.09-3.84,0-5.76"/></g><g id="LINE-172"><line class="cls-5" x1="121.85" y1="153.18" x2="126.49" y2="153.18"/></g><g id="LINE-173"><line class="cls-5" x1="121.85" y1="144.45" x2="126.49" y2="144.45"/></g><g id="ARC-261"><path class="cls-5" d="m121.85,144.45c-2.41,0-4.36,1.95-4.36,4.36s1.95,4.36,4.36,4.36h0"/></g><g id="ARC-262"><path class="cls-5" d="m121.85,142.74c-3.36,0-6.08,2.72-6.08,6.08s2.72,6.08,6.08,6.08h0"/></g><g id="LINE-174"><line class="cls-5" x1="121.85" y1="154.89" x2="131.76" y2="154.89"/></g><g id="ARC-263"><path class="cls-5" d="m131.7,154.68c0,.26.21.47.47.47"/></g><g id="ARC-264"><path class="cls-5" d="m132.93,117.64c-.03-1.94-.41-3.85-1.11-5.66"/></g><g id="ARC-265"><path class="cls-5" d="m132.93,117.64c0,.7.57,1.26,1.26,1.26s1.26-.57,1.26-1.26"/></g><g id="ARC-266"><path class="cls-5" d="m135.46,117.64c0-2.06-.44-4.09-1.3-5.96"/></g><g id="ARC-267"><path class="cls-5" d="m134.27,123.49c1.67-3.72,1.67-7.98,0-11.71"/></g><g id="ARC-268"><path class="cls-5" d="m134.15,111.67c-.05-.18-.21-.3-.39-.3"/></g><g id="LINE-175"><line class="cls-5" x1="133.76" y1="111.37" x2="132.17" y2="111.37"/></g><g id="ARC-269"><path class="cls-5" d="m132.17,111.37c-.22,0-.41.18-.41.41,0,.07.02.14.05.2"/></g><g id="CIRCLE-9"><circle class="cls-5" cx="134.2" cy="117.64" r=".62"/></g><g id="LINE-176"><line class="cls-5" x1="137.31" y1="113.87" x2="137.31" y2="121.41"/></g><g id="ARC-270"><path class="cls-5" d="m137.31,113.87c0-1.03-.84-1.87-1.87-1.87"/></g><g id="LINE-177"><line class="cls-5" x1="135.44" y1="112" x2="134.67" y2="112"/></g><g id="ARC-271"><path class="cls-5" d="m134.21,111.65c.06.2.24.34.45.34"/></g><g id="ARC-272"><path class="cls-5" d="m134.21,111.65c-.06-.2-.24-.34-.45-.34"/></g><g id="LINE-178"><line class="cls-5" x1="133.76" y1="111.31" x2="132.17" y2="111.31"/></g><g id="ARC-273"><path class="cls-5" d="m132.17,111.31c-.26,0-.47.21-.47.47"/></g><g id="LINE-179"><line class="cls-5" x1="131.7" y1="111.78" x2="131.7" y2="123.5"/></g><g id="ARC-274"><path class="cls-5" d="m135.44,123.28c1.03,0,1.87-.84,1.87-1.87"/></g><g id="ARC-275"><path class="cls-5" d="m133.76,123.97c.21,0,.39-.14.45-.34"/></g><g id="ARC-276"><path class="cls-5" d="m134.67,123.28c-.21,0-.39.14-.45.34"/></g><g id="LINE-180"><line class="cls-5" x1="135.44" y1="123.28" x2="134.67" y2="123.28"/></g><g id="LINE-181"><line class="cls-5" x1="133.76" y1="123.97" x2="132.17" y2="123.97"/></g><g id="ARC-277"><path class="cls-5" d="m130.02,123.41c0,.17.14.31.31.31"/></g><g id="ARC-278"><path class="cls-5" d="m130.11,123.41c0,.17.14.31.31.31"/></g><g id="ARC-279"><path class="cls-5" d="m130.43,111.56c-.17,0-.31.14-.31.31"/></g><g id="ARC-280"><path class="cls-5" d="m130.33,111.56c-.17,0-.31.14-.31.31"/></g><g id="LINE-182"><line class="cls-5" x1="121.85" y1="111.56" x2="131.76" y2="111.56"/></g><g id="LINE-183"><line class="cls-5" x1="130.02" y1="123.41" x2="130.02" y2="111.87"/></g><g id="LINE-184"><line class="cls-5" x1="130.11" y1="123.41" x2="130.11" y2="111.87"/></g><g id="ARC-281"><path class="cls-5" d="m125.49,116.49c-.03-.23-.23-.41-.46-.41"/></g><g id="ARC-282"><path class="cls-5" d="m125.03,119.2c.24,0,.44-.18.46-.41"/></g><g id="ARC-283"><path class="cls-5" d="m124.63,116.08c-.86,0-1.56.7-1.56,1.56s.7,1.56,1.56,1.56"/></g><g id="LINE-185"><line class="cls-5" x1="125.03" y1="116.08" x2="124.63" y2="116.08"/></g><g id="LINE-186"><line class="cls-5" x1="125.03" y1="119.2" x2="124.63" y2="119.2"/></g><g id="ARC-284"><path class="cls-5" d="m125.49,118.79c.09-.76.09-1.53,0-2.3"/></g><g id="ARC-285"><path class="cls-5" d="m126.49,122c.83,0,1.52-.65,1.56-1.49"/></g><g id="ARC-286"><path class="cls-5" d="m128.05,114.76c-.04-.83-.72-1.49-1.56-1.49"/></g><g id="ARC-287"><path class="cls-5" d="m128.05,120.52c.09-1.92.09-3.84,0-5.76"/></g><g id="LINE-187"><line class="cls-5" x1="121.85" y1="122" x2="126.49" y2="122"/></g><g id="LINE-188"><line class="cls-5" x1="121.85" y1="113.28" x2="126.49" y2="113.28"/></g><g id="ARC-288"><path class="cls-5" d="m121.85,113.28c-2.41,0-4.36,1.95-4.36,4.36s1.95,4.36,4.36,4.36h0"/></g><g id="ARC-289"><path class="cls-5" d="m121.85,111.56c-3.36,0-6.08,2.72-6.08,6.08s2.72,6.08,6.08,6.08h0"/></g><g id="LINE-189"><line class="cls-5" x1="121.85" y1="123.72" x2="131.76" y2="123.72"/></g><g id="ARC-290"><path class="cls-5" d="m131.7,123.5c0,.26.21.47.47.47"/></g><g id="ARC-291"><path class="cls-5" d="m143.41,13.81c.11,0,.22.02.32.02"/></g><g id="ARC-292"><path class="cls-5" d="m140.84,17.8c.16.73.59,1.39,1.19,1.83"/></g><g id="ARC-293"><path class="cls-5" d="m140.84,15.53c-.11.32-.16.66-.15,1.01"/></g><g id="ARC-294"><path class="cls-5" d="m140.69,16.53c0,.43.06.85.15,1.27"/></g><g id="ARC-295"><path class="cls-5" d="m143.41,13.81c-1.15-.09-2.21.62-2.57,1.72"/></g><g id="ARC-296"><path class="cls-5" d="m147.69,15.53c-.36-1.1-1.42-1.81-2.57-1.72"/></g><g id="ARC-297"><path class="cls-5" d="m144.8,13.83c.11,0,.22-.01.32-.02"/></g><g id="ARC-298"><path class="cls-5" d="m146.58,13.35c-.58-.16-1.19-.18-1.79-.05"/></g><g id="LINE-190"><line class="cls-5" x1="143.74" y1="13.3" x2="144.8" y2="13.3"/></g><g id="ARC-299"><path class="cls-5" d="m143.7,13.29c-.58-.12-1.18-.1-1.75.06"/></g><g id="ARC-300"><path class="cls-5" d="m143.7,13.29s.02,0,.04,0"/></g><g id="ARC-301"><path class="cls-5" d="m148.91,16.43c.47-1.2-.12-2.56-1.33-3.03-.14-.06-.29-.1-.44-.12"/></g><g id="ARC-302"><path class="cls-5" d="m141.39,13.27c-1.27.23-2.12,1.45-1.89,2.72.03.15.07.3.12.44"/></g><g id="ARC-303"><path class="cls-5" d="m147.15,13.27c-.95-.17-1.92-.26-2.88-.26"/></g><g id="ARC-304"><path class="cls-5" d="m141.95,13.35c-.86.24-1.51.95-1.68,1.83"/></g><g id="ARC-305"><path class="cls-5" d="m139.62,16.43c.44,1.12,1.14,2.11,2.04,2.9"/></g><g id="ARC-306"><path class="cls-5" d="m140.28,15.18c-.32,1.72.39,3.47,1.81,4.49"/></g><g id="ARC-307"><path class="cls-5" d="m146.51,19.63c.6-.45,1.03-1.1,1.19-1.83"/></g><g id="ARC-308"><path class="cls-5" d="m147.85,16.53c0-.34-.05-.68-.15-1.01"/></g><g id="ARC-309"><path class="cls-5" d="m147.7,17.8c.09-.42.14-.84.15-1.27"/></g><g id="ARC-310"><path class="cls-5" d="m144.27,15.36c-.43,0-.78.35-.78.78s.35.78.78.78"/></g><g id="ARC-311"><path class="cls-5" d="m144.27,15.12c-.56,0-1.01.45-1.01,1.01s.45,1.01,1.01,1.01"/></g><g id="ARC-312"><path class="cls-5" d="m140.9,19.8c.88.91,2.1,1.43,3.36,1.43"/></g><g id="ARC-313"><path class="cls-5" d="m139,16.91c.45,1.07,1.1,2.05,1.91,2.89"/></g><g id="ARC-314"><path class="cls-5" d="m146.87,19.33c.9-.79,1.6-1.79,2.04-2.9"/></g><g id="ARC-315"><path class="cls-5" d="m148.26,15.18c-.16-.88-.81-1.59-1.68-1.83"/></g><g id="ARC-316"><path class="cls-5" d="m146.45,19.67c1.42-1.02,2.13-2.77,1.81-4.49"/></g><g id="ARC-317"><path class="cls-5" d="m147.63,19.8c.81-.84,1.46-1.82,1.91-2.89"/></g><g id="ARC-318"><path class="cls-5" d="m144.27,21.23c1.27,0,2.48-.51,3.36-1.43"/></g><g id="ARC-319"><path class="cls-5" d="m144.27,17.15c.56,0,1.01-.45,1.01-1.01s-.45-1.01-1.01-1.01"/></g><g id="ARC-320"><path class="cls-5" d="m144.27,16.92c.43,0,.78-.35.78-.78s-.35-.78-.78-.78"/></g><g id="LINE-191"><line class="cls-5" x1="138.02" y1="12.08" x2="144.27" y2="12.08"/></g><g id="ARC-321"><path class="cls-5" d="m138.02,12.08c0,1.66.33,3.3.97,4.83"/></g><g id="ARC-322"><path class="cls-5" d="m149.54,16.91c.64-1.53.97-3.17.97-4.83"/></g><g id="LINE-192"><line class="cls-5" x1="150.51" y1="12.08" x2="144.27" y2="12.08"/></g><g id="LINE-193"><line class="cls-5" x1="143.74" y1="13.92" x2="144.8" y2="13.92"/></g><g id="LINE-194"><line class="cls-5" x1="143.74" y1="13.92" x2="143.74" y2="13.3"/></g><g id="LINE-195"><line class="cls-5" x1="144.8" y1="13.92" x2="144.8" y2="13.3"/></g><g id="ARC-323"><path class="cls-5" d="m144.27,13.02c-.97,0-1.93.09-2.88.26"/></g><g id="ARC-324"><path class="cls-5" d="m120.74,13.83c.11,0,.22-.01.32-.02"/></g><g id="ARC-325"><path class="cls-5" d="m122.45,19.63c.6-.45,1.03-1.1,1.19-1.83"/></g><g id="ARC-326"><path class="cls-5" d="m123.79,16.53c0-.34-.05-.68-.15-1.01"/></g><g id="ARC-327"><path class="cls-5" d="m123.64,17.8c.09-.42.14-.84.15-1.27"/></g><g id="ARC-328"><path class="cls-5" d="m123.63,15.53c-.36-1.1-1.42-1.81-2.57-1.72"/></g><g id="ARC-329"><path class="cls-5" d="m119.36,13.81c-1.15-.09-2.21.62-2.57,1.72"/></g><g id="ARC-330"><path class="cls-5" d="m119.36,13.81c.11,0,.22.02.32.02"/></g><g id="ARC-331"><path class="cls-5" d="m119.68,13.3c-.59-.13-1.2-.11-1.79.05"/></g><g id="LINE-196"><line class="cls-5" x1="120.74" y1="13.3" x2="119.68" y2="13.3"/></g><g id="ARC-332"><path class="cls-5" d="m122.53,13.35c-.57-.16-1.17-.18-1.75-.06"/></g><g id="ARC-333"><path class="cls-5" d="m120.74,13.3s.03,0,.04,0"/></g><g id="ARC-334"><path class="cls-5" d="m117.33,13.27c-1.27.23-2.12,1.45-1.89,2.72.03.15.07.3.12.44"/></g><g id="ARC-335"><path class="cls-5" d="m124.86,16.43c.47-1.2-.12-2.56-1.33-3.03-.14-.06-.29-.1-.44-.12"/></g><g id="ARC-336"><path class="cls-5" d="m120.21,13.02c-.97,0-1.93.09-2.88.26"/></g><g id="ARC-337"><path class="cls-5" d="m124.2,15.18c-.16-.88-.81-1.59-1.68-1.83"/></g><g id="ARC-338"><path class="cls-5" d="m122.81,19.33c.9-.79,1.6-1.79,2.04-2.9"/></g><g id="ARC-339"><path class="cls-5" d="m122.39,19.67c1.42-1.02,2.13-2.77,1.81-4.49"/></g><g id="ARC-340"><path class="cls-5" d="m116.78,17.8c.16.73.59,1.39,1.19,1.83"/></g><g id="ARC-341"><path class="cls-5" d="m116.78,15.53c-.11.32-.16.66-.15,1.01"/></g><g id="ARC-342"><path class="cls-5" d="m116.63,16.53c0,.43.06.85.15,1.27"/></g><g id="ARC-343"><path class="cls-5" d="m120.21,16.92c.43,0,.78-.35.78-.78s-.35-.78-.78-.78"/></g><g id="ARC-344"><path class="cls-5" d="m120.21,17.15c.56,0,1.01-.45,1.01-1.01s-.45-1.01-1.01-1.01"/></g><g id="ARC-345"><path class="cls-5" d="m120.21,21.23c1.27,0,2.48-.51,3.36-1.43"/></g><g id="ARC-346"><path class="cls-5" d="m123.57,19.8c.81-.84,1.46-1.82,1.91-2.89"/></g><g id="ARC-347"><path class="cls-5" d="m115.56,16.43c.44,1.12,1.14,2.11,2.04,2.9"/></g><g id="ARC-348"><path class="cls-5" d="m117.89,13.35c-.86.24-1.51.95-1.68,1.83"/></g><g id="ARC-349"><path class="cls-5" d="m116.22,15.18c-.32,1.72.39,3.47,1.81,4.49"/></g><g id="ARC-350"><path class="cls-5" d="m114.94,16.91c.45,1.07,1.1,2.05,1.91,2.89"/></g><g id="ARC-351"><path class="cls-5" d="m116.84,19.8c.88.91,2.1,1.43,3.36,1.43"/></g><g id="ARC-352"><path class="cls-5" d="m120.21,15.12c-.56,0-1.01.45-1.01,1.01s.45,1.01,1.01,1.01"/></g><g id="ARC-353"><path class="cls-5" d="m120.21,15.36c-.43,0-.78.35-.78.78s.35.78.78.78"/></g><g id="LINE-197"><line class="cls-5" x1="126.45" y1="12.08" x2="120.21" y2="12.08"/></g><g id="ARC-354"><path class="cls-5" d="m125.48,16.91c.64-1.53.97-3.17.97-4.83"/></g><g id="ARC-355"><path class="cls-5" d="m113.97,12.08c0,1.66.33,3.3.97,4.83"/></g><g id="LINE-198"><line class="cls-5" x1="113.97" y1="12.08" x2="120.21" y2="12.08"/></g><g id="LINE-199"><line class="cls-5" x1="120.74" y1="13.92" x2="119.68" y2="13.92"/></g><g id="LINE-200"><line class="cls-5" x1="120.74" y1="13.92" x2="120.74" y2="13.3"/></g><g id="LINE-201"><line class="cls-5" x1="119.68" y1="13.92" x2="119.68" y2="13.3"/></g><g id="ARC-356"><path class="cls-5" d="m123.09,13.27c-.95-.17-1.92-.26-2.88-.26"/></g><g id="ARC-357"><path class="cls-5" d="m96.68,13.83c.11,0,.22-.01.32-.02"/></g><g id="ARC-358"><path class="cls-5" d="m98.39,19.63c.6-.45,1.03-1.1,1.19-1.83"/></g><g id="ARC-359"><path class="cls-5" d="m99.73,16.53c0-.34-.05-.68-.15-1.01"/></g><g id="ARC-360"><path class="cls-5" d="m99.58,17.8c.09-.42.14-.84.15-1.27"/></g><g id="ARC-361"><path class="cls-5" d="m99.58,15.53c-.36-1.1-1.42-1.81-2.57-1.72"/></g><g id="ARC-362"><path class="cls-5" d="m95.3,13.81c-1.15-.09-2.21.62-2.57,1.72"/></g><g id="ARC-363"><path class="cls-5" d="m95.3,13.81c.11,0,.22.02.32.02"/></g><g id="ARC-364"><path class="cls-5" d="m95.62,13.3c-.59-.13-1.2-.11-1.79.05"/></g><g id="LINE-202"><line class="cls-5" x1="96.68" y1="13.3" x2="95.62" y2="13.3"/></g><g id="ARC-365"><path class="cls-5" d="m98.47,13.35c-.57-.16-1.17-.18-1.75-.06"/></g><g id="ARC-366"><path class="cls-5" d="m96.68,13.3s.03,0,.04,0"/></g><g id="ARC-367"><path class="cls-5" d="m93.27,13.27c-1.27.23-2.12,1.45-1.89,2.72.03.15.07.3.12.44"/></g><g id="ARC-368"><path class="cls-5" d="m100.8,16.43c.47-1.2-.12-2.56-1.33-3.03-.14-.06-.29-.1-.44-.12"/></g><g id="ARC-369"><path class="cls-5" d="m96.15,13.02c-.97,0-1.93.09-2.88.26"/></g><g id="ARC-370"><path class="cls-5" d="m100.14,15.18c-.16-.88-.81-1.59-1.68-1.83"/></g><g id="ARC-371"><path class="cls-5" d="m98.76,19.33c.9-.79,1.6-1.79,2.04-2.9"/></g><g id="ARC-372"><path class="cls-5" d="m98.34,19.67c1.42-1.02,2.13-2.77,1.81-4.49"/></g><g id="ARC-373"><path class="cls-5" d="m92.72,17.8c.16.73.59,1.39,1.19,1.83"/></g><g id="ARC-374"><path class="cls-5" d="m92.73,15.53c-.11.32-.16.66-.15,1.01"/></g><g id="ARC-375"><path class="cls-5" d="m92.57,16.53c0,.43.06.85.15,1.27"/></g><g id="ARC-376"><path class="cls-5" d="m96.15,16.92c.43,0,.78-.35.78-.78s-.35-.78-.78-.78"/></g><g id="ARC-377"><path class="cls-5" d="m96.15,17.15c.56,0,1.01-.45,1.01-1.01s-.45-1.01-1.01-1.01"/></g><g id="ARC-378"><path class="cls-5" d="m96.15,21.23c1.27,0,2.48-.51,3.36-1.43"/></g><g id="ARC-379"><path class="cls-5" d="m99.52,19.8c.81-.84,1.46-1.82,1.91-2.89"/></g><g id="ARC-380"><path class="cls-5" d="m91.51,16.43c.44,1.12,1.14,2.11,2.04,2.9"/></g><g id="ARC-381"><path class="cls-5" d="m93.83,13.35c-.86.24-1.51.95-1.68,1.83"/></g><g id="ARC-382"><path class="cls-5" d="m92.16,15.18c-.32,1.72.39,3.47,1.81,4.49"/></g><g id="ARC-383"><path class="cls-5" d="m90.88,16.91c.45,1.07,1.1,2.05,1.91,2.89"/></g><g id="ARC-384"><path class="cls-5" d="m92.79,19.8c.88.91,2.1,1.43,3.36,1.43"/></g><g id="ARC-385"><path class="cls-5" d="m96.15,15.12c-.56,0-1.01.45-1.01,1.01s.45,1.01,1.01,1.01"/></g><g id="ARC-386"><path class="cls-5" d="m96.15,15.36c-.43,0-.78.35-.78.78s.35.78.78.78"/></g><g id="LINE-203"><line class="cls-5" x1="102.39" y1="12.08" x2="96.15" y2="12.08"/></g><g id="ARC-387"><path class="cls-5" d="m101.42,16.91c.64-1.53.97-3.17.97-4.83"/></g><g id="ARC-388"><path class="cls-5" d="m89.91,12.08c0,1.66.33,3.3.97,4.83"/></g><g id="LINE-204"><line class="cls-5" x1="89.91" y1="12.08" x2="96.15" y2="12.08"/></g><g id="LINE-205"><line class="cls-5" x1="96.68" y1="13.92" x2="95.62" y2="13.92"/></g><g id="LINE-206"><line class="cls-5" x1="96.68" y1="13.92" x2="96.68" y2="13.3"/></g><g id="LINE-207"><line class="cls-5" x1="95.62" y1="13.92" x2="95.62" y2="13.3"/></g><g id="ARC-389"><path class="cls-5" d="m99.03,13.27c-.95-.17-1.92-.26-2.88-.26"/></g><g id="LINE-208"><line class="cls-5" x1="277.48" y1="161.42" x2="255.66" y2="161.42"/></g><g id="LINE-209"><line class="cls-5" x1="277.48" y1="14.16" x2="255.66" y2="14.16"/></g><g id="CIRCLE-10"><circle class="cls-5" cx="272.41" cy="137.84" r=".62"/></g><g id="CIRCLE-11"><circle class="cls-5" cx="272.41" cy="119.45" r=".62"/></g><g id="CIRCLE-12"><circle class="cls-5" cx="272.41" cy="125.37" r=".62"/></g><g id="CIRCLE-13"><circle class="cls-5" cx="272.41" cy="144.08" r=".62"/></g><g id="CIRCLE-14"><circle class="cls-5" cx="268.05" cy="122.26" r=".94"/></g><g id="CIRCLE-15"><circle class="cls-5" cx="268.05" cy="140.96" r=".94"/></g><g id="LWPOLYLINE-7"><path class="cls-5" d="m266.8,115.4l1.55.46c.62.4,1.14.93,1.53,1.55.42.65.73,1.36.92,2.11.24.89.35,1.81.35,2.74s-.12,1.84-.35,2.74c-.2.75-.51,1.46-.92,2.11s-.92,1.15-1.53,1.55l-1.55.46-1.55-.46c-.62-.4-1.14-.93-1.53-1.55-.42-.65-.73-1.36-.92-2.11-.24-.89-.35-1.81-.35-2.74s.12-1.84.35-2.74c.2-.75.51-1.46.92-2.11s.92-1.15,1.53-1.55l1.55-.46Z"/></g><g id="LWPOLYLINE-8"><path class="cls-5" d="m266.8,134.41l1.55.46c.62.4,1.14.93,1.53,1.55.42.65.73,1.36.92,2.11.24.89.35,1.81.35,2.74s-.12,1.84-.35,2.74c-.2.75-.51,1.46-.92,2.11s-.92,1.15-1.53,1.55l-1.55.46-1.55-.46c-.62-.4-1.14-.93-1.53-1.55-.42-.65-.73-1.36-.92-2.11-.24-.89-.35-1.81-.35-2.74s.12-1.84.35-2.74c.2-.75.51-1.46.92-2.11s.92-1.15,1.53-1.55c0,0,1.55-.46,1.55-.46Z"/></g><g id="LINE-210"><line class="cls-5" x1="255.66" y1="14.16" x2="255.66" y2="161.42"/></g><g id="LWPOLYLINE-9"><polyline class="cls-5" points="277.48 161.42 275.91 161.42 275.91 14.16 277.48 14.16"/></g><g id="ARC-390"><path class="cls-5" d="m132.93,55.29c-.03-1.94-.41-3.85-1.11-5.66"/></g><g id="ARC-391"><path class="cls-5" d="m132.93,55.29c0,.7.57,1.26,1.26,1.26s1.26-.57,1.26-1.26"/></g><g id="ARC-392"><path class="cls-5" d="m135.46,55.29c0-2.06-.44-4.09-1.3-5.96"/></g><g id="ARC-393"><path class="cls-5" d="m134.27,61.14c1.67-3.72,1.67-7.98,0-11.71"/></g><g id="ARC-394"><path class="cls-5" d="m134.15,49.32c-.05-.18-.21-.3-.39-.3"/></g><g id="LINE-211"><line class="cls-5" x1="133.76" y1="49.02" x2="132.17" y2="49.02"/></g><g id="ARC-395"><path class="cls-5" d="m132.17,49.02c-.22,0-.41.18-.41.41,0,.07.02.14.05.2"/></g><g id="CIRCLE-16"><circle class="cls-5" cx="134.2" cy="55.29" r=".62"/></g><g id="LINE-212"><line class="cls-5" x1="137.31" y1="51.52" x2="137.31" y2="59.06"/></g><g id="ARC-396"><path class="cls-5" d="m137.31,51.52c0-1.03-.84-1.87-1.87-1.87"/></g><g id="LINE-213"><line class="cls-5" x1="135.44" y1="49.65" x2="134.67" y2="49.65"/></g><g id="ARC-397"><path class="cls-5" d="m134.21,49.3c.06.2.24.34.45.34"/></g><g id="ARC-398"><path class="cls-5" d="m134.21,49.3c-.06-.2-.24-.34-.45-.34"/></g><g id="LINE-214"><line class="cls-5" x1="133.76" y1="48.96" x2="132.17" y2="48.96"/></g><g id="ARC-399"><path class="cls-5" d="m132.17,48.96c-.26,0-.47.21-.47.47"/></g><g id="LINE-215"><line class="cls-5" x1="131.7" y1="49.43" x2="131.7" y2="61.15"/></g><g id="ARC-400"><path class="cls-5" d="m135.44,60.93c1.03,0,1.87-.84,1.87-1.87"/></g><g id="ARC-401"><path class="cls-5" d="m133.76,61.62c.21,0,.39-.14.45-.34"/></g><g id="ARC-402"><path class="cls-5" d="m134.67,60.93c-.21,0-.39.14-.45.34"/></g><g id="LINE-216"><line class="cls-5" x1="135.44" y1="60.93" x2="134.67" y2="60.93"/></g><g id="LINE-217"><line class="cls-5" x1="133.76" y1="61.62" x2="132.17" y2="61.62"/></g><g id="ARC-403"><path class="cls-5" d="m130.02,61.06c0,.17.14.31.31.31"/></g><g id="ARC-404"><path class="cls-5" d="m130.11,61.06c0,.17.14.31.31.31"/></g><g id="ARC-405"><path class="cls-5" d="m130.43,49.21c-.17,0-.31.14-.31.31"/></g><g id="ARC-406"><path class="cls-5" d="m130.33,49.21c-.17,0-.31.14-.31.31"/></g><g id="LINE-218"><line class="cls-5" x1="121.85" y1="49.21" x2="131.76" y2="49.21"/></g><g id="LINE-219"><line class="cls-5" x1="130.02" y1="61.06" x2="130.02" y2="49.52"/></g><g id="LINE-220"><line class="cls-5" x1="130.11" y1="61.06" x2="130.11" y2="49.52"/></g><g id="ARC-407"><path class="cls-5" d="m125.49,54.14c-.03-.23-.23-.41-.46-.41"/></g><g id="ARC-408"><path class="cls-5" d="m125.03,56.85c.24,0,.44-.18.46-.41"/></g><g id="ARC-409"><path class="cls-5" d="m124.63,53.73c-.86,0-1.56.7-1.56,1.56s.7,1.56,1.56,1.56"/></g><g id="LINE-221"><line class="cls-5" x1="125.03" y1="53.73" x2="124.63" y2="53.73"/></g><g id="LINE-222"><line class="cls-5" x1="125.03" y1="56.85" x2="124.63" y2="56.85"/></g><g id="ARC-410"><path class="cls-5" d="m125.49,56.44c.09-.76.09-1.53,0-2.3"/></g><g id="ARC-411"><path class="cls-5" d="m126.49,59.65c.83,0,1.52-.65,1.56-1.49"/></g><g id="ARC-412"><path class="cls-5" d="m128.05,52.41c-.04-.83-.72-1.49-1.56-1.49"/></g><g id="ARC-413"><path class="cls-5" d="m128.05,58.17c.09-1.92.09-3.84,0-5.76"/></g><g id="LINE-223"><line class="cls-5" x1="121.85" y1="59.65" x2="126.49" y2="59.65"/></g><g id="LINE-224"><line class="cls-5" x1="121.85" y1="50.93" x2="126.49" y2="50.93"/></g><g id="ARC-414"><path class="cls-5" d="m121.85,50.93c-2.41,0-4.36,1.95-4.36,4.36s1.95,4.36,4.36,4.36h0"/></g><g id="ARC-415"><path class="cls-5" d="m121.85,49.21c-3.36,0-6.08,2.72-6.08,6.08s2.72,6.08,6.08,6.08h0"/></g><g id="LINE-225"><line class="cls-5" x1="121.85" y1="61.37" x2="131.76" y2="61.37"/></g><g id="ARC-416"><path class="cls-5" d="m131.7,61.15c0,.26.21.47.47.47"/></g><g id="CIRCLE-17"><circle class="cls-5" cx="272.41" cy="93.59" r=".62"/></g><g id="CIRCLE-18"><circle class="cls-5" cx="272.41" cy="75.2" r=".62"/></g><g id="CIRCLE-19"><circle class="cls-5" cx="272.41" cy="81.12" r=".62"/></g><g id="CIRCLE-20"><circle class="cls-5" cx="272.41" cy="99.83" r=".62"/></g><g id="CIRCLE-21"><circle class="cls-5" cx="268.05" cy="78" r=".94"/></g><g id="CIRCLE-22"><circle class="cls-5" cx="268.05" cy="96.71" r=".94"/></g><g id="LWPOLYLINE-10"><path class="cls-5" d="m266.8,71.15l1.55.46c.62.4,1.14.93,1.53,1.55.42.65.73,1.36.92,2.11.24.89.35,1.81.35,2.74s-.12,1.84-.35,2.74c-.2.75-.51,1.46-.92,2.11s-.92,1.15-1.53,1.55l-1.55.46-1.55-.46c-.62-.4-1.14-.93-1.53-1.55-.42-.65-.73-1.36-.92-2.11-.24-.89-.35-1.81-.35-2.74s.12-1.84.35-2.74c.2-.75.51-1.46.92-2.11s.92-1.15,1.53-1.55l1.55-.46Z"/></g><g id="LINE-226"><line class="cls-5" x1="266.8" y1="90.16" x2="268.35" y2="90.62"/></g><g id="ARC-417"><path class="cls-5" d="m269.89,92.17c-.39-.62-.92-1.15-1.53-1.55"/></g><g id="ARC-418"><path class="cls-5" d="m270.81,94.28c-.2-.75-.51-1.46-.92-2.11"/></g><g id="ARC-419"><path class="cls-5" d="m271.16,97.02c0-.92-.12-1.84-.35-2.74"/></g><g id="ARC-420"><path class="cls-5" d="m270.81,99.76c.24-.89.35-1.81.35-2.74"/></g><g id="ARC-421"><path class="cls-5" d="m269.89,101.87c.42-.65.73-1.36.92-2.11"/></g><g id="ARC-422"><path class="cls-5" d="m268.35,103.42c.62-.4,1.14-.93,1.53-1.55"/></g><g id="LINE-227"><line class="cls-5" x1="268.35" y1="103.42" x2="266.8" y2="103.88"/></g><g id="LINE-228"><line class="cls-5" x1="266.8" y1="103.88" x2="265.25" y2="103.42"/></g><g id="ARC-423"><path class="cls-5" d="m263.71,101.87c.39.62.92,1.15,1.53,1.55"/></g><g id="ARC-424"><path class="cls-5" d="m262.79,99.76c.2.75.51,1.46.92,2.11"/></g><g id="ARC-425"><path class="cls-5" d="m262.44,97.02c0,.92.12,1.84.35,2.74"/></g><g id="ARC-426"><path class="cls-5" d="m262.79,94.28c-.24.89-.35,1.81-.35,2.74"/></g><g id="ARC-427"><path class="cls-5" d="m263.71,92.17c-.42.65-.73,1.36-.92,2.11"/></g><g id="ARC-428"><path class="cls-5" d="m265.25,90.62c-.62.4-1.14.93-1.53,1.55"/></g><g id="LINE-229"><line class="cls-5" x1="265.25" y1="90.62" x2="266.8" y2="90.16"/></g><g id="CIRCLE-23"><circle class="cls-5" cx="272.41" cy="49.34" r=".62"/></g><g id="CIRCLE-24"><circle class="cls-5" cx="272.41" cy="30.95" r=".62"/></g><g id="CIRCLE-25"><circle class="cls-5" cx="272.41" cy="36.87" r=".62"/></g><g id="CIRCLE-26"><circle class="cls-5" cx="272.41" cy="55.57" r=".62"/></g><g id="CIRCLE-27"><circle class="cls-5" cx="268.05" cy="33.75" r=".94"/></g><g id="CIRCLE-28"><circle class="cls-5" cx="268.05" cy="52.46" r=".94"/></g><g id="LWPOLYLINE-11"><path class="cls-5" d="m266.8,26.89l1.55.46c.62.4,1.14.93,1.53,1.55.42.65.73,1.36.92,2.11.24.89.35,1.81.35,2.74s-.12,1.84-.35,2.74c-.2.75-.51,1.46-.92,2.11s-.92,1.15-1.53,1.55l-1.55.46-1.55-.46c-.62-.4-1.14-.93-1.53-1.55-.42-.65-.73-1.36-.92-2.11-.24-.89-.35-1.81-.35-2.74s.12-1.84.35-2.74c.2-.75.51-1.46.92-2.11s.92-1.15,1.53-1.55c0,0,1.55-.46,1.55-.46Z"/></g><g id="LWPOLYLINE-12"><path class="cls-5" d="m266.8,45.91l1.55.46c.62.4,1.14.93,1.53,1.55.42.65.73,1.36.92,2.11.24.89.35,1.81.35,2.74s-.12,1.84-.35,2.74c-.2.75-.51,1.46-.92,2.11s-.92,1.15-1.53,1.55l-1.55.46-1.55-.46c-.62-.4-1.14-.93-1.53-1.55-.42-.65-.73-1.36-.92-2.11-.24-.89-.35-1.81-.35-2.74s.12-1.84.35-2.74c.2-.75.51-1.46.92-2.11s.92-1.15,1.53-1.55l1.55-.46Z"/></g><g id="ARC-429"><path class="cls-5" d="m149.45,205.51c-.71,1.8-1.08,3.72-1.11,5.66"/></g><g id="ARC-430"><path class="cls-5" d="m145.81,211.17c0,.7.57,1.26,1.26,1.26s1.26-.57,1.26-1.26"/></g><g id="ARC-431"><path class="cls-5" d="m147.11,205.21c-.86,1.87-1.3,3.9-1.3,5.96"/></g><g id="ARC-432"><path class="cls-5" d="m146.99,205.31c-1.67,3.72-1.67,7.98,0,11.71"/></g><g id="ARC-433"><path class="cls-5" d="m147.5,204.9c-.18,0-.34.12-.39.3"/></g><g id="LINE-230"><line class="cls-5" x1="147.5" y1="204.9" x2="149.1" y2="204.9"/></g><g id="ARC-434"><path class="cls-5" d="m149.45,205.51c.11-.19.05-.44-.15-.55-.06-.04-.13-.05-.2-.05"/></g><g id="CIRCLE-29"><circle class="cls-5" cx="147.07" cy="211.17" r=".62"/></g><g id="LINE-231"><line class="cls-5" x1="143.95" y1="207.39" x2="143.95" y2="214.94"/></g><g id="ARC-435"><path class="cls-5" d="m145.82,205.52c-1.03,0-1.87.84-1.87,1.87"/></g><g id="LINE-232"><line class="cls-5" x1="145.82" y1="205.52" x2="146.6" y2="205.52"/></g><g id="ARC-436"><path class="cls-5" d="m146.6,205.52c.21,0,.39-.14.45-.34"/></g><g id="ARC-437"><path class="cls-5" d="m147.5,204.84c-.21,0-.39.14-.45.34"/></g><g id="LINE-233"><line class="cls-5" x1="147.5" y1="204.84" x2="149.1" y2="204.84"/></g><g id="ARC-438"><path class="cls-5" d="m149.56,205.3c0-.26-.21-.47-.47-.47"/></g><g id="LINE-234"><line class="cls-5" x1="149.56" y1="205.3" x2="149.56" y2="217.03"/></g><g id="ARC-439"><path class="cls-5" d="m143.95,214.94c0,1.03.84,1.87,1.87,1.87"/></g><g id="ARC-440"><path class="cls-5" d="m147.05,217.15c.06.2.24.34.45.34"/></g><g id="ARC-441"><path class="cls-5" d="m147.05,217.15c-.06-.2-.24-.34-.45-.34"/></g><g id="LINE-235"><line class="cls-5" x1="145.82" y1="216.81" x2="146.6" y2="216.81"/></g><g id="LINE-236"><line class="cls-5" x1="147.5" y1="217.49" x2="149.1" y2="217.49"/></g><g id="ARC-442"><path class="cls-5" d="m150.94,217.24c.17,0,.31-.14.31-.31"/></g><g id="ARC-443"><path class="cls-5" d="m150.84,217.24c.17,0,.31-.14.31-.31"/></g><g id="ARC-444"><path class="cls-5" d="m151.15,205.4c0-.17-.14-.31-.31-.31"/></g><g id="ARC-445"><path class="cls-5" d="m151.25,205.4c0-.17-.14-.31-.31-.31"/></g><g id="LINE-237"><line class="cls-5" x1="159.41" y1="205.09" x2="149.51" y2="205.09"/></g><g id="LINE-238"><line class="cls-5" x1="151.25" y1="216.93" x2="151.25" y2="205.4"/></g><g id="LINE-239"><line class="cls-5" x1="151.15" y1="216.93" x2="151.15" y2="205.4"/></g><g id="ARC-446"><path class="cls-5" d="m156.24,209.61c-.24,0-.44.18-.46.41"/></g><g id="ARC-447"><path class="cls-5" d="m155.78,212.31c.03.23.23.41.46.41"/></g><g id="ARC-448"><path class="cls-5" d="m156.64,212.72c.86,0,1.56-.7,1.56-1.56s-.7-1.56-1.56-1.56"/></g><g id="LINE-240"><line class="cls-5" x1="156.24" y1="209.61" x2="156.64" y2="209.61"/></g><g id="LINE-241"><line class="cls-5" x1="156.24" y1="212.72" x2="156.64" y2="212.72"/></g><g id="ARC-449"><path class="cls-5" d="m155.78,210.02c-.09.76-.09,1.53,0,2.3"/></g><g id="ARC-450"><path class="cls-5" d="m153.21,214.04c.04.83.72,1.49,1.56,1.49"/></g><g id="ARC-451"><path class="cls-5" d="m154.77,206.8c-.83,0-1.52.65-1.56,1.49"/></g><g id="ARC-452"><path class="cls-5" d="m153.21,208.29c-.09,1.92-.09,3.84,0,5.76"/></g><g id="LINE-242"><line class="cls-5" x1="159.41" y1="215.53" x2="154.77" y2="215.53"/></g><g id="LINE-243"><line class="cls-5" x1="159.41" y1="206.8" x2="154.77" y2="206.8"/></g><g id="ARC-453"><path class="cls-5" d="m159.41,215.53c2.41,0,4.36-1.95,4.36-4.36s-1.95-4.36-4.36-4.36h0"/></g><g id="ARC-454"><path class="cls-5" d="m159.41,217.24c3.36,0,6.08-2.72,6.08-6.08s-2.72-6.08-6.08-6.08h0"/></g><g id="LINE-244"><line class="cls-5" x1="159.41" y1="217.24" x2="149.51" y2="217.24"/></g><g id="ARC-455"><path class="cls-5" d="m149.1,217.49c.26,0,.47-.21.47-.47"/></g><g id="ARC-456"><path class="cls-5" d="m132.93,211.17c-.03-1.94-.41-3.85-1.11-5.66"/></g><g id="ARC-457"><path class="cls-5" d="m132.93,211.17c0,.7.57,1.26,1.26,1.26s1.26-.57,1.26-1.26"/></g><g id="ARC-458"><path class="cls-5" d="m135.46,211.17c0-2.06-.44-4.09-1.3-5.96"/></g><g id="ARC-459"><path class="cls-5" d="m134.27,217.02c1.67-3.72,1.67-7.98,0-11.71"/></g><g id="ARC-460"><path class="cls-5" d="m134.15,205.2c-.05-.18-.21-.3-.39-.3"/></g><g id="LINE-245"><line class="cls-5" x1="133.76" y1="204.9" x2="132.17" y2="204.9"/></g><g id="ARC-461"><path class="cls-5" d="m132.17,204.9c-.22,0-.41.18-.41.41,0,.07.02.14.05.2"/></g><g id="CIRCLE-30"><circle class="cls-5" cx="134.2" cy="211.17" r=".62"/></g><g id="LINE-246"><line class="cls-5" x1="137.31" y1="207.39" x2="137.31" y2="214.94"/></g><g id="ARC-462"><path class="cls-5" d="m137.31,207.39c0-1.03-.84-1.87-1.87-1.87"/></g><g id="LINE-247"><line class="cls-5" x1="135.44" y1="205.52" x2="134.67" y2="205.52"/></g><g id="ARC-463"><path class="cls-5" d="m134.21,205.18c.06.2.24.34.45.34"/></g><g id="ARC-464"><path class="cls-5" d="m134.21,205.18c-.06-.2-.24-.34-.45-.34"/></g><g id="LINE-248"><line class="cls-5" x1="133.76" y1="204.84" x2="132.17" y2="204.84"/></g><g id="ARC-465"><path class="cls-5" d="m132.17,204.84c-.26,0-.47.21-.47.47"/></g><g id="LINE-249"><line class="cls-5" x1="131.7" y1="205.3" x2="131.7" y2="217.03"/></g><g id="ARC-466"><path class="cls-5" d="m135.44,216.81c1.03,0,1.87-.84,1.87-1.87"/></g><g id="ARC-467"><path class="cls-5" d="m133.76,217.49c.21,0,.39-.14.45-.34"/></g><g id="ARC-468"><path class="cls-5" d="m134.67,216.81c-.21,0-.39.14-.45.34"/></g><g id="LINE-250"><line class="cls-5" x1="135.44" y1="216.81" x2="134.67" y2="216.81"/></g><g id="LINE-251"><line class="cls-5" x1="133.76" y1="217.49" x2="132.17" y2="217.49"/></g><g id="ARC-469"><path class="cls-5" d="m130.02,216.93c0,.17.14.31.31.31"/></g><g id="ARC-470"><path class="cls-5" d="m130.11,216.93c0,.17.14.31.31.31"/></g><g id="ARC-471"><path class="cls-5" d="m130.43,205.09c-.17,0-.31.14-.31.31"/></g><g id="ARC-472"><path class="cls-5" d="m130.33,205.09c-.17,0-.31.14-.31.31"/></g><g id="LINE-252"><line class="cls-5" x1="121.85" y1="205.09" x2="131.76" y2="205.09"/></g><g id="LINE-253"><line class="cls-5" x1="130.02" y1="216.93" x2="130.02" y2="205.4"/></g><g id="LINE-254"><line class="cls-5" x1="130.11" y1="216.93" x2="130.11" y2="205.4"/></g><g id="ARC-473"><path class="cls-5" d="m125.49,210.02c-.03-.23-.23-.41-.46-.41"/></g><g id="ARC-474"><path class="cls-5" d="m125.03,212.72c.24,0,.44-.18.46-.41"/></g><g id="ARC-475"><path class="cls-5" d="m124.63,209.61c-.86,0-1.56.7-1.56,1.56s.7,1.56,1.56,1.56"/></g><g id="LINE-255"><line class="cls-5" x1="125.03" y1="209.61" x2="124.63" y2="209.61"/></g><g id="LINE-256"><line class="cls-5" x1="125.03" y1="212.72" x2="124.63" y2="212.72"/></g><g id="ARC-476"><path class="cls-5" d="m125.49,212.31c.09-.76.09-1.53,0-2.3"/></g><g id="ARC-477"><path class="cls-5" d="m126.49,215.53c.83,0,1.52-.65,1.56-1.49"/></g><g id="ARC-478"><path class="cls-5" d="m128.05,208.29c-.04-.83-.72-1.49-1.56-1.49"/></g><g id="ARC-479"><path class="cls-5" d="m128.05,214.04c.09-1.92.09-3.84,0-5.76"/></g><g id="LINE-257"><line class="cls-5" x1="121.85" y1="215.53" x2="126.49" y2="215.53"/></g><g id="LINE-258"><line class="cls-5" x1="121.85" y1="206.8" x2="126.49" y2="206.8"/></g><g id="ARC-480"><path class="cls-5" d="m121.85,206.8c-2.41,0-4.36,1.95-4.36,4.36s1.95,4.36,4.36,4.36h0"/></g><g id="ARC-481"><path class="cls-5" d="m121.85,205.09c-3.36,0-6.08,2.72-6.08,6.08s2.72,6.08,6.08,6.08h0"/></g><g id="LINE-259"><line class="cls-5" x1="121.85" y1="217.24" x2="131.76" y2="217.24"/></g><g id="ARC-482"><path class="cls-5" d="m131.7,217.03c0,.26.21.47.47.47"/></g><g id="LINE-260"><line class="cls-5" x1="3.78" y1="161.42" x2="25.61" y2="161.42"/></g><g id="LINE-261"><line class="cls-5" x1="3.78" y1="14.16" x2="25.61" y2="14.16"/></g><g id="CIRCLE-31"><circle class="cls-5" cx="8.85" cy="137.84" r=".62"/></g><g id="CIRCLE-32"><circle class="cls-5" cx="8.85" cy="119.45" r=".62"/></g><g id="CIRCLE-33"><circle class="cls-5" cx="8.85" cy="125.37" r=".62"/></g><g id="CIRCLE-34"><circle class="cls-5" cx="8.85" cy="144.08" r=".62"/></g><g id="CIRCLE-35"><circle class="cls-5" cx="13.22" cy="122.26" r=".94"/></g><g id="CIRCLE-36"><circle class="cls-5" cx="13.22" cy="140.96" r=".94"/></g><g id="LWPOLYLINE-13"><path class="cls-5" d="m14.47,115.4l-1.55.46c-.62.4-1.14.93-1.53,1.55-.42.65-.73,1.36-.92,2.11-.24.89-.35,1.81-.35,2.74s.12,1.84.35,2.74c.2.75.51,1.46.92,2.11s.92,1.15,1.53,1.55l1.55.46,1.55-.46c.62-.4,1.14-.93,1.53-1.55.42-.65.73-1.36.92-2.11.24-.89.35-1.81.35-2.74s-.12-1.84-.35-2.74c-.2-.75-.51-1.46-.92-2.11s-.92-1.15-1.53-1.55c0,0-1.55-.46-1.55-.46Z"/></g><g id="LWPOLYLINE-14"><path class="cls-5" d="m14.47,134.41l-1.55.46c-.62.4-1.14.93-1.53,1.55-.42.65-.73,1.36-.92,2.11-.24.89-.35,1.81-.35,2.74s.12,1.84.35,2.74c.2.75.51,1.46.92,2.11s.92,1.15,1.53,1.55l1.55.46,1.55-.46c.62-.4,1.14-.93,1.53-1.55.42-.65.73-1.36.92-2.11.24-.89.35-1.81.35-2.74s-.12-1.84-.35-2.74c-.2-.75-.51-1.46-.92-2.11s-.92-1.15-1.53-1.55c0,0-1.55-.46-1.55-.46Z"/></g><g id="LINE-262"><line class="cls-5" x1="25.61" y1="14.16" x2="25.61" y2="161.42"/></g><g id="LWPOLYLINE-15"><polyline class="cls-5" points="3.78 161.42 5.36 161.42 5.36 14.16 3.78 14.16"/></g><g id="CIRCLE-37"><circle class="cls-5" cx="8.85" cy="93.59" r=".62"/></g><g id="CIRCLE-38"><circle class="cls-5" cx="8.85" cy="75.2" r=".62"/></g><g id="CIRCLE-39"><circle class="cls-5" cx="8.85" cy="81.12" r=".62"/></g><g id="CIRCLE-40"><circle class="cls-5" cx="8.85" cy="99.83" r=".62"/></g><g id="CIRCLE-41"><circle class="cls-5" cx="13.22" cy="78" r=".94"/></g><g id="CIRCLE-42"><circle class="cls-5" cx="13.22" cy="96.71" r=".94"/></g><g id="LWPOLYLINE-16"><path class="cls-5" d="m14.47,71.15l-1.55.46c-.62.4-1.14.93-1.53,1.55-.42.65-.73,1.36-.92,2.11-.24.89-.35,1.81-.35,2.74s.12,1.84.35,2.74c.2.75.51,1.46.92,2.11s.92,1.15,1.53,1.55l1.55.46,1.55-.46c.62-.4,1.14-.93,1.53-1.55.42-.65.73-1.36.92-2.11.24-.89.35-1.81.35-2.74s-.12-1.84-.35-2.74c-.2-.75-.51-1.46-.92-2.11s-.92-1.15-1.53-1.55c0,0-1.55-.46-1.55-.46Z"/></g><g id="LWPOLYLINE-17"><path class="cls-5" d="m14.47,90.16l-1.55.46c-.62.4-1.14.93-1.53,1.55-.42.65-.73,1.36-.92,2.11-.24.89-.35,1.81-.35,2.74s.12,1.84.35,2.74c.2.75.51,1.46.92,2.11s.92,1.15,1.53,1.55l1.55.46,1.55-.46c.62-.4,1.14-.93,1.53-1.55.42-.65.73-1.36.92-2.11.24-.89.35-1.81.35-2.74s-.12-1.84-.35-2.74c-.2-.75-.51-1.46-.92-2.11s-.92-1.15-1.53-1.55c0,0-1.55-.46-1.55-.46Z"/></g><g id="CIRCLE-43"><circle class="cls-5" cx="8.85" cy="49.34" r=".62"/></g><g id="CIRCLE-44"><circle class="cls-5" cx="8.85" cy="30.95" r=".62"/></g><g id="CIRCLE-45"><circle class="cls-5" cx="8.85" cy="36.87" r=".62"/></g><g id="CIRCLE-46"><circle class="cls-5" cx="8.85" cy="55.57" r=".62"/></g><g id="CIRCLE-47"><circle class="cls-5" cx="13.22" cy="33.75" r=".94"/></g><g id="CIRCLE-48"><circle class="cls-5" cx="13.22" cy="52.46" r=".94"/></g><g id="LWPOLYLINE-18"><path class="cls-5" d="m14.47,26.89l-1.55.46c-.62.4-1.14.93-1.53,1.55-.42.65-.73,1.36-.92,2.11-.24.89-.35,1.81-.35,2.74s.12,1.84.35,2.74c.2.75.51,1.46.92,2.11s.92,1.15,1.53,1.55l1.55.46,1.55-.46c.62-.4,1.14-.93,1.53-1.55.42-.65.73-1.36.92-2.11.24-.89.35-1.81.35-2.74s-.12-1.84-.35-2.74c-.2-.75-.51-1.46-.92-2.11s-.92-1.15-1.53-1.55c0,0-1.55-.46-1.55-.46Z"/></g><g id="LWPOLYLINE-19"><path class="cls-5" d="m14.47,45.91l-1.55.46c-.62.4-1.14.93-1.53,1.55-.42.65-.73,1.36-.92,2.11-.24.89-.35,1.81-.35,2.74s.12,1.84.35,2.74c.2.75.51,1.46.92,2.11s.92,1.15,1.53,1.55l1.55.46,1.55-.46c.62-.4,1.14-.93,1.53-1.55.42-.65.73-1.36.92-2.11.24-.89.35-1.81.35-2.74s-.12-1.84-.35-2.74c-.2-.75-.51-1.46-.92-2.11s-.92-1.15-1.53-1.55c0,0-1.55-.46-1.55-.46Z"/></g><g id="LINE-263"><line class="cls-3" x1="188.95" y1="42.42" x2="188.95" y2="11.71"/></g><g id="LINE-264"><line class="cls-3" x1="92.31" y1="74.93" x2="92.31" y2="61.13"/></g><g id="LINE-265"><line class="cls-3" x1="93.87" y1="73.6" x2="93.87" y2="69.6"/></g><g id="LINE-266"><line class="cls-3" x1="93.87" y1="68.04" x2="93.87" y2="61.13"/></g><g id="LINE-267"><line class="cls-3" x1="188.95" y1="73.6" x2="187.4" y2="73.6"/></g><g id="LINE-268"><line class="cls-3" x1="141.8" y1="100.77" x2="187.4" y2="100.77"/></g><g id="LINE-269"><line class="cls-3" x1="141.8" y1="99.21" x2="187.4" y2="99.21"/></g><g id="LINE-270"><line class="cls-3" x1="187.4" y1="99.21" x2="187.4" y2="92.3"/></g><g id="LINE-271"><line class="cls-3" x1="188.95" y1="100.77" x2="188.95" y2="92.3"/></g><g id="LINE-272"><line class="cls-3" x1="188.95" y1="92.3" x2="187.4" y2="92.3"/></g><g id="LINE-273"><line class="cls-3" x1="188.95" y1="104.77" x2="187.4" y2="104.77"/></g><g id="LINE-274"><line class="cls-3" x1="188.95" y1="104.77" x2="188.95" y2="100.77"/></g><g id="LINE-275"><line class="cls-3" x1="187.4" y1="104.77" x2="187.4" y2="100.77"/></g><g id="LINE-276"><line class="cls-3" x1="141.8" y1="68.04" x2="187.4" y2="68.04"/></g><g id="LINE-277"><line class="cls-3" x1="141.8" y1="69.6" x2="187.4" y2="69.6"/></g><g id="LINE-278"><line class="cls-3" x1="188.95" y1="61.13" x2="187.4" y2="61.13"/></g><g id="LINE-279"><line class="cls-3" x1="188.95" y1="73.6" x2="188.95" y2="61.13"/></g><g id="LINE-280"><line class="cls-3" x1="187.4" y1="73.6" x2="187.4" y2="69.6"/></g><g id="LINE-281"><line class="cls-3" x1="187.4" y1="68.04" x2="187.4" y2="61.13"/></g><g id="LINE-282"><line class="cls-3" x1="187.4" y1="40.86" x2="187.4" y2="11.71"/></g><g id="LINE-283"><line class="cls-3" x1="187.4" y1="232.55" x2="187.4" y2="225.47"/></g><g id="LINE-284"><line class="cls-3" x1="188.95" y1="232.55" x2="188.95" y2="225.47"/></g><g id="LINE-285"><line class="cls-3" x1="188.95" y1="225.47" x2="187.4" y2="225.47"/></g><g id="LINE-286"><line class="cls-3" x1="141.8" y1="131.95" x2="187.4" y2="131.95"/></g><g id="LINE-287"><line class="cls-3" x1="141.8" y1="130.39" x2="187.4" y2="130.39"/></g><g id="LINE-288"><line class="cls-3" x1="187.4" y1="130.39" x2="187.4" y2="123.48"/></g><g id="LINE-289"><line class="cls-3" x1="188.95" y1="131.95" x2="188.95" y2="123.48"/></g><g id="LINE-290"><line class="cls-3" x1="188.95" y1="123.48" x2="187.4" y2="123.48"/></g><g id="LINE-291"><line class="cls-3" x1="141.8" y1="163.12" x2="187.4" y2="163.12"/></g><g id="LINE-292"><line class="cls-3" x1="141.8" y1="161.56" x2="187.4" y2="161.56"/></g><g id="LINE-293"><line class="cls-3" x1="187.4" y1="161.56" x2="187.4" y2="154.65"/></g><g id="LINE-294"><line class="cls-3" x1="188.95" y1="163.12" x2="188.95" y2="154.65"/></g><g id="LINE-295"><line class="cls-3" x1="188.95" y1="154.65" x2="187.4" y2="154.65"/></g><g id="LINE-296"><line class="cls-3" x1="188.95" y1="135.95" x2="187.4" y2="135.95"/></g><g id="LINE-297"><line class="cls-3" x1="188.95" y1="135.95" x2="188.95" y2="131.95"/></g><g id="LINE-298"><line class="cls-3" x1="187.4" y1="135.95" x2="187.4" y2="131.95"/></g><g id="LINE-299"><line class="cls-3" x1="141.8" y1="194.3" x2="187.4" y2="194.3"/></g><g id="LINE-300"><line class="cls-3" x1="141.8" y1="192.74" x2="187.4" y2="192.74"/></g><g id="LINE-301"><line class="cls-3" x1="187.4" y1="192.74" x2="187.4" y2="185.83"/></g><g id="LINE-302"><line class="cls-3" x1="188.95" y1="194.3" x2="188.95" y2="185.83"/></g><g id="LINE-303"><line class="cls-3" x1="188.95" y1="185.83" x2="187.4" y2="185.83"/></g><g id="LINE-304"><line class="cls-3" x1="188.95" y1="167.12" x2="187.4" y2="167.12"/></g><g id="LINE-305"><line class="cls-3" x1="188.95" y1="167.12" x2="188.95" y2="163.12"/></g><g id="LINE-306"><line class="cls-3" x1="187.4" y1="167.12" x2="187.4" y2="163.12"/></g><g id="LINE-307"><line class="cls-3" x1="188.95" y1="200.54" x2="188.95" y2="194.3"/></g><g id="LINE-308"><line class="cls-3" x1="187.4" y1="200.54" x2="187.4" y2="194.3"/></g><g id="LINE-309"><line class="cls-3" x1="188.95" y1="200.54" x2="187.4" y2="200.54"/></g><g id="LINE-310"><line class="cls-3" x1="139.46" y1="69.6" x2="93.87" y2="69.6"/></g><g id="LINE-311"><line class="cls-3" x1="139.46" y1="68.04" x2="93.87" y2="68.04"/></g><g id="LINE-312"><line class="cls-3" x1="92.31" y1="200.54" x2="93.87" y2="200.54"/></g><g id="LINE-313"><line class="cls-3" x1="92.31" y1="225.47" x2="93.87" y2="225.47"/></g><g id="LINE-314"><line class="cls-3" x1="92.31" y1="232.55" x2="92.31" y2="225.47"/></g><g id="LINE-315"><line class="cls-3" x1="93.87" y1="200.54" x2="93.87" y2="194.3"/></g><g id="LINE-316"><line class="cls-3" x1="92.31" y1="200.54" x2="92.31" y2="194.3"/></g><g id="LINE-317"><line class="cls-3" x1="93.87" y1="232.55" x2="93.87" y2="225.47"/></g><g id="LINE-318"><line class="cls-3" x1="93.87" y1="167.12" x2="93.87" y2="163.12"/></g><g id="LINE-319"><line class="cls-3" x1="92.31" y1="167.12" x2="92.31" y2="163.12"/></g><g id="LINE-320"><line class="cls-3" x1="92.31" y1="167.12" x2="93.87" y2="167.12"/></g><g id="LINE-321"><line class="cls-3" x1="92.31" y1="185.83" x2="93.87" y2="185.83"/></g><g id="LINE-322"><line class="cls-3" x1="92.31" y1="194.3" x2="92.31" y2="185.83"/></g><g id="LINE-323"><line class="cls-3" x1="93.87" y1="192.74" x2="93.87" y2="185.83"/></g><g id="LINE-324"><line class="cls-3" x1="139.46" y1="192.74" x2="93.87" y2="192.74"/></g><g id="LINE-325"><line class="cls-3" x1="139.46" y1="194.3" x2="93.87" y2="194.3"/></g><g id="LINE-326"><line class="cls-3" x1="93.87" y1="135.95" x2="93.87" y2="131.95"/></g><g id="LINE-327"><line class="cls-3" x1="92.31" y1="135.95" x2="92.31" y2="131.95"/></g><g id="LINE-328"><line class="cls-3" x1="92.31" y1="135.95" x2="93.87" y2="135.95"/></g><g id="LINE-329"><line class="cls-3" x1="92.31" y1="154.65" x2="93.87" y2="154.65"/></g><g id="LINE-330"><line class="cls-3" x1="92.31" y1="163.12" x2="92.31" y2="154.65"/></g><g id="LINE-331"><line class="cls-3" x1="93.87" y1="161.56" x2="93.87" y2="154.65"/></g><g id="LINE-332"><line class="cls-3" x1="139.46" y1="161.56" x2="93.87" y2="161.56"/></g><g id="LINE-333"><line class="cls-3" x1="139.46" y1="163.12" x2="93.87" y2="163.12"/></g><g id="LINE-334"><line class="cls-3" x1="93.87" y1="104.77" x2="93.87" y2="100.77"/></g><g id="LINE-335"><line class="cls-3" x1="92.31" y1="104.77" x2="92.31" y2="100.77"/></g><g id="LINE-336"><line class="cls-3" x1="92.31" y1="104.77" x2="93.87" y2="104.77"/></g><g id="LINE-337"><line class="cls-3" x1="92.31" y1="123.48" x2="93.87" y2="123.48"/></g><g id="LINE-338"><line class="cls-3" x1="92.31" y1="131.95" x2="92.31" y2="123.48"/></g><g id="LINE-339"><line class="cls-3" x1="93.87" y1="130.39" x2="93.87" y2="123.48"/></g><g id="LINE-340"><line class="cls-3" x1="139.46" y1="130.39" x2="93.87" y2="130.39"/></g><g id="LINE-341"><line class="cls-3" x1="139.46" y1="131.95" x2="93.87" y2="131.95"/></g><g id="LINE-342"><line class="cls-3" x1="92.31" y1="92.3" x2="93.87" y2="92.3"/></g><g id="LINE-343"><line class="cls-3" x1="92.31" y1="100.77" x2="92.31" y2="92.3"/></g><g id="LINE-344"><line class="cls-3" x1="93.87" y1="99.21" x2="93.87" y2="92.3"/></g><g id="LINE-345"><line class="cls-3" x1="139.46" y1="99.21" x2="93.87" y2="99.21"/></g><g id="LINE-346"><line class="cls-3" x1="139.46" y1="100.77" x2="93.87" y2="100.77"/></g><g id="LINE-347"><line class="cls-3" x1="92.31" y1="73.6" x2="93.87" y2="73.6"/></g><g id="LINE-348"><line class="cls-3" x1="92.31" y1="61.13" x2="93.87" y2="61.13"/></g><g id="LINE-349"><line class="cls-3" x1="92.31" y1="42.42" x2="93.87" y2="42.42"/></g><g id="LINE-350"><line class="cls-3" x1="187.4" y1="40.86" x2="92.31" y2="40.86"/></g><g id="LINE-351"><line class="cls-3" x1="188.95" y1="42.42" x2="92.31" y2="42.42"/></g><g id="LINE-352"><line class="cls-3" x1="92.31" y1="42.42" x2="92.31" y2="40.86"/></g><g id="LINE-353"><line class="cls-2" x1="234.84" y1="232.55" x2="141.8" y2="232.55"/></g><g id="LINE-354"><line class="cls-2" x1="139.46" y1="232.55" x2="46.43" y2="232.55"/></g><g id="LINE-355"><line class="cls-2" x1="234.84" y1="235.64" x2="46.43" y2="235.64"/></g><g id="LINE-356"><line class="cls-2" x1="141.8" y1="42.42" x2="141.8" y2="232.55"/></g><g id="LINE-357"><line class="cls-2" x1="139.46" y1="42.42" x2="139.46" y2="232.55"/></g><g id="LINE-358"><line class="cls-2" x1="277.48" y1="11.71" x2="3.78" y2="11.71"/></g><g id="LINE-359"><line class="cls-2" x1="277.48" y1="11.71" x2="277.48" y2="232.55"/></g><g id="LINE-360"><line class="cls-2" x1="3.78" y1="11.71" x2="3.78" y2="232.55"/></g><g id="LINE-361"><line class="cls-2" x1="3.78" y1="232.55" x2="11.82" y2="232.55"/></g><g id="LINE-362"><line class="cls-2" x1="277.48" y1="232.55" x2="269.45" y2="232.55"/></g><g id="LINE-363"><line class="cls-2" x1="280.57" y1="235.64" x2="269.44" y2="235.64"/></g><g id="LINE-364"><line class="cls-2" x1="11.82" y1="235.64" x2=".7" y2="235.64"/></g><g id="LINE-365"><line class="cls-1" x1="280.57" y1="8.62" x2=".7" y2="8.62"/></g><g id="LINE-366"><line class="cls-1" x1="280.57" y1="8.62" x2="280.57" y2="235.64"/></g><g id="LINE-367"><line class="cls-1" x1=".7" y1="8.62" x2=".7" y2="235.64"/></g></svg>