<?xml version="1.0" encoding="UTF-8"?><svg id="PAVIMENTAZIONE_-_flooring" xmlns="http://www.w3.org/2000/svg" width="595.28" height="405" viewBox="0 0 595.28 405"><defs><style>.cls-1{stroke:#848484;}.cls-1,.cls-2,.cls-3,.cls-4,.cls-5,.cls-6{fill:none;stroke-linecap:round;stroke-linejoin:round;}.cls-1,.cls-3,.cls-4{stroke-width:.14px;}.cls-2{stroke:#000;stroke-width:1.13px;}.cls-3{stroke:#333;}.cls-4{stroke:#ff0;}.cls-5{stroke:#66c;stroke-width:.71px;}.cls-6{stroke:#5b5b5b;stroke-width:.26px;}</style></defs><g id="LINE"><line class="cls-2" x1="110.65" y1="400.57" x2="484" y2="400.57"/></g><g id="LINE-2"><line class="cls-2" x1="484" y1="386.7" x2="484" y2="400.57"/></g><g id="LINE-3"><line class="cls-2" x1="148.66" y1="148.27" x2="148.66" y2="115.35"/></g><g id="LINE-4"><line class="cls-2" x1="157.91" y1="41.22" x2="148.66" y2="41.22"/></g><g id="LINE-5"><line class="cls-2" x1="157.91" y1="26.8" x2="157.91" y2="41.22"/></g><g id="LINE-6"><line class="cls-2" x1="157.91" y1="115.35" x2="148.66" y2="115.35"/></g><g id="LWPOLYLINE"><polyline class="cls-2" points="292.7 124.6 157.91 124.6 157.91 115.35"/></g><g id="LINE-7"><line class="cls-2" x1="292.7" y1="124.6" x2="292.7" y2="26.8"/></g><g id="LINE-8"><line class="cls-2" x1="157.91" y1="231.64" x2="157.91" y2="222.4"/></g><g id="LINE-9"><line class="cls-2" x1="292.7" y1="231.64" x2="157.91" y2="231.64"/></g><g id="LINE-10"><line class="cls-2" x1="148.66" y1="231.64" x2="148.66" y2="222.4"/></g><g id="LINE-11"><line class="cls-2" x1="157.91" y1="148.27" x2="148.66" y2="148.27"/></g><g id="LINE-12"><line class="cls-2" x1="157.91" y1="133.85" x2="157.91" y2="148.27"/></g><g id="LINE-13"><line class="cls-2" x1="157.91" y1="133.85" x2="292.7" y2="133.85"/></g><g id="LINE-14"><line class="cls-2" x1="157.91" y1="222.4" x2="148.66" y2="222.4"/></g><g id="LINE-15"><line class="cls-2" x1="292.7" y1="231.64" x2="292.7" y2="133.85"/></g><g id="LINE-16"><line class="cls-2" x1="157.91" y1="26.8" x2="292.7" y2="26.8"/></g><g id="LINE-17"><line class="cls-2" x1="148.66" y1="26.8" x2="148.66" y2="41.22"/></g><g id="LINE-18"><line class="cls-2" x1="148.66" y1="231.64" x2="118.18" y2="231.64"/></g><g id="LINE-19"><line class="cls-2" x1="118.18" y1="240.89" x2="118.18" y2="231.64"/></g><g id="LINE-20"><line class="cls-2" x1="19.19" y1="386.7" x2="27.28" y2="386.7"/></g><g id="LINE-21"><line class="cls-2" x1="27.28" y1="386.7" x2="19.19" y2="386.7"/></g><g id="LINE-22"><line class="cls-2" x1="19.19" y1="26.8" x2="148.66" y2="26.8"/></g><g id="LINE-23"><line class="cls-2" x1="19.19" y1="26.8" x2="19.19" y2="386.7"/></g><g id="LINE-24"><line class="cls-2" x1="276.07" y1="386.7" x2="110.65" y2="386.7"/></g><g id="LINE-25"><line class="cls-2" x1="276.07" y1="240.89" x2="118.18" y2="240.89"/></g><g id="LINE-26"><line class="cls-2" x1="309.33" y1="386.7" x2="285.32" y2="386.7"/></g><g id="LINE-27"><line class="cls-2" x1="285.32" y1="386.7" x2="285.32" y2="240.89"/></g><g id="LINE-28"><line class="cls-2" x1="276.07" y1="386.7" x2="276.07" y2="240.89"/></g><g id="LINE-29"><line class="cls-2" x1="301.95" y1="240.89" x2="285.32" y2="240.89"/></g><g id="LINE-30"><line class="cls-2" x1="27.28" y1="400.57" x2=".7" y2="400.57"/></g><g id="LINE-31"><line class="cls-2" x1="27.28" y1="386.7" x2="27.28" y2="400.57"/></g><g id="LINE-32"><line class="cls-2" x1="110.65" y1="386.7" x2="110.65" y2="400.57"/></g><g id="LINE-33"><line class="cls-2" x1="567.37" y1="386.7" x2="567.37" y2="400.57"/></g><g id="LINE-34"><line class="cls-2" x1="567.37" y1="400.57" x2="593.96" y2="400.57"/></g><g id="LINE-35"><line class="cls-2" x1="301.95" y1="240.89" x2="309.33" y2="240.89"/></g><g id="LINE-36"><line class="cls-2" x1="318.58" y1="386.7" x2="318.58" y2="240.89"/></g><g id="LINE-37"><line class="cls-2" x1="309.33" y1="386.7" x2="309.33" y2="240.89"/></g><g id="LINE-38"><line class="cls-2" x1="318.58" y1="240.89" x2="476.47" y2="240.89"/></g><g id="LINE-39"><line class="cls-2" x1="318.58" y1="386.7" x2="484" y2="386.7"/></g><g id="LINE-40"><line class="cls-2" x1="575.46" y1="26.8" x2="575.46" y2="386.7"/></g><g id="LINE-41"><line class="cls-2" x1="575.46" y1="26.8" x2="445.99" y2="26.8"/></g><g id="LINE-42"><line class="cls-2" x1="567.37" y1="386.7" x2="575.46" y2="386.7"/></g><g id="LINE-43"><line class="cls-2" x1="575.46" y1="386.7" x2="567.37" y2="386.7"/></g><g id="LINE-44"><line class="cls-2" x1="476.47" y1="240.89" x2="476.47" y2="231.64"/></g><g id="LINE-45"><line class="cls-2" x1="445.99" y1="231.64" x2="476.47" y2="231.64"/></g><g id="LINE-46"><line class="cls-2" x1="445.99" y1="26.8" x2="445.99" y2="41.22"/></g><g id="LINE-47"><line class="cls-2" x1="436.75" y1="26.8" x2="301.95" y2="26.8"/></g><g id="LINE-48"><line class="cls-2" x1="301.95" y1="231.64" x2="301.95" y2="133.85"/></g><g id="LINE-49"><line class="cls-2" x1="436.75" y1="222.4" x2="445.99" y2="222.4"/></g><g id="LINE-50"><line class="cls-2" x1="436.75" y1="133.85" x2="301.95" y2="133.85"/></g><g id="LINE-51"><line class="cls-2" x1="436.75" y1="133.85" x2="436.75" y2="148.27"/></g><g id="LINE-52"><line class="cls-2" x1="436.75" y1="148.27" x2="445.99" y2="148.27"/></g><g id="LINE-53"><line class="cls-2" x1="445.99" y1="231.64" x2="445.99" y2="222.4"/></g><g id="LINE-54"><line class="cls-2" x1="301.95" y1="231.64" x2="436.75" y2="231.64"/></g><g id="LINE-55"><line class="cls-2" x1="436.75" y1="231.64" x2="436.75" y2="222.4"/></g><g id="LINE-56"><line class="cls-2" x1="301.95" y1="124.6" x2="301.95" y2="26.8"/></g><g id="LWPOLYLINE-2"><polyline class="cls-2" points="301.95 124.6 436.75 124.6 436.75 115.35"/></g><g id="LINE-57"><line class="cls-2" x1="436.75" y1="115.35" x2="445.99" y2="115.35"/></g><g id="LINE-58"><line class="cls-2" x1="436.75" y1="26.8" x2="436.75" y2="41.22"/></g><g id="LINE-59"><line class="cls-2" x1="436.75" y1="41.22" x2="445.99" y2="41.22"/></g><g id="LINE-60"><line class="cls-2" x1="445.99" y1="148.27" x2="445.99" y2="115.35"/></g><g id="LINE-61"><line class="cls-2" x1=".7" y1="8.3" x2=".7" y2="400.57"/></g><g id="LINE-62"><line class="cls-2" x1=".7" y1="8.3" x2="593.96" y2="8.3"/></g><g id="LINE-63"><line class="cls-2" x1="593.96" y1="8.3" x2="593.96" y2="400.57"/></g><g id="LWPOLYLINE-3"><rect class="cls-4" x="157.91" y="110.73" width="73.98" height="4.62"/></g><g id="LWPOLYLINE-4"><rect class="cls-4" x="157.91" y="217.77" width="73.98" height="4.62"/></g><g id="LINE-64"><line class="cls-1" x1="27.28" y1="393.63" x2="30.06" y2="393.63"/></g><g id="LWPOLYLINE-5"><rect class="cls-4" x="30.06" y="315.94" width="4.62" height="77.69"/></g><g id="LWPOLYLINE-6"><rect class="cls-4" x="559.98" y="315.94" width="4.62" height="77.69"/></g><g id="LINE-65"><line class="cls-1" x1="567.37" y1="393.63" x2="564.6" y2="393.63"/></g><g id="LWPOLYLINE-7"><rect class="cls-4" x="362.76" y="217.77" width="73.98" height="4.62"/></g><g id="LWPOLYLINE-8"><rect class="cls-4" x="362.76" y="110.73" width="73.98" height="4.62"/></g><g id="ARC"><path class="cls-6" d="m231.89,110.73c-2.44-39.07-34.84-69.5-73.98-69.5"/></g><g id="ARC-2"><path class="cls-6" d="m231.89,217.77c-2.44-39.07-34.84-69.5-73.98-69.5"/></g><g id="ARC-3"><path class="cls-6" d="m107.88,393.63c0-41.19-32.09-75.24-73.2-77.69"/></g><g id="LINE-66"><line class="cls-6" x1="110.65" y1="393.63" x2="107.88" y2="393.63"/></g><g id="LINE-67"><line class="cls-6" x1="484" y1="393.63" x2="486.77" y2="393.63"/></g><g id="ARC-4"><path class="cls-6" d="m559.98,315.94c-41.11,2.45-73.2,36.5-73.2,77.69"/></g><g id="ARC-5"><path class="cls-6" d="m436.75,148.27c-39.14,0-71.54,30.44-73.98,69.5"/></g><g id="ARC-6"><path class="cls-6" d="m436.75,41.22c-39.14,0-71.54,30.44-73.98,69.5"/></g><g id="ARC-7"><path class="cls-5" d="m265.74,193.53c6,.02,10.88-4.83,10.9-10.83s-4.83-10.88-10.83-10.9"/></g><g id="LINE-68"><line class="cls-5" x1="275.74" y1="182.69" x2="260.15" y2="182.64"/></g><g id="ARC-8"><path class="cls-5" d="m256.04,166.44c-8.94-.03-16.21,7.19-16.24,16.13s7.19,16.21,16.13,16.24"/></g><g id="ARC-9"><path class="cls-5" d="m254.68,171.76c-6-.02-10.88,4.83-10.9,10.83s4.83,10.88,10.83,10.9"/></g><g id="ARC-10"><path class="cls-5" d="m268.91,186.37c1.02,0,1.85-.82,1.86-1.84"/></g><g id="ARC-11"><path class="cls-5" d="m267.96,186.37c1.02,0,1.85-.82,1.86-1.84"/></g><g id="LINE-69"><line class="cls-5" x1="267.88" y1="186.37" x2="268.91" y2="186.37"/></g><g id="ARC-12"><path class="cls-5" d="m270.78,180.83c0-1.02-.82-1.85-1.84-1.86h0"/></g><g id="LINE-70"><line class="cls-5" x1="268.94" y1="178.97" x2="267.91" y2="178.97"/></g><g id="ARC-13"><path class="cls-5" d="m269.83,180.83c0-1.02-.82-1.85-1.84-1.86h0"/></g><g id="LINE-71"><line class="cls-5" x1="265.12" y1="181.73" x2="265.12" y2="183.58"/></g><g id="ARC-14"><path class="cls-5" d="m267.91,178.97c-1.53,0-2.78,1.23-2.78,2.76"/></g><g id="LINE-72"><line class="cls-5" x1="270.77" y1="184.53" x2="270.78" y2="180.83"/></g><g id="LINE-73"><line class="cls-5" x1="269.81" y1="184.52" x2="269.83" y2="180.83"/></g><g id="LINE-74"><line class="cls-5" x1="267.98" y1="174.42" x2="267.92" y2="190.01"/></g><g id="ARC-15"><path class="cls-5" d="m265.12,183.58c0,1.53,1.23,2.78,2.76,2.78h0"/></g><g id="LINE-75"><line class="cls-5" x1="265.74" y1="193.53" x2="254.6" y2="193.49"/></g><g id="LINE-76"><line class="cls-5" x1="255.93" y1="198.81" x2="269.8" y2="198.86"/></g><g id="LINE-77"><line class="cls-5" x1="265.82" y1="171.79" x2="254.68" y2="171.76"/></g><g id="LINE-78"><line class="cls-5" x1="269.91" y1="166.49" x2="256.04" y2="166.44"/></g><g id="LINE-79"><line class="cls-5" x1="290.64" y1="190.14" x2="284.22" y2="190.12"/></g><g id="LINE-80"><line class="cls-5" x1="290.69" y1="175.35" x2="284.27" y2="175.33"/></g><g id="LINE-81"><line class="cls-5" x1="290.64" y1="190.14" x2="290.69" y2="175.35"/></g><g id="ARC-16"><path class="cls-5" d="m269.8,198.86c8.94.03,16.21-7.19,16.24-16.13s-7.19-16.21-16.13-16.24"/></g><g id="ARC-17"><path class="cls-5" d="m265.74,86.48c6,.02,10.88-4.83,10.9-10.83s-4.83-10.88-10.83-10.9"/></g><g id="LINE-82"><line class="cls-5" x1="275.74" y1="75.65" x2="260.15" y2="75.59"/></g><g id="ARC-18"><path class="cls-5" d="m256.04,59.4c-8.94-.03-16.21,7.19-16.24,16.13s7.19,16.21,16.13,16.24"/></g><g id="ARC-19"><path class="cls-5" d="m254.68,64.71c-6-.02-10.88,4.83-10.9,10.83s4.83,10.88,10.83,10.9"/></g><g id="ARC-20"><path class="cls-5" d="m268.91,79.32c1.02,0,1.85-.82,1.86-1.84"/></g><g id="ARC-21"><path class="cls-5" d="m267.96,79.32c1.02,0,1.85-.82,1.86-1.84"/></g><g id="LINE-83"><line class="cls-5" x1="267.88" y1="79.32" x2="268.91" y2="79.32"/></g><g id="ARC-22"><path class="cls-5" d="m270.78,73.78c0-1.02-.82-1.85-1.84-1.86h0"/></g><g id="LINE-84"><line class="cls-5" x1="268.94" y1="71.93" x2="267.91" y2="71.92"/></g><g id="ARC-23"><path class="cls-5" d="m269.83,73.78c0-1.02-.82-1.85-1.84-1.86h0"/></g><g id="LINE-85"><line class="cls-5" x1="265.12" y1="74.69" x2="265.12" y2="76.53"/></g><g id="ARC-24"><path class="cls-5" d="m267.91,71.92c-1.53,0-2.78,1.23-2.78,2.76"/></g><g id="LINE-86"><line class="cls-5" x1="270.77" y1="77.48" x2="270.78" y2="73.78"/></g><g id="LINE-87"><line class="cls-5" x1="269.81" y1="77.48" x2="269.83" y2="73.78"/></g><g id="LINE-88"><line class="cls-5" x1="267.98" y1="67.37" x2="267.92" y2="82.96"/></g><g id="ARC-25"><path class="cls-5" d="m265.12,76.53c0,1.53,1.23,2.78,2.76,2.78h0"/></g><g id="LINE-89"><line class="cls-5" x1="265.74" y1="86.48" x2="254.6" y2="86.44"/></g><g id="LINE-90"><line class="cls-5" x1="255.93" y1="91.76" x2="269.8" y2="91.81"/></g><g id="LINE-91"><line class="cls-5" x1="265.82" y1="64.75" x2="254.68" y2="64.71"/></g><g id="LINE-92"><line class="cls-5" x1="269.91" y1="59.44" x2="256.04" y2="59.4"/></g><g id="LINE-93"><line class="cls-5" x1="290.64" y1="83.1" x2="284.22" y2="83.07"/></g><g id="LINE-94"><line class="cls-5" x1="290.69" y1="68.3" x2="284.27" y2="68.28"/></g><g id="LINE-95"><line class="cls-5" x1="290.64" y1="83.1" x2="290.69" y2="68.3"/></g><g id="ARC-26"><path class="cls-5" d="m269.8,91.81c8.94.03,16.21-7.19,16.24-16.13s-7.19-16.21-16.13-16.24"/></g><g id="LINE-96"><line class="cls-5" x1="229.84" y1="386.7" x2="229.84" y2="240.89"/></g><g id="ARC-27"><path class="cls-5" d="m241.19,319.66c-7.05,9.44-7.05,22.39,0,31.83"/></g><g id="ARC-28"><path class="cls-5" d="m241.19,351.49c3.09,4.23,9.03,5.16,13.26,2.07,2.25-1.64,3.66-4.18,3.87-6.96"/></g><g id="LINE-97"><line class="cls-5" x1="258.32" y1="324.55" x2="258.32" y2="346.6"/></g><g id="ARC-29"><path class="cls-5" d="m258.32,324.55c-.39-5.23-4.95-9.15-10.17-8.76-2.77.21-5.32,1.62-6.96,3.87"/></g><g id="CIRCLE"><circle class="cls-5" cx="262.36" cy="329.17" r=".96"/></g><g id="CIRCLE-2"><circle class="cls-5" cx="262.81" cy="335.57" r="1.12"/></g><g id="CIRCLE-3"><circle class="cls-5" cx="262.36" cy="341.98" r=".96"/></g><g id="CIRCLE-4"><circle class="cls-5" cx="252.69" cy="335.57" r="1.44"/></g><g id="CIRCLE-5"><circle class="cls-5" cx="252.69" cy="335.57" r="2.24"/></g><g id="ARC-30"><path class="cls-5" d="m241.19,268.53c-7.05,9.44-7.05,22.39,0,31.83"/></g><g id="ARC-31"><path class="cls-5" d="m241.19,300.36c3.09,4.23,9.03,5.16,13.26,2.07,2.25-1.64,3.66-4.18,3.87-6.96"/></g><g id="LINE-98"><line class="cls-5" x1="258.32" y1="273.42" x2="258.32" y2="295.47"/></g><g id="ARC-32"><path class="cls-5" d="m258.32,273.42c-.39-5.23-4.95-9.15-10.17-8.76-2.77.21-5.32,1.62-6.96,3.87"/></g><g id="CIRCLE-6"><circle class="cls-5" cx="262.36" cy="278.04" r=".96"/></g><g id="CIRCLE-7"><circle class="cls-5" cx="262.81" cy="284.45" r="1.12"/></g><g id="CIRCLE-8"><circle class="cls-5" cx="262.36" cy="290.85" r=".96"/></g><g id="CIRCLE-9"><circle class="cls-5" cx="252.69" cy="284.45" r="1.44"/></g><g id="CIRCLE-10"><circle class="cls-5" cx="252.69" cy="284.45" r="2.24"/></g><g id="CIRCLE-11"><circle class="cls-5" cx="341.97" cy="284.45" r="2.24"/></g><g id="CIRCLE-12"><circle class="cls-5" cx="341.97" cy="284.45" r="1.44"/></g><g id="CIRCLE-13"><circle class="cls-5" cx="332.29" cy="290.85" r=".96"/></g><g id="CIRCLE-14"><circle class="cls-5" cx="331.85" cy="284.45" r="1.12"/></g><g id="CIRCLE-15"><circle class="cls-5" cx="332.29" cy="278.04" r=".96"/></g><g id="ARC-33"><path class="cls-5" d="m353.46,268.53c-3.09-4.23-9.03-5.16-13.26-2.07-2.25,1.64-3.66,4.18-3.87,6.96"/></g><g id="LINE-99"><line class="cls-5" x1="336.33" y1="273.42" x2="336.33" y2="295.47"/></g><g id="ARC-34"><path class="cls-5" d="m336.33,295.47c.39,5.23,4.95,9.15,10.17,8.76,2.77-.21,5.32-1.62,6.96-3.87"/></g><g id="ARC-35"><path class="cls-5" d="m353.46,300.36c7.05-9.44,7.05-22.39,0-31.83"/></g><g id="CIRCLE-16"><circle class="cls-5" cx="341.97" cy="335.57" r="2.24"/></g><g id="CIRCLE-17"><circle class="cls-5" cx="341.97" cy="335.57" r="1.44"/></g><g id="CIRCLE-18"><circle class="cls-5" cx="332.29" cy="341.98" r=".96"/></g><g id="CIRCLE-19"><circle class="cls-5" cx="331.85" cy="335.57" r="1.12"/></g><g id="CIRCLE-20"><circle class="cls-5" cx="332.29" cy="329.17" r=".96"/></g><g id="ARC-36"><path class="cls-5" d="m353.46,319.66c-3.09-4.23-9.03-5.16-13.26-2.07-2.25,1.64-3.66,4.18-3.87,6.96"/></g><g id="LINE-100"><line class="cls-5" x1="336.33" y1="324.55" x2="336.33" y2="346.6"/></g><g id="ARC-37"><path class="cls-5" d="m336.33,346.6c.39,5.23,4.95,9.15,10.17,8.76,2.77-.21,5.32-1.62,6.96-3.87"/></g><g id="ARC-38"><path class="cls-5" d="m353.46,351.49c7.05-9.44,7.05-22.39,0-31.83"/></g><g id="LINE-101"><line class="cls-5" x1="364.82" y1="386.7" x2="364.82" y2="240.89"/></g><g id="ARC-39"><path class="cls-5" d="m324.75,59.44c-8.94.03-16.16,7.3-16.13,16.24s7.3,16.16,16.24,16.13"/></g><g id="LINE-102"><line class="cls-5" x1="304.02" y1="83.1" x2="303.97" y2="68.3"/></g><g id="LINE-103"><line class="cls-5" x1="303.97" y1="68.3" x2="310.38" y2="68.28"/></g><g id="LINE-104"><line class="cls-5" x1="304.02" y1="83.1" x2="310.43" y2="83.07"/></g><g id="LINE-105"><line class="cls-5" x1="324.75" y1="59.44" x2="338.62" y2="59.4"/></g><g id="LINE-106"><line class="cls-5" x1="328.84" y1="64.75" x2="339.98" y2="64.71"/></g><g id="LINE-107"><line class="cls-5" x1="338.73" y1="91.76" x2="324.86" y2="91.81"/></g><g id="LINE-108"><line class="cls-5" x1="328.91" y1="86.48" x2="340.05" y2="86.44"/></g><g id="ARC-40"><path class="cls-5" d="m326.77,79.32c1.53,0,2.77-1.25,2.76-2.78h0"/></g><g id="LINE-109"><line class="cls-5" x1="326.68" y1="67.37" x2="326.73" y2="82.96"/></g><g id="LINE-110"><line class="cls-5" x1="324.84" y1="77.48" x2="324.83" y2="73.78"/></g><g id="LINE-111"><line class="cls-5" x1="323.89" y1="77.48" x2="323.87" y2="73.78"/></g><g id="ARC-41"><path class="cls-5" d="m329.53,74.69c0-1.53-1.25-2.77-2.78-2.76"/></g><g id="LINE-112"><line class="cls-5" x1="329.53" y1="74.69" x2="329.54" y2="76.53"/></g><g id="ARC-42"><path class="cls-5" d="m326.67,71.92c-1.02,0-1.85.83-1.84,1.86h0"/></g><g id="LINE-113"><line class="cls-5" x1="325.72" y1="71.93" x2="326.75" y2="71.92"/></g><g id="ARC-43"><path class="cls-5" d="m325.72,71.93c-1.02,0-1.85.83-1.84,1.86h0"/></g><g id="LINE-114"><line class="cls-5" x1="326.77" y1="79.32" x2="325.74" y2="79.32"/></g><g id="ARC-44"><path class="cls-5" d="m324.84,77.48c0,1.02.83,1.85,1.86,1.84"/></g><g id="ARC-45"><path class="cls-5" d="m323.89,77.48c0,1.02.83,1.85,1.86,1.84"/></g><g id="ARC-46"><path class="cls-5" d="m340.05,86.44c6-.02,10.85-4.9,10.83-10.9s-4.9-10.85-10.9-10.83"/></g><g id="ARC-47"><path class="cls-5" d="m338.73,91.76c8.94-.03,16.16-7.3,16.13-16.24s-7.3-16.16-16.24-16.13"/></g><g id="LINE-115"><line class="cls-5" x1="318.91" y1="75.65" x2="334.5" y2="75.59"/></g><g id="ARC-48"><path class="cls-5" d="m328.84,64.75c-6,.02-10.85,4.9-10.83,10.9s4.9,10.85,10.9,10.83"/></g><g id="ARC-49"><path class="cls-5" d="m324.75,166.49c-8.94.03-16.16,7.3-16.13,16.24s7.3,16.16,16.24,16.13"/></g><g id="LINE-116"><line class="cls-5" x1="304.02" y1="190.14" x2="303.97" y2="175.35"/></g><g id="LINE-117"><line class="cls-5" x1="303.97" y1="175.35" x2="310.38" y2="175.33"/></g><g id="LINE-118"><line class="cls-5" x1="304.02" y1="190.14" x2="310.43" y2="190.12"/></g><g id="LINE-119"><line class="cls-5" x1="324.75" y1="166.49" x2="338.62" y2="166.44"/></g><g id="LINE-120"><line class="cls-5" x1="328.84" y1="171.79" x2="339.98" y2="171.76"/></g><g id="LINE-121"><line class="cls-5" x1="338.73" y1="198.81" x2="324.86" y2="198.86"/></g><g id="LINE-122"><line class="cls-5" x1="328.91" y1="193.53" x2="340.05" y2="193.49"/></g><g id="ARC-50"><path class="cls-5" d="m326.77,186.37c1.53,0,2.77-1.25,2.76-2.78h0"/></g><g id="LINE-123"><line class="cls-5" x1="326.68" y1="174.42" x2="326.73" y2="190.01"/></g><g id="LINE-124"><line class="cls-5" x1="324.84" y1="184.52" x2="324.83" y2="180.83"/></g><g id="LINE-125"><line class="cls-5" x1="323.89" y1="184.53" x2="323.87" y2="180.83"/></g><g id="ARC-51"><path class="cls-5" d="m329.53,181.73c0-1.53-1.25-2.77-2.78-2.76"/></g><g id="LINE-126"><line class="cls-5" x1="329.53" y1="181.73" x2="329.54" y2="183.58"/></g><g id="ARC-52"><path class="cls-5" d="m326.67,178.97c-1.02,0-1.85.83-1.84,1.86h0"/></g><g id="LINE-127"><line class="cls-5" x1="325.72" y1="178.97" x2="326.75" y2="178.97"/></g><g id="ARC-53"><path class="cls-5" d="m325.72,178.97c-1.02,0-1.85.83-1.84,1.86h0"/></g><g id="LINE-128"><line class="cls-5" x1="326.77" y1="186.37" x2="325.74" y2="186.37"/></g><g id="ARC-54"><path class="cls-5" d="m324.84,184.52c0,1.02.83,1.85,1.86,1.84"/></g><g id="ARC-55"><path class="cls-5" d="m323.89,184.53c0,1.02.83,1.85,1.86,1.84"/></g><g id="ARC-56"><path class="cls-5" d="m340.05,193.49c6-.02,10.85-4.9,10.83-10.9s-4.9-10.85-10.9-10.83"/></g><g id="ARC-57"><path class="cls-5" d="m338.73,198.81c8.94-.03,16.16-7.3,16.13-16.24s-7.3-16.16-16.24-16.13"/></g><g id="LINE-129"><line class="cls-5" x1="318.91" y1="182.69" x2="334.5" y2="182.64"/></g><g id="ARC-58"><path class="cls-5" d="m328.84,171.79c-6,.02-10.85,4.9-10.83,10.9s4.9,10.85,10.9,10.83"/></g><g id="LINE-130"><line class="cls-3" x1="27.28" y1="400.57" x2="110.65" y2="400.57"/></g><g id="LINE-131"><line class="cls-3" x1="567.37" y1="400.57" x2="484" y2="400.57"/></g></svg>