<?xml version="1.0" encoding="UTF-8"?><svg id="PAVIMENTAZIONE_-_flooring" xmlns="http://www.w3.org/2000/svg" width="399" height="742" xmlns:xlink="http://www.w3.org/1999/xlink" viewBox="0 0 399 742"><defs><style>.cls-1{stroke:#4d79ff;stroke-dasharray:0 0 13.6 6.8;}.cls-1,.cls-2,.cls-3,.cls-4,.cls-5,.cls-6,.cls-7,.cls-8,.cls-9,.cls-10,.cls-11,.cls-12{fill:none;}.cls-1,.cls-2,.cls-3,.cls-5,.cls-6,.cls-7,.cls-8,.cls-9,.cls-10,.cls-11,.cls-12{stroke-linecap:round;stroke-linejoin:round;}.cls-1,.cls-13,.cls-4,.cls-6,.cls-7,.cls-8,.cls-12{stroke-width:0px;}.cls-2,.cls-7,.cls-9{stroke:#848484;}.cls-2,.cls-10{stroke-width:.14px;}.cls-3{stroke-width:1.13px;}.cls-3,.cls-8{stroke:#000;}.cls-13{fill:url(#AcUsrDe_3943592976_0_106954752_);fill-rule:evenodd;}.cls-5{stroke:#333;}.cls-5,.cls-9{stroke-width:0px;}.cls-6{stroke:#4c4c99;}.cls-10,.cls-12{stroke:#ff0;}.cls-11{stroke:#5b5b5b;stroke-width:.26px;}</style><pattern id="AcUsrDe_3943592976_0_106954752_" x="0" y="0" width="1" height="1" patternTransform="translate(25.92 25.95) scale(27.17)" patternUnits="userSpaceOnUse" viewBox="0 0 1 1"><rect class="cls-4" width="1" height="1"/><line class="cls-5" y1=".5" x2="1" y2=".5"/><line class="cls-5" x1=".5" x2=".5" y2="1"/></pattern></defs><g id="LINE"><line class="cls-3" x1="280.6" y1="269.9" x2="280.6" y2="564.24"/></g><g id="LINE-2"><line class="cls-3" x1="267.01" y1="423.87" x2="20.36" y2="423.87"/></g><g id="LINE-3"><line class="cls-3" x1="267.01" y1="410.28" x2="20.36" y2="410.28"/></g><g id="LINE-4"><line class="cls-3" x1="280.6" y1="518.13" x2="280.6" y2="520.77"/></g><g id="LINE-5"><line class="cls-8" x1="267.01" y1="410.28" x2="267.01" y2="274.76"/></g><g id="LINE-6"><line class="cls-3" x1="267.01" y1="269.9" x2="267.01" y2="410.28"/></g><g id="LINE-7"><line class="cls-3" x1="384.75" y1="732.8" x2="384.75" y2="506.39"/></g><g id="LINE-8"><line class="cls-3" x1="371.16" y1="719.22" x2="371.16" y2="506.39"/></g><g id="LINE-9"><line class="cls-3" x1="384.75" y1="506.39" x2="371.16" y2="506.39"/></g><g id="LINE-10"><line class="cls-3" x1="267.01" y1="423.87" x2="267.01" y2="564.24"/></g><g id="LINE-11"><line class="cls-3" x1="267.01" y1="564.24" x2="280.6" y2="564.24"/></g><g id="LINE-12"><line class="cls-3" x1="267.01" y1="269.9" x2="280.6" y2="269.9"/></g><g id="LINE-13"><line class="cls-3" x1="384.75" y1="8.28" x2="384.75" y2="327.76"/></g><g id="LINE-14"><line class="cls-3" x1="371.16" y1="21.86" x2="371.16" y2="327.76"/></g><g id="LINE-15"><line class="cls-3" x1="384.75" y1="327.76" x2="371.16" y2="327.76"/></g><g id="LINE-16"><line class="cls-3" x1="371.16" y1="21.86" x2="20.36" y2="21.86"/></g><g id="LINE-17"><line class="cls-3" x1="384.75" y1="8.28" x2="6.77" y2="8.28"/></g><g id="LINE-18"><line class="cls-3" x1="20.36" y1="21.86" x2="20.36" y2="410.28"/></g><g id="LINE-19"><line class="cls-3" x1="6.77" y1="8.28" x2="6.77" y2="732.8"/></g><g id="LINE-20"><line class="cls-3" x1="20.36" y1="423.87" x2="20.36" y2="719.22"/></g><g id="LINE-21"><line class="cls-3" x1="20.36" y1="719.22" x2="371.16" y2="719.22"/></g><g id="LINE-22"><line class="cls-3" x1="6.77" y1="732.8" x2="384.75" y2="732.8"/></g><g id="LINE-23"><line class="cls-6" x1="125.23" y1="446.51" x2="130.58" y2="477.78"/></g><g id="ARC"><path class="cls-6" d="m130.58,477.78c1.12,6.52,6.77,11.29,13.39,11.29"/></g><g id="LINE-24"><line class="cls-6" x1="147.69" y1="489.07" x2="143.97" y2="489.07"/></g><g id="ARC-2"><path class="cls-6" d="m129.3,423.87c-2.25,0-4.08,1.82-4.08,4.08"/></g><g id="LINE-25"><line class="cls-6" x1="125.23" y1="427.94" x2="125.23" y2="446.51"/></g><g id="LWPOLYLINE"><circle class="cls-6" cx="145.61" cy="461.11" r="3.22"/></g><g id="LINE-26"><line class="cls-6" x1="166.43" y1="446.51" x2="161.08" y2="477.78"/></g><g id="LINE-27"><line class="cls-6" x1="166.43" y1="446.51" x2="166.43" y2="427.94"/></g><g id="ARC-3"><path class="cls-6" d="m147.69,489.07c6.62,0,12.27-4.77,13.39-11.29"/></g><g id="LINE-28"><line class="cls-6" x1="162.36" y1="423.87" x2="129.3" y2="423.87"/></g><g id="LWPOLYLINE-2"><path class="cls-6" d="m127.04,446.35v-16.6c-.28-2.65,1.36-5.12,3.92-5.89h29.75c2.49.59,4.17,2.93,3.92,5.48v17.01s-5.33,31.12-5.33,31.12c-.97,5.65-5.87,9.79-11.6,9.79h-3.72c-5.74,0-10.64-4.13-11.6-9.79,0,0-5.33-31.12-5.33-31.12Z"/></g><g id="LWPOLYLINE-3"><path class="cls-6" d="m160.71,423.87h-29.75c-2.55.76-4.2,3.24-3.92,5.89v6.11c-.28,3.11,2.01,5.86,5.12,6.14.41.04.83.03,1.24-.02h24.86c3.08.42,5.92-1.75,6.34-4.83.06-.42.07-.86.03-1.28v-6.52c.25-2.55-1.42-4.89-3.92-5.48Z"/></g><g id="LWPOLYLINE-4"><path class="cls-6" d="m160.71,423.87h-29.75c-2.55.76-4.2,3.24-3.92,5.89v9.78c-.03,3.58,2.85,6.5,6.42,6.53.12,0,.23,0,.35,0h24.05c3.66.05,6.68-2.86,6.77-6.52v-10.19c.25-2.55-1.42-4.89-3.92-5.48Z"/></g><g id="LWPOLYLINE-5"><path class="cls-6" d="m134.82,464.29c-.09-.5-.13-1.02-.13-1.53,0-5,4.05-9.06,9.06-9.06h3.72c.51,0,1.02.04,1.53.13,4.93.84,8.24,5.52,7.4,10.45v10.93c-.74,4.35-4.51,7.53-8.93,7.53h-3.72c-4.41,0-8.18-3.18-8.93-7.53,0,0,0-10.93,0-10.93Z"/></g><g id="ARC-4"><path class="cls-6" d="m166.43,427.94c0-2.25-1.82-4.08-4.08-4.08"/></g><g id="LWPOLYLINE-6"><path class="cls-6" d="m125.23,446.51v-18.57c0-2.25,1.82-4.08,4.08-4.08h33.06c2.25,0,4.08,1.82,4.08,4.08v18.57s-5.35,31.27-5.35,31.27c-1.12,6.52-6.77,11.29-13.39,11.29h-3.72c-6.62,0-12.27-4.77-13.39-11.29l-5.35-31.27Z"/></g><g id="LINE-29"><line class="cls-6" x1="80.64" y1="446.51" x2="75.29" y2="477.78"/></g><g id="ARC-5"><path class="cls-6" d="m61.9,489.07c6.62,0,12.27-4.77,13.39-11.29"/></g><g id="LINE-30"><line class="cls-6" x1="58.18" y1="489.07" x2="61.9" y2="489.07"/></g><g id="ARC-6"><path class="cls-6" d="m80.64,427.94c0-2.25-1.82-4.08-4.08-4.08"/></g><g id="LINE-31"><line class="cls-6" x1="80.64" y1="427.94" x2="80.64" y2="446.51"/></g><g id="LWPOLYLINE-7"><circle class="cls-6" cx="60.27" cy="461.11" r="3.22"/></g><g id="LINE-32"><line class="cls-6" x1="39.44" y1="446.51" x2="44.79" y2="477.78"/></g><g id="LINE-33"><line class="cls-6" x1="39.44" y1="446.51" x2="39.44" y2="427.94"/></g><g id="ARC-7"><path class="cls-6" d="m44.79,477.78c1.12,6.52,6.77,11.29,13.39,11.29"/></g><g id="LINE-34"><line class="cls-6" x1="43.51" y1="423.87" x2="76.57" y2="423.87"/></g><g id="LWPOLYLINE-8"><path class="cls-6" d="m78.83,446.35v-16.6c.28-2.65-1.36-5.12-3.92-5.89h-29.75c-2.49.59-4.17,2.93-3.92,5.48v17.01s5.33,31.12,5.33,31.12c.97,5.65,5.87,9.79,11.6,9.79h3.72c5.74,0,10.64-4.13,11.6-9.79,0,0,5.33-31.12,5.33-31.12Z"/></g><g id="LWPOLYLINE-9"><path class="cls-6" d="m45.17,423.87h29.75c2.55.76,4.2,3.24,3.92,5.89v6.11c.04.41.03.83-.02,1.24-.41,3.09-3.24,5.27-6.34,4.87h-24.86c-.42.06-.86.07-1.28.03-3.1-.29-5.37-3.04-5.08-6.14v-6.52c-.25-2.55,1.42-4.89,3.92-5.48Z"/></g><g id="LWPOLYLINE-10"><path class="cls-6" d="m45.17,423.87h29.75c2.55.76,4.2,3.24,3.92,5.89v9.78c0,.12,0,.23,0,.35-.16,3.57-3.19,6.33-6.76,6.17h-24.05c-3.66.05-6.68-2.86-6.77-6.52v-10.19c-.25-2.55,1.42-4.89,3.92-5.48Z"/></g><g id="LWPOLYLINE-11"><path class="cls-6" d="m71.05,464.29c.84-4.93-2.47-9.61-7.4-10.45-.5-.09-1.02-.13-1.53-.13h-3.72c-5,0-9.06,4.05-9.06,9.06,0,.51.04,1.02.13,1.53v10.93c.74,4.35,4.51,7.53,8.93,7.53h3.72c4.41,0,8.18-3.18,8.93-7.53v-10.93Z"/></g><g id="ARC-8"><path class="cls-6" d="m43.51,423.87c-2.25,0-4.08,1.82-4.08,4.08"/></g><g id="LWPOLYLINE-12"><path class="cls-6" d="m80.64,446.51v-18.57c0-2.25-1.82-4.08-4.08-4.08h-33.06c-2.25,0-4.08,1.82-4.08,4.08v18.57s5.35,31.27,5.35,31.27c1.12,6.52,6.77,11.29,13.39,11.29h3.72c6.62,0,12.27-4.77,13.39-11.29l5.35-31.27Z"/></g><g id="LINE-35"><line class="cls-6" x1="208.95" y1="446.51" x2="214.31" y2="477.78"/></g><g id="ARC-9"><path class="cls-6" d="m214.31,477.78c1.12,6.52,6.77,11.29,13.39,11.29"/></g><g id="LINE-36"><line class="cls-6" x1="231.42" y1="489.07" x2="227.7" y2="489.07"/></g><g id="ARC-10"><path class="cls-6" d="m213.03,423.87c-2.25,0-4.08,1.82-4.08,4.08"/></g><g id="LINE-37"><line class="cls-6" x1="208.95" y1="427.94" x2="208.95" y2="446.51"/></g><g id="LWPOLYLINE-13"><circle class="cls-6" cx="229.33" cy="461.11" r="3.22"/></g><g id="LINE-38"><line class="cls-6" x1="250.16" y1="446.51" x2="244.81" y2="477.78"/></g><g id="LINE-39"><line class="cls-6" x1="250.16" y1="446.51" x2="250.16" y2="427.94"/></g><g id="ARC-11"><path class="cls-6" d="m231.42,489.07c6.62,0,12.27-4.77,13.39-11.29"/></g><g id="LINE-40"><line class="cls-6" x1="246.09" y1="423.87" x2="213.03" y2="423.87"/></g><g id="LWPOLYLINE-14"><path class="cls-6" d="m210.77,446.35v-16.6c-.28-2.65,1.36-5.12,3.92-5.89h29.75c2.49.59,4.17,2.93,3.92,5.48v17.01s-5.33,31.12-5.33,31.12c-.97,5.65-5.87,9.79-11.6,9.79h-3.72c-5.74,0-10.64-4.13-11.6-9.79,0,0-5.33-31.12-5.33-31.12Z"/></g><g id="LWPOLYLINE-15"><path class="cls-6" d="m244.43,423.87h-29.75c-2.55.76-4.2,3.24-3.92,5.89v6.11c-.28,3.11,2.01,5.86,5.12,6.14.41.04.83.03,1.24-.02h24.86c3.08.42,5.92-1.75,6.34-4.83.06-.42.07-.86.03-1.28v-6.52c.25-2.55-1.42-4.89-3.92-5.48Z"/></g><g id="LWPOLYLINE-16"><path class="cls-6" d="m244.43,423.87h-29.75c-2.55.76-4.2,3.24-3.92,5.89v9.78c-.03,3.58,2.85,6.5,6.42,6.53.12,0,.23,0,.35,0h24.05c3.66.05,6.68-2.86,6.77-6.52v-10.19c.25-2.55-1.42-4.89-3.92-5.48Z"/></g><g id="LWPOLYLINE-17"><path class="cls-6" d="m218.54,464.29c-.09-.5-.13-1.02-.13-1.53,0-5,4.05-9.06,9.06-9.06h3.72c.51,0,1.02.04,1.53.13,4.93.84,8.24,5.52,7.4,10.45v10.93c-.74,4.35-4.51,7.53-8.93,7.53h-3.72c-4.41,0-8.18-3.18-8.93-7.53,0,0,0-10.93,0-10.93Z"/></g><g id="ARC-12"><path class="cls-6" d="m250.16,427.94c0-2.25-1.82-4.08-4.08-4.08"/></g><g id="LWPOLYLINE-18"><path class="cls-6" d="m208.95,446.51v-18.57c0-2.25,1.82-4.08,4.08-4.08h33.06c2.25,0,4.08,1.82,4.08,4.08v18.57s-5.35,31.27-5.35,31.27c-1.12,6.52-6.77,11.29-13.39,11.29h-3.72c-6.62,0-12.27-4.77-13.39-11.29l-5.35-31.27Z"/></g><g id="ARC-13"><path class="cls-6" d="m186.08,665.18c-6.8,0-13.39,2.34-18.66,6.62"/></g><g id="ARC-14"><path class="cls-6" d="m204.75,671.8c-5.28-4.29-11.87-6.62-18.66-6.62"/></g><g id="ARC-15"><path class="cls-6" d="m186.08,707.96c4.22,0,8.4-.84,12.29-2.47"/></g><g id="ARC-16"><path class="cls-6" d="m186.08,668.8c-5.97,0-11.75,2.05-16.38,5.81"/></g><g id="ARC-17"><path class="cls-6" d="m186.08,706.51c3.77,0,7.5-.7,11.02-2.07"/></g><g id="CIRCLE"><circle class="cls-6" cx="186.08" cy="700.76" r="1.58"/></g><g id="ARC-18"><path class="cls-6" d="m202.46,674.61c-4.63-3.76-10.41-5.81-16.38-5.81"/></g><g id="ARC-19"><path class="cls-6" d="m173.79,705.49c3.89,1.63,8.07,2.47,12.29,2.47"/></g><g id="ARC-20"><path class="cls-6" d="m175.07,704.45c3.51,1.37,7.25,2.07,11.02,2.07"/></g><g id="ARC-21"><path class="cls-6" d="m167.42,671.8c-4.23,3.44-6.69,8.6-6.69,14.06"/></g><g id="ARC-22"><path class="cls-6" d="m211.44,685.86c0-5.46-2.46-10.62-6.69-14.06"/></g><g id="ARC-23"><path class="cls-6" d="m198.38,705.49c7.91-3.31,13.06-11.05,13.06-19.63"/></g><g id="ARC-24"><path class="cls-6" d="m171.91,694.59c4.54,1.68,9.34,2.55,14.18,2.55"/></g><g id="ARC-25"><path class="cls-6" d="m169.7,674.61c-1.57,1.27-2.85,2.86-3.77,4.65"/></g><g id="ARC-26"><path class="cls-6" d="m165.94,679.27c-2.77,5.41-.62,12.04,4.79,14.81.38.2.78.37,1.18.52"/></g><g id="ARC-27"><path class="cls-6" d="m197.1,704.45c7.3-2.98,12.61-9.44,14.11-17.18"/></g><g id="CIRCLE-2"><circle class="cls-6" cx="186.08" cy="691.07" r="3.4"/></g><g id="CIRCLE-3"><circle class="cls-6" cx="186.08" cy="691.07" r="2.08"/></g><g id="ARC-28"><path class="cls-6" d="m200.26,694.59c5.7-2.11,8.6-8.45,6.49-14.14-.15-.4-.32-.8-.52-1.18"/></g><g id="ARC-29"><path class="cls-6" d="m206.23,679.27c-.92-1.8-2.2-3.38-3.77-4.65"/></g><g id="ARC-30"><path class="cls-6" d="m186.08,697.14c4.84,0,9.64-.86,14.18-2.55"/></g><g id="ARC-31"><path class="cls-6" d="m160.73,685.86c0,8.58,5.15,16.32,13.06,19.63"/></g><g id="ARC-32"><path class="cls-6" d="m160.95,687.27c1.5,7.74,6.81,14.2,14.11,17.18"/></g><g id="ARC-33"><path class="cls-6" d="m259.77,665.18c-6.8,0-13.39,2.34-18.66,6.62"/></g><g id="ARC-34"><path class="cls-6" d="m278.43,671.8c-5.28-4.29-11.87-6.62-18.66-6.62"/></g><g id="ARC-35"><path class="cls-6" d="m259.77,707.96c4.22,0,8.4-.84,12.29-2.47"/></g><g id="ARC-36"><path class="cls-6" d="m259.77,668.8c-5.97,0-11.75,2.05-16.38,5.81"/></g><g id="ARC-37"><path class="cls-6" d="m259.77,706.51c3.77,0,7.5-.7,11.02-2.07"/></g><g id="CIRCLE-4"><circle class="cls-6" cx="259.77" cy="700.76" r="1.58"/></g><g id="ARC-38"><path class="cls-6" d="m276.15,674.61c-4.63-3.76-10.41-5.81-16.38-5.81"/></g><g id="ARC-39"><path class="cls-6" d="m247.47,705.49c3.89,1.63,8.07,2.47,12.29,2.47"/></g><g id="ARC-40"><path class="cls-6" d="m248.75,704.45c3.51,1.37,7.25,2.07,11.02,2.07"/></g><g id="ARC-41"><path class="cls-6" d="m241.1,671.8c-4.23,3.44-6.69,8.6-6.69,14.06"/></g><g id="ARC-42"><path class="cls-6" d="m285.12,685.86c0-5.46-2.46-10.62-6.69-14.06"/></g><g id="ARC-43"><path class="cls-6" d="m272.06,705.49c7.91-3.31,13.06-11.05,13.06-19.63"/></g><g id="ARC-44"><path class="cls-6" d="m245.59,694.59c4.54,1.68,9.34,2.55,14.18,2.55"/></g><g id="ARC-45"><path class="cls-6" d="m243.38,674.61c-1.57,1.27-2.85,2.86-3.77,4.65"/></g><g id="ARC-46"><path class="cls-6" d="m239.62,679.27c-2.77,5.41-.62,12.04,4.79,14.81.38.2.78.37,1.18.52"/></g><g id="ARC-47"><path class="cls-6" d="m270.78,704.45c7.3-2.98,12.61-9.44,14.11-17.18"/></g><g id="CIRCLE-5"><circle class="cls-6" cx="259.77" cy="691.07" r="3.4"/></g><g id="CIRCLE-6"><circle class="cls-6" cx="259.77" cy="691.07" r="2.08"/></g><g id="ARC-48"><path class="cls-6" d="m273.94,694.59c5.7-2.11,8.6-8.45,6.49-14.14-.15-.4-.32-.8-.52-1.18"/></g><g id="ARC-49"><path class="cls-6" d="m279.91,679.27c-.92-1.8-2.2-3.38-3.77-4.65"/></g><g id="ARC-50"><path class="cls-6" d="m259.77,697.14c4.84,0,9.64-.86,14.18-2.55"/></g><g id="ARC-51"><path class="cls-6" d="m234.41,685.86c0,8.58,5.15,16.32,13.06,19.63"/></g><g id="ARC-52"><path class="cls-6" d="m234.64,687.27c1.5,7.74,6.81,14.2,14.11,17.18"/></g><g id="ARC-53"><path class="cls-6" d="m329.24,665.18c-6.8,0-13.39,2.34-18.66,6.62"/></g><g id="ARC-54"><path class="cls-6" d="m347.9,671.8c-5.28-4.29-11.87-6.62-18.66-6.62"/></g><g id="ARC-55"><path class="cls-6" d="m329.24,707.96c4.22,0,8.4-.84,12.29-2.47"/></g><g id="ARC-56"><path class="cls-6" d="m329.24,668.8c-5.97,0-11.75,2.05-16.38,5.81"/></g><g id="ARC-57"><path class="cls-6" d="m329.24,706.51c3.77,0,7.5-.7,11.02-2.07"/></g><g id="CIRCLE-7"><circle class="cls-6" cx="329.24" cy="700.76" r="1.58"/></g><g id="ARC-58"><path class="cls-6" d="m345.62,674.61c-4.63-3.76-10.41-5.81-16.38-5.81"/></g><g id="ARC-59"><path class="cls-6" d="m316.94,705.49c3.89,1.63,8.07,2.47,12.29,2.47"/></g><g id="ARC-60"><path class="cls-6" d="m318.22,704.45c3.51,1.37,7.25,2.07,11.02,2.07"/></g><g id="ARC-61"><path class="cls-6" d="m310.57,671.8c-4.23,3.44-6.69,8.6-6.69,14.06"/></g><g id="ARC-62"><path class="cls-6" d="m354.59,685.86c0-5.46-2.46-10.62-6.69-14.06"/></g><g id="ARC-63"><path class="cls-6" d="m341.53,705.49c7.91-3.31,13.06-11.05,13.06-19.63"/></g><g id="ARC-64"><path class="cls-6" d="m315.06,694.59c4.54,1.68,9.34,2.55,14.18,2.55"/></g><g id="ARC-65"><path class="cls-6" d="m312.86,674.61c-1.57,1.27-2.85,2.86-3.77,4.65"/></g><g id="ARC-66"><path class="cls-6" d="m309.09,679.27c-2.77,5.41-.62,12.04,4.79,14.81.38.2.78.37,1.18.52"/></g><g id="ARC-67"><path class="cls-6" d="m340.25,704.45c7.3-2.98,12.61-9.44,14.11-17.18"/></g><g id="CIRCLE-8"><circle class="cls-6" cx="329.24" cy="691.07" r="3.4"/></g><g id="CIRCLE-9"><circle class="cls-6" cx="329.24" cy="691.07" r="2.08"/></g><g id="ARC-68"><path class="cls-6" d="m343.41,694.59c5.7-2.11,8.6-8.45,6.49-14.14-.15-.4-.32-.8-.52-1.18"/></g><g id="ARC-69"><path class="cls-6" d="m349.38,679.27c-.92-1.8-2.2-3.38-3.77-4.65"/></g><g id="ARC-70"><path class="cls-6" d="m329.24,697.14c4.84,0,9.64-.86,14.18-2.55"/></g><g id="ARC-71"><path class="cls-6" d="m303.88,685.86c0,8.58,5.15,16.32,13.06,19.63"/></g><g id="ARC-72"><path class="cls-6" d="m304.11,687.27c1.5,7.74,6.81,14.2,14.11,17.18"/></g><g id="LINE-41"><line class="cls-6" x1="146.64" y1="661.48" x2="371.16" y2="661.48"/></g><g id="LINE-42"><line class="cls-6" x1="146.64" y1="661.48" x2="146.64" y2="719.22"/></g><g id="LINE-43"><line class="cls-6" x1="125.23" y1="387.64" x2="130.58" y2="356.37"/></g><g id="ARC-73"><path class="cls-6" d="m143.97,345.07c-6.62,0-12.27,4.77-13.39,11.29"/></g><g id="LINE-44"><line class="cls-6" x1="147.69" y1="345.07" x2="143.97" y2="345.07"/></g><g id="ARC-74"><path class="cls-6" d="m125.23,406.2c0,2.25,1.82,4.08,4.08,4.08"/></g><g id="LINE-45"><line class="cls-6" x1="125.23" y1="406.2" x2="125.23" y2="387.64"/></g><g id="LWPOLYLINE-19"><circle class="cls-6" cx="145.61" cy="373.04" r="3.22"/></g><g id="LINE-46"><line class="cls-6" x1="166.43" y1="387.64" x2="161.08" y2="356.37"/></g><g id="LINE-47"><line class="cls-6" x1="166.43" y1="387.64" x2="166.43" y2="406.2"/></g><g id="ARC-75"><path class="cls-6" d="m161.08,356.37c-1.12-6.52-6.77-11.29-13.39-11.29"/></g><g id="LINE-48"><line class="cls-6" x1="162.36" y1="410.28" x2="129.3" y2="410.28"/></g><g id="LWPOLYLINE-20"><path class="cls-6" d="m127.04,387.79v16.6c-.28,2.65,1.36,5.12,3.92,5.89h29.75c2.49-.59,4.17-2.93,3.92-5.48v-17.01s-5.33-31.12-5.33-31.12c-.97-5.65-5.87-9.79-11.6-9.79h-3.72c-5.74,0-10.64,4.13-11.6,9.79,0,0-5.33,31.12-5.33,31.12Z"/></g><g id="LWPOLYLINE-21"><path class="cls-6" d="m160.71,410.28h-29.75c-2.55-.76-4.2-3.24-3.92-5.89v-6.11c-.04-.41-.03-.83.02-1.24.41-3.09,3.24-5.27,6.34-4.87h24.86c.42-.06.86-.07,1.28-.03,3.1.29,5.37,3.04,5.08,6.14v6.52c.25,2.55-1.42,4.89-3.92,5.48Z"/></g><g id="LWPOLYLINE-22"><path class="cls-6" d="m160.71,410.28h-29.75c-2.55-.76-4.2-3.24-3.92-5.89v-9.78c0-.12,0-.23,0-.35.16-3.57,3.19-6.33,6.76-6.17h24.05c3.66-.05,6.68,2.86,6.77,6.52v10.19c.25,2.55-1.42,4.89-3.92,5.48Z"/></g><g id="LWPOLYLINE-23"><path class="cls-6" d="m134.82,369.86c-.84,4.93,2.47,9.61,7.4,10.45.5.09,1.02.13,1.53.13h3.72c5,0,9.06-4.05,9.06-9.06,0-.51-.04-1.02-.13-1.53v-10.93c-.74-4.35-4.51-7.53-8.93-7.53h-3.72c-4.41,0-8.18,3.18-8.93,7.53v10.93Z"/></g><g id="ARC-76"><path class="cls-6" d="m162.36,410.28c2.25,0,4.08-1.82,4.08-4.08"/></g><g id="LWPOLYLINE-24"><path class="cls-6" d="m125.23,387.64v18.57c0,2.25,1.82,4.08,4.08,4.08h33.06c2.25,0,4.08-1.82,4.08-4.08v-18.57s-5.35-31.27-5.35-31.27c-1.12-6.52-6.77-11.29-13.39-11.29h-3.72c-6.62,0-12.27,4.77-13.39,11.29l-5.35,31.27Z"/></g><g id="LINE-49"><line class="cls-6" x1="80.64" y1="387.64" x2="75.29" y2="356.37"/></g><g id="ARC-77"><path class="cls-6" d="m75.29,356.37c-1.12-6.52-6.77-11.29-13.39-11.29"/></g><g id="LINE-50"><line class="cls-6" x1="58.18" y1="345.07" x2="61.9" y2="345.07"/></g><g id="ARC-78"><path class="cls-6" d="m76.57,410.28c2.25,0,4.08-1.82,4.08-4.08"/></g><g id="LINE-51"><line class="cls-6" x1="80.64" y1="406.2" x2="80.64" y2="387.64"/></g><g id="LWPOLYLINE-25"><circle class="cls-6" cx="60.27" cy="373.03" r="3.22"/></g><g id="LINE-52"><line class="cls-6" x1="39.44" y1="387.64" x2="44.79" y2="356.37"/></g><g id="LINE-53"><line class="cls-6" x1="39.44" y1="387.64" x2="39.44" y2="406.2"/></g><g id="ARC-79"><path class="cls-6" d="m58.18,345.07c-6.62,0-12.27,4.77-13.39,11.29"/></g><g id="LINE-54"><line class="cls-6" x1="43.51" y1="410.28" x2="76.57" y2="410.28"/></g><g id="LWPOLYLINE-26"><path class="cls-6" d="m78.83,387.79v16.6c.28,2.65-1.36,5.12-3.92,5.89h-29.75c-2.49-.59-4.17-2.93-3.92-5.48v-17.01s5.33-31.12,5.33-31.12c.97-5.65,5.87-9.79,11.6-9.79h3.72c5.74,0,10.64,4.13,11.6,9.79,0,0,5.33,31.12,5.33,31.12Z"/></g><g id="LWPOLYLINE-27"><path class="cls-6" d="m45.17,410.28h29.75c2.55-.76,4.2-3.24,3.92-5.89v-6.11c.28-3.11-2.01-5.86-5.12-6.14-.41-.04-.83-.03-1.24.02h-24.86c-3.08-.42-5.92,1.75-6.34,4.83-.06.42-.07.86-.03,1.28v6.52c-.25,2.55,1.42,4.89,3.92,5.48Z"/></g><g id="LWPOLYLINE-28"><path class="cls-6" d="m45.17,410.28h29.75c2.55-.76,4.2-3.24,3.92-5.89v-9.78c.03-3.58-2.85-6.5-6.42-6.53-.12,0-.23,0-.35,0h-24.05c-3.66-.05-6.68,2.86-6.77,6.52v10.19c-.25,2.55,1.42,4.89,3.92,5.48Z"/></g><g id="LWPOLYLINE-29"><path class="cls-6" d="m71.05,369.86c.09.5.13,1.02.13,1.53,0,5-4.05,9.06-9.06,9.06h-3.72c-.51,0-1.02-.04-1.53-.13-4.93-.84-8.24-5.52-7.4-10.45v-10.93c.74-4.35,4.51-7.53,8.93-7.53h3.72c4.41,0,8.18,3.18,8.93,7.53,0,0,0,10.93,0,10.93Z"/></g><g id="ARC-80"><path class="cls-6" d="m39.44,406.2c0,2.25,1.82,4.08,4.08,4.08"/></g><g id="LWPOLYLINE-30"><path class="cls-6" d="m80.64,387.64v18.57c0,2.25-1.82,4.08-4.08,4.08h-33.06c-2.25,0-4.08-1.82-4.08-4.08v-18.57s5.35-31.27,5.35-31.27c1.12-6.52,6.77-11.29,13.39-11.29h3.72c6.62,0,12.27,4.77,13.39,11.29l5.35,31.27Z"/></g><g id="LINE-55"><line class="cls-6" x1="208.95" y1="387.64" x2="214.31" y2="356.37"/></g><g id="ARC-81"><path class="cls-6" d="m227.7,345.07c-6.62,0-12.27,4.77-13.39,11.29"/></g><g id="LINE-56"><line class="cls-6" x1="231.42" y1="345.07" x2="227.7" y2="345.07"/></g><g id="ARC-82"><path class="cls-6" d="m208.95,406.2c0,2.25,1.82,4.08,4.08,4.08"/></g><g id="LINE-57"><line class="cls-6" x1="208.95" y1="406.2" x2="208.95" y2="387.64"/></g><g id="LWPOLYLINE-31"><circle class="cls-6" cx="229.33" cy="373.04" r="3.22"/></g><g id="LINE-58"><line class="cls-6" x1="250.16" y1="387.64" x2="244.81" y2="356.37"/></g><g id="LINE-59"><line class="cls-6" x1="250.16" y1="387.64" x2="250.16" y2="406.2"/></g><g id="ARC-83"><path class="cls-6" d="m244.81,356.37c-1.12-6.52-6.77-11.29-13.39-11.29"/></g><g id="LINE-60"><line class="cls-6" x1="246.09" y1="410.28" x2="213.03" y2="410.28"/></g><g id="LWPOLYLINE-32"><path class="cls-6" d="m210.77,387.79v16.6c-.28,2.65,1.36,5.12,3.92,5.89h29.75c2.49-.59,4.17-2.93,3.92-5.48v-17.01s-5.33-31.12-5.33-31.12c-.97-5.65-5.87-9.79-11.6-9.79h-3.72c-5.74,0-10.64,4.13-11.6,9.79,0,0-5.33,31.12-5.33,31.12Z"/></g><g id="LWPOLYLINE-33"><path class="cls-6" d="m244.43,410.28h-29.75c-2.55-.76-4.2-3.24-3.92-5.89v-6.11c-.04-.41-.03-.83.02-1.24.41-3.09,3.24-5.27,6.34-4.87h24.86c.42-.06.86-.07,1.28-.03,3.1.29,5.37,3.04,5.08,6.14v6.52c.25,2.55-1.42,4.89-3.92,5.48Z"/></g><g id="LWPOLYLINE-34"><path class="cls-6" d="m244.43,410.28h-29.75c-2.55-.76-4.2-3.24-3.92-5.89v-9.78c0-.12,0-.23,0-.35.16-3.57,3.19-6.33,6.76-6.17h24.05c3.66-.05,6.68,2.86,6.77,6.52v10.19c.25,2.55-1.42,4.89-3.92,5.48Z"/></g><g id="LWPOLYLINE-35"><path class="cls-6" d="m218.54,369.86c-.84,4.93,2.47,9.61,7.4,10.45.5.09,1.02.13,1.53.13h3.72c5,0,9.06-4.05,9.06-9.06,0-.51-.04-1.02-.13-1.53v-10.93c-.74-4.35-4.51-7.53-8.93-7.53h-3.72c-4.41,0-8.18,3.18-8.93,7.53,0,0,0,10.93,0,10.93Z"/></g><g id="ARC-84"><path class="cls-6" d="m246.09,410.28c2.25,0,4.08-1.82,4.08-4.08"/></g><g id="LWPOLYLINE-36"><path class="cls-6" d="m208.95,387.64v18.57c0,2.25,1.82,4.08,4.08,4.08h33.06c2.25,0,4.08-1.82,4.08-4.08v-18.57s-5.35-31.27-5.35-31.27c-1.12-6.52-6.77-11.29-13.39-11.29h-3.72c-6.62,0-12.27,4.77-13.39,11.29l-5.35,31.27Z"/></g><g id="ARC-85"><path class="cls-6" d="m167.42,69.28c5.28,4.29,11.87,6.62,18.66,6.62"/></g><g id="ARC-86"><path class="cls-6" d="m186.08,75.9c6.8,0,13.39-2.34,18.66-6.62"/></g><g id="ARC-87"><path class="cls-6" d="m198.38,35.58c-3.89-1.63-8.07-2.47-12.29-2.47"/></g><g id="ARC-88"><path class="cls-6" d="m169.7,66.47c4.63,3.76,10.41,5.81,16.38,5.81"/></g><g id="ARC-89"><path class="cls-6" d="m197.1,36.63c-3.51-1.37-7.25-2.07-11.02-2.07"/></g><g id="CIRCLE-10"><circle class="cls-6" cx="186.08" cy="40.32" r="1.58"/></g><g id="ARC-90"><path class="cls-6" d="m186.08,72.28c5.97,0,11.75-2.05,16.38-5.81"/></g><g id="ARC-91"><path class="cls-6" d="m186.08,33.12c-4.22,0-8.4.84-12.29,2.47"/></g><g id="ARC-92"><path class="cls-6" d="m186.08,34.56c-3.77,0-7.5.7-11.02,2.07"/></g><g id="ARC-93"><path class="cls-6" d="m160.73,55.22c0,5.46,2.46,10.62,6.69,14.06"/></g><g id="ARC-94"><path class="cls-6" d="m204.75,69.28c4.23-3.44,6.69-8.6,6.69-14.06"/></g><g id="ARC-95"><path class="cls-6" d="m211.44,55.22c0-8.58-5.15-16.32-13.06-19.63"/></g><g id="ARC-96"><path class="cls-6" d="m186.08,43.94c-4.84,0-9.64.86-14.18,2.55"/></g><g id="ARC-97"><path class="cls-6" d="m165.94,61.81c.92,1.8,2.2,3.38,3.77,4.65"/></g><g id="ARC-98"><path class="cls-6" d="m171.91,46.49c-5.7,2.11-8.6,8.45-6.49,14.14.15.4.32.8.52,1.18"/></g><g id="ARC-99"><path class="cls-6" d="m211.21,53.81c-1.5-7.74-6.81-14.2-14.11-17.18"/></g><g id="CIRCLE-11"><circle class="cls-6" cx="186.08" cy="50.01" r="3.4"/></g><g id="CIRCLE-12"><circle class="cls-6" cx="186.08" cy="50.01" r="2.08"/></g><g id="ARC-100"><path class="cls-6" d="m206.23,61.81c2.77-5.41.62-12.04-4.79-14.81-.38-.2-.78-.37-1.18-.52"/></g><g id="ARC-101"><path class="cls-6" d="m202.46,66.47c1.57-1.27,2.85-2.86,3.77-4.65"/></g><g id="ARC-102"><path class="cls-6" d="m200.26,46.49c-4.54-1.68-9.34-2.55-14.18-2.55"/></g><g id="ARC-103"><path class="cls-6" d="m173.79,35.58c-7.91,3.31-13.06,11.05-13.06,19.63"/></g><g id="ARC-104"><path class="cls-6" d="m175.07,36.63c-7.3,2.98-12.61,9.44-14.11,17.18"/></g><g id="ARC-105"><path class="cls-6" d="m241.1,69.28c5.28,4.29,11.87,6.62,18.66,6.62"/></g><g id="ARC-106"><path class="cls-6" d="m259.77,75.9c6.8,0,13.39-2.34,18.66-6.62"/></g><g id="ARC-107"><path class="cls-6" d="m272.06,35.58c-3.89-1.63-8.07-2.47-12.29-2.47"/></g><g id="ARC-108"><path class="cls-6" d="m243.38,66.47c4.63,3.76,10.41,5.81,16.38,5.81"/></g><g id="ARC-109"><path class="cls-6" d="m270.78,36.63c-3.51-1.37-7.25-2.07-11.02-2.07"/></g><g id="CIRCLE-13"><circle class="cls-6" cx="259.77" cy="40.32" r="1.58"/></g><g id="ARC-110"><path class="cls-6" d="m259.77,72.28c5.97,0,11.75-2.05,16.38-5.81"/></g><g id="ARC-111"><path class="cls-6" d="m259.77,33.12c-4.22,0-8.4.84-12.29,2.47"/></g><g id="ARC-112"><path class="cls-6" d="m259.77,34.56c-3.77,0-7.5.7-11.02,2.07"/></g><g id="ARC-113"><path class="cls-6" d="m234.41,55.22c0,5.46,2.46,10.62,6.69,14.06"/></g><g id="ARC-114"><path class="cls-6" d="m278.43,69.28c4.23-3.44,6.69-8.6,6.69-14.06"/></g><g id="ARC-115"><path class="cls-6" d="m285.12,55.22c0-8.58-5.15-16.32-13.06-19.63"/></g><g id="ARC-116"><path class="cls-6" d="m259.77,43.94c-4.84,0-9.64.86-14.18,2.55"/></g><g id="ARC-117"><path class="cls-6" d="m239.62,61.81c.92,1.8,2.2,3.38,3.77,4.65"/></g><g id="ARC-118"><path class="cls-6" d="m245.59,46.49c-5.7,2.11-8.6,8.45-6.49,14.14.15.4.32.8.52,1.18"/></g><g id="ARC-119"><path class="cls-6" d="m284.89,53.81c-1.5-7.74-6.81-14.2-14.11-17.18"/></g><g id="CIRCLE-14"><circle class="cls-6" cx="259.77" cy="50.01" r="3.4"/></g><g id="CIRCLE-15"><circle class="cls-6" cx="259.77" cy="50.01" r="2.08"/></g><g id="ARC-120"><path class="cls-6" d="m279.91,61.81c2.77-5.41.62-12.04-4.79-14.81-.38-.2-.78-.37-1.18-.52"/></g><g id="ARC-121"><path class="cls-6" d="m276.15,66.47c1.57-1.27,2.85-2.86,3.77-4.65"/></g><g id="ARC-122"><path class="cls-6" d="m273.94,46.49c-4.54-1.68-9.34-2.55-14.18-2.55"/></g><g id="ARC-123"><path class="cls-6" d="m247.47,35.58c-7.91,3.31-13.06,11.05-13.06,19.63"/></g><g id="ARC-124"><path class="cls-6" d="m248.75,36.63c-7.3,2.98-12.61,9.44-14.11,17.18"/></g><g id="ARC-125"><path class="cls-6" d="m310.57,69.28c5.28,4.29,11.87,6.62,18.66,6.62"/></g><g id="ARC-126"><path class="cls-6" d="m329.24,75.9c6.8,0,13.39-2.34,18.66-6.62"/></g><g id="ARC-127"><path class="cls-6" d="m341.53,35.58c-3.89-1.63-8.07-2.47-12.29-2.47"/></g><g id="ARC-128"><path class="cls-6" d="m312.86,66.47c4.63,3.76,10.41,5.81,16.38,5.81"/></g><g id="ARC-129"><path class="cls-6" d="m340.25,36.63c-3.51-1.37-7.25-2.07-11.02-2.07"/></g><g id="CIRCLE-16"><circle class="cls-6" cx="329.24" cy="40.32" r="1.58"/></g><g id="ARC-130"><path class="cls-6" d="m329.24,72.28c5.97,0,11.75-2.05,16.38-5.81"/></g><g id="ARC-131"><path class="cls-6" d="m329.24,33.12c-4.22,0-8.4.84-12.29,2.47"/></g><g id="ARC-132"><path class="cls-6" d="m329.24,34.56c-3.77,0-7.5.7-11.02,2.07"/></g><g id="ARC-133"><path class="cls-6" d="m303.88,55.22c0,5.46,2.46,10.62,6.69,14.06"/></g><g id="ARC-134"><path class="cls-6" d="m347.9,69.28c4.23-3.44,6.69-8.6,6.69-14.06"/></g><g id="ARC-135"><path class="cls-6" d="m354.59,55.22c0-8.58-5.15-16.32-13.06-19.63"/></g><g id="ARC-136"><path class="cls-6" d="m329.24,43.94c-4.84,0-9.64.86-14.18,2.55"/></g><g id="ARC-137"><path class="cls-6" d="m309.09,61.81c.92,1.8,2.2,3.38,3.77,4.65"/></g><g id="ARC-138"><path class="cls-6" d="m315.06,46.49c-5.7,2.11-8.6,8.45-6.49,14.14.15.4.32.8.52,1.18"/></g><g id="ARC-139"><path class="cls-6" d="m354.37,53.81c-1.5-7.74-6.81-14.2-14.11-17.18"/></g><g id="CIRCLE-17"><circle class="cls-6" cx="329.24" cy="50.01" r="3.4"/></g><g id="CIRCLE-18"><circle class="cls-6" cx="329.24" cy="50.01" r="2.08"/></g><g id="ARC-140"><path class="cls-6" d="m349.38,61.81c2.77-5.41.62-12.04-4.79-14.81-.38-.2-.78-.37-1.18-.52"/></g><g id="ARC-141"><path class="cls-6" d="m345.62,66.47c1.57-1.27,2.85-2.86,3.77-4.65"/></g><g id="ARC-142"><path class="cls-6" d="m343.41,46.49c-4.54-1.68-9.34-2.55-14.18-2.55"/></g><g id="ARC-143"><path class="cls-6" d="m316.94,35.58c-7.91,3.31-13.06,11.05-13.06,19.63"/></g><g id="ARC-144"><path class="cls-6" d="m318.22,36.63c-7.3,2.98-12.61,9.44-14.11,17.18"/></g><g id="LINE-61"><line class="cls-6" x1="146.64" y1="79.6" x2="371.16" y2="79.6"/></g><g id="LINE-62"><line class="cls-6" x1="146.64" y1="79.6" x2="146.64" y2="21.86"/></g><g id="LWPOLYLINE-37"><path class="cls-6" d="m28.09,74.47c3.92.23,7.86,0,11.74-.66,1.3-.23,2.43-1.02,3.08-2.16,2.16-3.75,2.16-8.37,0-12.12-.65-1.14-1.78-1.94-3.08-2.16-3.87-.67-7.81-.9-11.74-.66"/></g><g id="LWPOLYLINE-38"><path class="cls-6" d="m31.91,53.27c-.84.03-1.68.11-2.52.23-4.38,7.39-4.41,16.56-.09,23.98.86.13,1.74.22,2.61.25"/></g><g id="ARC-145"><path class="cls-6" d="m28.09,56.69c-.1,0-.19.01-.28.02"/></g><g id="ARC-146"><path class="cls-6" d="m27.75,74.3c.11.01.23.02.34.03"/></g><g id="LWPOLYLINE-39"><path class="cls-6" d="m31.91,53.27v-.91c0-1.25-1.01-2.26-2.26-2.26h-7.03c-1.25,0-2.26,1.01-2.26,2.26v26.28c0,1.25,1.01,2.26,2.26,2.26h7.03c1.25,0,2.26-1.01,2.26-2.26v-.91c4.82.17,9.55-1.26,13.48-4.05.72-1.29,1.26-2.66,1.62-4.09,2.26-1.06,3.23-3.75,2.17-6.01-.45-.96-1.22-1.72-2.17-2.17-.36-1.43-.9-2.8-1.62-4.09-3.92-2.79-8.64-4.22-13.45-4.05"/></g><g id="CIRCLE-19"><circle class="cls-6" cx="41.91" cy="65.58" r=".91"/></g><g id="CIRCLE-20"><circle class="cls-6" cx="39.16" cy="65.58" r=".91"/></g><g id="CIRCLE-21"><circle class="cls-6" cx="36.51" cy="65.58" r=".91"/></g><g id="CIRCLE-22"><circle class="cls-6" cx="31.87" cy="61.95" r=".91"/></g><g id="CIRCLE-23"><circle class="cls-6" cx="28.08" cy="61.95" r=".91"/></g><g id="CIRCLE-24"><circle class="cls-6" cx="29.97" cy="64.13" r=".91"/></g><g id="CIRCLE-25"><circle class="cls-6" cx="33.76" cy="64.13" r=".91"/></g><g id="ARC-147"><path class="cls-6" d="m26.09,65.03c.5.05.94-.31.99-.81s-.31-.94-.81-.99c-.02,0-.05,0-.07,0"/></g><g id="CIRCLE-26"><circle class="cls-6" cx="31.87" cy="69.21" r=".91"/></g><g id="CIRCLE-27"><circle class="cls-6" cx="28.08" cy="69.21" r=".91"/></g><g id="CIRCLE-28"><circle class="cls-6" cx="29.97" cy="67.03" r=".91"/></g><g id="CIRCLE-29"><circle class="cls-6" cx="33.76" cy="67.03" r=".91"/></g><g id="ARC-148"><path class="cls-6" d="m26.21,67.93c.5-.01.9-.43.88-.93s-.43-.9-.93-.88c-.02,0-.05,0-.07,0"/></g><g id="LWPOLYLINE-40"><path class="cls-6" d="m28.09,137.94c3.92.23,7.86,0,11.74-.66,1.3-.23,2.43-1.02,3.08-2.16,2.16-3.75,2.16-8.37,0-12.12-.65-1.14-1.78-1.94-3.08-2.16-3.87-.67-7.81-.9-11.74-.66"/></g><g id="LWPOLYLINE-41"><path class="cls-6" d="m31.91,116.75c-.84.03-1.68.11-2.52.23-4.38,7.39-4.41,16.56-.09,23.98.86.13,1.74.22,2.61.25"/></g><g id="ARC-149"><path class="cls-6" d="m28.09,120.16c-.1,0-.19.01-.28.02"/></g><g id="ARC-150"><path class="cls-6" d="m27.75,137.77c.11.01.23.02.34.03"/></g><g id="LWPOLYLINE-42"><path class="cls-6" d="m31.91,116.75v-.91c0-1.25-1.01-2.26-2.26-2.26h-7.03c-1.25,0-2.26,1.01-2.26,2.26v26.28c0,1.25,1.01,2.26,2.26,2.26h7.03c1.25,0,2.26-1.01,2.26-2.26v-.91c4.82.17,9.55-1.26,13.48-4.05.72-1.29,1.26-2.66,1.62-4.09,2.26-1.06,3.23-3.75,2.17-6.01-.45-.96-1.22-1.72-2.17-2.17-.36-1.43-.9-2.8-1.62-4.09-3.92-2.79-8.64-4.22-13.45-4.05"/></g><g id="CIRCLE-30"><circle class="cls-6" cx="41.91" cy="129.05" r=".91"/></g><g id="CIRCLE-31"><circle class="cls-6" cx="39.16" cy="129.05" r=".91"/></g><g id="CIRCLE-32"><circle class="cls-6" cx="36.51" cy="129.05" r=".91"/></g><g id="CIRCLE-33"><circle class="cls-6" cx="31.87" cy="125.42" r=".91"/></g><g id="CIRCLE-34"><circle class="cls-6" cx="28.08" cy="125.42" r=".91"/></g><g id="CIRCLE-35"><circle class="cls-6" cx="29.97" cy="127.6" r=".91"/></g><g id="CIRCLE-36"><circle class="cls-6" cx="33.76" cy="127.6" r=".91"/></g><g id="ARC-151"><path class="cls-6" d="m26.09,128.5c.5.05.94-.31.99-.81s-.31-.94-.81-.99c-.02,0-.05,0-.07,0"/></g><g id="CIRCLE-37"><circle class="cls-6" cx="31.87" cy="132.68" r=".91"/></g><g id="CIRCLE-38"><circle class="cls-6" cx="28.08" cy="132.68" r=".91"/></g><g id="CIRCLE-39"><circle class="cls-6" cx="29.97" cy="130.5" r=".91"/></g><g id="CIRCLE-40"><circle class="cls-6" cx="33.76" cy="130.5" r=".91"/></g><g id="ARC-152"><path class="cls-6" d="m26.21,131.41c.5-.01.9-.43.88-.93s-.43-.9-.93-.88c-.02,0-.05,0-.07,0"/></g><g id="LWPOLYLINE-43"><path class="cls-6" d="m28.09,201.11c3.92.23,7.86,0,11.74-.66,1.3-.23,2.43-1.02,3.08-2.16,2.16-3.75,2.16-8.37,0-12.12-.65-1.14-1.78-1.94-3.08-2.16-3.87-.67-7.81-.9-11.74-.66"/></g><g id="LWPOLYLINE-44"><path class="cls-6" d="m31.91,179.92c-.84.03-1.68.11-2.52.23-4.38,7.39-4.41,16.56-.09,23.98.86.13,1.74.22,2.61.25"/></g><g id="ARC-153"><path class="cls-6" d="m28.09,183.33c-.1,0-.19.01-.28.02"/></g><g id="ARC-154"><path class="cls-6" d="m27.75,200.94c.11.01.23.02.34.03"/></g><g id="LWPOLYLINE-45"><path class="cls-6" d="m31.91,179.92v-.91c0-1.25-1.01-2.26-2.26-2.26h-7.03c-1.25,0-2.26,1.01-2.26,2.26v26.28c0,1.25,1.01,2.26,2.26,2.26h7.03c1.25,0,2.26-1.01,2.26-2.26v-.91c4.82.17,9.55-1.26,13.48-4.05.72-1.29,1.26-2.66,1.62-4.09,2.26-1.06,3.23-3.75,2.17-6.01-.45-.96-1.22-1.72-2.17-2.17-.36-1.43-.9-2.8-1.62-4.09-3.92-2.79-8.64-4.22-13.45-4.05"/></g><g id="CIRCLE-41"><circle class="cls-6" cx="41.91" cy="192.22" r=".91"/></g><g id="CIRCLE-42"><circle class="cls-6" cx="39.16" cy="192.22" r=".91"/></g><g id="CIRCLE-43"><circle class="cls-6" cx="36.51" cy="192.22" r=".91"/></g><g id="CIRCLE-44"><circle class="cls-6" cx="31.87" cy="188.59" r=".91"/></g><g id="CIRCLE-45"><circle class="cls-6" cx="28.08" cy="188.59" r=".91"/></g><g id="CIRCLE-46"><circle class="cls-6" cx="29.97" cy="190.77" r=".91"/></g><g id="CIRCLE-47"><circle class="cls-6" cx="33.76" cy="190.77" r=".91"/></g><g id="ARC-155"><path class="cls-6" d="m26.09,191.67c.5.05.94-.31.99-.81s-.31-.94-.81-.99c-.02,0-.05,0-.07,0"/></g><g id="CIRCLE-48"><circle class="cls-6" cx="31.87" cy="195.85" r=".91"/></g><g id="CIRCLE-49"><circle class="cls-6" cx="28.08" cy="195.85" r=".91"/></g><g id="CIRCLE-50"><circle class="cls-6" cx="29.97" cy="193.67" r=".91"/></g><g id="CIRCLE-51"><circle class="cls-6" cx="33.76" cy="193.67" r=".91"/></g><g id="ARC-156"><path class="cls-6" d="m26.21,194.58c.5-.01.9-.43.88-.93s-.43-.9-.93-.88c-.02,0-.05,0-.07,0"/></g><g id="LINE-63"><line class="cls-12" x1="99.56" y1="560.05" x2="99.56" y2="423.87"/></g><g id="LINE-64"><line class="cls-12" x1="104.08" y1="555.53" x2="104.08" y2="423.87"/></g><g id="LINE-65"><line class="cls-12" x1="128.95" y1="555.53" x2="104.08" y2="555.53"/></g><g id="LINE-66"><line class="cls-12" x1="128.95" y1="560.05" x2="99.56" y2="560.05"/></g><g id="LINE-67"><line class="cls-12" x1="45.22" y1="555.53" x2="20.36" y2="555.53"/></g><g id="LINE-68"><line class="cls-12" x1="45.22" y1="560.05" x2="20.36" y2="560.05"/></g><g id="LINE-69"><line class="cls-12" x1="45.22" y1="555.53" x2="45.22" y2="560.05"/></g><g id="LINE-70"><line class="cls-12" x1="183.28" y1="560.05" x2="183.28" y2="423.87"/></g><g id="LINE-71"><line class="cls-12" x1="187.81" y1="555.53" x2="187.81" y2="423.87"/></g><g id="LINE-72"><line class="cls-12" x1="212.68" y1="555.53" x2="187.81" y2="555.53"/></g><g id="LINE-73"><line class="cls-12" x1="212.68" y1="560.05" x2="183.28" y2="560.05"/></g><g id="LINE-74"><line class="cls-12" x1="128.95" y1="555.53" x2="128.95" y2="560.05"/></g><g id="LINE-75"><line class="cls-12" x1="212.68" y1="555.53" x2="212.68" y2="560.05"/></g><g id="LINE-76"><line class="cls-12" x1="99.56" y1="274.09" x2="99.56" y2="410.28"/></g><g id="LINE-77"><line class="cls-12" x1="104.08" y1="278.62" x2="104.08" y2="410.28"/></g><g id="LINE-78"><line class="cls-12" x1="128.95" y1="278.62" x2="104.08" y2="278.62"/></g><g id="LINE-79"><line class="cls-12" x1="128.95" y1="274.09" x2="99.56" y2="274.09"/></g><g id="LINE-80"><line class="cls-12" x1="45.22" y1="278.62" x2="20.36" y2="278.62"/></g><g id="LINE-81"><line class="cls-12" x1="45.22" y1="274.09" x2="20.36" y2="274.09"/></g><g id="LINE-82"><line class="cls-12" x1="45.22" y1="278.62" x2="45.22" y2="274.09"/></g><g id="LINE-83"><line class="cls-12" x1="183.28" y1="274.09" x2="183.28" y2="410.28"/></g><g id="LINE-84"><line class="cls-12" x1="187.81" y1="278.62" x2="187.81" y2="410.28"/></g><g id="LINE-85"><line class="cls-12" x1="212.68" y1="278.62" x2="187.81" y2="278.62"/></g><g id="LINE-86"><line class="cls-12" x1="212.68" y1="274.09" x2="183.28" y2="274.09"/></g><g id="LINE-87"><line class="cls-12" x1="128.95" y1="278.62" x2="128.95" y2="274.09"/></g><g id="LINE-88"><line class="cls-12" x1="212.68" y1="278.62" x2="212.68" y2="274.09"/></g><g id="LWPOLYLINE-46"><rect class="cls-7" x="369.18" y="595.24" width=".8" height="7.54"/></g><g id="LWPOLYLINE-47"><rect class="cls-7" x="368.46" y="595.52" width=".72" height="1.54"/></g><g id="LWPOLYLINE-48"><rect class="cls-7" x="364.58" y="595.52" width=".72" height="1.54"/></g><g id="LWPOLYLINE-49"><rect class="cls-7" x="363.77" y="595.24" width=".8" height="7.54"/></g><g id="HATCH"><path class="cls-4" d="m283.3,515.35h-2.7v8.19h2.7v-8.19m2.71,0h-2.71v4.09h2.71v-4.09m82.45,8.19h2.7v-8.19h-2.7v8.19Z"/><path class="cls-9" d="m280.95,515.35l-.36.36m1.37-.36l-1.37,1.37m2.39-1.37l-2.39,2.39m3.41-2.39l-.7.7m0,0l-2.7,2.7m4.42-3.41l-1.72,1.72m0,0l-2.7,2.7m5.41-4.4l-2.71,2.71m0,0l-2.7,2.7m5.41-4.4l-2.71,2.71m0,0l-2.7,2.7m5.41-4.4l-2.04,2.04m-.68.68l-2.7,2.7m5.41-4.4l-1.02,1.02m-1.7,1.7l-2.4,2.4m5.11-4.09h0m-2.71,2.71l-1.38,1.38m1.38-.36l-.36.36m86.47-8.19l-.94.94m1.95-.94l-1.95,1.95m2.7-1.68l-2.7,2.7m2.7-1.68l-2.7,2.7m2.7-1.68l-2.7,2.7m2.7-1.68l-2.7,2.7m2.7-1.68l-2.7,2.7m2.7-1.68l-2.7,2.7m2.7-1.68l-1.82,1.82m1.82-.8l-.8.8"/></g><g id="LWPOLYLINE-50"><rect class="cls-12" x="368.46" y="515.35" width="2.7" height="8.19"/></g><g id="LINE-89"><line class="cls-12" x1="368.46" y1="605.96" x2="368.46" y2="520.81"/></g><g id="LWPOLYLINE-51"><rect class="cls-12" x="283.3" y="515.35" width="2.71" height="4.09"/></g><g id="LWPOLYLINE-52"><rect class="cls-12" x="280.6" y="515.35" width="2.7" height="8.19"/></g><g id="LINE-90"><line class="cls-7" x1="368.46" y1="523.98" x2="365.29" y2="520.81"/></g><g id="LINE-91"><line class="cls-7" x1="368.46" y1="520.81" x2="365.29" y2="523.98"/></g><g id="LINE-92"><line class="cls-7" x1="368.46" y1="605.96" x2="365.29" y2="602.79"/></g><g id="LINE-93"><line class="cls-7" x1="365.29" y1="605.96" x2="368.46" y2="602.79"/></g><g id="LINE-94"><line class="cls-7" x1="365.29" y1="564.97" x2="368.46" y2="561.8"/></g><g id="LINE-95"><line class="cls-7" x1="368.46" y1="564.97" x2="365.29" y2="561.8"/></g><g id="ARC-157"><path class="cls-7" d="m365.29,605.96c-44.74-1.67-80.56-37.67-81.99-82.42"/></g><g id="LWPOLYLINE-53"><polyline class="cls-10" points="99.56 275.28 97.29 275.28 97.29 276.41 96.16 276.41 96.16 277.55 99.56 277.54"/></g><g id="LWPOLYLINE-54"><path class="cls-10" d="m45.22,275.34h2.26c.12.84.9,1.42,1.74,1.3.18-.03.36-.09.52-.17v1.13s-4.53,0-4.53,0"/></g><g id="LWPOLYLINE-55"><path class="cls-10" d="m49.75,274.2c-.03.18-.08.36-.17.52-.41.75-1.34,1.02-2.09.61l-.05-48.34h2.26s0,2.43,0,2.43h0l.05,44.77h0Z"/></g><g id="ARC-158"><path class="cls-2" d="m97.29,275.28c-1.88-25.59-22.04-46.04-47.6-48.28"/></g><g id="LWPOLYLINE-56"><rect class="cls-7" x="369.18" y="231.36" width=".8" height="7.54"/></g><g id="LWPOLYLINE-57"><rect class="cls-7" x="368.46" y="237.09" width=".72" height="1.54"/></g><g id="LWPOLYLINE-58"><rect class="cls-7" x="364.58" y="237.09" width=".72" height="1.54"/></g><g id="LWPOLYLINE-59"><rect class="cls-7" x="363.77" y="231.36" width=".8" height="7.54"/></g><g id="HATCH-2"><path class="cls-4" d="m283.3,318.79h-2.7v-8.19h2.7v8.19m2.71,0h-2.71v-4.09h2.71v4.09m82.45-8.19h2.7v8.19h-2.7v-8.19Z"/><path class="cls-9" d="m280.95,318.79l-.36-.36m1.37.36l-1.37-1.37m2.39,1.37l-2.39-2.39m3.41,2.39l-.7-.7m0,0l-2.7-2.7m4.42,3.41l-1.72-1.72m0,0l-2.7-2.7m5.41,4.4l-2.71-2.71m0,0l-2.7-2.7m5.41,4.4l-2.71-2.71m0,0l-2.7-2.7m5.41,4.4l-2.04-2.04m-.68-.68l-2.7-2.7m5.41,4.4l-1.02-1.02m-1.7-1.7l-2.4-2.4m5.11,4.09h0m-2.71-2.71l-1.38-1.38m1.38.36l-.36-.36m86.47,8.19l-.94-.94m1.95.94l-1.95-1.95m2.7,1.68l-2.7-2.7m2.7,1.68l-2.7-2.7m2.7,1.68l-2.7-2.7m2.7,1.68l-2.7-2.7m2.7,1.68l-2.7-2.7m2.7,1.68l-2.7-2.7m2.7,1.68l-1.82-1.82m1.82.8l-.8-.8"/></g><g id="LWPOLYLINE-60"><rect class="cls-12" x="368.46" y="310.61" width="2.7" height="8.19"/></g><g id="LINE-96"><line class="cls-12" x1="368.46" y1="228.19" x2="368.46" y2="313.34"/></g><g id="LWPOLYLINE-61"><rect class="cls-12" x="283.3" y="314.7" width="2.71" height="4.09"/></g><g id="LWPOLYLINE-62"><rect class="cls-12" x="280.6" y="310.61" width="2.7" height="8.19"/></g><g id="LINE-97"><line class="cls-7" x1="368.46" y1="310.17" x2="365.29" y2="313.34"/></g><g id="LINE-98"><line class="cls-7" x1="368.46" y1="313.34" x2="365.29" y2="310.17"/></g><g id="LINE-99"><line class="cls-7" x1="368.46" y1="228.19" x2="365.29" y2="231.36"/></g><g id="LINE-100"><line class="cls-7" x1="365.29" y1="228.19" x2="368.46" y2="231.36"/></g><g id="LINE-101"><line class="cls-7" x1="365.29" y1="269.18" x2="368.46" y2="272.35"/></g><g id="LINE-102"><line class="cls-7" x1="368.46" y1="269.18" x2="365.29" y2="272.35"/></g><g id="ARC-159"><path class="cls-7" d="m365.29,228.19c-44.74,1.67-80.56,37.67-81.99,82.42"/></g><g id="LWPOLYLINE-63"><polyline class="cls-10" points="183.29 275.28 181.02 275.28 181.02 276.41 179.89 276.41 179.89 277.55 183.29 277.54"/></g><g id="LWPOLYLINE-64"><path class="cls-10" d="m128.95,275.34h2.26c.12.84.9,1.42,1.74,1.3.18-.03.36-.09.52-.17v1.13s-4.53,0-4.53,0"/></g><g id="LWPOLYLINE-65"><path class="cls-10" d="m133.47,274.2c-.03.18-.08.36-.17.52-.41.75-1.34,1.02-2.09.61l-.05-48.34h2.26s0,2.43,0,2.43h0l.05,44.77h0Z"/></g><g id="ARC-160"><path class="cls-2" d="m181.02,275.28c-1.88-25.59-22.04-46.04-47.6-48.28"/></g><g id="LWPOLYLINE-66"><polyline class="cls-10" points="267.01 275.28 264.75 275.28 264.75 276.41 263.62 276.41 263.62 277.55 267.02 277.54"/></g><g id="LWPOLYLINE-67"><path class="cls-10" d="m212.67,275.34h2.26c.12.84.9,1.42,1.74,1.3.18-.03.36-.09.52-.17v1.13s-4.53,0-4.53,0"/></g><g id="LWPOLYLINE-68"><path class="cls-10" d="m217.2,274.2c-.03.18-.08.36-.17.52-.41.75-1.34,1.02-2.09.61l-.05-48.34h2.26s0,2.43,0,2.43h0l.05,44.77h0Z"/></g><g id="ARC-161"><path class="cls-2" d="m264.75,275.28c-1.88-25.59-22.04-46.04-47.6-48.28"/></g><g id="LWPOLYLINE-69"><polyline class="cls-10" points="99.56 558.87 97.29 558.86 97.29 557.73 96.16 557.73 96.16 556.6 99.56 556.6"/></g><g id="LWPOLYLINE-70"><path class="cls-10" d="m45.22,558.81h2.26c.03-.18.09-.36.17-.52.41-.75,1.35-1.02,2.09-.61v-1.13s-4.53,0-4.53,0"/></g><g id="LWPOLYLINE-71"><path class="cls-10" d="m49.75,559.95c-.12-.84-.9-1.43-1.74-1.31-.18.03-.36.08-.52.17l-.05,48.34h2.26s0-2.43,0-2.43h0l.05-44.77h0Z"/></g><g id="ARC-162"><path class="cls-2" d="m97.29,558.86c-1.88,25.59-22.04,46.04-47.6,48.28"/></g><g id="LWPOLYLINE-72"><polyline class="cls-10" points="183.29 558.87 181.02 558.86 181.02 557.73 179.89 557.73 179.89 556.6 183.29 556.6"/></g><g id="LWPOLYLINE-73"><path class="cls-10" d="m128.95,558.81h2.26c.03-.18.09-.36.17-.52.41-.75,1.35-1.02,2.09-.61v-1.13s-4.53,0-4.53,0"/></g><g id="LWPOLYLINE-74"><path class="cls-10" d="m133.47,559.95c-.12-.84-.9-1.43-1.74-1.31-.18.03-.36.08-.52.17l-.05,48.34h2.26s0-2.43,0-2.43h0l.05-44.77h0Z"/></g><g id="ARC-163"><path class="cls-2" d="m181.02,558.86c-1.88,25.59-22.04,46.04-47.6,48.28"/></g><g id="LWPOLYLINE-75"><polyline class="cls-10" points="267.01 558.87 264.75 558.86 264.75 557.73 263.62 557.73 263.62 556.6 267.02 556.6"/></g><g id="LWPOLYLINE-76"><path class="cls-10" d="m212.67,558.81h2.26c.03-.18.09-.36.17-.52.41-.75,1.35-1.02,2.09-.61v-1.13s-4.53,0-4.53,0"/></g><g id="LWPOLYLINE-77"><path class="cls-10" d="m217.2,559.95c-.12-.84-.9-1.43-1.74-1.31-.18.03-.36.08-.52.17l-.05,48.34h2.26s0-2.43,0-2.43h0l.05-44.77h0Z"/></g><g id="ARC-164"><path class="cls-2" d="m264.75,558.86c-1.88,25.59-22.04,46.04-47.6,48.28"/></g><g id="LINE-103"><line class="cls-1" x1="14.92" y1="125.51" x2="14.92" y2="306.64"/></g><g id="LINE-104"><line class="cls-1" x1="12.21" y1="125.51" x2="12.21" y2="306.64"/></g><g id="LINE-105"><line class="cls-1" x1="12.21" y1="480.98" x2="12.21" y2="662.11"/></g><g id="LINE-106"><line class="cls-1" x1="14.92" y1="480.98" x2="14.92" y2="662.11"/></g><g id="LINE-107"><line class="cls-11" x1="280.6" y1="515.35" x2="371.16" y2="515.35"/></g><g id="LINE-108"><line class="cls-11" x1="280.6" y1="318.79" x2="371.16" y2="318.79"/></g><g id="HATCH-3"><path class="cls-13" d="m371.16,79.6h-224.52s0-57.74,0-57.74H20.36v30.5s2.26-2.27,2.26-2.27h7.03l2.26,2.26v.91l13.48,4.05,1.62,4.09v8.18l-1.62,4.09-13.48,4.05v.91l-2.26,2.26h-7.03l-2.26-2.26v37.19s2.26-2.27,2.26-2.27h7.03l2.26,2.26v.91l13.48,4.05,1.62,4.09v8.18l-1.62,4.09-13.48,4.05v.91l-2.26,2.26h-7.03l-2.26-2.26v36.89s2.26-2.27,2.26-2.27h7.03l2.26,2.26v.91l13.48,4.05,1.62,4.09v8.18l-1.62,4.09-13.48,4.05v.91l-2.26,2.26h-7.03l-2.26-2.26v68.8h24.86s0,1.24,0,1.24h2.26s-.05-48.34-.05-48.34h2.26s47.6,48.28,47.6,48.28h2.26v-1.19s29.39,0,29.39,0v1.24h2.26s-.05-48.34-.05-48.34h2.26s47.6,48.28,47.6,48.28h2.26v-1.19s29.39,0,29.39,0v1.24h2.26s-.05-48.34-.05-48.34h2.26s47.6,48.28,47.6,48.28h2.26v-5.38s13.58,0,13.58,0v40.7s2.7,0,2.7,0l81.99-82.42h3.17v82.42h2.7V79.6m-1.98,151.76h.8v7.54h-.8v-7.54m-3.89-3.17l-81.99,82.42v4.09h2.71v4.09h82.45v-5.45h-3.17v-85.15m-1.52,10.71v-7.54h.8v7.54h-.8m-264.22,38.64h-3.39s0-1.13,0-1.13h1.13s0-1.13,0-1.13l-47.6-48.28v2.43s.05,44.33.05,44.33l-2.26,1.57,2.27,1.13v1.13s-4.53,0-4.53,0v1.02s-24.86,0-24.86,0v131.66s23.16,0,23.16,0l-4.08-4.08v-18.57s5.35-31.27,5.35-31.27l13.39-11.29h3.72s13.39,11.29,13.39,11.29l5.35,31.27v18.57s-4.08,4.08-4.08,4.08h22.99s0-132.74,0-132.74m83.73,0h-3.39s0-1.13,0-1.13h1.13s0-1.13,0-1.13l-47.6-48.28v2.43s.05,44.33.05,44.33l-2.26,1.57,2.27,1.13v1.13s-4.53,0-4.53,0v1.02s-24.86,0-24.86,0v131.66h56.62s3.92-5.48,3.92-5.48v-7.58s-6.36-5.05-6.36-5.05h-24.86s-6.36,6.11-6.36,6.11v-3.67s0-6.82,0-6.82l5.33-31.12,11.6-9.79h3.72s11.6,9.79,11.6,9.79l5.33,31.12v17.01s-3.92,5.48-3.92,5.48h1.65s20.93,0,20.93,0v-132.74m83.73,0h-3.39s0-1.13,0-1.13h1.13s0-1.13,0-1.13l-47.6-48.28v2.43s.05,44.33.05,44.33l-2.26,1.57,2.27,1.13v1.13s-4.53,0-4.53,0v1.02s-24.86,0-24.86,0v131.66h56.62s3.92-5.48,3.92-5.48v-7.58s-6.36-5.05-6.36-5.05h-24.86s-6.36,6.11-6.36,6.11v-3.67s0-6.82,0-6.82l5.33-31.12,11.6-9.79h3.72s11.6,9.79,11.6,9.79l5.33,31.12v17.01s-3.92,5.48-3.92,5.48h1.65s20.93,0,20.93,0v-132.74m0,146.32h-20.93s4.08,4.08,4.08,4.08v18.57s-5.35,31.27-5.35,31.27l-13.39,11.29h-3.72s-13.39-11.29-13.39-11.29l-5.35-31.27v-18.57s4.07-4.08,4.07-4.08h-25.21s0,131.66,0,131.66h24.86v1.02s4.53,0,4.53,0v1.13s-2.27,1.13-2.27,1.13l2.26,1.13-.05,44.77v2.43s47.6-48.28,47.6-48.28v-1.13s-1.13,0-1.13,0v-1.13s3.39,0,3.39,0v-132.74m-83.73,0h-20.93s4.08,4.08,4.08,4.08v18.57s-5.35,31.27-5.35,31.27l-13.39,11.29h-3.72s-13.39-11.29-13.39-11.29l-5.35-31.27v-18.57s4.07-4.08,4.07-4.08h-25.21s0,131.66,0,131.66h24.86v1.02s4.53,0,4.53,0v1.13s-2.27,1.13-2.27,1.13l2.26,1.13-.05,44.77v2.43s47.6-48.28,47.6-48.28v-1.13s-1.13,0-1.13,0v-1.13s3.39,0,3.39,0v-132.74m-83.73,0h-22.99s4.08,4.08,4.08,4.08v18.57s-5.35,31.27-5.35,31.27l-13.39,11.29h-3.72s-13.39-11.29-13.39-11.29l-5.35-31.27v-18.57s4.08-4.08,4.08-4.08h-23.16s0,131.66,0,131.66h24.86v1.02s4.53,0,4.53,0v1.13s-2.27,1.13-2.27,1.13l2.26,1.13-.05,44.77v2.43s47.6-48.28,47.6-48.28v-1.13s-1.13,0-1.13,0v-1.13s3.39,0,3.39,0v-132.74m271.61,99.67h-2.7v82.42h-3.17l-81.99-82.42h-2.7v40.7h-13.58v-5.37h-2.26s-47.6,48.28-47.6,48.28h-2.26s.05-48.34.05-48.34h-2.26s0,1.24,0,1.24h-29.39v-1.19s-2.26,0-2.26,0l-47.6,48.28h-2.26s.05-48.34.05-48.34h-2.26s0,1.24,0,1.24h-29.39v-1.19s-2.26,0-2.26,0l-47.6,48.28h-2.26s.05-48.34.05-48.34h-2.26s0,1.24,0,1.24h-24.86s0,159.16,0,159.16h126.29v-57.74h224.52s0-137.94,0-137.94m-1.98,79.25v-7.54h.8v7.54h-.8m-3.89-81.98h3.17v-5.45h-82.45v4.09h-2.71v4.09l81.99,82.42v-85.15m-1.52,74.43h.8v7.54h-.8v-7.54Z"/></g></svg>