<?xml version="1.0" encoding="UTF-8"?><svg id="MURATURA_sezioni_-_section_wall" xmlns="http://www.w3.org/2000/svg" width="595.28" height="638" viewBox="0 0 595.28 638"><defs><style>.cls-1{stroke:#4c4c99;}.cls-1,.cls-2,.cls-3,.cls-4,.cls-5{fill:none;stroke-linecap:round;stroke-linejoin:round;}.cls-1,.cls-4,.cls-5{stroke-width:.26px;}.cls-2{stroke:#000;stroke-width:1.13px;}.cls-3{stroke-width:.14px;}.cls-3,.cls-4{stroke:#ff0;}.cls-5{stroke:#5b5b5b;}</style></defs><g id="LINE"><line class="cls-3" x1="507.25" y1="223.55" x2="509.72" y2="223.55"/></g><g id="LINE-2"><line class="cls-3" x1="509.72" y1="223.55" x2="509.72" y2="227.67"/></g><g id="LINE-3"><line class="cls-3" x1="509.72" y1="227.67" x2="511.38" y2="227.67"/></g><g id="LINE-4"><line class="cls-3" x1="511.38" y1="227.67" x2="511.38" y2="231.8"/></g><g id="LINE-5"><line class="cls-3" x1="511.38" y1="231.8" x2="507.25" y2="231.8"/></g><g id="LINE-6"><line class="cls-3" x1="507.25" y1="231.8" x2="507.25" y2="223.55"/></g><g id="LINE-7"><line class="cls-3" x1="573.26" y1="223.55" x2="570.78" y2="223.55"/></g><g id="LINE-8"><line class="cls-3" x1="570.78" y1="223.55" x2="570.78" y2="227.67"/></g><g id="LINE-9"><line class="cls-3" x1="570.78" y1="227.67" x2="569.13" y2="227.67"/></g><g id="LINE-10"><line class="cls-3" x1="569.13" y1="227.67" x2="569.13" y2="231.8"/></g><g id="LINE-11"><line class="cls-3" x1="569.13" y1="231.8" x2="573.26" y2="231.8"/></g><g id="LINE-12"><line class="cls-3" x1="573.26" y1="231.8" x2="573.26" y2="223.55"/></g><g id="LINE-13"><line class="cls-3" x1="566.66" y1="223.66" x2="570.78" y2="223.66"/></g><g id="LINE-14"><line class="cls-3" x1="570.78" y1="162.74" x2="566.66" y2="162.74"/></g><g id="LINE-15"><line class="cls-3" x1="570.78" y1="162.74" x2="570.78" y2="162.74"/></g><g id="LINE-16"><line class="cls-3" x1="566.66" y1="162.74" x2="566.66" y2="223.66"/></g><g id="LINE-17"><line class="cls-3" x1="570.78" y1="223.66" x2="570.78" y2="162.74"/></g><g id="LWPOLYLINE"><rect class="cls-3" x="439.36" y="151.63" width="2.48" height="63.49"/></g><g id="LWPOLYLINE-2"><rect class="cls-3" x="356.42" y="159.67" width="2.48" height="55.45"/></g><g id="LWPOLYLINE-3"><rect class="cls-3" x="287.71" y="159.67" width="2.48" height="55.45"/></g><g id="LWPOLYLINE-4"><rect class="cls-3" x="218.99" y="159.67" width="2.48" height="55.45"/></g><g id="LWPOLYLINE-5"><rect class="cls-3" x="150.28" y="159.67" width="2.48" height="55.45"/></g><g id="LWPOLYLINE-6"><rect class="cls-3" x="81.56" y="159.67" width="2.48" height="55.45"/></g><g id="LWPOLYLINE-7"><rect class="cls-3" x="439.36" y="430.61" width="2.48" height="63.49"/></g><g id="LWPOLYLINE-8"><rect class="cls-3" x="356.42" y="430.61" width="2.48" height="55.45"/></g><g id="LWPOLYLINE-9"><rect class="cls-3" x="287.71" y="430.61" width="2.48" height="55.45"/></g><g id="LWPOLYLINE-10"><rect class="cls-3" x="218.99" y="430.61" width="2.48" height="55.45"/></g><g id="LWPOLYLINE-11"><rect class="cls-3" x="150.28" y="430.61" width="2.48" height="55.45"/></g><g id="LWPOLYLINE-12"><rect class="cls-3" x="81.56" y="430.61" width="2.48" height="55.45"/></g><g id="LINE-18"><line class="cls-3" x1="507.25" y1="422.19" x2="509.72" y2="422.19"/></g><g id="LINE-19"><line class="cls-3" x1="509.72" y1="422.19" x2="509.72" y2="418.06"/></g><g id="LINE-20"><line class="cls-3" x1="509.72" y1="418.06" x2="511.38" y2="418.06"/></g><g id="LINE-21"><line class="cls-3" x1="511.38" y1="418.06" x2="511.38" y2="413.93"/></g><g id="LINE-22"><line class="cls-3" x1="511.38" y1="413.93" x2="507.25" y2="413.93"/></g><g id="LINE-23"><line class="cls-3" x1="507.25" y1="413.93" x2="507.25" y2="422.19"/></g><g id="LINE-24"><line class="cls-3" x1="573.26" y1="422.19" x2="570.78" y2="422.19"/></g><g id="LINE-25"><line class="cls-3" x1="570.78" y1="422.19" x2="570.78" y2="418.06"/></g><g id="LINE-26"><line class="cls-3" x1="570.78" y1="418.06" x2="569.13" y2="418.06"/></g><g id="LINE-27"><line class="cls-3" x1="569.13" y1="418.06" x2="569.13" y2="413.93"/></g><g id="LINE-28"><line class="cls-3" x1="569.13" y1="413.93" x2="573.26" y2="413.93"/></g><g id="LINE-29"><line class="cls-3" x1="573.26" y1="413.93" x2="573.26" y2="422.19"/></g><g id="LINE-30"><line class="cls-3" x1="566.66" y1="422.07" x2="570.78" y2="422.07"/></g><g id="LINE-31"><line class="cls-3" x1="570.78" y1="482.99" x2="566.66" y2="482.99"/></g><g id="LINE-32"><line class="cls-3" x1="570.78" y1="482.99" x2="570.78" y2="482.99"/></g><g id="LINE-33"><line class="cls-3" x1="566.66" y1="482.99" x2="566.66" y2="422.07"/></g><g id="LINE-34"><line class="cls-3" x1="570.78" y1="422.07" x2="570.78" y2="482.99"/></g><g id="ARC"><path class="cls-1" d="m47.43,274.85c.17,2.28.51,4.55.99,6.78"/></g><g id="ARC-2"><path class="cls-1" d="m52.14,260.52c-3.25,4.05-4.92,9.14-4.71,14.33"/></g><g id="ARC-3"><path class="cls-1" d="m48.43,281.63c.96,4.68,2.08,9.33,3.36,13.94"/></g><g id="LINE-35"><line class="cls-1" x1="57.95" y1="276.25" x2="57.95" y2="277.91"/></g><g id="ARC-4"><path class="cls-1" d="m58.94,274.26c-.63.47-.99,1.21-.99,1.99"/></g><g id="ARC-5"><path class="cls-1" d="m57.95,277.91c0,.63.47,1.16,1.1,1.23"/></g><g id="ARC-6"><path class="cls-1" d="m52.84,264.4c-2.08,3.74-2.76,8.11-1.89,12.3"/></g><g id="ARC-7"><path class="cls-1" d="m60.3,287.17c1.08.12,2.16.12,3.24,0"/></g><g id="ARC-8"><path class="cls-1" d="m50.94,276.7c.38,1.86,1.02,3.67,1.9,5.36"/></g><g id="LINE-36"><line class="cls-1" x1="43.5" y1="307.13" x2="43.5" y2="301.2"/></g><g id="ARC-9"><path class="cls-1" d="m48.17,295.94c-2.67.32-4.67,2.58-4.67,5.26"/></g><g id="ARC-10"><path class="cls-1" d="m43.5,307.13c0,1.83,1.48,3.31,3.31,3.31"/></g><g id="CIRCLE"><circle class="cls-1" cx="61.92" cy="300.34" r="1.12"/></g><g id="CIRCLE-2"><circle class="cls-1" cx="55.3" cy="291.4" r=".62"/></g><g id="ARC-11"><path class="cls-1" d="m45.4,303.09c0,1.69,1.27,3.11,2.95,3.29"/></g><g id="ARC-12"><path class="cls-1" d="m45.4,303.09c.26,1.44,1.44,2.54,2.9,2.7"/></g><g id="ARC-13"><path class="cls-1" d="m75.54,305.8c1.46-.16,2.64-1.26,2.9-2.7"/></g><g id="ARC-14"><path class="cls-1" d="m75.49,306.39c1.68-.18,2.95-1.6,2.95-3.29"/></g><g id="ARC-15"><path class="cls-1" d="m48.3,305.8c9.05,1,18.19,1,27.25,0"/></g><g id="ARC-16"><path class="cls-1" d="m48.35,306.39c9.02.99,18.12.99,27.13,0"/></g><g id="CIRCLE-3"><circle class="cls-1" cx="68.54" cy="291.4" r=".62"/></g><g id="CIRCLE-4"><circle class="cls-1" cx="61.92" cy="300.34" r="1.12"/></g><g id="ARC-17"><path class="cls-1" d="m77.03,310.44c1.83,0,3.31-1.48,3.31-3.31"/></g><g id="ARC-18"><path class="cls-1" d="m80.34,301.2c0-2.68-2.01-4.94-4.67-5.26"/></g><g id="ARC-19"><path class="cls-1" d="m75.67,295.94c-9.13-1.09-18.36-1.09-27.5,0"/></g><g id="LINE-37"><line class="cls-1" x1="77.03" y1="310.44" x2="46.81" y2="310.44"/></g><g id="LINE-38"><line class="cls-1" x1="80.34" y1="307.13" x2="80.34" y2="301.2"/></g><g id="ARC-20"><path class="cls-1" d="m71,282.06c.88-1.69,1.51-3.49,1.9-5.36"/></g><g id="ARC-21"><path class="cls-1" d="m63.54,287.17c3.18-.35,5.98-2.27,7.46-5.11"/></g><g id="ARC-22"><path class="cls-1" d="m71,264.4c-2.79-5.02-9.12-6.82-14.14-4.02-1.69.94-3.08,2.33-4.02,4.02"/></g><g id="ARC-23"><path class="cls-1" d="m72.9,276.7c.86-4.2.19-8.56-1.89-12.3"/></g><g id="ARC-24"><path class="cls-1" d="m64.8,279.14c.63-.07,1.1-.6,1.1-1.23"/></g><g id="ARC-25"><path class="cls-1" d="m65.89,276.25c0-.78-.37-1.52-.99-1.99"/></g><g id="LINE-39"><line class="cls-1" x1="65.89" y1="276.25" x2="65.89" y2="277.91"/></g><g id="ARC-26"><path class="cls-1" d="m64.9,274.26c-1.77-1.32-4.19-1.32-5.96,0"/></g><g id="ARC-27"><path class="cls-1" d="m59.04,279.14c1.91.22,3.84.22,5.75,0"/></g><g id="ARC-28"><path class="cls-1" d="m72.05,295.57c1.28-4.61,2.4-9.25,3.36-13.94"/></g><g id="ARC-29"><path class="cls-1" d="m76.41,274.85c.21-5.19-1.46-10.28-4.71-14.33"/></g><g id="ARC-30"><path class="cls-1" d="m75.42,281.63c.49-2.23.82-4.5.99-6.78"/></g><g id="ARC-31"><path class="cls-1" d="m71.7,260.52c-4.94-5.4-13.32-5.77-18.71-.84-.29.27-.57.55-.84.84"/></g><g id="ARC-32"><path class="cls-1" d="m52.84,282.06c1.47,2.84,4.27,4.76,7.46,5.11"/></g><g id="ARC-33"><path class="cls-1" d="m116.15,274.85c.17,2.28.51,4.55.99,6.78"/></g><g id="ARC-34"><path class="cls-1" d="m120.86,260.52c-3.25,4.05-4.92,9.14-4.71,14.33"/></g><g id="ARC-35"><path class="cls-1" d="m117.14,281.63c.96,4.68,2.08,9.33,3.36,13.94"/></g><g id="LINE-40"><line class="cls-1" x1="126.66" y1="276.25" x2="126.66" y2="277.91"/></g><g id="ARC-36"><path class="cls-1" d="m127.66,274.26c-.63.47-.99,1.21-.99,1.99"/></g><g id="ARC-37"><path class="cls-1" d="m126.66,277.91c0,.63.47,1.16,1.1,1.23"/></g><g id="ARC-38"><path class="cls-1" d="m121.55,264.4c-2.08,3.74-2.76,8.11-1.89,12.3"/></g><g id="ARC-39"><path class="cls-1" d="m129.02,287.17c1.08.12,2.16.12,3.24,0"/></g><g id="ARC-40"><path class="cls-1" d="m119.66,276.7c.38,1.86,1.02,3.67,1.9,5.36"/></g><g id="LINE-41"><line class="cls-1" x1="112.22" y1="307.13" x2="112.22" y2="301.2"/></g><g id="ARC-41"><path class="cls-1" d="m116.89,295.94c-2.67.32-4.67,2.58-4.67,5.26"/></g><g id="ARC-42"><path class="cls-1" d="m112.22,307.13c0,1.83,1.48,3.31,3.31,3.31"/></g><g id="CIRCLE-5"><circle class="cls-1" cx="130.64" cy="300.34" r="1.12"/></g><g id="CIRCLE-6"><circle class="cls-1" cx="124.01" cy="291.4" r=".62"/></g><g id="ARC-43"><path class="cls-1" d="m114.12,303.09c0,1.69,1.27,3.11,2.95,3.29"/></g><g id="ARC-44"><path class="cls-1" d="m114.12,303.09c.26,1.44,1.44,2.54,2.9,2.7"/></g><g id="ARC-45"><path class="cls-1" d="m144.25,305.8c1.46-.16,2.64-1.26,2.9-2.7"/></g><g id="ARC-46"><path class="cls-1" d="m144.2,306.39c1.68-.18,2.95-1.6,2.95-3.29"/></g><g id="ARC-47"><path class="cls-1" d="m117.02,305.8c9.05,1,18.19,1,27.25,0"/></g><g id="ARC-48"><path class="cls-1" d="m117.07,306.39c9.02.99,18.12.99,27.13,0"/></g><g id="CIRCLE-7"><circle class="cls-1" cx="137.26" cy="291.4" r=".62"/></g><g id="CIRCLE-8"><circle class="cls-1" cx="130.64" cy="300.34" r="1.12"/></g><g id="ARC-49"><path class="cls-1" d="m145.75,310.44c1.83,0,3.31-1.48,3.31-3.31"/></g><g id="ARC-50"><path class="cls-1" d="m149.06,301.2c0-2.68-2.01-4.94-4.67-5.26"/></g><g id="ARC-51"><path class="cls-1" d="m144.38,295.94c-9.13-1.09-18.36-1.09-27.5,0"/></g><g id="LINE-42"><line class="cls-1" x1="145.75" y1="310.44" x2="115.53" y2="310.44"/></g><g id="LINE-43"><line class="cls-1" x1="149.06" y1="307.13" x2="149.06" y2="301.2"/></g><g id="ARC-52"><path class="cls-1" d="m139.71,282.06c.88-1.69,1.51-3.49,1.9-5.36"/></g><g id="ARC-53"><path class="cls-1" d="m132.26,287.17c3.18-.35,5.98-2.27,7.46-5.11"/></g><g id="ARC-54"><path class="cls-1" d="m139.72,264.4c-2.79-5.02-9.12-6.82-14.14-4.02-1.69.94-3.08,2.33-4.02,4.02"/></g><g id="ARC-55"><path class="cls-1" d="m141.61,276.7c.86-4.2.19-8.56-1.89-12.3"/></g><g id="ARC-56"><path class="cls-1" d="m133.51,279.14c.63-.07,1.1-.6,1.1-1.23"/></g><g id="ARC-57"><path class="cls-1" d="m134.61,276.25c0-.78-.37-1.52-.99-1.99"/></g><g id="LINE-44"><line class="cls-1" x1="134.61" y1="276.25" x2="134.61" y2="277.91"/></g><g id="ARC-58"><path class="cls-1" d="m133.62,274.26c-1.77-1.32-4.19-1.32-5.96,0"/></g><g id="ARC-59"><path class="cls-1" d="m127.76,279.14c1.91.22,3.84.22,5.75,0"/></g><g id="ARC-60"><path class="cls-1" d="m140.77,295.57c1.28-4.61,2.4-9.25,3.36-13.94"/></g><g id="ARC-61"><path class="cls-1" d="m145.12,274.85c.21-5.19-1.46-10.28-4.71-14.33"/></g><g id="ARC-62"><path class="cls-1" d="m144.13,281.63c.49-2.23.82-4.5.99-6.78"/></g><g id="ARC-63"><path class="cls-1" d="m140.41,260.52c-4.94-5.4-13.32-5.77-18.71-.84-.29.27-.57.55-.84.84"/></g><g id="ARC-64"><path class="cls-1" d="m121.56,282.06c1.47,2.84,4.27,4.76,7.46,5.11"/></g><g id="LINE-45"><line class="cls-4" x1="300.85" y1="314.59" x2="300.85" y2="215.24"/></g><g id="ARC-65"><path class="cls-1" d="m253.58,274.85c.17,2.28.51,4.55.99,6.78"/></g><g id="ARC-66"><path class="cls-1" d="m258.29,260.52c-3.25,4.05-4.92,9.14-4.71,14.33"/></g><g id="ARC-67"><path class="cls-1" d="m254.57,281.63c.96,4.68,2.08,9.33,3.36,13.94"/></g><g id="LINE-46"><line class="cls-1" x1="264.09" y1="276.25" x2="264.09" y2="277.91"/></g><g id="ARC-68"><path class="cls-1" d="m265.09,274.26c-.63.47-.99,1.21-.99,1.99"/></g><g id="ARC-69"><path class="cls-1" d="m264.09,277.91c0,.63.47,1.16,1.1,1.23"/></g><g id="ARC-70"><path class="cls-1" d="m258.98,264.4c-2.08,3.74-2.76,8.11-1.89,12.3"/></g><g id="ARC-71"><path class="cls-1" d="m266.45,287.17c1.08.12,2.16.12,3.24,0"/></g><g id="ARC-72"><path class="cls-1" d="m257.09,276.7c.38,1.86,1.02,3.67,1.9,5.36"/></g><g id="LINE-47"><line class="cls-1" x1="249.65" y1="307.13" x2="249.65" y2="301.2"/></g><g id="ARC-73"><path class="cls-1" d="m254.32,295.94c-2.67.32-4.67,2.58-4.67,5.26"/></g><g id="ARC-74"><path class="cls-1" d="m249.65,307.13c0,1.83,1.48,3.31,3.31,3.31"/></g><g id="CIRCLE-9"><circle class="cls-1" cx="268.07" cy="300.34" r="1.12"/></g><g id="CIRCLE-10"><circle class="cls-1" cx="261.44" cy="291.4" r=".62"/></g><g id="ARC-75"><path class="cls-1" d="m251.55,303.09c0,1.69,1.27,3.11,2.95,3.29"/></g><g id="ARC-76"><path class="cls-1" d="m251.55,303.09c.26,1.44,1.44,2.54,2.9,2.7"/></g><g id="ARC-77"><path class="cls-1" d="m281.68,305.8c1.46-.16,2.64-1.26,2.9-2.7"/></g><g id="ARC-78"><path class="cls-1" d="m281.63,306.39c1.68-.18,2.95-1.6,2.95-3.29"/></g><g id="ARC-79"><path class="cls-1" d="m254.45,305.8c9.05,1,18.19,1,27.25,0"/></g><g id="ARC-80"><path class="cls-1" d="m254.5,306.39c9.02.99,18.12.99,27.13,0"/></g><g id="CIRCLE-11"><circle class="cls-1" cx="274.69" cy="291.4" r=".62"/></g><g id="CIRCLE-12"><circle class="cls-1" cx="268.07" cy="300.34" r="1.12"/></g><g id="ARC-81"><path class="cls-1" d="m283.18,310.44c1.83,0,3.31-1.48,3.31-3.31"/></g><g id="ARC-82"><path class="cls-1" d="m286.49,301.2c0-2.68-2.01-4.94-4.67-5.26"/></g><g id="ARC-83"><path class="cls-1" d="m281.82,295.94c-9.13-1.09-18.36-1.09-27.5,0"/></g><g id="LINE-48"><line class="cls-1" x1="283.18" y1="310.44" x2="252.96" y2="310.44"/></g><g id="LINE-49"><line class="cls-1" x1="286.49" y1="307.13" x2="286.49" y2="301.2"/></g><g id="ARC-84"><path class="cls-1" d="m277.14,282.06c.88-1.69,1.51-3.49,1.9-5.36"/></g><g id="ARC-85"><path class="cls-1" d="m269.69,287.17c3.18-.35,5.98-2.27,7.46-5.11"/></g><g id="ARC-86"><path class="cls-1" d="m277.15,264.4c-2.79-5.02-9.12-6.82-14.14-4.02-1.69.94-3.08,2.33-4.02,4.02"/></g><g id="ARC-87"><path class="cls-1" d="m279.04,276.7c.86-4.2.19-8.56-1.89-12.3"/></g><g id="ARC-88"><path class="cls-1" d="m270.94,279.14c.63-.07,1.1-.6,1.1-1.23"/></g><g id="ARC-89"><path class="cls-1" d="m272.04,276.25c0-.78-.37-1.52-.99-1.99"/></g><g id="LINE-50"><line class="cls-1" x1="272.04" y1="276.25" x2="272.04" y2="277.91"/></g><g id="ARC-90"><path class="cls-1" d="m271.05,274.26c-1.77-1.32-4.19-1.32-5.96,0"/></g><g id="ARC-91"><path class="cls-1" d="m265.19,279.14c1.91.22,3.84.22,5.75,0"/></g><g id="ARC-92"><path class="cls-1" d="m278.2,295.57c1.28-4.61,2.4-9.25,3.36-13.94"/></g><g id="ARC-93"><path class="cls-1" d="m282.56,274.85c.21-5.19-1.46-10.28-4.71-14.33"/></g><g id="ARC-94"><path class="cls-1" d="m281.56,281.63c.49-2.23.82-4.5.99-6.78"/></g><g id="ARC-95"><path class="cls-1" d="m277.84,260.52c-4.94-5.4-13.32-5.77-18.71-.84-.29.27-.57.55-.84.84"/></g><g id="ARC-96"><path class="cls-1" d="m258.99,282.06c1.47,2.84,4.27,4.76,7.46,5.11"/></g><g id="LINE-51"><line class="cls-4" x1="303.33" y1="314.59" x2="303.33" y2="215.24"/></g><g id="ARC-97"><path class="cls-1" d="m184.86,274.85c.17,2.28.51,4.55.99,6.78"/></g><g id="ARC-98"><path class="cls-1" d="m189.58,260.52c-3.25,4.05-4.92,9.14-4.71,14.33"/></g><g id="ARC-99"><path class="cls-1" d="m185.86,281.63c.96,4.68,2.08,9.33,3.36,13.94"/></g><g id="LINE-52"><line class="cls-1" x1="195.38" y1="276.25" x2="195.38" y2="277.91"/></g><g id="ARC-100"><path class="cls-1" d="m196.37,274.26c-.63.47-.99,1.21-.99,1.99"/></g><g id="ARC-101"><path class="cls-1" d="m195.38,277.91c0,.63.47,1.16,1.1,1.23"/></g><g id="ARC-102"><path class="cls-1" d="m190.27,264.4c-2.08,3.74-2.76,8.11-1.89,12.3"/></g><g id="ARC-103"><path class="cls-1" d="m197.73,287.17c1.08.12,2.16.12,3.24,0"/></g><g id="ARC-104"><path class="cls-1" d="m188.38,276.7c.38,1.86,1.02,3.67,1.9,5.36"/></g><g id="LINE-53"><line class="cls-1" x1="180.93" y1="307.13" x2="180.93" y2="301.2"/></g><g id="ARC-105"><path class="cls-1" d="m185.6,295.94c-2.67.32-4.67,2.58-4.67,5.26"/></g><g id="ARC-106"><path class="cls-1" d="m180.93,307.13c0,1.83,1.48,3.31,3.31,3.31"/></g><g id="CIRCLE-13"><circle class="cls-1" cx="199.35" cy="300.34" r="1.12"/></g><g id="CIRCLE-14"><circle class="cls-1" cx="192.73" cy="291.4" r=".62"/></g><g id="ARC-107"><path class="cls-1" d="m182.83,303.09c0,1.69,1.27,3.11,2.95,3.29"/></g><g id="ARC-108"><path class="cls-1" d="m182.83,303.09c.26,1.44,1.44,2.54,2.9,2.7"/></g><g id="ARC-109"><path class="cls-1" d="m212.97,305.8c1.46-.16,2.64-1.26,2.9-2.7"/></g><g id="ARC-110"><path class="cls-1" d="m212.92,306.39c1.68-.18,2.95-1.6,2.95-3.29"/></g><g id="ARC-111"><path class="cls-1" d="m185.74,305.8c9.05,1,18.19,1,27.25,0"/></g><g id="ARC-112"><path class="cls-1" d="m185.78,306.39c9.02.99,18.12.99,27.13,0"/></g><g id="CIRCLE-15"><circle class="cls-1" cx="205.97" cy="291.4" r=".62"/></g><g id="CIRCLE-16"><circle class="cls-1" cx="199.35" cy="300.34" r="1.12"/></g><g id="ARC-113"><path class="cls-1" d="m214.46,310.44c1.83,0,3.31-1.48,3.31-3.31"/></g><g id="ARC-114"><path class="cls-1" d="m217.77,301.2c0-2.68-2.01-4.94-4.67-5.26"/></g><g id="ARC-115"><path class="cls-1" d="m213.1,295.94c-9.13-1.09-18.36-1.09-27.5,0"/></g><g id="LINE-54"><line class="cls-1" x1="214.46" y1="310.44" x2="184.24" y2="310.44"/></g><g id="LINE-55"><line class="cls-1" x1="217.77" y1="307.13" x2="217.77" y2="301.2"/></g><g id="ARC-116"><path class="cls-1" d="m208.43,282.06c.88-1.69,1.51-3.49,1.9-5.36"/></g><g id="ARC-117"><path class="cls-1" d="m200.97,287.17c3.18-.35,5.98-2.27,7.46-5.11"/></g><g id="ARC-118"><path class="cls-1" d="m208.43,264.4c-2.79-5.02-9.12-6.82-14.14-4.02-1.69.94-3.08,2.33-4.02,4.02"/></g><g id="ARC-119"><path class="cls-1" d="m210.33,276.7c.86-4.2.19-8.56-1.89-12.3"/></g><g id="ARC-120"><path class="cls-1" d="m202.23,279.14c.63-.07,1.1-.6,1.1-1.23"/></g><g id="ARC-121"><path class="cls-1" d="m203.33,276.25c0-.78-.37-1.52-.99-1.99"/></g><g id="LINE-56"><line class="cls-1" x1="203.33" y1="276.25" x2="203.33" y2="277.91"/></g><g id="ARC-122"><path class="cls-1" d="m202.33,274.26c-1.77-1.32-4.19-1.32-5.96,0"/></g><g id="ARC-123"><path class="cls-1" d="m196.48,279.14c1.91.22,3.84.22,5.75,0"/></g><g id="ARC-124"><path class="cls-1" d="m209.48,295.57c1.28-4.61,2.4-9.25,3.36-13.94"/></g><g id="ARC-125"><path class="cls-1" d="m213.84,274.85c.21-5.19-1.46-10.28-4.71-14.33"/></g><g id="ARC-126"><path class="cls-1" d="m212.85,281.63c.49-2.23.82-4.5.99-6.78"/></g><g id="ARC-127"><path class="cls-1" d="m209.13,260.52c-4.94-5.4-13.32-5.77-18.71-.84-.29.27-.57.55-.84.84"/></g><g id="ARC-128"><path class="cls-1" d="m190.27,282.06c1.47,2.84,4.27,4.76,7.46,5.11"/></g><g id="ARC-129"><path class="cls-1" d="m322.29,274.85c.17,2.28.51,4.55.99,6.78"/></g><g id="ARC-130"><path class="cls-1" d="m327.01,260.52c-3.25,4.05-4.92,9.14-4.71,14.33"/></g><g id="ARC-131"><path class="cls-1" d="m323.29,281.63c.96,4.68,2.08,9.33,3.36,13.94"/></g><g id="LINE-57"><line class="cls-1" x1="332.81" y1="276.25" x2="332.81" y2="277.91"/></g><g id="ARC-132"><path class="cls-1" d="m333.8,274.26c-.63.47-.99,1.21-.99,1.99"/></g><g id="ARC-133"><path class="cls-1" d="m332.81,277.91c0,.63.47,1.16,1.1,1.23"/></g><g id="ARC-134"><path class="cls-1" d="m327.7,264.4c-2.08,3.74-2.76,8.11-1.89,12.3"/></g><g id="ARC-135"><path class="cls-1" d="m335.16,287.17c1.08.12,2.16.12,3.24,0"/></g><g id="ARC-136"><path class="cls-1" d="m325.81,276.7c.38,1.86,1.02,3.67,1.9,5.36"/></g><g id="LINE-58"><line class="cls-1" x1="318.36" y1="307.13" x2="318.36" y2="301.2"/></g><g id="ARC-137"><path class="cls-1" d="m323.03,295.94c-2.67.32-4.67,2.58-4.67,5.26"/></g><g id="ARC-138"><path class="cls-1" d="m318.36,307.13c0,1.83,1.48,3.31,3.31,3.31"/></g><g id="CIRCLE-17"><circle class="cls-1" cx="336.78" cy="300.34" r="1.12"/></g><g id="CIRCLE-18"><circle class="cls-1" cx="330.16" cy="291.4" r=".62"/></g><g id="ARC-139"><path class="cls-1" d="m320.27,303.09c0,1.69,1.27,3.11,2.95,3.29"/></g><g id="ARC-140"><path class="cls-1" d="m320.27,303.09c.26,1.44,1.44,2.54,2.9,2.7"/></g><g id="ARC-141"><path class="cls-1" d="m350.4,305.8c1.46-.16,2.64-1.26,2.9-2.7"/></g><g id="ARC-142"><path class="cls-1" d="m350.35,306.39c1.68-.18,2.95-1.6,2.95-3.29"/></g><g id="ARC-143"><path class="cls-1" d="m323.17,305.8c9.05,1,18.19,1,27.25,0"/></g><g id="ARC-144"><path class="cls-1" d="m323.22,306.39c9.02.99,18.12.99,27.13,0"/></g><g id="CIRCLE-19"><circle class="cls-1" cx="343.41" cy="291.4" r=".62"/></g><g id="CIRCLE-20"><circle class="cls-1" cx="336.78" cy="300.34" r="1.12"/></g><g id="ARC-145"><path class="cls-1" d="m351.89,310.44c1.83,0,3.31-1.48,3.31-3.31"/></g><g id="ARC-146"><path class="cls-1" d="m355.2,301.2c0-2.68-2.01-4.94-4.67-5.26"/></g><g id="ARC-147"><path class="cls-1" d="m350.53,295.94c-9.13-1.09-18.36-1.09-27.5,0"/></g><g id="LINE-59"><line class="cls-1" x1="351.89" y1="310.44" x2="321.67" y2="310.44"/></g><g id="LINE-60"><line class="cls-1" x1="355.2" y1="307.13" x2="355.2" y2="301.2"/></g><g id="ARC-148"><path class="cls-1" d="m345.86,282.06c.88-1.69,1.51-3.49,1.9-5.36"/></g><g id="ARC-149"><path class="cls-1" d="m338.4,287.17c3.18-.35,5.98-2.27,7.46-5.11"/></g><g id="ARC-150"><path class="cls-1" d="m345.87,264.4c-2.79-5.02-9.12-6.82-14.14-4.02-1.69.94-3.08,2.33-4.02,4.02"/></g><g id="ARC-151"><path class="cls-1" d="m347.76,276.7c.86-4.2.19-8.56-1.89-12.3"/></g><g id="ARC-152"><path class="cls-1" d="m339.66,279.14c.63-.07,1.1-.6,1.1-1.23"/></g><g id="ARC-153"><path class="cls-1" d="m340.76,276.25c0-.78-.37-1.52-.99-1.99"/></g><g id="LINE-61"><line class="cls-1" x1="340.76" y1="276.25" x2="340.76" y2="277.91"/></g><g id="ARC-154"><path class="cls-1" d="m339.76,274.26c-1.77-1.32-4.19-1.32-5.96,0"/></g><g id="ARC-155"><path class="cls-1" d="m333.91,279.14c1.91.22,3.84.22,5.75,0"/></g><g id="ARC-156"><path class="cls-1" d="m346.92,295.57c1.28-4.61,2.4-9.25,3.36-13.94"/></g><g id="ARC-157"><path class="cls-1" d="m351.27,274.85c.21-5.19-1.46-10.28-4.71-14.33"/></g><g id="ARC-158"><path class="cls-1" d="m350.28,281.63c.49-2.23.82-4.5.99-6.78"/></g><g id="ARC-159"><path class="cls-1" d="m346.56,260.52c-4.94-5.4-13.32-5.77-18.71-.84-.29.27-.57.55-.84.84"/></g><g id="ARC-160"><path class="cls-1" d="m327.71,282.06c1.47,2.84,4.27,4.76,7.46,5.11"/></g><g id="LINE-62"><line class="cls-4" x1="369.57" y1="314.59" x2="369.57" y2="215.24"/></g><g id="LINE-63"><line class="cls-4" x1="372.05" y1="314.59" x2="372.05" y2="215.24"/></g><g id="ARC-161"><path class="cls-1" d="m397.83,274.58c.17,2.28.51,4.55.99,6.78"/></g><g id="ARC-162"><path class="cls-1" d="m402.54,260.26c-3.25,4.05-4.92,9.14-4.71,14.33"/></g><g id="ARC-163"><path class="cls-1" d="m398.82,281.36c.96,4.68,2.08,9.33,3.36,13.94"/></g><g id="LINE-64"><line class="cls-1" x1="408.35" y1="275.98" x2="408.35" y2="277.64"/></g><g id="ARC-164"><path class="cls-1" d="m409.34,274c-.63.47-.99,1.21-.99,1.99"/></g><g id="ARC-165"><path class="cls-1" d="m408.35,277.64c0,.63.47,1.16,1.1,1.23"/></g><g id="ARC-166"><path class="cls-1" d="m403.24,264.13c-2.08,3.74-2.76,8.11-1.89,12.3"/></g><g id="ARC-167"><path class="cls-1" d="m410.7,286.9c1.08.12,2.16.12,3.24,0"/></g><g id="ARC-168"><path class="cls-1" d="m401.34,276.44c.38,1.86,1.02,3.67,1.9,5.36"/></g><g id="LINE-65"><line class="cls-1" x1="393.9" y1="306.86" x2="393.9" y2="300.94"/></g><g id="ARC-169"><path class="cls-1" d="m398.57,295.67c-2.67.32-4.67,2.58-4.67,5.26"/></g><g id="ARC-170"><path class="cls-1" d="m393.9,306.86c0,1.83,1.48,3.31,3.31,3.31"/></g><g id="CIRCLE-21"><circle class="cls-1" cx="412.32" cy="300.07" r="1.12"/></g><g id="CIRCLE-22"><circle class="cls-1" cx="405.7" cy="291.13" r=".62"/></g><g id="ARC-171"><path class="cls-1" d="m395.8,302.83c0,1.69,1.27,3.11,2.95,3.29"/></g><g id="ARC-172"><path class="cls-1" d="m395.8,302.83c.26,1.44,1.44,2.54,2.9,2.7"/></g><g id="ARC-173"><path class="cls-1" d="m425.94,305.53c1.46-.16,2.64-1.26,2.9-2.7"/></g><g id="ARC-174"><path class="cls-1" d="m425.89,306.12c1.68-.18,2.95-1.6,2.95-3.29"/></g><g id="ARC-175"><path class="cls-1" d="m398.7,305.53c9.05,1,18.19,1,27.25,0"/></g><g id="ARC-176"><path class="cls-1" d="m398.75,306.12c9.02.99,18.12.99,27.13,0"/></g><g id="CIRCLE-23"><circle class="cls-1" cx="418.94" cy="291.13" r=".62"/></g><g id="CIRCLE-24"><circle class="cls-1" cx="412.32" cy="300.07" r="1.12"/></g><g id="ARC-177"><path class="cls-1" d="m427.43,310.17c1.83,0,3.31-1.48,3.31-3.31"/></g><g id="ARC-178"><path class="cls-1" d="m430.74,300.94c0-2.68-2.01-4.94-4.67-5.26"/></g><g id="ARC-179"><path class="cls-1" d="m426.07,295.67c-9.13-1.09-18.36-1.09-27.5,0"/></g><g id="LINE-66"><line class="cls-1" x1="427.43" y1="310.17" x2="397.21" y2="310.17"/></g><g id="LINE-67"><line class="cls-1" x1="430.74" y1="306.86" x2="430.74" y2="300.94"/></g><g id="ARC-180"><path class="cls-1" d="m421.4,281.79c.88-1.69,1.51-3.49,1.9-5.36"/></g><g id="ARC-181"><path class="cls-1" d="m413.94,286.9c3.18-.35,5.98-2.27,7.46-5.11"/></g><g id="ARC-182"><path class="cls-1" d="m421.4,264.13c-2.79-5.02-9.12-6.82-14.14-4.02-1.69.94-3.08,2.33-4.02,4.02"/></g><g id="ARC-183"><path class="cls-1" d="m423.29,276.44c.86-4.2.19-8.56-1.89-12.3"/></g><g id="ARC-184"><path class="cls-1" d="m415.19,278.88c.63-.07,1.1-.6,1.1-1.23"/></g><g id="ARC-185"><path class="cls-1" d="m416.29,275.98c0-.78-.37-1.52-.99-1.99"/></g><g id="LINE-68"><line class="cls-1" x1="416.29" y1="275.98" x2="416.29" y2="277.64"/></g><g id="ARC-186"><path class="cls-1" d="m415.3,274c-1.77-1.32-4.19-1.32-5.96,0"/></g><g id="ARC-187"><path class="cls-1" d="m409.44,278.88c1.91.22,3.84.22,5.75,0"/></g><g id="ARC-188"><path class="cls-1" d="m422.45,295.3c1.28-4.61,2.4-9.25,3.36-13.94"/></g><g id="ARC-189"><path class="cls-1" d="m426.81,274.58c.21-5.19-1.46-10.28-4.71-14.33"/></g><g id="ARC-190"><path class="cls-1" d="m425.81,281.36c.49-2.23.82-4.5.99-6.78"/></g><g id="ARC-191"><path class="cls-1" d="m422.1,260.26c-4.94-5.4-13.32-5.77-18.71-.84-.29.27-.57.55-.84.84"/></g><g id="ARC-192"><path class="cls-1" d="m403.24,281.79c1.47,2.84,4.27,4.76,7.46,5.11"/></g><g id="LINE-69"><line class="cls-4" x1="456.24" y1="215.24" x2="441.83" y2="215.12"/></g><g id="LINE-70"><line class="cls-4" x1="456.24" y1="217.72" x2="441.83" y2="217.72"/></g><g id="LINE-71"><line class="cls-4" x1="441.83" y1="215.12" x2="441.83" y2="217.72"/></g><g id="LINE-72"><line class="cls-4" x1="372.05" y1="215.24" x2="369.57" y2="215.24"/></g><g id="LINE-73"><line class="cls-4" x1="369.57" y1="215.24" x2="358.91" y2="215.24"/></g><g id="LINE-74"><line class="cls-4" x1="369.57" y1="217.72" x2="358.91" y2="217.72"/></g><g id="LINE-75"><line class="cls-4" x1="358.91" y1="215.12" x2="358.91" y2="217.72"/></g><g id="LINE-76"><line class="cls-4" x1="303.33" y1="215.24" x2="300.85" y2="215.24"/></g><g id="LINE-77"><line class="cls-4" x1="232.14" y1="314.59" x2="232.14" y2="215.24"/></g><g id="LINE-78"><line class="cls-4" x1="234.62" y1="314.59" x2="234.62" y2="215.24"/></g><g id="LINE-79"><line class="cls-4" x1="300.85" y1="217.72" x2="290.19" y2="217.72"/></g><g id="LINE-80"><line class="cls-4" x1="300.85" y1="215.24" x2="290.19" y2="215.24"/></g><g id="LINE-81"><line class="cls-4" x1="290.19" y1="215.12" x2="290.19" y2="217.72"/></g><g id="LINE-82"><line class="cls-4" x1="234.62" y1="215.24" x2="232.14" y2="215.24"/></g><g id="LINE-83"><line class="cls-4" x1="165.9" y1="215.24" x2="163.42" y2="215.24"/></g><g id="LINE-84"><line class="cls-4" x1="221.48" y1="215.12" x2="221.48" y2="217.72"/></g><g id="LINE-85"><line class="cls-4" x1="232.14" y1="215.24" x2="221.48" y2="215.24"/></g><g id="LINE-86"><line class="cls-4" x1="232.14" y1="217.72" x2="221.48" y2="217.72"/></g><g id="LINE-87"><line class="cls-4" x1="165.9" y1="314.59" x2="165.9" y2="215.24"/></g><g id="LINE-88"><line class="cls-4" x1="163.42" y1="314.59" x2="163.42" y2="215.24"/></g><g id="LINE-89"><line class="cls-4" x1="94.7" y1="314.59" x2="94.7" y2="215.24"/></g><g id="LINE-90"><line class="cls-4" x1="97.19" y1="314.59" x2="97.19" y2="215.24"/></g><g id="LINE-91"><line class="cls-4" x1="97.19" y1="215.24" x2="94.7" y2="215.24"/></g><g id="LINE-92"><line class="cls-4" x1="163.42" y1="217.72" x2="152.76" y2="217.72"/></g><g id="LINE-93"><line class="cls-4" x1="163.42" y1="215.24" x2="152.76" y2="215.24"/></g><g id="LINE-94"><line class="cls-4" x1="152.76" y1="215.12" x2="152.76" y2="217.72"/></g><g id="LINE-95"><line class="cls-4" x1="84.05" y1="215.12" x2="84.05" y2="217.72"/></g><g id="LINE-96"><line class="cls-4" x1="94.7" y1="215.24" x2="84.05" y2="215.24"/></g><g id="LINE-97"><line class="cls-4" x1="94.7" y1="217.72" x2="84.05" y2="217.72"/></g><g id="LINE-98"><line class="cls-4" x1="28.47" y1="215.24" x2="17.26" y2="215.24"/></g><g id="LINE-99"><line class="cls-4" x1="28.47" y1="217.72" x2="17.76" y2="217.72"/></g><g id="LINE-100"><line class="cls-4" x1="28.47" y1="215.24" x2="28.47" y2="217.72"/></g><g id="LINE-101"><line class="cls-1" x1="133.92" y1="43.49" x2="133.92" y2="42.66"/></g><g id="LINE-102"><line class="cls-1" x1="81.55" y1="87.78" x2="61.72" y2="87.78"/></g><g id="LINE-103"><line class="cls-1" x1="27.74" y1="75" x2="27.74" y2="44.15"/></g><g id="LINE-104"><line class="cls-1" x1="28.4" y1="43.49" x2="81.55" y2="43.49"/></g><g id="LINE-105"><line class="cls-1" x1="81.55" y1="83.81" x2="61.72" y2="83.81"/></g><g id="ARC-193"><path class="cls-1" d="m52.37,56.12c-6.97,2.22-10.83,9.66-8.61,16.64,1.3,4.1,4.51,7.31,8.61,8.61"/></g><g id="ARC-194"><path class="cls-1" d="m71.08,81.36c6.97-2.22,10.83-9.66,8.61-16.64-1.3-4.1-4.51-7.31-8.61-8.61"/></g><g id="ARC-195"><path class="cls-1" d="m71.08,56.12c-6.08-1.93-12.62-1.93-18.7,0"/></g><g id="ARC-196"><path class="cls-1" d="m52.37,81.36c6.08,1.93,12.62,1.93,18.7,0"/></g><g id="ARC-197"><path class="cls-1" d="m52.07,82.31c3.12.99,6.38,1.5,9.65,1.5"/></g><g id="ARC-198"><path class="cls-1" d="m42.14,68.74c0,6.2,4.02,11.69,9.93,13.57"/></g><g id="LINE-106"><line class="cls-1" x1="42.14" y1="68.74" x2="42.14" y2="47.96"/></g><g id="ARC-199"><path class="cls-1" d="m50.87,86.1c3.51,1.12,7.17,1.68,10.86,1.68"/></g><g id="LINE-107"><line class="cls-1" x1="29.35" y1="76.65" x2="36.19" y2="76.86"/></g><g id="ARC-200"><path class="cls-1" d="m41.25,79.45c2.43,3.17,5.8,5.49,9.62,6.65"/></g><g id="ARC-201"><path class="cls-1" d="m41.25,79.45c-1.21-1.58-3.07-2.53-5.06-2.59"/></g><g id="ARC-202"><path class="cls-1" d="m27.74,75c0,.9.71,1.63,1.61,1.66"/></g><g id="ARC-203"><path class="cls-1" d="m28.4,43.49c-.37,0-.66.3-.66.66"/></g><g id="LINE-108"><line class="cls-1" x1="29.38" y1="45.72" x2="81.55" y2="45.72"/></g><g id="ARC-204"><path class="cls-1" d="m27.74,44.28c.11.82.81,1.44,1.64,1.44"/></g><g id="ARC-205"><path class="cls-1" d="m31.47,43.49s0,0,0,0"/></g><g id="LINE-109"><line class="cls-1" x1="43.8" y1="46.3" x2="81.55" y2="46.3"/></g><g id="ARC-206"><path class="cls-1" d="m43.8,46.3c-.91,0-1.66.74-1.66,1.66"/></g><g id="CIRCLE-25"><circle class="cls-1" cx="61.72" cy="60.46" r="2.48"/></g><g id="CIRCLE-26"><circle class="cls-1" cx="61.72" cy="60.46" r="3.73"/></g><g id="CIRCLE-27"><circle class="cls-1" cx="61.72" cy="49.95" r="1.45"/></g><g id="CIRCLE-28"><circle class="cls-1" cx="70" cy="51.02" r="1.24"/></g><g id="CIRCLE-29"><circle class="cls-1" cx="53.45" cy="51.02" r="1.24"/></g><g id="CIRCLE-30"><circle class="cls-1" cx="109.66" cy="51.02" r="1.24"/></g><g id="CIRCLE-31"><circle class="cls-1" cx="93.1" cy="51.02" r="1.24"/></g><g id="CIRCLE-32"><circle class="cls-1" cx="101.38" cy="49.95" r="1.45"/></g><g id="CIRCLE-33"><circle class="cls-1" cx="101.38" cy="60.46" r="3.73"/></g><g id="CIRCLE-34"><circle class="cls-1" cx="101.38" cy="60.46" r="2.48"/></g><g id="ARC-207"><path class="cls-1" d="m120.96,47.96c0-.91-.74-1.66-1.66-1.66"/></g><g id="LINE-110"><line class="cls-1" x1="119.31" y1="46.3" x2="81.55" y2="46.3"/></g><g id="ARC-208"><path class="cls-1" d="m131.64,43.49s0,0,0,0"/></g><g id="ARC-209"><path class="cls-1" d="m133.72,45.72c.83,0,1.53-.62,1.64-1.44"/></g><g id="LINE-111"><line class="cls-1" x1="133.72" y1="45.72" x2="81.55" y2="45.72"/></g><g id="ARC-210"><path class="cls-1" d="m135.37,44.15c0-.37-.3-.66-.66-.66"/></g><g id="ARC-211"><path class="cls-1" d="m133.76,76.65c.89-.03,1.61-.76,1.61-1.66"/></g><g id="ARC-212"><path class="cls-1" d="m126.91,76.86c-1.99.06-3.84,1.01-5.06,2.59"/></g><g id="ARC-213"><path class="cls-1" d="m112.23,86.1c3.82-1.15,7.19-3.48,9.62-6.65"/></g><g id="LINE-112"><line class="cls-1" x1="133.76" y1="76.65" x2="126.91" y2="76.86"/></g><g id="ARC-214"><path class="cls-1" d="m101.38,87.78c3.68,0,7.34-.57,10.86-1.68"/></g><g id="LINE-113"><line class="cls-1" x1="120.96" y1="68.74" x2="120.96" y2="47.96"/></g><g id="ARC-215"><path class="cls-1" d="m111.03,82.31c5.91-1.88,9.93-7.37,9.93-13.57"/></g><g id="ARC-216"><path class="cls-1" d="m101.38,83.81c3.28,0,6.53-.5,9.65-1.5"/></g><g id="ARC-217"><path class="cls-1" d="m92.03,81.36c6.08,1.93,12.62,1.93,18.7,0"/></g><g id="ARC-218"><path class="cls-1" d="m110.73,56.12c-6.08-1.93-12.62-1.93-18.7,0"/></g><g id="ARC-219"><path class="cls-1" d="m92.03,56.12c-6.97,2.22-10.83,9.66-8.61,16.64,1.3,4.1,4.51,7.31,8.61,8.61"/></g><g id="ARC-220"><path class="cls-1" d="m110.73,81.36c6.97-2.22,10.83-9.66,8.61-16.64-1.3-4.1-4.51-7.31-8.61-8.61"/></g><g id="LINE-114"><line class="cls-1" x1="81.55" y1="83.81" x2="101.38" y2="83.81"/></g><g id="LINE-115"><line class="cls-1" x1="134.7" y1="43.49" x2="81.55" y2="43.49"/></g><g id="LINE-116"><line class="cls-1" x1="135.37" y1="75" x2="135.37" y2="44.15"/></g><g id="LINE-117"><line class="cls-1" x1="81.55" y1="87.78" x2="101.38" y2="87.78"/></g><g id="LINE-118"><line class="cls-1" x1="29.19" y1="43.49" x2="29.19" y2="42.66"/></g><g id="LINE-119"><line class="cls-1" x1="133.92" y1="42.66" x2="29.19" y2="42.66"/></g><g id="LINE-120"><line class="cls-1" x1="244.29" y1="43.49" x2="244.29" y2="42.66"/></g><g id="LINE-121"><line class="cls-1" x1="191.92" y1="87.78" x2="172.09" y2="87.78"/></g><g id="LINE-122"><line class="cls-1" x1="138.11" y1="75" x2="138.11" y2="44.15"/></g><g id="LINE-123"><line class="cls-1" x1="138.77" y1="43.49" x2="191.92" y2="43.49"/></g><g id="LINE-124"><line class="cls-1" x1="191.92" y1="83.81" x2="172.09" y2="83.81"/></g><g id="ARC-221"><path class="cls-1" d="m162.74,56.12c-6.97,2.22-10.83,9.66-8.61,16.64,1.3,4.1,4.51,7.31,8.61,8.61"/></g><g id="ARC-222"><path class="cls-1" d="m181.44,81.36c6.97-2.22,10.83-9.66,8.61-16.64-1.3-4.1-4.51-7.31-8.61-8.61"/></g><g id="ARC-223"><path class="cls-1" d="m181.44,56.12c-6.08-1.93-12.62-1.93-18.7,0"/></g><g id="ARC-224"><path class="cls-1" d="m162.74,81.36c6.08,1.93,12.62,1.93,18.7,0"/></g><g id="ARC-225"><path class="cls-1" d="m162.44,82.31c3.12.99,6.38,1.5,9.65,1.5"/></g><g id="ARC-226"><path class="cls-1" d="m152.51,68.74c0,6.2,4.02,11.69,9.93,13.57"/></g><g id="LINE-125"><line class="cls-1" x1="152.51" y1="68.74" x2="152.51" y2="47.96"/></g><g id="ARC-227"><path class="cls-1" d="m161.24,86.1c3.51,1.12,7.17,1.68,10.86,1.68"/></g><g id="LINE-126"><line class="cls-1" x1="139.71" y1="76.65" x2="146.56" y2="76.86"/></g><g id="ARC-228"><path class="cls-1" d="m151.62,79.45c2.43,3.17,5.8,5.49,9.62,6.65"/></g><g id="ARC-229"><path class="cls-1" d="m151.62,79.45c-1.21-1.58-3.07-2.53-5.06-2.59"/></g><g id="ARC-230"><path class="cls-1" d="m138.11,75c0,.9.71,1.63,1.61,1.66"/></g><g id="ARC-231"><path class="cls-1" d="m138.77,43.49c-.37,0-.66.3-.66.66"/></g><g id="LINE-127"><line class="cls-1" x1="139.75" y1="45.72" x2="191.92" y2="45.72"/></g><g id="ARC-232"><path class="cls-1" d="m138.11,44.28c.11.82.81,1.44,1.64,1.44"/></g><g id="ARC-233"><path class="cls-1" d="m141.84,43.49s0,0,0,0"/></g><g id="LINE-128"><line class="cls-1" x1="154.17" y1="46.3" x2="191.92" y2="46.3"/></g><g id="ARC-234"><path class="cls-1" d="m154.17,46.3c-.91,0-1.66.74-1.66,1.66"/></g><g id="CIRCLE-35"><circle class="cls-1" cx="172.09" cy="60.46" r="2.48"/></g><g id="CIRCLE-36"><circle class="cls-1" cx="172.09" cy="60.46" r="3.73"/></g><g id="CIRCLE-37"><circle class="cls-1" cx="172.09" cy="49.95" r="1.45"/></g><g id="CIRCLE-38"><circle class="cls-1" cx="180.37" cy="51.02" r="1.24"/></g><g id="CIRCLE-39"><circle class="cls-1" cx="163.81" cy="51.02" r="1.24"/></g><g id="CIRCLE-40"><circle class="cls-1" cx="220.03" cy="51.02" r="1.24"/></g><g id="CIRCLE-41"><circle class="cls-1" cx="203.47" cy="51.02" r="1.24"/></g><g id="CIRCLE-42"><circle class="cls-1" cx="211.75" cy="49.95" r="1.45"/></g><g id="CIRCLE-43"><circle class="cls-1" cx="211.75" cy="60.46" r="3.73"/></g><g id="CIRCLE-44"><circle class="cls-1" cx="211.75" cy="60.46" r="2.48"/></g><g id="ARC-235"><path class="cls-1" d="m231.33,47.96c0-.91-.74-1.66-1.66-1.66"/></g><g id="LINE-129"><line class="cls-1" x1="229.67" y1="46.3" x2="191.92" y2="46.3"/></g><g id="ARC-236"><path class="cls-1" d="m242.01,43.49s0,0,0,0"/></g><g id="ARC-237"><path class="cls-1" d="m244.09,45.72c.83,0,1.53-.62,1.64-1.44"/></g><g id="LINE-130"><line class="cls-1" x1="244.09" y1="45.72" x2="191.92" y2="45.72"/></g><g id="ARC-238"><path class="cls-1" d="m245.73,44.15c0-.37-.3-.66-.66-.66"/></g><g id="ARC-239"><path class="cls-1" d="m244.13,76.65c.89-.03,1.61-.76,1.61-1.66"/></g><g id="ARC-240"><path class="cls-1" d="m237.28,76.86c-1.99.06-3.84,1.01-5.06,2.59"/></g><g id="ARC-241"><path class="cls-1" d="m222.6,86.1c3.82-1.15,7.19-3.48,9.62-6.65"/></g><g id="LINE-131"><line class="cls-1" x1="244.13" y1="76.65" x2="237.28" y2="76.86"/></g><g id="ARC-242"><path class="cls-1" d="m211.75,87.78c3.68,0,7.34-.57,10.86-1.68"/></g><g id="LINE-132"><line class="cls-1" x1="231.33" y1="68.74" x2="231.33" y2="47.96"/></g><g id="ARC-243"><path class="cls-1" d="m221.4,82.31c5.91-1.88,9.93-7.37,9.93-13.57"/></g><g id="ARC-244"><path class="cls-1" d="m211.75,83.81c3.28,0,6.53-.5,9.65-1.5"/></g><g id="ARC-245"><path class="cls-1" d="m202.4,81.36c6.08,1.93,12.62,1.93,18.7,0"/></g><g id="ARC-246"><path class="cls-1" d="m221.1,56.12c-6.08-1.93-12.62-1.93-18.7,0"/></g><g id="ARC-247"><path class="cls-1" d="m202.4,56.12c-6.97,2.22-10.83,9.66-8.61,16.64,1.3,4.1,4.51,7.31,8.61,8.61"/></g><g id="ARC-248"><path class="cls-1" d="m221.1,81.36c6.97-2.22,10.83-9.66,8.61-16.64-1.3-4.1-4.51-7.31-8.61-8.61"/></g><g id="LINE-133"><line class="cls-1" x1="191.92" y1="83.81" x2="211.75" y2="83.81"/></g><g id="LINE-134"><line class="cls-1" x1="245.07" y1="43.49" x2="191.92" y2="43.49"/></g><g id="LINE-135"><line class="cls-1" x1="245.73" y1="75" x2="245.73" y2="44.15"/></g><g id="LINE-136"><line class="cls-1" x1="191.92" y1="87.78" x2="211.75" y2="87.78"/></g><g id="LINE-137"><line class="cls-1" x1="139.56" y1="43.49" x2="139.56" y2="42.66"/></g><g id="LINE-138"><line class="cls-1" x1="244.29" y1="42.66" x2="139.56" y2="42.66"/></g><g id="LINE-139"><line class="cls-1" x1="354.87" y1="43.49" x2="354.87" y2="42.66"/></g><g id="LINE-140"><line class="cls-1" x1="302.51" y1="87.78" x2="282.68" y2="87.78"/></g><g id="LINE-141"><line class="cls-1" x1="248.69" y1="75" x2="248.69" y2="44.15"/></g><g id="LINE-142"><line class="cls-1" x1="249.35" y1="43.49" x2="302.51" y2="43.49"/></g><g id="LINE-143"><line class="cls-1" x1="302.51" y1="83.81" x2="282.68" y2="83.81"/></g><g id="ARC-249"><path class="cls-1" d="m273.33,56.12c-6.97,2.22-10.83,9.66-8.61,16.64,1.3,4.1,4.51,7.31,8.61,8.61"/></g><g id="ARC-250"><path class="cls-1" d="m292.03,81.36c6.97-2.22,10.83-9.66,8.61-16.64-1.3-4.1-4.51-7.31-8.61-8.61"/></g><g id="ARC-251"><path class="cls-1" d="m292.03,56.12c-6.08-1.93-12.62-1.93-18.7,0"/></g><g id="ARC-252"><path class="cls-1" d="m273.33,81.36c6.08,1.93,12.62,1.93,18.7,0"/></g><g id="ARC-253"><path class="cls-1" d="m273.03,82.31c3.12.99,6.38,1.5,9.65,1.5"/></g><g id="ARC-254"><path class="cls-1" d="m263.1,68.74c0,6.2,4.02,11.69,9.93,13.57"/></g><g id="LINE-144"><line class="cls-1" x1="263.1" y1="68.74" x2="263.1" y2="47.96"/></g><g id="ARC-255"><path class="cls-1" d="m271.82,86.1c3.51,1.12,7.17,1.68,10.86,1.68"/></g><g id="LINE-145"><line class="cls-1" x1="250.3" y1="76.65" x2="257.15" y2="76.86"/></g><g id="ARC-256"><path class="cls-1" d="m262.2,79.45c2.43,3.17,5.8,5.49,9.62,6.65"/></g><g id="ARC-257"><path class="cls-1" d="m262.2,79.45c-1.21-1.58-3.07-2.53-5.06-2.59"/></g><g id="ARC-258"><path class="cls-1" d="m248.69,75c0,.9.71,1.63,1.61,1.66"/></g><g id="ARC-259"><path class="cls-1" d="m249.35,43.49c-.37,0-.66.3-.66.66"/></g><g id="LINE-146"><line class="cls-1" x1="250.33" y1="45.72" x2="302.51" y2="45.72"/></g><g id="ARC-260"><path class="cls-1" d="m248.69,44.28c.11.82.81,1.44,1.64,1.44"/></g><g id="ARC-261"><path class="cls-1" d="m252.42,43.49s0,0,0,0"/></g><g id="LINE-147"><line class="cls-1" x1="264.75" y1="46.3" x2="302.51" y2="46.3"/></g><g id="ARC-262"><path class="cls-1" d="m264.75,46.3c-.91,0-1.66.74-1.66,1.66"/></g><g id="CIRCLE-45"><circle class="cls-1" cx="282.68" cy="60.46" r="2.48"/></g><g id="CIRCLE-46"><circle class="cls-1" cx="282.68" cy="60.46" r="3.73"/></g><g id="CIRCLE-47"><circle class="cls-1" cx="282.68" cy="49.95" r="1.45"/></g><g id="CIRCLE-48"><circle class="cls-1" cx="290.96" cy="51.02" r="1.24"/></g><g id="CIRCLE-49"><circle class="cls-1" cx="274.4" cy="51.02" r="1.24"/></g><g id="CIRCLE-50"><circle class="cls-1" cx="330.61" cy="51.02" r="1.24"/></g><g id="CIRCLE-51"><circle class="cls-1" cx="314.05" cy="51.02" r="1.24"/></g><g id="CIRCLE-52"><circle class="cls-1" cx="322.33" cy="49.95" r="1.45"/></g><g id="CIRCLE-53"><circle class="cls-1" cx="322.33" cy="60.46" r="3.73"/></g><g id="CIRCLE-54"><circle class="cls-1" cx="322.33" cy="60.46" r="2.48"/></g><g id="ARC-263"><path class="cls-1" d="m341.91,47.96c0-.91-.74-1.66-1.66-1.66"/></g><g id="LINE-148"><line class="cls-1" x1="340.26" y1="46.3" x2="302.51" y2="46.3"/></g><g id="ARC-264"><path class="cls-1" d="m352.59,43.49s0,0,0,0"/></g><g id="ARC-265"><path class="cls-1" d="m354.68,45.72c.83,0,1.53-.62,1.64-1.44"/></g><g id="LINE-149"><line class="cls-1" x1="354.68" y1="45.72" x2="302.51" y2="45.72"/></g><g id="ARC-266"><path class="cls-1" d="m356.32,44.15c0-.37-.3-.66-.66-.66"/></g><g id="ARC-267"><path class="cls-1" d="m354.71,76.65c.89-.03,1.61-.76,1.61-1.66"/></g><g id="ARC-268"><path class="cls-1" d="m347.86,76.86c-1.99.06-3.84,1.01-5.06,2.59"/></g><g id="ARC-269"><path class="cls-1" d="m333.19,86.1c3.82-1.15,7.19-3.48,9.62-6.65"/></g><g id="LINE-150"><line class="cls-1" x1="354.71" y1="76.65" x2="347.86" y2="76.86"/></g><g id="ARC-270"><path class="cls-1" d="m322.33,87.78c3.68,0,7.34-.57,10.86-1.68"/></g><g id="LINE-151"><line class="cls-1" x1="341.91" y1="68.74" x2="341.91" y2="47.96"/></g><g id="ARC-271"><path class="cls-1" d="m331.99,82.31c5.91-1.88,9.93-7.37,9.93-13.57"/></g><g id="ARC-272"><path class="cls-1" d="m322.33,83.81c3.28,0,6.53-.5,9.65-1.5"/></g><g id="ARC-273"><path class="cls-1" d="m312.98,81.36c6.08,1.93,12.62,1.93,18.7,0"/></g><g id="ARC-274"><path class="cls-1" d="m331.68,56.12c-6.08-1.93-12.62-1.93-18.7,0"/></g><g id="ARC-275"><path class="cls-1" d="m312.98,56.12c-6.97,2.22-10.83,9.66-8.61,16.64,1.3,4.1,4.51,7.31,8.61,8.61"/></g><g id="ARC-276"><path class="cls-1" d="m331.68,81.36c6.97-2.22,10.83-9.66,8.61-16.64-1.3-4.1-4.51-7.31-8.61-8.61"/></g><g id="LINE-152"><line class="cls-1" x1="302.51" y1="83.81" x2="322.33" y2="83.81"/></g><g id="LINE-153"><line class="cls-1" x1="355.66" y1="43.49" x2="302.51" y2="43.49"/></g><g id="LINE-154"><line class="cls-1" x1="356.32" y1="75" x2="356.32" y2="44.15"/></g><g id="LINE-155"><line class="cls-1" x1="302.51" y1="87.78" x2="322.33" y2="87.78"/></g><g id="LINE-156"><line class="cls-1" x1="250.14" y1="43.49" x2="250.14" y2="42.66"/></g><g id="LINE-157"><line class="cls-1" x1="354.87" y1="42.66" x2="250.14" y2="42.66"/></g><g id="LWPOLYLINE-13"><rect class="cls-1" x="444.53" y="237.48" width="2.51" height="50.43"/></g><g id="LWPOLYLINE-14"><rect class="cls-1" x="447.04" y="278.26" width="9.21" height="2.27"/></g><g id="LWPOLYLINE-15"><rect class="cls-1" x="447.04" y="246.03" width="9.21" height="2.27"/></g><g id="LWPOLYLINE-16"><rect class="cls-1" x="381.26" y="237.48" width="2.51" height="50.43"/></g><g id="LWPOLYLINE-17"><rect class="cls-1" x="372.05" y="278.26" width="9.21" height="2.27"/></g><g id="LWPOLYLINE-18"><rect class="cls-1" x="372.05" y="246.03" width="9.21" height="2.27"/></g><g id="ARC-277"><path class="cls-1" d="m48.43,364.1c-.49,2.23-.82,4.5-.99,6.78"/></g><g id="ARC-278"><path class="cls-1" d="m47.43,370.88c-.21,5.19,1.46,10.28,4.71,14.33"/></g><g id="ARC-279"><path class="cls-1" d="m51.79,350.16c-1.28,4.61-2.4,9.25-3.36,13.94"/></g><g id="LINE-158"><line class="cls-1" x1="57.95" y1="369.48" x2="57.95" y2="367.82"/></g><g id="ARC-280"><path class="cls-1" d="m57.95,369.48c0,.78.37,1.52.99,1.99"/></g><g id="ARC-281"><path class="cls-1" d="m59.04,366.59c-.63.07-1.1.6-1.1,1.23"/></g><g id="ARC-282"><path class="cls-1" d="m50.94,369.03c-.86,4.2-.19,8.56,1.89,12.3"/></g><g id="ARC-283"><path class="cls-1" d="m63.54,358.56c-1.08-.12-2.16-.12-3.24,0"/></g><g id="ARC-284"><path class="cls-1" d="m52.84,363.67c-.88,1.69-1.51,3.49-1.9,5.36"/></g><g id="LINE-159"><line class="cls-1" x1="43.5" y1="338.6" x2="43.5" y2="344.53"/></g><g id="ARC-285"><path class="cls-1" d="m43.5,344.53c0,2.68,2.01,4.94,4.67,5.26"/></g><g id="ARC-286"><path class="cls-1" d="m46.81,335.29c-1.83,0-3.31,1.48-3.31,3.31"/></g><g id="CIRCLE-55"><circle class="cls-1" cx="61.92" cy="345.39" r="1.12"/></g><g id="CIRCLE-56"><circle class="cls-1" cx="55.3" cy="354.33" r=".62"/></g><g id="ARC-287"><path class="cls-1" d="m48.35,339.34c-1.68.18-2.95,1.6-2.95,3.29"/></g><g id="ARC-288"><path class="cls-1" d="m48.3,339.93c-1.46.16-2.64,1.26-2.9,2.7"/></g><g id="ARC-289"><path class="cls-1" d="m78.44,342.64c-.26-1.44-1.44-2.54-2.9-2.7"/></g><g id="ARC-290"><path class="cls-1" d="m78.44,342.64c0-1.69-1.27-3.11-2.95-3.29"/></g><g id="ARC-291"><path class="cls-1" d="m75.55,339.93c-9.05-1-18.19-1-27.25,0"/></g><g id="ARC-292"><path class="cls-1" d="m75.49,339.34c-9.02-.99-18.12-.99-27.13,0"/></g><g id="CIRCLE-57"><circle class="cls-1" cx="68.54" cy="354.33" r=".62"/></g><g id="CIRCLE-58"><circle class="cls-1" cx="61.92" cy="345.39" r="1.12"/></g><g id="ARC-293"><path class="cls-1" d="m80.34,338.6c0-1.83-1.48-3.31-3.31-3.31"/></g><g id="ARC-294"><path class="cls-1" d="m75.67,349.79c2.67-.32,4.67-2.58,4.67-5.26"/></g><g id="ARC-295"><path class="cls-1" d="m48.17,349.79c9.13,1.09,18.36,1.09,27.5,0"/></g><g id="LINE-160"><line class="cls-1" x1="77.03" y1="335.29" x2="46.81" y2="335.29"/></g><g id="LINE-161"><line class="cls-1" x1="80.34" y1="338.6" x2="80.34" y2="344.53"/></g><g id="ARC-296"><path class="cls-1" d="m72.9,369.03c-.38-1.86-1.02-3.67-1.9-5.36"/></g><g id="ARC-297"><path class="cls-1" d="m71,363.67c-1.47-2.84-4.27-4.76-7.46-5.11"/></g><g id="ARC-298"><path class="cls-1" d="m52.84,381.33c2.79,5.02,9.12,6.82,14.14,4.02,1.69-.94,3.08-2.33,4.02-4.02"/></g><g id="ARC-299"><path class="cls-1" d="m71,381.33c2.08-3.74,2.76-8.11,1.89-12.3"/></g><g id="ARC-300"><path class="cls-1" d="m65.89,367.82c0-.63-.47-1.16-1.1-1.23"/></g><g id="ARC-301"><path class="cls-1" d="m64.9,371.47c.63-.47.99-1.21.99-1.99"/></g><g id="LINE-162"><line class="cls-1" x1="65.89" y1="369.48" x2="65.89" y2="367.82"/></g><g id="ARC-302"><path class="cls-1" d="m58.94,371.47c1.77,1.32,4.19,1.32,5.96,0"/></g><g id="ARC-303"><path class="cls-1" d="m64.8,366.59c-1.91-.22-3.84-.22-5.75,0"/></g><g id="ARC-304"><path class="cls-1" d="m75.42,364.1c-.96-4.68-2.08-9.33-3.36-13.94"/></g><g id="ARC-305"><path class="cls-1" d="m71.7,385.21c3.25-4.05,4.92-9.14,4.71-14.33"/></g><g id="ARC-306"><path class="cls-1" d="m76.41,370.88c-.17-2.28-.51-4.55-.99-6.78"/></g><g id="ARC-307"><path class="cls-1" d="m52.14,385.21c4.94,5.4,13.32,5.77,18.71.84.29-.27.57-.55.84-.84"/></g><g id="ARC-308"><path class="cls-1" d="m60.3,358.56c-3.18.35-5.98,2.27-7.46,5.11"/></g><g id="ARC-309"><path class="cls-1" d="m117.14,364.1c-.49,2.23-.82,4.5-.99,6.78"/></g><g id="ARC-310"><path class="cls-1" d="m116.15,370.88c-.21,5.19,1.46,10.28,4.71,14.33"/></g><g id="ARC-311"><path class="cls-1" d="m120.5,350.16c-1.28,4.61-2.4,9.25-3.36,13.94"/></g><g id="LINE-163"><line class="cls-1" x1="126.66" y1="369.48" x2="126.66" y2="367.82"/></g><g id="ARC-312"><path class="cls-1" d="m126.66,369.48c0,.78.37,1.52.99,1.99"/></g><g id="ARC-313"><path class="cls-1" d="m127.76,366.59c-.63.07-1.1.6-1.1,1.23"/></g><g id="ARC-314"><path class="cls-1" d="m119.66,369.03c-.86,4.2-.19,8.56,1.89,12.3"/></g><g id="ARC-315"><path class="cls-1" d="m132.26,358.56c-1.08-.12-2.16-.12-3.24,0"/></g><g id="ARC-316"><path class="cls-1" d="m121.56,363.67c-.88,1.69-1.51,3.49-1.9,5.36"/></g><g id="LINE-164"><line class="cls-1" x1="112.22" y1="338.6" x2="112.22" y2="344.53"/></g><g id="ARC-317"><path class="cls-1" d="m112.22,344.53c0,2.68,2.01,4.94,4.67,5.26"/></g><g id="ARC-318"><path class="cls-1" d="m115.53,335.29c-1.83,0-3.31,1.48-3.31,3.31"/></g><g id="CIRCLE-59"><circle class="cls-1" cx="130.64" cy="345.39" r="1.12"/></g><g id="CIRCLE-60"><circle class="cls-1" cx="124.01" cy="354.33" r=".62"/></g><g id="ARC-319"><path class="cls-1" d="m117.07,339.34c-1.68.18-2.95,1.6-2.95,3.29"/></g><g id="ARC-320"><path class="cls-1" d="m117.02,339.93c-1.46.16-2.64,1.26-2.9,2.7"/></g><g id="ARC-321"><path class="cls-1" d="m147.15,342.64c-.26-1.44-1.44-2.54-2.9-2.7"/></g><g id="ARC-322"><path class="cls-1" d="m147.15,342.64c0-1.69-1.27-3.11-2.95-3.29"/></g><g id="ARC-323"><path class="cls-1" d="m144.27,339.93c-9.05-1-18.19-1-27.25,0"/></g><g id="ARC-324"><path class="cls-1" d="m144.2,339.34c-9.02-.99-18.12-.99-27.13,0"/></g><g id="CIRCLE-61"><circle class="cls-1" cx="137.26" cy="354.33" r=".62"/></g><g id="CIRCLE-62"><circle class="cls-1" cx="130.64" cy="345.39" r="1.12"/></g><g id="ARC-325"><path class="cls-1" d="m149.06,338.6c0-1.83-1.48-3.31-3.31-3.31"/></g><g id="ARC-326"><path class="cls-1" d="m144.38,349.79c2.67-.32,4.67-2.58,4.67-5.26"/></g><g id="ARC-327"><path class="cls-1" d="m116.89,349.79c9.13,1.09,18.36,1.09,27.5,0"/></g><g id="LINE-165"><line class="cls-1" x1="145.75" y1="335.29" x2="115.53" y2="335.29"/></g><g id="LINE-166"><line class="cls-1" x1="149.06" y1="338.6" x2="149.06" y2="344.53"/></g><g id="ARC-328"><path class="cls-1" d="m141.61,369.03c-.38-1.86-1.02-3.67-1.9-5.36"/></g><g id="ARC-329"><path class="cls-1" d="m139.71,363.67c-1.47-2.84-4.27-4.76-7.46-5.11"/></g><g id="ARC-330"><path class="cls-1" d="m121.55,381.33c2.79,5.02,9.12,6.82,14.14,4.02,1.69-.94,3.08-2.33,4.02-4.02"/></g><g id="ARC-331"><path class="cls-1" d="m139.72,381.33c2.08-3.74,2.76-8.11,1.89-12.3"/></g><g id="ARC-332"><path class="cls-1" d="m134.61,367.82c0-.63-.47-1.16-1.1-1.23"/></g><g id="ARC-333"><path class="cls-1" d="m133.62,371.47c.63-.47.99-1.21.99-1.99"/></g><g id="LINE-167"><line class="cls-1" x1="134.61" y1="369.48" x2="134.61" y2="367.82"/></g><g id="ARC-334"><path class="cls-1" d="m127.66,371.47c1.77,1.32,4.19,1.32,5.96,0"/></g><g id="ARC-335"><path class="cls-1" d="m133.51,366.59c-1.91-.22-3.84-.22-5.75,0"/></g><g id="ARC-336"><path class="cls-1" d="m144.13,364.1c-.96-4.68-2.08-9.33-3.36-13.94"/></g><g id="ARC-337"><path class="cls-1" d="m140.41,385.21c3.25-4.05,4.92-9.14,4.71-14.33"/></g><g id="ARC-338"><path class="cls-1" d="m145.12,370.88c-.17-2.28-.51-4.55-.99-6.78"/></g><g id="ARC-339"><path class="cls-1" d="m120.86,385.21c4.94,5.4,13.32,5.77,18.71.84.29-.27.57-.55.84-.84"/></g><g id="ARC-340"><path class="cls-1" d="m129.02,358.56c-3.18.35-5.98,2.27-7.46,5.11"/></g><g id="LINE-168"><line class="cls-4" x1="300.85" y1="331.14" x2="300.85" y2="430.49"/></g><g id="ARC-341"><path class="cls-1" d="m254.57,364.1c-.49,2.23-.82,4.5-.99,6.78"/></g><g id="ARC-342"><path class="cls-1" d="m253.58,370.88c-.21,5.19,1.46,10.28,4.71,14.33"/></g><g id="ARC-343"><path class="cls-1" d="m257.93,350.16c-1.28,4.61-2.4,9.25-3.36,13.94"/></g><g id="LINE-169"><line class="cls-1" x1="264.09" y1="369.48" x2="264.09" y2="367.82"/></g><g id="ARC-344"><path class="cls-1" d="m264.09,369.48c0,.78.37,1.52.99,1.99"/></g><g id="ARC-345"><path class="cls-1" d="m265.19,366.59c-.63.07-1.1.6-1.1,1.23"/></g><g id="ARC-346"><path class="cls-1" d="m257.09,369.03c-.86,4.2-.19,8.56,1.89,12.3"/></g><g id="ARC-347"><path class="cls-1" d="m269.69,358.56c-1.08-.12-2.16-.12-3.24,0"/></g><g id="ARC-348"><path class="cls-1" d="m258.99,363.67c-.88,1.69-1.51,3.49-1.9,5.36"/></g><g id="LINE-170"><line class="cls-1" x1="249.65" y1="338.6" x2="249.65" y2="344.53"/></g><g id="ARC-349"><path class="cls-1" d="m249.65,344.53c0,2.68,2.01,4.94,4.67,5.26"/></g><g id="ARC-350"><path class="cls-1" d="m252.96,335.29c-1.83,0-3.31,1.48-3.31,3.31"/></g><g id="CIRCLE-63"><circle class="cls-1" cx="268.07" cy="345.39" r="1.12"/></g><g id="CIRCLE-64"><circle class="cls-1" cx="261.44" cy="354.33" r=".62"/></g><g id="ARC-351"><path class="cls-1" d="m254.5,339.34c-1.68.18-2.95,1.6-2.95,3.29"/></g><g id="ARC-352"><path class="cls-1" d="m254.45,339.93c-1.46.16-2.64,1.26-2.9,2.7"/></g><g id="ARC-353"><path class="cls-1" d="m284.58,342.64c-.26-1.44-1.44-2.54-2.9-2.7"/></g><g id="ARC-354"><path class="cls-1" d="m284.58,342.64c0-1.69-1.27-3.11-2.95-3.29"/></g><g id="ARC-355"><path class="cls-1" d="m281.7,339.93c-9.05-1-18.19-1-27.25,0"/></g><g id="ARC-356"><path class="cls-1" d="m281.63,339.34c-9.02-.99-18.12-.99-27.13,0"/></g><g id="CIRCLE-65"><circle class="cls-1" cx="274.69" cy="354.33" r=".62"/></g><g id="CIRCLE-66"><circle class="cls-1" cx="268.07" cy="345.39" r="1.12"/></g><g id="ARC-357"><path class="cls-1" d="m286.49,338.6c0-1.83-1.48-3.31-3.31-3.31"/></g><g id="ARC-358"><path class="cls-1" d="m281.82,349.79c2.67-.32,4.67-2.58,4.67-5.26"/></g><g id="ARC-359"><path class="cls-1" d="m254.32,349.79c9.13,1.09,18.36,1.09,27.5,0"/></g><g id="LINE-171"><line class="cls-1" x1="283.18" y1="335.29" x2="252.96" y2="335.29"/></g><g id="LINE-172"><line class="cls-1" x1="286.49" y1="338.6" x2="286.49" y2="344.53"/></g><g id="ARC-360"><path class="cls-1" d="m279.04,369.03c-.38-1.86-1.02-3.67-1.9-5.36"/></g><g id="ARC-361"><path class="cls-1" d="m277.14,363.67c-1.47-2.84-4.27-4.76-7.46-5.11"/></g><g id="ARC-362"><path class="cls-1" d="m258.98,381.33c2.79,5.02,9.12,6.82,14.14,4.02,1.69-.94,3.08-2.33,4.02-4.02"/></g><g id="ARC-363"><path class="cls-1" d="m277.15,381.33c2.08-3.74,2.76-8.11,1.89-12.3"/></g><g id="ARC-364"><path class="cls-1" d="m272.04,367.82c0-.63-.47-1.16-1.1-1.23"/></g><g id="ARC-365"><path class="cls-1" d="m271.05,371.47c.63-.47.99-1.21.99-1.99"/></g><g id="LINE-173"><line class="cls-1" x1="272.04" y1="369.48" x2="272.04" y2="367.82"/></g><g id="ARC-366"><path class="cls-1" d="m265.09,371.47c1.77,1.32,4.19,1.32,5.96,0"/></g><g id="ARC-367"><path class="cls-1" d="m270.94,366.59c-1.91-.22-3.84-.22-5.75,0"/></g><g id="ARC-368"><path class="cls-1" d="m281.56,364.1c-.96-4.68-2.08-9.33-3.36-13.94"/></g><g id="ARC-369"><path class="cls-1" d="m277.84,385.21c3.25-4.05,4.92-9.14,4.71-14.33"/></g><g id="ARC-370"><path class="cls-1" d="m282.56,370.88c-.17-2.28-.51-4.55-.99-6.78"/></g><g id="ARC-371"><path class="cls-1" d="m258.29,385.21c4.94,5.4,13.32,5.77,18.71.84.29-.27.57-.55.84-.84"/></g><g id="ARC-372"><path class="cls-1" d="m266.45,358.56c-3.18.35-5.98,2.27-7.46,5.11"/></g><g id="LINE-174"><line class="cls-4" x1="303.33" y1="331.14" x2="303.33" y2="430.49"/></g><g id="ARC-373"><path class="cls-1" d="m185.86,364.1c-.49,2.23-.82,4.5-.99,6.78"/></g><g id="ARC-374"><path class="cls-1" d="m184.86,370.88c-.21,5.19,1.46,10.28,4.71,14.33"/></g><g id="ARC-375"><path class="cls-1" d="m189.22,350.16c-1.28,4.61-2.4,9.25-3.36,13.94"/></g><g id="LINE-175"><line class="cls-1" x1="195.38" y1="369.48" x2="195.38" y2="367.82"/></g><g id="ARC-376"><path class="cls-1" d="m195.38,369.48c0,.78.37,1.52.99,1.99"/></g><g id="ARC-377"><path class="cls-1" d="m196.48,366.59c-.63.07-1.1.6-1.1,1.23"/></g><g id="ARC-378"><path class="cls-1" d="m188.38,369.03c-.86,4.2-.19,8.56,1.89,12.3"/></g><g id="ARC-379"><path class="cls-1" d="m200.97,358.56c-1.08-.12-2.16-.12-3.24,0"/></g><g id="ARC-380"><path class="cls-1" d="m190.27,363.67c-.88,1.69-1.51,3.49-1.9,5.36"/></g><g id="LINE-176"><line class="cls-1" x1="180.93" y1="338.6" x2="180.93" y2="344.53"/></g><g id="ARC-381"><path class="cls-1" d="m180.93,344.53c0,2.68,2.01,4.94,4.67,5.26"/></g><g id="ARC-382"><path class="cls-1" d="m184.24,335.29c-1.83,0-3.31,1.48-3.31,3.31"/></g><g id="CIRCLE-67"><circle class="cls-1" cx="199.35" cy="345.39" r="1.12"/></g><g id="CIRCLE-68"><circle class="cls-1" cx="192.73" cy="354.33" r=".62"/></g><g id="ARC-383"><path class="cls-1" d="m185.78,339.34c-1.68.18-2.95,1.6-2.95,3.29"/></g><g id="ARC-384"><path class="cls-1" d="m185.74,339.93c-1.46.16-2.64,1.26-2.9,2.7"/></g><g id="ARC-385"><path class="cls-1" d="m215.87,342.64c-.26-1.44-1.44-2.54-2.9-2.7"/></g><g id="ARC-386"><path class="cls-1" d="m215.87,342.64c0-1.69-1.27-3.11-2.95-3.29"/></g><g id="ARC-387"><path class="cls-1" d="m212.98,339.93c-9.05-1-18.19-1-27.25,0"/></g><g id="ARC-388"><path class="cls-1" d="m212.92,339.34c-9.02-.99-18.12-.99-27.13,0"/></g><g id="CIRCLE-69"><circle class="cls-1" cx="205.97" cy="354.33" r=".62"/></g><g id="CIRCLE-70"><circle class="cls-1" cx="199.35" cy="345.39" r="1.12"/></g><g id="ARC-389"><path class="cls-1" d="m217.77,338.6c0-1.83-1.48-3.31-3.31-3.31"/></g><g id="ARC-390"><path class="cls-1" d="m213.1,349.79c2.67-.32,4.67-2.58,4.67-5.26"/></g><g id="ARC-391"><path class="cls-1" d="m185.6,349.79c9.13,1.09,18.36,1.09,27.5,0"/></g><g id="LINE-177"><line class="cls-1" x1="214.46" y1="335.29" x2="184.24" y2="335.29"/></g><g id="LINE-178"><line class="cls-1" x1="217.77" y1="338.6" x2="217.77" y2="344.53"/></g><g id="ARC-392"><path class="cls-1" d="m210.33,369.03c-.38-1.86-1.02-3.67-1.9-5.36"/></g><g id="ARC-393"><path class="cls-1" d="m208.43,363.67c-1.47-2.84-4.27-4.76-7.46-5.11"/></g><g id="ARC-394"><path class="cls-1" d="m190.27,381.33c2.79,5.02,9.12,6.82,14.14,4.02,1.69-.94,3.08-2.33,4.02-4.02"/></g><g id="ARC-395"><path class="cls-1" d="m208.43,381.33c2.08-3.74,2.76-8.11,1.89-12.3"/></g><g id="ARC-396"><path class="cls-1" d="m203.33,367.82c0-.63-.47-1.16-1.1-1.23"/></g><g id="ARC-397"><path class="cls-1" d="m202.33,371.47c.63-.47.99-1.21.99-1.99"/></g><g id="LINE-179"><line class="cls-1" x1="203.33" y1="369.48" x2="203.33" y2="367.82"/></g><g id="ARC-398"><path class="cls-1" d="m196.37,371.47c1.77,1.32,4.19,1.32,5.96,0"/></g><g id="ARC-399"><path class="cls-1" d="m202.23,366.59c-1.91-.22-3.84-.22-5.75,0"/></g><g id="ARC-400"><path class="cls-1" d="m212.85,364.1c-.96-4.68-2.08-9.33-3.36-13.94"/></g><g id="ARC-401"><path class="cls-1" d="m209.13,385.21c3.25-4.05,4.92-9.14,4.71-14.33"/></g><g id="ARC-402"><path class="cls-1" d="m213.84,370.88c-.17-2.28-.51-4.55-.99-6.78"/></g><g id="ARC-403"><path class="cls-1" d="m189.58,385.21c4.94,5.4,13.32,5.77,18.71.84.29-.27.57-.55.84-.84"/></g><g id="ARC-404"><path class="cls-1" d="m197.73,358.56c-3.18.35-5.98,2.27-7.46,5.11"/></g><g id="ARC-405"><path class="cls-1" d="m323.29,364.1c-.49,2.23-.82,4.5-.99,6.78"/></g><g id="ARC-406"><path class="cls-1" d="m322.29,370.88c-.21,5.19,1.46,10.28,4.71,14.33"/></g><g id="ARC-407"><path class="cls-1" d="m326.65,350.16c-1.28,4.61-2.4,9.25-3.36,13.94"/></g><g id="LINE-180"><line class="cls-1" x1="332.81" y1="369.48" x2="332.81" y2="367.82"/></g><g id="ARC-408"><path class="cls-1" d="m332.81,369.48c0,.78.37,1.52.99,1.99"/></g><g id="ARC-409"><path class="cls-1" d="m333.91,366.59c-.63.07-1.1.6-1.1,1.23"/></g><g id="ARC-410"><path class="cls-1" d="m325.81,369.03c-.86,4.2-.19,8.56,1.89,12.3"/></g><g id="ARC-411"><path class="cls-1" d="m338.4,358.56c-1.08-.12-2.16-.12-3.24,0"/></g><g id="ARC-412"><path class="cls-1" d="m327.71,363.67c-.88,1.69-1.51,3.49-1.9,5.36"/></g><g id="LINE-181"><line class="cls-1" x1="318.36" y1="338.6" x2="318.36" y2="344.53"/></g><g id="ARC-413"><path class="cls-1" d="m318.36,344.53c0,2.68,2.01,4.94,4.67,5.26"/></g><g id="ARC-414"><path class="cls-1" d="m321.67,335.29c-1.83,0-3.31,1.48-3.31,3.31"/></g><g id="CIRCLE-71"><circle class="cls-1" cx="336.78" cy="345.39" r="1.12"/></g><g id="CIRCLE-72"><circle class="cls-1" cx="330.16" cy="354.33" r=".62"/></g><g id="ARC-415"><path class="cls-1" d="m323.22,339.34c-1.68.18-2.95,1.6-2.95,3.29"/></g><g id="ARC-416"><path class="cls-1" d="m323.17,339.93c-1.46.16-2.64,1.26-2.9,2.7"/></g><g id="ARC-417"><path class="cls-1" d="m353.3,342.64c-.26-1.44-1.44-2.54-2.9-2.7"/></g><g id="ARC-418"><path class="cls-1" d="m353.3,342.64c0-1.69-1.27-3.11-2.95-3.29"/></g><g id="ARC-419"><path class="cls-1" d="m350.41,339.93c-9.05-1-18.19-1-27.25,0"/></g><g id="ARC-420"><path class="cls-1" d="m350.35,339.34c-9.02-.99-18.12-.99-27.13,0"/></g><g id="CIRCLE-73"><circle class="cls-1" cx="343.41" cy="354.33" r=".62"/></g><g id="CIRCLE-74"><circle class="cls-1" cx="336.78" cy="345.39" r="1.12"/></g><g id="ARC-421"><path class="cls-1" d="m355.2,338.6c0-1.83-1.48-3.31-3.31-3.31"/></g><g id="ARC-422"><path class="cls-1" d="m350.53,349.79c2.67-.32,4.67-2.58,4.67-5.26"/></g><g id="ARC-423"><path class="cls-1" d="m323.03,349.79c9.13,1.09,18.36,1.09,27.5,0"/></g><g id="LINE-182"><line class="cls-1" x1="351.89" y1="335.29" x2="321.67" y2="335.29"/></g><g id="LINE-183"><line class="cls-1" x1="355.2" y1="338.6" x2="355.2" y2="344.53"/></g><g id="ARC-424"><path class="cls-1" d="m347.76,369.03c-.38-1.86-1.02-3.67-1.9-5.36"/></g><g id="ARC-425"><path class="cls-1" d="m345.86,363.67c-1.47-2.84-4.27-4.76-7.46-5.11"/></g><g id="ARC-426"><path class="cls-1" d="m327.7,381.33c2.79,5.02,9.12,6.82,14.14,4.02,1.69-.94,3.08-2.33,4.02-4.02"/></g><g id="ARC-427"><path class="cls-1" d="m345.87,381.33c2.08-3.74,2.76-8.11,1.89-12.3"/></g><g id="ARC-428"><path class="cls-1" d="m340.76,367.82c0-.63-.47-1.16-1.1-1.23"/></g><g id="ARC-429"><path class="cls-1" d="m339.76,371.47c.63-.47.99-1.21.99-1.99"/></g><g id="LINE-184"><line class="cls-1" x1="340.76" y1="369.48" x2="340.76" y2="367.82"/></g><g id="ARC-430"><path class="cls-1" d="m333.8,371.47c1.77,1.32,4.19,1.32,5.96,0"/></g><g id="ARC-431"><path class="cls-1" d="m339.66,366.59c-1.91-.22-3.84-.22-5.75,0"/></g><g id="ARC-432"><path class="cls-1" d="m350.28,364.1c-.96-4.68-2.08-9.33-3.36-13.94"/></g><g id="ARC-433"><path class="cls-1" d="m346.56,385.21c3.25-4.05,4.92-9.14,4.71-14.33"/></g><g id="ARC-434"><path class="cls-1" d="m351.27,370.88c-.17-2.28-.51-4.55-.99-6.78"/></g><g id="ARC-435"><path class="cls-1" d="m327.01,385.21c4.94,5.4,13.32,5.77,18.71.84.29-.27.57-.55.84-.84"/></g><g id="ARC-436"><path class="cls-1" d="m335.16,358.56c-3.18.35-5.98,2.27-7.46,5.11"/></g><g id="LINE-185"><line class="cls-4" x1="369.57" y1="331.14" x2="369.57" y2="430.49"/></g><g id="LINE-186"><line class="cls-4" x1="372.05" y1="331.14" x2="372.05" y2="430.49"/></g><g id="ARC-437"><path class="cls-1" d="m398.82,364.37c-.49,2.23-.82,4.5-.99,6.78"/></g><g id="ARC-438"><path class="cls-1" d="m397.83,371.15c-.21,5.19,1.46,10.28,4.71,14.33"/></g><g id="ARC-439"><path class="cls-1" d="m402.19,350.43c-1.28,4.61-2.4,9.25-3.36,13.94"/></g><g id="LINE-187"><line class="cls-1" x1="408.35" y1="369.75" x2="408.35" y2="368.09"/></g><g id="ARC-440"><path class="cls-1" d="m408.35,369.75c0,.78.37,1.52.99,1.99"/></g><g id="ARC-441"><path class="cls-1" d="m409.44,366.85c-.63.07-1.1.6-1.1,1.23"/></g><g id="ARC-442"><path class="cls-1" d="m401.34,369.29c-.86,4.2-.19,8.56,1.89,12.3"/></g><g id="ARC-443"><path class="cls-1" d="m413.94,358.83c-1.08-.12-2.16-.12-3.24,0"/></g><g id="ARC-444"><path class="cls-1" d="m403.24,363.94c-.88,1.69-1.51,3.49-1.9,5.36"/></g><g id="LINE-188"><line class="cls-1" x1="393.9" y1="338.87" x2="393.9" y2="344.8"/></g><g id="ARC-445"><path class="cls-1" d="m393.9,344.8c0,2.68,2.01,4.94,4.67,5.26"/></g><g id="ARC-446"><path class="cls-1" d="m397.21,335.56c-1.83,0-3.31,1.48-3.31,3.31"/></g><g id="CIRCLE-75"><circle class="cls-1" cx="412.32" cy="345.66" r="1.12"/></g><g id="CIRCLE-76"><circle class="cls-1" cx="405.7" cy="354.6" r=".62"/></g><g id="ARC-447"><path class="cls-1" d="m398.75,339.61c-1.68.18-2.95,1.6-2.95,3.29"/></g><g id="ARC-448"><path class="cls-1" d="m398.7,340.2c-1.46.16-2.64,1.26-2.9,2.7"/></g><g id="ARC-449"><path class="cls-1" d="m428.84,342.9c-.26-1.44-1.44-2.54-2.9-2.7"/></g><g id="ARC-450"><path class="cls-1" d="m428.84,342.9c0-1.69-1.27-3.11-2.95-3.29"/></g><g id="ARC-451"><path class="cls-1" d="m425.95,340.2c-9.05-1-18.19-1-27.25,0"/></g><g id="ARC-452"><path class="cls-1" d="m425.89,339.61c-9.02-.99-18.12-.99-27.13,0"/></g><g id="CIRCLE-77"><circle class="cls-1" cx="418.94" cy="354.6" r=".62"/></g><g id="CIRCLE-78"><circle class="cls-1" cx="412.32" cy="345.66" r="1.12"/></g><g id="ARC-453"><path class="cls-1" d="m430.74,338.87c0-1.83-1.48-3.31-3.31-3.31"/></g><g id="ARC-454"><path class="cls-1" d="m426.07,350.06c2.67-.32,4.67-2.58,4.67-5.26"/></g><g id="ARC-455"><path class="cls-1" d="m398.57,350.06c9.13,1.09,18.36,1.09,27.5,0"/></g><g id="LINE-189"><line class="cls-1" x1="427.43" y1="335.56" x2="397.21" y2="335.56"/></g><g id="LINE-190"><line class="cls-1" x1="430.74" y1="338.87" x2="430.74" y2="344.8"/></g><g id="ARC-456"><path class="cls-1" d="m423.29,369.29c-.38-1.86-1.02-3.67-1.9-5.36"/></g><g id="ARC-457"><path class="cls-1" d="m421.4,363.94c-1.47-2.84-4.27-4.76-7.46-5.11"/></g><g id="ARC-458"><path class="cls-1" d="m403.24,381.6c2.79,5.02,9.12,6.82,14.14,4.02,1.69-.94,3.08-2.33,4.02-4.02"/></g><g id="ARC-459"><path class="cls-1" d="m421.4,381.6c2.08-3.74,2.76-8.11,1.89-12.3"/></g><g id="ARC-460"><path class="cls-1" d="m416.29,368.09c0-.63-.47-1.16-1.1-1.23"/></g><g id="ARC-461"><path class="cls-1" d="m415.3,371.74c.63-.47.99-1.21.99-1.99"/></g><g id="LINE-191"><line class="cls-1" x1="416.29" y1="369.75" x2="416.29" y2="368.09"/></g><g id="ARC-462"><path class="cls-1" d="m409.34,371.74c1.77,1.32,4.19,1.32,5.96,0"/></g><g id="ARC-463"><path class="cls-1" d="m415.19,366.85c-1.91-.22-3.84-.22-5.75,0"/></g><g id="ARC-464"><path class="cls-1" d="m425.81,364.37c-.96-4.68-2.08-9.33-3.36-13.94"/></g><g id="ARC-465"><path class="cls-1" d="m422.1,385.48c3.25-4.05,4.92-9.14,4.71-14.33"/></g><g id="ARC-466"><path class="cls-1" d="m426.81,371.15c-.17-2.28-.51-4.55-.99-6.78"/></g><g id="ARC-467"><path class="cls-1" d="m402.54,385.48c4.94,5.4,13.32,5.77,18.71.84.29-.27.57-.55.84-.84"/></g><g id="ARC-468"><path class="cls-1" d="m410.7,358.83c-3.18.35-5.98,2.27-7.46,5.11"/></g><g id="LINE-192"><line class="cls-4" x1="456.24" y1="430.49" x2="441.83" y2="430.61"/></g><g id="LINE-193"><line class="cls-4" x1="456.24" y1="428.01" x2="441.83" y2="428.01"/></g><g id="LINE-194"><line class="cls-4" x1="441.83" y1="430.61" x2="441.83" y2="428.01"/></g><g id="LINE-195"><line class="cls-4" x1="372.05" y1="430.49" x2="369.57" y2="430.49"/></g><g id="LINE-196"><line class="cls-4" x1="369.57" y1="430.49" x2="358.91" y2="430.49"/></g><g id="LINE-197"><line class="cls-4" x1="369.57" y1="428.01" x2="358.91" y2="428.01"/></g><g id="LINE-198"><line class="cls-4" x1="358.91" y1="430.61" x2="358.91" y2="428.01"/></g><g id="LINE-199"><line class="cls-4" x1="303.33" y1="430.49" x2="300.85" y2="430.49"/></g><g id="LINE-200"><line class="cls-4" x1="232.14" y1="331.14" x2="232.14" y2="430.49"/></g><g id="LINE-201"><line class="cls-4" x1="234.62" y1="331.14" x2="234.62" y2="430.49"/></g><g id="LINE-202"><line class="cls-4" x1="300.85" y1="428.01" x2="290.19" y2="428.01"/></g><g id="LINE-203"><line class="cls-4" x1="300.85" y1="430.49" x2="290.19" y2="430.49"/></g><g id="LINE-204"><line class="cls-4" x1="290.19" y1="430.61" x2="290.19" y2="428.01"/></g><g id="LINE-205"><line class="cls-4" x1="234.62" y1="430.49" x2="232.14" y2="430.49"/></g><g id="LINE-206"><line class="cls-4" x1="165.9" y1="430.49" x2="163.42" y2="430.49"/></g><g id="LINE-207"><line class="cls-4" x1="221.48" y1="430.61" x2="221.48" y2="428.01"/></g><g id="LINE-208"><line class="cls-4" x1="232.14" y1="430.49" x2="221.48" y2="430.49"/></g><g id="LINE-209"><line class="cls-4" x1="232.14" y1="428.01" x2="221.48" y2="428.01"/></g><g id="LINE-210"><line class="cls-4" x1="165.9" y1="331.14" x2="165.9" y2="430.49"/></g><g id="LINE-211"><line class="cls-4" x1="163.42" y1="331.14" x2="163.42" y2="430.49"/></g><g id="LINE-212"><line class="cls-4" x1="94.7" y1="331.14" x2="94.7" y2="430.49"/></g><g id="LINE-213"><line class="cls-4" x1="97.19" y1="331.14" x2="97.19" y2="430.49"/></g><g id="LINE-214"><line class="cls-4" x1="97.19" y1="430.49" x2="94.7" y2="430.49"/></g><g id="LINE-215"><line class="cls-4" x1="163.42" y1="428.01" x2="152.76" y2="428.01"/></g><g id="LINE-216"><line class="cls-4" x1="163.42" y1="430.49" x2="152.76" y2="430.49"/></g><g id="LINE-217"><line class="cls-4" x1="152.76" y1="430.61" x2="152.76" y2="428.01"/></g><g id="LINE-218"><line class="cls-4" x1="84.05" y1="430.61" x2="84.05" y2="428.01"/></g><g id="LINE-219"><line class="cls-4" x1="94.7" y1="430.49" x2="84.05" y2="430.49"/></g><g id="LINE-220"><line class="cls-4" x1="94.7" y1="428.01" x2="84.05" y2="428.01"/></g><g id="LINE-221"><line class="cls-4" x1="28.47" y1="430.49" x2="17.26" y2="430.49"/></g><g id="LINE-222"><line class="cls-4" x1="28.47" y1="428.01" x2="17.76" y2="428.01"/></g><g id="LINE-223"><line class="cls-4" x1="28.47" y1="430.49" x2="28.47" y2="428.01"/></g><g id="LINE-224"><line class="cls-1" x1="133.92" y1="602.24" x2="133.92" y2="603.07"/></g><g id="LINE-225"><line class="cls-1" x1="81.55" y1="557.95" x2="61.72" y2="557.95"/></g><g id="LINE-226"><line class="cls-1" x1="27.74" y1="570.73" x2="27.74" y2="601.58"/></g><g id="LINE-227"><line class="cls-1" x1="28.4" y1="602.24" x2="81.55" y2="602.24"/></g><g id="LINE-228"><line class="cls-1" x1="81.55" y1="561.92" x2="61.72" y2="561.92"/></g><g id="ARC-469"><path class="cls-1" d="m52.37,564.37c-6.97,2.22-10.83,9.66-8.61,16.64,1.3,4.1,4.51,7.31,8.61,8.61"/></g><g id="ARC-470"><path class="cls-1" d="m71.08,589.61c6.97-2.22,10.83-9.66,8.61-16.64-1.3-4.1-4.51-7.31-8.61-8.61"/></g><g id="ARC-471"><path class="cls-1" d="m52.37,589.61c6.08,1.93,12.62,1.93,18.7,0"/></g><g id="ARC-472"><path class="cls-1" d="m71.08,564.37c-6.08-1.93-12.62-1.93-18.7,0"/></g><g id="ARC-473"><path class="cls-1" d="m61.72,561.92c-3.28,0-6.53.5-9.65,1.5"/></g><g id="ARC-474"><path class="cls-1" d="m52.07,563.42c-5.91,1.88-9.93,7.37-9.93,13.57"/></g><g id="LINE-229"><line class="cls-1" x1="42.14" y1="576.99" x2="42.14" y2="597.77"/></g><g id="ARC-475"><path class="cls-1" d="m61.72,557.95c-3.68,0-7.34.57-10.86,1.68"/></g><g id="LINE-230"><line class="cls-1" x1="29.35" y1="569.08" x2="36.19" y2="568.87"/></g><g id="ARC-476"><path class="cls-1" d="m50.87,559.64c-3.82,1.15-7.19,3.48-9.62,6.65"/></g><g id="ARC-477"><path class="cls-1" d="m36.19,568.87c1.99-.06,3.84-1.01,5.06-2.59"/></g><g id="ARC-478"><path class="cls-1" d="m29.35,569.08c-.89.03-1.61.76-1.61,1.66"/></g><g id="ARC-479"><path class="cls-1" d="m27.74,601.58c0,.37.3.66.66.66"/></g><g id="LINE-231"><line class="cls-1" x1="29.38" y1="600.01" x2="81.55" y2="600.01"/></g><g id="ARC-480"><path class="cls-1" d="m29.38,600.01c-.83,0-1.53.62-1.64,1.44"/></g><g id="ARC-481"><path class="cls-1" d="m31.47,602.24s0,0,0,0"/></g><g id="LINE-232"><line class="cls-1" x1="43.8" y1="599.43" x2="81.55" y2="599.43"/></g><g id="ARC-482"><path class="cls-1" d="m42.14,597.77c0,.91.74,1.66,1.66,1.66"/></g><g id="CIRCLE-79"><circle class="cls-1" cx="61.72" cy="585.27" r="2.48"/></g><g id="CIRCLE-80"><circle class="cls-1" cx="61.72" cy="585.27" r="3.73"/></g><g id="CIRCLE-81"><circle class="cls-1" cx="61.72" cy="595.78" r="1.45"/></g><g id="CIRCLE-82"><circle class="cls-1" cx="70" cy="594.71" r="1.24"/></g><g id="CIRCLE-83"><circle class="cls-1" cx="53.45" cy="594.71" r="1.24"/></g><g id="CIRCLE-84"><circle class="cls-1" cx="109.66" cy="594.71" r="1.24"/></g><g id="CIRCLE-85"><circle class="cls-1" cx="93.1" cy="594.71" r="1.24"/></g><g id="CIRCLE-86"><circle class="cls-1" cx="101.38" cy="595.78" r="1.45"/></g><g id="CIRCLE-87"><circle class="cls-1" cx="101.38" cy="585.27" r="3.73"/></g><g id="CIRCLE-88"><circle class="cls-1" cx="101.38" cy="585.27" r="2.48"/></g><g id="ARC-483"><path class="cls-1" d="m119.31,599.43c.91,0,1.66-.74,1.66-1.66"/></g><g id="LINE-233"><line class="cls-1" x1="119.31" y1="599.43" x2="81.55" y2="599.43"/></g><g id="ARC-484"><path class="cls-1" d="m131.64,602.24s0,0,0,0"/></g><g id="ARC-485"><path class="cls-1" d="m135.37,601.45c-.11-.82-.81-1.44-1.64-1.44"/></g><g id="LINE-234"><line class="cls-1" x1="133.72" y1="600.01" x2="81.55" y2="600.01"/></g><g id="ARC-486"><path class="cls-1" d="m134.7,602.24c.37,0,.66-.3.66-.66"/></g><g id="ARC-487"><path class="cls-1" d="m135.37,570.73c0-.9-.71-1.63-1.61-1.66"/></g><g id="ARC-488"><path class="cls-1" d="m121.86,566.28c1.21,1.58,3.07,2.53,5.06,2.59"/></g><g id="ARC-489"><path class="cls-1" d="m121.86,566.28c-2.43-3.17-5.8-5.49-9.62-6.65"/></g><g id="LINE-235"><line class="cls-1" x1="133.76" y1="569.08" x2="126.91" y2="568.87"/></g><g id="ARC-490"><path class="cls-1" d="m112.24,559.63c-3.51-1.12-7.17-1.68-10.86-1.68"/></g><g id="LINE-236"><line class="cls-1" x1="120.96" y1="576.99" x2="120.96" y2="597.77"/></g><g id="ARC-491"><path class="cls-1" d="m120.96,576.99c0-6.2-4.02-11.69-9.93-13.57"/></g><g id="ARC-492"><path class="cls-1" d="m111.03,563.42c-3.12-.99-6.38-1.5-9.65-1.5"/></g><g id="ARC-493"><path class="cls-1" d="m110.73,564.37c-6.08-1.93-12.62-1.93-18.7,0"/></g><g id="ARC-494"><path class="cls-1" d="m92.03,589.61c6.08,1.93,12.62,1.93,18.7,0"/></g><g id="ARC-495"><path class="cls-1" d="m92.03,564.37c-6.97,2.22-10.83,9.66-8.61,16.64,1.3,4.1,4.51,7.31,8.61,8.61"/></g><g id="ARC-496"><path class="cls-1" d="m110.73,589.61c6.97-2.22,10.83-9.66,8.61-16.64-1.3-4.1-4.51-7.31-8.61-8.61"/></g><g id="LINE-237"><line class="cls-1" x1="81.55" y1="561.92" x2="101.38" y2="561.92"/></g><g id="LINE-238"><line class="cls-1" x1="134.7" y1="602.24" x2="81.55" y2="602.24"/></g><g id="LINE-239"><line class="cls-1" x1="135.37" y1="570.73" x2="135.37" y2="601.58"/></g><g id="LINE-240"><line class="cls-1" x1="81.55" y1="557.95" x2="101.38" y2="557.95"/></g><g id="LINE-241"><line class="cls-1" x1="29.19" y1="602.24" x2="29.19" y2="603.07"/></g><g id="LINE-242"><line class="cls-1" x1="133.92" y1="603.07" x2="29.19" y2="603.07"/></g><g id="LINE-243"><line class="cls-1" x1="244.29" y1="602.24" x2="244.29" y2="603.07"/></g><g id="LINE-244"><line class="cls-1" x1="191.92" y1="557.95" x2="172.09" y2="557.95"/></g><g id="LINE-245"><line class="cls-1" x1="138.11" y1="570.73" x2="138.11" y2="601.58"/></g><g id="LINE-246"><line class="cls-1" x1="138.77" y1="602.24" x2="191.92" y2="602.24"/></g><g id="LINE-247"><line class="cls-1" x1="191.92" y1="561.92" x2="172.09" y2="561.92"/></g><g id="ARC-497"><path class="cls-1" d="m162.74,564.37c-6.97,2.22-10.83,9.66-8.61,16.64,1.3,4.1,4.51,7.31,8.61,8.61"/></g><g id="ARC-498"><path class="cls-1" d="m181.44,589.61c6.97-2.22,10.83-9.66,8.61-16.64-1.3-4.1-4.51-7.31-8.61-8.61"/></g><g id="ARC-499"><path class="cls-1" d="m162.74,589.61c6.08,1.93,12.62,1.93,18.7,0"/></g><g id="ARC-500"><path class="cls-1" d="m181.44,564.37c-6.08-1.93-12.62-1.93-18.7,0"/></g><g id="ARC-501"><path class="cls-1" d="m172.09,561.92c-3.28,0-6.53.5-9.65,1.5"/></g><g id="ARC-502"><path class="cls-1" d="m162.44,563.42c-5.91,1.88-9.93,7.37-9.93,13.57"/></g><g id="LINE-248"><line class="cls-1" x1="152.51" y1="576.99" x2="152.51" y2="597.77"/></g><g id="ARC-503"><path class="cls-1" d="m172.09,557.95c-3.68,0-7.34.57-10.86,1.68"/></g><g id="LINE-249"><line class="cls-1" x1="139.71" y1="569.08" x2="146.56" y2="568.87"/></g><g id="ARC-504"><path class="cls-1" d="m161.24,559.64c-3.82,1.15-7.19,3.48-9.62,6.65"/></g><g id="ARC-505"><path class="cls-1" d="m146.56,568.87c1.99-.06,3.84-1.01,5.06-2.59"/></g><g id="ARC-506"><path class="cls-1" d="m139.71,569.08c-.89.03-1.61.76-1.61,1.66"/></g><g id="ARC-507"><path class="cls-1" d="m138.11,601.58c0,.37.3.66.66.66"/></g><g id="LINE-250"><line class="cls-1" x1="139.75" y1="600.01" x2="191.92" y2="600.01"/></g><g id="ARC-508"><path class="cls-1" d="m139.75,600.01c-.83,0-1.53.62-1.64,1.44"/></g><g id="ARC-509"><path class="cls-1" d="m141.84,602.24s0,0,0,0"/></g><g id="LINE-251"><line class="cls-1" x1="154.17" y1="599.43" x2="191.92" y2="599.43"/></g><g id="ARC-510"><path class="cls-1" d="m152.51,597.77c0,.91.74,1.66,1.66,1.66"/></g><g id="CIRCLE-89"><circle class="cls-1" cx="172.09" cy="585.27" r="2.48"/></g><g id="CIRCLE-90"><circle class="cls-1" cx="172.09" cy="585.27" r="3.73"/></g><g id="CIRCLE-91"><circle class="cls-1" cx="172.09" cy="595.78" r="1.45"/></g><g id="CIRCLE-92"><circle class="cls-1" cx="180.37" cy="594.71" r="1.24"/></g><g id="CIRCLE-93"><circle class="cls-1" cx="163.81" cy="594.71" r="1.24"/></g><g id="CIRCLE-94"><circle class="cls-1" cx="220.03" cy="594.71" r="1.24"/></g><g id="CIRCLE-95"><circle class="cls-1" cx="203.47" cy="594.71" r="1.24"/></g><g id="CIRCLE-96"><circle class="cls-1" cx="211.75" cy="595.78" r="1.45"/></g><g id="CIRCLE-97"><circle class="cls-1" cx="211.75" cy="585.27" r="3.73"/></g><g id="CIRCLE-98"><circle class="cls-1" cx="211.75" cy="585.27" r="2.48"/></g><g id="ARC-511"><path class="cls-1" d="m229.67,599.43c.91,0,1.66-.74,1.66-1.66"/></g><g id="LINE-252"><line class="cls-1" x1="229.67" y1="599.43" x2="191.92" y2="599.43"/></g><g id="ARC-512"><path class="cls-1" d="m242,602.24s0,0,0,0"/></g><g id="ARC-513"><path class="cls-1" d="m245.73,601.45c-.11-.82-.81-1.44-1.64-1.44"/></g><g id="LINE-253"><line class="cls-1" x1="244.09" y1="600.01" x2="191.92" y2="600.01"/></g><g id="ARC-514"><path class="cls-1" d="m245.07,602.24c.37,0,.66-.3.66-.66"/></g><g id="ARC-515"><path class="cls-1" d="m245.73,570.73c0-.9-.71-1.63-1.61-1.66"/></g><g id="ARC-516"><path class="cls-1" d="m232.22,566.28c1.21,1.58,3.07,2.53,5.06,2.59"/></g><g id="ARC-517"><path class="cls-1" d="m232.22,566.28c-2.43-3.17-5.8-5.49-9.62-6.65"/></g><g id="LINE-254"><line class="cls-1" x1="244.13" y1="569.08" x2="237.28" y2="568.87"/></g><g id="ARC-518"><path class="cls-1" d="m222.6,559.63c-3.51-1.12-7.17-1.68-10.86-1.68"/></g><g id="LINE-255"><line class="cls-1" x1="231.33" y1="576.99" x2="231.33" y2="597.77"/></g><g id="ARC-519"><path class="cls-1" d="m231.33,576.99c0-6.2-4.02-11.69-9.93-13.57"/></g><g id="ARC-520"><path class="cls-1" d="m221.4,563.42c-3.12-.99-6.38-1.5-9.65-1.5"/></g><g id="ARC-521"><path class="cls-1" d="m221.1,564.37c-6.08-1.93-12.62-1.93-18.7,0"/></g><g id="ARC-522"><path class="cls-1" d="m202.4,589.61c6.08,1.93,12.62,1.93,18.7,0"/></g><g id="ARC-523"><path class="cls-1" d="m202.4,564.37c-6.97,2.22-10.83,9.66-8.61,16.64,1.3,4.1,4.51,7.31,8.61,8.61"/></g><g id="ARC-524"><path class="cls-1" d="m221.1,589.61c6.97-2.22,10.83-9.66,8.61-16.64-1.3-4.1-4.51-7.31-8.61-8.61"/></g><g id="LINE-256"><line class="cls-1" x1="191.92" y1="561.92" x2="211.75" y2="561.92"/></g><g id="LINE-257"><line class="cls-1" x1="245.07" y1="602.24" x2="191.92" y2="602.24"/></g><g id="LINE-258"><line class="cls-1" x1="245.73" y1="570.73" x2="245.73" y2="601.58"/></g><g id="LINE-259"><line class="cls-1" x1="191.92" y1="557.95" x2="211.75" y2="557.95"/></g><g id="LINE-260"><line class="cls-1" x1="139.56" y1="602.24" x2="139.56" y2="603.07"/></g><g id="LINE-261"><line class="cls-1" x1="244.29" y1="603.07" x2="139.56" y2="603.07"/></g><g id="LINE-262"><line class="cls-1" x1="354.87" y1="602.24" x2="354.87" y2="603.07"/></g><g id="LINE-263"><line class="cls-1" x1="302.51" y1="557.95" x2="282.68" y2="557.95"/></g><g id="LINE-264"><line class="cls-1" x1="248.69" y1="570.73" x2="248.69" y2="601.58"/></g><g id="LINE-265"><line class="cls-1" x1="249.35" y1="602.24" x2="302.51" y2="602.24"/></g><g id="LINE-266"><line class="cls-1" x1="302.51" y1="561.92" x2="282.68" y2="561.92"/></g><g id="ARC-525"><path class="cls-1" d="m273.33,564.37c-6.97,2.22-10.83,9.66-8.61,16.64,1.3,4.1,4.51,7.31,8.61,8.61"/></g><g id="ARC-526"><path class="cls-1" d="m292.03,589.61c6.97-2.22,10.83-9.66,8.61-16.64-1.3-4.1-4.51-7.31-8.61-8.61"/></g><g id="ARC-527"><path class="cls-1" d="m273.33,589.61c6.08,1.93,12.62,1.93,18.7,0"/></g><g id="ARC-528"><path class="cls-1" d="m292.03,564.37c-6.08-1.93-12.62-1.93-18.7,0"/></g><g id="ARC-529"><path class="cls-1" d="m282.68,561.92c-3.28,0-6.53.5-9.65,1.5"/></g><g id="ARC-530"><path class="cls-1" d="m273.03,563.42c-5.91,1.88-9.93,7.37-9.93,13.57"/></g><g id="LINE-267"><line class="cls-1" x1="263.1" y1="576.99" x2="263.1" y2="597.77"/></g><g id="ARC-531"><path class="cls-1" d="m282.68,557.95c-3.68,0-7.34.57-10.86,1.68"/></g><g id="LINE-268"><line class="cls-1" x1="250.3" y1="569.08" x2="257.15" y2="568.87"/></g><g id="ARC-532"><path class="cls-1" d="m271.82,559.64c-3.82,1.15-7.19,3.48-9.62,6.65"/></g><g id="ARC-533"><path class="cls-1" d="m257.15,568.87c1.99-.06,3.84-1.01,5.06-2.59"/></g><g id="ARC-534"><path class="cls-1" d="m250.3,569.08c-.89.03-1.61.76-1.61,1.66"/></g><g id="ARC-535"><path class="cls-1" d="m248.69,601.58c0,.37.3.66.66.66"/></g><g id="LINE-269"><line class="cls-1" x1="250.33" y1="600.01" x2="302.51" y2="600.01"/></g><g id="ARC-536"><path class="cls-1" d="m250.33,600.01c-.83,0-1.53.62-1.64,1.44"/></g><g id="ARC-537"><path class="cls-1" d="m252.42,602.24s0,0,0,0"/></g><g id="LINE-270"><line class="cls-1" x1="264.75" y1="599.43" x2="302.51" y2="599.43"/></g><g id="ARC-538"><path class="cls-1" d="m263.1,597.77c0,.91.74,1.66,1.66,1.66"/></g><g id="CIRCLE-99"><circle class="cls-1" cx="282.68" cy="585.27" r="2.48"/></g><g id="CIRCLE-100"><circle class="cls-1" cx="282.68" cy="585.27" r="3.73"/></g><g id="CIRCLE-101"><circle class="cls-1" cx="282.68" cy="595.78" r="1.45"/></g><g id="CIRCLE-102"><circle class="cls-1" cx="290.96" cy="594.71" r="1.24"/></g><g id="CIRCLE-103"><circle class="cls-1" cx="274.4" cy="594.71" r="1.24"/></g><g id="CIRCLE-104"><circle class="cls-1" cx="330.61" cy="594.71" r="1.24"/></g><g id="CIRCLE-105"><circle class="cls-1" cx="314.05" cy="594.71" r="1.24"/></g><g id="CIRCLE-106"><circle class="cls-1" cx="322.33" cy="595.78" r="1.45"/></g><g id="CIRCLE-107"><circle class="cls-1" cx="322.33" cy="585.27" r="3.73"/></g><g id="CIRCLE-108"><circle class="cls-1" cx="322.33" cy="585.27" r="2.48"/></g><g id="ARC-539"><path class="cls-1" d="m340.26,599.43c.91,0,1.66-.74,1.66-1.66"/></g><g id="LINE-271"><line class="cls-1" x1="340.26" y1="599.43" x2="302.51" y2="599.43"/></g><g id="ARC-540"><path class="cls-1" d="m352.59,602.24s0,0,0,0"/></g><g id="ARC-541"><path class="cls-1" d="m356.32,601.45c-.11-.82-.81-1.44-1.64-1.44"/></g><g id="LINE-272"><line class="cls-1" x1="354.68" y1="600.01" x2="302.51" y2="600.01"/></g><g id="ARC-542"><path class="cls-1" d="m355.66,602.24c.37,0,.66-.3.66-.66"/></g><g id="ARC-543"><path class="cls-1" d="m356.32,570.73c0-.9-.71-1.63-1.61-1.66"/></g><g id="ARC-544"><path class="cls-1" d="m342.81,566.28c1.21,1.58,3.07,2.53,5.06,2.59"/></g><g id="ARC-545"><path class="cls-1" d="m342.81,566.28c-2.43-3.17-5.8-5.49-9.62-6.65"/></g><g id="LINE-273"><line class="cls-1" x1="354.71" y1="569.08" x2="347.86" y2="568.87"/></g><g id="ARC-546"><path class="cls-1" d="m333.19,559.63c-3.51-1.12-7.17-1.68-10.86-1.68"/></g><g id="LINE-274"><line class="cls-1" x1="341.91" y1="576.99" x2="341.91" y2="597.77"/></g><g id="ARC-547"><path class="cls-1" d="m341.91,576.99c0-6.2-4.02-11.69-9.93-13.57"/></g><g id="ARC-548"><path class="cls-1" d="m331.99,563.42c-3.12-.99-6.38-1.5-9.65-1.5"/></g><g id="ARC-549"><path class="cls-1" d="m331.68,564.37c-6.08-1.93-12.62-1.93-18.7,0"/></g><g id="ARC-550"><path class="cls-1" d="m312.98,589.61c6.08,1.93,12.62,1.93,18.7,0"/></g><g id="ARC-551"><path class="cls-1" d="m312.98,564.37c-6.97,2.22-10.83,9.66-8.61,16.64,1.3,4.1,4.51,7.31,8.61,8.61"/></g><g id="ARC-552"><path class="cls-1" d="m331.68,589.61c6.97-2.22,10.83-9.66,8.61-16.64-1.3-4.1-4.51-7.31-8.61-8.61"/></g><g id="LINE-275"><line class="cls-1" x1="302.51" y1="561.92" x2="322.33" y2="561.92"/></g><g id="LINE-276"><line class="cls-1" x1="355.66" y1="602.24" x2="302.51" y2="602.24"/></g><g id="LINE-277"><line class="cls-1" x1="356.32" y1="570.73" x2="356.32" y2="601.58"/></g><g id="LINE-278"><line class="cls-1" x1="302.51" y1="557.95" x2="322.33" y2="557.95"/></g><g id="LINE-279"><line class="cls-1" x1="250.14" y1="602.24" x2="250.14" y2="603.07"/></g><g id="LINE-280"><line class="cls-1" x1="354.87" y1="603.07" x2="250.14" y2="603.07"/></g><g id="LWPOLYLINE-19"><rect class="cls-1" x="444.53" y="357.82" width="2.51" height="50.43"/></g><g id="LWPOLYLINE-20"><rect class="cls-1" x="447.04" y="365.2" width="9.21" height="2.27"/></g><g id="LWPOLYLINE-21"><rect class="cls-1" x="447.04" y="397.42" width="9.21" height="2.27"/></g><g id="LWPOLYLINE-22"><rect class="cls-1" x="381.26" y="357.82" width="2.51" height="50.43"/></g><g id="LWPOLYLINE-23"><rect class="cls-1" x="372.05" y="365.2" width="9.21" height="2.27"/></g><g id="LWPOLYLINE-24"><rect class="cls-1" x="372.05" y="397.42" width="9.21" height="2.27"/></g><g id="ARC-553"><path class="cls-5" d="m439.36,151.63c-35.64.28-65.02,28.04-67.31,63.61"/></g><g id="ARC-554"><path class="cls-5" d="m356.42,159.67c-29.88.98-53.48,25.68-53.09,55.57"/></g><g id="ARC-555"><path class="cls-5" d="m287.71,159.67c-29.88.98-53.48,25.68-53.09,55.57"/></g><g id="ARC-556"><path class="cls-5" d="m218.99,159.67c-29.88.98-53.48,25.68-53.09,55.57"/></g><g id="ARC-557"><path class="cls-5" d="m150.28,159.67c-29.88.98-53.48,25.68-53.09,55.57"/></g><g id="ARC-558"><path class="cls-5" d="m81.56,159.67c-29.88.98-53.48,25.68-53.09,55.57"/></g><g id="ARC-559"><path class="cls-5" d="m372.05,430.49c2.3,35.57,31.67,63.33,67.31,63.61"/></g><g id="ARC-560"><path class="cls-5" d="m303.33,430.49c-.39,29.89,23.21,54.6,53.09,55.57"/></g><g id="ARC-561"><path class="cls-5" d="m234.62,430.49c-.39,29.89,23.21,54.6,53.09,55.57"/></g><g id="ARC-562"><path class="cls-5" d="m165.9,430.49c-.39,29.89,23.21,54.6,53.09,55.57"/></g><g id="ARC-563"><path class="cls-5" d="m97.19,430.49c-.39,29.89,23.21,54.6,53.09,55.57"/></g><g id="ARC-564"><path class="cls-5" d="m28.47,430.49c-.39,29.89,23.21,54.6,53.09,55.57"/></g><g id="ARC-565"><path class="cls-5" d="m566.66,162.74c-32,2.17-56.87,28.73-56.93,60.8"/></g><g id="ARC-566"><path class="cls-5" d="m509.72,422.19c.06,32.08,24.93,58.64,56.93,60.8"/></g><g id="LINE-281"><line class="cls-2" x1="37.14" y1="314.59" x2="456.24" y2="314.59"/></g><g id="LINE-282"><line class="cls-2" x1="37.14" y1="331.14" x2="456.24" y2="331.14"/></g><g id="LINE-283"><line class="cls-2" x1="17.26" y1="41.38" x2="573.26" y2="41.38"/></g><g id="LINE-284"><line class="cls-2" x1=".7" y1="12.63" x2="593.96" y2="12.63"/></g><g id="LINE-285"><line class="cls-2" x1="573.26" y1="41.38" x2="573.26" y2="256.63"/></g><g id="LINE-286"><line class="cls-2" x1=".7" y1="628.24" x2="593.96" y2="628.24"/></g><g id="LINE-287"><line class="cls-2" x1=".7" y1="12.63" x2=".7" y2="628.24"/></g><g id="LINE-288"><line class="cls-2" x1="472.8" y1="231.8" x2="472.8" y2="413.93"/></g><g id="LINE-289"><line class="cls-2" x1="456.24" y1="215.24" x2="456.24" y2="314.59"/></g><g id="LINE-290"><line class="cls-2" x1="472.8" y1="231.8" x2="507.03" y2="231.8"/></g><g id="LINE-291"><line class="cls-2" x1="456.24" y1="215.24" x2="507.03" y2="215.24"/></g><g id="LINE-292"><line class="cls-2" x1="507.03" y1="215.24" x2="507.03" y2="231.8"/></g><g id="LINE-293"><line class="cls-2" x1="573.26" y1="256.63" x2="593.96" y2="256.63"/></g><g id="LINE-294"><line class="cls-2" x1="17.26" y1="331.14" x2="456.24" y2="331.14"/></g><g id="LINE-295"><line class="cls-2" x1="17.26" y1="314.59" x2="456.24" y2="314.59"/></g><g id="LINE-296"><line class="cls-2" x1="17.26" y1="604.35" x2="573.26" y2="604.35"/></g><g id="LINE-297"><line class="cls-2" x1="573.26" y1="604.35" x2="573.26" y2="389.1"/></g><g id="LINE-298"><line class="cls-2" x1="593.96" y1="628.24" x2="593.96" y2="529.34"/></g><g id="LINE-299"><line class="cls-2" x1="593.96" y1="628.24" x2="593.96" y2="389.1"/></g><g id="LINE-300"><line class="cls-2" x1="593.96" y1="256.63" x2="593.96" y2="12.63"/></g><g id="LINE-301"><line class="cls-2" x1="472.8" y1="413.93" x2="472.8" y2="231.8"/></g><g id="LINE-302"><line class="cls-2" x1="456.24" y1="430.49" x2="456.24" y2="331.14"/></g><g id="LINE-303"><line class="cls-2" x1="456.24" y1="430.49" x2="507.03" y2="430.49"/></g><g id="LINE-304"><line class="cls-2" x1="17.26" y1="604.35" x2="17.26" y2="331.14"/></g><g id="LINE-305"><line class="cls-2" x1="17.26" y1="314.59" x2="17.26" y2="41.38"/></g><g id="LINE-306"><line class="cls-2" x1="472.8" y1="413.93" x2="507.03" y2="413.93"/></g><g id="LINE-307"><line class="cls-2" x1="507.03" y1="430.49" x2="507.03" y2="413.93"/></g><g id="LINE-308"><line class="cls-2" x1="573.26" y1="389.1" x2="593.96" y2="389.1"/></g></svg>