<?xml version="1.0" encoding="UTF-8"?><svg id="PAVIMENTAZIONE_-_flooring" xmlns="http://www.w3.org/2000/svg" width="595.28" height="478.98" viewBox="0 0 595.28 478.98"><defs><style>.cls-1,.cls-2,.cls-3,.cls-4,.cls-5,.cls-6,.cls-7,.cls-8,.cls-9,.cls-10,.cls-11,.cls-12,.cls-13,.cls-14,.cls-15{fill:none;}.cls-1,.cls-2,.cls-3,.cls-4,.cls-6,.cls-7,.cls-8,.cls-9,.cls-10,.cls-11,.cls-12,.cls-13,.cls-15{stroke-linecap:round;stroke-linejoin:round;}.cls-1,.cls-8,.cls-11{stroke:#848484;}.cls-1,.cls-12{stroke-width:.14px;}.cls-2{stroke-dasharray:0 0 9.15 4.58;}.cls-2,.cls-4,.cls-5,.cls-6,.cls-7,.cls-8,.cls-9,.cls-10,.cls-14,.cls-15{stroke-width:0px;}.cls-2,.cls-4,.cls-9{stroke:#4d79ff;}.cls-3{stroke-width:1.13px;}.cls-3,.cls-10{stroke:#000;}.cls-4{stroke-dasharray:0 0 5.23 2.62;}.cls-6{stroke:#4c4c99;}.cls-7,.cls-13{stroke:#5b5b5b;}.cls-9{stroke-dasharray:0 0 13.08 6.54;}.cls-11{stroke-width:0px;}.cls-12,.cls-15{stroke:#ff0;}.cls-13{stroke-width:.26px;}.cls-14{fill-rule:evenodd;}</style></defs><g id="LINE"><line class="cls-3" x1="13.94" y1="459.6" x2="207.64" y2="459.6"/></g><g id="LINE-2"><line class="cls-3" x1="207.64" y1="472.67" x2="207.64" y2="459.6"/></g><g id="LINE-3"><line class="cls-3" x1=".87" y1="472.67" x2="207.64" y2="472.67"/></g><g id="LINE-4"><line class="cls-3" x1="579.44" y1="459.6" x2="385.74" y2="459.6"/></g><g id="LINE-5"><line class="cls-3" x1="385.74" y1="472.67" x2="592.5" y2="472.67"/></g><g id="LINE-6"><line class="cls-3" x1=".87" y1="472.67" x2=".87" y2="10.97"/></g><g id="LINE-7"><line class="cls-3" x1="13.94" y1="459.6" x2="13.94" y2="24.04"/></g><g id="LINE-8"><line class="cls-3" x1="592.5" y1="10.97" x2=".87" y2="10.97"/></g><g id="LINE-9"><line class="cls-3" x1="579.44" y1="24.04" x2="303.22" y2="24.04"/></g><g id="LINE-10"><line class="cls-3" x1="290.15" y1="24.04" x2="13.94" y2="24.04"/></g><g id="LINE-11"><line class="cls-3" x1="159.16" y1="274.36" x2="290.15" y2="274.36"/></g><g id="LINE-12"><line class="cls-3" x1="303.22" y1="274.36" x2="440.73" y2="274.36"/></g><g id="LINE-13"><line class="cls-10" x1="303.22" y1="261.29" x2="440.73" y2="261.29"/></g><g id="LINE-14"><line class="cls-3" x1="401.69" y1="372.49" x2="191.68" y2="372.49"/></g><g id="LINE-15"><line class="cls-3" x1="388.62" y1="359.42" x2="303.22" y2="359.42"/></g><g id="LINE-16"><line class="cls-3" x1="290.15" y1="359.42" x2="204.75" y2="359.42"/></g><g id="LINE-17"><line class="cls-3" x1="440.73" y1="261.29" x2="303.22" y2="261.29"/></g><g id="LINE-18"><line class="cls-3" x1="303.22" y1="261.29" x2="303.22" y2="24.04"/></g><g id="LINE-19"><line class="cls-3" x1="290.15" y1="261.29" x2="290.15" y2="24.04"/></g><g id="LINE-20"><line class="cls-3" x1="388.62" y1="359.42" x2="388.62" y2="335.34"/></g><g id="LINE-21"><line class="cls-3" x1="401.69" y1="372.49" x2="401.69" y2="335.34"/></g><g id="LINE-22"><line class="cls-3" x1="440.73" y1="261.29" x2="440.73" y2="274.36"/></g><g id="LINE-23"><line class="cls-3" x1="290.15" y1="261.29" x2="159.16" y2="261.29"/></g><g id="LINE-24"><line class="cls-3" x1="290.15" y1="359.42" x2="290.15" y2="274.36"/></g><g id="LINE-25"><line class="cls-3" x1="290.15" y1="261.29" x2="290.15" y2="24.04"/></g><g id="LINE-26"><line class="cls-3" x1="303.22" y1="359.42" x2="303.22" y2="274.36"/></g><g id="LINE-27"><line class="cls-3" x1="303.22" y1="261.29" x2="303.22" y2="24.04"/></g><g id="LINE-28"><line class="cls-3" x1="204.75" y1="359.42" x2="204.75" y2="335.34"/></g><g id="LINE-29"><line class="cls-3" x1="191.68" y1="372.49" x2="191.68" y2="335.34"/></g><g id="LINE-30"><line class="cls-3" x1="159.16" y1="261.29" x2="159.16" y2="274.36"/></g><g id="LINE-31"><line class="cls-3" x1="401.69" y1="335.34" x2="388.62" y2="335.34"/></g><g id="LINE-32"><line class="cls-3" x1="204.75" y1="335.34" x2="191.68" y2="335.34"/></g><g id="LINE-33"><line class="cls-3" x1="393.89" y1="274.36" x2="396.43" y2="274.36"/></g><g id="LINE-34"><line class="cls-3" x1="393.89" y1="335.34" x2="396.43" y2="335.34"/></g><g id="LINE-35"><line class="cls-3" x1="385.74" y1="472.67" x2="385.74" y2="459.6"/></g><g id="LINE-36"><line class="cls-3" x1="592.5" y1="472.67" x2="592.5" y2="10.97"/></g><g id="LINE-37"><line class="cls-3" x1="579.44" y1="459.6" x2="579.44" y2="24.04"/></g><g id="HATCH"><path class="cls-14" d="m64.93,10.97H.87s0,461.7,0,461.7h206.77v-13.07H13.94s0-435.57,0-435.57h50.99s0-13.07,0-13.07m289.28,0h-115.06s0,13.07,0,13.07h50.99v237.25s-131,0-131,0v13.07h131s0,85.07,0,85.07h-20.92v13.07h54.92v-13.07h-20.92s0-85.07,0-85.07h137.51v-13.07h-137.51s0-237.25,0-237.25h50.99s0-13.07,0-13.07m238.29,0h-64.06s0,13.07,0,13.07h50.99v435.57h-193.7v13.07s206.77,0,206.77,0V10.97m-190.81,324.37h-13.07v24.09s-20.92,0-20.92,0v13.07h33.99v-37.15m-176.02,24.09h-20.92s0-24.09,0-24.09h-13.07v37.15h33.99v-13.07m43.56,0h-43.56v5.23h43.56v-5.23m0,7.84h-43.56v5.23h43.56v-5.23m98.47-7.84h-43.56v5.23h43.56v-5.23m0,7.84h-43.56v5.23h43.56v-5.23M239.16,10.97H64.93s0,5.23,0,5.23h174.23s0-5.23,0-5.23m0,7.84H64.93s0,5.23,0,5.23h174.23s0-5.23,0-5.23m289.28-7.84h-174.23s0,5.23,0,5.23h174.23v-5.23m0,7.84h-174.23v5.23h174.23s0-5.23,0-5.23Z"/></g><g id="LINE-38"><line class="cls-7" x1="207.64" y1="472.67" x2="385.74" y2="472.67"/></g><g id="LINE-39"><line class="cls-7" x1="388.62" y1="335.34" x2="388.62" y2="274.36"/></g><g id="LINE-40"><line class="cls-7" x1="204.75" y1="335.34" x2="204.75" y2="274.36"/></g><g id="LINE-41"><line class="cls-13" x1="204.93" y1="372.49" x2="204.93" y2="459.6"/></g><g id="LINE-42"><line class="cls-13" x1="388.44" y1="372.49" x2="388.44" y2="459.6"/></g><g id="LINE-43"><line class="cls-13" x1="191.68" y1="335.34" x2="191.68" y2="274.36"/></g><g id="LINE-44"><line class="cls-13" x1="401.69" y1="335.34" x2="401.69" y2="274.36"/></g><g id="LINE-45"><line class="cls-9" x1="239.16" y1="16.2" x2="64.93" y2="16.2"/></g><g id="LINE-46"><line class="cls-9" x1="239.16" y1="18.81" x2="64.93" y2="18.81"/></g><g id="LINE-47"><line class="cls-2" x1="367.7" y1="367.26" x2="324.14" y2="367.26"/></g><g id="LINE-48"><line class="cls-2" x1="269.23" y1="367.26" x2="225.67" y2="367.26"/></g><g id="LINE-49"><line class="cls-2" x1="367.7" y1="364.65" x2="324.14" y2="364.65"/></g><g id="LINE-50"><line class="cls-2" x1="269.23" y1="364.65" x2="225.67" y2="364.65"/></g><g id="LINE-51"><line class="cls-4" x1="269.23" y1="359.42" x2="269.23" y2="372.49"/></g><g id="LINE-52"><line class="cls-4" x1="225.67" y1="359.42" x2="225.67" y2="372.49"/></g><g id="LINE-53"><line class="cls-4" x1="367.7" y1="359.42" x2="367.7" y2="372.49"/></g><g id="LINE-54"><line class="cls-4" x1="324.14" y1="359.42" x2="324.14" y2="372.49"/></g><g id="LINE-55"><line class="cls-4" x1="64.93" y1="24.04" x2="64.93" y2="10.97"/></g><g id="LINE-56"><line class="cls-4" x1="239.16" y1="24.04" x2="239.16" y2="10.97"/></g><g id="LINE-57"><line class="cls-9" x1="354.21" y1="16.2" x2="528.44" y2="16.2"/></g><g id="LINE-58"><line class="cls-9" x1="354.21" y1="18.81" x2="528.44" y2="18.81"/></g><g id="LINE-59"><line class="cls-4" x1="528.44" y1="24.04" x2="528.44" y2="10.97"/></g><g id="LINE-60"><line class="cls-4" x1="354.21" y1="24.04" x2="354.21" y2="10.97"/></g><g id="LINE-61"><line class="cls-6" x1="325" y1="124.91" x2="355.08" y2="130.06"/></g><g id="ARC"><path class="cls-6" d="m365.94,142.94c0-6.37-4.59-11.81-10.86-12.88"/></g><g id="LINE-62"><line class="cls-6" x1="365.94" y1="146.52" x2="365.94" y2="142.94"/></g><g id="ARC-2"><path class="cls-6" d="m307.14,124.91c-2.17,0-3.92,1.76-3.92,3.92"/></g><g id="LINE-63"><line class="cls-6" x1="307.14" y1="124.91" x2="325" y2="124.91"/></g><g id="LWPOLYLINE"><circle class="cls-6" cx="339.04" cy="144.51" r="3.1"/></g><g id="LINE-64"><line class="cls-6" x1="325" y1="164.55" x2="355.08" y2="159.4"/></g><g id="LINE-65"><line class="cls-6" x1="325" y1="164.55" x2="307.14" y2="164.55"/></g><g id="ARC-3"><path class="cls-6" d="m355.08,159.4c6.28-1.07,10.86-6.51,10.86-12.88"/></g><g id="LINE-66"><line class="cls-6" x1="303.22" y1="160.63" x2="303.22" y2="128.83"/></g><g id="LWPOLYLINE-2"><path class="cls-6" d="m324.85,126.65h-15.97c-2.55-.27-4.93,1.31-5.66,3.77v28.62c.57,2.4,2.82,4.01,5.27,3.77h16.36s29.93-5.12,29.93-5.12c5.44-.93,9.41-5.65,9.41-11.16v-3.58c0-5.52-3.98-10.23-9.41-11.16,0,0-29.93-5.12-29.93-5.12Z"/></g><g id="LWPOLYLINE-3"><path class="cls-6" d="m303.22,159.04v-28.62c.73-2.46,3.11-4.04,5.66-3.77h5.88c.4-.04.8-.03,1.2.02,2.98.39,5.07,3.12,4.68,6.1v23.91c.06.41.06.82.02,1.23-.28,2.98-2.92,5.17-5.9,4.89h-6.27c-2.45.24-4.7-1.37-5.27-3.77Z"/></g><g id="LWPOLYLINE-4"><path class="cls-6" d="m303.22,159.04v-28.62c.73-2.46,3.11-4.04,5.66-3.77h9.41c.11,0,.22,0,.34,0,3.44.16,6.09,3.07,5.94,6.51v23.13c.05,3.52-2.75,6.43-6.27,6.51h-9.8c-2.45.24-4.7-1.37-5.27-3.77Z"/></g><g id="LWPOLYLINE-5"><path class="cls-6" d="m342.1,134.14c-4.74-.81-9.24,2.37-10.06,7.12-.08.49-.12.98-.12,1.47v3.58c0,4.81,3.9,8.71,8.71,8.71.49,0,.98-.04,1.47-.12h10.51c4.18-.72,7.24-4.34,7.24-8.59v-3.58c0-4.24-3.06-7.87-7.24-8.59,0,0-10.51,0-10.51,0Z"/></g><g id="ARC-4"><path class="cls-6" d="m303.22,160.63c0,2.17,1.76,3.92,3.92,3.92"/></g><g id="LWPOLYLINE-6"><path class="cls-6" d="m325,124.91h-17.86c-2.17,0-3.92,1.76-3.92,3.92v31.8c0,2.17,1.76,3.92,3.92,3.92h17.86s30.08-5.15,30.08-5.15c6.28-1.07,10.86-6.51,10.86-12.88v-3.58c0-6.37-4.59-11.81-10.86-12.88l-30.08-5.15Z"/></g><g id="LINE-67"><line class="cls-6" x1="325" y1="82.03" x2="355.08" y2="76.88"/></g><g id="ARC-5"><path class="cls-6" d="m355.08,76.88c6.28-1.07,10.86-6.51,10.86-12.88"/></g><g id="LINE-68"><line class="cls-6" x1="365.94" y1="60.42" x2="365.94" y2="64"/></g><g id="ARC-6"><path class="cls-6" d="m303.22,78.11c0,2.17,1.76,3.92,3.92,3.92"/></g><g id="LINE-69"><line class="cls-6" x1="307.14" y1="82.03" x2="325" y2="82.03"/></g><g id="LWPOLYLINE-7"><circle class="cls-6" cx="339.05" cy="62.43" r="3.1"/></g><g id="LINE-70"><line class="cls-6" x1="325" y1="42.39" x2="307.14" y2="42.39"/></g><g id="LINE-71"><line class="cls-6" x1="325" y1="42.39" x2="355.08" y2="47.54"/></g><g id="ARC-7"><path class="cls-6" d="m365.94,60.42c0-6.37-4.59-11.81-10.86-12.88"/></g><g id="LINE-72"><line class="cls-6" x1="303.22" y1="46.31" x2="303.22" y2="78.11"/></g><g id="LWPOLYLINE-8"><path class="cls-6" d="m324.85,80.29h-15.97c-2.55.27-4.93-1.31-5.66-3.77v-28.62c.57-2.4,2.82-4.01,5.27-3.77h16.36s29.93,5.12,29.93,5.12c5.44.93,9.41,5.65,9.41,11.16v3.58c0,5.52-3.98,10.23-9.41,11.16l-29.93,5.12Z"/></g><g id="LWPOLYLINE-9"><path class="cls-6" d="m303.22,47.9v28.62c.73,2.46,3.11,4.04,5.66,3.77h5.88c2.99.27,5.63-1.93,5.9-4.92.04-.4.03-.8-.02-1.2v-23.91c.4-2.97-1.68-5.7-4.65-6.1-.41-.06-.82-.06-1.23-.02h-6.27c-2.45-.24-4.7,1.37-5.27,3.77Z"/></g><g id="LWPOLYLINE-10"><path class="cls-6" d="m303.22,47.9v28.62c.73,2.46,3.11,4.04,5.66,3.77h9.41c3.44.03,6.25-2.74,6.28-6.18,0-.11,0-.22,0-.34v-23.13c.05-3.52-2.75-6.43-6.27-6.51h-9.8c-2.45-.24-4.7,1.37-5.27,3.77Z"/></g><g id="LWPOLYLINE-11"><path class="cls-6" d="m342.1,72.8c-.49.08-.98.12-1.47.12-4.81,0-8.71-3.9-8.71-8.71v-3.58c0-.49.04-.98.12-1.47.81-4.74,5.31-7.93,10.06-7.12h10.51c4.18.72,7.24,4.34,7.24,8.59v3.58c0,4.24-3.06,7.87-7.24,8.59h-10.51Z"/></g><g id="ARC-8"><path class="cls-6" d="m307.14,42.39c-2.17,0-3.92,1.76-3.92,3.92"/></g><g id="LWPOLYLINE-12"><path class="cls-6" d="m325,82.03h-17.86c-2.17,0-3.92-1.76-3.92-3.92v-31.8c0-2.17,1.76-3.92,3.92-3.92h17.86s30.08,5.15,30.08,5.15c6.28,1.07,10.86,6.51,10.86,12.88v3.58c0,6.37-4.59,11.81-10.86,12.88l-30.08,5.15Z"/></g><g id="LINE-73"><line class="cls-6" x1="325" y1="205.45" x2="355.08" y2="210.6"/></g><g id="ARC-9"><path class="cls-6" d="m365.94,223.47c0-6.37-4.59-11.81-10.86-12.88"/></g><g id="LINE-74"><line class="cls-6" x1="365.94" y1="227.06" x2="365.94" y2="223.47"/></g><g id="ARC-10"><path class="cls-6" d="m307.14,205.45c-2.17,0-3.92,1.76-3.92,3.92"/></g><g id="LINE-75"><line class="cls-6" x1="307.14" y1="205.45" x2="325" y2="205.45"/></g><g id="LWPOLYLINE-13"><circle class="cls-6" cx="339.04" cy="225.05" r="3.1"/></g><g id="LINE-76"><line class="cls-6" x1="325" y1="245.08" x2="355.08" y2="239.94"/></g><g id="LINE-77"><line class="cls-6" x1="325" y1="245.08" x2="307.14" y2="245.08"/></g><g id="ARC-11"><path class="cls-6" d="m355.08,239.94c6.28-1.07,10.86-6.51,10.86-12.88"/></g><g id="LINE-78"><line class="cls-6" x1="303.22" y1="241.16" x2="303.22" y2="209.37"/></g><g id="LWPOLYLINE-14"><path class="cls-6" d="m324.85,207.19h-15.97c-2.55-.27-4.93,1.31-5.66,3.77v28.62c.57,2.4,2.82,4.01,5.27,3.77h16.36s29.93-5.12,29.93-5.12c5.44-.93,9.41-5.65,9.41-11.16v-3.58c0-5.52-3.98-10.23-9.41-11.16,0,0-29.93-5.12-29.93-5.12Z"/></g><g id="LWPOLYLINE-15"><path class="cls-6" d="m303.22,239.57v-28.62c.73-2.46,3.11-4.04,5.66-3.77h5.88c.4-.04.8-.03,1.2.02,2.98.39,5.07,3.12,4.68,6.1v23.91c.06.41.06.82.02,1.23-.28,2.98-2.92,5.17-5.9,4.89h-6.27c-2.45.24-4.7-1.37-5.27-3.77Z"/></g><g id="LWPOLYLINE-16"><path class="cls-6" d="m303.22,239.57v-28.62c.73-2.46,3.11-4.04,5.66-3.77h9.41c.11,0,.22,0,.34,0,3.44.16,6.09,3.07,5.94,6.51v23.13c.05,3.52-2.75,6.43-6.27,6.51h-9.8c-2.45.24-4.7-1.37-5.27-3.77Z"/></g><g id="LWPOLYLINE-17"><path class="cls-6" d="m342.1,214.67c-4.74-.81-9.24,2.37-10.06,7.12-.08.49-.12.98-.12,1.47v3.58c0,4.81,3.9,8.71,8.71,8.71.49,0,.98-.04,1.47-.12h10.51c4.18-.72,7.24-4.34,7.24-8.59v-3.58c0-4.24-3.06-7.87-7.24-8.59h-10.51Z"/></g><g id="ARC-12"><path class="cls-6" d="m303.22,241.16c0,2.17,1.76,3.92,3.92,3.92"/></g><g id="LWPOLYLINE-18"><path class="cls-6" d="m325,205.45h-17.86c-2.17,0-3.92,1.76-3.92,3.92v31.8c0,2.17,1.76,3.92,3.92,3.92h17.86s30.08-5.15,30.08-5.15c6.28-1.07,10.86-6.51,10.86-12.88v-3.58c0-6.37-4.59-11.81-10.86-12.88,0,0-30.08-5.15-30.08-5.15Z"/></g><g id="LINE-79"><line class="cls-6" x1="268.37" y1="124.91" x2="238.29" y2="130.06"/></g><g id="ARC-13"><path class="cls-6" d="m238.29,130.06c-6.28,1.07-10.86,6.51-10.86,12.88"/></g><g id="LINE-80"><line class="cls-6" x1="227.43" y1="146.52" x2="227.43" y2="142.94"/></g><g id="ARC-14"><path class="cls-6" d="m290.15,128.83c0-2.17-1.76-3.92-3.92-3.92"/></g><g id="LINE-81"><line class="cls-6" x1="286.23" y1="124.91" x2="268.37" y2="124.91"/></g><g id="LWPOLYLINE-19"><circle class="cls-6" cx="254.33" cy="144.51" r="3.1"/></g><g id="LINE-82"><line class="cls-6" x1="268.37" y1="164.55" x2="238.29" y2="159.4"/></g><g id="LINE-83"><line class="cls-6" x1="268.37" y1="164.55" x2="286.23" y2="164.55"/></g><g id="ARC-15"><path class="cls-6" d="m227.43,146.52c0,6.37,4.59,11.81,10.86,12.88"/></g><g id="LINE-84"><line class="cls-6" x1="290.15" y1="160.63" x2="290.15" y2="128.83"/></g><g id="LWPOLYLINE-20"><path class="cls-6" d="m268.52,126.65h15.97c2.55-.27,4.93,1.31,5.66,3.77v28.62c-.57,2.4-2.82,4.01-5.27,3.77h-16.36s-29.93-5.12-29.93-5.12c-5.44-.93-9.41-5.65-9.41-11.16v-3.58c0-5.52,3.98-10.23,9.41-11.16,0,0,29.93-5.12,29.93-5.12Z"/></g><g id="LWPOLYLINE-21"><path class="cls-6" d="m290.15,159.04v-28.62c-.73-2.46-3.11-4.04-5.66-3.77h-5.88c-2.99-.27-5.63,1.93-5.9,4.92-.04.4-.03.8.02,1.2v23.91c-.4,2.97,1.68,5.7,4.65,6.1.41.06.82.06,1.23.02h6.27c2.45.24,4.7-1.37,5.27-3.77Z"/></g><g id="LWPOLYLINE-22"><path class="cls-6" d="m290.15,159.04v-28.62c-.73-2.46-3.11-4.04-5.66-3.77h-9.41c-3.44-.03-6.25,2.74-6.28,6.18,0,.11,0,.22,0,.34v23.13c-.05,3.52,2.75,6.43,6.27,6.51h9.8c2.45.24,4.7-1.37,5.27-3.77Z"/></g><g id="LWPOLYLINE-23"><path class="cls-6" d="m251.27,134.14c.49-.08.98-.12,1.47-.12,4.81,0,8.71,3.9,8.71,8.71v3.58c0,.49-.04.98-.12,1.47-.81,4.74-5.31,7.93-10.06,7.12h-10.51c-4.18-.72-7.24-4.34-7.24-8.59v-3.58c0-4.24,3.06-7.87,7.24-8.59,0,0,10.51,0,10.51,0Z"/></g><g id="ARC-16"><path class="cls-6" d="m286.23,164.55c2.17,0,3.92-1.76,3.92-3.92"/></g><g id="LWPOLYLINE-24"><path class="cls-6" d="m268.37,124.91h17.86c2.17,0,3.92,1.76,3.92,3.92v31.8c0,2.17-1.76,3.92-3.92,3.92h-17.86s-30.08-5.15-30.08-5.15c-6.28-1.07-10.86-6.51-10.86-12.88v-3.58c0-6.37,4.59-11.81,10.86-12.88,0,0,30.08-5.15,30.08-5.15Z"/></g><g id="ARC-17"><path class="cls-6" d="m227.43,64c0,6.37,4.59,11.81,10.86,12.88"/></g><g id="LINE-85"><line class="cls-6" x1="268.37" y1="82.03" x2="238.29" y2="76.88"/></g><g id="LINE-86"><line class="cls-6" x1="227.43" y1="60.42" x2="227.43" y2="64"/></g><g id="ARC-18"><path class="cls-6" d="m286.23,82.03c2.17,0,3.92-1.76,3.92-3.92"/></g><g id="LINE-87"><line class="cls-6" x1="286.23" y1="82.03" x2="268.37" y2="82.03"/></g><g id="LWPOLYLINE-25"><circle class="cls-6" cx="254.33" cy="62.43" r="3.1"/></g><g id="LINE-88"><line class="cls-6" x1="268.37" y1="42.39" x2="238.29" y2="47.54"/></g><g id="LINE-89"><line class="cls-6" x1="268.37" y1="42.39" x2="286.23" y2="42.39"/></g><g id="ARC-19"><path class="cls-6" d="m238.29,47.54c-6.28,1.07-10.86,6.51-10.86,12.88"/></g><g id="LINE-90"><line class="cls-6" x1="290.15" y1="46.31" x2="290.15" y2="78.11"/></g><g id="LWPOLYLINE-26"><path class="cls-6" d="m268.52,80.29h15.97c2.55.27,4.93-1.31,5.66-3.77v-28.62c-.57-2.4-2.82-4.01-5.27-3.77h-16.36s-29.93,5.12-29.93,5.12c-5.44.93-9.41,5.65-9.41,11.16v3.58c0,5.52,3.98,10.23,9.41,11.16,0,0,29.93,5.12,29.93,5.12Z"/></g><g id="LWPOLYLINE-27"><path class="cls-6" d="m290.15,47.9v28.62c-.73,2.46-3.11,4.04-5.66,3.77h-5.88c-.4.04-.8.03-1.2-.02-2.98-.39-5.07-3.12-4.68-6.1v-23.91c-.06-.41-.06-.82-.02-1.23.28-2.98,2.92-5.17,5.9-4.89h6.27c2.45-.24,4.7,1.37,5.27,3.77Z"/></g><g id="LWPOLYLINE-28"><path class="cls-6" d="m290.15,47.9v28.62c-.73,2.46-3.11,4.04-5.66,3.77h-9.41c-.11,0-.22,0-.34,0-3.44-.16-6.09-3.07-5.94-6.51v-23.13c-.05-3.52,2.75-6.43,6.27-6.51h9.8c2.45-.24,4.7,1.37,5.27,3.77Z"/></g><g id="LWPOLYLINE-29"><path class="cls-6" d="m251.27,72.8c4.74.81,9.24-2.37,10.06-7.12.08-.49.12-.98.12-1.47v-3.58c0-4.81-3.9-8.71-8.71-8.71-.49,0-.98.04-1.47.12h-10.51c-4.18.72-7.24,4.34-7.24,8.59v3.58c0,4.24,3.06,7.87,7.24,8.59h10.51Z"/></g><g id="ARC-20"><path class="cls-6" d="m290.15,46.31c0-2.17-1.76-3.92-3.92-3.92"/></g><g id="LWPOLYLINE-30"><path class="cls-6" d="m268.37,82.03h17.86c2.17,0,3.92-1.76,3.92-3.92v-31.8c0-2.17-1.76-3.92-3.92-3.92h-17.86s-30.08,5.15-30.08,5.15c-6.28,1.07-10.86,6.51-10.86,12.88v3.58c0,6.37,4.59,11.81,10.86,12.88,0,0,30.08,5.15,30.08,5.15Z"/></g><g id="LINE-91"><line class="cls-6" x1="268.37" y1="205.45" x2="238.29" y2="210.6"/></g><g id="ARC-21"><path class="cls-6" d="m238.29,210.6c-6.28,1.07-10.86,6.51-10.86,12.88"/></g><g id="LINE-92"><line class="cls-6" x1="227.43" y1="227.06" x2="227.43" y2="223.47"/></g><g id="ARC-22"><path class="cls-6" d="m290.15,209.37c0-2.17-1.76-3.92-3.92-3.92"/></g><g id="LINE-93"><line class="cls-6" x1="286.23" y1="205.45" x2="268.37" y2="205.45"/></g><g id="LWPOLYLINE-31"><circle class="cls-6" cx="254.33" cy="225.05" r="3.1"/></g><g id="LINE-94"><line class="cls-6" x1="268.37" y1="245.08" x2="238.29" y2="239.94"/></g><g id="LINE-95"><line class="cls-6" x1="268.37" y1="245.08" x2="286.23" y2="245.08"/></g><g id="ARC-23"><path class="cls-6" d="m227.43,227.06c0,6.37,4.59,11.81,10.86,12.88"/></g><g id="LINE-96"><line class="cls-6" x1="290.15" y1="241.16" x2="290.15" y2="209.37"/></g><g id="LWPOLYLINE-32"><path class="cls-6" d="m268.52,207.19h15.97c2.55-.27,4.93,1.31,5.66,3.77v28.62c-.57,2.4-2.82,4.01-5.27,3.77h-16.36s-29.93-5.12-29.93-5.12c-5.44-.93-9.41-5.65-9.41-11.16v-3.58c0-5.52,3.98-10.23,9.41-11.16,0,0,29.93-5.12,29.93-5.12Z"/></g><g id="LWPOLYLINE-33"><path class="cls-6" d="m290.15,239.57v-28.62c-.73-2.46-3.11-4.04-5.66-3.77h-5.88c-2.99-.27-5.63,1.93-5.9,4.92-.04.4-.03.8.02,1.2v23.91c-.4,2.97,1.68,5.7,4.65,6.1.41.06.82.06,1.23.02h6.27c2.45.24,4.7-1.37,5.27-3.77Z"/></g><g id="LWPOLYLINE-34"><path class="cls-6" d="m290.15,239.57v-28.62c-.73-2.46-3.11-4.04-5.66-3.77h-9.41c-3.44-.03-6.25,2.74-6.28,6.18,0,.11,0,.22,0,.34v23.13c-.05,3.52,2.75,6.43,6.27,6.51h9.8c2.45.24,4.7-1.37,5.27-3.77Z"/></g><g id="LWPOLYLINE-35"><path class="cls-6" d="m251.27,214.67c.49-.08.98-.12,1.47-.12,4.81,0,8.71,3.9,8.71,8.71v3.58c0,.49-.04.98-.12,1.47-.81,4.74-5.31,7.93-10.06,7.12h-10.51c-4.18-.72-7.24-4.34-7.24-8.59v-3.58c0-4.24,3.06-7.87,7.24-8.59,0,0,10.51,0,10.51,0Z"/></g><g id="ARC-24"><path class="cls-6" d="m286.23,245.08c2.17,0,3.92-1.76,3.92-3.92"/></g><g id="LWPOLYLINE-36"><path class="cls-6" d="m268.37,205.45h17.86c2.17,0,3.92,1.76,3.92,3.92v31.8c0,2.17-1.76,3.92-3.92,3.92h-17.86s-30.08-5.15-30.08-5.15c-6.28-1.07-10.86-6.51-10.86-12.88v-3.58c0-6.37,4.59-11.81,10.86-12.88,0,0,30.08-5.15,30.08-5.15Z"/></g><g id="LINE-97"><line class="cls-6" x1="388.62" y1="359.42" x2="333.71" y2="321.25"/></g><g id="LINE-98"><line class="cls-6" x1="333.71" y1="312.54" x2="303.22" y2="274.36"/></g><g id="LINE-99"><line class="cls-6" x1="303.22" y1="359.42" x2="329.35" y2="316.89"/></g><g id="LINE-100"><line class="cls-6" x1="338.06" y1="316.89" x2="388.62" y2="274.36"/></g><g id="CIRCLE"><circle class="cls-6" cx="333.71" cy="316.89" r="4.36"/></g><g id="LINE-101"><line class="cls-6" x1="204.75" y1="359.42" x2="259.66" y2="321.25"/></g><g id="LINE-102"><line class="cls-6" x1="259.66" y1="312.54" x2="290.15" y2="274.36"/></g><g id="LINE-103"><line class="cls-6" x1="290.15" y1="359.42" x2="264.02" y2="316.89"/></g><g id="LINE-104"><line class="cls-6" x1="255.31" y1="316.89" x2="204.75" y2="274.36"/></g><g id="CIRCLE-2"><circle class="cls-6" cx="259.66" cy="316.89" r="4.36"/></g><g id="ARC-25"><path class="cls-6" d="m533.83,263.63c-4.12,5.08-6.37,11.41-6.37,17.95"/></g><g id="ARC-26"><path class="cls-6" d="m527.46,281.58c0,6.54,2.25,12.88,6.37,17.95"/></g><g id="ARC-27"><path class="cls-6" d="m566.24,293.41c1.57-3.75,2.38-7.76,2.38-11.82"/></g><g id="ARC-28"><path class="cls-6" d="m536.53,265.82c-3.62,4.45-5.59,10.02-5.59,15.76"/></g><g id="ARC-29"><path class="cls-6" d="m565.23,292.18c1.31-3.38,1.99-6.97,1.99-10.6"/></g><g id="CIRCLE-3"><circle class="cls-6" cx="561.68" cy="281.58" r="1.52"/></g><g id="ARC-30"><path class="cls-6" d="m530.94,281.58c0,5.74,1.97,11.3,5.59,15.76"/></g><g id="ARC-31"><path class="cls-6" d="m568.61,281.58c0-4.06-.81-8.08-2.38-11.82"/></g><g id="ARC-32"><path class="cls-6" d="m567.22,281.58c0-3.62-.67-7.22-1.99-10.6"/></g><g id="ARC-33"><path class="cls-6" d="m547.35,257.19c-5.25,0-10.22,2.37-13.52,6.44"/></g><g id="ARC-34"><path class="cls-6" d="m533.83,299.53c3.31,4.07,8.28,6.44,13.52,6.44"/></g><g id="ARC-35"><path class="cls-6" d="m547.35,305.97c8.25,0,15.7-4.95,18.88-12.57"/></g><g id="ARC-36"><path class="cls-6" d="m558.2,281.58c0-4.66-.83-9.27-2.45-13.64"/></g><g id="ARC-37"><path class="cls-6" d="m541.01,262.2c-1.73.88-3.25,2.12-4.48,3.62"/></g><g id="ARC-38"><path class="cls-6" d="m555.75,267.94c-2.03-5.48-8.12-8.27-13.61-6.24-.39.14-.77.31-1.13.5"/></g><g id="CIRCLE-4"><circle class="cls-6" cx="552.36" cy="281.58" r="3.27"/></g><g id="ARC-39"><path class="cls-6" d="m548.71,305.75c7.45-1.45,13.66-6.55,16.52-13.58"/></g><g id="CIRCLE-5"><circle class="cls-6" cx="552.36" cy="281.58" r="2"/></g><g id="ARC-40"><path class="cls-6" d="m541.01,300.96c5.21,2.66,11.58.6,14.24-4.61.19-.37.35-.75.5-1.13"/></g><g id="ARC-41"><path class="cls-6" d="m536.53,297.34c1.22,1.51,2.75,2.74,4.48,3.62"/></g><g id="ARC-42"><path class="cls-6" d="m555.75,295.22c1.62-4.36,2.45-8.98,2.45-13.64"/></g><g id="ARC-43"><path class="cls-6" d="m566.24,269.76c-3.19-7.61-10.63-12.57-18.88-12.57"/></g><g id="ARC-44"><path class="cls-6" d="m565.23,270.99c-2.86-7.02-9.08-12.13-16.52-13.58"/></g><g id="ARC-45"><path class="cls-6" d="m533.83,334.5c-4.12,5.08-6.37,11.41-6.37,17.95"/></g><g id="ARC-46"><path class="cls-6" d="m527.46,352.45c0,6.54,2.25,12.88,6.37,17.95"/></g><g id="ARC-47"><path class="cls-6" d="m566.24,364.28c1.57-3.75,2.38-7.76,2.38-11.82"/></g><g id="ARC-48"><path class="cls-6" d="m536.53,336.7c-3.62,4.45-5.59,10.02-5.59,15.76"/></g><g id="ARC-49"><path class="cls-6" d="m565.23,363.05c1.31-3.38,1.99-6.97,1.99-10.6"/></g><g id="CIRCLE-6"><circle class="cls-6" cx="561.68" cy="352.45" r="1.52"/></g><g id="ARC-50"><path class="cls-6" d="m530.94,352.45c0,5.74,1.97,11.3,5.59,15.76"/></g><g id="ARC-51"><path class="cls-6" d="m568.61,352.45c0-4.06-.81-8.08-2.38-11.82"/></g><g id="ARC-52"><path class="cls-6" d="m567.22,352.45c0-3.62-.67-7.22-1.99-10.6"/></g><g id="ARC-53"><path class="cls-6" d="m547.35,328.06c-5.25,0-10.22,2.37-13.52,6.44"/></g><g id="ARC-54"><path class="cls-6" d="m533.83,370.41c3.31,4.07,8.28,6.44,13.52,6.44"/></g><g id="ARC-55"><path class="cls-6" d="m547.35,376.85c8.25,0,15.7-4.95,18.88-12.57"/></g><g id="ARC-56"><path class="cls-6" d="m558.2,352.45c0-4.66-.83-9.27-2.45-13.64"/></g><g id="ARC-57"><path class="cls-6" d="m541.01,333.07c-1.73.88-3.25,2.12-4.48,3.62"/></g><g id="ARC-58"><path class="cls-6" d="m555.75,338.82c-2.03-5.48-8.12-8.27-13.61-6.24-.39.14-.77.31-1.13.5"/></g><g id="ARC-59"><path class="cls-6" d="m548.71,376.62c7.45-1.45,13.66-6.55,16.52-13.58"/></g><g id="CIRCLE-7"><circle class="cls-6" cx="552.36" cy="352.45" r="3.27"/></g><g id="CIRCLE-8"><circle class="cls-6" cx="552.36" cy="352.45" r="2"/></g><g id="ARC-60"><path class="cls-6" d="m541.01,371.83c5.21,2.66,11.58.6,14.24-4.61.19-.37.35-.75.5-1.13"/></g><g id="ARC-61"><path class="cls-6" d="m536.53,368.21c1.22,1.51,2.75,2.74,4.48,3.62"/></g><g id="ARC-62"><path class="cls-6" d="m555.75,366.09c1.62-4.36,2.45-8.98,2.45-13.64"/></g><g id="ARC-63"><path class="cls-6" d="m566.24,340.63c-3.19-7.61-10.63-12.57-18.88-12.57"/></g><g id="ARC-64"><path class="cls-6" d="m565.23,341.86c-2.86-7.02-9.08-12.13-16.52-13.58"/></g><g id="ARC-65"><path class="cls-6" d="m533.83,401.32c-4.12,5.08-6.37,11.41-6.37,17.95"/></g><g id="ARC-66"><path class="cls-6" d="m566.24,431.1c1.57-3.75,2.38-7.76,2.38-11.82"/></g><g id="ARC-67"><path class="cls-6" d="m527.46,419.28c0,6.54,2.25,12.88,6.37,17.95"/></g><g id="ARC-68"><path class="cls-6" d="m536.53,403.52c-3.62,4.45-5.59,10.02-5.59,15.76"/></g><g id="ARC-69"><path class="cls-6" d="m565.23,429.87c1.31-3.38,1.99-6.97,1.99-10.6"/></g><g id="CIRCLE-9"><circle class="cls-6" cx="561.68" cy="419.28" r="1.52"/></g><g id="ARC-70"><path class="cls-6" d="m530.94,419.28c0,5.74,1.97,11.3,5.59,15.76"/></g><g id="ARC-71"><path class="cls-6" d="m568.61,419.28c0-4.06-.81-8.08-2.38-11.82"/></g><g id="ARC-72"><path class="cls-6" d="m567.22,419.28c0-3.62-.67-7.22-1.99-10.6"/></g><g id="ARC-73"><path class="cls-6" d="m547.35,394.88c-5.25,0-10.22,2.37-13.52,6.44"/></g><g id="ARC-74"><path class="cls-6" d="m533.83,437.23c3.31,4.07,8.28,6.44,13.52,6.44"/></g><g id="ARC-75"><path class="cls-6" d="m547.35,443.67c8.25,0,15.7-4.95,18.88-12.57"/></g><g id="ARC-76"><path class="cls-6" d="m558.2,419.28c0-4.66-.83-9.27-2.45-13.64"/></g><g id="ARC-77"><path class="cls-6" d="m541.01,399.9c-1.73.88-3.25,2.12-4.48,3.62"/></g><g id="ARC-78"><path class="cls-6" d="m555.75,405.64c-2.03-5.48-8.12-8.27-13.61-6.24-.39.14-.77.31-1.13.5"/></g><g id="ARC-79"><path class="cls-6" d="m548.71,443.45c7.45-1.45,13.66-6.55,16.52-13.58"/></g><g id="CIRCLE-10"><circle class="cls-6" cx="552.36" cy="419.28" r="3.27"/></g><g id="CIRCLE-11"><circle class="cls-6" cx="552.36" cy="419.28" r="2"/></g><g id="ARC-80"><path class="cls-6" d="m541.01,438.66c5.21,2.66,11.58.6,14.24-4.61.19-.37.35-.75.5-1.13"/></g><g id="ARC-81"><path class="cls-6" d="m536.53,435.03c1.22,1.51,2.75,2.74,4.48,3.62"/></g><g id="ARC-82"><path class="cls-6" d="m555.75,432.91c1.62-4.36,2.45-8.98,2.45-13.64"/></g><g id="ARC-83"><path class="cls-6" d="m566.24,407.45c-3.19-7.61-10.63-12.57-18.88-12.57"/></g><g id="ARC-84"><path class="cls-6" d="m565.23,408.68c-2.86-7.02-9.08-12.13-16.52-13.58"/></g><g id="LINE-105"><line class="cls-6" x1="523.9" y1="243.64" x2="523.9" y2="459.6"/></g><g id="LINE-106"><line class="cls-6" x1="523.9" y1="243.64" x2="579.44" y2="243.64"/></g><g id="LINE-107"><line class="cls-6" x1="69.47" y1="243.64" x2="69.47" y2="459.6"/></g><g id="LWPOLYLINE-37"><path class="cls-6" d="m21.38,74.64c3.77.22,7.56,0,11.29-.64,1.25-.22,2.33-.98,2.96-2.08,2.08-3.61,2.08-8.05,0-11.66-.63-1.1-1.71-1.86-2.96-2.08-3.73-.65-7.51-.86-11.29-.64"/></g><g id="LWPOLYLINE-38"><path class="cls-6" d="m25.05,54.25c-.81.03-1.62.1-2.42.23-4.21,7.1-4.24,15.93-.09,23.07.83.13,1.67.21,2.51.24"/></g><g id="ARC-85"><path class="cls-6" d="m21.38,57.54c-.09,0-.18.01-.27.02"/></g><g id="ARC-86"><path class="cls-6" d="m21.05,74.47c.11.01.22.02.33.03"/></g><g id="LWPOLYLINE-39"><path class="cls-6" d="m25.05,54.25v-.87c0-1.2-.98-2.18-2.18-2.18h-6.76c-1.2,0-2.18.98-2.18,2.18v25.28c0,1.2.98,2.18,2.18,2.18h6.76c1.2,0,2.18-.98,2.18-2.18v-.87c4.63.16,9.19-1.21,12.96-3.9.69-1.24,1.21-2.56,1.56-3.93,2.17-1.02,3.11-3.61,2.09-5.78-.43-.92-1.17-1.66-2.09-2.09-.35-1.37-.87-2.7-1.56-3.93-3.77-2.69-8.31-4.06-12.93-3.9"/></g><g id="CIRCLE-12"><circle class="cls-6" cx="34.67" cy="66.09" r=".87"/></g><g id="CIRCLE-13"><circle class="cls-6" cx="32.03" cy="66.09" r=".87"/></g><g id="CIRCLE-14"><circle class="cls-6" cx="29.48" cy="66.09" r=".87"/></g><g id="CIRCLE-15"><circle class="cls-6" cx="25.01" cy="62.59" r=".87"/></g><g id="CIRCLE-16"><circle class="cls-6" cx="21.37" cy="62.59" r=".87"/></g><g id="CIRCLE-17"><circle class="cls-6" cx="23.19" cy="64.69" r=".87"/></g><g id="CIRCLE-18"><circle class="cls-6" cx="26.83" cy="64.69" r=".87"/></g><g id="ARC-87"><path class="cls-6" d="m19.46,65.56c.48.05.91-.3.95-.78s-.3-.91-.78-.95c-.02,0-.04,0-.07,0"/></g><g id="CIRCLE-19"><circle class="cls-6" cx="25.01" cy="69.58" r=".87"/></g><g id="CIRCLE-20"><circle class="cls-6" cx="21.37" cy="69.58" r=".87"/></g><g id="CIRCLE-21"><circle class="cls-6" cx="23.19" cy="67.48" r=".87"/></g><g id="CIRCLE-22"><circle class="cls-6" cx="26.83" cy="67.48" r=".87"/></g><g id="ARC-88"><path class="cls-6" d="m19.56,68.35c.48-.01.86-.41.85-.89s-.41-.86-.89-.85c-.02,0-.05,0-.07,0"/></g><g id="LWPOLYLINE-40"><path class="cls-6" d="m21.38,135.69c3.77.22,7.56,0,11.29-.64,1.25-.22,2.33-.98,2.96-2.08,2.08-3.61,2.08-8.05,0-11.66-.63-1.1-1.71-1.86-2.96-2.08-3.73-.65-7.51-.86-11.29-.64"/></g><g id="LWPOLYLINE-41"><path class="cls-6" d="m25.05,115.31c-.81.03-1.62.1-2.42.23-4.21,7.1-4.24,15.93-.09,23.07.83.13,1.67.21,2.51.24"/></g><g id="ARC-89"><path class="cls-6" d="m21.38,118.59c-.09,0-.18.01-.27.02"/></g><g id="ARC-90"><path class="cls-6" d="m21.05,135.53c.11.01.22.02.33.03"/></g><g id="LWPOLYLINE-42"><path class="cls-6" d="m25.05,115.31v-.87c0-1.2-.98-2.18-2.18-2.18h-6.76c-1.2,0-2.18.98-2.18,2.18v25.28c0,1.2.98,2.18,2.18,2.18h6.76c1.2,0,2.18-.98,2.18-2.18v-.87c4.63.16,9.19-1.21,12.96-3.9.69-1.24,1.21-2.56,1.56-3.93,2.17-1.02,3.11-3.61,2.09-5.78-.43-.92-1.17-1.66-2.09-2.09-.35-1.37-.87-2.7-1.56-3.93-3.77-2.69-8.31-4.06-12.93-3.9"/></g><g id="CIRCLE-23"><circle class="cls-6" cx="34.67" cy="127.14" r=".87"/></g><g id="CIRCLE-24"><circle class="cls-6" cx="32.03" cy="127.14" r=".87"/></g><g id="CIRCLE-25"><circle class="cls-6" cx="25.01" cy="123.65" r=".87"/></g><g id="CIRCLE-26"><circle class="cls-6" cx="29.48" cy="127.14" r=".87"/></g><g id="CIRCLE-27"><circle class="cls-6" cx="21.37" cy="123.65" r=".87"/></g><g id="CIRCLE-28"><circle class="cls-6" cx="23.19" cy="125.74" r=".87"/></g><g id="CIRCLE-29"><circle class="cls-6" cx="26.83" cy="125.74" r=".87"/></g><g id="ARC-91"><path class="cls-6" d="m19.46,126.61c.48.05.91-.3.95-.78s-.3-.91-.78-.95c-.02,0-.04,0-.07,0"/></g><g id="CIRCLE-30"><circle class="cls-6" cx="25.01" cy="130.63" r=".87"/></g><g id="CIRCLE-31"><circle class="cls-6" cx="21.37" cy="130.63" r=".87"/></g><g id="CIRCLE-32"><circle class="cls-6" cx="23.19" cy="128.54" r=".87"/></g><g id="CIRCLE-33"><circle class="cls-6" cx="26.83" cy="128.54" r=".87"/></g><g id="ARC-92"><path class="cls-6" d="m19.56,129.41c.48-.01.86-.41.85-.89s-.41-.86-.89-.85c-.02,0-.05,0-.07,0"/></g><g id="LWPOLYLINE-43"><path class="cls-6" d="m21.38,196.45c3.77.22,7.56,0,11.29-.64,1.25-.22,2.33-.98,2.96-2.08,2.08-3.61,2.08-8.05,0-11.66-.63-1.1-1.71-1.86-2.96-2.08-3.73-.65-7.51-.86-11.29-.64"/></g><g id="LWPOLYLINE-44"><path class="cls-6" d="m25.05,176.07c-.81.03-1.62.1-2.42.23-4.21,7.1-4.24,15.93-.09,23.07.83.13,1.67.21,2.51.24"/></g><g id="ARC-93"><path class="cls-6" d="m21.38,179.35c-.09,0-.18.01-.27.02"/></g><g id="ARC-94"><path class="cls-6" d="m21.05,196.29c.11.01.22.02.33.03"/></g><g id="LWPOLYLINE-45"><path class="cls-6" d="m25.05,176.07v-.87c0-1.2-.98-2.18-2.18-2.18h-6.76c-1.2,0-2.18.98-2.18,2.18v25.28c0,1.2.98,2.18,2.18,2.18h6.76c1.2,0,2.18-.98,2.18-2.18v-.87c4.63.16,9.19-1.21,12.96-3.9.69-1.24,1.21-2.56,1.56-3.93,2.17-1.02,3.11-3.61,2.09-5.78-.43-.92-1.17-1.66-2.09-2.09-.35-1.37-.87-2.7-1.56-3.93-3.77-2.69-8.31-4.06-12.93-3.9"/></g><g id="CIRCLE-34"><circle class="cls-6" cx="34.67" cy="187.9" r=".87"/></g><g id="CIRCLE-35"><circle class="cls-6" cx="32.03" cy="187.9" r=".87"/></g><g id="CIRCLE-36"><circle class="cls-6" cx="25.01" cy="184.41" r=".87"/></g><g id="CIRCLE-37"><circle class="cls-6" cx="29.48" cy="187.9" r=".87"/></g><g id="CIRCLE-38"><circle class="cls-6" cx="21.37" cy="184.41" r=".87"/></g><g id="CIRCLE-39"><circle class="cls-6" cx="23.19" cy="186.51" r=".87"/></g><g id="CIRCLE-40"><circle class="cls-6" cx="26.83" cy="186.51" r=".87"/></g><g id="ARC-95"><path class="cls-6" d="m19.46,187.37c.48.05.91-.3.95-.78s-.3-.91-.78-.95c-.02,0-.04,0-.07,0"/></g><g id="CIRCLE-41"><circle class="cls-6" cx="25.01" cy="191.4" r=".87"/></g><g id="CIRCLE-42"><circle class="cls-6" cx="21.37" cy="191.4" r=".87"/></g><g id="CIRCLE-43"><circle class="cls-6" cx="23.19" cy="189.3" r=".87"/></g><g id="CIRCLE-44"><circle class="cls-6" cx="26.83" cy="189.3" r=".87"/></g><g id="ARC-96"><path class="cls-6" d="m19.56,190.17c.48-.01.86-.41.85-.89s-.41-.86-.89-.85c-.02,0-.05,0-.07,0"/></g><g id="ARC-97"><path class="cls-6" d="m65.81,281.58c0-6.54-2.25-12.88-6.37-17.95"/></g><g id="ARC-98"><path class="cls-6" d="m59.44,299.53c4.12-5.08,6.37-11.41,6.37-17.95"/></g><g id="ARC-99"><path class="cls-6" d="m24.66,281.58c0,4.06.81,8.08,2.38,11.82"/></g><g id="ARC-100"><path class="cls-6" d="m62.33,281.58c0-5.74-1.97-11.3-5.59-15.76"/></g><g id="ARC-101"><path class="cls-6" d="m26.05,281.58c0,3.62.67,7.22,1.99,10.6"/></g><g id="CIRCLE-45"><circle class="cls-6" cx="31.59" cy="281.58" r="1.52"/></g><g id="ARC-102"><path class="cls-6" d="m56.73,297.34c3.62-4.45,5.59-10.02,5.59-15.76"/></g><g id="ARC-103"><path class="cls-6" d="m27.03,269.76c-1.57,3.75-2.38,7.76-2.38,11.82"/></g><g id="ARC-104"><path class="cls-6" d="m28.04,270.99c-1.31,3.38-1.99,6.97-1.99,10.6"/></g><g id="ARC-105"><path class="cls-6" d="m59.44,263.63c-3.31-4.07-8.28-6.44-13.52-6.44"/></g><g id="ARC-106"><path class="cls-6" d="m45.92,305.97c5.25,0,10.22-2.37,13.52-6.44"/></g><g id="ARC-107"><path class="cls-6" d="m27.03,293.41c3.19,7.61,10.63,12.57,18.88,12.57"/></g><g id="ARC-108"><path class="cls-6" d="m37.52,267.94c-1.62,4.36-2.45,8.98-2.45,13.64"/></g><g id="ARC-109"><path class="cls-6" d="m56.73,265.82c-1.22-1.51-2.75-2.74-4.48-3.62"/></g><g id="ARC-110"><path class="cls-6" d="m52.26,262.2c-5.21-2.66-11.58-.6-14.24,4.61-.19.37-.35.75-.5,1.13"/></g><g id="ARC-111"><path class="cls-6" d="m28.04,292.18c2.86,7.02,9.08,12.13,16.52,13.58"/></g><g id="CIRCLE-46"><circle class="cls-6" cx="40.91" cy="281.58" r="3.27"/></g><g id="CIRCLE-47"><circle class="cls-6" cx="40.91" cy="281.58" r="2"/></g><g id="ARC-112"><path class="cls-6" d="m37.52,295.22c2.03,5.48,8.12,8.27,13.61,6.24.39-.14.77-.31,1.13-.5"/></g><g id="ARC-113"><path class="cls-6" d="m52.26,300.96c1.73-.88,3.25-2.12,4.48-3.62"/></g><g id="ARC-114"><path class="cls-6" d="m35.07,281.58c0,4.66.83,9.27,2.45,13.64"/></g><g id="ARC-115"><path class="cls-6" d="m45.92,257.19c-8.25,0-15.7,4.95-18.88,12.57"/></g><g id="ARC-116"><path class="cls-6" d="m44.56,257.41c-7.45,1.45-13.66,6.55-16.52,13.58"/></g><g id="ARC-117"><path class="cls-6" d="m65.81,352.45c0-6.54-2.25-12.88-6.37-17.95"/></g><g id="ARC-118"><path class="cls-6" d="m59.44,370.41c4.12-5.08,6.37-11.41,6.37-17.95"/></g><g id="ARC-119"><path class="cls-6" d="m24.66,352.45c0,4.06.81,8.08,2.38,11.82"/></g><g id="ARC-120"><path class="cls-6" d="m62.33,352.45c0-5.74-1.97-11.3-5.59-15.76"/></g><g id="ARC-121"><path class="cls-6" d="m26.05,352.45c0,3.62.67,7.22,1.99,10.6"/></g><g id="CIRCLE-48"><circle class="cls-6" cx="31.59" cy="352.45" r="1.52"/></g><g id="ARC-122"><path class="cls-6" d="m56.73,368.21c3.62-4.45,5.59-10.02,5.59-15.76"/></g><g id="ARC-123"><path class="cls-6" d="m27.03,340.63c-1.57,3.75-2.38,7.76-2.38,11.82"/></g><g id="ARC-124"><path class="cls-6" d="m28.04,341.86c-1.31,3.38-1.99,6.97-1.99,10.6"/></g><g id="ARC-125"><path class="cls-6" d="m59.44,334.5c-3.31-4.07-8.28-6.44-13.52-6.44"/></g><g id="ARC-126"><path class="cls-6" d="m45.92,376.85c5.25,0,10.22-2.37,13.52-6.44"/></g><g id="ARC-127"><path class="cls-6" d="m27.03,364.28c3.19,7.61,10.63,12.57,18.88,12.57"/></g><g id="ARC-128"><path class="cls-6" d="m37.52,338.82c-1.62,4.36-2.45,8.98-2.45,13.64"/></g><g id="ARC-129"><path class="cls-6" d="m56.73,336.7c-1.22-1.51-2.75-2.74-4.48-3.62"/></g><g id="ARC-130"><path class="cls-6" d="m52.26,333.07c-5.21-2.66-11.58-.6-14.24,4.61-.19.37-.35.75-.5,1.13"/></g><g id="ARC-131"><path class="cls-6" d="m28.04,363.05c2.86,7.02,9.08,12.13,16.52,13.58"/></g><g id="CIRCLE-49"><circle class="cls-6" cx="40.91" cy="352.45" r="3.27"/></g><g id="CIRCLE-50"><circle class="cls-6" cx="40.91" cy="352.45" r="2"/></g><g id="ARC-132"><path class="cls-6" d="m37.52,366.09c2.03,5.48,8.12,8.27,13.61,6.24.39-.14.77-.31,1.13-.5"/></g><g id="ARC-133"><path class="cls-6" d="m52.26,371.83c1.73-.88,3.25-2.12,4.48-3.62"/></g><g id="ARC-134"><path class="cls-6" d="m35.07,352.45c0,4.66.83,9.27,2.45,13.64"/></g><g id="ARC-135"><path class="cls-6" d="m45.92,328.06c-8.25,0-15.7,4.95-18.88,12.57"/></g><g id="ARC-136"><path class="cls-6" d="m44.56,328.28c-7.45,1.45-13.66,6.55-16.52,13.58"/></g><g id="ARC-137"><path class="cls-6" d="m65.81,419.28c0-6.54-2.25-12.88-6.37-17.95"/></g><g id="ARC-138"><path class="cls-6" d="m59.44,437.23c4.12-5.08,6.37-11.41,6.37-17.95"/></g><g id="ARC-139"><path class="cls-6" d="m24.66,419.28c0,4.06.81,8.08,2.38,11.82"/></g><g id="ARC-140"><path class="cls-6" d="m62.33,419.28c0-5.74-1.97-11.3-5.59-15.76"/></g><g id="ARC-141"><path class="cls-6" d="m26.05,419.28c0,3.62.67,7.22,1.99,10.6"/></g><g id="CIRCLE-51"><circle class="cls-6" cx="31.59" cy="419.28" r="1.52"/></g><g id="ARC-142"><path class="cls-6" d="m56.73,435.03c3.62-4.45,5.59-10.02,5.59-15.76"/></g><g id="ARC-143"><path class="cls-6" d="m27.03,407.45c-1.57,3.75-2.38,7.76-2.38,11.82"/></g><g id="ARC-144"><path class="cls-6" d="m28.04,408.68c-1.31,3.38-1.99,6.97-1.99,10.6"/></g><g id="ARC-145"><path class="cls-6" d="m59.44,401.32c-3.31-4.07-8.28-6.44-13.52-6.44"/></g><g id="ARC-146"><path class="cls-6" d="m45.92,443.67c5.25,0,10.22-2.37,13.52-6.44"/></g><g id="ARC-147"><path class="cls-6" d="m27.03,431.1c3.19,7.61,10.63,12.57,18.88,12.57"/></g><g id="ARC-148"><path class="cls-6" d="m37.52,405.64c-1.62,4.36-2.45,8.98-2.45,13.64"/></g><g id="ARC-149"><path class="cls-6" d="m56.73,403.52c-1.22-1.51-2.75-2.74-4.48-3.62"/></g><g id="ARC-150"><path class="cls-6" d="m52.26,399.9c-5.21-2.66-11.58-.6-14.24,4.61-.19.37-.35.75-.5,1.13"/></g><g id="ARC-151"><path class="cls-6" d="m28.04,429.87c2.86,7.02,9.08,12.13,16.52,13.58"/></g><g id="CIRCLE-52"><circle class="cls-6" cx="40.91" cy="419.28" r="3.27"/></g><g id="CIRCLE-53"><circle class="cls-6" cx="40.91" cy="419.28" r="2"/></g><g id="ARC-152"><path class="cls-6" d="m37.52,432.91c2.03,5.48,8.12,8.27,13.61,6.24.39-.14.77-.31,1.13-.5"/></g><g id="ARC-153"><path class="cls-6" d="m52.26,438.66c1.73-.88,3.25-2.12,4.48-3.62"/></g><g id="ARC-154"><path class="cls-6" d="m35.07,419.28c0,4.66.83,9.27,2.45,13.64"/></g><g id="ARC-155"><path class="cls-6" d="m45.92,394.88c-8.25,0-15.7,4.95-18.88,12.57"/></g><g id="ARC-156"><path class="cls-6" d="m44.56,395.11c-7.45,1.45-13.66,6.55-16.52,13.58"/></g><g id="LINE-108"><line class="cls-6" x1="13.94" y1="243.64" x2="69.47" y2="243.64"/></g><g id="LINE-109"><line class="cls-15" x1="434.22" y1="100.22" x2="303.22" y2="100.22"/></g><g id="LINE-110"><line class="cls-15" x1="429.86" y1="104.58" x2="303.22" y2="104.58"/></g><g id="LINE-111"><line class="cls-15" x1="429.86" y1="128.49" x2="429.86" y2="104.58"/></g><g id="LINE-112"><line class="cls-15" x1="434.22" y1="128.49" x2="434.22" y2="100.22"/></g><g id="LINE-113"><line class="cls-15" x1="429.86" y1="47.96" x2="429.86" y2="24.04"/></g><g id="LINE-114"><line class="cls-15" x1="434.22" y1="47.96" x2="434.22" y2="24.04"/></g><g id="LINE-115"><line class="cls-15" x1="429.86" y1="47.96" x2="434.22" y2="47.96"/></g><g id="LINE-116"><line class="cls-15" x1="434.22" y1="180.76" x2="303.22" y2="180.76"/></g><g id="LINE-117"><line class="cls-15" x1="429.86" y1="185.11" x2="303.22" y2="185.11"/></g><g id="LINE-118"><line class="cls-15" x1="429.86" y1="209.03" x2="429.86" y2="185.11"/></g><g id="LINE-119"><line class="cls-15" x1="434.22" y1="209.03" x2="434.22" y2="180.76"/></g><g id="LINE-120"><line class="cls-15" x1="429.86" y1="128.49" x2="434.22" y2="128.49"/></g><g id="LINE-121"><line class="cls-15" x1="429.86" y1="209.03" x2="434.22" y2="209.03"/></g><g id="LINE-122"><line class="cls-15" x1="159.16" y1="100.22" x2="290.15" y2="100.22"/></g><g id="LINE-123"><line class="cls-15" x1="163.51" y1="104.58" x2="290.15" y2="104.58"/></g><g id="LINE-124"><line class="cls-15" x1="163.51" y1="128.49" x2="163.51" y2="104.58"/></g><g id="LINE-125"><line class="cls-15" x1="159.16" y1="128.49" x2="159.16" y2="100.22"/></g><g id="LINE-126"><line class="cls-15" x1="163.51" y1="47.96" x2="163.51" y2="24.04"/></g><g id="LINE-127"><line class="cls-15" x1="159.16" y1="47.96" x2="159.16" y2="24.04"/></g><g id="LINE-128"><line class="cls-15" x1="163.51" y1="47.96" x2="159.16" y2="47.96"/></g><g id="LINE-129"><line class="cls-15" x1="159.16" y1="180.76" x2="290.15" y2="180.76"/></g><g id="LINE-130"><line class="cls-15" x1="163.51" y1="185.11" x2="290.15" y2="185.11"/></g><g id="LINE-131"><line class="cls-15" x1="163.51" y1="209.03" x2="163.51" y2="185.11"/></g><g id="LINE-132"><line class="cls-15" x1="159.16" y1="209.03" x2="159.16" y2="180.76"/></g><g id="LINE-133"><line class="cls-15" x1="163.51" y1="128.49" x2="159.16" y2="128.49"/></g><g id="LINE-134"><line class="cls-15" x1="163.51" y1="209.03" x2="159.16" y2="209.03"/></g><g id="LWPOLYLINE-46"><polyline class="cls-12" points="160.3 100.22 160.31 98.04 161.4 98.04 161.4 96.96 162.49 96.96 162.48 100.22"/></g><g id="LWPOLYLINE-47"><path class="cls-12" d="m160.36,47.95v2.18c.17.03.34.08.5.17.72.39.98,1.29.58,2.01h1.09s0-4.35,0-4.35"/></g><g id="LWPOLYLINE-48"><path class="cls-12" d="m159.27,52.31c.81-.11,1.37-.86,1.26-1.67-.02-.18-.08-.35-.17-.5l-46.49-.05v2.18s2.34,0,2.34,0h0l43.06.05h0Z"/></g><g id="ARC-157"><path class="cls-1" d="m160.31,98.04c-24.62-1.8-44.29-21.2-46.44-45.78"/></g><g id="LWPOLYLINE-49"><rect class="cls-8" x="465.28" y="457.7" width="7.26" height=".77"/></g><g id="LWPOLYLINE-50"><rect class="cls-8" x="465.55" y="457.01" width="1.48" height=".69"/></g><g id="LWPOLYLINE-51"><rect class="cls-8" x="465.55" y="453.27" width="1.48" height=".69"/></g><g id="LWPOLYLINE-52"><rect class="cls-8" x="465.28" y="452.5" width="7.26" height=".77"/></g><g id="HATCH-2"><path class="cls-5" d="m388.44,375.09v-2.6h7.87v2.6h-7.87m0,2.61v-2.61h3.94v2.61h-3.94m7.87,79.31v2.6h-7.87v-2.6h7.87Z"/><path class="cls-11" d="m388.44,372.83l.34-.34m-.34,1.32l1.32-1.32m-1.32,2.3l2.3-2.3m-2.3,3.28l.68-.68m0,0l2.6-2.6m-3.28,4.25l1.66-1.66m0,0l2.6-2.6m-4.23,5.21l2.61-2.61m0,0l2.6-2.6m-4.23,5.21l2.61-2.61m0,0l2.6-2.6m-4.23,5.21l1.96-1.96m.65-.65l2.6-2.6m-4.23,5.21l.98-.98m1.63-1.63l2.31-2.31m-3.94,4.92h0m2.61-2.61l1.33-1.33m-.35,1.33l.35-.35m-7.87,83.17l.9-.9m-.9,1.88l1.88-1.88m-1.62,2.6l2.6-2.6m-1.62,2.6l2.6-2.6m-1.62,2.6l2.6-2.6m-1.62,2.6l2.6-2.6m-1.62,2.6l2.6-2.6m-1.62,2.6l2.6-2.6m-1.62,2.6l1.75-1.75m-.77,1.75l.77-.77"/></g><g id="LWPOLYLINE-53"><rect class="cls-15" x="388.44" y="457.01" width="7.87" height="2.6"/></g><g id="LINE-135"><line class="cls-15" x1="475.58" y1="453.96" x2="393.68" y2="453.96"/></g><g id="LINE-136"><line class="cls-15" x1="475.58" y1="457.01" x2="393.68" y2="457.01"/></g><g id="LWPOLYLINE-54"><rect class="cls-15" x="388.44" y="375.09" width="3.94" height="2.61"/></g><g id="LWPOLYLINE-55"><rect class="cls-15" x="388.44" y="372.49" width="7.87" height="2.6"/></g><g id="LINE-137"><line class="cls-8" x1="396.73" y1="457.01" x2="393.68" y2="453.96"/></g><g id="LINE-138"><line class="cls-8" x1="393.68" y1="457.01" x2="396.73" y2="453.96"/></g><g id="LINE-139"><line class="cls-8" x1="475.58" y1="457.01" x2="472.54" y2="453.96"/></g><g id="LINE-140"><line class="cls-8" x1="475.58" y1="453.96" x2="472.54" y2="457.01"/></g><g id="LINE-141"><line class="cls-8" x1="436.16" y1="453.96" x2="433.11" y2="457.01"/></g><g id="LINE-142"><line class="cls-8" x1="436.16" y1="457.01" x2="433.11" y2="453.96"/></g><g id="ARC-158"><path class="cls-8" d="m475.58,453.96c-1.6-43.03-36.23-77.49-79.27-78.87"/></g><g id="LWPOLYLINE-56"><rect class="cls-8" x="120.84" y="457.7" width="7.26" height=".77"/></g><g id="LWPOLYLINE-57"><rect class="cls-8" x="126.35" y="457.01" width="1.48" height=".69"/></g><g id="LWPOLYLINE-58"><rect class="cls-8" x="126.35" y="453.27" width="1.48" height=".69"/></g><g id="LWPOLYLINE-59"><rect class="cls-8" x="120.84" y="452.5" width="7.26" height=".77"/></g><g id="HATCH-3"><path class="cls-5" d="m204.93,375.09v-2.6h-7.87v2.6h7.87m0,2.61v-2.61h-3.94v2.61h3.94m-7.87,79.31v2.6h7.87v-2.6h-7.87Z"/><path class="cls-11" d="m204.93,372.83l-.34-.34m.34,1.32l-1.32-1.32m1.32,2.3l-2.3-2.3m2.3,3.28l-.68-.68m0,0l-2.6-2.6m3.28,4.25l-1.66-1.66m0,0l-2.6-2.6m4.23,5.21l-2.61-2.61m0,0l-2.6-2.6m4.23,5.21l-2.61-2.61m0,0l-2.6-2.6m4.23,5.21l-1.96-1.96m-.65-.65l-2.6-2.6m4.23,5.21l-.98-.98m-1.63-1.63l-2.31-2.31m3.94,4.92h0m-2.61-2.61l-1.33-1.33m.35,1.33l-.35-.35m7.87,83.17l-.9-.9m.9,1.88l-1.88-1.88m1.62,2.6l-2.6-2.6m1.62,2.6l-2.6-2.6m1.62,2.6l-2.6-2.6m1.62,2.6l-2.6-2.6m1.62,2.6l-2.6-2.6m1.62,2.6l-2.6-2.6m1.62,2.6l-1.75-1.75m.77,1.75l-.77-.77"/></g><g id="LWPOLYLINE-60"><rect class="cls-15" x="197.06" y="457.01" width="7.87" height="2.6"/></g><g id="LINE-143"><line class="cls-15" x1="117.79" y1="457.01" x2="199.69" y2="457.01"/></g><g id="LWPOLYLINE-61"><rect class="cls-15" x="201" y="375.09" width="3.94" height="2.61"/></g><g id="LWPOLYLINE-62"><rect class="cls-15" x="197.06" y="372.49" width="7.87" height="2.6"/></g><g id="LINE-144"><line class="cls-8" x1="196.64" y1="457.01" x2="199.69" y2="453.96"/></g><g id="LINE-145"><line class="cls-8" x1="199.69" y1="457.01" x2="196.64" y2="453.96"/></g><g id="LINE-146"><line class="cls-8" x1="117.79" y1="457.01" x2="120.84" y2="453.96"/></g><g id="LINE-147"><line class="cls-8" x1="117.79" y1="453.96" x2="120.84" y2="457.01"/></g><g id="LINE-148"><line class="cls-8" x1="157.21" y1="453.96" x2="160.26" y2="457.01"/></g><g id="LINE-149"><line class="cls-8" x1="157.21" y1="457.01" x2="160.26" y2="453.96"/></g><g id="ARC-159"><path class="cls-8" d="m117.79,453.96c1.6-43.03,36.23-77.49,79.27-78.87"/></g><g id="LWPOLYLINE-63"><polyline class="cls-12" points="160.3 180.76 160.31 178.58 161.4 178.58 161.4 177.49 162.49 177.49 162.48 180.76"/></g><g id="LWPOLYLINE-64"><path class="cls-12" d="m160.36,128.49v2.18c.17.03.34.08.5.17.72.39.98,1.29.58,2.01h1.09s0-4.35,0-4.35"/></g><g id="LWPOLYLINE-65"><path class="cls-12" d="m159.27,132.84c.81-.11,1.37-.86,1.26-1.67-.02-.18-.08-.35-.17-.5l-46.49-.05v2.18s2.34,0,2.34,0h0l43.06.05h0Z"/></g><g id="ARC-160"><path class="cls-1" d="m160.31,178.58c-24.62-1.8-44.29-21.2-46.44-45.78"/></g><g id="LWPOLYLINE-66"><polyline class="cls-12" points="160.3 261.29 160.31 259.12 161.4 259.12 161.4 258.03 162.49 258.03 162.48 261.3"/></g><g id="LWPOLYLINE-67"><path class="cls-12" d="m160.36,209.03v2.18c.17.03.34.08.5.17.72.39.98,1.29.58,2.01h1.09s0-4.35,0-4.35"/></g><g id="LWPOLYLINE-68"><path class="cls-12" d="m159.27,213.38c.81-.11,1.37-.86,1.26-1.67-.02-.18-.08-.35-.17-.5l-46.49-.05v2.18s2.34,0,2.34,0h0l43.06.05h0Z"/></g><g id="ARC-161"><path class="cls-1" d="m160.31,259.12c-24.62-1.8-44.29-21.2-46.44-45.78"/></g><g id="LWPOLYLINE-69"><polyline class="cls-12" points="433.07 100.22 433.07 98.04 431.98 98.04 431.98 96.96 430.89 96.96 430.89 100.22"/></g><g id="LWPOLYLINE-70"><path class="cls-12" d="m433.01,47.95v2.18c-.81.12-1.37.87-1.25,1.68.03.18.08.35.17.5h-1.09s0-4.35,0-4.35"/></g><g id="LWPOLYLINE-71"><path class="cls-12" d="m434.11,52.31c-.18-.02-.35-.08-.5-.17-.72-.39-.98-1.29-.59-2.01l46.49-.05v2.18s-2.34,0-2.34,0h0l-43.06.05h0Z"/></g><g id="ARC-162"><path class="cls-1" d="m433.07,98.04c24.62-1.8,44.29-21.2,46.44-45.78"/></g><g id="LWPOLYLINE-72"><polyline class="cls-12" points="433.07 180.76 433.07 178.58 431.98 178.58 431.98 177.49 430.89 177.49 430.89 180.76"/></g><g id="LWPOLYLINE-73"><path class="cls-12" d="m433.01,128.49v2.18c-.81.12-1.37.87-1.25,1.68.03.18.08.35.17.5h-1.09s0-4.35,0-4.35"/></g><g id="LWPOLYLINE-74"><path class="cls-12" d="m434.11,132.84c-.18-.02-.35-.08-.5-.17-.72-.39-.98-1.29-.59-2.01l46.49-.05v2.18s-2.34,0-2.34,0h0l-43.06.05h0Z"/></g><g id="ARC-163"><path class="cls-1" d="m433.07,178.58c24.62-1.8,44.29-21.2,46.44-45.78"/></g><g id="LWPOLYLINE-75"><polyline class="cls-12" points="433.07 261.29 433.07 259.12 431.98 259.12 431.98 258.03 430.89 258.03 430.89 261.3"/></g><g id="LWPOLYLINE-76"><path class="cls-12" d="m433.01,209.03v2.18c-.81.12-1.37.87-1.25,1.68.03.18.08.35.17.5h-1.09s0-4.35,0-4.35"/></g><g id="LWPOLYLINE-77"><path class="cls-12" d="m434.11,213.38c-.18-.02-.35-.08-.5-.17-.72-.39-.98-1.29-.59-2.01l46.49-.05v2.18s-2.34,0-2.34,0h0l-43.06.05h0Z"/></g><g id="ARC-164"><path class="cls-1" d="m433.07,259.12c24.62-1.8,44.29-21.2,46.44-45.78"/></g><g id="LWPOLYLINE-78"><polyline class="cls-12" points="198.39 335.34 198.39 332.79 199.66 332.8 199.66 331.53 200.93 331.53 200.93 335.34"/></g><g id="LWPOLYLINE-79"><path class="cls-12" d="m198.45,274.36v2.54c.2.03.4.1.58.2.84.46,1.14,1.51.68,2.35h1.27s0-5.08,0-5.08"/></g><g id="LWPOLYLINE-80"><path class="cls-12" d="m197.18,279.44c.94-.13,1.6-1.01,1.47-1.95-.03-.21-.1-.4-.19-.59l-54.24-.06v2.54s2.73,0,2.73,0h0l50.24.05h0Z"/></g><g id="ARC-165"><path class="cls-1" d="m198.39,332.79c-28.72-2.11-51.67-24.73-54.18-53.41"/></g><g id="LWPOLYLINE-81"><polyline class="cls-12" points="394.98 335.34 394.98 332.79 393.71 332.8 393.71 331.53 392.44 331.53 392.44 335.34"/></g><g id="LWPOLYLINE-82"><path class="cls-12" d="m394.92,274.36v2.54c-.94.14-1.6,1.01-1.46,1.96.03.21.1.4.2.59h-1.27s0-5.08,0-5.08"/></g><g id="LWPOLYLINE-83"><path class="cls-12" d="m396.19,279.44c-.21-.03-.4-.1-.59-.19-.84-.46-1.14-1.51-.69-2.34l54.24-.06v2.54s-2.73,0-2.73,0h0l-50.24.05h0Z"/></g><g id="ARC-166"><path class="cls-1" d="m394.98,332.79c28.72-2.11,51.67-24.73,54.18-53.41"/></g><g id="HATCH-4"><path class="cls-14" d="m159.16,100.22h1.15v-2.18s-46.44-45.78-46.44-45.78v-2.18s46.5.05,46.5.05v-2.18s-1.2,0-1.2,0v-23.92H13.94s0,29.34,0,29.34l2.18-2.18h6.76l2.18,2.18v.87l12.96,3.9,1.56,3.93v7.87l-1.56,3.93-12.96,3.9v.87l-2.18,2.18h-6.76l-2.18-2.18v35.77l2.18-2.18h6.76l2.18,2.18v.87l12.96,3.9,1.56,3.93v7.87l-1.56,3.93-12.96,3.9v.87l-2.18,2.18h-6.76l-2.18-2.18v35.48l2.18-2.18h6.76l2.18,2.18v.87l12.96,3.9,1.56,3.93v7.87l-1.56,3.93-12.96,3.9v.87l-2.18,2.18h-6.76l-2.18-2.18v43.16h55.53s0,215.96,0,215.96h127.59v-2.6h-79.27v-3.05l79.27-78.87v-2.6h-5.38s0-37.15,0-37.15v-3.43s-47.47-52.53-47.47-52.53v-2.54s47.47.05,47.47.05v-2.53h-32.52s0-13.07,0-13.07h1.15v-2.18s-46.44-45.78-46.44-45.78v-2.18s46.5.05,46.5.05v-2.18s-1.2,0-1.2,0v-28.27s1.15,0,1.15,0v-2.18s-46.44-45.78-46.44-45.78v-2.18s46.5.05,46.5.05v-2.18s-1.2,0-1.2,0v-28.27m-38.32,357.48h7.26v.77h-7.26v-.77M579.44,24.04h-145.22s0,23.92,0,23.92h-1.2v2.18s46.5-.05,46.5-.05v2.18s-46.44,45.78-46.44,45.78v2.18h1.15s0,28.27,0,28.27h-1.2v2.18s46.5-.05,46.5-.05v2.18s-46.44,45.78-46.44,45.78v2.18h1.15s0,28.27,0,28.27h-1.2v2.18s46.5-.05,46.5-.05v2.18s-46.44,45.78-46.44,45.78v2.18h7.67s0,13.07,0,13.07h-39.04v2.53s47.47-.05,47.47-.05v2.54s-47.47,52.53-47.47,52.53v3.43s0,37.15,0,37.15h-5.38v2.6l79.27,78.87v3.05h-79.27v2.6h127.59v-215.96s55.53,0,55.53,0V24.04m-106.9,433.66v.77h-7.26v-.77h7.26m-76.22-82.61h-3.94v2.61h-3.94v79.31h5.24v-3.05h81.9l-79.27-78.87m68.97,77.41h7.26v.77h-7.26v-.77m-260.34-74.8h-3.94v-2.61h-3.94l-79.27,78.87h81.9v3.05h5.24v-79.31m-76.84,74.8v.77h-7.26v-.77h7.26m63.59-173.07l-44.74-.05h-2.73s47.47,52.53,47.47,52.53v-52.48m257.48-.05h-2.73s-44.74.05-44.74.05v52.48s47.47-52.53,47.47-52.53m30.34-66.05h-2.34s-42.64.05-42.64.05l-1.51-2.18-1.09,2.18h-1.09s0-4.35,0-4.35h-.97s0-23.92,0-23.92h-126.64v25.85s5.66-3.77,5.66-3.77h5.88s.98,0,.98,0h2.55s6.56,0,6.56,0l29.93,5.12,9.41,11.16v3.58s-9.41,11.16-9.41,11.16l-29.93,5.12h-9.07s-1.02,0-1.02,0h-6.27s-5.27-3.77-5.27-3.77v1.59s0,20.13,0,20.13h127.67s0-3.26,0-3.26h1.09s0,1.09,0,1.09h1.09s46.44-45.79,46.44-45.79m-252.08,13.73v-3.58s10.86-12.88,10.86-12.88l30.08-5.15h17.86s3.92,3.92,3.92,3.92v-24.25h-126.64v23.92s-.97,0-.97,0v4.36s-1.09,0-1.09,0l-1.09-2.18-1.09,2.18-43.06-.05h-2.34s46.44,45.78,46.44,45.78h1.09s0-1.09,0-1.09h1.09s0,3.26,0,3.26h127.67v-20.13s-3.92,3.92-3.92,3.92h-17.86s-30.08-5.15-30.08-5.15l-10.86-12.88m0-80.54v-3.58s10.86-12.88,10.86-12.88l30.08-5.15h17.86s3.92,3.92,3.92,3.92v-24.25h-126.64v23.92s-.97,0-.97,0v4.36s-1.09,0-1.09,0l-1.09-2.18-1.09,2.18-43.06-.05h-2.34s46.44,45.78,46.44,45.78h1.09s0-1.09,0-1.09h1.09s0,3.26,0,3.26h127.67v-20.13s-3.92,3.92-3.92,3.92h-17.86s-30.08-5.15-30.08-5.15l-10.86-12.88m252.08-13.73h-2.34s-42.64.05-42.64.05l-1.51-2.18-1.09,2.18h-1.09s0-4.35,0-4.35h-.97s0-23.92,0-23.92h-126.64v25.85s5.66-3.77,5.66-3.77h5.88s.98,0,.98,0h2.55s6.56,0,6.56,0l29.93,5.12,9.41,11.16v3.58s-9.41,11.16-9.41,11.16l-29.93,5.12h-9.07s-1.02,0-1.02,0h-6.27s-5.27-3.77-5.27-3.77v1.59s0,20.13,0,20.13h127.67s0-3.26,0-3.26h1.09s0,1.09,0,1.09h1.09s46.44-45.79,46.44-45.79m0-80.54h-2.34s-42.64.05-42.64.05l-1.51-2.18-1.09,2.18h-1.09s0-4.35,0-4.35h-.97s0-23.92,0-23.92h-126.64s0,22.27,0,22.27l3.92-3.92h17.86s30.08,5.15,30.08,5.15l10.86,12.88v3.58s-10.86,12.88-10.86,12.88l-30.08,5.15h-17.86s-3.92-3.92-3.92-3.92v22.11s127.67,0,127.67,0v-3.26s1.09,0,1.09,0v1.09s1.09,0,1.09,0l46.44-45.78m-241.22-4.72l30.08-5.15h17.86s3.92,3.92,3.92,3.92v-22.27s-126.64,0-126.64,0v23.92s-.97,0-.97,0v4.36s-1.09,0-1.09,0l-1.09-2.18-1.09,2.18-43.06-.05h-2.34s46.44,45.78,46.44,45.78h1.09s0-1.09,0-1.09h1.09s0,3.26,0,3.26h127.67s0-22.11,0-22.11l-3.92,3.92h-17.86s-30.08-5.15-30.08-5.15l-10.86-12.88v-3.58s10.86-12.88,10.86-12.88Z"/></g></svg>