<?xml version="1.0" encoding="UTF-8"?><svg id="PAVIMENTAZIONE_-_flooring" xmlns="http://www.w3.org/2000/svg" width="595.28" height="288" viewBox="0 0 595.28 288"><defs><style>.cls-1,.cls-2,.cls-3,.cls-4,.cls-5,.cls-6,.cls-7,.cls-8,.cls-9,.cls-10,.cls-11,.cls-12,.cls-13{fill:none;}.cls-1,.cls-2,.cls-3,.cls-4,.cls-5,.cls-7,.cls-8,.cls-9,.cls-10,.cls-11,.cls-12,.cls-13{stroke-linecap:round;stroke-linejoin:round;}.cls-1,.cls-4{stroke:#4d79ff;}.cls-1,.cls-4,.cls-11{stroke-width:.71px;}.cls-2{stroke-dasharray:0 0 .71 .36;}.cls-2,.cls-3,.cls-13{stroke-width:.26px;}.cls-2,.cls-13{stroke:#5b5b5b;}.cls-3,.cls-7,.cls-8{stroke:#4c4c99;}.cls-4{stroke-dasharray:0 0 7.13 3.57;}.cls-5{stroke-width:1.13px;}.cls-5,.cls-10{stroke:#000;}.cls-6{stroke-width:0px;}.cls-7{stroke-width:.06px;}.cls-8{stroke-width:.08px;}.cls-9{stroke-width:0px;}.cls-9,.cls-12{stroke:#333;}.cls-10{stroke-width:.37px;}.cls-11{stroke:#ff0;}.cls-12{stroke-width:.14px;}</style></defs><g id="LWPOLYLINE"><rect class="cls-10" x=".7" y="14.06" width="28.53" height="14.26"/></g><g id="LWPOLYLINE-2"><rect class="cls-10" x="564.1" y="14.06" width="28.53" height="14.26"/></g><g id="LWPOLYLINE-3"><polyline class="cls-10" points="578.37 14.06 592.63 14.06 592.63 28.33 578.37 28.33"/></g><g id="LWPOLYLINE-4"><rect class="cls-10" x=".7" y="256.54" width="28.53" height="14.26"/></g><g id="LWPOLYLINE-5"><rect class="cls-10" x="564.1" y="256.54" width="28.53" height="14.26"/></g><g id="LINE"><line class="cls-2" x1="499.92" y1="62.56" x2="569.81" y2="28.33"/></g><g id="LINE-2"><line class="cls-2" x1="499.92" y1="28.33" x2="569.81" y2="62.56"/></g><g id="ARC"><path class="cls-13" d="m175.14,251.98c.55-27.73,23.19-49.92,50.92-49.92"/></g><g id="ARC-2"><path class="cls-13" d="m171.74,85.92c16.64.33,29.95,13.91,29.95,30.55"/></g><g id="ARC-3"><path class="cls-13" d="m120.4,85.92c16.64.33,29.95,13.91,29.95,30.55"/></g><g id="ARC-4"><path class="cls-13" d="m69.05,85.92c16.64.33,29.95,13.91,29.95,30.55"/></g><g id="ARC-5"><path class="cls-13" d="m17.7,85.92c16.64.33,29.95,13.91,29.95,30.55"/></g><g id="ARC-6"><path class="cls-13" d="m409.94,48.55c16.64.33,29.95,13.91,29.95,30.55"/></g><g id="ARC-7"><path class="cls-13" d="m401.61,48.55c-16.64.33-29.95,13.91-29.95,30.55"/></g><g id="ARC-8"><path class="cls-13" d="m313.18,48.55c-16.64.33-29.95,13.91-29.95,30.55"/></g><g id="ARC-9"><path class="cls-13" d="m237.76,141.44c27.73.55,49.92,23.19,49.92,50.92"/></g><g id="LWPOLYLINE-6"><rect class="cls-5" x="499.92" y="28.33" width="69.89" height="34.23"/></g><g id="LINE-3"><line class="cls-5" x1=".7" y1="28.33" x2=".7" y2="14.06"/></g><g id="LINE-4"><line class="cls-5" x1="578.37" y1="28.33" x2="578.37" y2="199.49"/></g><g id="LINE-5"><line class="cls-5" x1="569.81" y1="71.12" x2="569.81" y2="190.93"/></g><g id="LINE-6"><line class="cls-5" x1=".7" y1="28.33" x2="224.63" y2="28.33"/></g><g id="LINE-7"><line class="cls-5" x1="233.19" y1="28.33" x2="315.92" y2="28.33"/></g><g id="LINE-8"><line class="cls-5" x1="324.48" y1="28.33" x2="491.36" y2="28.33"/></g><g id="LINE-9"><line class="cls-5" x1="491.36" y1="28.33" x2="491.36" y2="71.12"/></g><g id="LINE-10"><line class="cls-5" x1="29.22" y1="14.06" x2="578.37" y2="14.06"/></g><g id="LINE-11"><line class="cls-5" x1="569.81" y1="71.12" x2="491.36" y2="71.12"/></g><g id="LINE-12"><line class="cls-5" x1="233.19" y1="28.33" x2="233.19" y2="199.49"/></g><g id="LINE-13"><line class="cls-5" x1="224.63" y1="28.33" x2="224.63" y2="199.49"/></g><g id="LINE-14"><line class="cls-5" x1=".7" y1="256.54" x2="162.58" y2="256.54"/></g><g id="LINE-15"><line class="cls-5" x1="298.8" y1="190.93" x2="446.42" y2="190.93"/></g><g id="LINE-16"><line class="cls-5" x1="454.98" y1="190.93" x2="569.81" y2="190.93"/></g><g id="LINE-17"><line class="cls-5" x1="224.63" y1="199.49" x2="233.19" y2="199.49"/></g><g id="LINE-18"><line class="cls-5" x1="290.25" y1="199.49" x2="578.37" y2="199.49"/></g><g id="LINE-19"><line class="cls-5" x1="290.25" y1="190.93" x2="290.25" y2="199.49"/></g><g id="LWPOLYLINE-7"><polyline class="cls-5" points="290.25 190.93 290.25 156.7 298.8 156.7 298.8 190.93"/></g><g id="LINE-20"><line class="cls-5" x1="315.92" y1="28.33" x2="315.92" y2="82.53"/></g><g id="LINE-21"><line class="cls-5" x1="324.48" y1="28.33" x2="324.48" y2="82.53"/></g><g id="LINE-22"><line class="cls-5" x1="315.92" y1="82.53" x2="324.48" y2="82.53"/></g><g id="LWPOLYLINE-8"><polyline class="cls-5" points="454.98 190.93 454.98 156.7 446.42 156.7 446.42 190.93"/></g><g id="LWPOLYLINE-9"><polyline class="cls-5" points="171.13 256.54 171.13 222.31 162.58 222.31 162.58 256.54"/></g><g id="LINE-23"><line class="cls-5" x1="171.13" y1="256.54" x2="564.1" y2="256.54"/></g><g id="LINE-24"><line class="cls-5" x1=".7" y1="270.81" x2="564.1" y2="270.81"/></g><g id="LINE-25"><line class="cls-5" x1=".7" y1="256.54" x2=".7" y2="270.81"/></g><g id="LWPOLYLINE-10"><path class="cls-3" d="m563.06,180.8c-1.55,0-3.09-.26-4.55-.77-1.35-.47-2.6-1.19-3.7-2.11s-1.94-2.02-2.56-3.28c-.56-1.15-.85-2.4-.85-3.68,0-1.28.29-2.53.85-3.68.62-1.26,1.49-2.38,2.56-3.28s2.35-1.64,3.7-2.11c1.46-.51,3-.77,4.55-.77s3.09.26,4.55.77c.74.17,1.48.38,2.2.61"/></g><g id="LINE-26"><line class="cls-3" x1="570.32" y1="171.2" x2="570.32" y2="170.72"/></g><g id="LINE-27"><line class="cls-3" x1="570.32" y1="171.2" x2="569.81" y2="171.2"/></g><g id="LINE-28"><line class="cls-3" x1="570.32" y1="170.72" x2="569.81" y2="170.72"/></g><g id="LINE-29"><line class="cls-3" x1="565.11" y1="170.73" x2="565.09" y2="170.73"/></g><g id="LINE-30"><line class="cls-3" x1="565.11" y1="171.19" x2="565.09" y2="171.19"/></g><g id="LINE-31"><line class="cls-3" x1="569.81" y1="171.53" x2="565.12" y2="171.53"/></g><g id="LINE-32"><line class="cls-3" x1="569.81" y1="170.39" x2="565.12" y2="170.39"/></g><g id="LINE-33"><line class="cls-3" x1="569.81" y1="171.53" x2="565.09" y2="171.53"/></g><g id="LINE-34"><line class="cls-3" x1="569.81" y1="170.39" x2="565.12" y2="170.39"/></g><g id="LINE-35"><line class="cls-3" x1="564.21" y1="171.53" x2="561.31" y2="171.53"/></g><g id="LINE-36"><line class="cls-3" x1="564.21" y1="170.39" x2="561.31" y2="170.39"/></g><g id="LWPOLYLINE-11"><path class="cls-8" d="m560.32,171.64c-.37,0-.68-.3-.68-.68s.3-.68.68-.68.68.3.68.68-.3.68-.68.68Z"/></g><g id="CIRCLE"><circle class="cls-3" cx="560.32" cy="170.96" r="1.15"/></g><g id="LWPOLYLINE-12"><path class="cls-7" d="m564.67,171.46c-.27,0-.48-.22-.48-.48s.22-.48.48-.48.48.22.48.48-.22.48-.48.48Z"/></g><g id="LWPOLYLINE-13"><path class="cls-7" d="m564.67,170.47c-.27,0-.48.22-.48.48,0,.27.22.48.48.48s.48-.22.48-.48c0-.27-.22-.48-.48-.48Z"/></g><g id="CIRCLE-2"><circle class="cls-3" cx="564.67" cy="170.95" r=".72"/></g><g id="LWPOLYLINE-14"><path class="cls-3" d="m558.41,161.93c3.4,1.47,5.66,4.76,5.8,8.46"/></g><g id="LWPOLYLINE-15"><path class="cls-3" d="m569.81,179.42c-.72.24-1.46.44-2.2.61-1.46.51-3,.77-4.55.77"/></g><g id="ARC-10"><path class="cls-3" d="m569.81,176.13c-1.84,2.58-4.69,4.25-7.84,4.59"/></g><g id="LINE-37"><line class="cls-3" x1="569.81" y1="179.42" x2="569.81" y2="162.51"/></g><g id="ARC-11"><path class="cls-3" d="m564.21,171.53c-.14,3.7-2.4,6.99-5.8,8.46"/></g><g id="ARC-12"><path class="cls-3" d="m561.73,161.18c3.24.27,6.2,1.96,8.08,4.61"/></g><g id="LWPOLYLINE-16"><path class="cls-3" d="m561.76,177.59c-.75-.09-1.5-.27-2.21-.52-.99-.35-1.91-.87-2.71-1.55-.74-.62-1.34-1.4-1.77-2.26-.35-.71-.53-1.5-.53-2.3s.18-1.58.53-2.3c.43-.87,1.03-1.64,1.77-2.26.8-.68,1.72-1.2,2.71-1.55.72-.25,1.46-.42,2.21-.52"/></g><g id="LWPOLYLINE-17"><path class="cls-3" d="m563.06,140.87c-1.55,0-3.09-.26-4.55-.77-1.35-.47-2.6-1.19-3.7-2.11s-1.94-2.02-2.56-3.28c-.56-1.15-.85-2.4-.85-3.68,0-1.28.29-2.53.85-3.68.62-1.26,1.49-2.38,2.56-3.28s2.35-1.64,3.7-2.11c1.46-.51,3-.77,4.55-.77s3.09.26,4.55.77c.74.17,1.48.38,2.2.61"/></g><g id="LINE-38"><line class="cls-3" x1="570.32" y1="131.27" x2="570.32" y2="130.78"/></g><g id="LINE-39"><line class="cls-3" x1="570.32" y1="131.27" x2="569.81" y2="131.27"/></g><g id="LINE-40"><line class="cls-3" x1="570.32" y1="130.78" x2="569.81" y2="130.78"/></g><g id="LINE-41"><line class="cls-3" x1="565.11" y1="130.8" x2="565.09" y2="130.8"/></g><g id="LINE-42"><line class="cls-3" x1="565.11" y1="131.25" x2="565.09" y2="131.25"/></g><g id="LINE-43"><line class="cls-3" x1="569.81" y1="131.59" x2="565.12" y2="131.59"/></g><g id="LINE-44"><line class="cls-3" x1="569.81" y1="130.45" x2="565.12" y2="130.45"/></g><g id="LINE-45"><line class="cls-3" x1="569.81" y1="131.59" x2="565.09" y2="131.59"/></g><g id="LINE-46"><line class="cls-3" x1="569.81" y1="130.45" x2="565.12" y2="130.45"/></g><g id="LINE-47"><line class="cls-3" x1="564.21" y1="131.59" x2="561.31" y2="131.59"/></g><g id="LINE-48"><line class="cls-3" x1="564.21" y1="130.45" x2="561.31" y2="130.45"/></g><g id="LWPOLYLINE-18"><circle class="cls-8" cx="560.32" cy="131.02" r=".68"/></g><g id="CIRCLE-3"><circle class="cls-3" cx="560.32" cy="131.02" r="1.15"/></g><g id="LWPOLYLINE-19"><path class="cls-7" d="m564.67,131.52c-.27,0-.48-.22-.48-.48s.22-.48.48-.48.48.22.48.48-.22.48-.48.48Z"/></g><g id="LWPOLYLINE-20"><path class="cls-7" d="m564.67,130.53c-.27,0-.48.22-.48.48,0,.27.22.48.48.48s.48-.22.48-.48c0-.27-.22-.48-.48-.48Z"/></g><g id="CIRCLE-4"><circle class="cls-3" cx="564.67" cy="131.01" r=".72"/></g><g id="LWPOLYLINE-21"><path class="cls-3" d="m558.41,121.99c3.4,1.47,5.66,4.76,5.8,8.46"/></g><g id="LWPOLYLINE-22"><path class="cls-3" d="m569.81,139.48c-.72.24-1.46.44-2.2.61-1.46.51-3,.77-4.55.77"/></g><g id="ARC-13"><path class="cls-3" d="m569.81,136.19c-1.84,2.58-4.69,4.25-7.84,4.59"/></g><g id="LINE-49"><line class="cls-3" x1="569.81" y1="139.48" x2="569.81" y2="122.57"/></g><g id="ARC-14"><path class="cls-3" d="m564.21,131.59c-.14,3.7-2.4,6.99-5.8,8.46"/></g><g id="ARC-15"><path class="cls-3" d="m561.73,121.25c3.24.27,6.2,1.96,8.08,4.61"/></g><g id="LWPOLYLINE-23"><path class="cls-3" d="m561.76,137.65c-.75-.09-1.5-.27-2.21-.52-.99-.35-1.91-.87-2.71-1.55-.74-.62-1.34-1.4-1.77-2.26-.35-.71-.53-1.5-.53-2.3,0-.8.18-1.58.53-2.3.43-.87,1.03-1.64,1.77-2.26.8-.68,1.72-1.2,2.71-1.55.72-.25,1.46-.42,2.21-.52"/></g><g id="LWPOLYLINE-24"><path class="cls-3" d="m563.06,100.93c-1.55,0-3.09-.26-4.55-.77-1.35-.47-2.6-1.19-3.7-2.11s-1.94-2.02-2.56-3.28c-.56-1.15-.85-2.4-.85-3.68,0-1.28.29-2.53.85-3.68.62-1.26,1.49-2.38,2.56-3.28s2.35-1.64,3.7-2.11c1.46-.51,3-.77,4.55-.77s3.09.26,4.55.77c.74.17,1.48.38,2.2.61"/></g><g id="LINE-50"><line class="cls-3" x1="570.32" y1="91.33" x2="570.32" y2="90.84"/></g><g id="LINE-51"><line class="cls-3" x1="570.32" y1="91.33" x2="569.81" y2="91.33"/></g><g id="LINE-52"><line class="cls-3" x1="570.32" y1="90.84" x2="569.81" y2="90.84"/></g><g id="LINE-53"><line class="cls-3" x1="565.11" y1="90.86" x2="565.09" y2="90.86"/></g><g id="LINE-54"><line class="cls-3" x1="565.11" y1="91.31" x2="565.09" y2="91.31"/></g><g id="LINE-55"><line class="cls-3" x1="569.81" y1="91.66" x2="565.12" y2="91.66"/></g><g id="LINE-56"><line class="cls-3" x1="569.81" y1="90.52" x2="565.12" y2="90.52"/></g><g id="LINE-57"><line class="cls-3" x1="569.81" y1="91.66" x2="565.09" y2="91.66"/></g><g id="LINE-58"><line class="cls-3" x1="569.81" y1="90.52" x2="565.12" y2="90.52"/></g><g id="LINE-59"><line class="cls-3" x1="564.21" y1="91.66" x2="561.31" y2="91.66"/></g><g id="LINE-60"><line class="cls-3" x1="564.21" y1="90.52" x2="561.31" y2="90.52"/></g><g id="LWPOLYLINE-25"><circle class="cls-8" cx="560.32" cy="91.09" r=".68"/></g><g id="CIRCLE-5"><circle class="cls-3" cx="560.32" cy="91.09" r="1.15"/></g><g id="LWPOLYLINE-26"><path class="cls-7" d="m564.67,91.58c-.27,0-.48-.22-.48-.48s.22-.48.48-.48.48.22.48.48-.22.48-.48.48Z"/></g><g id="LWPOLYLINE-27"><path class="cls-7" d="m564.67,90.59c-.27,0-.48.22-.48.48,0,.27.22.48.48.48s.48-.22.48-.48c0-.27-.22-.48-.48-.48Z"/></g><g id="CIRCLE-6"><circle class="cls-3" cx="564.67" cy="91.08" r=".72"/></g><g id="LWPOLYLINE-28"><path class="cls-3" d="m558.41,82.05c3.4,1.47,5.66,4.76,5.8,8.46"/></g><g id="LWPOLYLINE-29"><path class="cls-3" d="m569.81,99.54c-.72.24-1.46.44-2.2.61-1.46.51-3,.77-4.55.77"/></g><g id="ARC-16"><path class="cls-3" d="m569.81,96.25c-1.84,2.58-4.69,4.25-7.84,4.59"/></g><g id="LINE-61"><line class="cls-3" x1="569.81" y1="99.54" x2="569.81" y2="82.63"/></g><g id="ARC-17"><path class="cls-3" d="m564.21,91.66c-.14,3.7-2.4,6.99-5.8,8.46"/></g><g id="ARC-18"><path class="cls-3" d="m561.73,81.31c3.24.27,6.2,1.96,8.08,4.61"/></g><g id="LWPOLYLINE-30"><path class="cls-3" d="m561.76,97.71c-.75-.09-1.5-.27-2.21-.52-.99-.35-1.91-.87-2.71-1.55-.74-.62-1.34-1.4-1.77-2.26-.35-.71-.53-1.5-.53-2.3s.18-1.58.53-2.3c.43-.87,1.03-1.64,1.77-2.26.8-.68,1.72-1.2,2.71-1.55.72-.25,1.46-.42,2.21-.52"/></g><g id="LINE-62"><line class="cls-3" x1="298.8" y1="156.7" x2="446.42" y2="156.7"/></g><g id="LWPOLYLINE-31"><polyline class="cls-3" points="569.81 150.9 535.58 150.9 535.58 152.04 569.81 152.04"/></g><g id="LWPOLYLINE-32"><polyline class="cls-3" points="569.81 110.96 535.58 110.96 535.58 112.1 569.81 112.1"/></g><g id="ARC-19"><path class="cls-3" d="m250.07,61.57c-1.38-1.09-3.17-1.53-4.9-1.21"/></g><g id="ARC-20"><path class="cls-3" d="m250.07,61.57c1.2,1,2.58,1.78,4.06,2.29"/></g><g id="ARC-21"><path class="cls-3" d="m254.14,63.86c1.61.56,3.31.84,5.01.84"/></g><g id="ARC-22"><path class="cls-3" d="m259.15,64.7c1.71,0,3.4-.28,5.01-.84"/></g><g id="ARC-23"><path class="cls-3" d="m264.16,63.86c1.48-.51,2.86-1.29,4.06-2.29"/></g><g id="ARC-24"><path class="cls-3" d="m268.23,61.57c1.18-.98,2.14-2.2,2.82-3.57"/></g><g id="ARC-25"><path class="cls-3" d="m271.05,57.99c.62-1.24.94-2.61.94-3.99"/></g><g id="ARC-26"><path class="cls-3" d="m271.99,54c0-1.39-.32-2.75-.94-3.99"/></g><g id="ARC-27"><path class="cls-3" d="m271.05,50.01c-.68-1.37-1.64-2.59-2.82-3.57"/></g><g id="ARC-28"><path class="cls-3" d="m268.23,46.44c-1.2-1-2.58-1.78-4.06-2.29"/></g><g id="ARC-29"><path class="cls-3" d="m264.16,44.14c-1.61-.56-3.31-.84-5.01-.84"/></g><g id="ARC-30"><path class="cls-3" d="m249.81,54.11c.07,1.94.81,3.8,2.09,5.27"/></g><g id="ARC-31"><path class="cls-3" d="m251.9,59.37c.94.78,2.01,1.39,3.17,1.79"/></g><g id="ARC-32"><path class="cls-3" d="m255.07,61.16c1.31.45,2.69.68,4.08.68"/></g><g id="ARC-33"><path class="cls-3" d="m259.15,61.85c1.39,0,2.77-.23,4.08-.68"/></g><g id="ARC-34"><path class="cls-3" d="m263.23,61.16c1.16-.4,2.23-1,3.17-1.79"/></g><g id="ARC-35"><path class="cls-3" d="m266.4,59.37c.87-.73,1.59-1.63,2.09-2.65"/></g><g id="ARC-36"><path class="cls-3" d="m268.5,56.72c.42-.85.64-1.78.64-2.72"/></g><g id="ARC-37"><path class="cls-3" d="m251.9,48.63c-1.28,1.46-2.02,3.32-2.09,5.27"/></g><g id="ARC-38"><path class="cls-3" d="m255.07,46.84c-1.16.4-2.23,1-3.17,1.79"/></g><g id="ARC-39"><path class="cls-3" d="m259.15,46.16c-1.39,0-2.77.23-4.08.68"/></g><g id="ARC-40"><path class="cls-3" d="m263.23,46.84c-1.31-.45-2.69-.68-4.08-.68"/></g><g id="ARC-41"><path class="cls-3" d="m266.4,48.63c-.94-.78-2.01-1.39-3.17-1.79"/></g><g id="ARC-42"><path class="cls-3" d="m268.5,51.28c-.51-1.02-1.22-1.92-2.09-2.65"/></g><g id="ARC-43"><path class="cls-3" d="m269.14,54c0-.94-.22-1.88-.64-2.72"/></g><g id="LINE-63"><line class="cls-3" x1="233.19" y1="67.12" x2="233.19" y2="40.88"/></g><g id="LINE-64"><line class="cls-3" x1="245.17" y1="67.12" x2="245.17" y2="40.88"/></g><g id="ARC-44"><path class="cls-3" d="m233.19,67.12c0,1.26,1.02,2.28,2.28,2.28"/></g><g id="ARC-45"><path class="cls-3" d="m242.89,69.41c1.26,0,2.28-1.02,2.28-2.28"/></g><g id="LINE-65"><line class="cls-3" x1="235.47" y1="69.41" x2="242.89" y2="69.41"/></g><g id="CIRCLE-7"><circle class="cls-3" cx="246.31" cy="58" r=".57"/></g><g id="LINE-66"><line class="cls-3" x1="245.17" y1="60.36" x2="245.17" y2="60.36"/></g><g id="LINE-67"><line class="cls-3" x1="252.46" y1="55.14" x2="252.46" y2="52.86"/></g><g id="LINE-68"><line class="cls-3" x1="255.86" y1="54.6" x2="255.86" y2="53.4"/></g><g id="LINE-69"><line class="cls-3" x1="252.46" y1="55.14" x2="255.2" y2="55.14"/></g><g id="LINE-70"><line class="cls-3" x1="255.4" y1="55.06" x2="255.86" y2="54.6"/></g><g id="ARC-46"><path class="cls-3" d="m255.2,55.14c.08,0,.15-.03.2-.08"/></g><g id="LINE-71"><line class="cls-3" x1="252.46" y1="52.86" x2="255.2" y2="52.86"/></g><g id="LINE-72"><line class="cls-3" x1="255.86" y1="53.4" x2="255.4" y2="52.94"/></g><g id="ARC-47"><path class="cls-3" d="m255.4,52.94c-.05-.05-.13-.08-.2-.08"/></g><g id="CIRCLE-8"><circle class="cls-3" cx="246.31" cy="50.01" r=".57"/></g><g id="LINE-73"><line class="cls-3" x1="235.47" y1="38.6" x2="242.89" y2="38.6"/></g><g id="ARC-48"><path class="cls-3" d="m235.47,38.6c-1.26,0-2.28,1.02-2.28,2.28"/></g><g id="ARC-49"><path class="cls-3" d="m245.17,40.88c0-1.26-1.02-2.28-2.28-2.28"/></g><g id="ARC-50"><path class="cls-3" d="m259.15,43.3c-1.71,0-3.4.28-5.01.84"/></g><g id="ARC-51"><path class="cls-3" d="m254.14,44.14c-1.48.51-2.86,1.29-4.06,2.29"/></g><g id="ARC-52"><path class="cls-3" d="m245.17,47.64c1.72.12,3.43-.3,4.9-1.21"/></g><g id="LWPOLYLINE-33"><polyline class="cls-3" points="233.19 38.6 245.17 38.6 245.17 69.41 233.19 69.41"/></g><g id="ARC-53"><path class="cls-3" d="m341.36,61.57c-1.38-1.09-3.17-1.53-4.9-1.21"/></g><g id="ARC-54"><path class="cls-3" d="m341.36,61.57c1.2,1,2.58,1.78,4.06,2.29"/></g><g id="ARC-55"><path class="cls-3" d="m345.42,63.86c1.61.56,3.31.84,5.01.84"/></g><g id="ARC-56"><path class="cls-3" d="m350.44,64.7c1.71,0,3.4-.28,5.01-.84"/></g><g id="ARC-57"><path class="cls-3" d="m355.45,63.86c1.48-.51,2.86-1.29,4.06-2.29"/></g><g id="ARC-58"><path class="cls-3" d="m359.51,61.57c1.18-.98,2.14-2.2,2.82-3.57"/></g><g id="ARC-59"><path class="cls-3" d="m362.34,57.99c.62-1.24.94-2.61.94-3.99"/></g><g id="ARC-60"><path class="cls-3" d="m363.27,54c0-1.39-.32-2.75-.94-3.99"/></g><g id="ARC-61"><path class="cls-3" d="m362.34,50.01c-.68-1.37-1.64-2.59-2.82-3.57"/></g><g id="ARC-62"><path class="cls-3" d="m359.51,46.44c-1.2-1-2.58-1.78-4.06-2.29"/></g><g id="ARC-63"><path class="cls-3" d="m355.45,44.14c-1.61-.56-3.31-.84-5.01-.84"/></g><g id="ARC-64"><path class="cls-3" d="m341.1,54.11c.07,1.94.81,3.8,2.09,5.27"/></g><g id="ARC-65"><path class="cls-3" d="m343.19,59.37c.94.78,2.01,1.39,3.17,1.79"/></g><g id="ARC-66"><path class="cls-3" d="m346.36,61.16c1.31.45,2.69.68,4.08.68"/></g><g id="ARC-67"><path class="cls-3" d="m350.44,61.85c1.39,0,2.77-.23,4.08-.68"/></g><g id="ARC-68"><path class="cls-3" d="m354.52,61.16c1.16-.4,2.23-1,3.17-1.79"/></g><g id="ARC-69"><path class="cls-3" d="m357.69,59.37c.87-.73,1.59-1.63,2.09-2.65"/></g><g id="ARC-70"><path class="cls-3" d="m359.78,56.72c.42-.85.64-1.78.64-2.72"/></g><g id="ARC-71"><path class="cls-3" d="m343.19,48.63c-1.28,1.46-2.02,3.32-2.09,5.27"/></g><g id="ARC-72"><path class="cls-3" d="m346.36,46.84c-1.16.4-2.23,1-3.17,1.79"/></g><g id="ARC-73"><path class="cls-3" d="m350.44,46.16c-1.39,0-2.77.23-4.08.68"/></g><g id="ARC-74"><path class="cls-3" d="m354.52,46.84c-1.31-.45-2.69-.68-4.08-.68"/></g><g id="ARC-75"><path class="cls-3" d="m357.69,48.63c-.94-.78-2.01-1.39-3.17-1.79"/></g><g id="ARC-76"><path class="cls-3" d="m359.78,51.28c-.51-1.02-1.22-1.92-2.09-2.65"/></g><g id="ARC-77"><path class="cls-3" d="m360.42,54c0-.94-.22-1.88-.64-2.72"/></g><g id="LINE-74"><line class="cls-3" x1="324.48" y1="67.12" x2="324.48" y2="40.88"/></g><g id="LINE-75"><line class="cls-3" x1="336.46" y1="67.12" x2="336.46" y2="40.88"/></g><g id="ARC-78"><path class="cls-3" d="m324.48,67.12c0,1.26,1.02,2.28,2.28,2.28"/></g><g id="ARC-79"><path class="cls-3" d="m334.18,69.41c1.26,0,2.28-1.02,2.28-2.28"/></g><g id="LINE-76"><line class="cls-3" x1="326.76" y1="69.41" x2="334.18" y2="69.41"/></g><g id="CIRCLE-9"><circle class="cls-3" cx="337.6" cy="58" r=".57"/></g><g id="LINE-77"><line class="cls-3" x1="336.46" y1="60.36" x2="336.46" y2="60.36"/></g><g id="LINE-78"><line class="cls-3" x1="343.75" y1="55.14" x2="343.75" y2="52.86"/></g><g id="LINE-79"><line class="cls-3" x1="347.15" y1="54.6" x2="347.15" y2="53.4"/></g><g id="LINE-80"><line class="cls-3" x1="343.75" y1="55.14" x2="346.49" y2="55.14"/></g><g id="LINE-81"><line class="cls-3" x1="346.69" y1="55.06" x2="347.15" y2="54.6"/></g><g id="ARC-80"><path class="cls-3" d="m346.49,55.14c.08,0,.15-.03.2-.08"/></g><g id="LINE-82"><line class="cls-3" x1="343.75" y1="52.86" x2="346.49" y2="52.86"/></g><g id="LINE-83"><line class="cls-3" x1="347.15" y1="53.4" x2="346.69" y2="52.94"/></g><g id="ARC-81"><path class="cls-3" d="m346.69,52.94c-.05-.05-.13-.08-.2-.08"/></g><g id="CIRCLE-10"><circle class="cls-3" cx="337.6" cy="50.01" r=".57"/></g><g id="LINE-84"><line class="cls-3" x1="326.76" y1="38.6" x2="334.18" y2="38.6"/></g><g id="ARC-82"><path class="cls-3" d="m326.76,38.6c-1.26,0-2.28,1.02-2.28,2.28"/></g><g id="ARC-83"><path class="cls-3" d="m336.46,40.88c0-1.26-1.02-2.28-2.28-2.28"/></g><g id="ARC-84"><path class="cls-3" d="m350.44,43.3c-1.71,0-3.4.28-5.01.84"/></g><g id="ARC-85"><path class="cls-3" d="m345.42,44.14c-1.48.51-2.86,1.29-4.06,2.29"/></g><g id="ARC-86"><path class="cls-3" d="m336.46,47.64c1.72.12,3.43-.3,4.9-1.21"/></g><g id="ARC-87"><path class="cls-3" d="m474.48,61.57c1.38-1.09,3.17-1.53,4.9-1.21"/></g><g id="ARC-88"><path class="cls-3" d="m474.48,61.57c-1.2,1-2.58,1.78-4.06,2.29"/></g><g id="ARC-89"><path class="cls-3" d="m470.41,63.86c-1.61.56-3.31.84-5.01.84"/></g><g id="ARC-90"><path class="cls-3" d="m465.4,64.7c-1.71,0-3.4-.28-5.01-.84"/></g><g id="ARC-91"><path class="cls-3" d="m460.39,63.86c-1.48-.51-2.86-1.29-4.06-2.29"/></g><g id="ARC-92"><path class="cls-3" d="m456.32,61.57c-1.18-.98-2.14-2.2-2.82-3.57"/></g><g id="ARC-93"><path class="cls-3" d="m453.5,57.99c-.62-1.24-.94-2.61-.94-3.99"/></g><g id="ARC-94"><path class="cls-3" d="m452.56,54c0-1.39.32-2.75.94-3.99"/></g><g id="ARC-95"><path class="cls-3" d="m453.5,50.01c.68-1.37,1.64-2.59,2.82-3.57"/></g><g id="ARC-96"><path class="cls-3" d="m456.32,46.44c1.2-1,2.58-1.78,4.06-2.29"/></g><g id="ARC-97"><path class="cls-3" d="m460.39,44.14c1.61-.56,3.31-.84,5.01-.84"/></g><g id="ARC-98"><path class="cls-3" d="m474.74,54.11c-.07,1.94-.81,3.8-2.09,5.27"/></g><g id="ARC-99"><path class="cls-3" d="m472.65,59.37c-.94.78-2.01,1.39-3.17,1.79"/></g><g id="ARC-100"><path class="cls-3" d="m469.48,61.16c-1.31.45-2.69.68-4.08.68"/></g><g id="ARC-101"><path class="cls-3" d="m465.4,61.85c-1.39,0-2.77-.23-4.08-.68"/></g><g id="ARC-102"><path class="cls-3" d="m461.32,61.16c-1.16-.4-2.23-1-3.17-1.79"/></g><g id="ARC-103"><path class="cls-3" d="m458.15,59.37c-.87-.73-1.59-1.63-2.09-2.65"/></g><g id="ARC-104"><path class="cls-3" d="m456.06,56.72c-.42-.85-.64-1.78-.64-2.72"/></g><g id="ARC-105"><path class="cls-3" d="m472.65,48.63c1.28,1.46,2.02,3.32,2.09,5.27"/></g><g id="ARC-106"><path class="cls-3" d="m469.48,46.84c1.16.4,2.23,1,3.17,1.79"/></g><g id="ARC-107"><path class="cls-3" d="m465.4,46.16c1.39,0,2.77.23,4.08.68"/></g><g id="ARC-108"><path class="cls-3" d="m461.32,46.84c1.31-.45,2.69-.68,4.08-.68"/></g><g id="ARC-109"><path class="cls-3" d="m458.15,48.63c.94-.78,2.01-1.39,3.17-1.79"/></g><g id="ARC-110"><path class="cls-3" d="m456.06,51.28c.51-1.02,1.22-1.92,2.09-2.65"/></g><g id="ARC-111"><path class="cls-3" d="m455.42,54c0-.94.22-1.88.64-2.72"/></g><g id="LINE-85"><line class="cls-3" x1="491.36" y1="67.12" x2="491.36" y2="40.88"/></g><g id="LINE-86"><line class="cls-3" x1="479.38" y1="67.12" x2="479.38" y2="40.88"/></g><g id="ARC-112"><path class="cls-3" d="m491.36,67.12c0,1.26-1.02,2.28-2.28,2.28"/></g><g id="ARC-113"><path class="cls-3" d="m481.66,69.41c-1.26,0-2.28-1.02-2.28-2.28"/></g><g id="LINE-87"><line class="cls-3" x1="489.08" y1="69.41" x2="481.66" y2="69.41"/></g><g id="CIRCLE-11"><circle class="cls-3" cx="478.24" cy="58" r=".57"/></g><g id="LINE-88"><line class="cls-3" x1="479.38" y1="60.36" x2="479.38" y2="60.36"/></g><g id="LINE-89"><line class="cls-3" x1="472.09" y1="55.14" x2="472.09" y2="52.86"/></g><g id="LINE-90"><line class="cls-3" x1="468.69" y1="54.6" x2="468.69" y2="53.4"/></g><g id="LINE-91"><line class="cls-3" x1="472.09" y1="55.14" x2="469.35" y2="55.14"/></g><g id="LINE-92"><line class="cls-3" x1="469.15" y1="55.06" x2="468.69" y2="54.6"/></g><g id="ARC-114"><path class="cls-3" d="m469.35,55.14c-.08,0-.15-.03-.2-.08"/></g><g id="LINE-93"><line class="cls-3" x1="472.09" y1="52.86" x2="469.35" y2="52.86"/></g><g id="LINE-94"><line class="cls-3" x1="468.69" y1="53.4" x2="469.15" y2="52.94"/></g><g id="ARC-115"><path class="cls-3" d="m469.15,52.94c.05-.05.13-.08.2-.08"/></g><g id="CIRCLE-12"><circle class="cls-3" cx="478.24" cy="50.01" r=".57"/></g><g id="LINE-95"><line class="cls-3" x1="489.08" y1="38.6" x2="481.66" y2="38.6"/></g><g id="ARC-116"><path class="cls-3" d="m489.08,38.6c1.26,0,2.28,1.02,2.28,2.28"/></g><g id="ARC-117"><path class="cls-3" d="m479.38,40.88c0-1.26,1.02-2.28,2.28-2.28"/></g><g id="ARC-118"><path class="cls-3" d="m465.4,43.3c1.71,0,3.4.28,5.01.84"/></g><g id="ARC-119"><path class="cls-3" d="m470.41,44.14c1.48.51,2.86,1.29,4.06,2.29"/></g><g id="ARC-120"><path class="cls-3" d="m479.38,47.64c-1.72.12-3.43-.3-4.9-1.21"/></g><g id="LWPOLYLINE-34"><polyline class="cls-3" points="324.48 38.6 336.46 38.6 336.46 69.41 324.48 69.41"/></g><g id="LWPOLYLINE-35"><polyline class="cls-3" points="491.36 38.6 479.38 38.6 479.38 69.41 491.36 69.41"/></g><g id="ARC-121"><path class="cls-3" d="m46.77,45.21c-1.09-1.38-1.53-3.17-1.21-4.9"/></g><g id="ARC-122"><path class="cls-3" d="m46.77,45.21c1,1.2,1.78,2.58,2.29,4.06"/></g><g id="ARC-123"><path class="cls-3" d="m49.07,49.27c.56,1.61.84,3.31.84,5.01"/></g><g id="ARC-124"><path class="cls-3" d="m49.91,54.29c0,1.71-.28,3.4-.84,5.01"/></g><g id="ARC-125"><path class="cls-3" d="m49.07,59.3c-.51,1.48-1.29,2.86-2.29,4.06"/></g><g id="ARC-126"><path class="cls-3" d="m46.77,63.36c-.98,1.18-2.2,2.14-3.57,2.82"/></g><g id="ARC-127"><path class="cls-3" d="m43.2,66.19c-1.24.62-2.61.94-3.99.94"/></g><g id="ARC-128"><path class="cls-3" d="m39.21,67.12c-1.39,0-2.75-.32-3.99-.94"/></g><g id="ARC-129"><path class="cls-3" d="m35.22,66.19c-1.37-.68-2.59-1.64-3.57-2.82"/></g><g id="ARC-130"><path class="cls-3" d="m31.64,63.36c-1-1.2-1.78-2.58-2.29-4.06"/></g><g id="ARC-131"><path class="cls-3" d="m29.35,59.3c-.56-1.61-.84-3.31-.84-5.01"/></g><g id="ARC-132"><path class="cls-3" d="m39.31,44.94c1.94.07,3.8.81,5.27,2.09"/></g><g id="ARC-133"><path class="cls-3" d="m44.58,47.04c.78.94,1.39,2.01,1.79,3.17"/></g><g id="ARC-134"><path class="cls-3" d="m46.37,50.2c.45,1.31.68,2.69.68,4.08"/></g><g id="ARC-135"><path class="cls-3" d="m47.05,54.29c0,1.39-.23,2.77-.68,4.08"/></g><g id="ARC-136"><path class="cls-3" d="m46.37,58.37c-.4,1.16-1,2.23-1.79,3.17"/></g><g id="ARC-137"><path class="cls-3" d="m44.58,61.54c-.73.87-1.63,1.59-2.65,2.09"/></g><g id="ARC-138"><path class="cls-3" d="m41.93,63.63c-.85.42-1.78.64-2.72.64"/></g><g id="ARC-139"><path class="cls-3" d="m33.84,47.04c1.46-1.28,3.32-2.02,5.27-2.09"/></g><g id="ARC-140"><path class="cls-3" d="m32.05,50.2c.4-1.16,1-2.23,1.79-3.17"/></g><g id="ARC-141"><path class="cls-3" d="m31.36,54.29c0-1.39.23-2.77.68-4.08"/></g><g id="ARC-142"><path class="cls-3" d="m32.05,58.37c-.45-1.31-.68-2.69-.68-4.08"/></g><g id="ARC-143"><path class="cls-3" d="m33.84,61.54c-.78-.94-1.39-2.01-1.79-3.17"/></g><g id="ARC-144"><path class="cls-3" d="m36.49,63.63c-1.02-.51-1.92-1.22-2.65-2.09"/></g><g id="ARC-145"><path class="cls-3" d="m39.21,64.27c-.94,0-1.88-.22-2.72-.64"/></g><g id="LINE-96"><line class="cls-3" x1="52.33" y1="28.33" x2="26.09" y2="28.33"/></g><g id="LINE-97"><line class="cls-3" x1="52.33" y1="40.31" x2="26.09" y2="40.31"/></g><g id="ARC-146"><path class="cls-3" d="m52.33,28.33c1.26,0,2.28,1.02,2.28,2.28"/></g><g id="ARC-147"><path class="cls-3" d="m54.61,38.03c0,1.26-1.02,2.28-2.28,2.28"/></g><g id="LINE-98"><line class="cls-3" x1="54.61" y1="30.61" x2="54.61" y2="38.03"/></g><g id="CIRCLE-13"><circle class="cls-3" cx="43.2" cy="41.45" r=".57"/></g><g id="LINE-99"><line class="cls-3" x1="45.57" y1="40.31" x2="45.57" y2="40.31"/></g><g id="LINE-100"><line class="cls-3" x1="40.35" y1="47.6" x2="38.07" y2="47.6"/></g><g id="LINE-101"><line class="cls-3" x1="39.81" y1="50.99" x2="38.61" y2="50.99"/></g><g id="LINE-102"><line class="cls-3" x1="40.35" y1="47.6" x2="40.35" y2="50.33"/></g><g id="LINE-103"><line class="cls-3" x1="40.27" y1="50.54" x2="39.81" y2="50.99"/></g><g id="ARC-148"><path class="cls-3" d="m40.35,50.33c0,.08-.03.15-.08.2"/></g><g id="LINE-104"><line class="cls-3" x1="38.07" y1="47.6" x2="38.07" y2="50.33"/></g><g id="LINE-105"><line class="cls-3" x1="38.61" y1="50.99" x2="38.15" y2="50.54"/></g><g id="ARC-149"><path class="cls-3" d="m38.15,50.54c-.05-.05-.08-.13-.08-.2"/></g><g id="CIRCLE-14"><circle class="cls-3" cx="35.22" cy="41.45" r=".57"/></g><g id="LINE-106"><line class="cls-3" x1="23.8" y1="30.61" x2="23.8" y2="38.03"/></g><g id="ARC-150"><path class="cls-3" d="m23.8,30.61c0-1.26,1.02-2.28,2.28-2.28"/></g><g id="ARC-151"><path class="cls-3" d="m26.09,40.31c-1.26,0-2.28-1.02-2.28-2.28"/></g><g id="ARC-152"><path class="cls-3" d="m28.51,54.29c0-1.71.28-3.4.84-5.01"/></g><g id="ARC-153"><path class="cls-3" d="m29.35,49.27c.51-1.48,1.29-2.86,2.29-4.06"/></g><g id="ARC-154"><path class="cls-3" d="m32.85,40.31c.12,1.72-.3,3.43-1.21,4.9"/></g><g id="ARC-155"><path class="cls-3" d="m98.12,45.21c-1.09-1.38-1.53-3.17-1.21-4.9"/></g><g id="ARC-156"><path class="cls-3" d="m98.12,45.21c1,1.2,1.78,2.58,2.29,4.06"/></g><g id="ARC-157"><path class="cls-3" d="m100.41,49.27c.56,1.61.84,3.31.84,5.01"/></g><g id="ARC-158"><path class="cls-3" d="m101.25,54.29c0,1.71-.28,3.4-.84,5.01"/></g><g id="ARC-159"><path class="cls-3" d="m100.41,59.3c-.51,1.48-1.29,2.86-2.29,4.06"/></g><g id="ARC-160"><path class="cls-3" d="m98.12,63.36c-.98,1.18-2.2,2.14-3.57,2.82"/></g><g id="ARC-161"><path class="cls-3" d="m94.55,66.19c-1.24.62-2.61.94-3.99.94"/></g><g id="ARC-162"><path class="cls-3" d="m90.56,67.12c-1.39,0-2.75-.32-3.99-.94"/></g><g id="ARC-163"><path class="cls-3" d="m86.57,66.19c-1.37-.68-2.59-1.64-3.57-2.82"/></g><g id="ARC-164"><path class="cls-3" d="m82.99,63.36c-1-1.2-1.78-2.58-2.29-4.06"/></g><g id="ARC-165"><path class="cls-3" d="m80.7,59.3c-.56-1.61-.84-3.31-.84-5.01"/></g><g id="ARC-166"><path class="cls-3" d="m90.66,44.94c1.94.07,3.8.81,5.27,2.09"/></g><g id="ARC-167"><path class="cls-3" d="m95.93,47.04c.78.94,1.39,2.01,1.79,3.17"/></g><g id="ARC-168"><path class="cls-3" d="m97.72,50.2c.45,1.31.68,2.69.68,4.08"/></g><g id="ARC-169"><path class="cls-3" d="m98.4,54.29c0,1.39-.23,2.77-.68,4.08"/></g><g id="ARC-170"><path class="cls-3" d="m97.72,58.37c-.4,1.16-1,2.23-1.79,3.17"/></g><g id="ARC-171"><path class="cls-3" d="m95.93,61.54c-.73.87-1.63,1.59-2.65,2.09"/></g><g id="ARC-172"><path class="cls-3" d="m93.28,63.63c-.85.42-1.78.64-2.72.64"/></g><g id="ARC-173"><path class="cls-3" d="m85.18,47.04c1.46-1.28,3.32-2.02,5.27-2.09"/></g><g id="ARC-174"><path class="cls-3" d="m83.4,50.2c.4-1.16,1-2.23,1.79-3.17"/></g><g id="ARC-175"><path class="cls-3" d="m82.71,54.29c0-1.39.23-2.77.68-4.08"/></g><g id="ARC-176"><path class="cls-3" d="m83.4,58.37c-.45-1.31-.68-2.69-.68-4.08"/></g><g id="ARC-177"><path class="cls-3" d="m85.18,61.54c-.78-.94-1.39-2.01-1.79-3.17"/></g><g id="ARC-178"><path class="cls-3" d="m87.84,63.63c-1.02-.51-1.92-1.22-2.65-2.09"/></g><g id="ARC-179"><path class="cls-3" d="m90.56,64.27c-.94,0-1.88-.22-2.72-.64"/></g><g id="LINE-107"><line class="cls-3" x1="103.68" y1="28.33" x2="77.43" y2="28.33"/></g><g id="LINE-108"><line class="cls-3" x1="103.68" y1="40.31" x2="77.43" y2="40.31"/></g><g id="ARC-180"><path class="cls-3" d="m103.68,28.33c1.26,0,2.28,1.02,2.28,2.28"/></g><g id="ARC-181"><path class="cls-3" d="m105.96,38.03c0,1.26-1.02,2.28-2.28,2.28"/></g><g id="LINE-109"><line class="cls-3" x1="105.96" y1="30.61" x2="105.96" y2="38.03"/></g><g id="CIRCLE-15"><circle class="cls-3" cx="94.55" cy="41.45" r=".57"/></g><g id="LINE-110"><line class="cls-3" x1="96.92" y1="40.31" x2="96.92" y2="40.31"/></g><g id="LINE-111"><line class="cls-3" x1="91.7" y1="47.6" x2="89.42" y2="47.6"/></g><g id="LINE-112"><line class="cls-3" x1="91.16" y1="50.99" x2="89.96" y2="50.99"/></g><g id="LINE-113"><line class="cls-3" x1="91.7" y1="47.6" x2="91.7" y2="50.33"/></g><g id="LINE-114"><line class="cls-3" x1="91.61" y1="50.54" x2="91.16" y2="50.99"/></g><g id="ARC-182"><path class="cls-3" d="m91.7,50.33c0,.08-.03.15-.08.2"/></g><g id="LINE-115"><line class="cls-3" x1="89.42" y1="47.6" x2="89.42" y2="50.33"/></g><g id="LINE-116"><line class="cls-3" x1="89.96" y1="50.99" x2="89.5" y2="50.54"/></g><g id="ARC-183"><path class="cls-3" d="m89.5,50.54c-.05-.05-.08-.13-.08-.2"/></g><g id="CIRCLE-16"><circle class="cls-3" cx="86.56" cy="41.45" r=".57"/></g><g id="LINE-117"><line class="cls-3" x1="75.15" y1="30.61" x2="75.15" y2="38.03"/></g><g id="ARC-184"><path class="cls-3" d="m75.15,30.61c0-1.26,1.02-2.28,2.28-2.28"/></g><g id="ARC-185"><path class="cls-3" d="m77.43,40.31c-1.26,0-2.28-1.02-2.28-2.28"/></g><g id="ARC-186"><path class="cls-3" d="m79.86,54.29c0-1.71.28-3.4.84-5.01"/></g><g id="ARC-187"><path class="cls-3" d="m80.7,49.27c.51-1.48,1.29-2.86,2.29-4.06"/></g><g id="ARC-188"><path class="cls-3" d="m84.2,40.31c.12,1.72-.3,3.43-1.21,4.9"/></g><g id="ARC-189"><path class="cls-3" d="m149.47,45.21c-1.09-1.38-1.53-3.17-1.21-4.9"/></g><g id="ARC-190"><path class="cls-3" d="m149.47,45.21c1,1.2,1.78,2.58,2.29,4.06"/></g><g id="ARC-191"><path class="cls-3" d="m151.76,49.27c.56,1.61.84,3.31.84,5.01"/></g><g id="ARC-192"><path class="cls-3" d="m152.6,54.29c0,1.71-.28,3.4-.84,5.01"/></g><g id="ARC-193"><path class="cls-3" d="m151.76,59.3c-.51,1.48-1.29,2.86-2.29,4.06"/></g><g id="ARC-194"><path class="cls-3" d="m149.47,63.36c-.98,1.18-2.2,2.14-3.57,2.82"/></g><g id="ARC-195"><path class="cls-3" d="m145.9,66.19c-1.24.62-2.61.94-3.99.94"/></g><g id="ARC-196"><path class="cls-3" d="m141.91,67.12c-1.39,0-2.75-.32-3.99-.94"/></g><g id="ARC-197"><path class="cls-3" d="m137.91,66.19c-1.37-.68-2.59-1.64-3.57-2.82"/></g><g id="ARC-198"><path class="cls-3" d="m134.34,63.36c-1-1.2-1.78-2.58-2.29-4.06"/></g><g id="ARC-199"><path class="cls-3" d="m132.05,59.3c-.56-1.61-.84-3.31-.84-5.01"/></g><g id="ARC-200"><path class="cls-3" d="m142.01,44.94c1.94.07,3.8.81,5.27,2.09"/></g><g id="ARC-201"><path class="cls-3" d="m147.28,47.04c.78.94,1.39,2.01,1.79,3.17"/></g><g id="ARC-202"><path class="cls-3" d="m149.07,50.2c.45,1.31.68,2.69.68,4.08"/></g><g id="ARC-203"><path class="cls-3" d="m149.75,54.29c0,1.39-.23,2.77-.68,4.08"/></g><g id="ARC-204"><path class="cls-3" d="m149.07,58.37c-.4,1.16-1,2.23-1.79,3.17"/></g><g id="ARC-205"><path class="cls-3" d="m147.28,61.54c-.73.87-1.63,1.59-2.65,2.09"/></g><g id="ARC-206"><path class="cls-3" d="m144.63,63.63c-.85.42-1.78.64-2.72.64"/></g><g id="ARC-207"><path class="cls-3" d="m136.53,47.04c1.46-1.28,3.32-2.02,5.27-2.09"/></g><g id="ARC-208"><path class="cls-3" d="m134.75,50.2c.4-1.16,1-2.23,1.79-3.17"/></g><g id="ARC-209"><path class="cls-3" d="m134.06,54.29c0-1.39.23-2.77.68-4.08"/></g><g id="ARC-210"><path class="cls-3" d="m134.75,58.37c-.45-1.31-.68-2.69-.68-4.08"/></g><g id="ARC-211"><path class="cls-3" d="m136.53,61.54c-.78-.94-1.39-2.01-1.79-3.17"/></g><g id="ARC-212"><path class="cls-3" d="m139.18,63.63c-1.02-.51-1.92-1.22-2.65-2.09"/></g><g id="ARC-213"><path class="cls-3" d="m141.91,64.27c-.94,0-1.88-.22-2.72-.64"/></g><g id="LINE-118"><line class="cls-3" x1="155.03" y1="28.33" x2="128.78" y2="28.33"/></g><g id="LINE-119"><line class="cls-3" x1="155.03" y1="40.31" x2="128.78" y2="40.31"/></g><g id="ARC-214"><path class="cls-3" d="m155.03,28.33c1.26,0,2.28,1.02,2.28,2.28"/></g><g id="ARC-215"><path class="cls-3" d="m157.31,38.03c0,1.26-1.02,2.28-2.28,2.28"/></g><g id="LINE-120"><line class="cls-3" x1="157.31" y1="30.61" x2="157.31" y2="38.03"/></g><g id="CIRCLE-17"><circle class="cls-3" cx="145.9" cy="41.45" r=".57"/></g><g id="LINE-121"><line class="cls-3" x1="148.26" y1="40.31" x2="148.26" y2="40.31"/></g><g id="LINE-122"><line class="cls-3" x1="143.05" y1="47.6" x2="140.76" y2="47.6"/></g><g id="LINE-123"><line class="cls-3" x1="142.51" y1="50.99" x2="141.31" y2="50.99"/></g><g id="LINE-124"><line class="cls-3" x1="143.05" y1="47.6" x2="143.05" y2="50.33"/></g><g id="LINE-125"><line class="cls-3" x1="142.96" y1="50.54" x2="142.51" y2="50.99"/></g><g id="ARC-216"><path class="cls-3" d="m143.05,50.33c0,.08-.03.15-.08.2"/></g><g id="LINE-126"><line class="cls-3" x1="140.76" y1="47.6" x2="140.76" y2="50.33"/></g><g id="LINE-127"><line class="cls-3" x1="141.31" y1="50.99" x2="140.85" y2="50.54"/></g><g id="ARC-217"><path class="cls-3" d="m140.85,50.54c-.05-.05-.08-.13-.08-.2"/></g><g id="CIRCLE-18"><circle class="cls-3" cx="137.91" cy="41.45" r=".57"/></g><g id="LINE-128"><line class="cls-3" x1="126.5" y1="30.61" x2="126.5" y2="38.03"/></g><g id="ARC-218"><path class="cls-3" d="m126.5,30.61c0-1.26,1.02-2.28,2.28-2.28"/></g><g id="ARC-219"><path class="cls-3" d="m128.78,40.31c-1.26,0-2.28-1.02-2.28-2.28"/></g><g id="ARC-220"><path class="cls-3" d="m131.21,54.29c0-1.71.28-3.4.84-5.01"/></g><g id="ARC-221"><path class="cls-3" d="m132.05,49.27c.51-1.48,1.29-2.86,2.29-4.06"/></g><g id="ARC-222"><path class="cls-3" d="m135.55,40.31c.12,1.72-.3,3.43-1.21,4.9"/></g><g id="LINE-129"><line class="cls-3" x1="126.5" y1="40.31" x2="157.31" y2="40.31"/></g><g id="LINE-130"><line class="cls-3" x1="126.5" y1="40.31" x2="126.5" y2="28.33"/></g><g id="LINE-131"><line class="cls-3" x1="157.31" y1="40.31" x2="157.31" y2="28.33"/></g><g id="ARC-223"><path class="cls-3" d="m200.82,45.21c-1.09-1.38-1.53-3.17-1.21-4.9"/></g><g id="ARC-224"><path class="cls-3" d="m200.82,45.21c1,1.2,1.78,2.58,2.29,4.06"/></g><g id="ARC-225"><path class="cls-3" d="m203.11,49.27c.56,1.61.84,3.31.84,5.01"/></g><g id="ARC-226"><path class="cls-3" d="m203.95,54.29c0,1.71-.28,3.4-.84,5.01"/></g><g id="ARC-227"><path class="cls-3" d="m203.11,59.3c-.51,1.48-1.29,2.86-2.29,4.06"/></g><g id="ARC-228"><path class="cls-3" d="m200.82,63.36c-.98,1.18-2.2,2.14-3.57,2.82"/></g><g id="ARC-229"><path class="cls-3" d="m197.25,66.19c-1.24.62-2.61.94-3.99.94"/></g><g id="ARC-230"><path class="cls-3" d="m193.25,67.12c-1.39,0-2.75-.32-3.99-.94"/></g><g id="ARC-231"><path class="cls-3" d="m189.26,66.19c-1.37-.68-2.59-1.64-3.57-2.82"/></g><g id="ARC-232"><path class="cls-3" d="m185.69,63.36c-1-1.2-1.78-2.58-2.29-4.06"/></g><g id="ARC-233"><path class="cls-3" d="m183.4,59.3c-.56-1.61-.84-3.31-.84-5.01"/></g><g id="ARC-234"><path class="cls-3" d="m193.36,44.94c1.94.07,3.8.81,5.27,2.09"/></g><g id="ARC-235"><path class="cls-3" d="m198.63,47.04c.78.94,1.39,2.01,1.79,3.17"/></g><g id="ARC-236"><path class="cls-3" d="m200.41,50.2c.45,1.31.68,2.69.68,4.08"/></g><g id="ARC-237"><path class="cls-3" d="m201.1,54.29c0,1.39-.23,2.77-.68,4.08"/></g><g id="ARC-238"><path class="cls-3" d="m200.41,58.37c-.4,1.16-1,2.23-1.79,3.17"/></g><g id="ARC-239"><path class="cls-3" d="m198.63,61.54c-.73.87-1.63,1.59-2.65,2.09"/></g><g id="ARC-240"><path class="cls-3" d="m195.98,63.63c-.85.42-1.78.64-2.72.64"/></g><g id="ARC-241"><path class="cls-3" d="m187.88,47.04c1.46-1.28,3.32-2.02,5.27-2.09"/></g><g id="ARC-242"><path class="cls-3" d="m186.09,50.2c.4-1.16,1-2.23,1.79-3.17"/></g><g id="ARC-243"><path class="cls-3" d="m185.41,54.29c0-1.39.23-2.77.68-4.08"/></g><g id="ARC-244"><path class="cls-3" d="m186.09,58.37c-.45-1.31-.68-2.69-.68-4.08"/></g><g id="ARC-245"><path class="cls-3" d="m187.88,61.54c-.78-.94-1.39-2.01-1.79-3.17"/></g><g id="ARC-246"><path class="cls-3" d="m190.53,63.63c-1.02-.51-1.92-1.22-2.65-2.09"/></g><g id="ARC-247"><path class="cls-3" d="m193.25,64.27c-.94,0-1.88-.22-2.72-.64"/></g><g id="LINE-132"><line class="cls-3" x1="206.38" y1="28.33" x2="180.13" y2="28.33"/></g><g id="LINE-133"><line class="cls-3" x1="206.38" y1="40.31" x2="180.13" y2="40.31"/></g><g id="ARC-248"><path class="cls-3" d="m206.38,28.33c1.26,0,2.28,1.02,2.28,2.28"/></g><g id="ARC-249"><path class="cls-3" d="m208.66,38.03c0,1.26-1.02,2.28-2.28,2.28"/></g><g id="LINE-134"><line class="cls-3" x1="208.66" y1="30.61" x2="208.66" y2="38.03"/></g><g id="CIRCLE-19"><circle class="cls-3" cx="197.25" cy="41.45" r=".57"/></g><g id="LINE-135"><line class="cls-3" x1="199.61" y1="40.31" x2="199.61" y2="40.31"/></g><g id="LINE-136"><line class="cls-3" x1="194.4" y1="47.6" x2="192.11" y2="47.6"/></g><g id="LINE-137"><line class="cls-3" x1="193.85" y1="50.99" x2="192.65" y2="50.99"/></g><g id="LINE-138"><line class="cls-3" x1="194.4" y1="47.6" x2="194.4" y2="50.33"/></g><g id="LINE-139"><line class="cls-3" x1="194.31" y1="50.54" x2="193.85" y2="50.99"/></g><g id="ARC-250"><path class="cls-3" d="m194.4,50.33c0,.08-.03.15-.08.2"/></g><g id="LINE-140"><line class="cls-3" x1="192.11" y1="47.6" x2="192.11" y2="50.33"/></g><g id="LINE-141"><line class="cls-3" x1="192.65" y1="50.99" x2="192.2" y2="50.54"/></g><g id="ARC-251"><path class="cls-3" d="m192.2,50.54c-.05-.05-.08-.13-.08-.2"/></g><g id="CIRCLE-20"><circle class="cls-3" cx="189.26" cy="41.45" r=".57"/></g><g id="LINE-142"><line class="cls-3" x1="177.85" y1="30.61" x2="177.85" y2="38.03"/></g><g id="ARC-252"><path class="cls-3" d="m177.85,30.61c0-1.26,1.02-2.28,2.28-2.28"/></g><g id="ARC-253"><path class="cls-3" d="m180.13,40.31c-1.26,0-2.28-1.02-2.28-2.28"/></g><g id="ARC-254"><path class="cls-3" d="m182.56,54.29c0-1.71.28-3.4.84-5.01"/></g><g id="ARC-255"><path class="cls-3" d="m183.4,49.27c.51-1.48,1.29-2.86,2.29-4.06"/></g><g id="ARC-256"><path class="cls-3" d="m186.9,40.31c.12,1.72-.3,3.43-1.21,4.9"/></g><g id="LINE-143"><line class="cls-3" x1="177.85" y1="40.31" x2="208.66" y2="40.31"/></g><g id="LINE-144"><line class="cls-3" x1="208.66" y1="40.31" x2="208.66" y2="28.33"/></g><g id="LWPOLYLINE-36"><polyline class="cls-3" points="75.15 28.33 75.15 40.31 105.96 40.31 105.96 28.33"/></g><g id="LWPOLYLINE-37"><polyline class="cls-3" points="23.8 28.33 23.8 40.31 54.61 40.31 54.61 28.33"/></g><g id="LINE-145"><line class="cls-3" x1="177.85" y1="40.31" x2="177.85" y2="28.33"/></g><g id="LINE-146"><line class="cls-3" x1="14.96" y1="222.31" x2="162.58" y2="222.31"/></g><g id="LINE-147"><line class="cls-11" x1="233.19" y1="79.68" x2="281.69" y2="79.68"/></g><g id="LINE-148"><line class="cls-11" x1="233.19" y1="82.53" x2="281.69" y2="82.53"/></g><g id="LINE-149"><line class="cls-11" x1="491.36" y1="71.12" x2="491.36" y2="79.68"/></g><g id="LINE-150"><line class="cls-11" x1="494.21" y1="71.12" x2="494.21" y2="82.53"/></g><g id="LINE-151"><line class="cls-11" x1="324.48" y1="79.68" x2="370.12" y2="79.68"/></g><g id="LINE-152"><line class="cls-11" x1="324.48" y1="82.53" x2="370.12" y2="82.53"/></g><g id="LWPOLYLINE-38"><polyline class="cls-11" points="404.35 28.33 404.35 82.53 407.21 82.53 407.21 28.33"/></g><g id="LINE-153"><line class="cls-11" x1="491.36" y1="79.68" x2="441.44" y2="79.68"/></g><g id="LINE-154"><line class="cls-11" x1="494.21" y1="82.53" x2="441.44" y2="82.53"/></g><g id="LINE-155"><line class="cls-11" x1="49.19" y1="116.76" x2="63.46" y2="116.76"/></g><g id="LINE-156"><line class="cls-11" x1="66.31" y1="119.61" x2="66.31" y2="28.33"/></g><g id="LINE-157"><line class="cls-11" x1="63.46" y1="116.76" x2="63.46" y2="28.33"/></g><g id="LINE-158"><line class="cls-11" x1="49.19" y1="119.61" x2="66.31" y2="119.61"/></g><g id="LINE-159"><line class="cls-11" x1="100.54" y1="116.76" x2="114.81" y2="116.76"/></g><g id="LINE-160"><line class="cls-11" x1="117.66" y1="119.61" x2="117.66" y2="28.33"/></g><g id="LINE-161"><line class="cls-11" x1="114.81" y1="116.76" x2="114.81" y2="28.33"/></g><g id="LINE-162"><line class="cls-11" x1="100.54" y1="119.61" x2="117.66" y2="119.61"/></g><g id="LINE-163"><line class="cls-11" x1="151.89" y1="116.76" x2="166.15" y2="116.76"/></g><g id="LINE-164"><line class="cls-11" x1="169.01" y1="119.61" x2="169.01" y2="28.33"/></g><g id="LINE-165"><line class="cls-11" x1="166.15" y1="116.76" x2="166.15" y2="28.33"/></g><g id="LINE-166"><line class="cls-11" x1="151.89" y1="119.61" x2="169.01" y2="119.61"/></g><g id="LINE-167"><line class="cls-11" x1="203.24" y1="116.76" x2="224.63" y2="116.76"/></g><g id="LINE-168"><line class="cls-11" x1="203.24" y1="119.61" x2="224.63" y2="119.61"/></g><g id="LINE-169"><line class="cls-4" x1="499.92" y1="62.56" x2="499.92" y2="71.12"/></g><g id="LINE-170"><line class="cls-4" x1="556.97" y1="62.56" x2="556.97" y2="71.12"/></g><g id="LINE-171"><line class="cls-4" x1="499.92" y1="67.55" x2="556.97" y2="67.55"/></g><g id="LINE-172"><line class="cls-4" x1="499.92" y1="66.13" x2="556.97" y2="66.13"/></g><g id="LINE-173"><line class="cls-1" x1="9.26" y1="28.33" x2="9.26" y2="256.54"/></g><g id="LINE-174"><line class="cls-1" x1="6.4" y1="28.33" x2="6.4" y2="256.54"/></g><g id="LINE-175"><line class="cls-1" x1=".7" y1="28.33" x2=".7" y2="256.54"/></g><g id="LINE-176"><line class="cls-1" x1="14.96" y1="28.33" x2="14.96" y2="256.54"/></g><g id="HATCH"><path class="cls-6" d="m47.99,116.48h1.2v3.42h-1.54s-31.15-.24-31.15-.24v.24h-1.54s-4.5-.29-4.5-.29h4.5v-3.14h1.54s0-30.55,0-30.55h1.2s29.95,30.56,29.95,30.56h.34m15.46-88.15h-8.84v11.98h-9.05l1.28,4.99,2.22,3.97.84,5.01-.84,5.01-2.29,4.06-3.57,2.82-3.99.94-3.99-.94-3.57-2.82-2.29-4.06-.84-5.01.84-5.01,2.29-4.06,1.21-4.9h-9.05v-11.98s-8.84,0-8.84,0v88.15h1.54s0-30.55,0-30.55h1.2s29.95,30.56,29.95,30.56h.34s1.2,0,1.2,0v.29s14.26,0,14.26,0V28.33m35.89,88.15h1.2v3.42h-1.54s-31.15-.1-31.15-.1v.1h-1.54s-55.85-.29-55.85-.29h55.85v-3.14h1.54s0-30.55,0-30.55h1.2s29.95,30.56,29.95,30.56h.34m51.35,0h1.2v3.42h-1.54s-31.15-.06-31.15-.06v.06h-1.54s-107.19-.29-107.19-.29h107.19v-3.14h1.54s0-30.55,0-30.55h1.2s29.95,30.56,29.95,30.56h.34m51.35,0h1.2v3.42h-1.54s-31.15-.05-31.15-.05v.05h-1.54s-158.54-.29-158.54-.29h158.54v-3.14h1.54s0-30.55,0-30.55h1.2s29.95,30.56,29.95,30.56h.34m-35.89-88.15h-8.84v11.98h-9.05l1.28,4.99,2.22,3.97.84,5.01-.84,5.01-2.29,4.06-3.57,2.82-3.99.94-3.99-.94-3.57-2.82-2.29-4.06-.84-5.01.84-5.01,2.29-4.06,1.21-4.9h-9.05s0-11.98,0-11.98h-8.84v88.15s1.54,0,1.54,0v-30.55h1.2s29.95,30.56,29.95,30.56h.34s1.2,0,1.2,0v.29s14.26,0,14.26,0V28.33m-51.35,0h-8.84v11.98h-9.05l1.28,4.99,2.22,3.97.84,5.01-.84,5.01-2.29,4.06-3.57,2.82-3.99.94-3.99-.94-3.57-2.82-2.29-4.06-.84-5.01.84-5.01,2.29-4.06,1.21-4.9h-9.05v-11.98s-8.84,0-8.84,0v88.15s1.54,0,1.54,0v-30.55h1.2s29.95,30.56,29.95,30.56h.34s1.2,0,1.2,0v.29s14.26,0,14.26,0V28.33m109.83,0h-15.98v11.98h-9.05l1.28,4.99,2.22,3.97.84,5.01-.84,5.01-2.29,4.06-3.57,2.82-3.99.94-3.99-.94-3.57-2.82-2.29-4.06-.84-5.01.84-5.01,2.29-4.06,1.21-4.9h-9.05s0-11.98,0-11.98h-8.84v88.15s1.54,0,1.54,0v-30.55h1.2s29.95,30.56,29.95,30.56h.34s1.2,0,1.2,0v.29s21.4,0,21.4,0V28.33Z"/><path class="cls-9" d="m224.63,111.63h-23.32m-184.81,0h-1.54m186.35,0h-30.76m-123.28,0h-30.76m154.05,0h-1.54m-105.55,0h-16.19m118.89,0h-16.19m-82.11,0h-1.54m83.65,0h-30.76m-20.59,0h-30.76m51.35,0h-1.54m-2.85,0h-16.19m126.02-18.11h-33.34m-174.8,0h-1.54m176.34,0h-20.75m-133.29,0h-20.75m154.05,0h-1.54m-105.55,0h-26.2m128.9,0h-26.2m-72.1,0h-1.54m73.64,0h-20.75m-30.6,0h-20.75m51.35,0h-1.54m-2.85,0h-26.2m136.03-18.11h-55.63m-105.55,0H14.96m151.19,0h-48.5m-2.85,0h-48.5m158.32-18.11h-20.98m-174.85,0h-13.85m167.89,0h-13.85m-105.55,0h-13.85m116.54,0h-13.85m-72.15,0h-13.85m65.19,0h-13.85m-2.85,0h-13.85m123.67-18.11h-15.98m-184.85,0h-8.84m162.89,0h-8.84m-105.55,0h-8.84m111.54,0h-8.84m-82.16,0h-8.84m60.19,0h-8.84m-2.85,0h-8.84m109.12-10.84v88.43m-18.11-50.44v33.82m0,0v19.75m-18.11-79.58v46.6m0,0v32.96m-18.11-91.54v88.43m0,2.85v.27m-18.11-52.79v29.07m0,23.69v.03m0-23.72v23.45m-18.11-91.29v57.96m0,33.53v.03m0-33.56v33.33m-18.11-91.29v88.43m0,3.03v.08m-18.11-53.04v26.4m0,26.59v.04m0-26.63v26.38m0,0v.14m-18.11-91.43v57.64m0,33.81v.03m0-33.84v33.65m0,0v.11m-18.11-79.41v76.45m0,2.96v.1m0-.21v.07m-18.11-54.25v25.54m0,28.76v.06m0-28.82v28.64m0,.04v.02M15.82,28.33v88.15m0,3.17v.26m0-3.42v3.14m0,0h0"/></g><g id="HATCH-2"><path class="cls-6" d="m563.98,161.15l3.62.74,2.2.61v-10.47h-34.23v38.89h34.23s0-11.51,0-11.51l-2.2.61-3.83.75-12.1-7.63-.29-2.19.25-2.03,12.34-7.78m-12.3-27.93l-.29-2.19.25-2.03,12.34-7.78,3.62.74,2.2.61v-10.47h-34.23v38.8h34.23v-11.42l-2.2.61-3.83.75-12.1-7.63m18.12-33.68l-2.2.61-3.83.75-12.1-7.63-.29-2.19.25-2.03,12.34-7.78,3.62.74,2.2.61v-11.51h-34.23v39.84h34.23v-11.42m-34.23-28.42h-41.36v11.41h41.36v-11.41Z"/><path class="cls-9" d="m569.81,181.39h-34.23m19.39-18.11h-19.39m34.23-18.11h-34.23m16.67-18.11h-16.67m34.23-18.11h-34.23m15.82-18.11h-15.82m34.23-18.11h-34.23m0,0h-41.36m70.5-1.59v10.23m0,99.36v10.23m0-90.1v10.13m0,41.08v9.18m0-49.12v9.18m0,19.48v10.13m-18.11-79.78v39.84m0,41.08v38.89m0-78.83v38.8m-18.11-79.78v11.41m-18.11-11.41v11.41"/></g><g id="HATCH-3"><path class="cls-6" d="m288.25,192.36h2v5.71s0,1.43,0,1.43h-57.05s-1.43,0-1.43,0v2.57h-3.14v-.57s-2.57,0-2.57,0v-2h7.13v-7.13h2.57s0-50.92,0-50.92h2s49.92,50.93,49.92,50.93h.57m247.33-109.84H233.19v109.83h2.57s0-50.92,0-50.92h2s49.92,50.93,49.92,50.93h.57s2,0,2,0v-35.66h164.73s0,34.23,0,34.23h80.6s0-108.4,0-108.4Z"/><path class="cls-9" d="m231.77,199.51h-5.71m309.52-18.11h-80.6m-219.22,0h-2.57m57.05,0h-3.76m0,0h-50.72m299.82-18.11h-80.6m-219.22,0h-2.57m57.05,0h-11.69m0,0h-42.8m299.82-18.11H255.9m-20.14,0h-2.57m22.71,0h-20.14m299.82-18.11H233.19m302.39-18.11H233.19m302.39-18.11H233.19m295.29-8.29v108.4m-18.11-108.4v108.4m-18.11-108.4v108.4m-18.11-108.4v108.4m-18.11-108.4v108.4m-18.11-108.4v74.17m-18.11-74.17v74.17m-18.11-74.17v74.17m-18.11-74.17v74.17m-18.11-74.17v74.17m-18.11-74.17v74.17m-18.11-74.17v74.17m-18.11-74.17v74.17m-18.11-74.17v74.17m-18.11-74.17v76.07m0,0v40.89m-18.11-116.96v63m0,0v53.96m-18.11-116.96v58.93m0,0v58.03"/></g><g id="HATCH-4"><path class="cls-6" d="m224.63,119.61h-21.4v.29h-1.54s-31.15-.05-31.15-.05v.05h-1.54s-17.12-.03-17.12-.03v.03h-1.54s-31.15-.06-31.15-.06v.06h-1.54s-17.12-.05-17.12-.05v.05h-1.54s-31.15-.1-31.15-.1v.1h-1.54s-17.12-.09-17.12-.09v.09h-1.54s-31.15-.24-31.15-.24v.24h-1.54s0,102.41,0,102.41h156.17s0,34.23,0,34.23h54.93v-2.57s-50.92,0-50.92,0v-2s50.93-49.92,50.93-49.92v-.57s0-2,0-2h-1.43v-79.88m8.56,79.88h-1.43v2.57h-3.14v-.57s-2.57,0-2.57,0v.57s-50.92,49.92-50.92,49.92h50.92v2s0,.57,0,.57h2.57s0-.57,0-.57h3.14v2.57s1.43,0,1.43,0v-57.05Z"/><path class="cls-9" d="m233.19,238.43h-55.94m0,0h-6.12m62.06-18.11h-46.2m0,0H14.96m218.23-18.11h-10.93m0,0H14.96m209.67-18.11H14.96m209.67-18.11H14.96m209.67-18.11H14.96m209.67-18.11H14.96m200.12-10.13v83.64m0,50.72v2.57m0-53.29v48.72m-18.11-132.09v91.3m0,42.79v2.57m0-45.35v40.79m-18.11-132.11v114.02m0,20.09v2.57m0-22.65v18.09m-18.11-132.09v102.43m-18.11-102.43v102.43m-18.11-102.46v102.46m-18.11-102.44v102.44m-18.11-102.45v102.45m-18.11-102.5v102.5m-18.11-102.48v102.48m-18.11-102.52v102.52M15.82,119.9v102.41"/></g><g id="HATCH-5"><path class="cls-6" d="m404.35,28.33h-79.88v10.27h11.98s0,9.05,0,9.05c1.72.12,3.43-.3,4.9-1.21,1.2-1,2.58-1.78,4.06-2.29,1.61-.56,3.31-.84,5.01-.84s3.4.28,5.01.84c1.48.51,2.86,1.29,4.06,2.29,1.18.98,2.14,2.2,2.82,3.57.62,1.24.94,2.61.94,3.99s-.32,2.75-.94,3.99c-.68,1.37-1.64,2.59-2.82,3.57-1.2,1-2.58,1.78-4.06,2.29-1.61.56-3.31.84-5.01.84s-3.4-.28-5.01-.84c-1.48-.51-2.86-1.29-4.06-2.29-1.38-1.09-3.17-1.53-4.9-1.21v6.76s0,2.28,0,2.28h-11.98v10.27h45.64v-.57s1.2,0,1.2,0v1.54h.34v1.88h31.15v-1.88h.34v-1.54h1.2V28.33m-2.74,20.23h1.2v30.55h-1.2v-30.55m89.75,22.56v-1.71h-11.98v-30.81h11.98s0-10.27,0-10.27h-84.15v54.2l70.45-2.85,13.7-8.56m-81.42,7.99h-1.2v-30.55h1.2v30.55m45.47-25.1c-.8.41-1.77.18-2.3-.54-.6-.81-.43-1.96.38-2.56.81-.6,1.96-.43,2.56.38-.75-.09-1.38-.59-1.64-1.29-.37-1.03.16-2.17,1.19-2.54,1.03-.37,2.17.16,2.54,1.19.94-.78,2.01-1.39,3.17-1.79,1.31-.45,2.69-.68,4.08-.68,1.39,0,2.77.23,4.08.68,1.16.4,2.23,1,3.17,1.79,1.3,1.49,2.04,3.39,2.09,5.37-.05,1.98-.79,3.88-2.09,5.37-.94.78-2.01,1.39-3.17,1.79-1.31.45-2.69.68-4.08.68s-2.77-.23-4.08-.68c-1.16-.4-2.23-1-3.17-1.79-.26.71-.89,1.21-1.64,1.29-1.09.13-2.07-.65-2.2-1.74s.65-2.07,1.74-2.2c-.53.72-1.51.95-2.3.54-.9-.46-1.26-1.56-.8-2.46s1.56-1.26,2.46-.8m13.28.6v-1.2l.54-.54h2.85v2.28s-2.85,0-2.85,0l-.54-.54m10.12,3.39c0-.32-.26-.57-.57-.57s-.57.26-.57.57.26.57.57.57.57-.26.57-.57m0-7.99c0-.32-.26-.57-.57-.57s-.57.26-.57.57.26.57.57.57.57-.26.57-.57m-162.89-21.68h-82.73s0,10.27,0,10.27h11.98s0,9.05,0,9.05c1.72.12,3.43-.3,4.9-1.21,1.2-1,2.58-1.78,4.06-2.29,1.61-.56,3.31-.84,5.01-.84s3.4.28,5.01.84c1.48.51,2.86,1.29,4.06,2.29,1.18.98,2.14,2.2,2.82,3.57.62,1.24.94,2.61.94,3.99s-.32,2.75-.94,3.99c-.68,1.37-1.64,2.59-2.82,3.57-1.2,1-2.58,1.78-4.06,2.29-1.61.56-3.31.84-5.01.84s-3.4-.28-5.01-.84c-1.48-.51-2.86-1.29-4.06-2.29-1.38-1.09-3.17-1.53-4.9-1.21v9.05h-11.98v10.27h48.5v-.57s1.2,0,1.2,0v1.54h.34v1.88h31.15v-1.88h.34v-1.54h1.2V28.33m-2.74,20.23h1.2v30.55h-1.2s0-30.55,0-30.55Z"/><path class="cls-9" d="m488.81,72.71h-78.87m-96.76,0h-79.99m175.55,0h-1.54m-91.29,0h-1.54m89.97,0h-1.54m-1.2,0h-77.14m154.9-18.11h-4.67m-161.53,0h-41.21m181.11,0h-43.13m-94.02,0h-1.54m94.37,0h-1.54m-5.59,0h-38.36m41.1,0h-1.54m88.55-18.11h-84.15m-91.29,0h-82.73m171.16,0h-79.88m149.66-8.15v22.73m0,5.89v22.87m-18.11-51.49v19.01m0,13.32v19.89m0-29.31v.04m0,5.45v.04m-18.11-28.44v52.96m-18.11-52.96v53.69m-18.11-53.69v20.23m0,30.55v3.42m-18.11-54.2v54.2m-18.11-54.2v51.35m-18.11-51.35v15.29m0,20.76v15.29m-18.11-51.35v10.27m0,30.81v10.27m-18.11-51.35v54.2m-18.11-54.2v54.2m-18.11-54.2v51.35m-18.11-51.35v15.16m0,21.02v15.16m-18.11-51.35v10.27m0,30.81v10.27"/></g><g id="LINE-177"><line class="cls-12" x1="233.19" y1="199.49" x2="233.19" y2="256.54"/></g><g id="LINE-178"><line class="cls-12" x1="233.19" y1="199.49" x2="290.25" y2="199.49"/></g></svg>