<?xml version="1.0" encoding="UTF-8"?><svg xmlns="http://www.w3.org/2000/svg" width="595.28" height="559" viewBox="0 0 595.28 559"><defs><style>.cls-1{stroke:#4c8599;stroke-width:.37px;}.cls-1,.cls-2,.cls-3,.cls-4,.cls-5{fill:none;stroke-linecap:round;stroke-linejoin:round;}.cls-2{stroke:#848484;stroke-width:.14px;}.cls-3{stroke:#4c4c99;}.cls-3,.cls-5{stroke-width:.26px;}.cls-4{stroke:#000;stroke-width:1.13px;}.cls-5{stroke:#5b5b5b;}</style></defs><g id="ARREDI_attrezzature_-_furniture"><g id="LWPOLYLINE"><rect class="cls-3" x="528.52" y="19.07" width="52.35" height="159.22"/></g><g id="ELLIPSE"><ellipse class="cls-3" cx="554.7" cy="60.51" rx="14.83" ry="21.81"/></g><g id="ELLIPSE-2"><ellipse class="cls-3" cx="554.7" cy="136.84" rx="14.83" ry="21.81"/></g><g id="LWPOLYLINE-2"><path class="cls-3" d="m361.01,64.43v-31.41h-31.41s0,31.41,0,31.41c0,8.67,7.03,15.7,15.7,15.7,8.67,0,15.7-7.03,15.7-15.7Z"/></g><g id="LWPOLYLINE-3"><rect class="cls-3" x="316.52" y="19.07" width="57.58" height="13.96"/></g><g id="LWPOLYLINE-4"><rect class="cls-3" x="528.52" y="374.58" width="52.35" height="159.22"/></g><g id="ELLIPSE-3"><ellipse class="cls-3" cx="554.7" cy="492.36" rx="14.83" ry="21.81"/></g><g id="ELLIPSE-4"><ellipse class="cls-3" cx="554.7" cy="416.03" rx="14.83" ry="21.81"/></g><g id="LWPOLYLINE-5"><path class="cls-3" d="m361.01,488.44v31.41h-31.41s0-31.41,0-31.41c0-8.67,7.03-15.7,15.7-15.7,8.67,0,15.7,7.03,15.7,15.7Z"/></g><g id="LWPOLYLINE-6"><rect class="cls-3" x="316.52" y="519.85" width="57.58" height="13.96"/></g><g id="LWPOLYLINE-7"><rect class="cls-3" x="13.78" y="19.07" width="52.35" height="159.22"/></g><g id="ELLIPSE-5"><ellipse class="cls-3" cx="39.96" cy="60.51" rx="14.83" ry="21.81"/></g><g id="ELLIPSE-6"><ellipse class="cls-3" cx="39.96" cy="136.84" rx="14.83" ry="21.81"/></g><g id="LWPOLYLINE-8"><path class="cls-3" d="m233.64,64.43v-31.41h31.41s0,31.41,0,31.41c0,8.67-7.03,15.7-15.7,15.7-8.67,0-15.7-7.03-15.7-15.7Z"/></g><g id="LWPOLYLINE-9"><rect class="cls-3" x="220.55" y="19.07" width="57.58" height="13.96"/></g><g id="LWPOLYLINE-10"><rect class="cls-3" x="13.78" y="374.58" width="52.35" height="159.22"/></g><g id="ELLIPSE-7"><ellipse class="cls-3" cx="39.96" cy="492.36" rx="14.83" ry="21.81"/></g><g id="ELLIPSE-8"><ellipse class="cls-3" cx="39.96" cy="416.03" rx="14.83" ry="21.81"/></g><g id="LWPOLYLINE-11"><path class="cls-3" d="m233.64,488.44v31.41h31.41s0-31.41,0-31.41c0-8.67-7.03-15.7-15.7-15.7-8.67,0-15.7,7.03-15.7,15.7Z"/></g><g id="LWPOLYLINE-12"><rect class="cls-3" x="220.55" y="519.85" width="57.58" height="13.96"/></g><g id="LWPOLYLINE-13"><rect class="cls-3" x="13.78" y="191.37" width="91.61" height="78.52"/></g><g id="LWPOLYLINE-14"><rect class="cls-3" x="19.89" y="197.48" width="79.39" height="66.31" rx="6.2" ry="6.2"/></g><g id="CIRCLE"><circle class="cls-3" cx="26.87" cy="230.63" r="2.62"/></g><g id="LWPOLYLINE-15"><rect class="cls-3" x="13.78" y="282.98" width="91.61" height="78.52"/></g><g id="LWPOLYLINE-16"><rect class="cls-3" x="19.89" y="289.09" width="79.39" height="66.31" rx="6.2" ry="6.2"/></g><g id="CIRCLE-2"><circle class="cls-3" cx="26.87" cy="322.24" r="2.62"/></g><g id="LWPOLYLINE-17"><rect class="cls-3" x="489.26" y="191.37" width="91.61" height="78.52"/></g><g id="LWPOLYLINE-18"><rect class="cls-3" x="495.37" y="197.48" width="79.39" height="66.31" rx="6.2" ry="6.2"/></g><g id="CIRCLE-3"><circle class="cls-3" cx="567.78" cy="230.63" r="2.62"/></g><g id="LWPOLYLINE-19"><rect class="cls-3" x="489.26" y="282.98" width="91.61" height="78.52"/></g><g id="LWPOLYLINE-20"><rect class="cls-3" x="495.37" y="289.09" width="79.39" height="66.31" rx="6.2" ry="6.2"/></g><g id="CIRCLE-4"><circle class="cls-3" cx="567.78" cy="322.24" r="2.62"/></g></g><g id="PROIEZIONI_finissime_-_fine_lines"><g id="LINE"><line class="cls-5" x1="347.49" y1="204.46" x2="247.16" y2="348.41"/></g><g id="LINE-2"><line class="cls-5" x1="247.16" y1="204.46" x2="347.49" y2="348.41"/></g><g id="ARC"><path class="cls-5" d="m273.33,173.92c-2.43-34.36-30.98-61.01-65.43-61.07"/></g><g id="ARC-2"><path class="cls-5" d="m321.32,173.92c2.43-34.36,30.98-61.01,65.43-61.07"/></g><g id="ARC-3"><path class="cls-5" d="m273.33,378.95c-2.43,34.36-30.98,61.01-65.43,61.07"/></g><g id="ARC-4"><path class="cls-5" d="m321.32,378.95c2.43,34.36,30.98,61.01,65.43,61.07"/></g><g id="ARC-5"><path class="cls-5" d="m186.09,97.58c-41.6-2.43-74.11-36.85-74.16-78.52"/></g><g id="ARC-6"><path class="cls-5" d="m186.09,455.29c-41.6,2.43-74.11,36.85-74.16,78.52"/></g><g id="ARC-7"><path class="cls-5" d="m408.56,97.58c41.6-2.43,74.11-36.85,74.16-78.52"/></g><g id="ARC-8"><path class="cls-5" d="m408.56,455.29c41.6,2.43,74.11,36.85,74.16,78.52"/></g></g><g id="PROIEZIONI_-_projections"><g id="LINE-3"><line class="cls-1" x1="478.36" y1="191.37" x2="399.84" y2="191.37"/></g><g id="LINE-4"><line class="cls-1" x1="478.36" y1="361.5" x2="399.84" y2="361.5"/></g><g id="LINE-5"><line class="cls-1" x1="116.29" y1="191.37" x2="194.81" y2="191.37"/></g><g id="LINE-6"><line class="cls-1" x1="116.29" y1="361.5" x2="194.81" y2="361.5"/></g></g><g id="PORTE_finestre_-_doors_windows"><g id="LWPOLYLINE-21"><rect class="cls-2" x="207.9" y="173.92" width="65.43" height="4.36"/></g><g id="LWPOLYLINE-22"><rect class="cls-2" x="321.32" y="173.92" width="65.43" height="4.36"/></g><g id="LWPOLYLINE-23"><rect class="cls-2" x="207.9" y="374.58" width="65.43" height="4.36"/></g><g id="LWPOLYLINE-24"><rect class="cls-2" x="321.32" y="374.58" width="65.43" height="4.36"/></g><g id="LWPOLYLINE-25"><rect class="cls-2" x="186.09" y="19.07" width="4.36" height="78.52"/></g><g id="LWPOLYLINE-26"><rect class="cls-2" x="186.09" y="455.29" width="4.36" height="78.52"/></g><g id="LWPOLYLINE-27"><rect class="cls-2" x="404.2" y="19.07" width="4.36" height="78.52"/></g><g id="LWPOLYLINE-28"><rect class="cls-2" x="404.2" y="455.29" width="4.36" height="78.52"/></g></g><g id="MURATURA_sezioni_-_section_wall"><g id="LINE-7"><line class="cls-4" x1="482.72" y1="5.98" x2="593.96" y2="5.98"/></g><g id="LINE-8"><line class="cls-4" x1="593.96" y1="5.98" x2="593.96" y2="546.89"/></g><g id="LINE-9"><line class="cls-4" x1="593.96" y1="546.89" x2="482.72" y2="546.89"/></g><g id="LINE-10"><line class="cls-4" x1="111.93" y1="546.89" x2=".7" y2="546.89"/></g><g id="LINE-11"><line class="cls-4" x1=".7" y1="546.89" x2=".7" y2="5.98"/></g><g id="LINE-12"><line class="cls-4" x1=".7" y1="5.98" x2="111.93" y2="5.98"/></g><g id="LINE-13"><line class="cls-4" x1="111.93" y1="5.98" x2="111.93" y2="19.07"/></g><g id="LINE-14"><line class="cls-4" x1="111.93" y1="19.07" x2="13.78" y2="19.07"/></g><g id="LINE-15"><line class="cls-4" x1="13.78" y1="19.07" x2="13.78" y2="178.29"/></g><g id="LINE-16"><line class="cls-4" x1="190.45" y1="19.07" x2="190.45" y2="5.98"/></g><g id="LINE-17"><line class="cls-4" x1="190.45" y1="5.98" x2="404.2" y2="5.98"/></g><g id="LINE-18"><line class="cls-4" x1="482.72" y1="19.07" x2="580.87" y2="19.07"/></g><g id="LINE-19"><line class="cls-4" x1="580.87" y1="19.07" x2="580.87" y2="178.29"/></g><g id="LINE-20"><line class="cls-4" x1="580.87" y1="191.37" x2="580.87" y2="269.89"/></g><g id="LINE-21"><line class="cls-4" x1="580.87" y1="282.98" x2="580.87" y2="361.5"/></g><g id="LINE-22"><line class="cls-4" x1="580.87" y1="374.58" x2="580.87" y2="533.81"/></g><g id="LINE-23"><line class="cls-4" x1="580.87" y1="533.81" x2="482.72" y2="533.81"/></g><g id="LINE-24"><line class="cls-4" x1="404.2" y1="533.81" x2="399.84" y2="533.81"/></g><g id="LINE-25"><line class="cls-4" x1="386.75" y1="533.81" x2="303.87" y2="533.81"/></g><g id="LINE-26"><line class="cls-4" x1="303.87" y1="19.07" x2="386.75" y2="19.07"/></g><g id="LINE-27"><line class="cls-4" x1="399.84" y1="19.07" x2="404.2" y2="19.07"/></g><g id="LINE-28"><line class="cls-4" x1="303.87" y1="19.07" x2="303.87" y2="191.37"/></g><g id="LINE-29"><line class="cls-4" x1="580.87" y1="282.98" x2="360.58" y2="282.98"/></g><g id="LINE-30"><line class="cls-4" x1="580.87" y1="269.89" x2="360.58" y2="269.89"/></g><g id="LINE-31"><line class="cls-4" x1="580.87" y1="191.37" x2="478.36" y2="191.37"/></g><g id="LINE-32"><line class="cls-4" x1="386.75" y1="191.37" x2="303.87" y2="191.37"/></g><g id="LINE-33"><line class="cls-4" x1="399.84" y1="204.46" x2="360.58" y2="204.46"/></g><g id="LINE-34"><line class="cls-4" x1="580.87" y1="178.29" x2="478.36" y2="178.29"/></g><g id="LINE-35"><line class="cls-4" x1="399.84" y1="178.29" x2="386.75" y2="178.29"/></g><g id="LINE-36"><line class="cls-4" x1="386.75" y1="19.07" x2="386.75" y2="112.85"/></g><g id="LINE-37"><line class="cls-4" x1="386.75" y1="178.29" x2="386.75" y2="191.37"/></g><g id="LINE-38"><line class="cls-4" x1="347.49" y1="204.46" x2="347.49" y2="348.41"/></g><g id="LINE-39"><line class="cls-4" x1="399.84" y1="19.07" x2="399.84" y2="112.85"/></g><g id="LINE-40"><line class="cls-4" x1="399.84" y1="178.29" x2="399.84" y2="204.46"/></g><g id="LINE-41"><line class="cls-4" x1="360.58" y1="204.46" x2="360.58" y2="269.89"/></g><g id="LINE-42"><line class="cls-4" x1="482.72" y1="5.98" x2="482.72" y2="19.07"/></g><g id="LINE-43"><line class="cls-4" x1="478.36" y1="178.29" x2="478.36" y2="191.37"/></g><g id="LINE-44"><line class="cls-4" x1="399.84" y1="112.85" x2="386.75" y2="112.85"/></g><g id="LINE-45"><line class="cls-4" x1="580.87" y1="361.5" x2="478.36" y2="361.5"/></g><g id="LINE-46"><line class="cls-4" x1="386.75" y1="361.5" x2="303.87" y2="361.5"/></g><g id="LINE-47"><line class="cls-4" x1="399.84" y1="348.41" x2="360.58" y2="348.41"/></g><g id="LINE-48"><line class="cls-4" x1="580.87" y1="374.58" x2="478.36" y2="374.58"/></g><g id="LINE-49"><line class="cls-4" x1="399.84" y1="374.58" x2="386.75" y2="374.58"/></g><g id="LINE-50"><line class="cls-4" x1="386.75" y1="533.81" x2="386.75" y2="440.02"/></g><g id="LINE-51"><line class="cls-4" x1="386.75" y1="374.58" x2="386.75" y2="361.5"/></g><g id="LINE-52"><line class="cls-4" x1="399.84" y1="533.81" x2="399.84" y2="440.02"/></g><g id="LINE-53"><line class="cls-4" x1="399.84" y1="374.58" x2="399.84" y2="348.41"/></g><g id="LINE-54"><line class="cls-4" x1="360.58" y1="348.41" x2="360.58" y2="282.98"/></g><g id="LINE-55"><line class="cls-4" x1="478.36" y1="374.58" x2="478.36" y2="361.5"/></g><g id="LINE-56"><line class="cls-4" x1="399.84" y1="440.02" x2="386.75" y2="440.02"/></g><g id="LINE-57"><line class="cls-4" x1="303.87" y1="533.81" x2="303.87" y2="361.5"/></g><g id="LINE-58"><line class="cls-4" x1="13.78" y1="191.37" x2="13.78" y2="269.89"/></g><g id="LINE-59"><line class="cls-4" x1="13.78" y1="282.98" x2="13.78" y2="361.5"/></g><g id="LINE-60"><line class="cls-4" x1="13.78" y1="374.58" x2="13.78" y2="533.81"/></g><g id="LINE-61"><line class="cls-4" x1="13.78" y1="533.81" x2="111.93" y2="533.81"/></g><g id="LINE-62"><line class="cls-4" x1="190.45" y1="533.81" x2="194.81" y2="533.81"/></g><g id="LINE-63"><line class="cls-4" x1="207.9" y1="533.81" x2="290.78" y2="533.81"/></g><g id="LINE-64"><line class="cls-4" x1="290.78" y1="19.07" x2="207.9" y2="19.07"/></g><g id="LINE-65"><line class="cls-4" x1="194.81" y1="19.07" x2="190.45" y2="19.07"/></g><g id="LINE-66"><line class="cls-4" x1="290.78" y1="19.07" x2="290.78" y2="191.37"/></g><g id="LINE-67"><line class="cls-4" x1="13.78" y1="191.37" x2="116.29" y2="191.37"/></g><g id="LINE-68"><line class="cls-4" x1="207.9" y1="191.37" x2="290.78" y2="191.37"/></g><g id="LINE-69"><line class="cls-4" x1="194.81" y1="204.46" x2="234.07" y2="204.46"/></g><g id="LINE-70"><line class="cls-4" x1="247.16" y1="204.46" x2="347.49" y2="204.46"/></g><g id="LINE-71"><line class="cls-4" x1="13.78" y1="178.29" x2="116.29" y2="178.29"/></g><g id="LINE-72"><line class="cls-4" x1="194.81" y1="178.29" x2="207.9" y2="178.29"/></g><g id="LINE-73"><line class="cls-4" x1="207.9" y1="19.07" x2="207.9" y2="112.85"/></g><g id="LINE-74"><line class="cls-4" x1="207.9" y1="178.29" x2="207.9" y2="191.37"/></g><g id="LINE-75"><line class="cls-4" x1="247.16" y1="204.46" x2="247.16" y2="348.41"/></g><g id="LINE-76"><line class="cls-4" x1="194.81" y1="19.07" x2="194.81" y2="112.85"/></g><g id="LINE-77"><line class="cls-4" x1="194.81" y1="178.29" x2="194.81" y2="204.46"/></g><g id="LINE-78"><line class="cls-4" x1="234.07" y1="204.46" x2="234.07" y2="269.89"/></g><g id="LINE-79"><line class="cls-4" x1="116.29" y1="178.29" x2="116.29" y2="191.37"/></g><g id="LINE-80"><line class="cls-4" x1="194.81" y1="112.85" x2="207.9" y2="112.85"/></g><g id="LINE-81"><line class="cls-4" x1="13.78" y1="361.5" x2="116.29" y2="361.5"/></g><g id="LINE-82"><line class="cls-4" x1="207.9" y1="361.5" x2="290.78" y2="361.5"/></g><g id="LINE-83"><line class="cls-4" x1="194.81" y1="348.41" x2="234.07" y2="348.41"/></g><g id="LINE-84"><line class="cls-4" x1="247.16" y1="348.41" x2="347.49" y2="348.41"/></g><g id="LINE-85"><line class="cls-4" x1="13.78" y1="374.58" x2="116.29" y2="374.58"/></g><g id="LINE-86"><line class="cls-4" x1="194.81" y1="374.58" x2="207.9" y2="374.58"/></g><g id="LINE-87"><line class="cls-4" x1="207.9" y1="533.81" x2="207.9" y2="440.02"/></g><g id="LINE-88"><line class="cls-4" x1="207.9" y1="374.58" x2="207.9" y2="361.5"/></g><g id="LINE-89"><line class="cls-4" x1="194.81" y1="533.81" x2="194.81" y2="440.02"/></g><g id="LINE-90"><line class="cls-4" x1="194.81" y1="374.58" x2="194.81" y2="348.41"/></g><g id="LINE-91"><line class="cls-4" x1="234.07" y1="348.41" x2="234.07" y2="282.98"/></g><g id="LINE-92"><line class="cls-4" x1="116.29" y1="374.58" x2="116.29" y2="361.5"/></g><g id="LINE-93"><line class="cls-4" x1="194.81" y1="440.02" x2="207.9" y2="440.02"/></g><g id="LINE-94"><line class="cls-4" x1="290.78" y1="533.81" x2="290.78" y2="361.5"/></g><g id="LINE-95"><line class="cls-4" x1="13.78" y1="282.98" x2="234.07" y2="282.98"/></g><g id="LINE-96"><line class="cls-4" x1="13.78" y1="269.89" x2="234.07" y2="269.89"/></g><g id="LINE-97"><line class="cls-4" x1="111.93" y1="546.89" x2="111.93" y2="533.81"/></g><g id="LINE-98"><line class="cls-4" x1="190.45" y1="533.81" x2="190.45" y2="546.89"/></g><g id="LINE-99"><line class="cls-4" x1="190.45" y1="546.89" x2="404.2" y2="546.89"/></g><g id="LINE-100"><line class="cls-4" x1="482.72" y1="546.89" x2="482.72" y2="533.81"/></g><g id="LINE-101"><line class="cls-4" x1="404.2" y1="533.81" x2="404.2" y2="546.89"/></g><g id="LINE-102"><line class="cls-4" x1="404.2" y1="19.07" x2="404.2" y2="5.98"/></g><g id="LINE-103"><line class="cls-4" x1=".7" y1="546.89" x2=".7" y2="546.89"/></g><g id="LINE-104"><line class="cls-4" x1=".7" y1="546.89" x2=".7" y2="546.89"/></g><g id="LINE-105"><line class="cls-4" x1=".7" y1="546.89" x2=".7" y2="546.89"/></g><g id="LINE-106"><line class="cls-4" x1=".7" y1="546.89" x2=".7" y2="546.89"/></g><g id="LINE-107"><line class="cls-4" x1=".7" y1="546.89" x2=".7" y2="546.89"/></g><g id="LINE-108"><line class="cls-4" x1=".7" y1="546.89" x2=".7" y2="546.89"/></g></g></svg>