<?xml version="1.0" encoding="UTF-8"?><svg id="_0" xmlns="http://www.w3.org/2000/svg" width="595.28" height="643.4" viewBox="0 0 595.28 643.4"><defs><style>.cls-1{stroke:#848484;}.cls-1,.cls-2,.cls-3,.cls-4,.cls-5,.cls-6,.cls-7,.cls-8,.cls-9{fill:none;}.cls-1,.cls-2,.cls-3,.cls-4,.cls-6,.cls-7,.cls-8,.cls-9{stroke-linecap:round;stroke-linejoin:round;}.cls-1,.cls-7{stroke-width:.14px;}.cls-2{stroke:#4c4c99;}.cls-2,.cls-8,.cls-9{stroke-width:.26px;}.cls-3{stroke-width:1.13px;}.cls-3,.cls-4{stroke:#000;}.cls-4{stroke-width:.71px;}.cls-5{stroke-width:0px;}.cls-6{stroke-width:0px;}.cls-6,.cls-7{stroke:#333;}.cls-8{stroke:#ff0;}.cls-9{stroke:#5b5b5b;}</style></defs><g id="LINE"><line class="cls-4" x1="21.32" y1="96.73" x2="21.32" y2="88.89"/></g><g id="LINE-2"><line class="cls-4" x1="26.12" y1="96.73" x2="26.12" y2="88.89"/></g><g id="LINE-3"><line class="cls-4" x1="26.81" y1="93.74" x2="26.81" y2="92.35"/></g><g id="ARC"><path class="cls-4" d="m27.5,94.43c.92-1.73.92-3.81,0-5.54"/></g><g id="LINE-4"><line class="cls-4" x1="20.97" y1="93.74" x2="20.97" y2="92.35"/></g><g id="ARC-2"><path class="cls-4" d="m18.86,95.82c.92-2.7.92-5.62,0-8.32"/></g><g id="LINE-5"><line class="cls-4" x1="17.48" y1="87.5" x2="17.48" y2="95.82"/></g><g id="LINE-6"><line class="cls-4" x1="23.37" y1="111.43" x2="23.37" y2="117.65"/></g><g id="LINE-7"><line class="cls-4" x1="24.06" y1="111.43" x2="24.06" y2="117.65"/></g><g id="ARC-3"><path class="cls-4" d="m23.37,117.65c0,.19.16.35.35.35s.35-.16.35-.35"/></g><g id="LINE-8"><line class="cls-4" x1="22.01" y1="111.08" x2="25.42" y2="111.08"/></g><g id="ARC-4"><path class="cls-4" d="m24.41,111.08c-.19,0-.35.16-.35.35"/></g><g id="ARC-5"><path class="cls-4" d="m23.37,111.43c0-.19-.16-.35-.35-.35"/></g><g id="LINE-9"><line class="cls-4" x1="25.42" y1="111.08" x2="25.42" y2="109.37"/></g><g id="LINE-10"><line class="cls-4" x1="22.01" y1="111.08" x2="22.01" y2="109.37"/></g><g id="LINE-11"><line class="cls-4" x1="21.32" y1="99.5" x2="21.32" y2="98.11"/></g><g id="LINE-12"><line class="cls-4" x1="26.12" y1="99.5" x2="26.12" y2="98.11"/></g><g id="LINE-13"><line class="cls-4" x1="26.46" y1="96.73" x2="26.46" y2="98.11"/></g><g id="LINE-14"><line class="cls-4" x1="20.97" y1="96.73" x2="20.97" y2="98.11"/></g><g id="LINE-15"><line class="cls-4" x1="23.72" y1="96.73" x2="23.72" y2="98.11"/></g><g id="LINE-16"><line class="cls-4" x1="20.97" y1="96.73" x2="26.46" y2="96.73"/></g><g id="LINE-17"><line class="cls-4" x1="20.97" y1="98.11" x2="26.46" y2="98.11"/></g><g id="LINE-18"><line class="cls-4" x1="27.16" y1="94.08" x2="27.67" y2="94.08"/></g><g id="ARC-6"><path class="cls-4" d="m26.81,93.74c0,.19.16.35.35.35"/></g><g id="LINE-19"><line class="cls-4" x1="26.12" y1="94.43" x2="27.5" y2="94.43"/></g><g id="ARC-7"><path class="cls-4" d="m20.62,94.08c.19,0,.35-.16.35-.35"/></g><g id="LINE-20"><line class="cls-4" x1="19.33" y1="94.08" x2="20.62" y2="94.08"/></g><g id="LINE-21"><line class="cls-4" x1="19.25" y1="94.43" x2="21.32" y2="94.43"/></g><g id="ARC-8"><path class="cls-4" d="m21.32,94.43c1.47.92,3.33.92,4.8,0"/></g><g id="LINE-22"><line class="cls-4" x1="17.48" y1="95.82" x2="18.86" y2="95.82"/></g><g id="LINE-23"><line class="cls-4" x1="20.97" y1="100.83" x2="20.97" y2="99.5"/></g><g id="LINE-24"><line class="cls-4" x1="26.46" y1="100.83" x2="26.46" y2="99.5"/></g><g id="LINE-25"><line class="cls-4" x1="20.97" y1="99.5" x2="26.46" y2="99.5"/></g><g id="LWPOLYLINE"><polygon class="cls-4" points="23.72 102.06 21.32 103.44 21.32 106.21 23.72 107.6 26.12 106.21 26.12 103.44 23.72 102.06"/></g><g id="CIRCLE"><circle class="cls-4" cx="23.72" cy="104.83" r="2.77"/></g><g id="CIRCLE-2"><circle class="cls-4" cx="23.72" cy="104.83" r="4.85"/></g><g id="CIRCLE-3"><circle class="cls-4" cx="23.72" cy="104.83" r=".95"/></g><g id="LINE-26"><line class="cls-4" x1="27.16" y1="92.01" x2="28.19" y2="92.01"/></g><g id="LINE-27"><line class="cls-4" x1="27.16" y1="91.31" x2="28.19" y2="91.31"/></g><g id="LINE-28"><line class="cls-4" x1="27.16" y1="89.23" x2="27.67" y2="89.23"/></g><g id="ARC-9"><path class="cls-4" d="m27.16,89.23c-.19,0-.35.16-.35.35"/></g><g id="LINE-29"><line class="cls-4" x1="26.81" y1="90.97" x2="26.81" y2="89.58"/></g><g id="ARC-10"><path class="cls-4" d="m26.81,90.97c0,.19.16.35.35.35"/></g><g id="ARC-11"><path class="cls-4" d="m27.16,92.01c-.19,0-.35.16-.35.35"/></g><g id="LINE-30"><line class="cls-4" x1="26.12" y1="88.89" x2="27.5" y2="88.89"/></g><g id="ARC-12"><path class="cls-4" d="m20.62,91.31c.19,0,.35-.16.35-.35"/></g><g id="LINE-31"><line class="cls-4" x1="20.97" y1="90.97" x2="20.97" y2="89.58"/></g><g id="LINE-32"><line class="cls-4" x1="19.55" y1="91.31" x2="20.62" y2="91.31"/></g><g id="ARC-13"><path class="cls-4" d="m20.97,92.35c0-.19-.16-.35-.35-.35"/></g><g id="LINE-33"><line class="cls-4" x1="19.55" y1="92.01" x2="20.62" y2="92.01"/></g><g id="ARC-14"><path class="cls-4" d="m20.97,89.58c0-.19-.16-.35-.35-.35"/></g><g id="LINE-34"><line class="cls-4" x1="19.33" y1="89.23" x2="20.62" y2="89.23"/></g><g id="LINE-35"><line class="cls-4" x1="19.25" y1="88.89" x2="21.32" y2="88.89"/></g><g id="ARC-15"><path class="cls-4" d="m26.12,88.89c-1.47-.92-3.33-.92-4.8,0"/></g><g id="LINE-36"><line class="cls-4" x1="17.48" y1="87.5" x2="18.86" y2="87.5"/></g><g id="LWPOLYLINE-2"><path class="cls-4" d="m53.02,127.7c4.85,0,9.7-.48,14.45-1.44,3.73-.75,7.36-1.97,10.78-3.64,3.18-1.54,6.01-3.73,8.3-6.42,1.39-1.63,2.15-3.69,2.15-5.83v-11.09c0-2.14-.76-4.2-2.15-5.83-2.3-2.69-5.12-4.88-8.3-6.42-3.43-1.66-7.05-2.89-10.78-3.64-4.76-.96-9.6-1.44-14.45-1.44H17.33v45.74s35.69,0,35.69,0Z"/></g><g id="CIRCLE-4"><circle class="cls-4" cx="23.72" cy="104.83" r="2.77"/></g><g id="LWPOLYLINE-3"><path class="cls-4" d="m85.51,94.35c-2.17-2.54-4.85-4.61-7.86-6.07-3.32-1.61-6.83-2.8-10.45-3.52-4.67-.94-9.42-1.41-14.18-1.41-2.82,0-5.63.43-8.33,1.27-2.38.74-4.62,1.89-6.61,3.4s-3.53,3.3-4.69,5.42c-.99,1.79-1.5,3.81-1.5,5.85v11.09c0,2.05.52,4.06,1.5,5.85,1.16,2.12,2.76,3.96,4.69,5.42s4.23,2.65,6.61,3.4c2.7.84,5.5,1.27,8.33,1.27,4.76,0,9.51-.47,14.18-1.41,3.62-.73,7.13-1.91,10.45-3.52,3.01-1.46,5.68-3.53,7.86-6.07.32-.47.54-1.01.66-1.57s.12-1.13.01-1.69-.32-1.09-.63-1.56-.71-.88-1.18-1.19-.99-.53-1.55-.64-1.13-.11-1.69,0-1.09.33-1.56.65-.88.73-1.2,1.2c-1.35,2.01-3.1,3.72-5.13,5.03-2.24,1.44-4.69,2.52-7.27,3.21-3.07.82-6.23,1.23-9.4,1.23-1.18,0-2.37-.06-3.55-.17-1.62,0-3.23-.37-4.68-1.09-1.61-.79-3.03-1.92-4.18-3.29s-2.09-3.01-2.69-4.74c-.65-1.88-.98-3.85-.98-5.84,0-1.99.33-3.96.98-5.84.6-1.73,1.51-3.34,2.69-4.74s2.58-2.5,4.18-3.29c1.46-.72,3.06-1.09,4.68-1.09,1.18-.11,2.36-.17,3.55-.17,3.18,0,6.34.41,9.4,1.23,2.57.68,5.03,1.77,7.27,3.21,2.04,1.31,3.78,3.02,5.13,5.03.32.47.73.88,1.2,1.2s1,.54,1.56.65,1.13.11,1.69,0,1.08-.33,1.55-.64.87-.72,1.18-1.19.53-1,.63-1.56.1-1.13-.01-1.69-.34-1.09-.66-1.57Z"/></g><g id="LWPOLYLINE-4"><path class="cls-4" d="m54.59,110.37c-.63,0-1.25-.14-1.82-.41-.61-.29-1.16-.7-1.61-1.21s-.81-1.12-1.04-1.77c-.25-.69-.38-1.42-.38-2.15s.13-1.46.38-2.15c.23-.65.59-1.25,1.04-1.77s.99-.92,1.61-1.21c.57-.27,1.19-.41,1.82-.41"/></g><g id="LINE-37"><line class="cls-4" x1="81.99" y1="108.57" x2="81.99" y2="101.08"/></g><g id="LINE-38"><line class="cls-4" x1="21.32" y1="198.98" x2="21.32" y2="191.14"/></g><g id="LINE-39"><line class="cls-4" x1="26.12" y1="198.98" x2="26.12" y2="191.14"/></g><g id="LINE-40"><line class="cls-4" x1="26.81" y1="195.99" x2="26.81" y2="194.61"/></g><g id="ARC-16"><path class="cls-4" d="m27.5,196.69c.92-1.73.92-3.81,0-5.54"/></g><g id="LINE-41"><line class="cls-4" x1="20.97" y1="195.99" x2="20.97" y2="194.61"/></g><g id="ARC-17"><path class="cls-4" d="m18.86,198.07c.92-2.7.92-5.62,0-8.32"/></g><g id="LINE-42"><line class="cls-4" x1="17.48" y1="189.76" x2="17.48" y2="198.07"/></g><g id="LINE-43"><line class="cls-4" x1="23.37" y1="213.68" x2="23.37" y2="219.91"/></g><g id="LINE-44"><line class="cls-4" x1="24.06" y1="213.68" x2="24.06" y2="219.91"/></g><g id="ARC-18"><path class="cls-4" d="m23.37,219.91c0,.19.16.35.35.35s.35-.16.35-.35"/></g><g id="LINE-45"><line class="cls-4" x1="22.01" y1="213.34" x2="25.42" y2="213.34"/></g><g id="ARC-19"><path class="cls-4" d="m24.41,213.34c-.19,0-.35.16-.35.35"/></g><g id="ARC-20"><path class="cls-4" d="m23.37,213.68c0-.19-.16-.35-.35-.35"/></g><g id="LINE-46"><line class="cls-4" x1="25.42" y1="213.34" x2="25.42" y2="211.62"/></g><g id="LINE-47"><line class="cls-4" x1="22.01" y1="213.34" x2="22.01" y2="211.62"/></g><g id="LINE-48"><line class="cls-4" x1="21.32" y1="201.76" x2="21.32" y2="200.37"/></g><g id="LINE-49"><line class="cls-4" x1="26.12" y1="201.76" x2="26.12" y2="200.37"/></g><g id="LINE-50"><line class="cls-4" x1="26.46" y1="198.98" x2="26.46" y2="200.37"/></g><g id="LINE-51"><line class="cls-4" x1="20.97" y1="198.98" x2="20.97" y2="200.37"/></g><g id="LINE-52"><line class="cls-4" x1="23.72" y1="198.98" x2="23.72" y2="200.37"/></g><g id="LINE-53"><line class="cls-4" x1="20.97" y1="198.98" x2="26.46" y2="198.98"/></g><g id="LINE-54"><line class="cls-4" x1="20.97" y1="200.37" x2="26.46" y2="200.37"/></g><g id="LINE-55"><line class="cls-4" x1="27.16" y1="196.34" x2="27.67" y2="196.34"/></g><g id="ARC-21"><path class="cls-4" d="m26.81,195.99c0,.19.16.35.35.35"/></g><g id="LINE-56"><line class="cls-4" x1="26.12" y1="196.69" x2="27.5" y2="196.69"/></g><g id="ARC-22"><path class="cls-4" d="m20.62,196.34c.19,0,.35-.16.35-.35"/></g><g id="LINE-57"><line class="cls-4" x1="19.33" y1="196.34" x2="20.62" y2="196.34"/></g><g id="LINE-58"><line class="cls-4" x1="19.25" y1="196.69" x2="21.32" y2="196.69"/></g><g id="ARC-23"><path class="cls-4" d="m21.32,196.69c1.47.92,3.33.92,4.8,0"/></g><g id="LINE-59"><line class="cls-4" x1="17.48" y1="198.07" x2="18.86" y2="198.07"/></g><g id="LINE-60"><line class="cls-4" x1="20.97" y1="203.08" x2="20.97" y2="201.76"/></g><g id="LINE-61"><line class="cls-4" x1="26.46" y1="203.08" x2="26.46" y2="201.76"/></g><g id="LINE-62"><line class="cls-4" x1="20.97" y1="201.76" x2="26.46" y2="201.76"/></g><g id="LWPOLYLINE-5"><polygon class="cls-4" points="23.72 204.31 21.32 205.7 21.32 208.47 23.72 209.86 26.12 208.47 26.12 205.7 23.72 204.31"/></g><g id="CIRCLE-5"><circle class="cls-4" cx="23.72" cy="207.08" r="2.77"/></g><g id="CIRCLE-6"><circle class="cls-4" cx="23.72" cy="207.08" r="4.85"/></g><g id="CIRCLE-7"><circle class="cls-4" cx="23.72" cy="207.08" r=".95"/></g><g id="LINE-63"><line class="cls-4" x1="27.16" y1="194.26" x2="28.19" y2="194.26"/></g><g id="LINE-64"><line class="cls-4" x1="27.16" y1="193.57" x2="28.19" y2="193.57"/></g><g id="LINE-65"><line class="cls-4" x1="27.16" y1="191.49" x2="27.67" y2="191.49"/></g><g id="ARC-24"><path class="cls-4" d="m27.16,191.49c-.19,0-.35.16-.35.35"/></g><g id="LINE-66"><line class="cls-4" x1="26.81" y1="193.22" x2="26.81" y2="191.84"/></g><g id="ARC-25"><path class="cls-4" d="m26.81,193.22c0,.19.16.35.35.35"/></g><g id="ARC-26"><path class="cls-4" d="m27.16,194.26c-.19,0-.35.16-.35.35"/></g><g id="LINE-67"><line class="cls-4" x1="26.12" y1="191.14" x2="27.5" y2="191.14"/></g><g id="ARC-27"><path class="cls-4" d="m20.62,193.57c.19,0,.35-.16.35-.35"/></g><g id="LINE-68"><line class="cls-4" x1="20.97" y1="193.22" x2="20.97" y2="191.84"/></g><g id="LINE-69"><line class="cls-4" x1="19.55" y1="193.57" x2="20.62" y2="193.57"/></g><g id="ARC-28"><path class="cls-4" d="m20.97,194.61c0-.19-.16-.35-.35-.35"/></g><g id="LINE-70"><line class="cls-4" x1="19.55" y1="194.26" x2="20.62" y2="194.26"/></g><g id="ARC-29"><path class="cls-4" d="m20.97,191.84c0-.19-.16-.35-.35-.35"/></g><g id="LINE-71"><line class="cls-4" x1="19.33" y1="191.49" x2="20.62" y2="191.49"/></g><g id="LINE-72"><line class="cls-4" x1="19.25" y1="191.14" x2="21.32" y2="191.14"/></g><g id="ARC-30"><path class="cls-4" d="m26.12,191.14c-1.47-.92-3.33-.92-4.8,0"/></g><g id="LINE-73"><line class="cls-4" x1="17.48" y1="189.76" x2="18.86" y2="189.76"/></g><g id="LWPOLYLINE-6"><path class="cls-4" d="m53.02,229.95c4.85,0,9.7-.48,14.45-1.44,3.73-.75,7.36-1.97,10.78-3.64,3.18-1.54,6.01-3.73,8.3-6.42,1.39-1.63,2.15-3.69,2.15-5.83v-11.09c0-2.14-.76-4.2-2.15-5.83-2.3-2.69-5.12-4.88-8.3-6.42-3.43-1.66-7.05-2.89-10.78-3.64-4.76-.96-9.6-1.44-14.45-1.44H17.33v45.74s35.69,0,35.69,0Z"/></g><g id="CIRCLE-8"><circle class="cls-4" cx="23.72" cy="207.08" r="2.77"/></g><g id="LWPOLYLINE-7"><path class="cls-4" d="m85.51,196.61c-2.17-2.54-4.85-4.61-7.86-6.07-3.32-1.61-6.83-2.8-10.45-3.52-4.67-.94-9.42-1.41-14.18-1.41-2.82,0-5.63.43-8.33,1.27-2.38.74-4.62,1.89-6.61,3.4s-3.53,3.3-4.69,5.42c-.99,1.79-1.5,3.81-1.5,5.85v11.09c0,2.05.52,4.06,1.5,5.85,1.16,2.12,2.76,3.96,4.69,5.42s4.23,2.65,6.61,3.4c2.7.84,5.5,1.27,8.33,1.27,4.76,0,9.51-.47,14.18-1.41,3.62-.73,7.13-1.91,10.45-3.52,3.01-1.46,5.68-3.53,7.86-6.07.32-.47.54-1.01.66-1.57s.12-1.13.01-1.69-.32-1.09-.63-1.56-.71-.88-1.18-1.19-.99-.53-1.55-.64-1.13-.11-1.69,0-1.09.33-1.56.65-.88.73-1.2,1.2c-1.35,2.01-3.1,3.72-5.13,5.03-2.24,1.44-4.69,2.52-7.27,3.21-3.07.82-6.23,1.23-9.4,1.23-1.18,0-2.37-.06-3.55-.17-1.62,0-3.23-.37-4.68-1.09-1.61-.79-3.03-1.92-4.18-3.29s-2.09-3.01-2.69-4.74c-.65-1.88-.98-3.85-.98-5.84,0-1.99.33-3.96.98-5.84.6-1.73,1.51-3.34,2.69-4.74s2.58-2.5,4.18-3.29c1.46-.72,3.06-1.09,4.68-1.09,1.18-.11,2.36-.17,3.55-.17,3.18,0,6.34.41,9.4,1.23,2.57.68,5.03,1.77,7.27,3.21,2.04,1.31,3.78,3.02,5.13,5.03.32.47.73.88,1.2,1.2s1,.54,1.56.65,1.13.11,1.69,0,1.08-.33,1.55-.64.87-.72,1.18-1.19.53-1,.63-1.56.1-1.13-.01-1.69-.34-1.09-.66-1.57Z"/></g><g id="LWPOLYLINE-8"><path class="cls-4" d="m54.59,212.63c-.63,0-1.25-.14-1.82-.41-.61-.29-1.16-.7-1.61-1.21s-.81-1.12-1.04-1.77c-.25-.69-.38-1.42-.38-2.15s.13-1.46.38-2.15c.23-.65.59-1.25,1.04-1.77s.99-.92,1.61-1.21c.57-.27,1.19-.41,1.82-.41"/></g><g id="LINE-74"><line class="cls-4" x1="81.99" y1="210.83" x2="81.99" y2="203.34"/></g><g id="LINE-75"><line class="cls-4" x1="21.32" y1="304.22" x2="21.32" y2="296.38"/></g><g id="LINE-76"><line class="cls-4" x1="26.12" y1="304.22" x2="26.12" y2="296.38"/></g><g id="LINE-77"><line class="cls-4" x1="26.81" y1="301.23" x2="26.81" y2="299.85"/></g><g id="ARC-31"><path class="cls-4" d="m27.5,301.93c.92-1.73.92-3.81,0-5.54"/></g><g id="LINE-78"><line class="cls-4" x1="20.97" y1="301.23" x2="20.97" y2="299.85"/></g><g id="ARC-32"><path class="cls-4" d="m18.86,303.31c.92-2.7.92-5.62,0-8.32"/></g><g id="LINE-79"><line class="cls-4" x1="17.48" y1="295" x2="17.48" y2="303.31"/></g><g id="LINE-80"><line class="cls-4" x1="23.37" y1="318.92" x2="23.37" y2="325.14"/></g><g id="LINE-81"><line class="cls-4" x1="24.06" y1="318.92" x2="24.06" y2="325.14"/></g><g id="ARC-33"><path class="cls-4" d="m23.37,325.14c0,.19.16.35.35.35s.35-.16.35-.35"/></g><g id="LINE-82"><line class="cls-4" x1="22.01" y1="318.57" x2="25.42" y2="318.57"/></g><g id="ARC-34"><path class="cls-4" d="m24.41,318.57c-.19,0-.35.16-.35.35"/></g><g id="ARC-35"><path class="cls-4" d="m23.37,318.92c0-.19-.16-.35-.35-.35"/></g><g id="LINE-83"><line class="cls-4" x1="25.42" y1="318.57" x2="25.42" y2="316.86"/></g><g id="LINE-84"><line class="cls-4" x1="22.01" y1="318.57" x2="22.01" y2="316.86"/></g><g id="LINE-85"><line class="cls-4" x1="21.32" y1="307" x2="21.32" y2="305.61"/></g><g id="LINE-86"><line class="cls-4" x1="26.12" y1="307" x2="26.12" y2="305.61"/></g><g id="LINE-87"><line class="cls-4" x1="26.46" y1="304.22" x2="26.46" y2="305.61"/></g><g id="LINE-88"><line class="cls-4" x1="20.97" y1="304.22" x2="20.97" y2="305.61"/></g><g id="LINE-89"><line class="cls-4" x1="23.72" y1="304.22" x2="23.72" y2="305.61"/></g><g id="LINE-90"><line class="cls-4" x1="20.97" y1="304.22" x2="26.46" y2="304.22"/></g><g id="LINE-91"><line class="cls-4" x1="20.97" y1="305.61" x2="26.46" y2="305.61"/></g><g id="LINE-92"><line class="cls-4" x1="27.16" y1="301.58" x2="27.67" y2="301.58"/></g><g id="ARC-36"><path class="cls-4" d="m26.81,301.23c0,.19.16.35.35.35"/></g><g id="LINE-93"><line class="cls-4" x1="26.12" y1="301.93" x2="27.5" y2="301.93"/></g><g id="ARC-37"><path class="cls-4" d="m20.62,301.58c.19,0,.35-.16.35-.35"/></g><g id="LINE-94"><line class="cls-4" x1="19.33" y1="301.58" x2="20.62" y2="301.58"/></g><g id="LINE-95"><line class="cls-4" x1="19.25" y1="301.93" x2="21.32" y2="301.93"/></g><g id="ARC-38"><path class="cls-4" d="m21.32,301.93c1.47.92,3.33.92,4.8,0"/></g><g id="LINE-96"><line class="cls-4" x1="17.48" y1="303.31" x2="18.86" y2="303.31"/></g><g id="LINE-97"><line class="cls-4" x1="20.97" y1="308.32" x2="20.97" y2="307"/></g><g id="LINE-98"><line class="cls-4" x1="26.46" y1="308.32" x2="26.46" y2="307"/></g><g id="LINE-99"><line class="cls-4" x1="20.97" y1="307" x2="26.46" y2="307"/></g><g id="LWPOLYLINE-9"><polygon class="cls-4" points="23.72 309.55 21.32 310.94 21.32 313.71 23.72 315.09 26.12 313.71 26.12 310.94 23.72 309.55"/></g><g id="CIRCLE-9"><circle class="cls-4" cx="23.72" cy="312.32" r="2.77"/></g><g id="CIRCLE-10"><circle class="cls-4" cx="23.72" cy="312.32" r="4.85"/></g><g id="CIRCLE-11"><circle class="cls-4" cx="23.72" cy="312.32" r=".95"/></g><g id="LINE-100"><line class="cls-4" x1="27.16" y1="299.5" x2="28.19" y2="299.5"/></g><g id="LINE-101"><line class="cls-4" x1="27.16" y1="298.81" x2="28.19" y2="298.81"/></g><g id="LINE-102"><line class="cls-4" x1="27.16" y1="296.73" x2="27.67" y2="296.73"/></g><g id="ARC-39"><path class="cls-4" d="m27.16,296.73c-.19,0-.35.16-.35.35"/></g><g id="LINE-103"><line class="cls-4" x1="26.81" y1="298.46" x2="26.81" y2="297.07"/></g><g id="ARC-40"><path class="cls-4" d="m26.81,298.46c0,.19.16.35.35.35"/></g><g id="ARC-41"><path class="cls-4" d="m27.16,299.5c-.19,0-.35.16-.35.35"/></g><g id="LINE-104"><line class="cls-4" x1="26.12" y1="296.38" x2="27.5" y2="296.38"/></g><g id="ARC-42"><path class="cls-4" d="m20.62,298.81c.19,0,.35-.16.35-.35"/></g><g id="LINE-105"><line class="cls-4" x1="20.97" y1="298.46" x2="20.97" y2="297.07"/></g><g id="LINE-106"><line class="cls-4" x1="19.55" y1="298.81" x2="20.62" y2="298.81"/></g><g id="ARC-43"><path class="cls-4" d="m20.97,299.85c0-.19-.16-.35-.35-.35"/></g><g id="LINE-107"><line class="cls-4" x1="19.55" y1="299.5" x2="20.62" y2="299.5"/></g><g id="ARC-44"><path class="cls-4" d="m20.97,297.07c0-.19-.16-.35-.35-.35"/></g><g id="LINE-108"><line class="cls-4" x1="19.33" y1="296.73" x2="20.62" y2="296.73"/></g><g id="LINE-109"><line class="cls-4" x1="19.25" y1="296.38" x2="21.32" y2="296.38"/></g><g id="ARC-45"><path class="cls-4" d="m26.12,296.38c-1.47-.92-3.33-.92-4.8,0"/></g><g id="LINE-110"><line class="cls-4" x1="17.48" y1="295" x2="18.86" y2="295"/></g><g id="LWPOLYLINE-10"><path class="cls-4" d="m53.02,335.19c4.85,0,9.7-.48,14.45-1.44,3.73-.75,7.36-1.97,10.78-3.64,3.18-1.54,6.01-3.73,8.3-6.42,1.39-1.63,2.15-3.69,2.15-5.83v-11.09c0-2.14-.76-4.2-2.15-5.83-2.3-2.69-5.12-4.88-8.3-6.42-3.43-1.66-7.05-2.89-10.78-3.64-4.76-.96-9.6-1.44-14.45-1.44H17.33v45.74s35.69,0,35.69,0Z"/></g><g id="CIRCLE-12"><circle class="cls-4" cx="23.72" cy="312.32" r="2.77"/></g><g id="LWPOLYLINE-11"><path class="cls-4" d="m85.51,301.85c-2.17-2.54-4.85-4.61-7.86-6.07-3.32-1.61-6.83-2.8-10.45-3.52-4.67-.94-9.42-1.41-14.18-1.41-2.82,0-5.63.43-8.33,1.27-2.38.74-4.62,1.89-6.61,3.4s-3.53,3.3-4.69,5.42c-.99,1.79-1.5,3.81-1.5,5.85v11.09c0,2.05.52,4.06,1.5,5.85,1.16,2.12,2.76,3.96,4.69,5.42s4.23,2.65,6.61,3.4c2.7.84,5.5,1.27,8.33,1.27,4.76,0,9.51-.47,14.18-1.41,3.62-.73,7.13-1.91,10.45-3.52,3.01-1.46,5.68-3.53,7.86-6.07.32-.47.54-1.01.66-1.57s.12-1.13.01-1.69-.32-1.09-.63-1.56-.71-.88-1.18-1.19-.99-.53-1.55-.64-1.13-.11-1.69,0-1.09.33-1.56.65-.88.73-1.2,1.2c-1.35,2.01-3.1,3.72-5.13,5.03-2.24,1.44-4.69,2.52-7.27,3.21-3.07.82-6.23,1.23-9.4,1.23-1.18,0-2.37-.06-3.55-.17-1.62,0-3.23-.37-4.68-1.09-1.61-.79-3.03-1.92-4.18-3.29s-2.09-3.01-2.69-4.74c-.65-1.88-.98-3.85-.98-5.84,0-1.99.33-3.96.98-5.84.6-1.73,1.51-3.34,2.69-4.74s2.58-2.5,4.18-3.29c1.46-.72,3.06-1.09,4.68-1.09,1.18-.11,2.36-.17,3.55-.17,3.18,0,6.34.41,9.4,1.23,2.57.68,5.03,1.77,7.27,3.21,2.04,1.31,3.78,3.02,5.13,5.03.32.47.73.88,1.2,1.2s1,.54,1.56.65,1.13.11,1.69,0,1.08-.33,1.55-.64.87-.72,1.18-1.19.53-1,.63-1.56.1-1.13-.01-1.69-.34-1.09-.66-1.57Z"/></g><g id="LWPOLYLINE-12"><path class="cls-4" d="m54.59,317.87c-.63,0-1.25-.14-1.82-.41-.61-.29-1.16-.7-1.61-1.21s-.81-1.12-1.04-1.77c-.25-.69-.38-1.42-.38-2.15s.13-1.46.38-2.15c.23-.65.59-1.25,1.04-1.77s.99-.92,1.61-1.21c.57-.27,1.19-.41,1.82-.41"/></g><g id="LINE-111"><line class="cls-4" x1="81.99" y1="316.07" x2="81.99" y2="308.58"/></g><g id="CIRCLE-13"><circle class="cls-4" cx="25.22" cy="474.45" r="2.22"/></g><g id="CIRCLE-14"><circle class="cls-4" cx="25.22" cy="409.02" r="2.22"/></g><g id="CIRCLE-15"><circle class="cls-4" cx="25.22" cy="430.09" r="2.22"/></g><g id="CIRCLE-16"><circle class="cls-4" cx="25.22" cy="496.63" r="2.22"/></g><g id="CIRCLE-17"><circle class="cls-4" cx="40.74" cy="419" r="3.33"/></g><g id="CIRCLE-18"><circle class="cls-4" cx="40.74" cy="485.54" r="3.33"/></g><g id="LWPOLYLINE-13"><path class="cls-4" d="m45.18,394.61l-5.53,1.64c-2.19,1.42-4.05,3.3-5.45,5.5-1.48,2.32-2.58,4.85-3.29,7.51-.84,3.18-1.26,6.45-1.26,9.74s.42,6.56,1.26,9.74c.7,2.66,1.81,5.19,3.29,7.51s3.26,4.08,5.45,5.5l5.53,1.64,5.53-1.64c2.19-1.42,4.05-3.3,5.45-5.5,1.48-2.32,2.58-4.85,3.29-7.51.84-3.18,1.26-6.45,1.26-9.74s-.42-6.56-1.26-9.74c-.7-2.66-1.81-5.19-3.29-7.51s-3.26-4.08-5.45-5.5l-5.53-1.64Z"/></g><g id="LWPOLYLINE-14"><path class="cls-4" d="m45.18,462.25l-5.53,1.64c-2.19,1.42-4.05,3.3-5.45,5.5-1.48,2.32-2.58,4.85-3.29,7.51-.84,3.18-1.26,6.45-1.26,9.74s.42,6.56,1.26,9.74c.7,2.66,1.81,5.19,3.29,7.51s3.26,4.08,5.45,5.5l5.53,1.64,5.53-1.64c2.19-1.42,4.05-3.3,5.45-5.5,1.48-2.32,2.58-4.85,3.29-7.51.84-3.18,1.26-6.45,1.26-9.74s-.42-6.56-1.26-9.74c-.7-2.66-1.81-5.19-3.29-7.51s-3.26-4.08-5.45-5.5l-5.53-1.64Z"/></g><g id="LINE-112"><line class="cls-4" x1="573.34" y1="96.73" x2="573.34" y2="88.89"/></g><g id="LINE-113"><line class="cls-4" x1="568.54" y1="96.73" x2="568.54" y2="88.89"/></g><g id="LINE-114"><line class="cls-4" x1="567.85" y1="93.74" x2="567.85" y2="92.35"/></g><g id="ARC-46"><path class="cls-4" d="m567.15,94.43c-.92-1.73-.92-3.81,0-5.54"/></g><g id="LINE-115"><line class="cls-4" x1="573.69" y1="93.74" x2="573.69" y2="92.35"/></g><g id="ARC-47"><path class="cls-4" d="m575.79,95.82c-.92-2.7-.92-5.62,0-8.32"/></g><g id="LINE-116"><line class="cls-4" x1="577.18" y1="87.5" x2="577.18" y2="95.82"/></g><g id="LINE-117"><line class="cls-4" x1="571.29" y1="111.43" x2="571.29" y2="117.65"/></g><g id="LINE-118"><line class="cls-4" x1="570.59" y1="111.43" x2="570.59" y2="117.65"/></g><g id="ARC-48"><path class="cls-4" d="m571.29,117.65c0,.19-.16.35-.35.35s-.35-.16-.35-.35"/></g><g id="LINE-119"><line class="cls-4" x1="572.65" y1="111.08" x2="569.23" y2="111.08"/></g><g id="ARC-49"><path class="cls-4" d="m570.25,111.08c.19,0,.35.16.35.35"/></g><g id="ARC-50"><path class="cls-4" d="m571.29,111.43c0-.19.16-.35.35-.35"/></g><g id="LINE-120"><line class="cls-4" x1="569.23" y1="111.08" x2="569.23" y2="109.37"/></g><g id="LINE-121"><line class="cls-4" x1="572.65" y1="111.08" x2="572.65" y2="109.37"/></g><g id="LINE-122"><line class="cls-4" x1="573.34" y1="99.5" x2="573.34" y2="98.11"/></g><g id="LINE-123"><line class="cls-4" x1="568.54" y1="99.5" x2="568.54" y2="98.11"/></g><g id="LINE-124"><line class="cls-4" x1="568.19" y1="96.73" x2="568.19" y2="98.11"/></g><g id="LINE-125"><line class="cls-4" x1="573.69" y1="96.73" x2="573.69" y2="98.11"/></g><g id="LINE-126"><line class="cls-4" x1="570.94" y1="96.73" x2="570.94" y2="98.11"/></g><g id="LINE-127"><line class="cls-4" x1="573.69" y1="96.73" x2="568.19" y2="96.73"/></g><g id="LINE-128"><line class="cls-4" x1="573.69" y1="98.11" x2="568.19" y2="98.11"/></g><g id="LINE-129"><line class="cls-4" x1="567.5" y1="94.08" x2="566.98" y2="94.08"/></g><g id="ARC-51"><path class="cls-4" d="m567.85,93.74c0,.19-.16.35-.35.35"/></g><g id="LINE-130"><line class="cls-4" x1="568.54" y1="94.43" x2="567.15" y2="94.43"/></g><g id="ARC-52"><path class="cls-4" d="m574.03,94.08c-.19,0-.35-.16-.35-.35"/></g><g id="LINE-131"><line class="cls-4" x1="575.33" y1="94.08" x2="574.03" y2="94.08"/></g><g id="LINE-132"><line class="cls-4" x1="575.4" y1="94.43" x2="573.34" y2="94.43"/></g><g id="ARC-53"><path class="cls-4" d="m573.34,94.43c-1.47.92-3.33.92-4.8,0"/></g><g id="LINE-133"><line class="cls-4" x1="577.18" y1="95.82" x2="575.79" y2="95.82"/></g><g id="LINE-134"><line class="cls-4" x1="573.69" y1="100.83" x2="573.69" y2="99.5"/></g><g id="LINE-135"><line class="cls-4" x1="568.19" y1="100.83" x2="568.19" y2="99.5"/></g><g id="LINE-136"><line class="cls-4" x1="573.69" y1="99.5" x2="568.19" y2="99.5"/></g><g id="LWPOLYLINE-15"><polygon class="cls-4" points="570.94 102.06 573.34 103.44 573.34 106.21 570.94 107.6 568.54 106.21 568.54 103.44 570.94 102.06"/></g><g id="CIRCLE-19"><circle class="cls-4" cx="570.94" cy="104.83" r="2.77"/></g><g id="CIRCLE-20"><circle class="cls-4" cx="570.94" cy="104.83" r="4.85"/></g><g id="CIRCLE-21"><circle class="cls-4" cx="570.94" cy="104.83" r=".95"/></g><g id="LINE-137"><line class="cls-4" x1="567.5" y1="92.01" x2="566.47" y2="92.01"/></g><g id="LINE-138"><line class="cls-4" x1="567.5" y1="91.31" x2="566.47" y2="91.31"/></g><g id="LINE-139"><line class="cls-4" x1="567.5" y1="89.23" x2="566.98" y2="89.23"/></g><g id="ARC-54"><path class="cls-4" d="m567.5,89.23c.19,0,.35.16.35.35"/></g><g id="LINE-140"><line class="cls-4" x1="567.85" y1="90.97" x2="567.85" y2="89.58"/></g><g id="ARC-55"><path class="cls-4" d="m567.85,90.97c0,.19-.16.35-.35.35"/></g><g id="ARC-56"><path class="cls-4" d="m567.5,92.01c.19,0,.35.16.35.35"/></g><g id="LINE-141"><line class="cls-4" x1="568.54" y1="88.89" x2="567.15" y2="88.89"/></g><g id="ARC-57"><path class="cls-4" d="m574.03,91.31c-.19,0-.35-.16-.35-.35"/></g><g id="LINE-142"><line class="cls-4" x1="573.69" y1="90.97" x2="573.69" y2="89.58"/></g><g id="LINE-143"><line class="cls-4" x1="575.1" y1="91.31" x2="574.03" y2="91.31"/></g><g id="ARC-58"><path class="cls-4" d="m573.69,92.35c0-.19.16-.35.35-.35"/></g><g id="LINE-144"><line class="cls-4" x1="575.1" y1="92.01" x2="574.03" y2="92.01"/></g><g id="ARC-59"><path class="cls-4" d="m573.69,89.58c0-.19.16-.35.35-.35"/></g><g id="LINE-145"><line class="cls-4" x1="575.33" y1="89.23" x2="574.03" y2="89.23"/></g><g id="LINE-146"><line class="cls-4" x1="575.4" y1="88.89" x2="573.34" y2="88.89"/></g><g id="ARC-60"><path class="cls-4" d="m568.54,88.89c1.47-.92,3.33-.92,4.8,0"/></g><g id="LINE-147"><line class="cls-4" x1="577.18" y1="87.5" x2="575.79" y2="87.5"/></g><g id="LWPOLYLINE-16"><path class="cls-4" d="m541.63,127.7c-4.85,0-9.7-.48-14.45-1.44-3.73-.75-7.36-1.97-10.78-3.64-3.18-1.54-6.01-3.73-8.3-6.42-1.39-1.63-2.15-3.69-2.15-5.83v-11.09c0-2.14.76-4.2,2.15-5.83,2.3-2.69,5.12-4.88,8.3-6.42,3.43-1.66,7.05-2.89,10.78-3.64,4.76-.96,9.6-1.44,14.45-1.44h35.69v45.74h-35.69Z"/></g><g id="CIRCLE-22"><circle class="cls-4" cx="570.94" cy="104.83" r="2.77"/></g><g id="LWPOLYLINE-17"><path class="cls-4" d="m509.14,94.35c2.17-2.54,4.85-4.61,7.86-6.07,3.32-1.61,6.83-2.8,10.45-3.52,4.67-.94,9.42-1.41,14.18-1.41,2.82,0,5.63.43,8.33,1.27,2.38.74,4.62,1.89,6.61,3.4s3.53,3.3,4.69,5.42c.99,1.79,1.5,3.81,1.5,5.85v11.09c0,2.05-.52,4.06-1.5,5.85-1.16,2.12-2.76,3.96-4.69,5.42s-4.23,2.65-6.61,3.4c-2.7.84-5.5,1.27-8.33,1.27-4.76,0-9.51-.47-14.18-1.41-3.62-.73-7.13-1.91-10.45-3.52-3.01-1.46-5.68-3.53-7.86-6.07-.32-.47-.54-1.01-.66-1.57s-.12-1.13-.01-1.69.32-1.09.63-1.56.71-.88,1.18-1.19.99-.53,1.55-.64,1.13-.11,1.69,0,1.09.33,1.56.65.88.73,1.2,1.2c1.35,2.01,3.1,3.72,5.13,5.03,2.24,1.44,4.69,2.52,7.27,3.21,3.07.82,6.23,1.23,9.4,1.23,1.18,0,2.37-.06,3.55-.17,1.62,0,3.23-.37,4.68-1.09,1.61-.79,3.03-1.92,4.18-3.29s2.09-3.01,2.69-4.74c.65-1.88.98-3.85.98-5.84s-.33-3.96-.98-5.84c-.6-1.73-1.51-3.34-2.69-4.74s-2.58-2.5-4.18-3.29c-1.46-.72-3.06-1.09-4.68-1.09-1.18-.11-2.36-.17-3.55-.17-3.18,0-6.34.41-9.4,1.23-2.57.68-5.03,1.77-7.27,3.21-2.04,1.31-3.78,3.02-5.13,5.03-.32.47-.73.88-1.2,1.2s-1,.54-1.56.65-1.13.11-1.69,0-1.08-.33-1.55-.64-.87-.72-1.18-1.19-.53-1-.63-1.56-.1-1.13.01-1.69.34-1.09.66-1.57Z"/></g><g id="LWPOLYLINE-18"><path class="cls-4" d="m540.07,110.37c.63,0,1.25-.14,1.82-.41.61-.29,1.16-.7,1.61-1.21s.81-1.12,1.04-1.77c.25-.69.38-1.42.38-2.15s-.13-1.46-.38-2.15c-.23-.65-.59-1.25-1.04-1.77s-.99-.92-1.61-1.21c-.57-.27-1.19-.41-1.82-.41"/></g><g id="LINE-148"><line class="cls-4" x1="512.67" y1="108.57" x2="512.67" y2="101.08"/></g><g id="LINE-149"><line class="cls-4" x1="573.34" y1="198.98" x2="573.34" y2="191.14"/></g><g id="LINE-150"><line class="cls-4" x1="568.54" y1="198.98" x2="568.54" y2="191.14"/></g><g id="LINE-151"><line class="cls-4" x1="567.85" y1="195.99" x2="567.85" y2="194.61"/></g><g id="ARC-61"><path class="cls-4" d="m567.15,196.69c-.92-1.73-.92-3.81,0-5.54"/></g><g id="LINE-152"><line class="cls-4" x1="573.69" y1="195.99" x2="573.69" y2="194.61"/></g><g id="ARC-62"><path class="cls-4" d="m575.79,198.07c-.92-2.7-.92-5.62,0-8.32"/></g><g id="LINE-153"><line class="cls-4" x1="577.18" y1="189.76" x2="577.18" y2="198.07"/></g><g id="LINE-154"><line class="cls-4" x1="571.29" y1="213.68" x2="571.29" y2="219.91"/></g><g id="LINE-155"><line class="cls-4" x1="570.59" y1="213.68" x2="570.59" y2="219.91"/></g><g id="ARC-63"><path class="cls-4" d="m571.29,219.91c0,.19-.16.35-.35.35s-.35-.16-.35-.35"/></g><g id="LINE-156"><line class="cls-4" x1="572.65" y1="213.34" x2="569.23" y2="213.34"/></g><g id="ARC-64"><path class="cls-4" d="m570.25,213.34c.19,0,.35.16.35.35"/></g><g id="ARC-65"><path class="cls-4" d="m571.29,213.68c0-.19.16-.35.35-.35"/></g><g id="LINE-157"><line class="cls-4" x1="569.23" y1="213.34" x2="569.23" y2="211.62"/></g><g id="LINE-158"><line class="cls-4" x1="572.65" y1="213.34" x2="572.65" y2="211.62"/></g><g id="LINE-159"><line class="cls-4" x1="573.34" y1="201.76" x2="573.34" y2="200.37"/></g><g id="LINE-160"><line class="cls-4" x1="568.54" y1="201.76" x2="568.54" y2="200.37"/></g><g id="LINE-161"><line class="cls-4" x1="568.19" y1="198.98" x2="568.19" y2="200.37"/></g><g id="LINE-162"><line class="cls-4" x1="573.69" y1="198.98" x2="573.69" y2="200.37"/></g><g id="LINE-163"><line class="cls-4" x1="570.94" y1="198.98" x2="570.94" y2="200.37"/></g><g id="LINE-164"><line class="cls-4" x1="573.69" y1="198.98" x2="568.19" y2="198.98"/></g><g id="LINE-165"><line class="cls-4" x1="573.69" y1="200.37" x2="568.19" y2="200.37"/></g><g id="LINE-166"><line class="cls-4" x1="567.5" y1="196.34" x2="566.98" y2="196.34"/></g><g id="ARC-66"><path class="cls-4" d="m567.85,195.99c0,.19-.16.35-.35.35"/></g><g id="LINE-167"><line class="cls-4" x1="568.54" y1="196.69" x2="567.15" y2="196.69"/></g><g id="ARC-67"><path class="cls-4" d="m574.03,196.34c-.19,0-.35-.16-.35-.35"/></g><g id="LINE-168"><line class="cls-4" x1="575.33" y1="196.34" x2="574.03" y2="196.34"/></g><g id="LINE-169"><line class="cls-4" x1="575.4" y1="196.69" x2="573.34" y2="196.69"/></g><g id="ARC-68"><path class="cls-4" d="m573.34,196.69c-1.47.92-3.33.92-4.8,0"/></g><g id="LINE-170"><line class="cls-4" x1="577.18" y1="198.07" x2="575.79" y2="198.07"/></g><g id="LINE-171"><line class="cls-4" x1="573.69" y1="203.08" x2="573.69" y2="201.76"/></g><g id="LINE-172"><line class="cls-4" x1="568.19" y1="203.08" x2="568.19" y2="201.76"/></g><g id="LINE-173"><line class="cls-4" x1="573.69" y1="201.76" x2="568.19" y2="201.76"/></g><g id="LWPOLYLINE-19"><polygon class="cls-4" points="570.94 204.31 573.34 205.7 573.34 208.47 570.94 209.86 568.54 208.47 568.54 205.7 570.94 204.31"/></g><g id="CIRCLE-23"><circle class="cls-4" cx="570.94" cy="207.08" r="2.77"/></g><g id="CIRCLE-24"><circle class="cls-4" cx="570.94" cy="207.08" r="4.85"/></g><g id="CIRCLE-25"><circle class="cls-4" cx="570.94" cy="207.08" r=".95"/></g><g id="LINE-174"><line class="cls-4" x1="567.5" y1="194.26" x2="566.47" y2="194.26"/></g><g id="LINE-175"><line class="cls-4" x1="567.5" y1="193.57" x2="566.47" y2="193.57"/></g><g id="LINE-176"><line class="cls-4" x1="567.5" y1="191.49" x2="566.98" y2="191.49"/></g><g id="ARC-69"><path class="cls-4" d="m567.5,191.49c.19,0,.35.16.35.35"/></g><g id="LINE-177"><line class="cls-4" x1="567.85" y1="193.22" x2="567.85" y2="191.84"/></g><g id="ARC-70"><path class="cls-4" d="m567.85,193.22c0,.19-.16.35-.35.35"/></g><g id="ARC-71"><path class="cls-4" d="m567.5,194.26c.19,0,.35.16.35.35"/></g><g id="LINE-178"><line class="cls-4" x1="568.54" y1="191.14" x2="567.15" y2="191.14"/></g><g id="ARC-72"><path class="cls-4" d="m574.03,193.57c-.19,0-.35-.16-.35-.35"/></g><g id="LINE-179"><line class="cls-4" x1="573.69" y1="193.22" x2="573.69" y2="191.84"/></g><g id="LINE-180"><line class="cls-4" x1="575.1" y1="193.57" x2="574.03" y2="193.57"/></g><g id="ARC-73"><path class="cls-4" d="m573.69,194.61c0-.19.16-.35.35-.35"/></g><g id="LINE-181"><line class="cls-4" x1="575.1" y1="194.26" x2="574.03" y2="194.26"/></g><g id="ARC-74"><path class="cls-4" d="m573.69,191.84c0-.19.16-.35.35-.35"/></g><g id="LINE-182"><line class="cls-4" x1="575.33" y1="191.49" x2="574.03" y2="191.49"/></g><g id="LINE-183"><line class="cls-4" x1="575.4" y1="191.14" x2="573.34" y2="191.14"/></g><g id="ARC-75"><path class="cls-4" d="m568.54,191.14c1.47-.92,3.33-.92,4.8,0"/></g><g id="LINE-184"><line class="cls-4" x1="577.18" y1="189.76" x2="575.79" y2="189.76"/></g><g id="LWPOLYLINE-20"><path class="cls-4" d="m541.63,229.95c-4.85,0-9.7-.48-14.45-1.44-3.73-.75-7.36-1.97-10.78-3.64-3.18-1.54-6.01-3.73-8.3-6.42-1.39-1.63-2.15-3.69-2.15-5.83v-11.09c0-2.14.76-4.2,2.15-5.83,2.3-2.69,5.12-4.88,8.3-6.42,3.43-1.66,7.05-2.89,10.78-3.64,4.76-.96,9.6-1.44,14.45-1.44h35.69v45.74h-35.69Z"/></g><g id="CIRCLE-26"><circle class="cls-4" cx="570.94" cy="207.08" r="2.77"/></g><g id="LWPOLYLINE-21"><path class="cls-4" d="m509.14,196.61c2.17-2.54,4.85-4.61,7.86-6.07,3.32-1.61,6.83-2.8,10.45-3.52,4.67-.94,9.42-1.41,14.18-1.41,2.82,0,5.63.43,8.33,1.27,2.38.74,4.62,1.89,6.61,3.4s3.53,3.3,4.69,5.42c.99,1.79,1.5,3.81,1.5,5.85v11.09c0,2.05-.52,4.06-1.5,5.85-1.16,2.12-2.76,3.96-4.69,5.42s-4.23,2.65-6.61,3.4c-2.7.84-5.5,1.27-8.33,1.27-4.76,0-9.51-.47-14.18-1.41-3.62-.73-7.13-1.91-10.45-3.52-3.01-1.46-5.68-3.53-7.86-6.07-.32-.47-.54-1.01-.66-1.57s-.12-1.13-.01-1.69.32-1.09.63-1.56.71-.88,1.18-1.19.99-.53,1.55-.64,1.13-.11,1.69,0,1.09.33,1.56.65.88.73,1.2,1.2c1.35,2.01,3.1,3.72,5.13,5.03,2.24,1.44,4.69,2.52,7.27,3.21,3.07.82,6.23,1.23,9.4,1.23,1.18,0,2.37-.06,3.55-.17,1.62,0,3.23-.37,4.68-1.09,1.61-.79,3.03-1.92,4.18-3.29s2.09-3.01,2.69-4.74c.65-1.88.98-3.85.98-5.84s-.33-3.96-.98-5.84c-.6-1.73-1.51-3.34-2.69-4.74s-2.58-2.5-4.18-3.29c-1.46-.72-3.06-1.09-4.68-1.09-1.18-.11-2.36-.17-3.55-.17-3.18,0-6.34.41-9.4,1.23-2.57.68-5.03,1.77-7.27,3.21-2.04,1.31-3.78,3.02-5.13,5.03-.32.47-.73.88-1.2,1.2s-1,.54-1.56.65-1.13.11-1.69,0-1.08-.33-1.55-.64-.87-.72-1.18-1.19-.53-1-.63-1.56-.1-1.13.01-1.69.34-1.09.66-1.57Z"/></g><g id="LWPOLYLINE-22"><path class="cls-4" d="m540.07,212.63c.63,0,1.25-.14,1.82-.41.61-.29,1.16-.7,1.61-1.21s.81-1.12,1.04-1.77c.25-.69.38-1.42.38-2.15s-.13-1.46-.38-2.15c-.23-.65-.59-1.25-1.04-1.77s-.99-.92-1.61-1.21c-.57-.27-1.19-.41-1.82-.41"/></g><g id="LINE-185"><line class="cls-4" x1="512.67" y1="210.83" x2="512.67" y2="203.34"/></g><g id="LINE-186"><line class="cls-4" x1="573.34" y1="304.22" x2="573.34" y2="296.38"/></g><g id="LINE-187"><line class="cls-4" x1="568.54" y1="304.22" x2="568.54" y2="296.38"/></g><g id="LINE-188"><line class="cls-4" x1="567.85" y1="301.23" x2="567.85" y2="299.85"/></g><g id="ARC-76"><path class="cls-4" d="m567.15,301.93c-.92-1.73-.92-3.81,0-5.54"/></g><g id="LINE-189"><line class="cls-4" x1="573.69" y1="301.23" x2="573.69" y2="299.85"/></g><g id="ARC-77"><path class="cls-4" d="m575.79,303.31c-.92-2.7-.92-5.62,0-8.32"/></g><g id="LINE-190"><line class="cls-4" x1="577.18" y1="295" x2="577.18" y2="303.31"/></g><g id="LINE-191"><line class="cls-4" x1="571.29" y1="318.92" x2="571.29" y2="325.14"/></g><g id="LINE-192"><line class="cls-4" x1="570.59" y1="318.92" x2="570.59" y2="325.14"/></g><g id="ARC-78"><path class="cls-4" d="m571.29,325.14c0,.19-.16.35-.35.35s-.35-.16-.35-.35"/></g><g id="LINE-193"><line class="cls-4" x1="572.65" y1="318.57" x2="569.23" y2="318.57"/></g><g id="ARC-79"><path class="cls-4" d="m570.25,318.57c.19,0,.35.16.35.35"/></g><g id="ARC-80"><path class="cls-4" d="m571.29,318.92c0-.19.16-.35.35-.35"/></g><g id="LINE-194"><line class="cls-4" x1="569.23" y1="318.57" x2="569.23" y2="316.86"/></g><g id="LINE-195"><line class="cls-4" x1="572.65" y1="318.57" x2="572.65" y2="316.86"/></g><g id="LINE-196"><line class="cls-4" x1="573.34" y1="307" x2="573.34" y2="305.61"/></g><g id="LINE-197"><line class="cls-4" x1="568.54" y1="307" x2="568.54" y2="305.61"/></g><g id="LINE-198"><line class="cls-4" x1="568.19" y1="304.22" x2="568.19" y2="305.61"/></g><g id="LINE-199"><line class="cls-4" x1="573.69" y1="304.22" x2="573.69" y2="305.61"/></g><g id="LINE-200"><line class="cls-4" x1="570.94" y1="304.22" x2="570.94" y2="305.61"/></g><g id="LINE-201"><line class="cls-4" x1="573.69" y1="304.22" x2="568.19" y2="304.22"/></g><g id="LINE-202"><line class="cls-4" x1="573.69" y1="305.61" x2="568.19" y2="305.61"/></g><g id="LINE-203"><line class="cls-4" x1="567.5" y1="301.58" x2="566.98" y2="301.58"/></g><g id="ARC-81"><path class="cls-4" d="m567.85,301.23c0,.19-.16.35-.35.35"/></g><g id="LINE-204"><line class="cls-4" x1="568.54" y1="301.93" x2="567.15" y2="301.93"/></g><g id="ARC-82"><path class="cls-4" d="m574.03,301.58c-.19,0-.35-.16-.35-.35"/></g><g id="LINE-205"><line class="cls-4" x1="575.33" y1="301.58" x2="574.03" y2="301.58"/></g><g id="LINE-206"><line class="cls-4" x1="575.4" y1="301.93" x2="573.34" y2="301.93"/></g><g id="ARC-83"><path class="cls-4" d="m573.34,301.93c-1.47.92-3.33.92-4.8,0"/></g><g id="LINE-207"><line class="cls-4" x1="577.18" y1="303.31" x2="575.79" y2="303.31"/></g><g id="LINE-208"><line class="cls-4" x1="573.69" y1="308.32" x2="573.69" y2="307"/></g><g id="LINE-209"><line class="cls-4" x1="568.19" y1="308.32" x2="568.19" y2="307"/></g><g id="LINE-210"><line class="cls-4" x1="573.69" y1="307" x2="568.19" y2="307"/></g><g id="LWPOLYLINE-23"><polygon class="cls-4" points="570.94 309.55 573.34 310.94 573.34 313.71 570.94 315.09 568.54 313.71 568.54 310.94 570.94 309.55"/></g><g id="CIRCLE-27"><circle class="cls-4" cx="570.94" cy="312.32" r="2.77"/></g><g id="CIRCLE-28"><circle class="cls-4" cx="570.94" cy="312.32" r="4.85"/></g><g id="CIRCLE-29"><circle class="cls-4" cx="570.94" cy="312.32" r=".95"/></g><g id="LINE-211"><line class="cls-4" x1="567.5" y1="299.5" x2="566.47" y2="299.5"/></g><g id="LINE-212"><line class="cls-4" x1="567.5" y1="298.81" x2="566.47" y2="298.81"/></g><g id="LINE-213"><line class="cls-4" x1="567.5" y1="296.73" x2="566.98" y2="296.73"/></g><g id="ARC-84"><path class="cls-4" d="m567.5,296.73c.19,0,.35.16.35.35"/></g><g id="LINE-214"><line class="cls-4" x1="567.85" y1="298.46" x2="567.85" y2="297.07"/></g><g id="ARC-85"><path class="cls-4" d="m567.85,298.46c0,.19-.16.35-.35.35"/></g><g id="ARC-86"><path class="cls-4" d="m567.5,299.5c.19,0,.35.16.35.35"/></g><g id="LINE-215"><line class="cls-4" x1="568.54" y1="296.38" x2="567.15" y2="296.38"/></g><g id="ARC-87"><path class="cls-4" d="m574.03,298.81c-.19,0-.35-.16-.35-.35"/></g><g id="LINE-216"><line class="cls-4" x1="573.69" y1="298.46" x2="573.69" y2="297.07"/></g><g id="LINE-217"><line class="cls-4" x1="575.1" y1="298.81" x2="574.03" y2="298.81"/></g><g id="ARC-88"><path class="cls-4" d="m573.69,299.85c0-.19.16-.35.35-.35"/></g><g id="LINE-218"><line class="cls-4" x1="575.1" y1="299.5" x2="574.03" y2="299.5"/></g><g id="ARC-89"><path class="cls-4" d="m573.69,297.07c0-.19.16-.35.35-.35"/></g><g id="LINE-219"><line class="cls-4" x1="575.33" y1="296.73" x2="574.03" y2="296.73"/></g><g id="LINE-220"><line class="cls-4" x1="575.4" y1="296.38" x2="573.34" y2="296.38"/></g><g id="ARC-90"><path class="cls-4" d="m568.54,296.38c1.47-.92,3.33-.92,4.8,0"/></g><g id="LINE-221"><line class="cls-4" x1="577.18" y1="295" x2="575.79" y2="295"/></g><g id="LWPOLYLINE-24"><path class="cls-4" d="m541.63,335.19c-4.85,0-9.7-.48-14.45-1.44-3.73-.75-7.36-1.97-10.78-3.64-3.18-1.54-6.01-3.73-8.3-6.42-1.39-1.63-2.15-3.69-2.15-5.83v-11.09c0-2.14.76-4.2,2.15-5.83,2.3-2.69,5.12-4.88,8.3-6.42,3.43-1.66,7.05-2.89,10.78-3.64,4.76-.96,9.6-1.44,14.45-1.44h35.69v45.74h-35.69Z"/></g><g id="CIRCLE-30"><circle class="cls-4" cx="570.94" cy="312.32" r="2.77"/></g><g id="LWPOLYLINE-25"><path class="cls-4" d="m509.14,301.85c2.17-2.54,4.85-4.61,7.86-6.07,3.32-1.61,6.83-2.8,10.45-3.52,4.67-.94,9.42-1.41,14.18-1.41,2.82,0,5.63.43,8.33,1.27,2.38.74,4.62,1.89,6.61,3.4s3.53,3.3,4.69,5.42c.99,1.79,1.5,3.81,1.5,5.85v11.09c0,2.05-.52,4.06-1.5,5.85-1.16,2.12-2.76,3.96-4.69,5.42s-4.23,2.65-6.61,3.4c-2.7.84-5.5,1.27-8.33,1.27-4.76,0-9.51-.47-14.18-1.41-3.62-.73-7.13-1.91-10.45-3.52-3.01-1.46-5.68-3.53-7.86-6.07-.32-.47-.54-1.01-.66-1.57s-.12-1.13-.01-1.69.32-1.09.63-1.56.71-.88,1.18-1.19.99-.53,1.55-.64,1.13-.11,1.69,0,1.09.33,1.56.65.88.73,1.2,1.2c1.35,2.01,3.1,3.72,5.13,5.03,2.24,1.44,4.69,2.52,7.27,3.21,3.07.82,6.23,1.23,9.4,1.23,1.18,0,2.37-.06,3.55-.17,1.62,0,3.23-.37,4.68-1.09,1.61-.79,3.03-1.92,4.18-3.29s2.09-3.01,2.69-4.74c.65-1.88.98-3.85.98-5.84s-.33-3.96-.98-5.84c-.6-1.73-1.51-3.34-2.69-4.74s-2.58-2.5-4.18-3.29c-1.46-.72-3.06-1.09-4.68-1.09-1.18-.11-2.36-.17-3.55-.17-3.18,0-6.34.41-9.4,1.23-2.57.68-5.03,1.77-7.27,3.21-2.04,1.31-3.78,3.02-5.13,5.03-.32.47-.73.88-1.2,1.2s-1,.54-1.56.65-1.13.11-1.69,0-1.08-.33-1.55-.64-.87-.72-1.18-1.19-.53-1-.63-1.56-.1-1.13.01-1.69.34-1.09.66-1.57Z"/></g><g id="LWPOLYLINE-26"><path class="cls-4" d="m540.07,317.87c.63,0,1.25-.14,1.82-.41.61-.29,1.16-.7,1.61-1.21s.81-1.12,1.04-1.77c.25-.69.38-1.42.38-2.15s-.13-1.46-.38-2.15c-.23-.65-.59-1.25-1.04-1.77s-.99-.92-1.61-1.21c-.57-.27-1.19-.41-1.82-.41"/></g><g id="LINE-222"><line class="cls-4" x1="512.67" y1="316.07" x2="512.67" y2="308.58"/></g><g id="CIRCLE-31"><circle class="cls-4" cx="569.44" cy="474.45" r="2.22"/></g><g id="CIRCLE-32"><circle class="cls-4" cx="569.44" cy="409.02" r="2.22"/></g><g id="CIRCLE-33"><circle class="cls-4" cx="569.44" cy="430.09" r="2.22"/></g><g id="CIRCLE-34"><circle class="cls-4" cx="569.44" cy="496.63" r="2.22"/></g><g id="CIRCLE-35"><circle class="cls-4" cx="553.91" cy="419" r="3.33"/></g><g id="CIRCLE-36"><circle class="cls-4" cx="553.91" cy="485.54" r="3.33"/></g><g id="LWPOLYLINE-27"><path class="cls-4" d="m549.48,394.61l5.53,1.64c2.19,1.42,4.05,3.3,5.45,5.5,1.48,2.32,2.58,4.85,3.29,7.51.84,3.18,1.26,6.45,1.26,9.74,0,3.29-.42,6.56-1.26,9.74-.7,2.66-1.81,5.19-3.29,7.51s-3.26,4.08-5.45,5.5l-5.53,1.64-5.53-1.64c-2.19-1.42-4.05-3.3-5.45-5.5-1.48-2.32-2.58-4.85-3.29-7.51-.84-3.18-1.26-6.45-1.26-9.74s.42-6.56,1.26-9.74c.7-2.66,1.81-5.19,3.29-7.51s3.26-4.08,5.45-5.5l5.53-1.64Z"/></g><g id="LWPOLYLINE-28"><path class="cls-4" d="m549.48,462.25l5.53,1.64c2.19,1.42,4.05,3.3,5.45,5.5,1.48,2.32,2.58,4.85,3.29,7.51.84,3.18,1.26,6.45,1.26,9.74s-.42,6.56-1.26,9.74c-.7,2.66-1.81,5.19-3.29,7.51s-3.26,4.08-5.45,5.5l-5.53,1.64-5.53-1.64c-2.19-1.42-4.05-3.3-5.45-5.5-1.48-2.32-2.58-4.85-3.29-7.51-.84-3.18-1.26-6.45-1.26-9.74,0-3.29.42-6.56,1.26-9.74.7-2.66,1.81-5.19,3.29-7.51s3.26-4.08,5.45-5.5l5.53-1.64Z"/></g><g id="HATCH"><path class="cls-5" d="m222.48,281.52h-72.08v67.71l72.08-67.71m0-110.37h-72.08v67.71l72.08-67.71m0-106.52h-72.08v67.71l72.08-67.71m66.53-28.77h-138.61v24.25h72.08v4.51l-72.08,67.71v34.3h72.08v4.51l-72.08,67.71v38.15h72.08v4.51l-72.08,67.71v11.21h-79.49v166.33h218.1V35.86m83.17,28.77v-4.51h72.08v-24.25h-138.61v490.9h218.1v-166.33h-79.49v-11.21l-72.08-67.71v-4.51h72.08v-38.15l-72.08-67.71v-4.51h72.08v-34.3l-72.08-67.71m72.08,0h-72.08l72.08,67.71v-67.71m0,106.52h-72.08l72.08,67.71v-67.71m0,110.37h-72.08l72.08,67.71v-67.71Z"/><path class="cls-6" d="m523.74,508.76h-218.1m-16.63,0H70.91m452.83-36.04h-218.1m-16.63,0H70.91m452.83-36.04h-218.1m-16.63,0H70.91m452.83-36.04h-218.1m-16.63,0H70.91m452.83-36.04h-218.1m-16.63,0H70.91m373.34-36.04h-50.57m-192.72,0h-50.57m243.29,0h-88.04m-16.63,0h-88.04m243.29-36.04h-70.53m-152.79,0h-70.53m223.33,0h-68.08m-16.63,0h-68.08m223.33-36.04h-138.61m-16.63,0h-138.61m293.86-36.04h-48.17m-197.52,0h-48.17m245.69,0h-90.44m-16.63,0h-90.44m245.69-36.04h-70m-153.86,0h-70m223.86,0h-68.61m-16.63,0h-68.61m223.86-36.04h-138.61m-16.63,0h-138.61m293.86-36.04h-49.9m-194.06,0h-49.9m243.96,0h-88.71m-16.63,0h-88.71m243.96-36.04h-70.39m-153.09,0h-70.39m223.47,0h-68.23m-16.63,0h-68.23m223.47-36.04h-138.61m-16.63,0h-138.61m354.54,320.18v166.33m-36.04-166.33v166.33m-36.04-490.9v24.25m0,288.2v178.45m0-462.13v66.8m0,150.09v66.8m0-216.89v35.2m0,71.31v39.05m0-105.85v66.8m-36.04-202.09v24.25m0,271.34v195.31m0-462.13v49.94m0,166.95v49.94m0-216.89v52.06m0,54.45v55.91m0-105.85v49.94m-36.04-185.22v490.9m-36.04-490.9v490.9m-36.04-490.9v490.9M252.66,35.86v490.9M216.62,35.86v24.25m0,245.7v220.95m0-462.13v24.3m0,192.59v24.3m0-216.89v77.7m0,28.81v81.55m0-105.85v24.3m-36.04-159.58v24.25m0,282.5v184.15m0-462.13v61.1m0,155.79v61.1m0-216.89v40.91m0,65.61v44.76m0-105.85v61.1m-36.04,128.18v166.33m-36.04-166.33v166.33m-36.04-166.33v166.33"/></g><g id="LINE-223"><line class="cls-7" x1="192.84" y1="526.76" x2="281.55" y2="526.76"/></g><g id="LINE-224"><line class="cls-7" x1="401.81" y1="526.76" x2="313.1" y2="526.76"/></g><g id="LINE-225"><line class="cls-7" x1="150.4" y1="349.22" x2="150.4" y2="281.52"/></g><g id="LINE-226"><line class="cls-7" x1="150.4" y1="238.86" x2="150.4" y2="171.15"/></g><g id="LINE-227"><line class="cls-7" x1="150.4" y1="132.34" x2="150.4" y2="64.63"/></g><g id="LINE-228"><line class="cls-7" x1="444.26" y1="132.34" x2="444.26" y2="64.63"/></g><g id="LINE-229"><line class="cls-7" x1="444.26" y1="238.86" x2="444.26" y2="171.15"/></g><g id="LINE-230"><line class="cls-7" x1="444.26" y1="349.22" x2="444.26" y2="281.52"/></g><g id="LINE-231"><line class="cls-3" x1="593.96" y1="543.4" x2="401.81" y2="543.4"/></g><g id="LINE-232"><line class="cls-3" x1="289.01" y1="526.76" x2="281.55" y2="526.76"/></g><g id="LINE-233"><line class="cls-3" x1="313.1" y1="543.4" x2="281.55" y2="543.4"/></g><g id="LINE-234"><line class="cls-3" x1="401.81" y1="543.4" x2="401.81" y2="526.76"/></g><g id="LINE-235"><line class="cls-3" x1="313.1" y1="543.4" x2="313.1" y2="526.76"/></g><g id="LINE-236"><line class="cls-3" x1="192.84" y1="526.76" x2="17.33" y2="526.76"/></g><g id="LINE-237"><line class="cls-3" x1="192.84" y1="543.4" x2=".7" y2="543.4"/></g><g id="LINE-238"><line class="cls-3" x1="281.55" y1="543.4" x2="281.55" y2="526.76"/></g><g id="LINE-239"><line class="cls-3" x1="192.84" y1="543.4" x2="192.84" y2="526.76"/></g><g id="LINE-240"><line class="cls-3" x1="289.01" y1="35.86" x2="289.01" y2="526.76"/></g><g id="LINE-241"><line class="cls-3" x1="17.33" y1="35.86" x2="17.33" y2="526.76"/></g><g id="LINE-242"><line class="cls-3" x1=".7" y1="19.23" x2=".7" y2="543.4"/></g><g id="LINE-243"><line class="cls-3" x1="305.64" y1="526.76" x2="313.1" y2="526.76"/></g><g id="LINE-244"><line class="cls-3" x1="401.81" y1="526.76" x2="577.32" y2="526.76"/></g><g id="LINE-245"><line class="cls-3" x1="305.64" y1="35.86" x2="305.64" y2="526.76"/></g><g id="LINE-246"><line class="cls-3" x1="577.32" y1="35.86" x2="577.32" y2="526.76"/></g><g id="LINE-247"><line class="cls-3" x1="593.96" y1="19.23" x2="593.96" y2="543.4"/></g><g id="LINE-248"><line class="cls-3" x1="17.33" y1="35.86" x2="289.01" y2="35.86"/></g><g id="LINE-249"><line class="cls-3" x1="305.64" y1="35.86" x2="577.32" y2="35.86"/></g><g id="LINE-250"><line class="cls-3" x1=".7" y1="19.23" x2="593.96" y2="19.23"/></g><g id="LINE-251"><line class="cls-1" x1="276.01" y1="543.4" x2="276.01" y2="631.94"/></g><g id="LINE-252"><line class="cls-1" x1="276.01" y1="631.94" x2="281.55" y2="631.94"/></g><g id="LINE-253"><line class="cls-1" x1="281.55" y1="543.4" x2="281.55" y2="631.94"/></g><g id="LINE-254"><line class="cls-1" x1="281.55" y1="543.4" x2="276.01" y2="543.4"/></g><g id="LINE-255"><line class="cls-1" x1="150.4" y1="281.52" x2="222.48" y2="281.52"/></g><g id="LINE-256"><line class="cls-1" x1="222.48" y1="281.52" x2="222.48" y2="277"/></g><g id="LINE-257"><line class="cls-1" x1="150.4" y1="277" x2="222.48" y2="277"/></g><g id="LINE-258"><line class="cls-1" x1="150.4" y1="277" x2="150.4" y2="281.52"/></g><g id="LINE-259"><line class="cls-1" x1="150.4" y1="171.15" x2="222.48" y2="171.15"/></g><g id="LINE-260"><line class="cls-1" x1="222.48" y1="171.15" x2="222.48" y2="166.64"/></g><g id="LINE-261"><line class="cls-1" x1="150.4" y1="166.64" x2="222.48" y2="166.64"/></g><g id="LINE-262"><line class="cls-1" x1="150.4" y1="166.64" x2="150.4" y2="171.15"/></g><g id="LINE-263"><line class="cls-1" x1="150.4" y1="64.63" x2="222.48" y2="64.63"/></g><g id="LINE-264"><line class="cls-1" x1="222.48" y1="64.63" x2="222.48" y2="60.12"/></g><g id="LINE-265"><line class="cls-1" x1="150.4" y1="60.12" x2="222.48" y2="60.12"/></g><g id="LINE-266"><line class="cls-1" x1="150.4" y1="60.12" x2="150.4" y2="64.63"/></g><g id="LINE-267"><line class="cls-1" x1="318.65" y1="543.4" x2="318.65" y2="631.94"/></g><g id="LINE-268"><line class="cls-1" x1="318.65" y1="631.94" x2="313.1" y2="631.94"/></g><g id="LINE-269"><line class="cls-1" x1="313.1" y1="543.4" x2="313.1" y2="631.94"/></g><g id="LINE-270"><line class="cls-1" x1="313.1" y1="543.4" x2="318.65" y2="543.4"/></g><g id="LINE-271"><line class="cls-1" x1="444.26" y1="281.52" x2="372.18" y2="281.52"/></g><g id="LINE-272"><line class="cls-1" x1="372.18" y1="281.52" x2="372.18" y2="277"/></g><g id="LINE-273"><line class="cls-1" x1="444.26" y1="277" x2="372.18" y2="277"/></g><g id="LINE-274"><line class="cls-1" x1="444.26" y1="277" x2="444.26" y2="281.52"/></g><g id="LINE-275"><line class="cls-1" x1="444.26" y1="171.15" x2="372.18" y2="171.15"/></g><g id="LINE-276"><line class="cls-1" x1="372.18" y1="171.15" x2="372.18" y2="166.64"/></g><g id="LINE-277"><line class="cls-1" x1="444.26" y1="166.64" x2="372.18" y2="166.64"/></g><g id="LINE-278"><line class="cls-1" x1="444.26" y1="166.64" x2="444.26" y2="171.15"/></g><g id="LINE-279"><line class="cls-1" x1="444.26" y1="64.63" x2="372.18" y2="64.63"/></g><g id="LINE-280"><line class="cls-1" x1="372.18" y1="64.63" x2="372.18" y2="60.12"/></g><g id="LINE-281"><line class="cls-1" x1="444.26" y1="60.12" x2="372.18" y2="60.12"/></g><g id="LINE-282"><line class="cls-1" x1="444.26" y1="60.12" x2="444.26" y2="64.63"/></g><g id="ARC-91"><path class="cls-9" d="m192.84,543.4c0,46.84,36.42,85.61,83.17,88.54"/></g><g id="ARC-92"><path class="cls-9" d="m222.48,281.52c-2.38,38.06-33.95,67.71-72.08,67.71"/></g><g id="ARC-93"><path class="cls-9" d="m222.48,171.15c-2.38,38.06-33.95,67.71-72.08,67.71"/></g><g id="ARC-94"><path class="cls-9" d="m222.48,64.63c-2.38,38.06-33.95,67.71-72.08,67.71"/></g><g id="ARC-95"><path class="cls-9" d="m318.65,631.94c46.75-2.93,83.17-41.7,83.17-88.54"/></g><g id="ARC-96"><path class="cls-9" d="m372.18,281.52c2.38,38.06,33.95,67.71,72.08,67.71"/></g><g id="ARC-97"><path class="cls-9" d="m372.18,171.15c2.38,38.06,33.95,67.71,72.08,67.71"/></g><g id="ARC-98"><path class="cls-9" d="m372.18,64.63c2.38,38.06,33.95,67.71,72.08,67.71"/></g><g id="LINE-283"><line class="cls-8" x1="144.85" y1="262.25" x2="144.85" y2="277"/></g><g id="LINE-284"><line class="cls-8" x1="144.85" y1="158.52" x2="144.85" y2="166.64"/></g><g id="LINE-285"><line class="cls-8" x1="144.85" y1="238.86" x2="144.85" y2="256.7"/></g><g id="LINE-286"><line class="cls-8" x1="150.4" y1="238.86" x2="150.4" y2="277"/></g><g id="LINE-287"><line class="cls-8" x1="144.85" y1="349.22" x2="144.85" y2="354.89"/></g><g id="LINE-288"><line class="cls-8" x1="150.4" y1="349.22" x2="150.4" y2="360.43"/></g><g id="LINE-289"><line class="cls-8" x1="150.4" y1="277" x2="144.85" y2="277"/></g><g id="LINE-290"><line class="cls-8" x1="150.4" y1="349.22" x2="144.85" y2="349.22"/></g><g id="LINE-291"><line class="cls-8" x1="150.4" y1="238.86" x2="144.85" y2="238.86"/></g><g id="LINE-292"><line class="cls-8" x1="150.4" y1="166.64" x2="144.85" y2="166.64"/></g><g id="LINE-293"><line class="cls-8" x1="144.85" y1="132.34" x2="144.85" y2="152.97"/></g><g id="LINE-294"><line class="cls-8" x1="150.4" y1="132.34" x2="150.4" y2="166.64"/></g><g id="LINE-295"><line class="cls-8" x1="150.4" y1="132.34" x2="144.85" y2="132.34"/></g><g id="LINE-296"><line class="cls-8" x1="150.4" y1="64.63" x2="144.85" y2="64.63"/></g><g id="LINE-297"><line class="cls-8" x1="17.33" y1="158.52" x2="144.85" y2="158.52"/></g><g id="LINE-298"><line class="cls-8" x1="17.33" y1="262.25" x2="144.85" y2="262.25"/></g><g id="LINE-299"><line class="cls-8" x1="144.85" y1="354.89" x2="17.33" y2="354.89"/></g><g id="LINE-300"><line class="cls-8" x1="144.85" y1="35.86" x2="144.85" y2="64.63"/></g><g id="LINE-301"><line class="cls-2" x1="70.91" y1="526.76" x2="70.91" y2="360.43"/></g><g id="LINE-302"><line class="cls-8" x1="17.33" y1="152.97" x2="144.85" y2="152.97"/></g><g id="LINE-303"><line class="cls-8" x1="17.33" y1="256.7" x2="144.85" y2="256.7"/></g><g id="LINE-304"><line class="cls-8" x1="150.4" y1="35.86" x2="150.4" y2="64.63"/></g><g id="LINE-305"><line class="cls-8" x1="150.4" y1="360.43" x2="17.33" y2="360.43"/></g><g id="LINE-306"><line class="cls-8" x1="449.8" y1="262.25" x2="449.8" y2="277"/></g><g id="LINE-307"><line class="cls-8" x1="449.8" y1="158.52" x2="449.8" y2="166.64"/></g><g id="LINE-308"><line class="cls-8" x1="449.8" y1="238.86" x2="449.8" y2="256.7"/></g><g id="LINE-309"><line class="cls-8" x1="444.26" y1="238.86" x2="444.26" y2="277"/></g><g id="LINE-310"><line class="cls-8" x1="449.8" y1="349.22" x2="449.8" y2="354.89"/></g><g id="LINE-311"><line class="cls-8" x1="444.26" y1="349.22" x2="444.26" y2="360.43"/></g><g id="LINE-312"><line class="cls-8" x1="444.26" y1="277" x2="449.8" y2="277"/></g><g id="LINE-313"><line class="cls-8" x1="444.26" y1="349.22" x2="449.8" y2="349.22"/></g><g id="LINE-314"><line class="cls-8" x1="444.26" y1="238.86" x2="449.8" y2="238.86"/></g><g id="LINE-315"><line class="cls-8" x1="444.26" y1="166.64" x2="449.8" y2="166.64"/></g><g id="LINE-316"><line class="cls-8" x1="449.8" y1="132.34" x2="449.8" y2="152.97"/></g><g id="LINE-317"><line class="cls-8" x1="444.26" y1="132.34" x2="444.26" y2="166.64"/></g><g id="LINE-318"><line class="cls-8" x1="444.26" y1="132.34" x2="449.8" y2="132.34"/></g><g id="LINE-319"><line class="cls-8" x1="444.26" y1="64.63" x2="449.8" y2="64.63"/></g><g id="LINE-320"><line class="cls-8" x1="577.32" y1="158.52" x2="449.8" y2="158.52"/></g><g id="LINE-321"><line class="cls-8" x1="577.32" y1="262.25" x2="449.8" y2="262.25"/></g><g id="LINE-322"><line class="cls-8" x1="449.8" y1="354.89" x2="577.32" y2="354.89"/></g><g id="LINE-323"><line class="cls-8" x1="449.8" y1="35.86" x2="449.8" y2="64.63"/></g><g id="LINE-324"><line class="cls-2" x1="523.74" y1="526.76" x2="523.74" y2="360.43"/></g><g id="LINE-325"><line class="cls-8" x1="577.32" y1="152.97" x2="449.8" y2="152.97"/></g><g id="LINE-326"><line class="cls-8" x1="577.32" y1="256.7" x2="449.8" y2="256.7"/></g><g id="LINE-327"><line class="cls-8" x1="444.26" y1="35.86" x2="444.26" y2="64.63"/></g><g id="LINE-328"><line class="cls-8" x1="444.26" y1="360.43" x2="577.32" y2="360.43"/></g></svg>