<?xml version="1.0" encoding="UTF-8"?><svg xmlns="http://www.w3.org/2000/svg" width="595.28" height="446.3" viewBox="0 0 595.28 446.3"><defs><style>.cls-1{stroke:#4c8599;stroke-dasharray:0 0 0 0 23.22 11.61 0 11.61;}.cls-1,.cls-2,.cls-3,.cls-4,.cls-5,.cls-6,.cls-7{fill:none;stroke-linecap:round;stroke-linejoin:round;stroke-width:.5px;}.cls-2{stroke:#000;}.cls-3{stroke-dasharray:0 0 22.85 11.43;}.cls-3,.cls-4,.cls-7{stroke:#5b5b5b;}.cls-4{stroke-dasharray:0 0 6.86 3.43;}.cls-5{stroke:#4c4c99;}.cls-6{stroke:#ff0;}</style></defs><g id="MURATURA_sezioni_-_section_wall"><g id="LINE"><line class="cls-2" x1="537.35" y1="432.2" x2="537.35" y2="334.55"/></g><g id="LINE-2"><line class="cls-2" x1="382.01" y1="109.09" x2="383.81" y2="109.09"/></g><g id="LINE-3"><line class="cls-2" x1="528.38" y1="252.01" x2="537.35" y2="252.01"/></g><g id="LINE-4"><line class="cls-2" x1="528.38" y1="334.55" x2="537.35" y2="334.55"/></g><g id="LINE-5"><line class="cls-2" x1="11.51" y1="207.16" x2="25.64" y2="207.16"/></g><g id="LINE-6"><line class="cls-2" x1="211.56" y1="238.56" x2="211.56" y2="216.13"/></g><g id="LINE-7"><line class="cls-2" x1="11.51" y1="216.13" x2="25.64" y2="216.13"/></g><g id="LINE-8"><line class="cls-2" x1="528.38" y1="207.16" x2="528.38" y2="23.79"/></g><g id="LINE-9"><line class="cls-2" x1="390.98" y1="207.16" x2="414.76" y2="207.16"/></g><g id="LINE-10"><line class="cls-2" x1="220.53" y1="229.59" x2="382.01" y2="229.59"/></g><g id="LINE-11"><line class="cls-2" x1="497.29" y1="207.16" x2="497.29" y2="216.13"/></g><g id="LINE-12"><line class="cls-2" x1="414.76" y1="207.16" x2="414.76" y2="216.13"/></g><g id="LINE-13"><line class="cls-2" x1="497.29" y1="216.13" x2="528.38" y2="216.13"/></g><g id="LINE-14"><line class="cls-2" x1="497.29" y1="207.16" x2="528.38" y2="207.16"/></g><g id="LINE-15"><line class="cls-2" x1="528.38" y1="252.01" x2="528.38" y2="216.13"/></g><g id="LINE-16"><line class="cls-2" x1="528.38" y1="421.39" x2="528.38" y2="334.55"/></g><g id="LINE-17"><line class="cls-2" x1="390.98" y1="216.13" x2="390.98" y2="328.93"/></g><g id="LINE-18"><line class="cls-2" x1="390.98" y1="216.13" x2="414.76" y2="216.13"/></g><g id="LINE-19"><line class="cls-2" x1="382.01" y1="238.56" x2="382.01" y2="328.93"/></g><g id="LINE-20"><line class="cls-2" x1="116.02" y1="207.16" x2="116.02" y2="23.79"/></g><g id="LINE-21"><line class="cls-2" x1="107.05" y1="207.16" x2="107.05" y2="23.79"/></g><g id="LINE-22"><line class="cls-2" x1="116.02" y1="207.16" x2="130.15" y2="207.16"/></g><g id="LINE-23"><line class="cls-2" x1="382.01" y1="406.19" x2="390.98" y2="406.19"/></g><g id="LINE-24"><line class="cls-2" x1="382.01" y1="328.93" x2="390.98" y2="328.93"/></g><g id="LINE-25"><line class="cls-2" x1="390.98" y1="406.19" x2="390.98" y2="421.39"/></g><g id="LINE-26"><line class="cls-2" x1="382.01" y1="406.19" x2="382.01" y2="421.39"/></g><g id="LINE-27"><line class="cls-2" x1="192.95" y1="207.16" x2="192.95" y2="216.13"/></g><g id="LINE-28"><line class="cls-2" x1="130.15" y1="207.16" x2="130.15" y2="216.13"/></g><g id="LINE-29"><line class="cls-2" x1="192.95" y1="207.16" x2="211.56" y2="207.16"/></g><g id="LINE-30"><line class="cls-2" x1="211.56" y1="238.56" x2="382.01" y2="238.56"/></g><g id="LINE-31"><line class="cls-2" x1="88.44" y1="207.16" x2="88.44" y2="216.13"/></g><g id="LINE-32"><line class="cls-2" x1="25.64" y1="207.16" x2="25.64" y2="216.13"/></g><g id="LINE-33"><line class="cls-2" x1="88.44" y1="216.13" x2="130.15" y2="216.13"/></g><g id="LINE-34"><line class="cls-2" x1="88.44" y1="207.16" x2="107.05" y2="207.16"/></g><g id="LINE-35"><line class="cls-2" x1="390.98" y1="180.86" x2="390.98" y2="207.16"/></g><g id="LINE-36"><line class="cls-2" x1="382.01" y1="180.86" x2="382.01" y2="229.59"/></g><g id="LINE-37"><line class="cls-2" x1="390.98" y1="109.09" x2="390.98" y2="23.79"/></g><g id="LINE-38"><line class="cls-2" x1="382.01" y1="109.09" x2="382.01" y2="23.79"/></g><g id="LINE-39"><line class="cls-2" x1="192.95" y1="216.13" x2="211.56" y2="216.13"/></g><g id="LINE-40"><line class="cls-2" x1="220.53" y1="229.59" x2="220.53" y2="23.79"/></g><g id="LINE-41"><line class="cls-2" x1="211.56" y1="207.16" x2="211.56" y2="23.79"/></g><g id="LINE-42"><line class="cls-2" x1="235.78" y1="421.39" x2="235.78" y2="376.53"/></g><g id="LINE-43"><line class="cls-2" x1="244.76" y1="421.39" x2="244.76" y2="376.53"/></g><g id="LINE-44"><line class="cls-2" x1="528.38" y1="421.39" x2="390.98" y2="421.39"/></g><g id="LINE-45"><line class="cls-2" x1="382.01" y1="421.39" x2="244.76" y2="421.39"/></g><g id="LINE-46"><line class="cls-2" x1="235.78" y1="421.39" x2="11.51" y2="421.39"/></g><g id="LINE-47"><line class="cls-2" x1="382.01" y1="180.86" x2="390.98" y2="180.86"/></g><g id="LINE-48"><line class="cls-2" x1="389.19" y1="109.09" x2="390.98" y2="109.09"/></g><g id="LINE-49"><line class="cls-2" x1="537.35" y1="252.01" x2="537.35" y2="12.97"/></g><g id="LINE-50"><line class="cls-2" x1="528.38" y1="23.79" x2="390.98" y2="23.79"/></g><g id="LINE-51"><line class="cls-2" x1="382.01" y1="23.79" x2="220.53" y2="23.79"/></g><g id="LINE-52"><line class="cls-2" x1="211.56" y1="23.79" x2="116.02" y2="23.79"/></g><g id="LINE-53"><line class="cls-2" x1="107.05" y1="23.79" x2="11.51" y2="23.79"/></g><g id="LINE-54"><line class="cls-2" x1="11.51" y1="421.39" x2="11.51" y2="216.13"/></g><g id="LINE-55"><line class="cls-2" x1="235.78" y1="376.53" x2="244.76" y2="376.53"/></g><g id="LINE-56"><line class="cls-2" x1="11.51" y1="207.16" x2="11.51" y2="23.79"/></g></g><g id="SEZIONI_medie_-_small_section"><g id="LWPOLYLINE"><polyline class="cls-6" points="537.35 248.87 540.04 248.87 540.04 255.15 525.68 255.15 525.68 248.87 528.38 248.87"/></g><g id="LWPOLYLINE-2"><rect class="cls-6" x="527.6" y="301.38" width="76.25" height="3.59" transform="translate(-48.68 488.83) rotate(-45)"/></g><g id="LWPOLYLINE-3"><polyline class="cls-6" points="528.38 337.69 525.68 337.69 525.68 331.41 540.04 331.41 540.04 337.69 537.35 337.69"/></g><g id="LWPOLYLINE-4"><polyline class="cls-6" points="500.43 216.13 500.43 218.82 494.15 218.82 494.15 204.47 500.43 204.47 500.43 207.16"/></g><g id="LWPOLYLINE-5"><rect class="cls-6" x="444.33" y="206.39" width="3.59" height="76.25" transform="translate(-42.23 387.07) rotate(-45)"/></g><g id="LWPOLYLINE-6"><polyline class="cls-6" points="411.62 207.16 411.62 204.47 417.9 204.47 417.9 218.82 411.62 218.82 411.62 216.13"/></g><g id="LINE-57"><line class="cls-6" x1="382.01" y1="406.19" x2="310.24" y2="406.19"/></g><g id="LINE-58"><line class="cls-6" x1="310.24" y1="406.19" x2="310.24" y2="401.7"/></g><g id="LINE-59"><line class="cls-6" x1="310.24" y1="401.7" x2="382.01" y2="401.7"/></g><g id="LINE-60"><line class="cls-6" x1="382.01" y1="401.7" x2="382.01" y2="406.19"/></g><g id="LINE-61"><line class="cls-6" x1="25.64" y1="207.16" x2="25.64" y2="144.36"/></g><g id="LINE-62"><line class="cls-6" x1="25.64" y1="144.36" x2="30.12" y2="144.36"/></g><g id="LINE-63"><line class="cls-6" x1="30.12" y1="144.36" x2="30.12" y2="207.16"/></g><g id="LINE-64"><line class="cls-6" x1="30.12" y1="207.16" x2="25.64" y2="207.16"/></g><g id="LINE-65"><line class="cls-6" x1="192.95" y1="207.16" x2="192.95" y2="144.36"/></g><g id="LINE-66"><line class="cls-6" x1="192.95" y1="144.36" x2="188.46" y2="144.36"/></g><g id="LINE-67"><line class="cls-6" x1="188.46" y1="144.36" x2="188.46" y2="207.16"/></g><g id="LINE-68"><line class="cls-6" x1="188.46" y1="207.16" x2="192.95" y2="207.16"/></g><g id="LINE-69"><line class="cls-6" x1="383.81" y1="37.33" x2="389.19" y2="37.33"/></g><g id="LINE-70"><line class="cls-6" x1="389.19" y1="37.33" x2="389.19" y2="109.09"/></g><g id="LINE-71"><line class="cls-6" x1="383.81" y1="37.33" x2="383.81" y2="109.09"/></g><g id="LINE-72"><line class="cls-6" x1="387.84" y1="75.38" x2="387.84" y2="147.15"/></g><g id="LINE-73"><line class="cls-6" x1="385.15" y1="75.38" x2="385.15" y2="147.15"/></g><g id="LINE-74"><line class="cls-6" x1="387.84" y1="147.15" x2="385.15" y2="147.15"/></g><g id="LINE-75"><line class="cls-6" x1="387.84" y1="75.38" x2="385.15" y2="75.38"/></g></g><g id="PROIEZIONI_finissime_-_fine_lines"><g id="LWPOLYLINE-7"><path class="cls-7" d="m543.84,322.53l-.95-.95c-1.23-1.23-1.23-3.21,0-4.44l36.79-36.79c1.23-1.23,3.21-1.23,4.44,0l.95.95"/></g><g id="LWPOLYLINE-8"><path class="cls-7" d="m541.94,324.43l-2.85-2.85c-1.23-1.23-1.23-3.21,0-4.44l40.6-40.6c1.23-1.23,3.21-1.23,4.44,0l2.85,2.85"/></g><g id="LWPOLYLINE-9"><polyline class="cls-7" points="588.75 282.7 590.65 284.6 584.3 290.95 582.4 289.04"/></g><g id="LWPOLYLINE-10"><path class="cls-7" d="m426.78,222.63l.95-.95c1.23-1.23,3.21-1.23,4.44,0l36.79,36.79c1.23,1.23,1.23,3.21,0,4.44l-.95.95"/></g><g id="LWPOLYLINE-11"><path class="cls-7" d="m424.87,220.72l2.85-2.85c1.23-1.23,3.21-1.23,4.44,0l40.6,40.6c1.23,1.23,1.23,3.21,0,4.44l-2.85,2.85"/></g><g id="LWPOLYLINE-12"><polyline class="cls-7" points="466.6 267.53 464.7 269.43 458.36 263.09 460.26 261.19"/></g><g id="ARC"><path class="cls-3" d="m382.01,328.93c-37.62,5.25-67.04,35.08-71.77,72.77"/></g><g id="ARC-2"><path class="cls-4" d="m88.44,207.16c.52-33.17-25.19-60.86-58.31-62.8"/></g><g id="ARC-3"><path class="cls-4" d="m188.46,144.36c-33.12,1.94-58.83,29.63-58.31,62.8"/></g><g id="ARC-4"><path class="cls-4" d="m471.82,272.74c14.3-14.3,22.33-33.7,22.33-53.92"/></g><g id="ARC-5"><path class="cls-4" d="m593.96,277.49c-14.3-14.3-33.7-22.33-53.92-22.33"/></g></g><g id="ARREDI_attrezzature_-_furniture"><g id="LWPOLYLINE-13"><path class="cls-5" d="m230.36,65.92h14.4c.28-.05.56-.05.84,0,1.24.23,2.05,1.43,1.82,2.66s-1.43,2.05-2.66,1.82h-14.4"/></g><g id="LWPOLYLINE-14"><path class="cls-5" d="m264.94,41.7c-2.26.41-3.84,2.48-3.62,4.77.17,1.84-.8,3.59-2.44,4.42l-26.23,11"/></g><g id="LWPOLYLINE-15"><path class="cls-5" d="m264.94,94.63h-36.78c-2.48,0-4.49-2.01-4.49-4.49v-43.96c0-2.48,2.01-4.49,4.49-4.49h36.78c2.48,0,4.49,2.01,4.49,4.49-6.5,13.93-6.5,30.03,0,43.96,0,2.48-2.01,4.49-4.49,4.49-2.26-.41-3.84-2.48-3.62-4.77.17-1.84-.8-3.59-2.44-4.42l-26.23-11"/></g><g id="LWPOLYLINE-16"><path class="cls-5" d="m220.53,43.05c0-2.48,2.01-4.49,4.49-4.49h44.47c.74,0,1.46.18,2.11.53,2.19,1.17,3.01,3.88,1.84,6.07-7.67,14.38-7.67,31.64,0,46.01.35.65.53,1.38.53,2.11,0,2.48-2.01,4.49-4.49,4.49h-44.47c-2.48,0-4.49-2.01-4.49-4.49,0,0,0-50.24,0-50.24Z"/></g><g id="LINE-76"><line class="cls-5" x1="232.64" y1="65.92" x2="232.64" y2="41.7"/></g><g id="LINE-77"><line class="cls-5" x1="228.16" y1="65.03" x2="232.32" y2="56.41"/></g><g id="LINE-78"><line class="cls-5" x1="232.64" y1="94.63" x2="232.64" y2="70.41"/></g><g id="CIRCLE"><circle class="cls-5" cx="228.16" cy="68.17" r="2.24"/></g><g id="CIRCLE-2"><circle class="cls-5" cx="228.16" cy="68.17" r="3.14"/></g><g id="LINE-79"><line class="cls-5" x1="238.92" y1="59.25" x2="238.92" y2="41.7"/></g><g id="LINE-80"><line class="cls-5" x1="238.92" y1="94.63" x2="238.92" y2="77.08"/></g><g id="LINE-81"><line class="cls-5" x1="11.51" y1="376.53" x2="235.78" y2="376.53"/></g><g id="LINE-82"><line class="cls-5" x1="56.36" y1="376.53" x2="56.36" y2="421.39"/></g><g id="LINE-83"><line class="cls-5" x1="101.22" y1="376.53" x2="101.22" y2="421.39"/></g><g id="LINE-84"><line class="cls-5" x1="146.07" y1="376.53" x2="146.07" y2="421.39"/></g><g id="LINE-85"><line class="cls-5" x1="174.42" y1="54.55" x2="173.44" y2="41.09"/></g><g id="LINE-86"><line class="cls-5" x1="148.32" y1="41.09" x2="147.34" y2="54.55"/></g><g id="LINE-87"><line class="cls-5" x1="179.27" y1="84.6" x2="179.27" y2="37.95"/></g><g id="LINE-88"><line class="cls-5" x1="142.49" y1="37.95" x2="142.49" y2="84.6"/></g><g id="LINE-89"><line class="cls-5" x1="179.27" y1="59.03" x2="142.49" y2="59.03"/></g><g id="LINE-90"><line class="cls-5" x1="174.42" y1="54.55" x2="179.27" y2="59.03"/></g><g id="ARC-6"><path class="cls-5" d="m142.49,84.6c.39,10.16,8.95,18.07,19.11,17.68,9.6-.37,17.3-8.07,17.68-17.68"/></g><g id="LINE-91"><line class="cls-5" x1="174.42" y1="54.55" x2="147.34" y2="54.55"/></g><g id="LINE-92"><line class="cls-5" x1="147.34" y1="54.55" x2="142.49" y2="59.03"/></g><g id="ARC-7"><path class="cls-5" d="m179.27,37.95c0-2.48-2.01-4.49-4.49-4.49"/></g><g id="LINE-93"><line class="cls-5" x1="168.96" y1="36.61" x2="152.81" y2="36.61"/></g><g id="LINE-94"><line class="cls-5" x1="174.79" y1="33.47" x2="146.98" y2="33.47"/></g><g id="ARC-8"><path class="cls-5" d="m173.44,41.09c0-2.48-2.01-4.49-4.49-4.49"/></g><g id="CIRCLE-3"><circle class="cls-5" cx="160.88" cy="48.27" r="3.14"/></g><g id="ARC-9"><path class="cls-5" d="m146.98,33.47c-2.48,0-4.49,2.01-4.49,4.49"/></g><g id="ARC-10"><path class="cls-5" d="m152.81,36.61c-2.48,0-4.49,2.01-4.49,4.49"/></g><g id="LINE-95"><line class="cls-5" x1="69.82" y1="54.55" x2="68.84" y2="41.09"/></g><g id="LINE-96"><line class="cls-5" x1="43.72" y1="41.09" x2="42.74" y2="54.55"/></g><g id="LINE-97"><line class="cls-5" x1="74.67" y1="84.6" x2="74.67" y2="37.95"/></g><g id="LINE-98"><line class="cls-5" x1="37.89" y1="37.95" x2="37.89" y2="84.6"/></g><g id="LINE-99"><line class="cls-5" x1="74.67" y1="59.03" x2="37.89" y2="59.03"/></g><g id="LINE-100"><line class="cls-5" x1="69.82" y1="54.55" x2="74.67" y2="59.03"/></g><g id="ARC-11"><path class="cls-5" d="m37.89,84.6c.39,10.16,8.95,18.07,19.11,17.68,9.6-.37,17.3-8.07,17.68-17.68"/></g><g id="LINE-101"><line class="cls-5" x1="69.82" y1="54.55" x2="42.74" y2="54.55"/></g><g id="LINE-102"><line class="cls-5" x1="42.74" y1="54.55" x2="37.89" y2="59.03"/></g><g id="ARC-12"><path class="cls-5" d="m74.67,37.95c0-2.48-2.01-4.49-4.49-4.49"/></g><g id="LINE-103"><line class="cls-5" x1="64.35" y1="36.61" x2="48.21" y2="36.61"/></g><g id="LINE-104"><line class="cls-5" x1="70.18" y1="33.47" x2="42.37" y2="33.47"/></g><g id="ARC-13"><path class="cls-5" d="m68.84,41.09c0-2.48-2.01-4.49-4.49-4.49"/></g><g id="CIRCLE-4"><circle class="cls-5" cx="56.28" cy="48.27" r="3.14"/></g><g id="ARC-14"><path class="cls-5" d="m42.37,33.47c-2.48,0-4.49,2.01-4.49,4.49"/></g><g id="ARC-15"><path class="cls-5" d="m48.21,36.61c-2.48,0-4.49,2.01-4.49,4.49"/></g><g id="LINE-105"><line class="cls-5" x1="190.93" y1="376.53" x2="190.93" y2="421.39"/></g><g id="ELLIPSE"><path class="cls-5" d="m282.04,276.1c-2.88.92-5.88,1.39-8.9,1.39"/></g><g id="ELLIPSE-2"><path class="cls-5" d="m294.25,252.77c.68,3.38.87,6.83.59,10.27"/></g><g id="ELLIPSE-3"><path class="cls-5" d="m283.8,248.91c2.27.44,4.48,1.16,6.57,2.13"/></g><g id="ELLIPSE-4"><path class="cls-5" d="m290.37,251.04c3,1.99,4.74,5.41,4.57,9.01"/></g><g id="ELLIPSE-5"><path class="cls-5" d="m273.14,241.88c3.33-.12,6.66.2,9.91.95"/></g><g id="ELLIPSE-6"><path class="cls-5" d="m273.14,248.42c3.56-.12,7.12.04,10.66.48"/></g><g id="ELLIPSE-7"><path class="cls-5" d="m251.34,260.05c-.17-3.6,1.56-7.02,4.57-9.01"/></g><g id="ELLIPSE-8"><path class="cls-5" d="m262.48,248.91c3.53-.44,7.1-.61,10.66-.48"/></g><g id="ELLIPSE-9"><path class="cls-5" d="m255.91,251.04c2.1-.98,4.3-1.69,6.57-2.13"/></g><g id="ELLIPSE-10"><path class="cls-5" d="m251.45,263.04c-.29-3.43-.09-6.89.59-10.27"/></g><g id="ELLIPSE-11"><path class="cls-5" d="m273.14,277.49c-3.02,0-6.02-.47-8.9-1.39"/></g><g id="ELLIPSE-12"><path class="cls-5" d="m263.23,242.84c3.25-.76,6.58-1.08,9.91-.95"/></g><g id="ELLIPSE-13"><circle class="cls-5" cx="273.14" cy="254.96" r="1.45"/></g><g id="ELLIPSE-14"><circle class="cls-5" cx="273.14" cy="254.96" r="2.54"/></g><g id="ELLIPSE-15"><circle class="cls-5" cx="273.14" cy="244.43" r="1.27"/></g><g id="ELLIPSE-16"><circle class="cls-5" cx="280.41" cy="244.43" r="1.16"/></g><g id="ELLIPSE-17"><circle class="cls-5" cx="265.88" cy="244.43" r="1.16"/></g><g id="ELLIPSE-18"><path class="cls-5" d="m273.14,280.4c-3.39,0-6.77-.53-10-1.56"/></g><g id="ELLIPSE-19"><path class="cls-5" d="m298.58,260.78c0,2.52-.62,5.01-1.82,7.23"/></g><g id="ELLIPSE-20"><path class="cls-5" d="m298.21,239.7c.2,0,.36.16.36.36"/></g><g id="ELLIPSE-21"><path class="cls-5" d="m247.71,240.07c0-.2.16-.36.36-.36"/></g><g id="LINE-106"><line class="cls-5" x1="298.58" y1="240.79" x2="247.71" y2="240.79"/></g><g id="LINE-107"><line class="cls-5" x1="298.58" y1="240.07" x2="298.58" y2="260.78"/></g><g id="LINE-108"><line class="cls-5" x1="247.71" y1="260.78" x2="247.71" y2="240.07"/></g><g id="ELLIPSE-22"><path class="cls-5" d="m296.76,268.01c-1.39,2.59-3.31,4.85-5.63,6.64"/></g><g id="ELLIPSE-23"><path class="cls-5" d="m291.13,274.65c-2.4,1.85-5.1,3.27-7.98,4.19"/></g><g id="ELLIPSE-24"><path class="cls-5" d="m283.15,278.84c-3.23,1.03-6.61,1.56-10,1.56"/></g><g id="ELLIPSE-25"><path class="cls-5" d="m263.14,278.84c-2.88-.92-5.58-2.34-7.98-4.19"/></g><g id="ELLIPSE-26"><path class="cls-5" d="m255.16,274.65c-2.32-1.79-4.24-4.06-5.63-6.64"/></g><g id="ELLIPSE-27"><path class="cls-5" d="m249.53,268.01c-1.19-2.22-1.82-4.71-1.82-7.23"/></g><g id="ELLIPSE-28"><path class="cls-5" d="m257.18,245.48c1.83-1.26,3.89-2.16,6.06-2.64"/></g><g id="ELLIPSE-29"><path class="cls-5" d="m252.92,250.5c1.05-1.95,2.5-3.66,4.26-5.02"/></g><g id="ELLIPSE-30"><path class="cls-5" d="m252.03,252.77c.2-.79.5-1.55.89-2.27"/></g><g id="ELLIPSE-31"><path class="cls-5" d="m264.25,276.1c-2.48-.79-4.8-2.01-6.87-3.6"/></g><g id="ELLIPSE-32"><path class="cls-5" d="m257.38,272.5c-1.92-1.48-3.5-3.35-4.65-5.48"/></g><g id="ELLIPSE-33"><path class="cls-5" d="m252.73,267.02c-.66-1.24-1.1-2.59-1.28-3.98"/></g><g id="ELLIPSE-34"><path class="cls-5" d="m283.05,242.84c2.17.49,4.23,1.38,6.06,2.64"/></g><g id="ELLIPSE-35"><path class="cls-5" d="m289.11,245.48c1.76,1.35,3.21,3.07,4.26,5.02"/></g><g id="ELLIPSE-36"><path class="cls-5" d="m293.37,250.5c.39.72.68,1.48.89,2.27"/></g><g id="ELLIPSE-37"><path class="cls-5" d="m288.91,272.5c-2.06,1.59-4.39,2.81-6.87,3.6"/></g><g id="ELLIPSE-38"><path class="cls-5" d="m293.56,267.02c-1.15,2.13-2.73,4-4.65,5.48"/></g><g id="ELLIPSE-39"><path class="cls-5" d="m294.84,263.04c-.19,1.39-.62,2.74-1.28,3.98"/></g><g id="LWPOLYLINE-17"><path class="cls-5" d="m465.08,39.56v14.4c.05.28.05.56,0,.84-.23,1.24-1.43,2.05-2.66,1.82s-2.05-1.43-1.82-2.66v-14.4"/></g><g id="LWPOLYLINE-18"><path class="cls-5" d="m489.3,74.15c-.41-2.26-2.48-3.84-4.77-3.62-1.84.17-3.59-.8-4.42-2.44l-11-26.23"/></g><g id="LWPOLYLINE-19"><path class="cls-5" d="m436.37,74.15v-36.78c0-2.48,2.01-4.49,4.49-4.49h43.96c2.48,0,4.49,2.01,4.49,4.49v36.78c0,2.48-2.01,4.49-4.49,4.49-13.93-6.5-30.03-6.5-43.96,0-2.48,0-4.49-2.01-4.49-4.49.41-2.26,2.48-3.84,4.77-3.62,1.84.17,3.59-.8,4.42-2.44l11-26.23"/></g><g id="LWPOLYLINE-20"><path class="cls-5" d="m487.96,29.74c2.48,0,4.49,2.01,4.49,4.49v44.47c0,.74-.18,1.46-.53,2.11-1.17,2.19-3.88,3.01-6.07,1.84-14.38-7.67-31.64-7.67-46.01,0-.65.35-1.38.53-2.11.53-2.48,0-4.49-2.01-4.49-4.49v-44.47c0-2.48,2.01-4.49,4.49-4.49,0,0,50.24,0,50.24,0Z"/></g><g id="LINE-109"><line class="cls-5" x1="465.08" y1="41.85" x2="489.3" y2="41.85"/></g><g id="LINE-110"><line class="cls-5" x1="465.98" y1="37.36" x2="474.59" y2="41.53"/></g><g id="LINE-111"><line class="cls-5" x1="436.37" y1="41.85" x2="460.59" y2="41.85"/></g><g id="CIRCLE-5"><circle class="cls-5" cx="462.84" cy="37.36" r="2.24"/></g><g id="CIRCLE-6"><circle class="cls-5" cx="462.84" cy="37.36" r="3.14"/></g><g id="LINE-112"><line class="cls-5" x1="471.75" y1="48.13" x2="489.3" y2="48.13"/></g><g id="LINE-113"><line class="cls-5" x1="436.37" y1="48.13" x2="453.92" y2="48.13"/></g><g id="LWPOLYLINE-21"><path class="cls-5" d="m236.94,221.51h85.22c.48-.2,1.03-.2,1.51,0,.99.42,1.46,1.56,1.04,2.55s-1.56,1.46-2.55,1.04h-85.22c-.48.2-1.03.2-1.51,0-.99-.42-1.46-1.56-1.04-2.55s1.56-1.46,2.55-1.04Z"/></g><g id="LINE-114"><line class="cls-5" x1="318.87" y1="229.59" x2="318.87" y2="225.1"/></g><g id="LINE-115"><line class="cls-5" x1="315.73" y1="229.59" x2="315.73" y2="225.1"/></g><g id="LINE-116"><line class="cls-5" x1="246.95" y1="229.59" x2="246.95" y2="225.1"/></g><g id="LINE-117"><line class="cls-5" x1="243.81" y1="229.59" x2="243.81" y2="225.1"/></g><g id="LINE-118"><line class="cls-5" x1="249.05" y1="180.16" x2="235.59" y2="181.14"/></g><g id="LINE-119"><line class="cls-5" x1="235.59" y1="206.26" x2="249.05" y2="207.24"/></g><g id="LINE-120"><line class="cls-5" x1="279.1" y1="175.31" x2="232.45" y2="175.31"/></g><g id="LINE-121"><line class="cls-5" x1="232.45" y1="212.09" x2="279.1" y2="212.09"/></g><g id="LINE-122"><line class="cls-5" x1="253.53" y1="175.31" x2="253.53" y2="212.09"/></g><g id="LINE-123"><line class="cls-5" x1="249.05" y1="180.16" x2="253.53" y2="175.31"/></g><g id="ARC-16"><path class="cls-5" d="m279.1,212.09c10.16-.39,18.07-8.95,17.68-19.11-.37-9.6-8.07-17.3-17.68-17.68"/></g><g id="CIRCLE-7"><circle class="cls-5" cx="296.79" cy="216.13" r="4.49"/></g><g id="CIRCLE-8"><circle class="cls-5" cx="296.79" cy="216.13" r="1.79"/></g><g id="LINE-124"><line class="cls-5" x1="249.05" y1="180.16" x2="249.05" y2="207.24"/></g><g id="LINE-125"><line class="cls-5" x1="249.05" y1="207.24" x2="253.53" y2="212.09"/></g><g id="ARC-17"><path class="cls-5" d="m232.45,175.31c-2.48,0-4.49,2.01-4.49,4.49"/></g><g id="LINE-126"><line class="cls-5" x1="231.11" y1="185.63" x2="231.11" y2="201.78"/></g><g id="LINE-127"><line class="cls-5" x1="227.97" y1="179.8" x2="227.97" y2="207.61"/></g><g id="ARC-18"><path class="cls-5" d="m235.59,181.14c-2.48,0-4.49,2.01-4.49,4.49"/></g><g id="CIRCLE-9"><circle class="cls-5" cx="242.77" cy="193.7" r="3.14"/></g><g id="ARC-19"><path class="cls-5" d="m227.97,207.61c0,2.48,2.01,4.49,4.49,4.49"/></g><g id="ARC-20"><path class="cls-5" d="m231.11,201.78c0,2.48,2.01,4.49,4.49,4.49"/></g><g id="LINE-128"><line class="cls-5" x1="235.78" y1="421.39" x2="190.93" y2="376.53"/></g><g id="LINE-129"><line class="cls-5" x1="190.93" y1="421.39" x2="146.07" y2="376.53"/></g><g id="LINE-130"><line class="cls-5" x1="146.07" y1="421.39" x2="101.22" y2="376.53"/></g><g id="LINE-131"><line class="cls-5" x1="101.22" y1="421.39" x2="56.36" y2="376.53"/></g><g id="LINE-132"><line class="cls-5" x1="56.36" y1="421.39" x2="11.51" y2="376.53"/></g><g id="LINE-133"><line class="cls-5" x1="248.07" y1="239.7" x2="298.21" y2="239.7"/></g><g id="ELLIPSE-40"><path class="cls-5" d="m322.57,276.1c2.88.92,5.88,1.39,8.9,1.39"/></g><g id="ELLIPSE-41"><path class="cls-5" d="m310.35,252.77c-.68,3.38-.87,6.83-.59,10.27"/></g><g id="ELLIPSE-42"><path class="cls-5" d="m320.81,248.91c-2.27.44-4.48,1.16-6.57,2.13"/></g><g id="ELLIPSE-43"><path class="cls-5" d="m314.23,251.04c-3,1.99-4.74,5.41-4.57,9.01"/></g><g id="ELLIPSE-44"><path class="cls-5" d="m331.47,241.88c-3.33-.12-6.66.2-9.91.95"/></g><g id="ELLIPSE-45"><path class="cls-5" d="m331.47,248.42c-3.56-.12-7.12.04-10.66.48"/></g><g id="ELLIPSE-46"><path class="cls-5" d="m353.26,260.05c.17-3.6-1.56-7.02-4.57-9.01"/></g><g id="ELLIPSE-47"><path class="cls-5" d="m342.12,248.91c-3.53-.44-7.1-.61-10.66-.48"/></g><g id="ELLIPSE-48"><path class="cls-5" d="m348.7,251.04c-2.1-.98-4.3-1.69-6.57-2.13"/></g><g id="ELLIPSE-49"><path class="cls-5" d="m353.16,263.04c.29-3.43.09-6.89-.59-10.27"/></g><g id="ELLIPSE-50"><path class="cls-5" d="m331.47,277.49c3.02,0,6.02-.47,8.9-1.39"/></g><g id="ELLIPSE-51"><path class="cls-5" d="m341.37,242.84c-3.25-.76-6.58-1.08-9.91-.95"/></g><g id="ELLIPSE-52"><circle class="cls-5" cx="331.47" cy="254.96" r="1.45"/></g><g id="ELLIPSE-53"><circle class="cls-5" cx="331.47" cy="254.96" r="2.54"/></g><g id="ELLIPSE-54"><circle class="cls-5" cx="331.47" cy="244.43" r="1.27"/></g><g id="ELLIPSE-55"><circle class="cls-5" cx="324.2" cy="244.43" r="1.16"/></g><g id="ELLIPSE-56"><circle class="cls-5" cx="338.73" cy="244.43" r="1.16"/></g><g id="ELLIPSE-57"><path class="cls-5" d="m331.47,280.4c3.39,0,6.77-.53,10-1.56"/></g><g id="ELLIPSE-58"><path class="cls-5" d="m306.03,260.78c0,2.52.62,5.01,1.82,7.23"/></g><g id="ELLIPSE-59"><path class="cls-5" d="m306.4,239.7c-.2,0-.36.16-.36.36"/></g><g id="ELLIPSE-60"><path class="cls-5" d="m356.9,240.07c0-.2-.16-.36-.36-.36"/></g><g id="LINE-134"><line class="cls-5" x1="306.03" y1="240.79" x2="356.9" y2="240.79"/></g><g id="LINE-135"><line class="cls-5" x1="306.03" y1="240.07" x2="306.03" y2="260.78"/></g><g id="LINE-136"><line class="cls-5" x1="356.9" y1="260.78" x2="356.9" y2="240.07"/></g><g id="ELLIPSE-61"><path class="cls-5" d="m307.85,268.01c1.39,2.59,3.31,4.85,5.63,6.64"/></g><g id="ELLIPSE-62"><path class="cls-5" d="m313.48,274.65c2.4,1.85,5.1,3.27,7.98,4.19"/></g><g id="ELLIPSE-63"><path class="cls-5" d="m321.46,278.84c3.23,1.03,6.61,1.56,10,1.56"/></g><g id="ELLIPSE-64"><path class="cls-5" d="m341.47,278.84c2.88-.92,5.58-2.34,7.98-4.19"/></g><g id="ELLIPSE-65"><path class="cls-5" d="m349.45,274.65c2.32-1.79,4.24-4.06,5.63-6.64"/></g><g id="ELLIPSE-66"><path class="cls-5" d="m355.08,268.01c1.19-2.22,1.82-4.71,1.82-7.23"/></g><g id="ELLIPSE-67"><path class="cls-5" d="m347.43,245.48c-1.83-1.26-3.89-2.16-6.06-2.64"/></g><g id="ELLIPSE-68"><path class="cls-5" d="m351.69,250.5c-1.05-1.95-2.5-3.66-4.26-5.02"/></g><g id="ELLIPSE-69"><path class="cls-5" d="m352.58,252.77c-.2-.79-.5-1.55-.89-2.27"/></g><g id="ELLIPSE-70"><path class="cls-5" d="m340.36,276.1c2.48-.79,4.8-2.01,6.87-3.6"/></g><g id="ELLIPSE-71"><path class="cls-5" d="m347.23,272.5c1.92-1.48,3.5-3.35,4.65-5.48"/></g><g id="ELLIPSE-72"><path class="cls-5" d="m351.88,267.02c.66-1.24,1.1-2.59,1.28-3.98"/></g><g id="ELLIPSE-73"><path class="cls-5" d="m321.56,242.84c-2.17.49-4.23,1.38-6.06,2.64"/></g><g id="ELLIPSE-74"><path class="cls-5" d="m315.5,245.48c-1.76,1.35-3.21,3.07-4.26,5.02"/></g><g id="ELLIPSE-75"><path class="cls-5" d="m311.24,250.5c-.39.72-.68,1.48-.89,2.27"/></g><g id="ELLIPSE-76"><path class="cls-5" d="m315.7,272.5c2.06,1.59,4.39,2.81,6.87,3.6"/></g><g id="ELLIPSE-77"><path class="cls-5" d="m311.05,267.02c1.15,2.13,2.73,4,4.65,5.48"/></g><g id="ELLIPSE-78"><path class="cls-5" d="m309.77,263.04c.19,1.39.62,2.74,1.28,3.98"/></g><g id="LINE-137"><line class="cls-5" x1="356.53" y1="239.7" x2="306.4" y2="239.7"/></g></g><g id="PROIEZIONI_-_projections"><g id="LINE-138"><line class="cls-1" x1="537.35" y1="12.97" x2=".7" y2="12.97"/></g><g id="LINE-139"><line class="cls-1" x1=".7" y1="432.2" x2=".7" y2="12.97"/></g><g id="LINE-140"><line class="cls-1" x1="537.35" y1="432.2" x2=".7" y2="432.2"/></g></g></svg>