<?xml version="1.0" encoding="UTF-8"?><svg id="ARREDI_attrezzature_-_furniture" xmlns="http://www.w3.org/2000/svg" width="336.26" height="164.5" viewBox="0 0 336.26 164.5"><defs><style>.cls-1{stroke:#4c4c99;}.cls-1,.cls-2,.cls-3,.cls-4,.cls-5,.cls-6,.cls-7{fill:none;stroke-linecap:round;stroke-linejoin:round;}.cls-1,.cls-3{stroke-width:.26px;}.cls-2{stroke-width:1.13px;}.cls-2,.cls-5{stroke:#000;}.cls-3{stroke:#4c9a85;}.cls-4{stroke-width:5.98px;}.cls-4,.cls-7{stroke:#848484;}.cls-5{stroke-width:.37px;}.cls-6{stroke:#ff0;stroke-width:.71px;}.cls-7{stroke-dasharray:0 0 3.75 1.87;stroke-width:.14px;}</style></defs><g id="LWPOLYLINE"><polyline class="cls-5" points="318.48 139.2 318.48 151 306.68 151 306.68 139.2 318.48 139.2"/></g><g id="LWPOLYLINE-2"><polyline class="cls-5" points="318.48 13.76 318.48 25.56 306.68 25.56 306.68 13.76 318.48 13.76"/></g><g id="LWPOLYLINE-3"><polyline class="cls-5" points="206.35 139.2 206.35 151 194.55 151 194.55 139.2 206.35 139.2"/></g><g id="LWPOLYLINE-4"><polyline class="cls-5" points="206.23 13.76 206.23 25.56 194.42 25.56 194.42 13.76 206.23 13.76"/></g><g id="LWPOLYLINE-5"><polyline class="cls-2" points="318.48 139.2 314.05 139.2 314.05 25.56 318.48 25.56 318.48 139.2"/></g><g id="LWPOLYLINE-6"><polyline class="cls-2" points="318.48 151 314.05 151 314.05 151 318.48 151 318.48 151"/></g><g id="LINE"><line class="cls-2" x1="306.68" y1="146.58" x2="206.35" y2="146.58"/></g><g id="LINE-2"><line class="cls-2" x1="194.55" y1="146.58" x2="21.94" y2="146.58"/></g><g id="LINE-3"><line class="cls-2" x1="17.51" y1="151" x2="314.05" y2="151"/></g><g id="LWPOLYLINE-7"><polyline class="cls-2" points="259.43 13.76 259.43 18.18 206.23 18.18 206.23 13.76 259.43 13.76"/></g><g id="LWPOLYLINE-8"><polyline class="cls-2" points="185.7 25.56 185.7 29.99 21.94 29.99 21.94 25.56 185.7 25.56"/></g><g id="LINE-4"><line class="cls-2" x1="49.97" y1="13.76" x2="49.97" y2="18.18"/></g><g id="LINE-5"><line class="cls-2" x1="49.97" y1="18.18" x2="21.94" y2="18.18"/></g><g id="LINE-6"><line class="cls-2" x1="17.51" y1="13.76" x2="49.97" y2="13.76"/></g><g id="LWPOLYLINE-9"><polyline class="cls-2" points="306.68 87.56 303.72 87.56 303.72 146.58 306.68 146.58 306.68 87.56"/></g><g id="LWPOLYLINE-10"><polyline class="cls-2" points="314.05 87.56 314.05 84.61 297.82 84.61 297.82 87.56 314.05 87.56"/></g><g id="LWPOLYLINE-11"><polyline class="cls-2" points="250.61 87.56 247.66 87.56 247.66 146.58 250.61 146.58 250.61 87.56"/></g><g id="LWPOLYLINE-12"><polyline class="cls-2" points="247.66 139.2 247.66 136.25 185.7 136.25 185.7 139.2 247.66 139.2"/></g><g id="LWPOLYLINE-13"><polyline class="cls-2" points="266.84 87.56 266.84 84.61 247.66 84.61 247.66 87.56 266.84 87.56"/></g><g id="LWPOLYLINE-14"><polyline class="cls-2" points="247.66 28.51 247.66 25.56 185.7 25.56 185.7 28.51 247.66 28.51"/></g><g id="LWPOLYLINE-15"><polyline class="cls-2" points="250.61 18.18 247.66 18.18 247.66 46.21 250.61 46.21 250.61 18.18"/></g><g id="LWPOLYLINE-16"><polyline class="cls-2" points="185.7 29.99 182.75 29.99 182.75 65.39 185.7 65.39 185.7 29.99"/></g><g id="LWPOLYLINE-17"><polyline class="cls-2" points="185.7 146.58 182.75 146.58 182.75 118.54 185.7 118.54 185.7 146.58"/></g><g id="LWPOLYLINE-18"><polyline class="cls-2" points="306.68 13.76 306.68 18.18 290.41 18.18 290.41 13.76 306.68 13.76"/></g><g id="LINE-7"><line class="cls-2" x1="21.94" y1="18.18" x2="21.94" y2="146.58"/></g><g id="LINE-8"><line class="cls-2" x1="17.51" y1="151" x2="17.51" y2="13.76"/></g><g id="LWPOLYLINE-19"><polyline class="cls-2" points="64.72 146.58 61.77 146.58 61.77 114.12 64.72 114.12 64.72 146.58"/></g><g id="LWPOLYLINE-20"><polyline class="cls-2" points="61.77 137.72 61.77 140.67 52.92 140.67 52.92 137.72 61.77 137.72"/></g><g id="LWPOLYLINE-21"><polyline class="cls-2" points="55.87 146.58 52.92 146.58 52.92 140.67 55.87 140.67 55.87 146.58"/></g><g id="LWPOLYLINE-22"><polyline class="cls-2" points="44.07 25.56 41.12 25.56 41.12 18.18 44.07 18.18 44.07 25.56"/></g><g id="LWPOLYLINE-23"><polyline class="cls-2" points="49.97 25.56 49.97 13.76 206.23 13.76 206.23 25.56 49.97 25.56"/></g><g id="LWPOLYLINE-24"><polyline class="cls-6" points="52.92 115.59 52.92 114.12 61.77 114.12 61.77 115.59 52.92 115.59"/></g><g id="LWPOLYLINE-25"><polyline class="cls-6" points="119.31 29.99 117.83 29.99 117.83 65.39 119.31 65.39 119.31 29.99"/></g><g id="LWPOLYLINE-26"><polyline class="cls-6" points="151.77 29.99 150.29 29.99 150.29 65.39 151.77 65.39 151.77 29.99"/></g><g id="LWPOLYLINE-27"><polyline class="cls-6" points="86.85 29.99 85.38 29.99 85.38 65.39 86.85 65.39 86.85 29.99"/></g><g id="LWPOLYLINE-28"><polyline class="cls-6" points="54.39 29.99 52.92 29.99 52.92 65.39 54.39 65.39 54.39 29.99"/></g><g id="LWPOLYLINE-29"><polyline class="cls-6" points="52.92 115.59 54.39 115.59 54.39 121.46 52.92 121.46 52.92 115.59"/></g><g id="ARC"><path class="cls-7" d="m288.93-14.02c-15.48,0-28.03,12.55-28.03,28.03"/></g><g id="LWPOLYLINE-30"><line class="cls-7" x1="288.93" y1="14.02" x2="288.93" y2="-14.02"/></g><g id="LWPOLYLINE-31"><polyline class="cls-4" points="108.15 85.22 108.37 84.99 108.58 84.77 108.79 84.55 109 84.32 109.21 84.09 109.42 83.86 109.62 83.62 109.82 83.39 110.02 83.15 110.21 82.91 110.41 82.66 110.6 82.42 110.78 82.17 110.97 81.92 111.15 81.67 111.33 81.42 111.5 81.16 111.68 80.9 111.85 80.64 112.01 80.38 112.18 80.12 112.34 79.85 112.5 79.59 112.65 79.32 112.81 79.05 112.96 78.78 113.1 78.51 113.25 78.23 113.3 78.13"/></g><g id="LWPOLYLINE-32"><polyline class="cls-4" points="114.99 74.04 115.02 73.94 115.12 73.64 115.21 73.35 115.29 73.05 115.38 72.75 115.45 72.45 115.53 72.15 115.6 71.85 115.67 71.55 115.74 71.24 115.8 70.94 115.86 70.63 115.92 70.33 115.97 70.02 116.02 69.72 116.07 69.41 116.11 69.1 116.15 68.8 116.19 68.49 116.22 68.18 116.25 67.87 116.27 67.56 116.3 67.25 116.31 66.94 116.33 66.63 116.34 66.32 116.35 66.01 116.36 65.7 116.36 65.39"/></g><g id="LWPOLYLINE-33"><polyline class="cls-4" points="117.83 62.44 115.62 62.44 115.62 63.92"/></g><g id="LWPOLYLINE-34"><line class="cls-4" x1="116.36" y1="65.39" x2="117.83" y2="65.39"/></g><g id="LWPOLYLINE-35"><line class="cls-4" x1="116.36" y1="63.92" x2="88.33" y2="63.92"/></g><g id="LWPOLYLINE-36"><line class="cls-4" x1="88.33" y1="65.39" x2="91.97" y2="69.04"/></g><g id="LWPOLYLINE-37"><line class="cls-4" x1="95.1" y1="72.17" x2="101.37" y2="78.44"/></g><g id="LWPOLYLINE-38"><line class="cls-4" x1="104.5" y1="81.57" x2="108.15" y2="85.22"/></g><g id="LWPOLYLINE-39"><line class="cls-4" x1="115.62" y1="62.44" x2="104.56" y2="62.44"/></g><g id="LWPOLYLINE-40"><line class="cls-4" x1="100.13" y1="62.44" x2="89.06" y2="62.44"/></g><g id="LWPOLYLINE-41"><line class="cls-4" x1="117.83" y1="62.44" x2="117.83" y2="65.39"/></g><g id="LWPOLYLINE-42"><line class="cls-4" x1="116.36" y1="63.92" x2="116.36" y2="65.39"/></g><g id="LWPOLYLINE-43"><polyline class="cls-4" points="88.33 63.92 88.33 65.39 86.85 65.39 86.85 62.44 89.06 62.44 89.06 63.92"/></g><g id="LWPOLYLINE-44"><line class="cls-4" x1="117.09" y1="62.44" x2="117.09" y2="65.39"/></g><g id="LWPOLYLINE-45"><line class="cls-4" x1="87.59" y1="62.44" x2="87.59" y2="65.39"/></g><g id="LWPOLYLINE-46"><line class="cls-4" x1="116.36" y1="65.39" x2="88.33" y2="65.39"/></g><g id="LWPOLYLINE-47"><polyline class="cls-4" points="140.6 85.22 140.82 84.99 141.04 84.77 141.25 84.55 141.46 84.32 141.67 84.09 141.88 83.86 142.08 83.62 142.28 83.39 142.48 83.15 142.67 82.91 142.86 82.66 143.05 82.42 143.24 82.17 143.42 81.92 143.61 81.67 143.78 81.42 143.96 81.16 144.13 80.9 144.3 80.64 144.47 80.38 144.64 80.12 144.8 79.85 144.96 79.59 145.11 79.32 145.26 79.05 145.41 78.78 145.56 78.51 145.7 78.23 145.75 78.13"/></g><g id="LWPOLYLINE-48"><polyline class="cls-4" points="147.45 74.04 147.48 73.94 147.57 73.64 147.66 73.35 147.75 73.05 147.83 72.75 147.91 72.45 147.99 72.15 148.06 71.85 148.13 71.55 148.2 71.24 148.26 70.94 148.32 70.63 148.38 70.33 148.43 70.02 148.48 69.72 148.53 69.41 148.57 69.1 148.61 68.8 148.64 68.49 148.68 68.18 148.7 67.87 148.73 67.56 148.75 67.25 148.77 66.94 148.79 66.63 148.8 66.32 148.81 66.01 148.81 65.7 148.81 65.39"/></g><g id="LWPOLYLINE-49"><polyline class="cls-4" points="150.29 62.44 148.08 62.44 148.08 63.92"/></g><g id="LWPOLYLINE-50"><line class="cls-4" x1="148.81" y1="65.39" x2="150.29" y2="65.39"/></g><g id="LWPOLYLINE-51"><line class="cls-4" x1="148.81" y1="63.92" x2="120.78" y2="63.92"/></g><g id="LWPOLYLINE-52"><line class="cls-4" x1="120.78" y1="65.39" x2="124.43" y2="69.04"/></g><g id="LWPOLYLINE-53"><line class="cls-4" x1="127.56" y1="72.17" x2="133.83" y2="78.44"/></g><g id="LWPOLYLINE-54"><line class="cls-4" x1="136.96" y1="81.57" x2="140.6" y2="85.22"/></g><g id="LWPOLYLINE-55"><line class="cls-4" x1="148.08" y1="62.44" x2="137.01" y2="62.44"/></g><g id="LWPOLYLINE-56"><line class="cls-4" x1="132.58" y1="62.44" x2="121.52" y2="62.44"/></g><g id="LWPOLYLINE-57"><line class="cls-4" x1="150.29" y1="62.44" x2="150.29" y2="65.39"/></g><g id="LWPOLYLINE-58"><line class="cls-4" x1="148.81" y1="63.92" x2="148.81" y2="65.39"/></g><g id="LWPOLYLINE-59"><polyline class="cls-4" points="120.78 63.92 120.78 65.39 119.31 65.39 119.31 62.44 121.52 62.44 121.52 63.92"/></g><g id="LWPOLYLINE-60"><line class="cls-4" x1="149.55" y1="62.44" x2="149.55" y2="65.39"/></g><g id="LWPOLYLINE-61"><line class="cls-4" x1="120.05" y1="62.44" x2="120.05" y2="65.39"/></g><g id="LWPOLYLINE-62"><line class="cls-4" x1="148.81" y1="65.39" x2="120.78" y2="65.39"/></g><g id="LWPOLYLINE-63"><polyline class="cls-4" points="173.06 85.22 173.28 84.99 173.5 84.77 173.71 84.55 173.92 84.32 174.13 84.09 174.33 83.86 174.54 83.62 174.74 83.39 174.93 83.15 175.13 82.91 175.32 82.66 175.51 82.42 175.7 82.17 175.88 81.92 176.06 81.67 176.24 81.42 176.42 81.16 176.59 80.9 176.76 80.64 176.93 80.38 177.09 80.12 177.25 79.85 177.41 79.59 177.57 79.32 177.72 79.05 177.87 78.78 178.02 78.51 178.16 78.23 178.21 78.13"/></g><g id="LWPOLYLINE-64"><polyline class="cls-4" points="179.9 74.04 179.94 73.94 180.03 73.64 180.12 73.35 180.21 73.05 180.29 72.75 180.37 72.45 180.45 72.15 180.52 71.85 180.59 71.55 180.66 71.24 180.72 70.94 180.78 70.63 180.83 70.33 180.89 70.02 180.94 69.72 180.98 69.41 181.03 69.1 181.06 68.8 181.1 68.49 181.13 68.18 181.16 67.87 181.19 67.56 181.21 67.25 181.23 66.94 181.24 66.63 181.26 66.32 181.27 66.01 181.27 65.7 181.27 65.39"/></g><g id="LWPOLYLINE-65"><polyline class="cls-4" points="182.75 62.44 180.53 62.44 180.53 63.92"/></g><g id="LWPOLYLINE-66"><line class="cls-4" x1="181.27" y1="65.39" x2="182.75" y2="65.39"/></g><g id="LWPOLYLINE-67"><line class="cls-4" x1="181.27" y1="63.92" x2="153.24" y2="63.92"/></g><g id="LWPOLYLINE-68"><line class="cls-4" x1="153.24" y1="65.39" x2="156.89" y2="69.04"/></g><g id="LWPOLYLINE-69"><line class="cls-4" x1="160.02" y1="72.17" x2="166.28" y2="78.44"/></g><g id="LWPOLYLINE-70"><line class="cls-4" x1="169.42" y1="81.57" x2="173.06" y2="85.22"/></g><g id="LWPOLYLINE-71"><line class="cls-4" x1="180.53" y1="62.44" x2="169.47" y2="62.44"/></g><g id="LWPOLYLINE-72"><line class="cls-4" x1="165.04" y1="62.44" x2="153.98" y2="62.44"/></g><g id="LWPOLYLINE-73"><line class="cls-4" x1="182.75" y1="62.44" x2="182.75" y2="65.39"/></g><g id="LWPOLYLINE-74"><line class="cls-4" x1="181.27" y1="63.92" x2="181.27" y2="65.39"/></g><g id="LWPOLYLINE-75"><polyline class="cls-4" points="153.24 63.92 153.24 65.39 151.77 65.39 151.77 62.44 153.98 62.44 153.98 63.92"/></g><g id="LWPOLYLINE-76"><line class="cls-4" x1="182.01" y1="62.44" x2="182.01" y2="65.39"/></g><g id="LWPOLYLINE-77"><line class="cls-4" x1="152.5" y1="62.44" x2="152.5" y2="65.39"/></g><g id="LWPOLYLINE-78"><line class="cls-4" x1="181.27" y1="65.39" x2="153.24" y2="65.39"/></g><g id="ARC-2"><path class="cls-4" d="m296.35,56.58c-15.48,0-28.03,12.55-28.03,28.03"/></g><g id="LWPOLYLINE-79"><polyline class="cls-4" points="266.84 87.56 269.05 87.56 269.05 86.09"/></g><g id="LWPOLYLINE-80"><line class="cls-4" x1="268.32" y1="84.61" x2="266.84" y2="84.61"/></g><g id="LWPOLYLINE-81"><line class="cls-4" x1="268.32" y1="86.09" x2="296.35" y2="86.09"/></g><g id="LWPOLYLINE-82"><line class="cls-4" x1="296.35" y1="84.61" x2="296.35" y2="56.58"/></g><g id="LWPOLYLINE-83"><line class="cls-4" x1="269.05" y1="87.56" x2="280.12" y2="87.56"/></g><g id="LWPOLYLINE-84"><line class="cls-4" x1="284.55" y1="87.56" x2="295.61" y2="87.56"/></g><g id="LWPOLYLINE-85"><line class="cls-4" x1="266.84" y1="87.56" x2="266.84" y2="84.61"/></g><g id="LWPOLYLINE-86"><line class="cls-4" x1="268.32" y1="86.09" x2="268.32" y2="84.61"/></g><g id="LWPOLYLINE-87"><polyline class="cls-4" points="296.35 86.09 296.35 84.61 297.82 84.61 297.82 87.56 295.61 87.56 295.61 86.09"/></g><g id="LWPOLYLINE-88"><line class="cls-4" x1="267.58" y1="87.56" x2="267.58" y2="84.61"/></g><g id="LWPOLYLINE-89"><line class="cls-4" x1="297.09" y1="87.56" x2="297.09" y2="84.61"/></g><g id="LWPOLYLINE-90"><line class="cls-4" x1="268.32" y1="84.61" x2="296.35" y2="84.61"/></g><g id="LWPOLYLINE-91"><polyline class="cls-4" points="108.15 85.22 108.37 84.99 108.58 84.77 108.79 84.55 109 84.32 109.21 84.09 109.42 83.86 109.62 83.62 109.82 83.39 110.02 83.15 110.21 82.91 110.41 82.66 110.6 82.42 110.78 82.17 110.97 81.92 111.15 81.67 111.33 81.42 111.5 81.16 111.68 80.9 111.85 80.64 112.01 80.38 112.18 80.12 112.34 79.85 112.5 79.59 112.65 79.32 112.81 79.05 112.96 78.78 113.1 78.51 113.25 78.23 113.3 78.13"/></g><g id="LWPOLYLINE-92"><polyline class="cls-4" points="114.99 74.04 115.02 73.94 115.12 73.64 115.21 73.35 115.29 73.05 115.38 72.75 115.45 72.45 115.53 72.15 115.6 71.85 115.67 71.55 115.74 71.24 115.8 70.94 115.86 70.63 115.92 70.33 115.97 70.02 116.02 69.72 116.07 69.41 116.11 69.1 116.15 68.8 116.19 68.49 116.22 68.18 116.25 67.87 116.27 67.56 116.3 67.25 116.31 66.94 116.33 66.63 116.34 66.32 116.35 66.01 116.36 65.7 116.36 65.39"/></g><g id="LWPOLYLINE-93"><polyline class="cls-4" points="117.83 62.44 115.62 62.44 115.62 63.92"/></g><g id="LWPOLYLINE-94"><line class="cls-4" x1="116.36" y1="65.39" x2="117.83" y2="65.39"/></g><g id="LWPOLYLINE-95"><line class="cls-4" x1="116.36" y1="63.92" x2="88.33" y2="63.92"/></g><g id="LWPOLYLINE-96"><line class="cls-4" x1="88.33" y1="65.39" x2="91.97" y2="69.04"/></g><g id="LWPOLYLINE-97"><line class="cls-4" x1="95.1" y1="72.17" x2="101.37" y2="78.44"/></g><g id="LWPOLYLINE-98"><line class="cls-4" x1="104.5" y1="81.57" x2="108.15" y2="85.22"/></g><g id="LWPOLYLINE-99"><line class="cls-4" x1="115.62" y1="62.44" x2="104.56" y2="62.44"/></g><g id="LWPOLYLINE-100"><line class="cls-4" x1="100.13" y1="62.44" x2="89.06" y2="62.44"/></g><g id="LWPOLYLINE-101"><line class="cls-4" x1="117.83" y1="62.44" x2="117.83" y2="65.39"/></g><g id="LWPOLYLINE-102"><line class="cls-4" x1="116.36" y1="63.92" x2="116.36" y2="65.39"/></g><g id="LWPOLYLINE-103"><polyline class="cls-4" points="88.33 63.92 88.33 65.39 86.85 65.39 86.85 62.44 89.06 62.44 89.06 63.92"/></g><g id="LWPOLYLINE-104"><line class="cls-4" x1="117.09" y1="62.44" x2="117.09" y2="65.39"/></g><g id="LWPOLYLINE-105"><line class="cls-4" x1="87.59" y1="62.44" x2="87.59" y2="65.39"/></g><g id="LWPOLYLINE-106"><line class="cls-4" x1="116.36" y1="65.39" x2="88.33" y2="65.39"/></g><g id="LWPOLYLINE-107"><polyline class="cls-4" points="75.69 85.22 75.91 84.99 76.12 84.77 76.34 84.55 76.55 84.32 76.76 84.09 76.96 83.86 77.16 83.62 77.36 83.39 77.56 83.15 77.76 82.91 77.95 82.66 78.14 82.42 78.33 82.17 78.51 81.92 78.69 81.67 78.87 81.42 79.05 81.16 79.22 80.9 79.39 80.64 79.56 80.38 79.72 80.12 79.88 79.85 80.04 79.59 80.2 79.32 80.35 79.05 80.5 78.78 80.65 78.51 80.79 78.23 80.84 78.13"/></g><g id="LWPOLYLINE-108"><polyline class="cls-4" points="82.53 74.04 82.57 73.94 82.66 73.64 82.75 73.35 82.84 73.05 82.92 72.75 83 72.45 83.07 72.15 83.15 71.85 83.22 71.55 83.28 71.24 83.35 70.94 83.41 70.63 83.46 70.33 83.51 70.02 83.56 69.72 83.61 69.41 83.65 69.1 83.69 68.8 83.73 68.49 83.76 68.18 83.79 67.87 83.82 67.56 83.84 67.25 83.86 66.94 83.87 66.63 83.89 66.32 83.89 66.01 83.9 65.7 83.9 65.39"/></g><g id="LWPOLYLINE-109"><polyline class="cls-4" points="85.38 62.44 83.16 62.44 83.16 63.92"/></g><g id="LWPOLYLINE-110"><line class="cls-4" x1="83.9" y1="65.39" x2="85.38" y2="65.39"/></g><g id="LWPOLYLINE-111"><line class="cls-4" x1="83.9" y1="63.92" x2="55.87" y2="63.92"/></g><g id="LWPOLYLINE-112"><line class="cls-4" x1="55.87" y1="65.39" x2="59.51" y2="69.04"/></g><g id="LWPOLYLINE-113"><line class="cls-4" x1="62.65" y1="72.17" x2="68.91" y2="78.44"/></g><g id="LWPOLYLINE-114"><line class="cls-4" x1="72.05" y1="81.57" x2="75.69" y2="85.22"/></g><g id="LWPOLYLINE-115"><line class="cls-4" x1="83.16" y1="62.44" x2="72.1" y2="62.44"/></g><g id="LWPOLYLINE-116"><line class="cls-4" x1="67.67" y1="62.44" x2="56.61" y2="62.44"/></g><g id="LWPOLYLINE-117"><line class="cls-4" x1="85.38" y1="62.44" x2="85.38" y2="65.39"/></g><g id="LWPOLYLINE-118"><line class="cls-4" x1="83.9" y1="63.92" x2="83.9" y2="65.39"/></g><g id="LWPOLYLINE-119"><polyline class="cls-4" points="55.87 63.92 55.87 65.39 54.39 65.39 54.39 62.44 56.61 62.44 56.61 63.92"/></g><g id="LWPOLYLINE-120"><line class="cls-4" x1="84.64" y1="62.44" x2="84.64" y2="65.39"/></g><g id="LWPOLYLINE-121"><line class="cls-4" x1="55.13" y1="62.44" x2="55.13" y2="65.39"/></g><g id="LWPOLYLINE-122"><line class="cls-4" x1="83.9" y1="65.39" x2="55.87" y2="65.39"/></g><g id="LWPOLYLINE-123"><polyline class="cls-4" points="43.23 85.22 43.45 84.99 43.67 84.77 43.88 84.55 44.09 84.32 44.3 84.09 44.5 83.86 44.71 83.62 44.91 83.39 45.1 83.15 45.3 82.91 45.49 82.66 45.68 82.42 45.87 82.17 46.05 81.92 46.23 81.67 46.41 81.42 46.59 81.16 46.76 80.9 46.93 80.64 47.1 80.38 47.26 80.12 47.42 79.85 47.58 79.59 47.74 79.32 47.89 79.05 48.04 78.78 48.19 78.51 48.33 78.23 48.38 78.13"/></g><g id="LWPOLYLINE-124"><polyline class="cls-4" points="50.07 74.04 50.11 73.94 50.2 73.64 50.29 73.35 50.38 73.05 50.46 72.75 50.54 72.45 50.62 72.15 50.69 71.85 50.76 71.55 50.83 71.24 50.89 70.94 50.95 70.63 51.01 70.33 51.06 70.02 51.11 69.72 51.15 69.41 51.2 69.1 51.24 68.8 51.27 68.49 51.3 68.18 51.33 67.87 51.36 67.56 51.38 67.25 51.4 66.94 51.42 66.63 51.43 66.32 51.44 66.01 51.44 65.7 51.44 65.39"/></g><g id="LWPOLYLINE-125"><polyline class="cls-4" points="52.92 62.44 50.71 62.44 50.71 63.92"/></g><g id="LWPOLYLINE-126"><line class="cls-4" x1="51.44" y1="65.39" x2="52.92" y2="65.39"/></g><g id="LWPOLYLINE-127"><line class="cls-4" x1="51.44" y1="63.92" x2="23.41" y2="63.92"/></g><g id="LWPOLYLINE-128"><line class="cls-4" x1="23.41" y1="65.39" x2="27.06" y2="69.04"/></g><g id="LWPOLYLINE-129"><line class="cls-4" x1="30.19" y1="72.17" x2="36.45" y2="78.44"/></g><g id="LWPOLYLINE-130"><line class="cls-4" x1="39.59" y1="81.57" x2="43.23" y2="85.22"/></g><g id="LWPOLYLINE-131"><line class="cls-4" x1="50.71" y1="62.44" x2="39.64" y2="62.44"/></g><g id="LWPOLYLINE-132"><line class="cls-4" x1="35.21" y1="62.44" x2="24.15" y2="62.44"/></g><g id="LWPOLYLINE-133"><line class="cls-4" x1="52.92" y1="62.44" x2="52.92" y2="65.39"/></g><g id="LWPOLYLINE-134"><line class="cls-4" x1="51.44" y1="63.92" x2="51.44" y2="65.39"/></g><g id="LWPOLYLINE-135"><polyline class="cls-4" points="23.41 63.92 23.41 65.39 21.94 65.39 21.94 62.44 24.15 62.44 24.15 63.92"/></g><g id="LWPOLYLINE-136"><line class="cls-4" x1="52.18" y1="62.44" x2="52.18" y2="65.39"/></g><g id="LWPOLYLINE-137"><line class="cls-4" x1="22.67" y1="62.44" x2="22.67" y2="65.39"/></g><g id="LWPOLYLINE-138"><line class="cls-4" x1="51.44" y1="65.39" x2="23.41" y2="65.39"/></g><g id="LWPOLYLINE-139"><polyline class="cls-4" points="43.23 94.3 43.45 94.52 43.67 94.74 43.88 94.97 44.09 95.19 44.3 95.42 44.5 95.66 44.71 95.89 44.91 96.13 45.1 96.37 45.3 96.61 45.49 96.85 45.68 97.1 45.87 97.34 46.05 97.59 46.23 97.84 46.41 98.1 46.59 98.35 46.76 98.61 46.93 98.87 47.1 99.13 47.26 99.39 47.42 99.66 47.58 99.92 47.74 100.19 47.89 100.46 48.04 100.73 48.19 101.01 48.19 101.02"/></g><g id="LWPOLYLINE-140"><polyline class="cls-4" points="49.95 105.08 50.01 105.28 50.11 105.57 50.2 105.87 50.29 106.17 50.38 106.46 50.46 106.76 50.54 107.06 50.62 107.36 50.69 107.67 50.76 107.97 50.83 108.27 50.89 108.57 50.95 108.88 51.01 109.18 51.06 109.49 51.11 109.79 51.15 110.1 51.2 110.41 51.24 110.72 51.27 111.02 51.3 111.33 51.33 111.64 51.36 111.95 51.38 112.26 51.4 112.57 51.42 112.88 51.43 113.19 51.44 113.5 51.44 113.78"/></g><g id="LWPOLYLINE-141"><polyline class="cls-4" points="52.92 117.07 50.71 117.07 50.71 115.59"/></g><g id="LWPOLYLINE-142"><line class="cls-4" x1="51.44" y1="114.12" x2="52.92" y2="114.12"/></g><g id="LWPOLYLINE-143"><line class="cls-4" x1="51.44" y1="115.59" x2="23.41" y2="115.59"/></g><g id="LWPOLYLINE-144"><line class="cls-4" x1="23.41" y1="114.12" x2="27.06" y2="110.47"/></g><g id="LWPOLYLINE-145"><line class="cls-4" x1="30.19" y1="107.34" x2="36.45" y2="101.07"/></g><g id="LWPOLYLINE-146"><line class="cls-4" x1="39.59" y1="97.94" x2="43.23" y2="94.3"/></g><g id="LWPOLYLINE-147"><line class="cls-4" x1="50.71" y1="117.07" x2="39.64" y2="117.07"/></g><g id="LWPOLYLINE-148"><line class="cls-4" x1="35.21" y1="117.07" x2="24.15" y2="117.07"/></g><g id="LWPOLYLINE-149"><line class="cls-4" x1="52.92" y1="117.07" x2="52.92" y2="114.12"/></g><g id="LWPOLYLINE-150"><line class="cls-4" x1="51.44" y1="115.59" x2="51.44" y2="114.12"/></g><g id="LWPOLYLINE-151"><polyline class="cls-4" points="23.41 115.59 23.41 114.12 21.94 114.12 21.94 117.07 24.15 117.07 24.15 115.59"/></g><g id="LWPOLYLINE-152"><line class="cls-4" x1="52.18" y1="117.07" x2="52.18" y2="114.12"/></g><g id="LWPOLYLINE-153"><line class="cls-4" x1="22.67" y1="117.07" x2="22.67" y2="114.12"/></g><g id="LWPOLYLINE-154"><line class="cls-4" x1="51.44" y1="114.12" x2="23.41" y2="114.12"/></g><g id="LWPOLYLINE-155"><polyline class="cls-3" points="259.43 16.97 261.64 16.97 261.64 15.49"/></g><g id="LWPOLYLINE-156"><line class="cls-3" x1="260.9" y1="14.02" x2="259.43" y2="14.02"/></g><g id="LWPOLYLINE-157"><line class="cls-3" x1="260.9" y1="15.49" x2="288.93" y2="15.49"/></g><g id="LWPOLYLINE-158"><line class="cls-3" x1="261.64" y1="16.97" x2="272.7" y2="16.97"/></g><g id="LWPOLYLINE-159"><line class="cls-3" x1="277.13" y1="16.97" x2="288.2" y2="16.97"/></g><g id="LWPOLYLINE-160"><line class="cls-3" x1="259.43" y1="16.97" x2="259.43" y2="14.02"/></g><g id="LWPOLYLINE-161"><line class="cls-3" x1="260.9" y1="15.49" x2="260.9" y2="14.02"/></g><g id="LWPOLYLINE-162"><polyline class="cls-3" points="288.93 15.49 288.93 14.02 290.41 14.02 290.41 16.97 288.2 16.97 288.2 15.49"/></g><g id="LWPOLYLINE-163"><line class="cls-3" x1="260.16" y1="16.97" x2="260.16" y2="14.02"/></g><g id="LWPOLYLINE-164"><line class="cls-3" x1="289.67" y1="16.97" x2="289.67" y2="14.02"/></g><g id="LWPOLYLINE-165"><line class="cls-3" x1="260.9" y1="14.02" x2="288.93" y2="14.02"/></g><g id="LWPOLYLINE-166"><line class="cls-1" x1="185.7" y1="46.21" x2="247.66" y2="46.21"/></g><g id="ARC-3"><path class="cls-1" d="m230.64,34.91c-.67.48-1.23,1.09-1.65,1.8"/></g><g id="ARC-4"><path class="cls-1" d="m232.94,33.8c-.82.24-1.6.62-2.3,1.11"/></g><g id="ARC-5"><path class="cls-1" d="m235.86,33.38c-.99,0-1.97.14-2.92.42"/></g><g id="ARC-6"><path class="cls-1" d="m238.78,33.8c-.95-.28-1.93-.42-2.92-.42"/></g><g id="ARC-7"><path class="cls-1" d="m241.07,34.91c-.7-.5-1.47-.87-2.3-1.11"/></g><g id="ARC-8"><path class="cls-1" d="m242.72,36.71c-.41-.71-.98-1.32-1.65-1.8"/></g><g id="ARC-9"><path class="cls-1" d="m243.24,38.62c0-.67-.18-1.33-.51-1.9"/></g><g id="ARC-10"><path class="cls-1" d="m242.72,40.52c.34-.58.51-1.23.51-1.9"/></g><g id="ARC-11"><path class="cls-1" d="m241.08,42.32c.67-.48,1.23-1.09,1.65-1.8"/></g><g id="ARC-12"><path class="cls-1" d="m238.78,43.43c.82-.24,1.6-.62,2.3-1.11"/></g><g id="ARC-13"><path class="cls-1" d="m235.86,43.85c.99,0,1.97-.14,2.92-.42"/></g><g id="ARC-14"><path class="cls-1" d="m232.94,43.43c.95.28,1.93.42,2.92.42"/></g><g id="ARC-15"><path class="cls-1" d="m230.64,42.32c.7.5,1.47.87,2.3,1.11"/></g><g id="ARC-16"><path class="cls-1" d="m229,40.52c.41.71.98,1.32,1.65,1.8"/></g><g id="ARC-17"><path class="cls-1" d="m228.48,38.62c0,.67.18,1.33.51,1.9"/></g><g id="ARC-18"><path class="cls-1" d="m229,36.71c-.34.58-.51,1.23-.51,1.9"/></g><g id="CIRCLE"><circle class="cls-1" cx="235.86" cy="35.72" r=".74"/></g><g id="ARC-19"><path class="cls-1" d="m223.54,36.71c-.41-.71-.98-1.32-1.65-1.8"/></g><g id="ARC-20"><path class="cls-1" d="m221.9,34.91c-.7-.5-1.47-.87-2.3-1.11"/></g><g id="ARC-21"><path class="cls-1" d="m219.6,33.8c-.95-.28-1.93-.42-2.92-.42"/></g><g id="ARC-22"><path class="cls-1" d="m216.68,33.38c-.99,0-1.97.14-2.92.42"/></g><g id="ARC-23"><path class="cls-1" d="m213.76,33.8c-.82.24-1.6.62-2.3,1.11"/></g><g id="ARC-24"><path class="cls-1" d="m211.46,34.91c-.67.48-1.23,1.09-1.65,1.8"/></g><g id="ARC-25"><path class="cls-1" d="m209.82,36.71c-.34.58-.51,1.23-.51,1.9"/></g><g id="ARC-26"><path class="cls-1" d="m209.3,38.62c0,.67.18,1.33.51,1.9"/></g><g id="ARC-27"><path class="cls-1" d="m209.82,40.52c.41.71.98,1.32,1.65,1.8"/></g><g id="ARC-28"><path class="cls-1" d="m211.46,42.32c.7.5,1.47.87,2.3,1.11"/></g><g id="ARC-29"><path class="cls-1" d="m213.76,43.43c.95.28,1.93.42,2.92.42"/></g><g id="ARC-30"><path class="cls-1" d="m216.68,43.85c.99,0,1.97-.14,2.92-.42"/></g><g id="ARC-31"><path class="cls-1" d="m219.6,43.43c.82-.24,1.6-.62,2.3-1.11"/></g><g id="ARC-32"><path class="cls-1" d="m221.9,42.32c.67-.48,1.23-1.09,1.65-1.8"/></g><g id="ARC-33"><path class="cls-1" d="m223.54,40.52c.34-.58.51-1.23.51-1.9"/></g><g id="ARC-34"><path class="cls-1" d="m224.06,38.62c0-.67-.18-1.33-.51-1.9"/></g><g id="CIRCLE-2"><circle class="cls-1" cx="216.68" cy="35.72" r=".74"/></g><g id="ARC-35"><path class="cls-1" d="m192.28,34.91c-.67.48-1.23,1.09-1.65,1.8"/></g><g id="ARC-36"><path class="cls-1" d="m194.58,33.8c-.82.24-1.6.62-2.3,1.11"/></g><g id="ARC-37"><path class="cls-1" d="m197.5,33.38c-.99,0-1.97.14-2.92.42"/></g><g id="ARC-38"><path class="cls-1" d="m200.42,33.8c-.95-.28-1.93-.42-2.92-.42"/></g><g id="ARC-39"><path class="cls-1" d="m202.72,34.91c-.7-.5-1.47-.87-2.3-1.11"/></g><g id="ARC-40"><path class="cls-1" d="m204.36,36.71c-.41-.71-.98-1.32-1.65-1.8"/></g><g id="ARC-41"><path class="cls-1" d="m204.88,38.62c0-.67-.18-1.33-.51-1.9"/></g><g id="ARC-42"><path class="cls-1" d="m204.36,40.52c.34-.58.51-1.23.51-1.9"/></g><g id="ARC-43"><path class="cls-1" d="m202.72,42.32c.67-.48,1.23-1.09,1.65-1.8"/></g><g id="ARC-44"><path class="cls-1" d="m200.42,43.43c.82-.24,1.6-.62,2.3-1.11"/></g><g id="ARC-45"><path class="cls-1" d="m197.5,43.85c.99,0,1.97-.14,2.92-.42"/></g><g id="ARC-46"><path class="cls-1" d="m194.58,43.43c.95.28,1.93.42,2.92.42"/></g><g id="ARC-47"><path class="cls-1" d="m192.28,42.32c.7.5,1.47.87,2.3,1.11"/></g><g id="ARC-48"><path class="cls-1" d="m190.64,40.52c.41.71.98,1.32,1.65,1.8"/></g><g id="ARC-49"><path class="cls-1" d="m190.12,38.62c0,.67.18,1.33.51,1.9"/></g><g id="ARC-50"><path class="cls-1" d="m190.64,36.71c-.34.58-.51,1.23-.51,1.9"/></g><g id="CIRCLE-3"><circle class="cls-1" cx="197.5" cy="35.72" r=".74"/></g><g id="LWPOLYLINE-167"><line class="cls-1" x1="185.7" y1="118.54" x2="247.66" y2="118.54"/></g><g id="ARC-51"><path class="cls-1" d="m229,128.05c.41.71.98,1.32,1.65,1.8"/></g><g id="ARC-52"><path class="cls-1" d="m230.64,129.85c.7.5,1.47.87,2.3,1.11"/></g><g id="ARC-53"><path class="cls-1" d="m232.94,130.96c.95.28,1.93.42,2.92.42"/></g><g id="ARC-54"><path class="cls-1" d="m235.86,131.38c.99,0,1.97-.14,2.92-.42"/></g><g id="ARC-55"><path class="cls-1" d="m238.78,130.96c.82-.24,1.6-.62,2.3-1.11"/></g><g id="ARC-56"><path class="cls-1" d="m241.07,129.85c.67-.48,1.23-1.09,1.65-1.8"/></g><g id="ARC-57"><path class="cls-1" d="m242.72,128.05c.34-.58.51-1.23.51-1.9"/></g><g id="ARC-58"><path class="cls-1" d="m243.23,126.14c0-.67-.18-1.33-.51-1.9"/></g><g id="ARC-59"><path class="cls-1" d="m242.72,124.24c-.41-.71-.98-1.32-1.65-1.8"/></g><g id="ARC-60"><path class="cls-1" d="m241.07,122.44c-.7-.5-1.47-.87-2.3-1.11"/></g><g id="ARC-61"><path class="cls-1" d="m238.78,121.33c-.95-.28-1.93-.42-2.92-.42"/></g><g id="ARC-62"><path class="cls-1" d="m235.86,120.91c-.99,0-1.97.14-2.92.42"/></g><g id="ARC-63"><path class="cls-1" d="m232.94,121.33c-.82.24-1.6.62-2.3,1.11"/></g><g id="ARC-64"><path class="cls-1" d="m230.64,122.44c-.67.48-1.23,1.09-1.65,1.8"/></g><g id="ARC-65"><path class="cls-1" d="m229,124.24c-.34.58-.51,1.23-.51,1.9"/></g><g id="ARC-66"><path class="cls-1" d="m228.48,126.14c0,.67.18,1.33.51,1.9"/></g><g id="CIRCLE-4"><circle class="cls-1" cx="235.86" cy="129.04" r=".74"/></g><g id="ARC-67"><path class="cls-1" d="m221.89,129.85c.67-.48,1.23-1.09,1.65-1.8"/></g><g id="ARC-68"><path class="cls-1" d="m219.6,130.96c.82-.24,1.6-.62,2.3-1.11"/></g><g id="ARC-69"><path class="cls-1" d="m216.68,131.38c.99,0,1.97-.14,2.92-.42"/></g><g id="ARC-70"><path class="cls-1" d="m213.76,130.96c.95.28,1.93.42,2.92.42"/></g><g id="ARC-71"><path class="cls-1" d="m211.46,129.85c.7.5,1.47.87,2.3,1.11"/></g><g id="ARC-72"><path class="cls-1" d="m209.82,128.05c.41.71.98,1.32,1.65,1.8"/></g><g id="ARC-73"><path class="cls-1" d="m209.3,126.14c0,.67.18,1.33.51,1.9"/></g><g id="ARC-74"><path class="cls-1" d="m209.82,124.24c-.34.58-.51,1.23-.51,1.9"/></g><g id="ARC-75"><path class="cls-1" d="m211.46,122.44c-.67.48-1.23,1.09-1.65,1.8"/></g><g id="ARC-76"><path class="cls-1" d="m213.76,121.33c-.82.24-1.6.62-2.3,1.11"/></g><g id="ARC-77"><path class="cls-1" d="m216.68,120.91c-.99,0-1.97.14-2.92.42"/></g><g id="ARC-78"><path class="cls-1" d="m219.6,121.33c-.95-.28-1.93-.42-2.92-.42"/></g><g id="ARC-79"><path class="cls-1" d="m221.89,122.44c-.7-.5-1.47-.87-2.3-1.11"/></g><g id="ARC-80"><path class="cls-1" d="m223.54,124.24c-.41-.71-.98-1.32-1.65-1.8"/></g><g id="ARC-81"><path class="cls-1" d="m224.06,126.14c0-.67-.18-1.33-.51-1.9"/></g><g id="ARC-82"><path class="cls-1" d="m223.54,128.05c.34-.58.51-1.23.51-1.9"/></g><g id="CIRCLE-5"><circle class="cls-1" cx="216.68" cy="129.04" r=".74"/></g><g id="ARC-83"><path class="cls-1" d="m190.64,128.05c.41.71.98,1.32,1.65,1.8"/></g><g id="ARC-84"><path class="cls-1" d="m192.28,129.85c.7.5,1.47.87,2.3,1.11"/></g><g id="ARC-85"><path class="cls-1" d="m194.58,130.96c.95.28,1.93.42,2.92.42"/></g><g id="ARC-86"><path class="cls-1" d="m197.5,131.38c.99,0,1.97-.14,2.92-.42"/></g><g id="ARC-87"><path class="cls-1" d="m200.42,130.96c.82-.24,1.6-.62,2.3-1.11"/></g><g id="ARC-88"><path class="cls-1" d="m202.72,129.85c.67-.48,1.23-1.09,1.65-1.8"/></g><g id="ARC-89"><path class="cls-1" d="m204.36,128.05c.34-.58.51-1.23.51-1.9"/></g><g id="ARC-90"><path class="cls-1" d="m204.88,126.14c0-.67-.18-1.33-.51-1.9"/></g><g id="ARC-91"><path class="cls-1" d="m204.36,124.24c-.41-.71-.98-1.32-1.65-1.8"/></g><g id="ARC-92"><path class="cls-1" d="m202.71,122.44c-.7-.5-1.47-.87-2.3-1.11"/></g><g id="ARC-93"><path class="cls-1" d="m200.42,121.33c-.95-.28-1.93-.42-2.92-.42"/></g><g id="ARC-94"><path class="cls-1" d="m197.5,120.91c-.99,0-1.97.14-2.92.42"/></g><g id="ARC-95"><path class="cls-1" d="m194.58,121.33c-.82.24-1.6.62-2.3,1.11"/></g><g id="ARC-96"><path class="cls-1" d="m192.28,122.44c-.67.48-1.23,1.09-1.65,1.8"/></g><g id="ARC-97"><path class="cls-1" d="m190.64,124.24c-.34.58-.51,1.23-.51,1.9"/></g><g id="ARC-98"><path class="cls-1" d="m190.12,126.14c0,.67.18,1.33.51,1.9"/></g><g id="CIRCLE-6"><circle class="cls-1" cx="197.5" cy="129.04" r=".74"/></g><g id="ARC-99"><path class="cls-1" d="m106.14,41.56c.22-.96.33-1.95.33-2.93"/></g><g id="ARC-100"><path class="cls-1" d="m105.28,43.78c.39-.7.68-1.45.85-2.22"/></g><g id="ARC-101"><path class="cls-1" d="m103.82,45.45c.6-.45,1.1-1.02,1.46-1.67"/></g><g id="ARC-102"><path class="cls-1" d="m102.42,45.92c.51,0,1-.16,1.41-.47"/></g><g id="ARC-103"><path class="cls-1" d="m101.01,45.45c.41.3.9.47,1.4.47"/></g><g id="ARC-104"><path class="cls-1" d="m99.55,43.79c.36.65.86,1.22,1.46,1.67"/></g><g id="ARC-105"><path class="cls-1" d="m98.7,41.56c.18.78.47,1.53.85,2.22"/></g><g id="ARC-106"><path class="cls-1" d="m98.36,38.63c0,.99.11,1.97.33,2.93"/></g><g id="ARC-107"><path class="cls-1" d="m106.47,38.63c0-2.24-1.82-4.05-4.05-4.05s-4.05,1.82-4.05,4.05"/></g><g id="ARC-108"><path class="cls-1" d="m107.29,42.75c.24-.89.36-1.81.36-2.74"/></g><g id="ARC-109"><path class="cls-1" d="m106.29,45c.45-.69.79-1.45,1-2.24"/></g><g id="ARC-110"><path class="cls-1" d="m104.51,46.76c.71-.46,1.32-1.06,1.78-1.77"/></g><g id="ARC-111"><path class="cls-1" d="m102.34,47.39c.77,0,1.52-.22,2.16-.63"/></g><g id="ARC-112"><path class="cls-1" d="m100.18,46.76c.65.41,1.4.63,2.16.63"/></g><g id="ARC-113"><path class="cls-1" d="m98.39,45c.46.71,1.07,1.31,1.78,1.77"/></g><g id="ARC-114"><path class="cls-1" d="m97.39,42.75c.21.79.55,1.55,1,2.24"/></g><g id="ARC-115"><path class="cls-1" d="m97.03,40.02c0,.92.12,1.84.36,2.74"/></g><g id="ARC-116"><path class="cls-1" d="m100.58,37.48c0,.97.79,1.76,1.76,1.76s1.76-.79,1.76-1.76"/></g><g id="ARC-117"><path class="cls-1" d="m97.84,30.72c-.52,3.07-.79,6.18-.81,9.3"/></g><g id="ARC-118"><path class="cls-1" d="m107.65,40.02c-.01-3.12-.29-6.23-.81-9.3"/></g><g id="LWPOLYLINE-168"><line class="cls-1" x1="98.71" y1="29.99" x2="105.97" y2="29.99"/></g><g id="ARC-119"><path class="cls-1" d="m106.84,30.72c-.07-.43-.44-.74-.87-.74"/></g><g id="ARC-120"><path class="cls-1" d="m98.71,29.99c-.43,0-.8.31-.87.74"/></g><g id="ARC-121"><path class="cls-1" d="m138.59,41.56c.22-.96.33-1.95.33-2.93"/></g><g id="ARC-122"><path class="cls-1" d="m137.74,43.78c.39-.7.68-1.45.85-2.22"/></g><g id="ARC-123"><path class="cls-1" d="m136.28,45.45c.6-.45,1.1-1.02,1.46-1.67"/></g><g id="ARC-124"><path class="cls-1" d="m134.87,45.92c.51,0,1-.16,1.41-.47"/></g><g id="ARC-125"><path class="cls-1" d="m133.47,45.45c.41.3.9.47,1.4.47"/></g><g id="ARC-126"><path class="cls-1" d="m132.01,43.79c.36.65.86,1.22,1.46,1.67"/></g><g id="ARC-127"><path class="cls-1" d="m131.15,41.56c.18.78.47,1.53.85,2.22"/></g><g id="ARC-128"><path class="cls-1" d="m130.82,38.63c0,.99.11,1.97.33,2.93"/></g><g id="ARC-129"><path class="cls-1" d="m138.93,38.63c0-2.24-1.82-4.05-4.05-4.05s-4.05,1.82-4.05,4.05"/></g><g id="ARC-130"><path class="cls-1" d="m139.75,42.75c.24-.89.36-1.81.36-2.74"/></g><g id="ARC-131"><path class="cls-1" d="m138.75,45c.45-.69.79-1.45,1-2.24"/></g><g id="ARC-132"><path class="cls-1" d="m136.96,46.76c.71-.46,1.32-1.06,1.78-1.77"/></g><g id="ARC-133"><path class="cls-1" d="m134.8,47.39c.77,0,1.52-.22,2.16-.63"/></g><g id="ARC-134"><path class="cls-1" d="m132.63,46.76c.65.41,1.4.63,2.16.63"/></g><g id="ARC-135"><path class="cls-1" d="m130.85,45c.46.71,1.07,1.31,1.78,1.77"/></g><g id="ARC-136"><path class="cls-1" d="m129.85,42.75c.21.79.55,1.55,1,2.24"/></g><g id="ARC-137"><path class="cls-1" d="m129.49,40.02c0,.92.12,1.84.36,2.74"/></g><g id="ARC-138"><path class="cls-1" d="m133.03,37.48c0,.97.79,1.76,1.76,1.76s1.76-.79,1.76-1.76"/></g><g id="ARC-139"><path class="cls-1" d="m130.3,30.72c-.52,3.07-.79,6.18-.81,9.3"/></g><g id="ARC-140"><path class="cls-1" d="m140.11,40.02c-.01-3.12-.29-6.23-.81-9.3"/></g><g id="LWPOLYLINE-169"><line class="cls-1" x1="131.17" y1="29.99" x2="138.43" y2="29.99"/></g><g id="ARC-141"><path class="cls-1" d="m139.3,30.72c-.07-.43-.44-.74-.87-.74"/></g><g id="ARC-142"><path class="cls-1" d="m131.17,29.99c-.43,0-.8.31-.87.74"/></g><g id="ARC-143"><path class="cls-1" d="m171.05,41.56c.22-.96.33-1.95.33-2.93"/></g><g id="ARC-144"><path class="cls-1" d="m170.2,43.78c.39-.7.68-1.45.85-2.22"/></g><g id="ARC-145"><path class="cls-1" d="m168.74,45.45c.6-.45,1.1-1.02,1.46-1.67"/></g><g id="ARC-146"><path class="cls-1" d="m167.33,45.92c.51,0,1-.16,1.41-.47"/></g><g id="ARC-147"><path class="cls-1" d="m165.93,45.45c.41.3.9.47,1.4.47"/></g><g id="ARC-148"><path class="cls-1" d="m164.46,43.79c.36.65.86,1.22,1.46,1.67"/></g><g id="ARC-149"><path class="cls-1" d="m163.61,41.56c.18.78.47,1.53.85,2.22"/></g><g id="ARC-150"><path class="cls-1" d="m163.28,38.63c0,.99.11,1.97.33,2.93"/></g><g id="ARC-151"><path class="cls-1" d="m171.39,38.63c0-2.24-1.82-4.05-4.05-4.05s-4.05,1.82-4.05,4.05"/></g><g id="ARC-152"><path class="cls-1" d="m172.2,42.75c.24-.89.36-1.81.36-2.74"/></g><g id="ARC-153"><path class="cls-1" d="m171.21,45c.45-.69.79-1.45,1-2.24"/></g><g id="ARC-154"><path class="cls-1" d="m169.42,46.76c.71-.46,1.32-1.06,1.78-1.77"/></g><g id="ARC-155"><path class="cls-1" d="m167.26,47.39c.77,0,1.52-.22,2.16-.63"/></g><g id="ARC-156"><path class="cls-1" d="m165.09,46.76c.65.41,1.4.63,2.16.63"/></g><g id="ARC-157"><path class="cls-1" d="m163.31,45c.46.71,1.07,1.31,1.78,1.77"/></g><g id="ARC-158"><path class="cls-1" d="m162.31,42.75c.21.79.55,1.55,1,2.24"/></g><g id="ARC-159"><path class="cls-1" d="m161.95,40.02c0,.92.12,1.84.36,2.74"/></g><g id="ARC-160"><path class="cls-1" d="m165.49,37.48c0,.97.79,1.76,1.76,1.76s1.76-.79,1.76-1.76"/></g><g id="ARC-161"><path class="cls-1" d="m162.75,30.72c-.52,3.07-.79,6.18-.81,9.3"/></g><g id="ARC-162"><path class="cls-1" d="m172.57,40.02c-.01-3.12-.29-6.23-.81-9.3"/></g><g id="LWPOLYLINE-170"><line class="cls-1" x1="163.63" y1="29.99" x2="170.89" y2="29.99"/></g><g id="ARC-163"><path class="cls-1" d="m171.76,30.72c-.07-.43-.44-.74-.87-.74"/></g><g id="ARC-164"><path class="cls-1" d="m163.63,29.99c-.43,0-.8.31-.87.74"/></g><g id="ARC-165"><path class="cls-1" d="m294.05,137.94c0-.99-.11-1.97-.33-2.93"/></g><g id="ARC-166"><path class="cls-1" d="m293.71,135c-.18-.78-.47-1.53-.85-2.22"/></g><g id="ARC-167"><path class="cls-1" d="m292.86,132.78c-.36-.65-.86-1.22-1.46-1.67"/></g><g id="ARC-168"><path class="cls-1" d="m291.4,131.11c-.41-.3-.9-.47-1.41-.47"/></g><g id="ARC-169"><path class="cls-1" d="m289.99,130.64c-.51,0-1,.16-1.41.47"/></g><g id="ARC-170"><path class="cls-1" d="m288.59,131.11c-.6.45-1.1,1.02-1.46,1.67"/></g><g id="ARC-171"><path class="cls-1" d="m287.13,132.78c-.39.7-.68,1.45-.85,2.22"/></g><g id="ARC-172"><path class="cls-1" d="m286.27,135c-.22.96-.33,1.95-.33,2.93"/></g><g id="ARC-173"><path class="cls-1" d="m285.94,137.94c0,2.24,1.82,4.05,4.05,4.05s4.05-1.82,4.05-4.05"/></g><g id="ARC-174"><path class="cls-1" d="m295.23,136.54c0-.92-.12-1.84-.36-2.74"/></g><g id="ARC-175"><path class="cls-1" d="m294.87,133.81c-.21-.79-.55-1.55-1-2.24"/></g><g id="ARC-176"><path class="cls-1" d="m293.87,131.57c-.46-.71-1.07-1.31-1.78-1.77"/></g><g id="ARC-177"><path class="cls-1" d="m292.08,129.8c-.65-.41-1.4-.63-2.16-.63"/></g><g id="ARC-178"><path class="cls-1" d="m289.92,129.17c-.77,0-1.52.22-2.16.63"/></g><g id="ARC-179"><path class="cls-1" d="m287.75,129.8c-.71.46-1.32,1.06-1.78,1.77"/></g><g id="ARC-180"><path class="cls-1" d="m285.97,131.57c-.45.69-.79,1.45-1,2.24"/></g><g id="ARC-181"><path class="cls-1" d="m284.97,133.81c-.24.89-.36,1.81-.36,2.74"/></g><g id="ARC-182"><path class="cls-1" d="m291.68,139.08c0-.97-.79-1.76-1.76-1.76s-1.76.79-1.76,1.76"/></g><g id="ARC-183"><path class="cls-1" d="m284.61,136.55c.01,3.12.29,6.23.81,9.3"/></g><g id="ARC-184"><path class="cls-1" d="m294.42,145.84c.52-3.07.79-6.18.81-9.3"/></g><g id="LWPOLYLINE-171"><line class="cls-1" x1="286.29" y1="146.58" x2="293.55" y2="146.58"/></g><g id="ARC-185"><path class="cls-1" d="m293.55,146.58c.43,0,.8-.31.87-.74"/></g><g id="ARC-186"><path class="cls-1" d="m285.41,145.84c.07.43.44.74.87.74"/></g><g id="ARC-187"><path class="cls-1" d="m250.61,116.54c0,.46.35.84.81.88"/></g><g id="ARC-188"><path class="cls-1" d="m251.42,99.83c-.46.04-.81.42-.81.88"/></g><g id="LWPOLYLINE-172"><line class="cls-1" x1="258.75" y1="118.08" x2="251.42" y2="117.42"/></g><g id="LWPOLYLINE-173"><line class="cls-1" x1="258.75" y1="99.16" x2="251.42" y2="99.83"/></g><g id="ARC-189"><path class="cls-1" d="m255.05,113.84c.48.67,1.09,1.23,1.8,1.65"/></g><g id="ARC-190"><path class="cls-1" d="m253.94,111.54c.24.82.62,1.6,1.11,2.3"/></g><g id="ARC-191"><path class="cls-1" d="m253.52,108.62c0,.99.14,1.97.42,2.92"/></g><g id="ARC-192"><path class="cls-1" d="m253.94,105.7c-.28.95-.42,1.93-.42,2.92"/></g><g id="ARC-193"><path class="cls-1" d="m255.05,103.41c-.5.7-.87,1.47-1.11,2.3"/></g><g id="ARC-194"><path class="cls-1" d="m256.85,101.76c-.71.41-1.32.98-1.8,1.65"/></g><g id="ARC-195"><path class="cls-1" d="m258.75,101.25c-.67,0-1.33.18-1.9.51"/></g><g id="ARC-196"><path class="cls-1" d="m260.66,101.76c-.58-.34-1.23-.51-1.9-.51"/></g><g id="ARC-197"><path class="cls-1" d="m262.46,103.41c-.48-.67-1.09-1.23-1.8-1.65"/></g><g id="ARC-198"><path class="cls-1" d="m263.57,105.7c-.24-.82-.62-1.6-1.11-2.29"/></g><g id="ARC-199"><path class="cls-1" d="m263.99,108.62c0-.99-.14-1.97-.42-2.92"/></g><g id="ARC-200"><path class="cls-1" d="m263.57,111.54c.28-.95.42-1.93.42-2.92"/></g><g id="ARC-201"><path class="cls-1" d="m262.46,113.84c.5-.7.87-1.47,1.11-2.3"/></g><g id="ARC-202"><path class="cls-1" d="m260.66,115.48c.71-.41,1.32-.98,1.8-1.65"/></g><g id="ARC-203"><path class="cls-1" d="m258.75,116c.67,0,1.33-.18,1.9-.51"/></g><g id="ARC-204"><path class="cls-1" d="m256.85,115.48c.58.34,1.23.51,1.9.51"/></g><g id="ARC-205"><path class="cls-1" d="m261.71,99.96c-.9-.52-1.92-.8-2.95-.8"/></g><g id="ARC-206"><path class="cls-1" d="m264.16,102.2c-.65-.91-1.48-1.68-2.45-2.24"/></g><g id="ARC-207"><path class="cls-1" d="m265.57,105.11c-.31-1.04-.78-2.03-1.41-2.91"/></g><g id="ARC-208"><path class="cls-1" d="m266.07,108.62c0-1.19-.17-2.37-.51-3.51"/></g><g id="ARC-209"><path class="cls-1" d="m265.57,112.13c.34-1.14.51-2.32.51-3.51"/></g><g id="ARC-210"><path class="cls-1" d="m264.16,115.04c.63-.89,1.11-1.87,1.41-2.91"/></g><g id="ARC-211"><path class="cls-1" d="m261.71,117.28c.97-.56,1.8-1.33,2.45-2.24"/></g><g id="ARC-212"><path class="cls-1" d="m258.75,118.08c1.04,0,2.06-.28,2.95-.8"/></g><g id="LWPOLYLINE-174"><line class="cls-1" x1="250.61" y1="116.54" x2="250.61" y2="100.71"/></g><g id="CIRCLE-7"><circle class="cls-1" cx="256.51" cy="108.62" r=".74"/></g><g id="ARC-213"><path class="cls-1" d="m106.14,41.56c.22-.96.33-1.95.33-2.93"/></g><g id="ARC-214"><path class="cls-1" d="m105.28,43.78c.39-.7.68-1.45.85-2.22"/></g><g id="ARC-215"><path class="cls-1" d="m103.82,45.45c.6-.45,1.1-1.02,1.46-1.67"/></g><g id="ARC-216"><path class="cls-1" d="m102.42,45.92c.51,0,1-.16,1.41-.47"/></g><g id="ARC-217"><path class="cls-1" d="m101.01,45.45c.41.3.9.47,1.4.47"/></g><g id="ARC-218"><path class="cls-1" d="m99.55,43.79c.36.65.86,1.22,1.46,1.67"/></g><g id="ARC-219"><path class="cls-1" d="m98.7,41.56c.18.78.47,1.53.85,2.22"/></g><g id="ARC-220"><path class="cls-1" d="m98.36,38.63c0,.99.11,1.97.33,2.93"/></g><g id="ARC-221"><path class="cls-1" d="m106.47,38.63c0-2.24-1.82-4.05-4.05-4.05s-4.05,1.82-4.05,4.05"/></g><g id="ARC-222"><path class="cls-1" d="m107.29,42.75c.24-.89.36-1.81.36-2.74"/></g><g id="ARC-223"><path class="cls-1" d="m106.29,45c.45-.69.79-1.45,1-2.24"/></g><g id="ARC-224"><path class="cls-1" d="m104.51,46.76c.71-.46,1.32-1.06,1.78-1.77"/></g><g id="ARC-225"><path class="cls-1" d="m102.34,47.39c.77,0,1.52-.22,2.16-.63"/></g><g id="ARC-226"><path class="cls-1" d="m100.18,46.76c.65.41,1.4.63,2.16.63"/></g><g id="ARC-227"><path class="cls-1" d="m98.39,45c.46.71,1.07,1.31,1.78,1.77"/></g><g id="ARC-228"><path class="cls-1" d="m97.39,42.75c.21.79.55,1.55,1,2.24"/></g><g id="ARC-229"><path class="cls-1" d="m97.03,40.02c0,.92.12,1.84.36,2.74"/></g><g id="ARC-230"><path class="cls-1" d="m100.58,37.48c0,.97.79,1.76,1.76,1.76s1.76-.79,1.76-1.76"/></g><g id="ARC-231"><path class="cls-1" d="m97.84,30.72c-.52,3.07-.79,6.18-.81,9.3"/></g><g id="ARC-232"><path class="cls-1" d="m107.65,40.02c-.01-3.12-.29-6.23-.81-9.3"/></g><g id="LWPOLYLINE-175"><line class="cls-1" x1="98.71" y1="29.99" x2="105.97" y2="29.99"/></g><g id="ARC-233"><path class="cls-1" d="m106.84,30.72c-.07-.43-.44-.74-.87-.74"/></g><g id="ARC-234"><path class="cls-1" d="m98.71,29.99c-.43,0-.8.31-.87.74"/></g><g id="ARC-235"><path class="cls-1" d="m73.68,41.56c.22-.96.33-1.95.33-2.93"/></g><g id="ARC-236"><path class="cls-1" d="m72.83,43.78c.39-.7.68-1.45.85-2.22"/></g><g id="ARC-237"><path class="cls-1" d="m71.37,45.45c.6-.45,1.1-1.02,1.46-1.67"/></g><g id="ARC-238"><path class="cls-1" d="m69.96,45.92c.51,0,1-.16,1.41-.47"/></g><g id="ARC-239"><path class="cls-1" d="m68.55,45.45c.41.3.9.47,1.4.47"/></g><g id="ARC-240"><path class="cls-1" d="m67.09,43.79c.36.65.86,1.22,1.46,1.67"/></g><g id="ARC-241"><path class="cls-1" d="m66.24,41.56c.18.78.47,1.53.85,2.22"/></g><g id="ARC-242"><path class="cls-1" d="m65.91,38.63c0,.99.11,1.97.33,2.93"/></g><g id="ARC-243"><path class="cls-1" d="m74.01,38.63c0-2.24-1.82-4.05-4.05-4.05s-4.05,1.82-4.05,4.05"/></g><g id="ARC-244"><path class="cls-1" d="m74.83,42.75c.24-.89.36-1.81.36-2.74"/></g><g id="ARC-245"><path class="cls-1" d="m73.83,45c.45-.69.79-1.45,1-2.24"/></g><g id="ARC-246"><path class="cls-1" d="m72.05,46.76c.71-.46,1.32-1.06,1.78-1.77"/></g><g id="ARC-247"><path class="cls-1" d="m69.88,47.39c.77,0,1.52-.22,2.16-.63"/></g><g id="ARC-248"><path class="cls-1" d="m67.72,46.76c.65.41,1.4.63,2.16.63"/></g><g id="ARC-249"><path class="cls-1" d="m65.94,45c.46.71,1.07,1.31,1.78,1.77"/></g><g id="ARC-250"><path class="cls-1" d="m64.94,42.75c.21.79.55,1.55,1,2.24"/></g><g id="ARC-251"><path class="cls-1" d="m64.57,40.02c0,.92.12,1.84.36,2.74"/></g><g id="ARC-252"><path class="cls-1" d="m68.12,37.48c0,.97.79,1.76,1.76,1.76s1.76-.79,1.76-1.76"/></g><g id="ARC-253"><path class="cls-1" d="m65.38,30.72c-.52,3.07-.79,6.18-.81,9.3"/></g><g id="ARC-254"><path class="cls-1" d="m75.2,40.02c-.01-3.12-.29-6.23-.81-9.3"/></g><g id="LWPOLYLINE-176"><line class="cls-1" x1="66.25" y1="29.99" x2="73.51" y2="29.99"/></g><g id="ARC-255"><path class="cls-1" d="m74.39,30.72c-.07-.43-.44-.74-.87-.74"/></g><g id="ARC-256"><path class="cls-1" d="m66.25,29.99c-.43,0-.8.31-.87.74"/></g><g id="ARC-257"><path class="cls-1" d="m41.22,41.56c.22-.96.33-1.95.33-2.93"/></g><g id="ARC-258"><path class="cls-1" d="m40.37,43.78c.39-.7.68-1.45.85-2.22"/></g><g id="ARC-259"><path class="cls-1" d="m38.91,45.45c.6-.45,1.1-1.02,1.46-1.67"/></g><g id="ARC-260"><path class="cls-1" d="m37.5,45.92c.51,0,1-.16,1.41-.47"/></g><g id="ARC-261"><path class="cls-1" d="m36.1,45.45c.41.3.9.47,1.4.47"/></g><g id="ARC-262"><path class="cls-1" d="m34.64,43.79c.36.65.86,1.22,1.46,1.67"/></g><g id="ARC-263"><path class="cls-1" d="m33.78,41.56c.18.78.47,1.53.85,2.22"/></g><g id="ARC-264"><path class="cls-1" d="m33.45,38.63c0,.99.11,1.97.33,2.93"/></g><g id="ARC-265"><path class="cls-1" d="m41.56,38.63c0-2.24-1.82-4.05-4.05-4.05s-4.05,1.82-4.05,4.05"/></g><g id="ARC-266"><path class="cls-1" d="m42.38,42.75c.24-.89.36-1.81.36-2.74"/></g><g id="ARC-267"><path class="cls-1" d="m41.38,45c.45-.69.79-1.45,1-2.24"/></g><g id="ARC-268"><path class="cls-1" d="m39.59,46.76c.71-.46,1.32-1.06,1.78-1.77"/></g><g id="ARC-269"><path class="cls-1" d="m37.43,47.39c.77,0,1.52-.22,2.16-.63"/></g><g id="ARC-270"><path class="cls-1" d="m35.26,46.76c.65.41,1.4.63,2.16.63"/></g><g id="ARC-271"><path class="cls-1" d="m33.48,45c.46.71,1.07,1.31,1.78,1.77"/></g><g id="ARC-272"><path class="cls-1" d="m32.48,42.75c.21.79.55,1.55,1,2.24"/></g><g id="ARC-273"><path class="cls-1" d="m32.12,40.02c0,.92.12,1.84.36,2.74"/></g><g id="ARC-274"><path class="cls-1" d="m35.66,37.48c0,.97.79,1.76,1.76,1.76s1.76-.79,1.76-1.76"/></g><g id="ARC-275"><path class="cls-1" d="m32.93,30.72c-.52,3.07-.79,6.18-.81,9.3"/></g><g id="ARC-276"><path class="cls-1" d="m42.74,40.02c-.01-3.12-.29-6.23-.81-9.3"/></g><g id="LWPOLYLINE-177"><line class="cls-1" x1="33.8" y1="29.99" x2="41.06" y2="29.99"/></g><g id="ARC-277"><path class="cls-1" d="m41.93,30.72c-.07-.43-.44-.74-.87-.74"/></g><g id="ARC-278"><path class="cls-1" d="m33.8,29.99c-.43,0-.8.31-.87.74"/></g><g id="LWPOLYLINE-178"><polyline class="cls-1" points="116.51 146.58 115.03 146.58 115.03 136.25 116.51 136.25 116.51 146.58"/></g><g id="LWPOLYLINE-179"><line class="cls-1" x1="64.72" y1="136.25" x2="182.75" y2="136.25"/></g><g id="LWPOLYLINE-180"><polyline class="cls-1" points="132.44 146.58 130.96 146.58 130.96 136.25 132.44 136.25 132.44 146.58"/></g><g id="LWPOLYLINE-181"><polyline class="cls-1" points="148.37 146.58 146.9 146.58 146.9 136.25 148.37 136.25 148.37 146.58"/></g><g id="LWPOLYLINE-182"><polyline class="cls-1" points="164.31 146.58 162.83 146.58 162.83 136.25 164.31 136.25 164.31 146.58"/></g><g id="LWPOLYLINE-183"><polyline class="cls-1" points="100.57 146.58 99.1 146.58 99.1 136.25 100.57 136.25 100.57 146.58"/></g><g id="LWPOLYLINE-184"><polyline class="cls-1" points="84.64 146.58 83.16 146.58 83.16 136.25 84.64 136.25 84.64 146.58"/></g><g id="LWPOLYLINE-185"><polyline class="cls-1" points="68.7 146.58 67.23 146.58 67.23 136.25 68.7 136.25 68.7 146.58"/></g><g id="LWPOLYLINE-186"><polyline class="cls-1" points="178.76 146.58 180.24 146.58 180.24 136.25 178.76 136.25 178.76 146.58"/></g></svg>