<?xml version="1.0" encoding="UTF-8"?><svg id="ARREDI_attrezzature_-_furniture" xmlns="http://www.w3.org/2000/svg" width="552" height="360" viewBox="0 0 552 360"><defs><style>.cls-1{stroke-miterlimit:10;}.cls-1,.cls-2{fill:none;stroke:#000;}.cls-2{stroke-linecap:round;stroke-linejoin:round;stroke-width:.5px;}</style></defs><g id="LINE"><line class="cls-2" x1="204.64" y1="167.69" x2="204.64" y2="216.96"/></g><g id="LINE-2"><line class="cls-2" x1="264.4" y1="153.47" x2="215.13" y2="153.47"/></g><g id="HATCH"><path class="cls-1" d="m200.22,218.14v2.86h-1.47v79.29H56.55l.03-47.35.06-96.53h142.12v7.24h1.47v2.94h-42.06v-1.45h.93v-3.34h-4.54v3.34h.93v1.45h-6.73v2.94l51.47,48.62m-61.08,37.44l-5.89,5.89v36.03h25.73v-36.03l-5.89-5.89h-13.96m8.48,30.75h-2.99v6.55h2.99v-6.55m-21.43-95.03v-33.57h-46.44v33.57l8.8,8.8h28.84l8.8-8.8m-21.56-29.12h-3.31v7.25h3.31v-7.25m39.46,120.26h4.08-4.08m.61,0h2.85-2.85m-44.08-25.77h-13.97l-5.88,5.88v33.09h6.87l.73.78h10.53l.73-.78h6.87v-33.09l-5.88-5.88m52.01,34.16l-1.39.58-.58,1.39.58,1.39,1.39.58,1.39-.58.58-1.39-.58-1.39-1.39-.58m-1.35,1.97h2.69-2.69m-11.67-1.97l-1.39.58-.58,1.39.58,1.39,1.39.58,1.39-.58.58-1.39-.58-1.39-1.39-.58m-1.35,1.97h2.69-2.69m-39.1-13.21v.16-.16m-10.16-.13v.29-.29m16.22-105.2h-4.52,4.52m-.68,0h-3.16,3.16m7.18-10.45l.64-1.55-.64-1.55-1.55-.64-1.55.64-.64,1.55.64,1.55,1.55.64,1.55-.64m-.05-1.55h-2.99,2.99m-14.37,1.55l.64-1.55-.64-1.55-1.55-.64-1.55.64-.64,1.55.64,1.55,1.55.64,1.55-.64m-.05-1.55h-2.99,2.99Z"/><path class="cls-2" d="m56.62,170.81h23.12m46.44,0h22.65m-92.23,18.38h23.13m46.44,0h27.7m-97.28,18.38h112.35m-112.36,18.38h142.16m-142.17,18.38h142.17m-142.18,18.38h24.2m78.22,0h39.76m-92.25,0h26.75m-76.7,18.38h24.21m78.22,0h39.76m-92.25,0h26.75m-76.71,18.38h142.21m-6.34-143.08v10.18m0,50.96v82.74m-18.38-143.88v10.18m0,44.41v89.3m-18.38-143.88v5.4m0,135.7v2.79m0-107.8v63.68m-18.38-99.76v99.49m0,41.61v2.79m-18.38-143.88v1.33m0,42.24v100.31m-18.38-143.88v1.33m0,137.91v4.64m0-100.18v56.57m-18.38-100.27v1.33m0,137.91v4.64m0-102.98v61.5m-18.38-102.41v143.88"/></g><g id="HATCH-2"><path class="cls-1" d="m56.64,147.58l.06-96.42.02-40.96h216.22v137.38h-4.49v1.47h-2.94v-42.06h1.45v.93h3.34v-4.54h-3.34v.93h-1.45v-6.73h-2.94l-48.62,51.47h-2.86v-1.47H56.64m94.31-94.13l5.89-5.89V11.53h-25.73v36.03l5.89,5.89h13.96m-5.49-37.29h-2.99v6.55h2.99v-6.55m-28.68,88.3h-28.84l-8.8,8.8v33.57h46.44v-33.57l-8.8-8.8m-12.77,30.67h-3.31v7.25h3.31v-7.25m77.17-89.74h19.34l5.18,3.82v-3.82h39.21v3.82l5.18-3.82h19.34V12.3h-88.24v33.09m-35.18-18.8h-4.08,4.08m-39.5,19.88V13.39h-6.87l-.73-.78h-10.53l-.73.78h-6.87v33.09l5.88,5.88h13.97l5.88-5.88m38.89-19.88h-2.85,2.85m5.08-8.39l1.39-.58.58-1.39-.58-1.39-1.39-.58-1.39.58-.58,1.39.58,1.39,1.39.58m1.35-1.97h-2.69,2.69m-14.36,1.97l1.39-.58.58-1.39-.58-1.39-1.39-.58-1.39.58-.58,1.39.58,1.39,1.39.58m1.35-1.97h-2.69,2.69m-38.71,114.06h4.52-4.52m-11.09-100.72v-.29.29m10.16-.13v-.16.16m1.61,100.85h3.16-3.16m10.34,10.45l-1.55-.64-1.55.64-.64,1.55.64,1.55,1.55.64,1.55-.64.64-1.55-.64-1.55m-3.04,1.55h2.99-2.99m-11.38-1.55l-1.55-.64-1.55.64-.64,1.55.64,1.55,1.55.64,1.55-.64.64-1.55-.64-1.55m-3.04,1.55h2.99-2.99Z"/><path class="cls-2" d="m56.71,23.74h24.06m188.65,0h3.52m-166.43,0h24.59m25.73,0h24.35m-124.48,18.38h24.07m188.65,0h3.52m-166.43,0h24.59m25.73,0h24.35m-124.49,18.38h216.25m-216.26,18.38h216.26m-216.27,18.38h216.27m-216.28,18.38h22.48m186.37,0h7.44m-147.36,0h100.64m-169.57,18.38h22.49m186.37,0h7.44m-147.36,0h90.6m49.77-123.84v2.1m0,94.68v42.06m0-103.66v58.92m-18.38-94.11v2.1m0,34.95v53.46m-18.38-90.51v2.1m0,33.09v67.07m-18.38-102.26v2.1m0,33.09v102.19M192.41,10.2v2.1m0,33.09v102.19M174.03,10.2v137.38M155.64,10.2v1.33m0,39.57v96.47M137.26,10.2v1.33m0,41.92v94.13M118.88,10.2v94.51m0,42.11v.75M100.5,10.2v3.19m0,133.43v.75m0-95.21v52.1M82.11,10.2v3.19m0,133.43v.75m0-97.35v56.44M63.73,10.2v137.38"/></g><g id="LINE-3"><line class="cls-2" x1="350.05" y1="167.69" x2="350.05" y2="216.96"/></g><g id="LINE-4"><line class="cls-2" x1="290.3" y1="153.47" x2="339.56" y2="153.47"/></g><g id="HATCH-3"><path class="cls-1" d="m354.47,218.14v2.86h1.47v79.29h142.21l-.03-47.35-.06-96.53h-142.12v7.24h-1.47v2.94h42.06v-1.45h-.93v-3.34h4.54v3.34h-.93v1.45h6.73v2.94l-51.47,48.62m61.08,37.44l5.89,5.89v36.03h-25.73v-36.03l5.89-5.89h13.96m-8.48,30.75h2.99v6.55h-2.99v-6.55m21.43-95.03v-33.57h46.44v33.57l-8.8,8.8h-28.84l-8.8-8.8m21.56-29.12h3.31v7.25h-3.31v-7.25m-39.46,120.26h-4.08,4.08m-.61,0h-2.85,2.85m44.08-25.77h13.97l5.88,5.88v33.09h-6.87l-.73.78h-10.53l-.73-.78h-6.87v-33.09l5.88-5.88m-52.01,34.16l1.39.58.58,1.39-.58,1.39-1.39.58-1.39-.58-.58-1.39.58-1.39,1.39-.58m1.35,1.97h-2.69,2.69m11.67-1.97l1.39.58.58,1.39-.58,1.39-1.39.58-1.39-.58-.58-1.39.58-1.39,1.39-.58m1.35,1.97h-2.69,2.69m39.1-13.21v.16-.16m10.16-.13v.29-.29m-16.22-105.2h4.52-4.52m.68,0h3.16-3.16m-7.18-10.45l-.64-1.55.64-1.55,1.55-.64,1.55.64.64,1.55-.64,1.55-1.55.64-1.55-.64m.05-1.55h2.99-2.99m14.37,1.55l-.64-1.55.64-1.55,1.55-.64,1.55.64.64,1.55-.64,1.55-1.55.64-1.55-.64m.05-1.55h2.99-2.99Z"/><path class="cls-2" d="m498.14,299.49h-142.21m142.19-18.38h-24.21m-78.22,0h-39.76m92.25,0h-26.75m76.69-18.38h-24.2m-78.22,0h-39.76m92.25,0h-26.75m76.68-18.38h-142.17m142.16-18.38h-142.16m142.15-18.38h-112.35m112.34-18.38h-23.13m-46.44,0h-27.7m97.26-18.38h-23.12m-46.44,0h-22.65m85.11-14.4v143.88m-18.38-143.88v1.33m0,137.91v4.64m0-102.98v61.5m-18.38-102.41v1.33m0,137.91v4.64m0-100.18v56.57m-18.38-100.27v1.33m0,42.24v100.31m-18.38-143.88v99.49m0,41.61v2.79m-18.38-143.88v5.4m0,135.7v2.79m0-107.8v63.68m-18.38-99.76v10.18m0,44.41v89.3m-18.38-143.88v10.18m0,50.96v82.74"/></g><g id="HATCH-4"><path class="cls-1" d="m498.06,147.58l-.06-96.42-.02-40.96h-216.22v137.38h4.49v1.47h2.94v-42.06h-1.45v.93h-3.34v-4.54h3.34v.93h1.45v-6.73h2.94l48.62,51.47h2.86v-1.47h154.45m-94.31-94.13l-5.89-5.89V11.53h25.73v36.03l-5.89,5.89h-13.96m5.49-37.29h2.99v6.55h-2.99v-6.55m28.68,88.3h28.84l8.8,8.8v33.57h-46.44v-33.57l8.8-8.8m12.77,30.67h3.31v7.25h-3.31v-7.25m-77.17-89.74h-19.34l-5.18,3.82v-3.82h-39.21v3.82l-5.18-3.82h-19.34V12.3h88.24v33.09m35.18-18.8h4.08-4.08m39.5,19.88V13.39h6.87l.73-.78h10.53l.73.78h6.87v33.09l-5.88,5.88h-13.97l-5.88-5.88m-38.89-19.88h2.85-2.85m-5.08-8.39l-1.39-.58-.58-1.39.58-1.39,1.39-.58,1.39.58.58,1.39-.58,1.39-1.39.58m-1.35-1.97h2.69-2.69m14.36,1.97l-1.39-.58-.58-1.39.58-1.39,1.39-.58,1.39.58.58,1.39-.58,1.39-1.39.58m-1.35-1.97h2.69-2.69m38.71,114.06h-4.52,4.52m11.09-100.72v-.29.29m-10.16-.13v-.16.16m-1.61,100.85h-3.16,3.16m-10.34,10.45l1.55-.64,1.55.64.64,1.55-.64,1.55-1.55.64-1.55-.64-.64-1.55.64-1.55m3.04,1.55h-2.99,2.99m11.38-1.55l1.55-.64,1.55.64.64,1.55-.64,1.55-1.55.64-1.55-.64-.64-1.55.64-1.55m3.04,1.55h-2.99,2.99Z"/><path class="cls-2" d="m498.05,134.04h-22.49m-186.37,0h-7.44m147.36,0h-90.6m159.52-18.38h-22.48m-186.37,0h-7.44m147.36,0h-100.64m169.55-18.38h-216.27m216.26-18.38h-216.26m216.25-18.38h-216.25m216.24-18.38h-24.07m-188.65,0h-3.52m166.43,0h-24.59m-25.73,0h-24.35m124.47-18.38h-24.06m-188.65,0h-3.52m166.43,0h-24.59m-25.73,0h-24.35m117.45-13.54v137.38m-18.38-137.38v3.19m0,133.43v.75m0-97.35v56.44m-18.38-96.46v3.19m0,133.43v.75m0-95.21v52.1m-18.38-94.26v94.51m0,42.11v.75m-18.38-137.38v1.33m0,41.92v94.13m-18.38-137.38v1.33m0,39.57v96.47m-18.38-137.38v137.38m-18.38-137.38v2.1m0,33.09v102.19m-18.38-137.38v2.1m0,33.09v102.19m-18.38-137.38v2.1m0,33.09v67.07m-18.38-102.26v2.1m0,34.95v53.46m-18.38-90.51v2.1m0,94.68v42.06m0-103.66v58.92"/></g><g id="LINE-5"><line class="cls-2" x1="56.69" y1="51.16" x2="56.69" y2="10.2"/></g><g id="LINE-6"><line class="cls-2" x1="56.69" y1="51.16" x2="41.1" y2="58.2"/></g><g id="LINE-7"><line class="cls-2" x1="56.55" y1="300.29" x2="56.58" y2="252.77"/></g><g id="LINE-8"><line class="cls-2" x1="288.26" y1="300.94" x2="498.14" y2="300.94"/></g><g id="LINE-9"><line class="cls-2" x1="56.55" y1="300.29" x2="218.41" y2="300.29"/></g><g id="LINE-10"><line class="cls-2" x1="272.93" y1="10.2" x2="56.69" y2="10.2"/></g><g id="LINE-11"><line class="cls-2" x1="218.41" y1="300.29" x2="218.41" y2="352.46"/></g><g id="LINE-12"><line class="cls-2" x1="288.26" y1="300.94" x2="288.26" y2="352.46"/></g><g id="LINE-13"><line class="cls-2" x1="41.1" y1="58.2" x2="12.37" y2="58.2"/></g><g id="LINE-14"><line class="cls-2" x1="12.37" y1="58.2" x2="12.37" y2="6.53"/></g><g id="LINE-15"><line class="cls-2" x1="56.58" y1="252.77" x2="41.1" y2="245.78"/></g><g id="LINE-16"><line class="cls-2" x1="41.1" y1="245.78" x2="12.37" y2="245.78"/></g><g id="LINE-17"><line class="cls-2" x1="12.37" y1="245.78" x2="12.37" y2="304.97"/></g><g id="LINE-18"><line class="cls-2" x1="498" y1="51.16" x2="498" y2="10.2"/></g><g id="LINE-19"><line class="cls-2" x1="498" y1="51.16" x2="513.6" y2="58.2"/></g><g id="LINE-20"><line class="cls-2" x1="498.14" y1="300.94" x2="498.12" y2="252.77"/></g><g id="LINE-21"><line class="cls-2" x1="281.76" y1="10.2" x2="498" y2="10.2"/></g><g id="LINE-22"><line class="cls-2" x1="513.6" y1="58.2" x2="542.32" y2="58.2"/></g><g id="LINE-23"><line class="cls-2" x1="542.32" y1="58.2" x2="542.32" y2="6.53"/></g><g id="LINE-24"><line class="cls-2" x1="498.12" y1="252.77" x2="513.6" y2="245.78"/></g><g id="LINE-25"><line class="cls-2" x1="513.6" y1="245.78" x2="542.32" y2="245.78"/></g><g id="LINE-26"><line class="cls-2" x1="542.32" y1="245.78" x2="542.32" y2="304.97"/></g><g id="LINE-27"><line class="cls-2" x1="56.58" y1="252.93" x2="56.63" y2="156.4"/></g><g id="ARC"><path class="cls-2" d="m281.8,274.58c-35.08,1.75-62.09,31.61-60.33,66.69"/></g><g id="LINE-28"><line class="cls-2" x1="277.46" y1="280.85" x2="277.46" y2="285.75"/></g><g id="LINE-29"><line class="cls-2" x1="279.65" y1="280.85" x2="279.65" y2="285.75"/></g><g id="LINE-30"><line class="cls-2" x1="276.63" y1="280.85" x2="276.63" y2="285.75"/></g><g id="LINE-31"><line class="cls-2" x1="280.23" y1="281.85" x2="280.23" y2="280.85"/></g><g id="LINE-32"><line class="cls-2" x1="280.23" y1="280.85" x2="276.63" y2="280.85"/></g><g id="LINE-33"><line class="cls-2" x1="281.8" y1="284.74" x2="280.23" y2="284.74"/></g><g id="LINE-34"><line class="cls-2" x1="281.8" y1="281.85" x2="280.23" y2="281.85"/></g><g id="LINE-35"><line class="cls-2" x1="280.23" y1="284.74" x2="280.23" y2="285.75"/></g><g id="LINE-36"><line class="cls-2" x1="280.23" y1="285.75" x2="276.63" y2="285.75"/></g><g id="LINE-37"><line class="cls-2" x1="286.54" y1="280.85" x2="290.14" y2="280.85"/></g><g id="LINE-38"><line class="cls-2" x1="286.54" y1="285.75" x2="290.14" y2="285.75"/></g><g id="LINE-39"><line class="cls-2" x1="286.54" y1="281.85" x2="286.54" y2="280.85"/></g><g id="LINE-40"><line class="cls-2" x1="286.54" y1="284.74" x2="286.54" y2="285.75"/></g><g id="LINE-41"><line class="cls-2" x1="284.98" y1="281.85" x2="286.54" y2="281.85"/></g><g id="LINE-42"><line class="cls-2" x1="284.98" y1="284.74" x2="286.54" y2="284.74"/></g><g id="LINE-43"><line class="cls-2" x1="287.13" y1="280.85" x2="287.13" y2="285.75"/></g><g id="LINE-44"><line class="cls-2" x1="289.32" y1="280.85" x2="289.32" y2="285.75"/></g><g id="LINE-45"><line class="cls-2" x1="290.14" y1="280.85" x2="290.14" y2="285.75"/></g><g id="LINE-46"><line class="cls-2" x1="154.55" y1="165.14" x2="154.55" y2="161.8"/></g><g id="LINE-47"><line class="cls-2" x1="159.09" y1="165.14" x2="159.09" y2="161.8"/></g><g id="LINE-48"><line class="cls-2" x1="154.55" y1="173.55" x2="159.09" y2="173.55"/></g><g id="LINE-49"><line class="cls-2" x1="154.55" y1="171.52" x2="159.09" y2="171.52"/></g><g id="LINE-50"><line class="cls-2" x1="154.55" y1="174.32" x2="159.09" y2="174.32"/></g><g id="LINE-51"><line class="cls-2" x1="155.48" y1="170.98" x2="154.55" y2="170.98"/></g><g id="LINE-52"><line class="cls-2" x1="154.55" y1="170.98" x2="154.55" y2="174.32"/></g><g id="LINE-53"><line class="cls-2" x1="158.16" y1="169.53" x2="158.16" y2="170.98"/></g><g id="LINE-54"><line class="cls-2" x1="155.48" y1="169.53" x2="155.48" y2="170.98"/></g><g id="LINE-55"><line class="cls-2" x1="158.16" y1="170.98" x2="159.09" y2="170.98"/></g><g id="LINE-56"><line class="cls-2" x1="159.09" y1="170.98" x2="159.09" y2="174.32"/></g><g id="LINE-57"><line class="cls-2" x1="155.48" y1="165.14" x2="154.55" y2="165.14"/></g><g id="LINE-58"><line class="cls-2" x1="158.16" y1="165.14" x2="159.09" y2="165.14"/></g><g id="LINE-59"><line class="cls-2" x1="155.48" y1="166.59" x2="155.48" y2="165.14"/></g><g id="LINE-60"><line class="cls-2" x1="158.16" y1="166.59" x2="158.16" y2="165.14"/></g><g id="LINE-61"><line class="cls-2" x1="154.55" y1="164.59" x2="159.09" y2="164.59"/></g><g id="LINE-62"><line class="cls-2" x1="154.55" y1="162.57" x2="159.09" y2="162.57"/></g><g id="LINE-63"><line class="cls-2" x1="154.55" y1="161.8" x2="159.09" y2="161.8"/></g><g id="ARC-2"><path class="cls-2" d="m148.75,169.53c1.62,28.43,25.99,50.16,54.41,48.53h0"/></g><g id="LINE-64"><line class="cls-2" x1="266.95" y1="103.38" x2="270.29" y2="103.38"/></g><g id="LINE-65"><line class="cls-2" x1="266.95" y1="107.92" x2="270.29" y2="107.92"/></g><g id="LINE-66"><line class="cls-2" x1="258.54" y1="103.38" x2="258.54" y2="107.92"/></g><g id="LINE-67"><line class="cls-2" x1="260.56" y1="103.38" x2="260.56" y2="107.92"/></g><g id="LINE-68"><line class="cls-2" x1="257.77" y1="103.38" x2="257.77" y2="107.92"/></g><g id="LINE-69"><line class="cls-2" x1="261.11" y1="104.31" x2="261.11" y2="103.38"/></g><g id="LINE-70"><line class="cls-2" x1="261.11" y1="103.38" x2="257.77" y2="103.38"/></g><g id="LINE-71"><line class="cls-2" x1="262.56" y1="106.99" x2="261.11" y2="106.99"/></g><g id="LINE-72"><line class="cls-2" x1="262.56" y1="104.31" x2="261.11" y2="104.31"/></g><g id="LINE-73"><line class="cls-2" x1="261.11" y1="106.99" x2="261.11" y2="107.92"/></g><g id="LINE-74"><line class="cls-2" x1="261.11" y1="107.92" x2="257.77" y2="107.92"/></g><g id="LINE-75"><line class="cls-2" x1="266.95" y1="104.31" x2="266.95" y2="103.38"/></g><g id="LINE-76"><line class="cls-2" x1="266.95" y1="106.99" x2="266.95" y2="107.92"/></g><g id="LINE-77"><line class="cls-2" x1="265.5" y1="104.31" x2="266.95" y2="104.31"/></g><g id="LINE-78"><line class="cls-2" x1="265.5" y1="106.99" x2="266.95" y2="106.99"/></g><g id="LINE-79"><line class="cls-2" x1="267.49" y1="103.38" x2="267.49" y2="107.92"/></g><g id="LINE-80"><line class="cls-2" x1="269.52" y1="103.38" x2="269.52" y2="107.92"/></g><g id="LINE-81"><line class="cls-2" x1="270.29" y1="103.38" x2="270.29" y2="107.92"/></g><g id="ARC-3"><path class="cls-2" d="m262.56,97.58c-28.43,1.62-50.16,25.99-48.53,54.41"/></g><g id="LINE-82"><line class="cls-2" x1="284.98" y1="281.11" x2="286.54" y2="281.11"/></g><g id="LINE-83"><line class="cls-2" x1="24.01" y1="64.39" x2="24.01" y2="141.39"/></g><g id="LINE-84"><line class="cls-2" x1="30.91" y1="64.39" x2="30.91" y2="141.39"/></g><g id="LINE-85"><line class="cls-2" x1="56.69" y1="51.16" x2="56.69" y2="147.58"/></g><g id="LINE-86"><line class="cls-2" x1="24.01" y1="239.6" x2="24.01" y2="162.59"/></g><g id="LINE-87"><line class="cls-2" x1="30.91" y1="239.6" x2="30.91" y2="162.59"/></g><g id="LINE-88"><line class="cls-2" x1="498.12" y1="252.93" x2="498.06" y2="156.4"/></g><g id="LINE-89"><line class="cls-2" x1="400.14" y1="165.14" x2="400.14" y2="161.8"/></g><g id="LINE-90"><line class="cls-2" x1="395.6" y1="165.14" x2="395.6" y2="161.8"/></g><g id="LINE-91"><line class="cls-2" x1="400.14" y1="173.55" x2="395.6" y2="173.55"/></g><g id="LINE-92"><line class="cls-2" x1="400.14" y1="171.52" x2="395.6" y2="171.52"/></g><g id="LINE-93"><line class="cls-2" x1="400.14" y1="174.32" x2="395.6" y2="174.32"/></g><g id="LINE-94"><line class="cls-2" x1="399.21" y1="170.98" x2="400.14" y2="170.98"/></g><g id="LINE-95"><line class="cls-2" x1="400.14" y1="170.98" x2="400.14" y2="174.32"/></g><g id="LINE-96"><line class="cls-2" x1="396.53" y1="169.53" x2="396.53" y2="170.98"/></g><g id="LINE-97"><line class="cls-2" x1="399.21" y1="169.53" x2="399.21" y2="170.98"/></g><g id="LINE-98"><line class="cls-2" x1="396.53" y1="170.98" x2="395.6" y2="170.98"/></g><g id="LINE-99"><line class="cls-2" x1="395.6" y1="170.98" x2="395.6" y2="174.32"/></g><g id="LINE-100"><line class="cls-2" x1="399.21" y1="165.14" x2="400.14" y2="165.14"/></g><g id="LINE-101"><line class="cls-2" x1="396.53" y1="165.14" x2="395.6" y2="165.14"/></g><g id="LINE-102"><line class="cls-2" x1="399.21" y1="166.59" x2="399.21" y2="165.14"/></g><g id="LINE-103"><line class="cls-2" x1="396.53" y1="166.59" x2="396.53" y2="165.14"/></g><g id="LINE-104"><line class="cls-2" x1="400.14" y1="164.59" x2="395.6" y2="164.59"/></g><g id="LINE-105"><line class="cls-2" x1="400.14" y1="162.57" x2="395.6" y2="162.57"/></g><g id="LINE-106"><line class="cls-2" x1="400.14" y1="161.8" x2="395.6" y2="161.8"/></g><g id="ARC-4"><path class="cls-2" d="m351.53,218.06c28.43,1.62,52.79-20.1,54.41-48.53h0"/></g><g id="LINE-107"><line class="cls-2" x1="287.74" y1="103.38" x2="284.41" y2="103.38"/></g><g id="LINE-108"><line class="cls-2" x1="287.74" y1="107.92" x2="284.41" y2="107.92"/></g><g id="LINE-109"><line class="cls-2" x1="296.15" y1="103.38" x2="296.15" y2="107.92"/></g><g id="LINE-110"><line class="cls-2" x1="294.13" y1="103.38" x2="294.13" y2="107.92"/></g><g id="LINE-111"><line class="cls-2" x1="296.92" y1="103.38" x2="296.92" y2="107.92"/></g><g id="LINE-112"><line class="cls-2" x1="293.59" y1="104.31" x2="293.59" y2="103.38"/></g><g id="LINE-113"><line class="cls-2" x1="293.59" y1="103.38" x2="296.92" y2="103.38"/></g><g id="LINE-114"><line class="cls-2" x1="292.13" y1="106.99" x2="293.59" y2="106.99"/></g><g id="LINE-115"><line class="cls-2" x1="292.13" y1="104.31" x2="293.59" y2="104.31"/></g><g id="LINE-116"><line class="cls-2" x1="293.59" y1="106.99" x2="293.59" y2="107.92"/></g><g id="LINE-117"><line class="cls-2" x1="293.59" y1="107.92" x2="296.92" y2="107.92"/></g><g id="LINE-118"><line class="cls-2" x1="287.74" y1="104.31" x2="287.74" y2="103.38"/></g><g id="LINE-119"><line class="cls-2" x1="287.74" y1="106.99" x2="287.74" y2="107.92"/></g><g id="LINE-120"><line class="cls-2" x1="289.19" y1="104.31" x2="287.74" y2="104.31"/></g><g id="LINE-121"><line class="cls-2" x1="289.19" y1="106.99" x2="287.74" y2="106.99"/></g><g id="LINE-122"><line class="cls-2" x1="287.2" y1="103.38" x2="287.2" y2="107.92"/></g><g id="LINE-123"><line class="cls-2" x1="285.17" y1="103.38" x2="285.17" y2="107.92"/></g><g id="LINE-124"><line class="cls-2" x1="284.41" y1="103.38" x2="284.41" y2="107.92"/></g><g id="ARC-5"><path class="cls-2" d="m340.67,151.99c1.62-28.43-20.1-52.79-48.53-54.41"/></g><g id="LINE-125"><line class="cls-2" x1="525.62" y1="64.39" x2="525.62" y2="141.39"/></g><g id="LINE-126"><line class="cls-2" x1="528.56" y1="64.38" x2="528.56" y2="141.39"/></g><g id="LINE-127"><line class="cls-2" x1="530.69" y1="64.39" x2="530.69" y2="141.39"/></g><g id="LINE-128"><line class="cls-2" x1="523.78" y1="64.39" x2="523.78" y2="141.39"/></g><g id="LINE-129"><line class="cls-2" x1="498" y1="51.16" x2="498" y2="147.58"/></g><g id="LINE-130"><line class="cls-2" x1="525.62" y1="239.6" x2="525.62" y2="162.59"/></g><g id="LINE-131"><line class="cls-2" x1="528.56" y1="239.6" x2="528.56" y2="162.59"/></g><g id="LINE-132"><line class="cls-2" x1="530.69" y1="239.6" x2="530.69" y2="162.59"/></g><g id="LINE-133"><line class="cls-2" x1="523.78" y1="239.6" x2="523.78" y2="162.59"/></g><g id="HATCH-5"><rect class="cls-1" x="198.75" y="221" width="8.82" height="79.29"/><path class="cls-2" d="m202.84,300.29l-4.09-4.09m8.64,4.09l-8.64-8.64m8.82,4.27l-8.82-8.82m8.82,4.27l-8.82-8.82m8.82,4.27l-8.82-8.82m8.82,4.27l-8.82-8.82m8.82,4.27l-8.82-8.82m8.82,4.27l-8.82-8.82m8.82,4.27l-8.82-8.82m8.82,4.27l-8.82-8.82m8.82,4.27l-8.82-8.82m8.82,4.27l-8.82-8.82m8.82,4.27l-8.82-8.82m8.82,4.27l-8.82-8.82m8.82,4.27l-8.82-8.82m8.82,4.27l-8.82-8.82m8.82,4.27l-8.82-8.82m8.82,4.27l-6.68-6.68m6.68,2.13l-2.13-2.13"/></g><g id="HATCH-6"><polygon class="cls-1" points="24.01 147.58 211.08 147.58 211.08 156.4 207.58 156.4 207.58 163.65 198.75 163.65 198.75 156.4 24.01 156.4 24.01 147.58"/><path class="cls-2" d="m27.11,156.4l-3.1-3.1m7.65,3.1l-7.65-7.65m12.2,7.65l-8.82-8.82m13.37,8.82l-8.82-8.82m13.37,8.82l-8.82-8.82m13.37,8.82l-8.82-8.82m13.37,8.82l-8.82-8.82m13.37,8.82l-8.82-8.82m13.37,8.82l-8.82-8.82m13.37,8.82l-8.82-8.82m13.37,8.82l-8.82-8.82m13.37,8.82l-8.82-8.82m13.37,8.82l-8.82-8.82m13.37,8.82l-8.82-8.82m13.37,8.82l-8.82-8.82m13.37,8.82l-8.82-8.82m13.37,8.82l-8.82-8.82m13.37,8.82l-8.82-8.82m13.37,8.82l-8.82-8.82m13.37,8.82l-8.82-8.82m13.37,8.82l-8.82-8.82m13.37,8.82l-8.82-8.82m13.37,8.82l-8.82-8.82m13.37,8.82l-8.82-8.82m13.37,8.82l-8.82-8.82m13.37,8.82l-8.82-8.82m13.37,8.82l-8.82-8.82m13.37,8.82l-8.82-8.82m13.37,8.82l-8.82-8.82m13.37,8.82l-8.82-8.82m13.37,8.82l-8.82-8.82m13.37,8.82l-8.82-8.82m13.37,8.82l-8.82-8.82m13.37,8.82l-8.82-8.82m13.37,8.82l-8.82-8.82m13.37,8.82l-8.82-8.82m13.37,8.82l-8.82-8.82m20.62,16.07l-3.93-3.93m-3.31-3.31l-8.82-8.82m20.62,16.07l-16.07-16.07m16.41,11.86l-11.86-11.86m13.37,8.82l-8.82-8.82m10.82,6.27l-6.27-6.27m6.27,1.72l-1.72-1.72"/></g><g id="HATCH-7"><rect class="cls-1" x="347.11" y="221" width="8.82" height="79.29"/><path class="cls-2" d="m347.11,223.13l2.13-2.13m-2.13,6.68l6.68-6.68m-6.68,11.23l8.82-8.82m-8.82,13.37l8.82-8.82m-8.82,13.37l8.82-8.82m-8.82,13.37l8.82-8.82m-8.82,13.37l8.82-8.82m-8.82,13.37l8.82-8.82m-8.82,13.37l8.82-8.82m-8.82,13.37l8.82-8.82m-8.82,13.37l8.82-8.82m-8.82,13.37l8.82-8.82m-8.82,13.37l8.82-8.82m-8.82,13.37l8.82-8.82m-8.82,13.37l8.82-8.82m-8.82,13.37l8.82-8.82m-8.82,13.37l8.82-8.82m-8.64,13.18l8.64-8.64m-4.09,8.64l4.09-4.09"/></g><g id="HATCH-8"><polygon class="cls-1" points="530.69 147.58 343.61 147.58 343.61 156.4 347.11 156.4 347.11 163.65 355.94 163.65 355.94 156.4 530.69 156.4 530.69 147.58"/><path class="cls-2" d="m343.61,149.3l1.72-1.72m-1.72,6.27l6.27-6.27m-4.27,8.82l8.82-8.82m-7.31,11.86l11.86-11.86m-11.52,16.07l16.07-16.07m-11.52,16.07l3.93-3.93m3.31-3.31l8.82-8.82m-4.27,8.82l8.82-8.82m-4.27,8.82l8.82-8.82m-4.27,8.82l8.82-8.82m-4.27,8.82l8.82-8.82m-4.27,8.82l8.82-8.82m-4.27,8.82l8.82-8.82m-4.27,8.82l8.82-8.82m-4.27,8.82l8.82-8.82m-4.27,8.82l8.82-8.82m-4.27,8.82l8.82-8.82m-4.27,8.82l8.82-8.82m-4.27,8.82l8.82-8.82m-4.27,8.82l8.82-8.82m-4.27,8.82l8.82-8.82m-4.27,8.82l8.82-8.82m-4.27,8.82l8.82-8.82m-4.27,8.82l8.82-8.82m-4.27,8.82l8.82-8.82m-4.27,8.82l8.82-8.82m-4.27,8.82l8.82-8.82m-4.27,8.82l8.82-8.82m-4.27,8.82l8.82-8.82m-4.27,8.82l8.82-8.82m-4.27,8.82l8.82-8.82m-4.27,8.82l8.82-8.82m-4.27,8.82l8.82-8.82m-4.27,8.82l8.82-8.82m-4.27,8.82l8.82-8.82m-4.27,8.82l8.82-8.82m-4.27,8.82l8.82-8.82m-4.27,8.82l8.82-8.82m-4.27,8.82l8.82-8.82m-4.27,8.82l8.82-8.82m-4.27,8.82l8.82-8.82m-4.27,8.82l8.82-8.82m-4.27,8.82l7.65-7.65m-3.1,7.65l3.1-3.1"/></g><g id="LWPOLYLINE"><rect class="cls-2" x="281.8" y="274.58" width="3.18" height="63.51"/></g><g id="LINE-134"><line class="cls-2" x1="218.41" y1="346.03" x2="218.41" y2="338.09"/></g><g id="LINE-135"><line class="cls-2" x1="288.26" y1="346.03" x2="288.26" y2="338.09"/></g><g id="LWPOLYLINE-2"><polyline class="cls-2" points="218.41 338.09 218.41 338.09 218.41 338.09 218.41 338.09 221.47 338.09 221.47 341.27 222.66 341.27 222.66 346.03 218.41 346.03 218.41 346.03 218.41 346.03 218.41 346.03 218.41 346.03"/></g><g id="LWPOLYLINE-3"><polyline class="cls-2" points="288.26 338.09 288.26 338.09 288.26 338.09 288.26 338.09 284.98 338.09 284.98 341.27 283.78 341.27 283.78 346.03 288.26 346.03 288.26 346.03 288.26 346.03 288.26 346.03 288.26 346.03"/></g><g id="LWPOLYLINE-4"><polyline class="cls-2" points="200.22 221 200.22 221 200.22 221 200.22 221 200.22 218.06 203.17 218.06 203.17 216.96 207.58 216.96 207.58 221 207.58 221 207.58 221 207.58 221 207.58 221"/></g><g id="LWPOLYLINE-5"><polyline class="cls-2" points="200.22 163.65 200.22 163.65 200.22 163.65 200.22 163.65 200.22 166.59 203.17 166.59 203.17 167.69 207.58 167.69 207.58 163.65 207.58 163.65 207.58 163.65 207.58 163.65 207.58 163.65"/></g><g id="LWPOLYLINE-6"><rect class="cls-2" x="148.75" y="166.59" width="51.47" height="2.94"/></g><g id="LINE-136"><line class="cls-2" x1="207.58" y1="163.65" x2="200.22" y2="163.65"/></g><g id="LWPOLYLINE-7"><polyline class="cls-2" points="211.08 149.05 211.08 149.05 211.08 149.05 211.08 149.05 214.03 149.05 214.03 151.99 215.13 151.99 215.13 156.4 211.08 156.4 211.08 156.4 211.08 156.4 211.08 156.4 211.08 156.4"/></g><g id="LWPOLYLINE-8"><polyline class="cls-2" points="268.44 149.05 268.44 149.05 268.44 149.05 268.44 149.05 265.5 149.05 265.5 151.99 264.4 151.99 264.4 156.4 268.44 156.4 268.44 156.4 268.44 156.4 268.44 156.4 268.44 156.4"/></g><g id="LWPOLYLINE-9"><rect class="cls-2" x="262.56" y="97.58" width="2.94" height="51.47"/></g><g id="LINE-137"><line class="cls-2" x1="268.44" y1="156.4" x2="268.44" y2="149.05"/></g><g id="LWPOLYLINE-10"><rect class="cls-2" x="26.13" y="61.45" width="2.94" height="2.94"/></g><g id="LWPOLYLINE-11"><rect class="cls-2" x="24.01" y="58.2" width="6.91" height="6.19"/></g><g id="LWPOLYLINE-12"><rect class="cls-2" x="26.13" y="141.39" width="2.94" height="2.94"/></g><g id="LWPOLYLINE-13"><rect class="cls-2" x="24.01" y="141.39" width="6.91" height="6.19"/></g><g id="LWPOLYLINE-14"><rect class="cls-2" x="26.13" y="239.6" width="2.94" height="2.94"/></g><g id="LWPOLYLINE-15"><rect class="cls-2" x="24.01" y="239.6" width="6.91" height="6.19"/></g><g id="LWPOLYLINE-16"><rect class="cls-2" x="26.13" y="159.65" width="2.94" height="2.94"/></g><g id="LWPOLYLINE-17"><rect class="cls-2" x="24.01" y="156.4" width="6.91" height="6.19"/></g><g id="LWPOLYLINE-18"><polyline class="cls-2" points="354.47 221 354.47 221 354.47 221 354.47 221 354.47 218.06 351.53 218.06 351.53 216.96 347.11 216.96 347.11 221 347.11 221 347.11 221 347.11 221 347.11 221"/></g><g id="LWPOLYLINE-19"><polyline class="cls-2" points="354.47 163.65 354.47 163.65 354.47 163.65 354.47 163.65 354.47 166.59 351.53 166.59 351.53 167.69 347.11 167.69 347.11 163.65 347.11 163.65 347.11 163.65 347.11 163.65 347.11 163.65"/></g><g id="LWPOLYLINE-20"><rect class="cls-2" x="354.47" y="166.59" width="51.47" height="2.94"/></g><g id="LINE-138"><line class="cls-2" x1="347.11" y1="163.65" x2="354.47" y2="163.65"/></g><g id="LWPOLYLINE-21"><polyline class="cls-2" points="343.61 149.05 343.61 149.05 343.61 149.05 343.61 149.05 340.67 149.05 340.67 151.99 339.56 151.99 339.56 156.4 343.61 156.4 343.61 156.4 343.61 156.4 343.61 156.4 343.61 156.4"/></g><g id="LWPOLYLINE-22"><polyline class="cls-2" points="286.25 149.05 286.25 149.05 286.25 149.05 286.25 149.05 289.19 149.05 289.19 151.99 290.3 151.99 290.3 156.4 286.25 156.4 286.25 156.4 286.25 156.4 286.25 156.4 286.25 156.4"/></g><g id="LWPOLYLINE-23"><rect class="cls-2" x="289.19" y="97.58" width="2.94" height="51.47"/></g><g id="LINE-139"><line class="cls-2" x1="286.25" y1="156.4" x2="286.25" y2="149.05"/></g><g id="LWPOLYLINE-24"><rect class="cls-2" x="525.62" y="61.45" width="2.94" height="2.94"/></g><g id="LWPOLYLINE-25"><rect class="cls-2" x="523.78" y="58.2" width="6.91" height="6.19"/></g><g id="LWPOLYLINE-26"><rect class="cls-2" x="525.62" y="141.39" width="2.94" height="2.94"/></g><g id="LWPOLYLINE-27"><rect class="cls-2" x="523.78" y="141.39" width="6.91" height="6.19"/></g><g id="LWPOLYLINE-28"><rect class="cls-2" x="525.62" y="239.6" width="2.94" height="2.94"/></g><g id="LWPOLYLINE-29"><rect class="cls-2" x="523.78" y="239.6" width="6.91" height="6.19"/></g><g id="LWPOLYLINE-30"><rect class="cls-2" x="525.62" y="159.65" width="2.94" height="2.94"/></g><g id="LWPOLYLINE-31"><rect class="cls-2" x="523.78" y="156.4" width="6.91" height="6.19"/></g><g id="LINE-140"><line class="cls-2" x1="211.08" y1="156.4" x2="211.08" y2="149.05"/></g><g id="LINE-141"><line class="cls-2" x1="343.61" y1="156.4" x2="343.61" y2="149.05"/></g><g id="LINE-142"><line class="cls-2" x1="207.58" y1="221" x2="200.22" y2="221"/></g><g id="LINE-143"><line class="cls-2" x1="354.47" y1="221" x2="347.11" y2="221"/></g><g id="LINE-144"><line class="cls-2" x1="291.93" y1="305.36" x2="502.56" y2="305.36"/></g><g id="LINE-145"><line class="cls-2" x1="502.41" y1="6.53" x2="52.28" y2="6.53"/></g><g id="LINE-146"><line class="cls-2" x1="52.28" y1="6.53" x2="52.28" y2="48.31"/></g><g id="LINE-147"><line class="cls-2" x1="52.28" y1="48.31" x2="40.15" y2="53.79"/></g><g id="LINE-148"><line class="cls-2" x1="213.88" y1="352.46" x2="213.88" y2="304.7"/></g><g id="LINE-149"><line class="cls-2" x1="213.88" y1="304.7" x2="52.13" y2="304.7"/></g><g id="LINE-150"><line class="cls-2" x1="52.13" y1="304.7" x2="52.16" y2="256.47"/></g><g id="LINE-151"><line class="cls-2" x1="24.01" y1="156.4" x2="198.75" y2="156.4"/></g><g id="LINE-152"><line class="cls-2" x1="24.01" y1="147.58" x2="211.08" y2="147.58"/></g><g id="LINE-153"><line class="cls-2" x1="207.58" y1="300.29" x2="207.58" y2="221"/></g><g id="LINE-154"><line class="cls-2" x1="198.75" y1="300.29" x2="198.75" y2="221"/></g><g id="LINE-155"><line class="cls-2" x1="207.58" y1="221" x2="200.22" y2="221"/></g><g id="LINE-156"><line class="cls-2" x1="207.58" y1="163.65" x2="198.75" y2="163.65"/></g><g id="LINE-157"><line class="cls-2" x1="207.58" y1="221" x2="198.75" y2="221"/></g><g id="LINE-158"><line class="cls-2" x1="211.08" y1="156.4" x2="211.08" y2="147.58"/></g><g id="LINE-159"><line class="cls-2" x1="268.44" y1="156.4" x2="268.44" y2="147.58"/></g><g id="LINE-160"><line class="cls-2" x1="211.08" y1="156.4" x2="211.08" y2="147.58"/></g><g id="LINE-161"><line class="cls-2" x1="272.93" y1="147.58" x2="272.93" y2="6.53"/></g><g id="LINE-162"><line class="cls-2" x1="268.44" y1="147.58" x2="272.93" y2="147.58"/></g><g id="LINE-163"><line class="cls-2" x1="268.44" y1="156.4" x2="286.25" y2="156.4"/></g><g id="LINE-164"><line class="cls-2" x1="207.58" y1="156.4" x2="211.08" y2="156.4"/></g><g id="LINE-165"><line class="cls-2" x1="198.75" y1="163.65" x2="198.75" y2="156.4"/></g><g id="LINE-166"><line class="cls-2" x1="207.58" y1="163.65" x2="207.58" y2="156.4"/></g><g id="LINE-167"><line class="cls-2" x1="24.01" y1="156.4" x2="24.01" y2="147.58"/></g><g id="LINE-168"><line class="cls-2" x1="291.93" y1="305.36" x2="291.93" y2="352.46"/></g><g id="LINE-169"><line class="cls-2" x1="40.15" y1="53.79" x2="16.78" y2="53.79"/></g><g id="LINE-170"><line class="cls-2" x1="16.78" y1="53.79" x2="16.78" y2="6.53"/></g><g id="LINE-171"><line class="cls-2" x1="40.15" y1="250.19" x2="16.78" y2="250.19"/></g><g id="LINE-172"><line class="cls-2" x1="52.16" y1="256.47" x2="40.15" y2="250.19"/></g><g id="LINE-173"><line class="cls-2" x1="16.78" y1="250.19" x2="16.78" y2="305.42"/></g><g id="LINE-174"><line class="cls-2" x1="213.88" y1="304.7" x2="52.13" y2="304.7"/></g><g id="LINE-175"><line class="cls-2" x1="272.93" y1="147.58" x2="272.93" y2="6.53"/></g><g id="LINE-176"><line class="cls-2" x1="502.56" y1="305.36" x2="502.53" y2="256.47"/></g><g id="LINE-177"><line class="cls-2" x1="530.69" y1="156.4" x2="355.94" y2="156.4"/></g><g id="LINE-178"><line class="cls-2" x1="530.69" y1="147.58" x2="343.61" y2="147.58"/></g><g id="LINE-179"><line class="cls-2" x1="347.11" y1="300.29" x2="347.11" y2="221"/></g><g id="LINE-180"><line class="cls-2" x1="355.94" y1="300.29" x2="355.94" y2="221"/></g><g id="LINE-181"><line class="cls-2" x1="347.11" y1="221" x2="354.47" y2="221"/></g><g id="LINE-182"><line class="cls-2" x1="347.11" y1="163.65" x2="355.94" y2="163.65"/></g><g id="LINE-183"><line class="cls-2" x1="347.11" y1="221" x2="355.94" y2="221"/></g><g id="LINE-184"><line class="cls-2" x1="343.61" y1="156.4" x2="343.61" y2="147.58"/></g><g id="LINE-185"><line class="cls-2" x1="286.25" y1="156.4" x2="286.25" y2="147.58"/></g><g id="LINE-186"><line class="cls-2" x1="343.61" y1="156.4" x2="343.61" y2="147.58"/></g><g id="LINE-187"><line class="cls-2" x1="281.76" y1="147.58" x2="281.76" y2="6.53"/></g><g id="LINE-188"><line class="cls-2" x1="286.25" y1="147.58" x2="281.76" y2="147.58"/></g><g id="LINE-189"><line class="cls-2" x1="286.25" y1="156.4" x2="268.44" y2="156.4"/></g><g id="LINE-190"><line class="cls-2" x1="347.11" y1="156.4" x2="343.61" y2="156.4"/></g><g id="LINE-191"><line class="cls-2" x1="355.94" y1="163.65" x2="355.94" y2="156.4"/></g><g id="LINE-192"><line class="cls-2" x1="347.11" y1="163.65" x2="347.11" y2="156.4"/></g><g id="LINE-193"><line class="cls-2" x1="530.69" y1="156.4" x2="530.69" y2="147.58"/></g><g id="LINE-194"><line class="cls-2" x1="514.54" y1="53.79" x2="537.91" y2="53.79"/></g><g id="LINE-195"><line class="cls-2" x1="537.91" y1="53.79" x2="537.91" y2="6.53"/></g><g id="LINE-196"><line class="cls-2" x1="514.54" y1="250.19" x2="537.91" y2="250.19"/></g><g id="LINE-197"><line class="cls-2" x1="502.53" y1="256.47" x2="514.54" y2="250.19"/></g><g id="LINE-198"><line class="cls-2" x1="537.91" y1="250.19" x2="537.91" y2="305.42"/></g><g id="LINE-199"><line class="cls-2" x1="281.76" y1="147.58" x2="281.76" y2="6.53"/></g><g id="LINE-200"><line class="cls-2" x1="502.41" y1="6.53" x2="502.41" y2="48.31"/></g><g id="LINE-201"><line class="cls-2" x1="502.41" y1="48.31" x2="514.54" y2="53.79"/></g><g id="CIRCLE"><circle class="cls-2" cx="90.53" cy="224.06" r="2.59"/></g><g id="CIRCLE-2"><circle class="cls-2" cx="90.53" cy="224.06" r="4.41"/></g><g id="LWPOLYLINE-32"><path class="cls-2" d="m116.49,157.74c-.41,2.2,1.03,4.31,3.23,4.73s4.31-1.03,4.73-3.23c.09-.49.09-1,0-1.49"/></g><g id="LWPOLYLINE-33"><line class="cls-2" x1="116.09" y1="157.74" x2="124.84" y2="157.74"/></g><g id="LWPOLYLINE-34"><path class="cls-2" d="m124.49,146.83c.41-2.2-1.03-4.31-3.23-4.73s-4.31,1.03-4.73,3.23c-.09.49-.09,1,0,1.49"/></g><g id="LWPOLYLINE-35"><line class="cls-2" x1="124.9" y1="146.83" x2="116.15" y2="146.83"/></g><g id="LWPOLYLINE-36"><path class="cls-2" d="m80.9,157.74c-.41,2.2,1.03,4.31,3.23,4.73s4.31-1.03,4.73-3.23c.09-.49.09-1,0-1.49"/></g><g id="LWPOLYLINE-37"><line class="cls-2" x1="80.49" y1="157.74" x2="89.24" y2="157.74"/></g><g id="LWPOLYLINE-38"><path class="cls-2" d="m88.9,146.83c.41-2.2-1.03-4.31-3.23-4.73s-4.31,1.03-4.73,3.23c-.09.49-.09,1,0,1.49"/></g><g id="LWPOLYLINE-39"><line class="cls-2" x1="89.3" y1="146.83" x2="80.55" y2="146.83"/></g><g id="CIRCLE-3"><circle class="cls-2" cx="87.42" cy="82.68" r="2.59"/></g><g id="CIRCLE-4"><circle class="cls-2" cx="87.42" cy="82.68" r="4.41"/></g><g id="CIRCLE-5"><circle class="cls-2" cx="164.06" cy="224.06" r="4.41"/></g><g id="CIRCLE-6"><circle class="cls-2" cx="164.06" cy="224.06" r="2.59"/></g><g id="CIRCLE-7"><circle class="cls-2" cx="160.95" cy="82.68" r="4.41"/></g><g id="CIRCLE-8"><circle class="cls-2" cx="160.95" cy="82.68" r="2.59"/></g><g id="CIRCLE-9"><circle class="cls-2" cx="234.48" cy="82.68" r="2.59"/></g><g id="CIRCLE-10"><circle class="cls-2" cx="234.48" cy="82.68" r="4.41"/></g><g id="CIRCLE-11"><circle class="cls-2" cx="464.16" cy="224.06" r="2.59"/></g><g id="CIRCLE-12"><circle class="cls-2" cx="464.16" cy="224.06" r="4.41"/></g><g id="LWPOLYLINE-40"><path class="cls-2" d="m438.2,157.74c.09.49.09,1,0,1.49-.41,2.2-2.53,3.64-4.73,3.23s-3.64-2.53-3.23-4.73"/></g><g id="LWPOLYLINE-41"><line class="cls-2" x1="438.61" y1="157.74" x2="429.85" y2="157.74"/></g><g id="LWPOLYLINE-42"><path class="cls-2" d="m430.2,146.83c-.09-.49-.09-1,0-1.49.41-2.2,2.53-3.64,4.73-3.23s3.64,2.53,3.23,4.73"/></g><g id="LWPOLYLINE-43"><line class="cls-2" x1="429.79" y1="146.83" x2="438.55" y2="146.83"/></g><g id="LWPOLYLINE-44"><path class="cls-2" d="m473.8,157.74c.09.49.09,1,0,1.49-.41,2.2-2.53,3.64-4.73,3.23s-3.64-2.53-3.23-4.73"/></g><g id="LWPOLYLINE-45"><line class="cls-2" x1="474.2" y1="157.74" x2="465.45" y2="157.74"/></g><g id="LWPOLYLINE-46"><path class="cls-2" d="m465.79,146.83c-.09-.49-.09-1,0-1.49.41-2.2,2.53-3.64,4.73-3.23s3.64,2.53,3.23,4.73"/></g><g id="LWPOLYLINE-47"><line class="cls-2" x1="465.39" y1="146.83" x2="474.14" y2="146.83"/></g><g id="CIRCLE-13"><circle class="cls-2" cx="467.27" cy="82.68" r="2.59"/></g><g id="CIRCLE-14"><circle class="cls-2" cx="467.27" cy="82.68" r="4.41"/></g><g id="CIRCLE-15"><circle class="cls-2" cx="390.63" cy="224.06" r="4.41"/></g><g id="CIRCLE-16"><circle class="cls-2" cx="390.63" cy="224.06" r="2.59"/></g><g id="CIRCLE-17"><circle class="cls-2" cx="393.74" cy="82.68" r="4.41"/></g><g id="CIRCLE-18"><circle class="cls-2" cx="393.74" cy="82.68" r="2.59"/></g><g id="CIRCLE-19"><circle class="cls-2" cx="320.21" cy="82.68" r="2.59"/></g><g id="CIRCLE-20"><circle class="cls-2" cx="320.21" cy="82.68" r="4.41"/></g><g id="LINE-202"><line class="cls-2" x1="29.07" y1="64.39" x2="29.07" y2="141.39"/></g><g id="LINE-203"><line class="cls-2" x1="26.13" y1="64.38" x2="26.13" y2="141.39"/></g><g id="LINE-204"><line class="cls-2" x1="29.07" y1="239.6" x2="29.07" y2="162.59"/></g><g id="LINE-205"><line class="cls-2" x1="26.13" y1="239.6" x2="26.13" y2="162.59"/></g><g id="LINE-206"><line class="cls-2" x1="269.42" y1="12.3" x2="181.18" y2="45.39"/></g><g id="LINE-207"><line class="cls-2" x1="181.18" y1="12.3" x2="269.42" y2="45.39"/></g><g id="LINE-208"><line class="cls-2" x1="181.18" y1="12.3" x2="269.42" y2="12.3"/></g><g id="LINE-209"><line class="cls-2" x1="269.42" y1="45.39" x2="181.18" y2="45.39"/></g><g id="LINE-210"><line class="cls-2" x1="205.69" y1="41.57" x2="200.52" y2="45.39"/></g><g id="LINE-211"><line class="cls-2" x1="200.52" y1="45.39" x2="205.69" y2="49.21"/></g><g id="LINE-212"><line class="cls-2" x1="205.69" y1="49.21" x2="205.69" y2="41.57"/></g><g id="LINE-213"><line class="cls-2" x1="181.18" y1="45.39" x2="181.18" y2="12.3"/></g><g id="LINE-214"><line class="cls-2" x1="269.42" y1="12.3" x2="269.42" y2="45.39"/></g><g id="LINE-215"><line class="cls-2" x1="244.91" y1="49.21" x2="244.91" y2="41.57"/></g><g id="LINE-216"><line class="cls-2" x1="244.91" y1="41.57" x2="250.08" y2="45.39"/></g><g id="LINE-217"><line class="cls-2" x1="250.08" y1="45.39" x2="244.91" y2="49.21"/></g><g id="LINE-218"><line class="cls-2" x1="285.27" y1="12.3" x2="373.51" y2="45.39"/></g><g id="LINE-219"><line class="cls-2" x1="373.51" y1="12.3" x2="285.27" y2="45.39"/></g><g id="LINE-220"><line class="cls-2" x1="373.51" y1="12.3" x2="285.27" y2="12.3"/></g><g id="LINE-221"><line class="cls-2" x1="285.27" y1="45.39" x2="373.51" y2="45.39"/></g><g id="LINE-222"><line class="cls-2" x1="349" y1="41.57" x2="354.18" y2="45.39"/></g><g id="LINE-223"><line class="cls-2" x1="354.18" y1="45.39" x2="349" y2="49.21"/></g><g id="LINE-224"><line class="cls-2" x1="349" y1="49.21" x2="349" y2="41.57"/></g><g id="LINE-225"><line class="cls-2" x1="373.51" y1="45.39" x2="373.51" y2="12.3"/></g><g id="LINE-226"><line class="cls-2" x1="285.27" y1="12.3" x2="285.27" y2="45.39"/></g><g id="LINE-227"><line class="cls-2" x1="309.79" y1="49.21" x2="309.79" y2="41.57"/></g><g id="LINE-228"><line class="cls-2" x1="309.79" y1="41.57" x2="304.61" y2="45.39"/></g><g id="LINE-229"><line class="cls-2" x1="304.61" y1="45.39" x2="309.79" y2="49.21"/></g></svg>