<?xml version="1.0" encoding="UTF-8"?><svg id="PORTE_finestre_-_doors_windows" xmlns="http://www.w3.org/2000/svg" width="595.28" height="674" viewBox="0 0 595.28 674"><defs><style>.cls-1{stroke:#848484;}.cls-1,.cls-2,.cls-3,.cls-4,.cls-5,.cls-6,.cls-7{fill:none;stroke-linecap:round;stroke-linejoin:round;}.cls-1,.cls-4,.cls-5{stroke-width:.14px;}.cls-2{stroke-width:.26px;}.cls-2,.cls-7{stroke:#4c4c99;}.cls-3{stroke:#000;stroke-width:1.13px;}.cls-4,.cls-6{stroke:#ff0;}.cls-5{stroke:#5b5b5b;}.cls-6{stroke-width:.51px;}.cls-7{stroke-width:.43px;}</style></defs><g id="LINE"><line class="cls-3" x1="20.69" y1="24.77" x2="326.33" y2="24.77"/></g><g id="LINE-2"><line class="cls-3" x1="471.78" y1="8.95" x2="589.82" y2="8.95"/></g><g id="LINE-3"><line class="cls-3" x1="20.69" y1="641.33" x2="20.69" y2="24.77"/></g><g id="LINE-4"><line class="cls-3" x1="4.88" y1="657.14" x2="4.88" y2="24.77"/></g><g id="LWPOLYLINE"><line class="cls-3" x1="31.23" y1="24.77" x2="4.88" y2="24.79"/></g><g id="LWPOLYLINE-2"><polyline class="cls-3" points="4.88 24.77 4.88 24.77 4.88 8.96 31.23 8.96 31.23 24.77 31.23 8.96"/></g><g id="LINE-5"><line class="cls-3" x1="4.88" y1="8.96" x2="471.78" y2="8.95"/></g><g id="LWPOLYLINE-3"><polyline class="cls-3" points="20.69 614.98 20.69 657.14 4.88 657.14 4.88 614.98 20.69 614.98 4.88 614.98"/></g><g id="LINE-6"><line class="cls-3" x1="326.33" y1="504.32" x2="326.33" y2="24.77"/></g><g id="LINE-7"><line class="cls-3" x1="342.14" y1="504.32" x2="342.14" y2="354.13"/></g><g id="LINE-8"><line class="cls-3" x1="326.33" y1="504.32" x2="342.14" y2="504.32"/></g><g id="LINE-9"><line class="cls-3" x1="574.01" y1="641.33" x2="574.01" y2="24.77"/></g><g id="LINE-10"><line class="cls-3" x1="589.82" y1="657.14" x2="589.82" y2="8.95"/></g><g id="LINE-11"><line class="cls-3" x1="389.57" y1="641.33" x2="347.41" y2="641.33"/></g><g id="LINE-12"><line class="cls-3" x1="389.57" y1="657.14" x2="347.41" y2="657.14"/></g><g id="LINE-13"><line class="cls-3" x1="389.57" y1="641.33" x2="574.01" y2="641.33"/></g><g id="LWPOLYLINE-4"><polyline class="cls-3" points="589.82 311.97 589.82 354.13 574.01 354.13 574.01 311.97 589.82 311.97 574.01 311.97"/></g><g id="LWPOLYLINE-5"><polyline class="cls-3" points="20.69 311.97 20.69 354.13 4.88 354.13 4.88 311.97 20.69 311.97 4.88 311.97"/></g><g id="LWPOLYLINE-6"><polyline class="cls-3" points="589.82 614.98 589.82 657.14 574.01 657.14 574.01 614.98 589.82 614.98 574.01 614.98"/></g><g id="LWPOLYLINE-7"><polyline class="cls-3" points="589.82 24.77 589.82 66.93 574.01 66.93 574.01 24.77 589.82 24.77 574.01 24.77"/></g><g id="LINE-14"><line class="cls-3" x1="347.41" y1="338.32" x2="342.14" y2="338.32"/></g><g id="LINE-15"><line class="cls-3" x1="347.41" y1="354.13" x2="342.14" y2="354.13"/></g><g id="LINE-16"><line class="cls-3" x1="342.14" y1="338.32" x2="342.14" y2="24.77"/></g><g id="LWPOLYLINE-8"><polyline class="cls-3" points="389.57 657.14 347.41 657.14 347.41 641.33 389.57 641.33 389.57 657.14 389.57 641.33"/></g><g id="LINE-17"><line class="cls-3" x1="347.41" y1="641.33" x2="347.41" y2="657.14"/></g><g id="LINE-18"><line class="cls-3" x1="242.02" y1="641.33" x2="242.02" y2="657.14"/></g><g id="LINE-19"><line class="cls-3" x1="242.02" y1="641.33" x2="20.69" y2="641.33"/></g><g id="LINE-20"><line class="cls-3" x1="4.88" y1="657.14" x2="242.02" y2="657.14"/></g><g id="LINE-21"><line class="cls-3" x1="347.41" y1="641.33" x2="347.41" y2="657.14"/></g><g id="LINE-22"><line class="cls-3" x1="242.02" y1="641.33" x2="242.02" y2="657.14"/></g><g id="LINE-23"><line class="cls-3" x1="589.82" y1="657.14" x2="389.57" y2="657.14"/></g><g id="LWPOLYLINE-9"><polyline class="cls-3" points="389.57 354.13 347.41 354.13 347.41 338.32 389.57 338.32 389.57 354.13 389.57 338.32"/></g><g id="LINE-24"><line class="cls-3" x1="342.14" y1="24.77" x2="574.01" y2="24.77"/></g><g id="LINE-25"><line class="cls-2" x1="510.77" y1="641.33" x2="510.77" y2="24.77"/></g><g id="LINE-26"><line class="cls-2" x1="464.82" y1="88.01" x2="464.82" y2="24.77"/></g><g id="LINE-27"><line class="cls-2" x1="398.37" y1="88.01" x2="398.37" y2="24.77"/></g><g id="LINE-28"><line class="cls-2" x1="398.37" y1="88.01" x2="464.82" y2="88.01"/></g><g id="LINE-29"><line class="cls-7" x1="24.9" y1="48.51" x2="40.25" y2="48.51"/></g><g id="LINE-30"><line class="cls-7" x1="24.9" y1="102.72" x2="40.25" y2="102.72"/></g><g id="LINE-31"><line class="cls-7" x1="20.69" y1="98.5" x2="20.69" y2="52.72"/></g><g id="ARC"><path class="cls-7" d="m24.9,102.72c-2.33,0-4.22-1.89-4.22-4.22"/></g><g id="ARC-2"><path class="cls-7" d="m20.69,52.72c0-2.33,1.89-4.22,4.22-4.22"/></g><g id="ARC-3"><path class="cls-7" d="m78.02,87.56c-2.26.57-4.57.87-6.9.9"/></g><g id="ARC-4"><path class="cls-7" d="m71.12,88.46c-2.38-.01-4.76-.19-7.11-.54"/></g><g id="ARC-5"><path class="cls-7" d="m64,87.93c-2.89-.39-5.56-1.74-7.58-3.84"/></g><g id="ARC-6"><path class="cls-7" d="m63.53,88.75c-3.08-.42-5.94-1.85-8.11-4.08"/></g><g id="LINE-32"><line class="cls-7" x1="41.59" y1="76.21" x2="44.46" y2="95.87"/></g><g id="ARC-7"><path class="cls-7" d="m90.29,86.67c-2.58,2.72-5.83,4.73-9.42,5.82"/></g><g id="ARC-8"><path class="cls-7" d="m89.74,86.35c-2.53,2.63-5.69,4.55-9.19,5.59"/></g><g id="ARC-9"><path class="cls-7" d="m86,84.19c-2.14,1.98-4.76,3.36-7.61,4.01"/></g><g id="ARC-10"><path class="cls-7" d="m71.12,89.2c-2.54.06-5.08-.09-7.59-.45"/></g><g id="LINE-33"><line class="cls-7" x1="44.46" y1="98.41" x2="75.94" y2="93.09"/></g><g id="LINE-34"><line class="cls-7" x1="76.12" y1="93.7" x2="47.96" y2="98.56"/></g><g id="LINE-35"><line class="cls-7" x1="44.46" y1="98.5" x2="44.46" y2="95.87"/></g><g id="ARC-11"><path class="cls-7" d="m44.46,98.5c0,2.33-1.89,4.22-4.22,4.22"/></g><g id="ARC-12"><path class="cls-7" d="m47.96,98.56c-1.16.2-2.33.27-3.51.21"/></g><g id="ARC-13"><path class="cls-7" d="m78.39,88.2c-2.37.64-4.82.97-7.27,1"/></g><g id="ARC-14"><path class="cls-7" d="m80.87,92.49c-1.55.53-3.14.93-4.75,1.21"/></g><g id="ARC-15"><path class="cls-7" d="m80.55,91.94c-1.51.5-3.05.89-4.61,1.15"/></g><g id="ARC-16"><path class="cls-7" d="m68.62,71.72c1.24.91,1.97,2.35,1.97,3.88"/></g><g id="ARC-17"><path class="cls-7" d="m70.59,75.6c0,1.53-.73,2.98-1.97,3.88"/></g><g id="ARC-18"><path class="cls-7" d="m64,63.28c2.36-.34,4.73-.52,7.11-.54"/></g><g id="ARC-19"><path class="cls-7" d="m63.53,62.46c2.51-.36,5.05-.52,7.59-.45"/></g><g id="LINE-36"><line class="cls-7" x1="44.46" y1="52.8" x2="75.94" y2="58.11"/></g><g id="LINE-37"><line class="cls-7" x1="76.12" y1="57.51" x2="47.96" y2="52.65"/></g><g id="LINE-38"><line class="cls-7" x1="42.98" y1="65.52" x2="42.98" y2="75.6"/></g><g id="CIRCLE"><circle class="cls-7" cx="47.4" cy="67.7" r=".84"/></g><g id="ARC-20"><path class="cls-7" d="m53.94,75.6c-.07-3.02.8-5.98,2.48-8.48"/></g><g id="ARC-21"><path class="cls-7" d="m52.57,75.6c-.14-3.26.86-6.47,2.85-9.06"/></g><g id="LINE-39"><line class="cls-7" x1="44.46" y1="55.36" x2="41.59" y2="74.99"/></g><g id="LINE-40"><line class="cls-7" x1="42.98" y1="85.7" x2="42.98" y2="75.6"/></g><g id="CIRCLE-2"><circle class="cls-7" cx="47.4" cy="83.51" r=".84"/></g><g id="ARC-22"><path class="cls-7" d="m41.59,76.21c-.06-.4-.06-.82,0-1.22"/></g><g id="ARC-23"><path class="cls-7" d="m61.42,78.24c-.21-.86-.32-1.75-.32-2.64"/></g><g id="ARC-24"><path class="cls-7" d="m56.42,84.09c-1.69-2.5-2.56-5.47-2.48-8.48"/></g><g id="ARC-25"><path class="cls-7" d="m55.42,84.67c-1.99-2.59-2.99-5.8-2.85-9.06"/></g><g id="LINE-41"><line class="cls-7" x1="62.75" y1="79.43" x2="66.71" y2="79.97"/></g><g id="ARC-26"><path class="cls-7" d="m62.75,79.43c-.64-.09-1.17-.56-1.32-1.19"/></g><g id="ARC-27"><path class="cls-7" d="m68.62,79.49c-.55.4-1.24.58-1.91.48"/></g><g id="ARC-28"><path class="cls-7" d="m61.11,75.6c0-.89.11-1.77.32-2.64"/></g><g id="LINE-42"><line class="cls-7" x1="62.75" y1="71.78" x2="66.71" y2="71.24"/></g><g id="ARC-29"><path class="cls-7" d="m61.42,72.97c.15-.63.68-1.1,1.32-1.19"/></g><g id="LWPOLYLINE-10"><path class="cls-7" d="m69.22,74.34c-.11,0-.21.03-.31.09-.12.07-.22.17-.3.28-.08.12-.14.25-.18.39-.05.16-.07.33-.07.5,0,.17.02.34.07.5.04.14.1.27.18.39.08.11.18.21.3.28.09.06.2.09.31.09s.21-.03.31-.09c.12-.07.22-.17.3-.28s.14-.25.18-.39c.05-.16.07-.33.07-.5,0-.17-.02-.34-.07-.5-.04-.14-.1-.27-.18-.39s-.18-.21-.3-.28c-.09-.06-.2-.09-.31-.09Z"/></g><g id="ARC-30"><path class="cls-7" d="m66.71,71.24c.68-.09,1.36.08,1.91.48"/></g><g id="LINE-43"><line class="cls-7" x1="44.46" y1="55.36" x2="44.46" y2="52.72"/></g><g id="ARC-31"><path class="cls-7" d="m40.25,48.51c2.33,0,4.22,1.89,4.22,4.22"/></g><g id="ARC-32"><path class="cls-7" d="m44.45,52.44c1.17-.06,2.35,0,3.51.21"/></g><g id="ARC-33"><path class="cls-7" d="m56.42,67.12c2.02-2.1,4.69-3.45,7.58-3.84"/></g><g id="ARC-34"><path class="cls-7" d="m55.42,66.54c2.17-2.23,5.03-3.66,8.11-4.08"/></g><g id="ARC-35"><path class="cls-7" d="m86,67.01c2.34,2.27,3.73,5.34,3.88,8.59"/></g><g id="ARC-36"><path class="cls-7" d="m85.36,67.38c2.27,2.15,3.63,5.1,3.78,8.22"/></g><g id="ARC-37"><path class="cls-7" d="m89.74,64.85c2.72,2.94,4.3,6.75,4.46,10.75"/></g><g id="ARC-38"><path class="cls-7" d="m90.29,64.54c2.78,3.03,4.39,6.96,4.55,11.07"/></g><g id="ARC-39"><path class="cls-7" d="m94.2,75.6c-.16,4-1.74,7.81-4.46,10.75"/></g><g id="ARC-40"><path class="cls-7" d="m94.83,75.6c-.16,4.11-1.77,8.03-4.55,11.07"/></g><g id="ARC-41"><path class="cls-7" d="m89.88,75.6c-.16,3.25-1.54,6.32-3.88,8.59"/></g><g id="ARC-42"><path class="cls-7" d="m89.14,75.6c-.16,3.12-1.51,6.07-3.78,8.22"/></g><g id="ARC-43"><path class="cls-7" d="m85.36,83.82c-2.07,1.87-4.6,3.16-7.34,3.74"/></g><g id="LINE-44"><line class="cls-7" x1="71.12" y1="75.6" x2="71.12" y2="75.6"/></g><g id="LINE-45"><line class="cls-7" x1="71.12" y1="75.6" x2="71.12" y2="75.6"/></g><g id="LINE-46"><line class="cls-7" x1="71.12" y1="75.6" x2="71.12" y2="75.6"/></g><g id="LINE-47"><line class="cls-7" x1="71.12" y1="75.6" x2="71.12" y2="75.6"/></g><g id="LINE-48"><line class="cls-7" x1="71.12" y1="75.6" x2="71.12" y2="75.6"/></g><g id="LINE-49"><line class="cls-7" x1="71.12" y1="75.6" x2="71.12" y2="75.6"/></g><g id="LINE-50"><line class="cls-7" x1="71.12" y1="75.6" x2="71.12" y2="75.6"/></g><g id="LINE-51"><line class="cls-7" x1="71.12" y1="75.6" x2="71.12" y2="75.6"/></g><g id="ARC-44"><path class="cls-7" d="m75.94,58.11c1.56.26,3.11.65,4.61,1.15"/></g><g id="ARC-45"><path class="cls-7" d="m76.12,57.51c1.61.28,3.2.68,4.75,1.21"/></g><g id="ARC-46"><path class="cls-7" d="m71.12,62.01c2.46.03,4.9.36,7.27,1"/></g><g id="ARC-47"><path class="cls-7" d="m71.12,62.75c2.33.03,4.65.33,6.9.9"/></g><g id="ARC-48"><path class="cls-7" d="m80.55,59.27c3.49,1.04,6.66,2.96,9.19,5.59"/></g><g id="ARC-49"><path class="cls-7" d="m78.02,63.65c2.73.57,5.26,1.86,7.34,3.74"/></g><g id="ARC-50"><path class="cls-7" d="m78.39,63.01c2.84.64,5.47,2.02,7.61,4.01"/></g><g id="ARC-51"><path class="cls-7" d="m80.87,58.72c3.59,1.09,6.84,3.1,9.42,5.82"/></g><g id="LINE-52"><line class="cls-7" x1="318.22" y1="264.38" x2="326.33" y2="264.38"/></g><g id="ARC-52"><path class="cls-7" d="m314.66,262.99c.97.89,2.24,1.39,3.56,1.39"/></g><g id="ARC-53"><path class="cls-7" d="m311.44,258.58c.77,1.67,1.86,3.18,3.22,4.42"/></g><g id="ARC-54"><path class="cls-7" d="m311.44,258.58c-1.76-4.44-6.1-7.32-10.88-7.23"/></g><g id="ARC-55"><path class="cls-7" d="m300.14,240.51c-3,0-5.43,2.43-5.43,5.43,0,3,2.43,5.43,5.43,5.43.14,0,.28,0,.42-.02"/></g><g id="ARC-56"><path class="cls-7" d="m300.14,240.51c4.93.28,9.48-2.62,11.3-7.21"/></g><g id="ARC-57"><path class="cls-7" d="m314.66,228.88c-1.36,1.24-2.45,2.75-3.22,4.42"/></g><g id="ARC-58"><path class="cls-7" d="m318.22,227.49c-1.32,0-2.59.5-3.56,1.39"/></g><g id="LINE-53"><line class="cls-7" x1="326.33" y1="227.49" x2="318.22" y2="227.49"/></g><g id="LINE-54"><line class="cls-7" x1="321.06" y1="264.38" x2="321.06" y2="227.49"/></g><g id="CIRCLE-3"><circle class="cls-7" cx="316.18" cy="245.94" r="1.47"/></g><g id="CIRCLE-4"><circle class="cls-7" cx="323.66" cy="245.94" r="2.12"/></g><g id="LWPOLYLINE-11"><polyline class="cls-7" points="324.47 243.98 324.47 239.86 322.93 239.86 322.93 243.95"/></g><g id="CIRCLE-5"><circle class="cls-7" cx="323.66" cy="245.94" r="1.06"/></g><g id="LWPOLYLINE-12"><path class="cls-7" d="m321.06,230.13h-2.84c-.66,0-1.3.25-1.78.69-1.08.99-1.96,2.19-2.58,3.52-2.25,5.57-7.78,9.1-13.78,8.8-1.54.03-2.77,1.31-2.73,2.85s1.31,2.77,2.85,2.73c.07,0,.14,0,.22-.01,5.88-.16,11.24,3.36,13.44,8.81.62,1.33,1.5,2.53,2.58,3.52.49.45,1.12.69,1.78.69h2.84"/></g><g id="LINE-55"><line class="cls-7" x1="318.22" y1="201.15" x2="326.33" y2="201.15"/></g><g id="ARC-59"><path class="cls-7" d="m314.66,199.76c.97.89,2.24,1.39,3.56,1.39"/></g><g id="ARC-60"><path class="cls-7" d="m311.44,195.34c.77,1.67,1.86,3.18,3.22,4.42"/></g><g id="ARC-61"><path class="cls-7" d="m311.44,195.34c-1.76-4.44-6.1-7.32-10.88-7.23"/></g><g id="ARC-62"><path class="cls-7" d="m300.14,177.27c-3,0-5.43,2.43-5.43,5.43,0,3,2.43,5.43,5.43,5.43.14,0,.28,0,.42-.02"/></g><g id="ARC-63"><path class="cls-7" d="m300.14,177.27c4.93.28,9.48-2.62,11.3-7.21"/></g><g id="ARC-64"><path class="cls-7" d="m314.66,165.65c-1.36,1.24-2.45,2.75-3.22,4.42"/></g><g id="ARC-65"><path class="cls-7" d="m318.22,164.26c-1.32,0-2.59.5-3.56,1.39"/></g><g id="LINE-56"><line class="cls-7" x1="326.33" y1="164.26" x2="318.22" y2="164.26"/></g><g id="LINE-57"><line class="cls-7" x1="321.06" y1="201.15" x2="321.06" y2="164.26"/></g><g id="CIRCLE-6"><circle class="cls-7" cx="316.18" cy="182.7" r="1.47"/></g><g id="CIRCLE-7"><circle class="cls-7" cx="323.66" cy="182.7" r="2.12"/></g><g id="LWPOLYLINE-13"><polyline class="cls-7" points="324.47 180.74 324.47 176.62 322.93 176.62 322.93 180.72"/></g><g id="CIRCLE-8"><circle class="cls-7" cx="323.66" cy="182.7" r="1.06"/></g><g id="LWPOLYLINE-14"><path class="cls-7" d="m321.06,166.89h-2.84c-.66,0-1.3.25-1.78.69-1.08.99-1.96,2.19-2.58,3.52-2.25,5.57-7.78,9.1-13.78,8.8-1.54.03-2.77,1.31-2.73,2.85s1.31,2.77,2.85,2.73c.07,0,.14,0,.22-.01,5.88-.16,11.24,3.36,13.44,8.81.62,1.33,1.5,2.53,2.58,3.52.49.45,1.12.69,1.78.69h2.84"/></g><g id="LINE-58"><line class="cls-7" x1="318.22" y1="324.44" x2="326.33" y2="324.44"/></g><g id="ARC-66"><path class="cls-7" d="m314.66,323.05c.97.89,2.24,1.39,3.56,1.39"/></g><g id="ARC-67"><path class="cls-7" d="m311.44,318.63c.77,1.67,1.86,3.18,3.22,4.42"/></g><g id="ARC-68"><path class="cls-7" d="m311.44,318.63c-1.76-4.44-6.1-7.32-10.88-7.23"/></g><g id="ARC-69"><path class="cls-7" d="m300.14,300.57c-3,0-5.43,2.43-5.43,5.43,0,3,2.43,5.43,5.43,5.43.14,0,.28,0,.42-.02"/></g><g id="ARC-70"><path class="cls-7" d="m300.14,300.57c4.93.28,9.48-2.62,11.3-7.21"/></g><g id="ARC-71"><path class="cls-7" d="m314.66,288.94c-1.36,1.24-2.45,2.75-3.22,4.42"/></g><g id="ARC-72"><path class="cls-7" d="m318.22,287.55c-1.32,0-2.59.5-3.56,1.39"/></g><g id="LINE-59"><line class="cls-7" x1="326.33" y1="287.55" x2="318.22" y2="287.55"/></g><g id="LINE-60"><line class="cls-7" x1="321.06" y1="324.44" x2="321.06" y2="287.55"/></g><g id="CIRCLE-9"><circle class="cls-7" cx="316.18" cy="305.99" r="1.47"/></g><g id="CIRCLE-10"><circle class="cls-7" cx="323.66" cy="305.99" r="2.12"/></g><g id="LWPOLYLINE-15"><polyline class="cls-7" points="324.47 304.04 324.47 299.91 322.93 299.91 322.93 304.01"/></g><g id="CIRCLE-11"><circle class="cls-7" cx="323.66" cy="305.99" r="1.06"/></g><g id="LWPOLYLINE-16"><path class="cls-7" d="m321.06,290.18h-2.84c-.66,0-1.3.25-1.78.69-1.08.99-1.96,2.19-2.58,3.52-2.25,5.57-7.78,9.1-13.78,8.8-1.54.03-2.77,1.31-2.73,2.85s1.31,2.77,2.85,2.73c.07,0,.14,0,.22-.01,5.88-.16,11.24,3.36,13.44,8.81.62,1.33,1.5,2.53,2.58,3.52.49.45,1.12.69,1.78.69h2.84"/></g><g id="LINE-61"><line class="cls-7" x1="24.9" y1="310.31" x2="40.25" y2="310.31"/></g><g id="LINE-62"><line class="cls-7" x1="24.9" y1="256.1" x2="40.25" y2="256.1"/></g><g id="LINE-63"><line class="cls-7" x1="20.69" y1="260.32" x2="20.69" y2="306.09"/></g><g id="ARC-73"><path class="cls-7" d="m24.9,256.1c-2.33,0-4.22,1.89-4.22,4.22"/></g><g id="ARC-74"><path class="cls-7" d="m20.69,306.09c0,2.33,1.89,4.22,4.22,4.22"/></g><g id="ARC-75"><path class="cls-7" d="m78.02,271.26c-2.26-.57-4.57-.87-6.9-.9"/></g><g id="ARC-76"><path class="cls-7" d="m71.12,270.36c-2.38.01-4.76.19-7.11.54"/></g><g id="ARC-77"><path class="cls-7" d="m64,270.89c-2.89.39-5.56,1.74-7.58,3.84"/></g><g id="ARC-78"><path class="cls-7" d="m63.53,270.07c-3.08.42-5.94,1.85-8.11,4.08"/></g><g id="LINE-64"><line class="cls-7" x1="41.59" y1="282.61" x2="44.46" y2="262.95"/></g><g id="ARC-79"><path class="cls-7" d="m90.29,272.15c-2.58-2.72-5.83-4.73-9.42-5.82"/></g><g id="ARC-80"><path class="cls-7" d="m89.74,272.47c-2.53-2.63-5.69-4.55-9.19-5.59"/></g><g id="ARC-81"><path class="cls-7" d="m86,274.63c-2.14-1.98-4.76-3.36-7.61-4.01"/></g><g id="ARC-82"><path class="cls-7" d="m71.12,269.62c-2.54-.06-5.08.09-7.59.45"/></g><g id="LINE-65"><line class="cls-7" x1="44.46" y1="260.41" x2="75.94" y2="265.73"/></g><g id="LINE-66"><line class="cls-7" x1="76.12" y1="265.12" x2="47.96" y2="260.26"/></g><g id="LINE-67"><line class="cls-7" x1="44.46" y1="260.32" x2="44.46" y2="262.95"/></g><g id="ARC-83"><path class="cls-7" d="m44.46,260.32c0-2.33-1.89-4.22-4.22-4.22"/></g><g id="ARC-84"><path class="cls-7" d="m47.96,260.26c-1.16-.2-2.33-.27-3.51-.21"/></g><g id="ARC-85"><path class="cls-7" d="m78.39,270.62c-2.37-.64-4.82-.97-7.27-1"/></g><g id="ARC-86"><path class="cls-7" d="m80.87,266.33c-1.55-.53-3.14-.93-4.75-1.21"/></g><g id="ARC-87"><path class="cls-7" d="m80.55,266.88c-1.51-.5-3.05-.89-4.61-1.15"/></g><g id="ARC-88"><path class="cls-7" d="m68.62,287.1c1.24-.91,1.97-2.35,1.97-3.88"/></g><g id="ARC-89"><path class="cls-7" d="m70.59,283.22c0-1.53-.73-2.98-1.97-3.88"/></g><g id="ARC-90"><path class="cls-7" d="m64,295.54c2.36.34,4.73.52,7.11.54"/></g><g id="ARC-91"><path class="cls-7" d="m63.53,296.36c2.51.36,5.05.52,7.59.45"/></g><g id="LINE-68"><line class="cls-7" x1="44.46" y1="306.02" x2="75.94" y2="300.7"/></g><g id="LINE-69"><line class="cls-7" x1="76.12" y1="301.31" x2="47.96" y2="306.17"/></g><g id="LINE-70"><line class="cls-7" x1="42.98" y1="293.3" x2="42.98" y2="283.22"/></g><g id="CIRCLE-12"><circle class="cls-7" cx="47.4" cy="291.12" r=".84"/></g><g id="ARC-92"><path class="cls-7" d="m53.94,283.22c-.07,3.02.8,5.98,2.48,8.48"/></g><g id="ARC-93"><path class="cls-7" d="m52.57,283.22c-.14,3.26.86,6.47,2.85,9.06"/></g><g id="LINE-71"><line class="cls-7" x1="44.46" y1="303.46" x2="41.59" y2="283.83"/></g><g id="LINE-72"><line class="cls-7" x1="42.98" y1="273.12" x2="42.98" y2="283.22"/></g><g id="CIRCLE-13"><circle class="cls-7" cx="47.4" cy="275.31" r=".84"/></g><g id="ARC-94"><path class="cls-7" d="m41.59,282.61c-.06.4-.06.82,0,1.22"/></g><g id="ARC-95"><path class="cls-7" d="m61.42,280.58c-.21.86-.32,1.75-.32,2.64"/></g><g id="ARC-96"><path class="cls-7" d="m56.42,274.73c-1.69,2.5-2.56,5.47-2.48,8.48"/></g><g id="ARC-97"><path class="cls-7" d="m55.42,274.15c-1.99,2.59-2.99,5.8-2.85,9.06"/></g><g id="LINE-73"><line class="cls-7" x1="62.75" y1="279.39" x2="66.71" y2="278.85"/></g><g id="ARC-98"><path class="cls-7" d="m62.75,279.39c-.64.09-1.17.56-1.32,1.19"/></g><g id="ARC-99"><path class="cls-7" d="m68.62,279.33c-.55-.4-1.24-.58-1.91-.48"/></g><g id="ARC-100"><path class="cls-7" d="m61.11,283.22c0,.89.11,1.77.32,2.64"/></g><g id="LINE-74"><line class="cls-7" x1="62.75" y1="287.04" x2="66.71" y2="287.58"/></g><g id="ARC-101"><path class="cls-7" d="m61.42,285.85c.15.63.68,1.1,1.32,1.19"/></g><g id="LWPOLYLINE-17"><path class="cls-7" d="m69.22,284.48c-.11,0-.21-.03-.31-.09-.12-.07-.22-.17-.3-.28-.08-.12-.14-.25-.18-.39-.05-.16-.07-.33-.07-.5,0-.17.02-.34.07-.5.04-.14.1-.27.18-.39.08-.11.18-.21.3-.28.09-.06.2-.09.31-.09s.21.03.31.09c.12.07.22.17.3.28s.14.25.18.39c.05.16.07.33.07.5,0,.17-.02.34-.07.5-.04.14-.1.27-.18.39s-.18.21-.3.28c-.09.06-.2.09-.31.09Z"/></g><g id="ARC-102"><path class="cls-7" d="m66.71,287.58c.68.09,1.36-.08,1.91-.48"/></g><g id="LINE-75"><line class="cls-7" x1="44.46" y1="303.46" x2="44.46" y2="306.09"/></g><g id="ARC-103"><path class="cls-7" d="m40.25,310.31c2.33,0,4.22-1.89,4.22-4.22"/></g><g id="ARC-104"><path class="cls-7" d="m44.45,306.38c1.17.06,2.35,0,3.51-.21"/></g><g id="ARC-105"><path class="cls-7" d="m56.42,291.7c2.02,2.1,4.69,3.45,7.58,3.84"/></g><g id="ARC-106"><path class="cls-7" d="m55.42,292.28c2.17,2.23,5.03,3.66,8.11,4.08"/></g><g id="ARC-107"><path class="cls-7" d="m86,291.81c2.34-2.27,3.73-5.34,3.88-8.59"/></g><g id="ARC-108"><path class="cls-7" d="m85.36,291.44c2.27-2.15,3.63-5.1,3.78-8.22"/></g><g id="ARC-109"><path class="cls-7" d="m89.74,293.97c2.72-2.94,4.3-6.75,4.46-10.75"/></g><g id="ARC-110"><path class="cls-7" d="m90.29,294.28c2.78-3.03,4.39-6.96,4.55-11.07"/></g><g id="ARC-111"><path class="cls-7" d="m94.2,283.22c-.16-4-1.74-7.81-4.46-10.75"/></g><g id="ARC-112"><path class="cls-7" d="m94.83,283.22c-.16-4.11-1.77-8.03-4.55-11.07"/></g><g id="ARC-113"><path class="cls-7" d="m89.88,283.22c-.16-3.25-1.54-6.32-3.88-8.59"/></g><g id="ARC-114"><path class="cls-7" d="m89.14,283.22c-.16-3.12-1.51-6.07-3.78-8.22"/></g><g id="ARC-115"><path class="cls-7" d="m85.36,275c-2.07-1.87-4.6-3.16-7.34-3.74"/></g><g id="LINE-76"><line class="cls-7" x1="71.12" y1="283.22" x2="71.12" y2="283.22"/></g><g id="LINE-77"><line class="cls-7" x1="71.12" y1="283.22" x2="71.12" y2="283.22"/></g><g id="LINE-78"><line class="cls-7" x1="71.12" y1="283.22" x2="71.12" y2="283.22"/></g><g id="LINE-79"><line class="cls-7" x1="71.12" y1="283.22" x2="71.12" y2="283.22"/></g><g id="LINE-80"><line class="cls-7" x1="71.12" y1="283.22" x2="71.12" y2="283.22"/></g><g id="LINE-81"><line class="cls-7" x1="71.12" y1="283.22" x2="71.12" y2="283.22"/></g><g id="LINE-82"><line class="cls-7" x1="71.12" y1="283.22" x2="71.12" y2="283.22"/></g><g id="LINE-83"><line class="cls-7" x1="71.12" y1="283.22" x2="71.12" y2="283.22"/></g><g id="ARC-116"><path class="cls-7" d="m75.94,300.7c1.56-.26,3.11-.65,4.61-1.15"/></g><g id="ARC-117"><path class="cls-7" d="m76.12,301.31c1.61-.28,3.2-.68,4.75-1.21"/></g><g id="ARC-118"><path class="cls-7" d="m71.12,296.81c2.46-.03,4.9-.36,7.27-1"/></g><g id="ARC-119"><path class="cls-7" d="m71.12,296.07c2.33-.03,4.65-.33,6.9-.9"/></g><g id="ARC-120"><path class="cls-7" d="m80.55,299.55c3.49-1.04,6.66-2.96,9.19-5.59"/></g><g id="ARC-121"><path class="cls-7" d="m78.02,295.17c2.73-.57,5.26-1.86,7.34-3.74"/></g><g id="ARC-122"><path class="cls-7" d="m78.39,295.81c2.84-.64,5.47-2.02,7.61-4.01"/></g><g id="ARC-123"><path class="cls-7" d="m80.87,300.1c3.59-1.09,6.84-3.1,9.42-5.82"/></g><g id="LINE-84"><line class="cls-7" x1="24.9" y1="204.61" x2="40.25" y2="204.61"/></g><g id="LINE-85"><line class="cls-7" x1="24.9" y1="150.4" x2="40.25" y2="150.4"/></g><g id="LINE-86"><line class="cls-7" x1="20.69" y1="154.62" x2="20.69" y2="200.39"/></g><g id="ARC-124"><path class="cls-7" d="m24.9,150.4c-2.33,0-4.22,1.89-4.22,4.22"/></g><g id="ARC-125"><path class="cls-7" d="m20.69,200.39c0,2.33,1.89,4.22,4.22,4.22"/></g><g id="ARC-126"><path class="cls-7" d="m78.02,165.56c-2.26-.57-4.57-.87-6.9-.9"/></g><g id="ARC-127"><path class="cls-7" d="m71.12,164.66c-2.38.01-4.76.19-7.11.54"/></g><g id="ARC-128"><path class="cls-7" d="m64,165.19c-2.89.39-5.56,1.74-7.58,3.84"/></g><g id="ARC-129"><path class="cls-7" d="m63.53,164.37c-3.08.42-5.94,1.85-8.11,4.08"/></g><g id="LINE-87"><line class="cls-7" x1="41.59" y1="176.91" x2="44.46" y2="157.25"/></g><g id="ARC-130"><path class="cls-7" d="m90.29,166.45c-2.58-2.72-5.83-4.73-9.42-5.82"/></g><g id="ARC-131"><path class="cls-7" d="m89.74,166.77c-2.53-2.63-5.69-4.55-9.19-5.59"/></g><g id="ARC-132"><path class="cls-7" d="m86,168.93c-2.14-1.98-4.76-3.36-7.61-4.01"/></g><g id="ARC-133"><path class="cls-7" d="m71.12,163.92c-2.54-.06-5.08.09-7.59.45"/></g><g id="LINE-88"><line class="cls-7" x1="44.46" y1="154.71" x2="75.94" y2="160.03"/></g><g id="LINE-89"><line class="cls-7" x1="76.12" y1="159.42" x2="47.96" y2="154.56"/></g><g id="LINE-90"><line class="cls-7" x1="44.46" y1="154.62" x2="44.46" y2="157.25"/></g><g id="ARC-134"><path class="cls-7" d="m44.46,154.62c0-2.33-1.89-4.22-4.22-4.22"/></g><g id="ARC-135"><path class="cls-7" d="m47.96,154.56c-1.16-.2-2.33-.27-3.51-.21"/></g><g id="ARC-136"><path class="cls-7" d="m78.39,164.92c-2.37-.64-4.82-.97-7.27-1"/></g><g id="ARC-137"><path class="cls-7" d="m80.87,160.63c-1.55-.53-3.14-.93-4.75-1.21"/></g><g id="ARC-138"><path class="cls-7" d="m80.55,161.18c-1.51-.5-3.05-.89-4.61-1.15"/></g><g id="ARC-139"><path class="cls-7" d="m68.62,181.4c1.24-.91,1.97-2.35,1.97-3.88"/></g><g id="ARC-140"><path class="cls-7" d="m70.59,177.52c0-1.53-.73-2.98-1.97-3.88"/></g><g id="ARC-141"><path class="cls-7" d="m64,189.84c2.36.34,4.73.52,7.11.54"/></g><g id="ARC-142"><path class="cls-7" d="m63.53,190.66c2.51.36,5.05.52,7.59.45"/></g><g id="LINE-91"><line class="cls-7" x1="44.46" y1="200.32" x2="75.94" y2="195"/></g><g id="LINE-92"><line class="cls-7" x1="76.12" y1="195.61" x2="47.96" y2="200.47"/></g><g id="LINE-93"><line class="cls-7" x1="42.98" y1="187.6" x2="42.98" y2="177.52"/></g><g id="CIRCLE-14"><circle class="cls-7" cx="47.4" cy="185.42" r=".84"/></g><g id="ARC-143"><path class="cls-7" d="m53.94,177.52c-.07,3.02.8,5.98,2.48,8.48"/></g><g id="ARC-144"><path class="cls-7" d="m52.57,177.52c-.14,3.26.86,6.47,2.85,9.06"/></g><g id="LINE-94"><line class="cls-7" x1="44.46" y1="197.76" x2="41.59" y2="178.13"/></g><g id="LINE-95"><line class="cls-7" x1="42.98" y1="167.42" x2="42.98" y2="177.52"/></g><g id="CIRCLE-15"><circle class="cls-7" cx="47.4" cy="169.61" r=".84"/></g><g id="ARC-145"><path class="cls-7" d="m41.59,176.91c-.06.4-.06.82,0,1.22"/></g><g id="ARC-146"><path class="cls-7" d="m61.42,174.88c-.21.86-.32,1.75-.32,2.64"/></g><g id="ARC-147"><path class="cls-7" d="m56.42,169.03c-1.69,2.5-2.56,5.47-2.48,8.48"/></g><g id="ARC-148"><path class="cls-7" d="m55.42,168.45c-1.99,2.59-2.99,5.8-2.85,9.06"/></g><g id="LINE-96"><line class="cls-7" x1="62.75" y1="173.69" x2="66.71" y2="173.15"/></g><g id="ARC-149"><path class="cls-7" d="m62.75,173.69c-.64.09-1.17.56-1.32,1.19"/></g><g id="ARC-150"><path class="cls-7" d="m68.62,173.63c-.55-.4-1.24-.58-1.91-.48"/></g><g id="ARC-151"><path class="cls-7" d="m61.11,177.52c0,.89.11,1.77.32,2.64"/></g><g id="LINE-97"><line class="cls-7" x1="62.75" y1="181.34" x2="66.71" y2="181.88"/></g><g id="ARC-152"><path class="cls-7" d="m61.42,180.15c.15.63.68,1.1,1.32,1.19"/></g><g id="LWPOLYLINE-18"><path class="cls-7" d="m69.22,178.78c-.11,0-.21-.03-.31-.09-.12-.07-.22-.17-.3-.28-.08-.12-.14-.25-.18-.39-.05-.16-.07-.33-.07-.5,0-.17.02-.34.07-.5.04-.14.1-.27.18-.39.08-.11.18-.21.3-.28.09-.06.2-.09.31-.09s.21.03.31.09c.12.07.22.17.3.28s.14.25.18.39c.05.16.07.33.07.5,0,.17-.02.34-.07.5-.04.14-.1.27-.18.39s-.18.21-.3.28c-.09.06-.2.09-.31.09Z"/></g><g id="ARC-153"><path class="cls-7" d="m66.71,181.88c.68.09,1.36-.08,1.91-.48"/></g><g id="LINE-98"><line class="cls-7" x1="44.46" y1="197.76" x2="44.46" y2="200.39"/></g><g id="ARC-154"><path class="cls-7" d="m40.25,204.61c2.33,0,4.22-1.89,4.22-4.22"/></g><g id="ARC-155"><path class="cls-7" d="m44.45,200.68c1.17.06,2.35,0,3.51-.21"/></g><g id="ARC-156"><path class="cls-7" d="m56.42,186c2.02,2.1,4.69,3.45,7.58,3.84"/></g><g id="ARC-157"><path class="cls-7" d="m55.42,186.58c2.17,2.23,5.03,3.66,8.11,4.08"/></g><g id="ARC-158"><path class="cls-7" d="m86,186.1c2.34-2.27,3.73-5.34,3.88-8.59"/></g><g id="ARC-159"><path class="cls-7" d="m85.36,185.74c2.27-2.15,3.63-5.1,3.78-8.22"/></g><g id="ARC-160"><path class="cls-7" d="m89.74,188.27c2.72-2.94,4.3-6.75,4.46-10.75"/></g><g id="ARC-161"><path class="cls-7" d="m90.29,188.58c2.78-3.03,4.39-6.96,4.55-11.07"/></g><g id="ARC-162"><path class="cls-7" d="m94.2,177.52c-.16-4-1.74-7.81-4.46-10.75"/></g><g id="ARC-163"><path class="cls-7" d="m94.83,177.52c-.16-4.11-1.77-8.03-4.55-11.07"/></g><g id="ARC-164"><path class="cls-7" d="m89.88,177.52c-.16-3.25-1.54-6.32-3.88-8.59"/></g><g id="ARC-165"><path class="cls-7" d="m89.14,177.52c-.16-3.12-1.51-6.07-3.78-8.22"/></g><g id="ARC-166"><path class="cls-7" d="m85.36,169.29c-2.07-1.87-4.6-3.16-7.34-3.74"/></g><g id="LINE-99"><line class="cls-7" x1="71.12" y1="177.52" x2="71.12" y2="177.52"/></g><g id="LINE-100"><line class="cls-7" x1="71.12" y1="177.52" x2="71.12" y2="177.52"/></g><g id="LINE-101"><line class="cls-7" x1="71.12" y1="177.52" x2="71.12" y2="177.52"/></g><g id="LINE-102"><line class="cls-7" x1="71.12" y1="177.52" x2="71.12" y2="177.52"/></g><g id="LINE-103"><line class="cls-7" x1="71.12" y1="177.52" x2="71.12" y2="177.52"/></g><g id="LINE-104"><line class="cls-7" x1="71.12" y1="177.52" x2="71.12" y2="177.52"/></g><g id="LINE-105"><line class="cls-7" x1="71.12" y1="177.52" x2="71.12" y2="177.52"/></g><g id="LINE-106"><line class="cls-7" x1="71.12" y1="177.52" x2="71.12" y2="177.52"/></g><g id="ARC-167"><path class="cls-7" d="m75.94,195c1.56-.26,3.11-.65,4.61-1.15"/></g><g id="ARC-168"><path class="cls-7" d="m76.12,195.61c1.61-.28,3.2-.68,4.75-1.21"/></g><g id="ARC-169"><path class="cls-7" d="m71.12,191.11c2.46-.03,4.9-.36,7.27-1"/></g><g id="ARC-170"><path class="cls-7" d="m71.12,190.37c2.33-.03,4.65-.33,6.9-.9"/></g><g id="ARC-171"><path class="cls-7" d="m80.55,193.85c3.49-1.04,6.66-2.96,9.19-5.59"/></g><g id="ARC-172"><path class="cls-7" d="m78.02,189.47c2.73-.57,5.26-1.86,7.34-3.74"/></g><g id="ARC-173"><path class="cls-7" d="m78.39,190.11c2.84-.64,5.47-2.02,7.61-4.01"/></g><g id="ARC-174"><path class="cls-7" d="m80.87,194.4c3.59-1.09,6.84-3.1,9.42-5.82"/></g><g id="LINE-107"><line class="cls-7" x1="318.22" y1="138.3" x2="326.33" y2="138.3"/></g><g id="ARC-175"><path class="cls-7" d="m314.66,136.92c.97.89,2.24,1.39,3.56,1.39"/></g><g id="ARC-176"><path class="cls-7" d="m311.44,132.5c.77,1.67,1.86,3.18,3.22,4.42"/></g><g id="ARC-177"><path class="cls-7" d="m311.44,132.5c-1.76-4.44-6.1-7.32-10.88-7.23"/></g><g id="ARC-178"><path class="cls-7" d="m300.14,114.43c-3,0-5.43,2.43-5.43,5.43,0,3,2.43,5.43,5.43,5.43.14,0,.28,0,.42-.02"/></g><g id="ARC-179"><path class="cls-7" d="m300.14,114.43c4.93.28,9.48-2.62,11.3-7.21"/></g><g id="ARC-180"><path class="cls-7" d="m314.66,102.8c-1.36,1.24-2.45,2.75-3.22,4.42"/></g><g id="ARC-181"><path class="cls-7" d="m318.22,101.42c-1.32,0-2.59.5-3.56,1.39"/></g><g id="LINE-108"><line class="cls-7" x1="326.33" y1="101.42" x2="318.22" y2="101.42"/></g><g id="LINE-109"><line class="cls-7" x1="321.06" y1="138.3" x2="321.06" y2="101.42"/></g><g id="CIRCLE-16"><circle class="cls-7" cx="316.18" cy="119.86" r="1.47"/></g><g id="CIRCLE-17"><circle class="cls-7" cx="323.66" cy="119.86" r="2.12"/></g><g id="LWPOLYLINE-19"><polyline class="cls-7" points="324.47 117.9 324.47 113.78 322.93 113.78 322.93 117.88"/></g><g id="CIRCLE-18"><circle class="cls-7" cx="323.66" cy="119.86" r="1.06"/></g><g id="LWPOLYLINE-20"><path class="cls-7" d="m321.06,104.05h-2.84c-.66,0-1.3.25-1.78.69-1.08.99-1.96,2.19-2.58,3.52-2.25,5.57-7.78,9.1-13.78,8.8-1.54.03-2.77,1.31-2.73,2.85s1.31,2.77,2.85,2.73c.07,0,.14,0,.22-.01,5.88-.16,11.24,3.36,13.44,8.81.62,1.33,1.5,2.53,2.58,3.52.49.45,1.12.69,1.78.69h2.84"/></g><g id="LINE-110"><line class="cls-7" x1="318.22" y1="80.34" x2="326.33" y2="80.34"/></g><g id="ARC-182"><path class="cls-7" d="m314.66,78.95c.97.89,2.24,1.39,3.56,1.39"/></g><g id="ARC-183"><path class="cls-7" d="m311.44,74.53c.77,1.67,1.86,3.18,3.22,4.42"/></g><g id="ARC-184"><path class="cls-7" d="m311.44,74.53c-1.76-4.44-6.1-7.32-10.88-7.23"/></g><g id="ARC-185"><path class="cls-7" d="m300.14,56.47c-3,0-5.43,2.43-5.43,5.43,0,3,2.43,5.43,5.43,5.43.14,0,.28,0,.42-.02"/></g><g id="ARC-186"><path class="cls-7" d="m300.14,56.47c4.93.28,9.48-2.62,11.3-7.21"/></g><g id="ARC-187"><path class="cls-7" d="m314.66,44.84c-1.36,1.24-2.45,2.75-3.22,4.42"/></g><g id="ARC-188"><path class="cls-7" d="m318.22,43.45c-1.32,0-2.59.5-3.56,1.39"/></g><g id="LINE-111"><line class="cls-7" x1="326.33" y1="43.45" x2="318.22" y2="43.45"/></g><g id="LINE-112"><line class="cls-7" x1="321.06" y1="80.34" x2="321.06" y2="43.45"/></g><g id="CIRCLE-19"><circle class="cls-7" cx="316.18" cy="61.89" r="1.47"/></g><g id="CIRCLE-20"><circle class="cls-7" cx="323.66" cy="61.89" r="2.12"/></g><g id="LWPOLYLINE-21"><polyline class="cls-7" points="324.47 59.94 324.47 55.81 322.93 55.81 322.93 59.91"/></g><g id="CIRCLE-21"><circle class="cls-7" cx="323.66" cy="61.89" r="1.06"/></g><g id="LWPOLYLINE-22"><path class="cls-7" d="m321.06,46.08h-2.84c-.66,0-1.3.25-1.78.69-1.08.99-1.96,2.19-2.58,3.52-2.25,5.57-7.78,9.1-13.78,8.8-1.54.03-2.77,1.31-2.73,2.85s1.31,2.77,2.85,2.73c.07,0,.14,0,.22-.01,5.88-.16,11.24,3.36,13.44,8.81.62,1.33,1.5,2.53,2.58,3.52.49.45,1.12.69,1.78.69h2.84"/></g><g id="LINE-113"><line class="cls-7" x1="24.9" y1="358.37" x2="40.25" y2="358.37"/></g><g id="LINE-114"><line class="cls-7" x1="24.9" y1="412.58" x2="40.25" y2="412.58"/></g><g id="LINE-115"><line class="cls-7" x1="20.69" y1="408.36" x2="20.69" y2="362.58"/></g><g id="ARC-189"><path class="cls-7" d="m24.9,412.58c-2.33,0-4.22-1.89-4.22-4.22"/></g><g id="ARC-190"><path class="cls-7" d="m20.69,362.58c0-2.33,1.89-4.22,4.22-4.22"/></g><g id="ARC-191"><path class="cls-7" d="m78.02,397.42c-2.26.57-4.57.87-6.9.9"/></g><g id="ARC-192"><path class="cls-7" d="m71.12,398.32c-2.38-.01-4.76-.19-7.11-.54"/></g><g id="ARC-193"><path class="cls-7" d="m64,397.79c-2.89-.39-5.56-1.74-7.58-3.84"/></g><g id="ARC-194"><path class="cls-7" d="m63.53,398.61c-3.08-.42-5.94-1.85-8.11-4.08"/></g><g id="LINE-116"><line class="cls-7" x1="41.59" y1="386.07" x2="44.46" y2="405.73"/></g><g id="ARC-195"><path class="cls-7" d="m90.29,396.53c-2.58,2.72-5.83,4.73-9.42,5.82"/></g><g id="ARC-196"><path class="cls-7" d="m89.74,396.21c-2.53,2.63-5.69,4.55-9.19,5.59"/></g><g id="ARC-197"><path class="cls-7" d="m86,394.05c-2.14,1.98-4.76,3.36-7.61,4.01"/></g><g id="ARC-198"><path class="cls-7" d="m71.12,399.06c-2.54.06-5.08-.09-7.59-.45"/></g><g id="LINE-117"><line class="cls-7" x1="44.46" y1="408.27" x2="75.94" y2="402.95"/></g><g id="LINE-118"><line class="cls-7" x1="76.12" y1="403.56" x2="47.96" y2="408.42"/></g><g id="LINE-119"><line class="cls-7" x1="44.46" y1="408.36" x2="44.46" y2="405.73"/></g><g id="ARC-199"><path class="cls-7" d="m44.46,408.36c0,2.33-1.89,4.22-4.22,4.22"/></g><g id="ARC-200"><path class="cls-7" d="m47.96,408.42c-1.16.2-2.33.27-3.51.21"/></g><g id="ARC-201"><path class="cls-7" d="m78.39,398.06c-2.37.64-4.82.97-7.27,1"/></g><g id="ARC-202"><path class="cls-7" d="m80.87,402.35c-1.55.53-3.14.93-4.75,1.21"/></g><g id="ARC-203"><path class="cls-7" d="m80.55,401.8c-1.51.5-3.05.89-4.61,1.15"/></g><g id="ARC-204"><path class="cls-7" d="m68.62,381.58c1.24.91,1.97,2.35,1.97,3.88"/></g><g id="ARC-205"><path class="cls-7" d="m70.59,385.46c0,1.53-.73,2.98-1.97,3.88"/></g><g id="ARC-206"><path class="cls-7" d="m64,373.14c2.36-.34,4.73-.52,7.11-.54"/></g><g id="ARC-207"><path class="cls-7" d="m63.53,372.32c2.51-.36,5.05-.52,7.59-.45"/></g><g id="LINE-120"><line class="cls-7" x1="44.46" y1="362.66" x2="75.94" y2="367.97"/></g><g id="LINE-121"><line class="cls-7" x1="76.12" y1="367.37" x2="47.96" y2="362.51"/></g><g id="LINE-122"><line class="cls-7" x1="42.98" y1="375.38" x2="42.98" y2="385.46"/></g><g id="CIRCLE-22"><circle class="cls-7" cx="47.4" cy="377.56" r=".84"/></g><g id="ARC-208"><path class="cls-7" d="m53.94,385.46c-.07-3.02.8-5.98,2.48-8.48"/></g><g id="ARC-209"><path class="cls-7" d="m52.57,385.46c-.14-3.26.86-6.47,2.85-9.06"/></g><g id="LINE-123"><line class="cls-7" x1="44.46" y1="365.22" x2="41.59" y2="384.85"/></g><g id="LINE-124"><line class="cls-7" x1="42.98" y1="395.56" x2="42.98" y2="385.46"/></g><g id="CIRCLE-23"><circle class="cls-7" cx="47.4" cy="393.37" r=".84"/></g><g id="ARC-210"><path class="cls-7" d="m41.59,386.07c-.06-.4-.06-.82,0-1.22"/></g><g id="ARC-211"><path class="cls-7" d="m61.42,388.1c-.21-.86-.32-1.75-.32-2.64"/></g><g id="ARC-212"><path class="cls-7" d="m56.42,393.95c-1.69-2.5-2.56-5.47-2.48-8.48"/></g><g id="ARC-213"><path class="cls-7" d="m55.42,394.53c-1.99-2.59-2.99-5.8-2.85-9.06"/></g><g id="LINE-125"><line class="cls-7" x1="62.75" y1="389.29" x2="66.71" y2="389.83"/></g><g id="ARC-214"><path class="cls-7" d="m62.75,389.29c-.64-.09-1.17-.56-1.32-1.19"/></g><g id="ARC-215"><path class="cls-7" d="m68.62,389.35c-.55.4-1.24.58-1.91.48"/></g><g id="ARC-216"><path class="cls-7" d="m61.11,385.46c0-.89.11-1.77.32-2.64"/></g><g id="LINE-126"><line class="cls-7" x1="62.75" y1="381.64" x2="66.71" y2="381.1"/></g><g id="ARC-217"><path class="cls-7" d="m61.42,382.83c.15-.63.68-1.1,1.32-1.19"/></g><g id="LWPOLYLINE-23"><path class="cls-7" d="m69.22,384.2c-.11,0-.21.03-.31.09-.12.07-.22.17-.3.28-.08.12-.14.25-.18.39-.05.16-.07.33-.07.5,0,.17.02.34.07.5.04.14.1.27.18.39.08.11.18.21.3.28.09.06.2.09.31.09s.21-.03.31-.09c.12-.07.22-.17.3-.28s.14-.25.18-.39c.05-.16.07-.33.07-.5,0-.17-.02-.34-.07-.5-.04-.14-.1-.27-.18-.39s-.18-.21-.3-.28c-.09-.06-.2-.09-.31-.09Z"/></g><g id="ARC-218"><path class="cls-7" d="m66.71,381.1c.68-.09,1.36.08,1.91.48"/></g><g id="LINE-127"><line class="cls-7" x1="44.46" y1="365.22" x2="44.46" y2="362.58"/></g><g id="ARC-219"><path class="cls-7" d="m40.25,358.37c2.33,0,4.22,1.89,4.22,4.22"/></g><g id="ARC-220"><path class="cls-7" d="m44.45,362.3c1.17-.06,2.35,0,3.51.21"/></g><g id="ARC-221"><path class="cls-7" d="m56.42,376.98c2.02-2.1,4.69-3.45,7.58-3.84"/></g><g id="ARC-222"><path class="cls-7" d="m55.42,376.4c2.17-2.23,5.03-3.66,8.11-4.08"/></g><g id="ARC-223"><path class="cls-7" d="m86,376.87c2.34,2.27,3.73,5.34,3.88,8.59"/></g><g id="ARC-224"><path class="cls-7" d="m85.36,377.24c2.27,2.15,3.63,5.1,3.78,8.22"/></g><g id="ARC-225"><path class="cls-7" d="m89.74,374.71c2.72,2.94,4.3,6.75,4.46,10.75"/></g><g id="ARC-226"><path class="cls-7" d="m90.29,374.4c2.78,3.03,4.39,6.96,4.55,11.07"/></g><g id="ARC-227"><path class="cls-7" d="m94.2,385.46c-.16,4-1.74,7.81-4.46,10.75"/></g><g id="ARC-228"><path class="cls-7" d="m94.83,385.46c-.16,4.11-1.77,8.03-4.55,11.07"/></g><g id="ARC-229"><path class="cls-7" d="m89.88,385.46c-.16,3.25-1.54,6.32-3.88,8.59"/></g><g id="ARC-230"><path class="cls-7" d="m89.14,385.46c-.16,3.12-1.51,6.07-3.78,8.22"/></g><g id="ARC-231"><path class="cls-7" d="m85.36,393.68c-2.07,1.87-4.6,3.16-7.34,3.74"/></g><g id="LINE-128"><line class="cls-7" x1="71.12" y1="385.46" x2="71.12" y2="385.46"/></g><g id="LINE-129"><line class="cls-7" x1="71.12" y1="385.46" x2="71.12" y2="385.46"/></g><g id="LINE-130"><line class="cls-7" x1="71.12" y1="385.46" x2="71.12" y2="385.46"/></g><g id="LINE-131"><line class="cls-7" x1="71.12" y1="385.46" x2="71.12" y2="385.46"/></g><g id="LINE-132"><line class="cls-7" x1="71.12" y1="385.46" x2="71.12" y2="385.46"/></g><g id="LINE-133"><line class="cls-7" x1="71.12" y1="385.46" x2="71.12" y2="385.46"/></g><g id="LINE-134"><line class="cls-7" x1="71.12" y1="385.46" x2="71.12" y2="385.46"/></g><g id="LINE-135"><line class="cls-7" x1="71.12" y1="385.46" x2="71.12" y2="385.46"/></g><g id="ARC-232"><path class="cls-7" d="m75.94,367.97c1.56.26,3.11.65,4.61,1.15"/></g><g id="ARC-233"><path class="cls-7" d="m76.12,367.37c1.61.28,3.2.68,4.75,1.21"/></g><g id="ARC-234"><path class="cls-7" d="m71.12,371.87c2.46.03,4.9.36,7.27,1"/></g><g id="ARC-235"><path class="cls-7" d="m71.12,372.6c2.33.03,4.65.33,6.9.9"/></g><g id="ARC-236"><path class="cls-7" d="m80.55,369.13c3.49,1.04,6.66,2.96,9.19,5.59"/></g><g id="ARC-237"><path class="cls-7" d="m78.02,373.51c2.73.57,5.26,1.86,7.34,3.74"/></g><g id="ARC-238"><path class="cls-7" d="m78.39,372.87c2.84.64,5.47,2.02,7.61,4.01"/></g><g id="ARC-239"><path class="cls-7" d="m80.87,368.58c3.59,1.09,6.84,3.1,9.42,5.82"/></g><g id="LINE-136"><line class="cls-7" x1="24.9" y1="620.07" x2="40.25" y2="620.07"/></g><g id="LINE-137"><line class="cls-7" x1="24.9" y1="565.86" x2="40.25" y2="565.86"/></g><g id="LINE-138"><line class="cls-7" x1="20.69" y1="570.08" x2="20.69" y2="615.85"/></g><g id="ARC-240"><path class="cls-7" d="m24.9,565.86c-2.33,0-4.22,1.89-4.22,4.22"/></g><g id="ARC-241"><path class="cls-7" d="m20.69,615.85c0,2.33,1.89,4.22,4.22,4.22"/></g><g id="ARC-242"><path class="cls-7" d="m78.02,581.02c-2.26-.57-4.57-.87-6.9-.9"/></g><g id="ARC-243"><path class="cls-7" d="m71.12,580.12c-2.38.01-4.76.19-7.11.54"/></g><g id="ARC-244"><path class="cls-7" d="m64,580.65c-2.89.39-5.56,1.74-7.58,3.84"/></g><g id="ARC-245"><path class="cls-7" d="m63.53,579.83c-3.08.42-5.94,1.85-8.11,4.08"/></g><g id="LINE-139"><line class="cls-7" x1="41.59" y1="592.36" x2="44.46" y2="572.71"/></g><g id="ARC-246"><path class="cls-7" d="m90.29,581.91c-2.58-2.72-5.83-4.73-9.42-5.82"/></g><g id="ARC-247"><path class="cls-7" d="m89.74,582.22c-2.53-2.63-5.69-4.55-9.19-5.59"/></g><g id="ARC-248"><path class="cls-7" d="m86,584.38c-2.14-1.98-4.76-3.36-7.61-4.01"/></g><g id="ARC-249"><path class="cls-7" d="m71.12,579.38c-2.54-.06-5.08.09-7.59.45"/></g><g id="LINE-140"><line class="cls-7" x1="44.46" y1="570.17" x2="75.94" y2="575.49"/></g><g id="LINE-141"><line class="cls-7" x1="76.12" y1="574.88" x2="47.96" y2="570.02"/></g><g id="LINE-142"><line class="cls-7" x1="44.46" y1="570.08" x2="44.46" y2="572.71"/></g><g id="ARC-250"><path class="cls-7" d="m44.46,570.08c0-2.33-1.89-4.22-4.22-4.22"/></g><g id="ARC-251"><path class="cls-7" d="m47.96,570.02c-1.16-.2-2.33-.27-3.51-.21"/></g><g id="ARC-252"><path class="cls-7" d="m78.39,580.38c-2.37-.64-4.82-.97-7.27-1"/></g><g id="ARC-253"><path class="cls-7" d="m80.87,576.09c-1.55-.53-3.14-.93-4.75-1.21"/></g><g id="ARC-254"><path class="cls-7" d="m80.55,576.64c-1.51-.5-3.05-.89-4.61-1.15"/></g><g id="ARC-255"><path class="cls-7" d="m68.62,596.86c1.24-.91,1.97-2.35,1.97-3.88"/></g><g id="ARC-256"><path class="cls-7" d="m70.59,592.97c0-1.53-.73-2.98-1.97-3.88"/></g><g id="ARC-257"><path class="cls-7" d="m64,605.3c2.36.34,4.73.52,7.11.54"/></g><g id="ARC-258"><path class="cls-7" d="m63.53,606.12c2.51.36,5.05.52,7.59.45"/></g><g id="LINE-143"><line class="cls-7" x1="44.46" y1="615.78" x2="75.94" y2="610.46"/></g><g id="LINE-144"><line class="cls-7" x1="76.12" y1="611.07" x2="47.96" y2="615.93"/></g><g id="LINE-145"><line class="cls-7" x1="42.98" y1="603.06" x2="42.98" y2="592.97"/></g><g id="CIRCLE-24"><circle class="cls-7" cx="47.4" cy="600.88" r=".84"/></g><g id="ARC-259"><path class="cls-7" d="m53.94,592.97c-.07,3.02.8,5.98,2.48,8.48"/></g><g id="ARC-260"><path class="cls-7" d="m52.57,592.97c-.14,3.26.86,6.47,2.85,9.06"/></g><g id="LINE-146"><line class="cls-7" x1="44.46" y1="613.22" x2="41.59" y2="593.58"/></g><g id="LINE-147"><line class="cls-7" x1="42.98" y1="582.88" x2="42.98" y2="592.97"/></g><g id="CIRCLE-25"><circle class="cls-7" cx="47.4" cy="585.07" r=".84"/></g><g id="ARC-261"><path class="cls-7" d="m41.59,592.36c-.06.4-.06.82,0,1.22"/></g><g id="ARC-262"><path class="cls-7" d="m61.42,590.34c-.21.86-.32,1.75-.32,2.64"/></g><g id="ARC-263"><path class="cls-7" d="m56.42,584.49c-1.69,2.5-2.56,5.47-2.48,8.48"/></g><g id="ARC-264"><path class="cls-7" d="m55.42,583.91c-1.99,2.59-2.99,5.8-2.85,9.06"/></g><g id="LINE-148"><line class="cls-7" x1="62.75" y1="589.15" x2="66.71" y2="588.61"/></g><g id="ARC-265"><path class="cls-7" d="m62.75,589.15c-.64.09-1.17.56-1.32,1.19"/></g><g id="ARC-266"><path class="cls-7" d="m68.62,589.09c-.55-.4-1.24-.58-1.91-.48"/></g><g id="ARC-267"><path class="cls-7" d="m61.11,592.97c0,.89.11,1.77.32,2.64"/></g><g id="LINE-149"><line class="cls-7" x1="62.75" y1="596.8" x2="66.71" y2="597.34"/></g><g id="ARC-268"><path class="cls-7" d="m61.42,595.61c.15.63.68,1.1,1.32,1.19"/></g><g id="LWPOLYLINE-24"><path class="cls-7" d="m69.22,594.24c-.11,0-.21-.03-.31-.09-.12-.07-.22-.17-.3-.28-.08-.12-.14-.25-.18-.39-.05-.16-.07-.33-.07-.5,0-.17.02-.34.07-.5.04-.14.1-.27.18-.39.08-.11.18-.21.3-.28.09-.06.2-.09.31-.09s.21.03.31.09c.12.07.22.17.3.28s.14.25.18.39c.05.16.07.33.07.5,0,.17-.02.34-.07.5-.04.14-.1.27-.18.39s-.18.21-.3.28c-.09.06-.2.09-.31.09Z"/></g><g id="ARC-269"><path class="cls-7" d="m66.71,597.34c.68.09,1.36-.08,1.91-.48"/></g><g id="LINE-150"><line class="cls-7" x1="44.46" y1="613.22" x2="44.46" y2="615.85"/></g><g id="ARC-270"><path class="cls-7" d="m40.25,620.07c2.33,0,4.22-1.89,4.22-4.22"/></g><g id="ARC-271"><path class="cls-7" d="m44.45,616.14c1.17.06,2.35,0,3.51-.21"/></g><g id="ARC-272"><path class="cls-7" d="m56.42,601.46c2.02,2.1,4.69,3.45,7.58,3.84"/></g><g id="ARC-273"><path class="cls-7" d="m55.42,602.04c2.17,2.23,5.03,3.66,8.11,4.08"/></g><g id="ARC-274"><path class="cls-7" d="m86,601.56c2.34-2.27,3.73-5.34,3.88-8.59"/></g><g id="ARC-275"><path class="cls-7" d="m85.36,601.2c2.27-2.15,3.63-5.1,3.78-8.22"/></g><g id="ARC-276"><path class="cls-7" d="m89.74,603.72c2.72-2.94,4.3-6.75,4.46-10.75"/></g><g id="ARC-277"><path class="cls-7" d="m90.29,604.04c2.78-3.03,4.39-6.96,4.55-11.07"/></g><g id="ARC-278"><path class="cls-7" d="m94.2,592.97c-.16-4-1.74-7.81-4.46-10.75"/></g><g id="ARC-279"><path class="cls-7" d="m94.83,592.97c-.16-4.11-1.77-8.03-4.55-11.07"/></g><g id="ARC-280"><path class="cls-7" d="m89.88,592.97c-.16-3.25-1.54-6.32-3.88-8.59"/></g><g id="ARC-281"><path class="cls-7" d="m89.14,592.97c-.16-3.12-1.51-6.07-3.78-8.22"/></g><g id="ARC-282"><path class="cls-7" d="m85.36,584.75c-2.07-1.87-4.6-3.16-7.34-3.74"/></g><g id="LINE-151"><line class="cls-7" x1="71.12" y1="592.97" x2="71.12" y2="592.97"/></g><g id="LINE-152"><line class="cls-7" x1="71.12" y1="592.97" x2="71.12" y2="592.97"/></g><g id="LINE-153"><line class="cls-7" x1="71.12" y1="592.97" x2="71.12" y2="592.97"/></g><g id="LINE-154"><line class="cls-7" x1="71.12" y1="592.97" x2="71.12" y2="592.97"/></g><g id="LINE-155"><line class="cls-7" x1="71.12" y1="592.97" x2="71.12" y2="592.97"/></g><g id="LINE-156"><line class="cls-7" x1="71.12" y1="592.97" x2="71.12" y2="592.97"/></g><g id="LINE-157"><line class="cls-7" x1="71.12" y1="592.97" x2="71.12" y2="592.97"/></g><g id="LINE-158"><line class="cls-7" x1="71.12" y1="592.97" x2="71.12" y2="592.97"/></g><g id="ARC-283"><path class="cls-7" d="m75.94,610.46c1.56-.26,3.11-.65,4.61-1.15"/></g><g id="ARC-284"><path class="cls-7" d="m76.12,611.07c1.61-.28,3.2-.68,4.75-1.21"/></g><g id="ARC-285"><path class="cls-7" d="m71.12,606.57c2.46-.03,4.9-.36,7.27-1"/></g><g id="ARC-286"><path class="cls-7" d="m71.12,605.83c2.33-.03,4.65-.33,6.9-.9"/></g><g id="ARC-287"><path class="cls-7" d="m80.55,609.31c3.49-1.04,6.66-2.96,9.19-5.59"/></g><g id="ARC-288"><path class="cls-7" d="m78.02,604.93c2.73-.57,5.26-1.86,7.34-3.74"/></g><g id="ARC-289"><path class="cls-7" d="m78.39,605.57c2.84-.64,5.47-2.02,7.61-4.01"/></g><g id="ARC-290"><path class="cls-7" d="m80.87,609.86c3.59-1.09,6.84-3.1,9.42-5.82"/></g><g id="LINE-159"><line class="cls-7" x1="24.9" y1="511.31" x2="40.25" y2="511.31"/></g><g id="LINE-160"><line class="cls-7" x1="24.9" y1="457.1" x2="40.25" y2="457.1"/></g><g id="LINE-161"><line class="cls-7" x1="20.69" y1="461.31" x2="20.69" y2="507.09"/></g><g id="ARC-291"><path class="cls-7" d="m24.9,457.1c-2.33,0-4.22,1.89-4.22,4.22"/></g><g id="ARC-292"><path class="cls-7" d="m20.69,507.09c0,2.33,1.89,4.22,4.22,4.22"/></g><g id="ARC-293"><path class="cls-7" d="m78.02,472.26c-2.26-.57-4.57-.87-6.9-.9"/></g><g id="ARC-294"><path class="cls-7" d="m71.12,471.36c-2.38.01-4.76.19-7.11.54"/></g><g id="ARC-295"><path class="cls-7" d="m64,471.89c-2.89.39-5.56,1.74-7.58,3.84"/></g><g id="ARC-296"><path class="cls-7" d="m63.53,471.07c-3.08.42-5.94,1.85-8.11,4.08"/></g><g id="LINE-162"><line class="cls-7" x1="41.59" y1="483.6" x2="44.46" y2="463.95"/></g><g id="ARC-297"><path class="cls-7" d="m90.29,473.15c-2.58-2.72-5.83-4.73-9.42-5.82"/></g><g id="ARC-298"><path class="cls-7" d="m89.74,473.46c-2.53-2.63-5.69-4.55-9.19-5.59"/></g><g id="ARC-299"><path class="cls-7" d="m86,475.62c-2.14-1.98-4.76-3.36-7.61-4.01"/></g><g id="ARC-300"><path class="cls-7" d="m71.12,470.62c-2.54-.06-5.08.09-7.59.45"/></g><g id="LINE-163"><line class="cls-7" x1="44.46" y1="461.41" x2="75.94" y2="466.72"/></g><g id="LINE-164"><line class="cls-7" x1="76.12" y1="466.12" x2="47.96" y2="461.26"/></g><g id="LINE-165"><line class="cls-7" x1="44.46" y1="461.31" x2="44.46" y2="463.95"/></g><g id="ARC-301"><path class="cls-7" d="m44.46,461.31c0-2.33-1.89-4.22-4.22-4.22"/></g><g id="ARC-302"><path class="cls-7" d="m47.96,461.26c-1.16-.2-2.33-.27-3.51-.21"/></g><g id="ARC-303"><path class="cls-7" d="m78.39,471.62c-2.37-.64-4.82-.97-7.27-1"/></g><g id="ARC-304"><path class="cls-7" d="m80.87,467.33c-1.55-.53-3.14-.93-4.75-1.21"/></g><g id="ARC-305"><path class="cls-7" d="m80.55,467.88c-1.51-.5-3.05-.89-4.61-1.15"/></g><g id="ARC-306"><path class="cls-7" d="m68.62,488.1c1.24-.91,1.97-2.35,1.97-3.88"/></g><g id="ARC-307"><path class="cls-7" d="m70.59,484.21c0-1.53-.73-2.98-1.97-3.88"/></g><g id="ARC-308"><path class="cls-7" d="m64,496.54c2.36.34,4.73.52,7.11.54"/></g><g id="ARC-309"><path class="cls-7" d="m63.53,497.36c2.51.36,5.05.52,7.59.45"/></g><g id="LINE-166"><line class="cls-7" x1="44.46" y1="507.02" x2="75.94" y2="501.7"/></g><g id="LINE-167"><line class="cls-7" x1="76.12" y1="502.31" x2="47.96" y2="507.17"/></g><g id="LINE-168"><line class="cls-7" x1="42.98" y1="494.3" x2="42.98" y2="484.21"/></g><g id="CIRCLE-26"><circle class="cls-7" cx="47.4" cy="492.12" r=".84"/></g><g id="ARC-310"><path class="cls-7" d="m53.94,484.21c-.07,3.02.8,5.98,2.48,8.48"/></g><g id="ARC-311"><path class="cls-7" d="m52.57,484.21c-.14,3.26.86,6.47,2.85,9.06"/></g><g id="LINE-169"><line class="cls-7" x1="44.46" y1="504.46" x2="41.59" y2="484.82"/></g><g id="LINE-170"><line class="cls-7" x1="42.98" y1="474.12" x2="42.98" y2="484.21"/></g><g id="CIRCLE-27"><circle class="cls-7" cx="47.4" cy="476.31" r=".84"/></g><g id="ARC-312"><path class="cls-7" d="m41.59,483.6c-.06.4-.06.82,0,1.22"/></g><g id="ARC-313"><path class="cls-7" d="m61.42,481.58c-.21.86-.32,1.75-.32,2.64"/></g><g id="ARC-314"><path class="cls-7" d="m56.42,475.73c-1.69,2.5-2.56,5.47-2.48,8.48"/></g><g id="ARC-315"><path class="cls-7" d="m55.42,475.15c-1.99,2.59-2.99,5.8-2.85,9.06"/></g><g id="LINE-171"><line class="cls-7" x1="62.75" y1="480.39" x2="66.71" y2="479.85"/></g><g id="ARC-316"><path class="cls-7" d="m62.75,480.39c-.64.09-1.17.56-1.32,1.19"/></g><g id="ARC-317"><path class="cls-7" d="m68.62,480.33c-.55-.4-1.24-.58-1.91-.48"/></g><g id="ARC-318"><path class="cls-7" d="m61.11,484.21c0,.89.11,1.77.32,2.64"/></g><g id="LINE-172"><line class="cls-7" x1="62.75" y1="488.04" x2="66.71" y2="488.58"/></g><g id="ARC-319"><path class="cls-7" d="m61.42,486.85c.15.63.68,1.1,1.32,1.19"/></g><g id="LWPOLYLINE-25"><path class="cls-7" d="m69.22,485.48c-.11,0-.21-.03-.31-.09-.12-.07-.22-.17-.3-.28-.08-.12-.14-.25-.18-.39-.05-.16-.07-.33-.07-.5,0-.17.02-.34.07-.5.04-.14.1-.27.18-.39.08-.11.18-.21.3-.28.09-.06.2-.09.31-.09s.21.03.31.09c.12.07.22.17.3.28s.14.25.18.39c.05.16.07.33.07.5,0,.17-.02.34-.07.5-.04.14-.1.27-.18.39s-.18.21-.3.28c-.09.06-.2.09-.31.09Z"/></g><g id="ARC-320"><path class="cls-7" d="m66.71,488.58c.68.09,1.36-.08,1.91-.48"/></g><g id="LINE-173"><line class="cls-7" x1="44.46" y1="504.46" x2="44.46" y2="507.09"/></g><g id="ARC-321"><path class="cls-7" d="m40.25,511.31c2.33,0,4.22-1.89,4.22-4.22"/></g><g id="ARC-322"><path class="cls-7" d="m44.45,507.38c1.17.06,2.35,0,3.51-.21"/></g><g id="ARC-323"><path class="cls-7" d="m56.42,492.7c2.02,2.1,4.69,3.45,7.58,3.84"/></g><g id="ARC-324"><path class="cls-7" d="m55.42,493.28c2.17,2.23,5.03,3.66,8.11,4.08"/></g><g id="ARC-325"><path class="cls-7" d="m86,492.8c2.34-2.27,3.73-5.34,3.88-8.59"/></g><g id="ARC-326"><path class="cls-7" d="m85.36,492.43c2.27-2.15,3.63-5.1,3.78-8.22"/></g><g id="ARC-327"><path class="cls-7" d="m89.74,494.96c2.72-2.94,4.3-6.75,4.46-10.75"/></g><g id="ARC-328"><path class="cls-7" d="m90.29,495.28c2.78-3.03,4.39-6.96,4.55-11.07"/></g><g id="ARC-329"><path class="cls-7" d="m94.2,484.21c-.16-4-1.74-7.81-4.46-10.75"/></g><g id="ARC-330"><path class="cls-7" d="m94.83,484.21c-.16-4.11-1.77-8.03-4.55-11.07"/></g><g id="ARC-331"><path class="cls-7" d="m89.88,484.21c-.16-3.25-1.54-6.32-3.88-8.59"/></g><g id="ARC-332"><path class="cls-7" d="m89.14,484.21c-.16-3.12-1.51-6.07-3.78-8.22"/></g><g id="ARC-333"><path class="cls-7" d="m85.36,475.99c-2.07-1.87-4.6-3.16-7.34-3.74"/></g><g id="LINE-174"><line class="cls-7" x1="71.12" y1="484.21" x2="71.12" y2="484.21"/></g><g id="LINE-175"><line class="cls-7" x1="71.12" y1="484.21" x2="71.12" y2="484.21"/></g><g id="LINE-176"><line class="cls-7" x1="71.12" y1="484.21" x2="71.12" y2="484.21"/></g><g id="LINE-177"><line class="cls-7" x1="71.12" y1="484.21" x2="71.12" y2="484.21"/></g><g id="LINE-178"><line class="cls-7" x1="71.12" y1="484.21" x2="71.12" y2="484.21"/></g><g id="LINE-179"><line class="cls-7" x1="71.12" y1="484.21" x2="71.12" y2="484.21"/></g><g id="LINE-180"><line class="cls-7" x1="71.12" y1="484.21" x2="71.12" y2="484.21"/></g><g id="LINE-181"><line class="cls-7" x1="71.12" y1="484.21" x2="71.12" y2="484.21"/></g><g id="ARC-334"><path class="cls-7" d="m75.94,501.7c1.56-.26,3.11-.65,4.61-1.15"/></g><g id="ARC-335"><path class="cls-7" d="m76.12,502.31c1.61-.28,3.2-.68,4.75-1.21"/></g><g id="ARC-336"><path class="cls-7" d="m71.12,497.81c2.46-.03,4.9-.36,7.27-1"/></g><g id="ARC-337"><path class="cls-7" d="m71.12,497.07c2.33-.03,4.65-.33,6.9-.9"/></g><g id="ARC-338"><path class="cls-7" d="m80.55,500.55c3.49-1.04,6.66-2.96,9.19-5.59"/></g><g id="ARC-339"><path class="cls-7" d="m78.02,496.17c2.73-.57,5.26-1.86,7.34-3.74"/></g><g id="ARC-340"><path class="cls-7" d="m78.39,496.81c2.84-.64,5.47-2.02,7.61-4.01"/></g><g id="ARC-341"><path class="cls-7" d="m80.87,501.1c3.59-1.09,6.84-3.1,9.42-5.82"/></g><g id="LINE-182"><line class="cls-7" x1="318.22" y1="473.31" x2="326.33" y2="473.31"/></g><g id="ARC-342"><path class="cls-7" d="m314.66,471.92c.97.89,2.24,1.39,3.56,1.39"/></g><g id="ARC-343"><path class="cls-7" d="m311.44,467.5c.77,1.67,1.86,3.18,3.22,4.42"/></g><g id="ARC-344"><path class="cls-7" d="m311.44,467.5c-1.76-4.44-6.1-7.32-10.88-7.23"/></g><g id="ARC-345"><path class="cls-7" d="m300.14,449.44c-3,0-5.43,2.43-5.43,5.43,0,3,2.43,5.43,5.43,5.43.14,0,.28,0,.42-.02"/></g><g id="ARC-346"><path class="cls-7" d="m300.14,449.44c4.93.28,9.48-2.62,11.3-7.21"/></g><g id="ARC-347"><path class="cls-7" d="m314.66,437.81c-1.36,1.24-2.45,2.75-3.22,4.42"/></g><g id="ARC-348"><path class="cls-7" d="m318.22,436.42c-1.32,0-2.59.5-3.56,1.39"/></g><g id="LINE-183"><line class="cls-7" x1="326.33" y1="436.42" x2="318.22" y2="436.42"/></g><g id="LINE-184"><line class="cls-7" x1="321.06" y1="473.31" x2="321.06" y2="436.42"/></g><g id="CIRCLE-28"><circle class="cls-7" cx="316.18" cy="454.86" r="1.47"/></g><g id="CIRCLE-29"><circle class="cls-7" cx="323.66" cy="454.86" r="2.12"/></g><g id="LWPOLYLINE-26"><polyline class="cls-7" points="324.47 452.91 324.47 448.78 322.93 448.78 322.93 452.88"/></g><g id="CIRCLE-30"><circle class="cls-7" cx="323.66" cy="454.86" r="1.06"/></g><g id="LWPOLYLINE-27"><path class="cls-7" d="m321.06,439.06h-2.84c-.66,0-1.3.25-1.78.69-1.08.99-1.96,2.19-2.58,3.52-2.25,5.57-7.78,9.1-13.78,8.8-1.54.03-2.77,1.31-2.73,2.85s1.31,2.77,2.85,2.73c.07,0,.14,0,.22-.01,5.88-.16,11.24,3.36,13.44,8.81.62,1.33,1.5,2.53,2.58,3.52.49.45,1.12.69,1.78.69h2.84"/></g><g id="LINE-185"><line class="cls-7" x1="318.22" y1="410.07" x2="326.33" y2="410.07"/></g><g id="ARC-349"><path class="cls-7" d="m314.66,408.68c.97.89,2.24,1.39,3.56,1.39"/></g><g id="ARC-350"><path class="cls-7" d="m311.44,404.26c.77,1.67,1.86,3.18,3.22,4.42"/></g><g id="ARC-351"><path class="cls-7" d="m311.44,404.26c-1.76-4.44-6.1-7.32-10.88-7.23"/></g><g id="ARC-352"><path class="cls-7" d="m300.14,386.2c-3,0-5.43,2.43-5.43,5.43,0,3,2.43,5.43,5.43,5.43.14,0,.28,0,.42-.02"/></g><g id="ARC-353"><path class="cls-7" d="m300.14,386.2c4.93.28,9.48-2.62,11.3-7.21"/></g><g id="ARC-354"><path class="cls-7" d="m314.66,374.57c-1.36,1.24-2.45,2.75-3.22,4.42"/></g><g id="ARC-355"><path class="cls-7" d="m318.22,373.18c-1.32,0-2.59.5-3.56,1.39"/></g><g id="LINE-186"><line class="cls-7" x1="326.33" y1="373.18" x2="318.22" y2="373.18"/></g><g id="LINE-187"><line class="cls-7" x1="321.06" y1="410.07" x2="321.06" y2="373.18"/></g><g id="CIRCLE-31"><circle class="cls-7" cx="316.18" cy="391.63" r="1.47"/></g><g id="CIRCLE-32"><circle class="cls-7" cx="323.66" cy="391.63" r="2.12"/></g><g id="LWPOLYLINE-28"><polyline class="cls-7" points="324.47 389.67 324.47 385.55 322.93 385.55 322.93 389.64"/></g><g id="CIRCLE-33"><circle class="cls-7" cx="323.66" cy="391.63" r="1.06"/></g><g id="LWPOLYLINE-29"><path class="cls-7" d="m321.06,375.82h-2.84c-.66,0-1.3.25-1.78.69-1.08.99-1.96,2.19-2.58,3.52-2.25,5.57-7.78,9.1-13.78,8.8-1.54.03-2.77,1.31-2.73,2.85s1.31,2.77,2.85,2.73c.07,0,.14,0,.22-.01,5.88-.16,11.24,3.36,13.44,8.81.62,1.33,1.5,2.53,2.58,3.52.49.45,1.12.69,1.78.69h2.84"/></g><g id="LINE-188"><line class="cls-7" x1="350.25" y1="264.38" x2="342.14" y2="264.38"/></g><g id="ARC-356"><path class="cls-7" d="m353.82,262.99c-.97.89-2.24,1.39-3.56,1.39"/></g><g id="ARC-357"><path class="cls-7" d="m357.04,258.58c-.77,1.67-1.86,3.18-3.22,4.42"/></g><g id="ARC-358"><path class="cls-7" d="m357.04,258.58c1.76-4.44,6.1-7.32,10.88-7.23"/></g><g id="ARC-359"><path class="cls-7" d="m368.33,240.51c.14,0,.28,0,.42.02,2.99.23,5.22,2.84,4.99,5.83s-2.84,5.22-5.83,4.99"/></g><g id="ARC-360"><path class="cls-7" d="m368.33,240.51c-4.93.28-9.48-2.62-11.3-7.21"/></g><g id="ARC-361"><path class="cls-7" d="m353.82,228.88c1.36,1.24,2.45,2.75,3.22,4.42"/></g><g id="ARC-362"><path class="cls-7" d="m350.25,227.49c1.32,0,2.59.5,3.56,1.39"/></g><g id="LINE-189"><line class="cls-7" x1="342.14" y1="227.49" x2="350.25" y2="227.49"/></g><g id="LINE-190"><line class="cls-7" x1="347.41" y1="264.38" x2="347.41" y2="227.49"/></g><g id="CIRCLE-34"><circle class="cls-7" cx="352.29" cy="245.94" r="1.47"/></g><g id="CIRCLE-35"><circle class="cls-7" cx="344.81" cy="245.94" r="2.12"/></g><g id="LWPOLYLINE-30"><polyline class="cls-7" points="344.01 243.98 344.01 239.86 345.55 239.86 345.55 243.95"/></g><g id="CIRCLE-36"><circle class="cls-7" cx="344.81" cy="245.94" r="1.06"/></g><g id="LWPOLYLINE-31"><path class="cls-7" d="m347.41,230.13h2.84c.66,0,1.3.25,1.78.69,1.08.99,1.96,2.19,2.58,3.52,2.25,5.57,7.78,9.1,13.78,8.8.07,0,.14,0,.22.01,1.53.15,2.66,1.52,2.5,3.05s-1.52,2.66-3.05,2.5c-5.88-.16-11.24,3.36-13.44,8.81-.62,1.33-1.5,2.53-2.58,3.52-.49.45-1.12.69-1.78.69h-2.84"/></g><g id="LINE-191"><line class="cls-7" x1="350.25" y1="201.15" x2="342.14" y2="201.15"/></g><g id="ARC-363"><path class="cls-7" d="m353.82,199.76c-.97.89-2.24,1.39-3.56,1.39"/></g><g id="ARC-364"><path class="cls-7" d="m357.04,195.34c-.77,1.67-1.86,3.18-3.22,4.42"/></g><g id="ARC-365"><path class="cls-7" d="m357.04,195.34c1.76-4.44,6.1-7.32,10.88-7.23"/></g><g id="ARC-366"><path class="cls-7" d="m368.33,177.27c.14,0,.28,0,.42.02,2.99.23,5.22,2.84,4.99,5.83s-2.84,5.22-5.83,4.99"/></g><g id="ARC-367"><path class="cls-7" d="m368.33,177.27c-4.93.28-9.48-2.62-11.3-7.21"/></g><g id="ARC-368"><path class="cls-7" d="m353.82,165.65c1.36,1.24,2.45,2.75,3.22,4.42"/></g><g id="ARC-369"><path class="cls-7" d="m350.25,164.26c1.32,0,2.59.5,3.56,1.39"/></g><g id="LINE-192"><line class="cls-7" x1="342.14" y1="164.26" x2="350.25" y2="164.26"/></g><g id="LINE-193"><line class="cls-7" x1="347.41" y1="201.15" x2="347.41" y2="164.26"/></g><g id="CIRCLE-37"><circle class="cls-7" cx="352.29" cy="182.7" r="1.47"/></g><g id="CIRCLE-38"><circle class="cls-7" cx="344.81" cy="182.7" r="2.12"/></g><g id="LWPOLYLINE-32"><polyline class="cls-7" points="344.01 180.74 344.01 176.62 345.55 176.62 345.55 180.72"/></g><g id="CIRCLE-39"><circle class="cls-7" cx="344.81" cy="182.7" r="1.06"/></g><g id="LWPOLYLINE-33"><path class="cls-7" d="m347.41,166.89h2.84c.66,0,1.3.25,1.78.69,1.08.99,1.96,2.19,2.58,3.52,2.25,5.57,7.78,9.1,13.78,8.8.07,0,.14,0,.22.01,1.53.15,2.66,1.52,2.5,3.05s-1.52,2.66-3.05,2.5c-5.88-.16-11.24,3.36-13.44,8.81-.62,1.33-1.5,2.53-2.58,3.52-.49.45-1.12.69-1.78.69h-2.84"/></g><g id="LINE-194"><line class="cls-7" x1="350.25" y1="324.44" x2="342.14" y2="324.44"/></g><g id="ARC-370"><path class="cls-7" d="m353.82,323.05c-.97.89-2.24,1.39-3.56,1.39"/></g><g id="ARC-371"><path class="cls-7" d="m357.04,318.63c-.77,1.67-1.86,3.18-3.22,4.42"/></g><g id="ARC-372"><path class="cls-7" d="m357.04,318.63c1.76-4.44,6.1-7.32,10.88-7.23"/></g><g id="ARC-373"><path class="cls-7" d="m368.33,300.57c.14,0,.28,0,.42.02,2.99.23,5.22,2.84,4.99,5.83s-2.84,5.22-5.83,4.99"/></g><g id="ARC-374"><path class="cls-7" d="m368.33,300.57c-4.93.28-9.48-2.62-11.3-7.21"/></g><g id="ARC-375"><path class="cls-7" d="m353.82,288.94c1.36,1.24,2.45,2.75,3.22,4.42"/></g><g id="ARC-376"><path class="cls-7" d="m350.25,287.55c1.32,0,2.59.5,3.56,1.39"/></g><g id="LINE-195"><line class="cls-7" x1="342.14" y1="287.55" x2="350.25" y2="287.55"/></g><g id="LINE-196"><line class="cls-7" x1="347.41" y1="324.44" x2="347.41" y2="287.55"/></g><g id="CIRCLE-40"><circle class="cls-7" cx="352.29" cy="305.99" r="1.47"/></g><g id="CIRCLE-41"><circle class="cls-7" cx="344.81" cy="305.99" r="2.12"/></g><g id="LWPOLYLINE-34"><polyline class="cls-7" points="344.01 304.04 344.01 299.91 345.55 299.91 345.55 304.01"/></g><g id="CIRCLE-42"><circle class="cls-7" cx="344.81" cy="305.99" r="1.06"/></g><g id="LWPOLYLINE-35"><path class="cls-7" d="m347.41,290.18h2.84c.66,0,1.3.25,1.78.69,1.08.99,1.96,2.19,2.58,3.52,2.25,5.57,7.78,9.1,13.78,8.8.07,0,.14,0,.22.01,1.53.15,2.66,1.52,2.5,3.05s-1.52,2.66-3.05,2.5c-5.88-.16-11.24,3.36-13.44,8.81-.62,1.33-1.5,2.53-2.58,3.52-.49.45-1.12.69-1.78.69h-2.84"/></g><g id="LINE-197"><line class="cls-7" x1="350.25" y1="138.3" x2="342.14" y2="138.3"/></g><g id="ARC-377"><path class="cls-7" d="m353.82,136.92c-.97.89-2.24,1.39-3.56,1.39"/></g><g id="ARC-378"><path class="cls-7" d="m357.04,132.5c-.77,1.67-1.86,3.18-3.22,4.42"/></g><g id="ARC-379"><path class="cls-7" d="m357.04,132.5c1.76-4.44,6.1-7.32,10.88-7.23"/></g><g id="ARC-380"><path class="cls-7" d="m368.33,114.43c.14,0,.28,0,.42.02,2.99.23,5.22,2.84,4.99,5.83s-2.84,5.22-5.83,4.99"/></g><g id="ARC-381"><path class="cls-7" d="m368.33,114.43c-4.93.28-9.48-2.62-11.3-7.21"/></g><g id="ARC-382"><path class="cls-7" d="m353.82,102.8c1.36,1.24,2.45,2.75,3.22,4.42"/></g><g id="ARC-383"><path class="cls-7" d="m350.25,101.42c1.32,0,2.59.5,3.56,1.39"/></g><g id="LINE-198"><line class="cls-7" x1="342.14" y1="101.42" x2="350.25" y2="101.42"/></g><g id="LINE-199"><line class="cls-7" x1="347.41" y1="138.3" x2="347.41" y2="101.42"/></g><g id="CIRCLE-43"><circle class="cls-7" cx="352.29" cy="119.86" r="1.47"/></g><g id="CIRCLE-44"><circle class="cls-7" cx="344.81" cy="119.86" r="2.12"/></g><g id="LWPOLYLINE-36"><polyline class="cls-7" points="344.01 117.9 344.01 113.78 345.55 113.78 345.55 117.88"/></g><g id="CIRCLE-45"><circle class="cls-7" cx="344.81" cy="119.86" r="1.06"/></g><g id="LWPOLYLINE-37"><path class="cls-7" d="m347.41,104.05h2.84c.66,0,1.3.25,1.78.69,1.08.99,1.96,2.19,2.58,3.52,2.25,5.57,7.78,9.1,13.78,8.8.07,0,.14,0,.22.01,1.53.15,2.66,1.52,2.5,3.05s-1.52,2.66-3.05,2.5c-5.88-.16-11.24,3.36-13.44,8.81-.62,1.33-1.5,2.53-2.58,3.52-.49.45-1.12.69-1.78.69h-2.84"/></g><g id="LINE-200"><line class="cls-7" x1="350.25" y1="80.34" x2="342.14" y2="80.34"/></g><g id="ARC-384"><path class="cls-7" d="m353.82,78.95c-.97.89-2.24,1.39-3.56,1.39"/></g><g id="ARC-385"><path class="cls-7" d="m357.03,74.53c-.77,1.67-1.86,3.18-3.22,4.42"/></g><g id="ARC-386"><path class="cls-7" d="m357.03,74.53c1.76-4.44,6.1-7.32,10.88-7.23"/></g><g id="ARC-387"><path class="cls-7" d="m368.33,56.47c.14,0,.28,0,.42.02,2.99.23,5.22,2.84,4.99,5.83s-2.84,5.22-5.83,4.99"/></g><g id="ARC-388"><path class="cls-7" d="m368.33,56.47c-4.93.28-9.48-2.62-11.3-7.21"/></g><g id="ARC-389"><path class="cls-7" d="m353.82,44.84c1.36,1.24,2.45,2.75,3.22,4.42"/></g><g id="ARC-390"><path class="cls-7" d="m350.25,43.45c1.32,0,2.59.5,3.56,1.39"/></g><g id="LINE-201"><line class="cls-7" x1="342.14" y1="43.45" x2="350.25" y2="43.45"/></g><g id="LINE-202"><line class="cls-7" x1="347.41" y1="80.34" x2="347.41" y2="43.45"/></g><g id="CIRCLE-46"><circle class="cls-7" cx="352.29" cy="61.89" r="1.47"/></g><g id="CIRCLE-47"><circle class="cls-7" cx="344.81" cy="61.89" r="2.12"/></g><g id="LWPOLYLINE-38"><polyline class="cls-7" points="344.01 59.94 344.01 55.81 345.55 55.81 345.55 59.91"/></g><g id="CIRCLE-48"><circle class="cls-7" cx="344.81" cy="61.89" r="1.06"/></g><g id="LWPOLYLINE-39"><path class="cls-7" d="m347.41,46.08h2.84c.66,0,1.3.25,1.78.69,1.08.99,1.96,2.19,2.58,3.52,2.25,5.57,7.78,9.1,13.78,8.8.07,0,.14,0,.22.01,1.53.15,2.66,1.52,2.5,3.05s-1.52,2.66-3.05,2.5c-5.88-.16-11.24,3.36-13.44,8.81-.62,1.33-1.5,2.53-2.58,3.52-.49.45-1.12.69-1.78.69h-2.84"/></g><g id="LINE-203"><line class="cls-7" x1="350.25" y1="473.31" x2="342.14" y2="473.31"/></g><g id="ARC-391"><path class="cls-7" d="m353.82,471.92c-.97.89-2.24,1.39-3.56,1.39"/></g><g id="ARC-392"><path class="cls-7" d="m357.04,467.5c-.77,1.67-1.86,3.18-3.22,4.42"/></g><g id="ARC-393"><path class="cls-7" d="m357.04,467.5c1.76-4.44,6.1-7.32,10.88-7.23"/></g><g id="ARC-394"><path class="cls-7" d="m368.33,449.44c.14,0,.28,0,.42.02,2.99.23,5.22,2.84,4.99,5.83s-2.84,5.22-5.83,4.99"/></g><g id="ARC-395"><path class="cls-7" d="m368.33,449.44c-4.93.28-9.48-2.62-11.3-7.21"/></g><g id="ARC-396"><path class="cls-7" d="m353.82,437.81c1.36,1.24,2.45,2.75,3.22,4.42"/></g><g id="ARC-397"><path class="cls-7" d="m350.25,436.42c1.32,0,2.59.5,3.56,1.39"/></g><g id="LINE-204"><line class="cls-7" x1="342.14" y1="436.42" x2="350.25" y2="436.42"/></g><g id="LINE-205"><line class="cls-7" x1="347.41" y1="473.31" x2="347.41" y2="436.42"/></g><g id="CIRCLE-49"><circle class="cls-7" cx="352.29" cy="454.86" r="1.47"/></g><g id="CIRCLE-50"><circle class="cls-7" cx="344.81" cy="454.86" r="2.12"/></g><g id="LWPOLYLINE-40"><polyline class="cls-7" points="344.01 452.91 344.01 448.78 345.55 448.78 345.55 452.88"/></g><g id="CIRCLE-51"><circle class="cls-7" cx="344.81" cy="454.86" r="1.06"/></g><g id="LWPOLYLINE-41"><path class="cls-7" d="m347.41,439.06h2.84c.66,0,1.3.25,1.78.69,1.08.99,1.96,2.19,2.58,3.52,2.25,5.57,7.78,9.1,13.78,8.8.07,0,.14,0,.22.01,1.53.15,2.66,1.52,2.5,3.05s-1.52,2.66-3.05,2.5c-5.88-.16-11.24,3.36-13.44,8.81-.62,1.33-1.5,2.53-2.58,3.52-.49.45-1.12.69-1.78.69h-2.84"/></g><g id="LINE-206"><line class="cls-7" x1="350.25" y1="410.07" x2="342.14" y2="410.07"/></g><g id="ARC-398"><path class="cls-7" d="m353.82,408.68c-.97.89-2.24,1.39-3.56,1.39"/></g><g id="ARC-399"><path class="cls-7" d="m357.04,404.26c-.77,1.67-1.86,3.18-3.22,4.42"/></g><g id="ARC-400"><path class="cls-7" d="m357.04,404.26c1.76-4.44,6.1-7.32,10.88-7.23"/></g><g id="ARC-401"><path class="cls-7" d="m368.33,386.2c.14,0,.28,0,.42.02,2.99.23,5.22,2.84,4.99,5.83s-2.84,5.22-5.83,4.99"/></g><g id="ARC-402"><path class="cls-7" d="m368.33,386.2c-4.93.28-9.48-2.62-11.3-7.21"/></g><g id="ARC-403"><path class="cls-7" d="m353.82,374.57c1.36,1.24,2.45,2.75,3.22,4.42"/></g><g id="ARC-404"><path class="cls-7" d="m350.25,373.18c1.32,0,2.59.5,3.56,1.39"/></g><g id="LINE-207"><line class="cls-7" x1="342.14" y1="373.18" x2="350.25" y2="373.18"/></g><g id="LINE-208"><line class="cls-7" x1="347.41" y1="410.07" x2="347.41" y2="373.18"/></g><g id="CIRCLE-52"><circle class="cls-7" cx="352.29" cy="391.63" r="1.47"/></g><g id="CIRCLE-53"><circle class="cls-7" cx="344.81" cy="391.63" r="2.12"/></g><g id="LWPOLYLINE-42"><polyline class="cls-7" points="344.01 389.67 344.01 385.55 345.55 385.55 345.55 389.64"/></g><g id="CIRCLE-54"><circle class="cls-7" cx="344.81" cy="391.63" r="1.06"/></g><g id="LWPOLYLINE-43"><path class="cls-7" d="m347.41,375.82h2.84c.66,0,1.3.25,1.78.69,1.08.99,1.96,2.19,2.58,3.52,2.25,5.57,7.78,9.1,13.78,8.8.07,0,.14,0,.22.01,1.53.15,2.66,1.52,2.5,3.05s-1.52,2.66-3.05,2.5c-5.88-.16-11.24,3.36-13.44,8.81-.62,1.33-1.5,2.53-2.58,3.52-.49.45-1.12.69-1.78.69h-2.84"/></g><g id="ELLIPSE"><path class="cls-7" d="m560.03,257.08c-.52,11.52-7.92,20.72-17.19,21.36-10.06.7-18.66-8.87-19.23-21.36-.56-12.5,7.13-23.19,17.19-23.89s18.66,8.87,19.23,21.36"/></g><g id="ARC-405"><path class="cls-7" d="m569.6,254.55c.29.82.28,1.71,0,2.53"/></g><g id="LINE-209"><line class="cls-7" x1="558.38" y1="257.08" x2="569.59" y2="257.08"/></g><g id="LINE-210"><line class="cls-7" x1="558.38" y1="254.55" x2="569.6" y2="254.55"/></g><g id="ARC-406"><path class="cls-7" d="m554.24,256.42c-.24-.1-.38-.34-.35-.6"/></g><g id="ARC-407"><path class="cls-7" d="m553.89,255.81c-.03-.26.11-.5.35-.6"/></g><g id="LINE-211"><line class="cls-7" x1="558.38" y1="257.08" x2="554.24" y2="256.42"/></g><g id="LINE-212"><line class="cls-7" x1="558.38" y1="254.55" x2="554.24" y2="255.21"/></g><g id="ARC-408"><path class="cls-7" d="m566.06,254.55c.19-.29.45-.54.75-.72,1.12-.68,2.57-.33,3.25.79s.33,2.57-.79,3.25-2.57.33-3.25-.79"/></g><g id="ARC-409"><path class="cls-7" d="m556.33,256.86c-.3.8-.93,1.42-1.72,1.72-1.53.58-3.23-.2-3.81-1.72s.2-3.23,1.72-3.81,3.23.2,3.81,1.72"/></g><g id="ARC-410"><path class="cls-7" d="m555.83,256.67c-.25.65-.76,1.17-1.42,1.42-1.26.47-2.66-.16-3.13-1.42s.16-2.66,1.42-3.13,2.66.16,3.13,1.42"/></g><g id="ELLIPSE-2"><path class="cls-7" d="m560.03,192.65c-.52,11.52-7.92,20.72-17.19,21.36-10.06.7-18.66-8.87-19.23-21.36-.56-12.5,7.13-23.19,17.19-23.89s18.66,8.87,19.23,21.36"/></g><g id="ARC-411"><path class="cls-7" d="m569.6,190.12c.29.82.28,1.71,0,2.53"/></g><g id="LINE-213"><line class="cls-7" x1="558.38" y1="192.65" x2="569.59" y2="192.65"/></g><g id="LINE-214"><line class="cls-7" x1="558.38" y1="190.12" x2="569.6" y2="190.12"/></g><g id="ARC-412"><path class="cls-7" d="m554.24,191.99c-.24-.1-.38-.34-.35-.6"/></g><g id="ARC-413"><path class="cls-7" d="m553.89,191.38c-.03-.26.11-.5.35-.6"/></g><g id="LINE-215"><line class="cls-7" x1="558.38" y1="192.65" x2="554.24" y2="191.99"/></g><g id="LINE-216"><line class="cls-7" x1="558.38" y1="190.12" x2="554.24" y2="190.78"/></g><g id="ARC-414"><path class="cls-7" d="m566.06,190.12c.19-.29.45-.54.75-.72,1.12-.68,2.57-.33,3.25.79s.33,2.57-.79,3.25-2.57.33-3.25-.79"/></g><g id="ARC-415"><path class="cls-7" d="m556.33,192.43c-.3.8-.93,1.42-1.72,1.72-1.53.58-3.23-.2-3.81-1.72s.2-3.23,1.72-3.81,3.23.2,3.81,1.72"/></g><g id="ARC-416"><path class="cls-7" d="m555.83,192.24c-.25.65-.76,1.17-1.42,1.42-1.26.47-2.66-.16-3.13-1.42s.16-2.66,1.42-3.13,2.66.16,3.13,1.42"/></g><g id="ELLIPSE-3"><path class="cls-7" d="m560.03,128.98c-.52,11.52-7.92,20.72-17.19,21.36-10.06.7-18.66-8.87-19.23-21.36-.56-12.5,7.13-23.19,17.19-23.89s18.66,8.87,19.23,21.36"/></g><g id="ARC-417"><path class="cls-7" d="m569.6,126.45c.29.82.28,1.71,0,2.53"/></g><g id="LINE-217"><line class="cls-7" x1="558.38" y1="128.98" x2="569.59" y2="128.98"/></g><g id="LINE-218"><line class="cls-7" x1="558.38" y1="126.45" x2="569.6" y2="126.45"/></g><g id="ARC-418"><path class="cls-7" d="m554.24,128.32c-.24-.1-.38-.34-.35-.6"/></g><g id="ARC-419"><path class="cls-7" d="m553.89,127.71c-.03-.26.11-.5.35-.6"/></g><g id="LINE-219"><line class="cls-7" x1="558.38" y1="128.98" x2="554.24" y2="128.32"/></g><g id="LINE-220"><line class="cls-7" x1="558.38" y1="126.45" x2="554.24" y2="127.11"/></g><g id="ARC-420"><path class="cls-7" d="m566.06,126.45c.19-.29.45-.54.75-.72,1.12-.68,2.57-.33,3.25.79s.33,2.57-.79,3.25-2.57.33-3.25-.79"/></g><g id="ARC-421"><path class="cls-7" d="m556.33,128.76c-.3.8-.93,1.42-1.72,1.72-1.53.58-3.23-.2-3.81-1.72s.2-3.23,1.72-3.81,3.23.2,3.81,1.72"/></g><g id="ARC-422"><path class="cls-7" d="m555.83,128.57c-.25.65-.76,1.17-1.42,1.42-1.26.47-2.66-.16-3.13-1.42s.16-2.66,1.42-3.13,2.66.16,3.13,1.42"/></g><g id="ELLIPSE-4"><path class="cls-7" d="m560.03,64.51c-.52,11.52-7.92,20.72-17.19,21.36-10.06.7-18.66-8.87-19.23-21.36-.56-12.5,7.13-23.19,17.19-23.89s18.66,8.87,19.23,21.36"/></g><g id="ARC-423"><path class="cls-7" d="m569.6,61.98c.29.82.28,1.71,0,2.53"/></g><g id="LINE-221"><line class="cls-7" x1="558.38" y1="64.51" x2="569.59" y2="64.51"/></g><g id="LINE-222"><line class="cls-7" x1="558.38" y1="61.98" x2="569.6" y2="61.98"/></g><g id="ARC-424"><path class="cls-7" d="m554.24,63.84c-.24-.1-.38-.34-.35-.6"/></g><g id="ARC-425"><path class="cls-7" d="m553.89,63.24c-.03-.26.11-.5.35-.6"/></g><g id="LINE-223"><line class="cls-7" x1="558.38" y1="64.51" x2="554.24" y2="63.84"/></g><g id="LINE-224"><line class="cls-7" x1="558.38" y1="61.98" x2="554.24" y2="62.64"/></g><g id="ARC-426"><path class="cls-7" d="m566.06,61.98c.19-.29.45-.54.75-.72,1.12-.68,2.57-.33,3.25.79s.33,2.57-.79,3.25-2.57.33-3.25-.79"/></g><g id="ARC-427"><path class="cls-7" d="m556.33,64.28c-.3.8-.93,1.42-1.72,1.72-1.53.58-3.23-.2-3.81-1.72s.2-3.23,1.72-3.81,3.23.2,3.81,1.72"/></g><g id="ARC-428"><path class="cls-7" d="m555.83,64.1c-.25.65-.76,1.17-1.42,1.42-1.26.47-2.66-.16-3.13-1.42s.16-2.66,1.42-3.13,2.66.16,3.13,1.42"/></g><g id="ELLIPSE-5"><path class="cls-7" d="m560.03,322.62c-.52,11.52-7.92,20.72-17.19,21.36-10.06.7-18.66-8.87-19.23-21.36-.56-12.5,7.13-23.19,17.19-23.89s18.66,8.87,19.23,21.36"/></g><g id="ARC-429"><path class="cls-7" d="m569.6,320.09c.29.82.28,1.71,0,2.53"/></g><g id="LINE-225"><line class="cls-7" x1="558.38" y1="322.62" x2="569.59" y2="322.62"/></g><g id="LINE-226"><line class="cls-7" x1="558.38" y1="320.09" x2="569.6" y2="320.09"/></g><g id="ARC-430"><path class="cls-7" d="m554.24,321.95c-.24-.1-.38-.34-.35-.6"/></g><g id="ARC-431"><path class="cls-7" d="m553.89,321.35c-.03-.26.11-.5.35-.6"/></g><g id="LINE-227"><line class="cls-7" x1="558.38" y1="322.62" x2="554.24" y2="321.95"/></g><g id="LINE-228"><line class="cls-7" x1="558.38" y1="320.09" x2="554.24" y2="320.75"/></g><g id="ARC-432"><path class="cls-7" d="m566.06,320.09c.19-.29.45-.54.75-.72,1.12-.68,2.57-.33,3.25.79s.33,2.57-.79,3.25-2.57.33-3.25-.79"/></g><g id="ARC-433"><path class="cls-7" d="m556.33,322.39c-.3.8-.93,1.42-1.72,1.72-1.53.58-3.23-.2-3.81-1.72s.2-3.23,1.72-3.81,3.23.2,3.81,1.72"/></g><g id="ARC-434"><path class="cls-7" d="m555.83,322.21c-.25.65-.76,1.17-1.42,1.42-1.26.47-2.66-.16-3.13-1.42s.16-2.66,1.42-3.13,2.66.16,3.13,1.42"/></g><g id="ELLIPSE-6"><path class="cls-7" d="m560.03,521.45c-.52,11.52-7.92,20.72-17.19,21.36-10.06.7-18.66-8.87-19.23-21.36-.56-12.5,7.13-23.19,17.19-23.89,10.06-.7,18.66,8.87,19.23,21.36"/></g><g id="ARC-435"><path class="cls-7" d="m569.6,518.92c.29.82.28,1.71,0,2.53"/></g><g id="LINE-229"><line class="cls-7" x1="558.38" y1="521.45" x2="569.59" y2="521.45"/></g><g id="LINE-230"><line class="cls-7" x1="558.38" y1="518.92" x2="569.6" y2="518.92"/></g><g id="ARC-436"><path class="cls-7" d="m554.24,520.78c-.24-.1-.38-.34-.35-.6"/></g><g id="ARC-437"><path class="cls-7" d="m553.89,520.18c-.03-.26.11-.5.35-.6"/></g><g id="LINE-231"><line class="cls-7" x1="558.38" y1="521.45" x2="554.24" y2="520.78"/></g><g id="LINE-232"><line class="cls-7" x1="558.38" y1="518.92" x2="554.24" y2="519.58"/></g><g id="ARC-438"><path class="cls-7" d="m566.06,518.92c.19-.29.45-.54.75-.72,1.12-.68,2.57-.33,3.25.79s.33,2.57-.79,3.25-2.57.33-3.25-.79"/></g><g id="ARC-439"><path class="cls-7" d="m556.33,521.22c-.3.8-.93,1.42-1.72,1.72-1.53.58-3.23-.2-3.81-1.72s.2-3.23,1.72-3.81,3.23.2,3.81,1.72"/></g><g id="ARC-440"><path class="cls-7" d="m555.83,521.04c-.25.65-.76,1.17-1.42,1.42-1.26.47-2.66-.16-3.13-1.42s.16-2.66,1.42-3.13,2.66.16,3.13,1.42"/></g><g id="ELLIPSE-7"><path class="cls-7" d="m560.03,454.54c-.52,11.52-7.92,20.72-17.19,21.36-10.06.7-18.66-8.87-19.23-21.36-.56-12.5,7.13-23.19,17.19-23.89,10.06-.7,18.66,8.87,19.23,21.36"/></g><g id="ARC-441"><path class="cls-7" d="m569.6,452.01c.29.82.28,1.71,0,2.53"/></g><g id="LINE-233"><line class="cls-7" x1="558.38" y1="454.54" x2="569.59" y2="454.54"/></g><g id="LINE-234"><line class="cls-7" x1="558.38" y1="452.01" x2="569.6" y2="452.01"/></g><g id="ARC-442"><path class="cls-7" d="m554.24,453.87c-.24-.1-.38-.34-.35-.6"/></g><g id="ARC-443"><path class="cls-7" d="m553.89,453.27c-.03-.26.11-.5.35-.6"/></g><g id="LINE-235"><line class="cls-7" x1="558.38" y1="454.54" x2="554.24" y2="453.87"/></g><g id="LINE-236"><line class="cls-7" x1="558.38" y1="452.01" x2="554.24" y2="452.67"/></g><g id="ARC-444"><path class="cls-7" d="m566.06,452.01c.19-.29.45-.54.75-.72,1.12-.68,2.57-.33,3.25.79s.33,2.57-.79,3.25-2.57.33-3.25-.79"/></g><g id="ARC-445"><path class="cls-7" d="m556.33,454.31c-.3.8-.93,1.42-1.72,1.72-1.53.58-3.23-.2-3.81-1.72s.2-3.23,1.72-3.81,3.23.2,3.81,1.72"/></g><g id="ARC-446"><path class="cls-7" d="m555.83,454.13c-.25.65-.76,1.17-1.42,1.42-1.26.47-2.66-.16-3.13-1.42s.16-2.66,1.42-3.13,2.66.16,3.13,1.42"/></g><g id="ELLIPSE-8"><path class="cls-7" d="m560.03,387.01c-.52,11.52-7.92,20.72-17.19,21.36-10.06.7-18.66-8.87-19.23-21.36-.56-12.5,7.13-23.19,17.19-23.89,10.06-.7,18.66,8.87,19.23,21.36"/></g><g id="ARC-447"><path class="cls-7" d="m569.6,384.48c.29.82.28,1.71,0,2.53"/></g><g id="LINE-237"><line class="cls-7" x1="558.38" y1="387.01" x2="569.59" y2="387.01"/></g><g id="LINE-238"><line class="cls-7" x1="558.38" y1="384.48" x2="569.6" y2="384.48"/></g><g id="ARC-448"><path class="cls-7" d="m554.24,386.35c-.24-.1-.38-.34-.35-.6"/></g><g id="ARC-449"><path class="cls-7" d="m553.89,385.75c-.03-.26.11-.5.35-.6"/></g><g id="LINE-239"><line class="cls-7" x1="558.38" y1="387.01" x2="554.24" y2="386.35"/></g><g id="LINE-240"><line class="cls-7" x1="558.38" y1="384.48" x2="554.24" y2="385.15"/></g><g id="ARC-450"><path class="cls-7" d="m566.06,384.48c.19-.29.45-.54.75-.72,1.12-.68,2.57-.33,3.25.79s.33,2.57-.79,3.25-2.57.33-3.25-.79"/></g><g id="ARC-451"><path class="cls-7" d="m556.33,386.79c-.3.8-.93,1.42-1.72,1.72-1.53.58-3.23-.2-3.81-1.72s.2-3.23,1.72-3.81,3.23.2,3.81,1.72"/></g><g id="ARC-452"><path class="cls-7" d="m555.83,386.6c-.25.65-.76,1.17-1.42,1.42-1.26.47-2.66-.16-3.13-1.42s.16-2.66,1.42-3.13,2.66.16,3.13,1.42"/></g><g id="ELLIPSE-9"><path class="cls-7" d="m560.03,591.43c-.52,11.52-7.92,20.72-17.19,21.36-10.06.7-18.66-8.87-19.23-21.36-.56-12.5,7.13-23.19,17.19-23.89,10.06-.7,18.66,8.87,19.23,21.36"/></g><g id="ARC-453"><path class="cls-7" d="m569.6,588.9c.29.82.28,1.71,0,2.53"/></g><g id="LINE-241"><line class="cls-7" x1="558.38" y1="591.43" x2="569.59" y2="591.43"/></g><g id="LINE-242"><line class="cls-7" x1="558.38" y1="588.9" x2="569.6" y2="588.9"/></g><g id="ARC-454"><path class="cls-7" d="m554.24,590.77c-.24-.1-.38-.34-.35-.6"/></g><g id="ARC-455"><path class="cls-7" d="m553.89,590.17c-.03-.26.11-.5.35-.6"/></g><g id="LINE-243"><line class="cls-7" x1="558.38" y1="591.43" x2="554.24" y2="590.77"/></g><g id="LINE-244"><line class="cls-7" x1="558.38" y1="588.9" x2="554.24" y2="589.57"/></g><g id="ARC-456"><path class="cls-7" d="m566.06,588.9c.19-.29.45-.54.75-.72,1.12-.68,2.57-.33,3.25.79s.33,2.57-.79,3.25-2.57.33-3.25-.79"/></g><g id="ARC-457"><path class="cls-7" d="m556.33,591.21c-.3.8-.93,1.42-1.72,1.72-1.53.58-3.23-.2-3.81-1.72s.2-3.23,1.72-3.81,3.23.2,3.81,1.72"/></g><g id="ARC-458"><path class="cls-7" d="m555.83,591.03c-.25.65-.76,1.17-1.42,1.42-1.26.47-2.66-.16-3.13-1.42s.16-2.66,1.42-3.13,2.66.16,3.13,1.42"/></g><g id="ELLIPSE-10"><path class="cls-7" d="m432.86,38.31c11.52.52,20.72,7.92,21.36,17.19.7,10.06-8.87,18.66-21.36,19.23s-23.19-7.13-23.89-17.19c-.7-10.06,8.87-18.66,21.36-19.23"/></g><g id="ARC-459"><path class="cls-7" d="m430.34,28.74c.82-.29,1.71-.28,2.53,0"/></g><g id="LINE-245"><line class="cls-7" x1="432.86" y1="39.97" x2="432.86" y2="28.75"/></g><g id="LINE-246"><line class="cls-7" x1="430.34" y1="39.97" x2="430.34" y2="28.74"/></g><g id="ARC-460"><path class="cls-7" d="m432.2,44.11c-.1.24-.34.38-.6.35"/></g><g id="ARC-461"><path class="cls-7" d="m431.6,44.46c-.26.03-.5-.11-.6-.35"/></g><g id="LINE-247"><line class="cls-7" x1="432.86" y1="39.97" x2="432.2" y2="44.11"/></g><g id="LINE-248"><line class="cls-7" x1="430.34" y1="39.97" x2="431" y2="44.11"/></g><g id="ARC-462"><path class="cls-7" d="m430.34,32.29c-.29-.19-.54-.45-.72-.75-.68-1.12-.33-2.57.79-3.25s2.57-.33,3.25.79.33,2.57-.79,3.25"/></g><g id="ARC-463"><path class="cls-7" d="m432.64,42.02c.8.3,1.42.93,1.72,1.72.58,1.53-.2,3.23-1.72,3.81s-3.23-.2-3.81-1.72.2-3.23,1.72-3.81"/></g><g id="ARC-464"><path class="cls-7" d="m432.46,42.51c.65.25,1.17.76,1.42,1.42.47,1.26-.16,2.66-1.42,3.13s-2.66-.16-3.13-1.42.16-2.66,1.42-3.13"/></g><g id="LINE-249"><line class="cls-6" x1="20.69" y1="334.63" x2="157.7" y2="334.63"/></g><g id="LINE-250"><line class="cls-6" x1="20.69" y1="329.36" x2="152.43" y2="329.36"/></g><g id="LINE-251"><line class="cls-6" x1="157.7" y1="334.63" x2="157.7" y2="294.67"/></g><g id="LINE-252"><line class="cls-6" x1="152.43" y1="329.36" x2="152.43" y2="294.67"/></g><g id="LINE-253"><line class="cls-6" x1="152.43" y1="294.67" x2="157.7" y2="294.67"/></g><g id="LINE-254"><line class="cls-6" x1="20.69" y1="128.58" x2="152.43" y2="128.58"/></g><g id="LINE-255"><line class="cls-6" x1="20.69" y1="123.31" x2="152.43" y2="123.31"/></g><g id="LINE-256"><line class="cls-6" x1="157.7" y1="133.85" x2="157.7" y2="153.88"/></g><g id="LINE-257"><line class="cls-6" x1="152.43" y1="133.85" x2="152.43" y2="153.88"/></g><g id="LINE-258"><line class="cls-6" x1="157.7" y1="129.64" x2="157.7" y2="88.01"/></g><g id="LINE-259"><line class="cls-6" x1="152.43" y1="123.31" x2="152.43" y2="88.01"/></g><g id="LINE-260"><line class="cls-6" x1="152.43" y1="88.01" x2="157.7" y2="88.01"/></g><g id="LINE-261"><line class="cls-6" x1="157.7" y1="113.83" x2="157.7" y2="162.75"/></g><g id="LINE-262"><line class="cls-6" x1="152.43" y1="128.58" x2="152.43" y2="162.75"/></g><g id="LINE-263"><line class="cls-6" x1="152.43" y1="162.75" x2="157.7" y2="162.75"/></g><g id="LINE-264"><line class="cls-6" x1="20.69" y1="226.07" x2="157.7" y2="226.07"/></g><g id="LINE-265"><line class="cls-6" x1="20.69" y1="231.34" x2="157.7" y2="231.34"/></g><g id="LINE-266"><line class="cls-6" x1="157.7" y1="226.07" x2="157.7" y2="231.34"/></g><g id="LINE-267"><line class="cls-6" x1="157.7" y1="641.33" x2="157.7" y2="604.53"/></g><g id="LINE-268"><line class="cls-6" x1="152.43" y1="641.33" x2="152.43" y2="604.53"/></g><g id="LINE-269"><line class="cls-6" x1="152.43" y1="604.53" x2="157.7" y2="604.53"/></g><g id="LINE-270"><line class="cls-6" x1="20.69" y1="438.44" x2="152.43" y2="438.44"/></g><g id="LINE-271"><line class="cls-6" x1="20.69" y1="433.17" x2="152.43" y2="433.17"/></g><g id="LINE-272"><line class="cls-6" x1="157.7" y1="443.71" x2="157.7" y2="463.74"/></g><g id="LINE-273"><line class="cls-6" x1="152.43" y1="443.71" x2="152.43" y2="463.74"/></g><g id="LINE-274"><line class="cls-6" x1="157.7" y1="439.5" x2="157.7" y2="397.87"/></g><g id="LINE-275"><line class="cls-6" x1="152.43" y1="433.17" x2="152.43" y2="397.87"/></g><g id="LINE-276"><line class="cls-6" x1="152.43" y1="397.87" x2="157.7" y2="397.87"/></g><g id="LINE-277"><line class="cls-6" x1="157.7" y1="427.9" x2="157.7" y2="472.61"/></g><g id="LINE-278"><line class="cls-6" x1="152.43" y1="438.44" x2="152.43" y2="472.61"/></g><g id="LINE-279"><line class="cls-6" x1="152.43" y1="472.61" x2="157.7" y2="472.61"/></g><g id="LINE-280"><line class="cls-6" x1="20.69" y1="535.93" x2="157.7" y2="535.93"/></g><g id="LINE-281"><line class="cls-6" x1="20.69" y1="541.2" x2="157.7" y2="541.2"/></g><g id="LINE-282"><line class="cls-6" x1="157.7" y1="535.93" x2="157.7" y2="541.2"/></g><g id="LINE-283"><line class="cls-5" x1="157.7" y1="231.34" x2="157.7" y2="294.58"/></g><g id="LINE-284"><line class="cls-5" x1="157.7" y1="24.77" x2="157.7" y2="88.01"/></g><g id="LINE-285"><line class="cls-5" x1="157.7" y1="226.07" x2="157.7" y2="162.84"/></g><g id="LINE-286"><line class="cls-5" x1="157.7" y1="541.2" x2="157.7" y2="604.44"/></g><g id="LINE-287"><line class="cls-5" x1="157.7" y1="535.93" x2="157.7" y2="472.7"/></g><g id="LINE-288"><line class="cls-5" x1="157.7" y1="397.87" x2="157.7" y2="334.63"/></g><g id="LWPOLYLINE-44"><polygon class="cls-4" points="151.88 224.17 154.28 224.17 154.28 223.54 158.21 224.17 158.21 225.44 157.58 225.44 157.58 226.07 158.21 226.07 151.88 226.07 152.51 226.07 152.51 225.44 151.88 225.44 151.88 224.17"/></g><g id="LWPOLYLINE-45"><polygon class="cls-4" points="151.88 224.17 96.03 224.17 96.05 221.77 151.88 221.77 151.88 224.17"/></g><g id="LWPOLYLINE-46"><polygon class="cls-4" points="151.88 164.65 154.28 164.65 154.28 165.28 158.21 164.65 158.21 163.38 157.58 163.38 157.58 162.75 158.21 162.75 151.88 162.75 152.51 162.75 152.51 163.38 151.88 163.38 151.88 164.65"/></g><g id="ARC-465"><path class="cls-1" d="m96.03,224.17c0-.21,0-.42,0-.63,0-32.18,26.08-58.26,58.26-58.26"/></g><g id="LWPOLYLINE-47"><polygon class="cls-4" points="152 233.24 154.41 233.24 154.41 233.88 158.33 233.24 158.33 231.98 157.7 231.98 157.7 231.34 158.33 231.34 152 231.34 152.64 231.34 152.64 231.98 152 231.98 152 233.24"/></g><g id="LWPOLYLINE-48"><polygon class="cls-4" points="152 233.24 96.15 233.24 96.17 235.65 152 235.65 152 233.24"/></g><g id="LWPOLYLINE-49"><polygon class="cls-4" points="152 292.77 154.41 292.77 154.41 292.14 158.33 292.77 158.33 294.04 157.7 294.04 157.7 294.67 158.33 294.67 152 294.67 152.64 294.67 152.64 294.04 152 294.04 152 292.77"/></g><g id="ARC-466"><path class="cls-1" d="m96.15,233.24c-.35,32.18,25.45,58.54,57.62,58.89.21,0,.42,0,.63,0"/></g><g id="LWPOLYLINE-50"><polygon class="cls-4" points="151.37 26.58 153.78 26.58 153.78 27.21 157.7 26.58 157.7 25.31 157.07 25.31 157.07 24.68 157.7 24.68 151.37 24.68 152 24.68 152 25.31 151.37 25.31 151.37 26.58"/></g><g id="LWPOLYLINE-51"><polygon class="cls-4" points="151.37 26.58 95.52 26.58 95.54 28.99 151.37 28.99 151.37 26.58"/></g><g id="LWPOLYLINE-52"><polygon class="cls-4" points="151.37 86.11 153.78 86.11 153.78 85.47 157.7 86.11 157.7 87.37 157.07 87.37 157.07 88.01 157.7 88.01 151.37 88.01 152 88.01 152 87.37 151.37 87.37 151.37 86.11"/></g><g id="ARC-467"><path class="cls-1" d="m95.52,26.58c-.35,32.18,25.45,58.54,57.62,58.89.21,0,.42,0,.63,0"/></g><g id="LWPOLYLINE-53"><polygon class="cls-4" points="151.88 534.03 154.28 534.03 154.28 533.4 158.21 534.03 158.21 535.3 157.58 535.3 157.58 535.93 158.21 535.93 151.88 535.93 152.51 535.93 152.51 535.3 151.88 535.3 151.88 534.03"/></g><g id="LWPOLYLINE-54"><polygon class="cls-4" points="151.88 534.03 96.03 534.03 96.05 531.63 151.88 531.63 151.88 534.03"/></g><g id="LWPOLYLINE-55"><polygon class="cls-4" points="151.88 474.51 154.28 474.51 154.28 475.14 158.21 474.51 158.21 473.24 157.58 473.24 157.58 472.61 158.21 472.61 151.88 472.61 152.51 472.61 152.51 473.24 151.88 473.24 151.88 474.51"/></g><g id="ARC-468"><path class="cls-1" d="m96.03,534.03c0-.21,0-.42,0-.63,0-32.18,26.08-58.26,58.26-58.26"/></g><g id="LWPOLYLINE-56"><polygon class="cls-4" points="152 543.1 154.41 543.1 154.41 543.74 158.33 543.1 158.33 541.84 157.7 541.84 157.7 541.2 158.33 541.2 152 541.2 152.64 541.2 152.64 541.84 152 541.84 152 543.1"/></g><g id="LWPOLYLINE-57"><polygon class="cls-4" points="152 543.1 96.15 543.1 96.17 545.51 152 545.51 152 543.1"/></g><g id="LWPOLYLINE-58"><polygon class="cls-4" points="152 602.63 154.41 602.63 154.41 602 158.33 602.63 158.33 603.9 157.7 603.9 157.7 604.53 158.33 604.53 152 604.53 152.64 604.53 152.64 603.9 152 603.9 152 602.63"/></g><g id="ARC-469"><path class="cls-1" d="m96.15,543.1c-.35,32.18,25.45,58.54,57.62,58.89.21,0,.42,0,.63,0"/></g><g id="LWPOLYLINE-59"><polygon class="cls-4" points="151.37 336.44 153.78 336.44 153.78 337.07 157.7 336.44 157.7 335.17 157.07 335.17 157.07 334.54 157.7 334.54 151.37 334.54 152 334.54 152 335.17 151.37 335.17 151.37 336.44"/></g><g id="LWPOLYLINE-60"><polygon class="cls-4" points="151.37 336.44 95.52 336.44 95.54 338.85 151.37 338.85 151.37 336.44"/></g><g id="LWPOLYLINE-61"><polygon class="cls-4" points="151.37 395.97 153.78 395.97 153.78 395.33 157.7 395.97 157.7 397.23 157.07 397.23 157.07 397.87 157.7 397.87 151.37 397.87 152 397.87 152 397.23 151.37 397.23 151.37 395.97"/></g><g id="ARC-470"><path class="cls-1" d="m95.52,336.44c-.35,32.18,25.45,58.54,57.62,58.89.21,0,.42,0,.63,0"/></g><g id="LWPOLYLINE-62"><polygon class="cls-4" points="245.18 642.84 245.18 646.85 246.24 646.85 245.18 653.39 243.07 653.39 243.07 652.33 242.02 652.33 242.02 653.39 242.02 642.84 242.02 643.9 243.07 643.9 243.07 642.84 245.18 642.84"/></g><g id="LWPOLYLINE-63"><polygon class="cls-4" points="245.18 642.84 245.18 549.84 249.19 549.88 249.19 642.84 245.18 642.84"/></g><g id="LWPOLYLINE-64"><polygon class="cls-4" points="344.3 642.84 344.3 646.85 343.25 646.85 344.3 653.39 346.41 653.39 346.41 652.33 347.47 652.33 347.47 653.39 347.47 642.84 347.47 643.9 346.41 643.9 346.41 642.84 344.3 642.84"/></g><g id="ARC-471"><path class="cls-1" d="m245.18,549.84c.35,0,.7,0,1.05,0,53.58,0,97.01,43.43,97.01,97.01"/></g></svg>