<?xml version="1.0" encoding="UTF-8"?><svg id="ARREDI_attrezzature_-_furniture" xmlns="http://www.w3.org/2000/svg" width="486.83" height="365" viewBox="0 0 486.83 365"><defs><style>.cls-1{stroke-miterlimit:10;}.cls-1,.cls-2{fill:none;stroke:#000;}.cls-2{stroke-linecap:round;stroke-linejoin:round;stroke-width:.5px;}</style></defs><g id="LINE"><line class="cls-2" x1="274.37" y1="174.7" x2="274.37" y2="223.96"/></g><g id="LINE-2"><line class="cls-2" x1="214.62" y1="160.47" x2="263.88" y2="160.47"/></g><g id="LINE-3"><line class="cls-2" x1="84.27" y1="160.47" x2="133.54" y2="160.47"/></g><g id="HATCH"><path class="cls-1" d="m278.79,225.15v2.86h1.47v79.29h142.21l-.03-47.35-.06-96.53h-142.12v7.24h-1.47v2.94h42.06v-1.45h-.93v-3.34h4.54v3.34h-.93v1.45h6.73v2.94l-51.47,48.62m61.08,37.44l5.89,5.89v36.03h-25.73v-36.03l5.89-5.89h13.96m-8.48,30.75h2.99v6.55h-2.99v-6.55m21.43-95.03v-33.57h46.44v33.57l-8.8,8.8h-28.84l-8.8-8.8m21.56-29.12h3.31v7.25h-3.31v-7.25m-39.46,120.26h-4.08,4.08m-.61,0h-2.85,2.85m44.08-25.77h13.97l5.88,5.88v33.09h-6.87l-.73.78h-10.53l-.73-.78h-6.87v-33.09l5.88-5.88m-52.01,34.16l1.39.58.58,1.39-.58,1.39-1.39.58-1.39-.58-.58-1.39.58-1.39,1.39-.58m1.35,1.97h-2.69,2.69m11.67-1.97l1.39.58.58,1.39-.58,1.39-1.39.58-1.39-.58-.58-1.39.58-1.39,1.39-.58m1.35,1.97h-2.69,2.69m39.1-13.21v.16-.16m10.16-.13v.29-.29m-16.22-105.2h4.52-4.52m.68,0h3.16-3.16m-7.18-10.45l-.64-1.55.64-1.55,1.55-.64,1.55.64.64,1.55-.64,1.55-1.55.64-1.55-.64m.05-1.55h2.99-2.99m14.37,1.55l-.64-1.55.64-1.55,1.55-.64,1.55.64.64,1.55-.64,1.55-1.55.64-1.55-.64m.05-1.55h2.99-2.99Z"/><path class="cls-2" d="m422.46,306.49h-142.21m142.19-18.38h-24.21m-78.22,0h-39.76m92.25,0h-26.75m76.69-18.38h-24.2m-78.22,0h-39.76m92.25,0h-26.75m76.68-18.38h-142.17m142.16-18.38h-142.16m142.15-18.38h-112.35m112.34-18.38h-23.13m-46.44,0h-27.7m97.26-18.38h-23.12m-46.44,0h-22.65m85.11-14.4v143.88m-18.38-143.88v1.33m0,137.91v4.64m0-102.98v61.5m-18.38-102.41v1.33m0,137.91v4.64m0-100.18v56.57m-18.38-100.27v1.33m0,42.24v100.31m-18.38-143.88v99.49m0,41.61v2.79m-18.38-143.88v5.4m0,135.7v2.79m0-107.8v63.68m-18.38-99.76v10.18m0,44.41v89.3m-18.38-143.88v10.18m0,50.96v82.74"/></g><g id="HATCH-2"><path class="cls-1" d="m422.37,154.59l-.06-96.42-.02-40.96h-216.22v137.38h4.49v1.47h2.94v-42.06h-1.45v.93h-3.34v-4.54h3.34v.93h1.45v-6.73h2.94l48.62,51.47h2.86v-1.47h154.45m-94.31-94.13l-5.89-5.89V18.54h25.73v36.03l-5.89,5.89h-13.96m5.49-37.29h2.99v6.55h-2.99v-6.55m28.68,88.3h28.84l8.8,8.8v33.57h-46.44v-33.57l8.8-8.8m12.77,30.67h3.31v7.25h-3.31v-7.25m-77.17-89.74h-19.34l-5.18,3.82v-3.82h-39.21v3.82l-5.18-3.82h-19.34V19.31h88.24v33.09m35.18-18.8h4.08-4.08m39.5,19.88V20.4h6.87l.73-.78h10.53l.73.78h6.87v33.09l-5.88,5.88h-13.97l-5.88-5.88m-38.89-19.88h2.85-2.85m-5.08-8.39l-1.39-.58-.58-1.39.58-1.39,1.39-.58,1.39.58.58,1.39-.58,1.39-1.39.58m-1.35-1.97h2.69-2.69m14.36,1.97l-1.39-.58-.58-1.39.58-1.39,1.39-.58,1.39.58.58,1.39-.58,1.39-1.39.58m-1.35-1.97h2.69-2.69m38.71,114.06h-4.52,4.52m11.09-100.72v-.29.29m-10.16-.13v-.16.16m-1.61,100.85h-3.16,3.16m-10.34,10.45l1.55-.64,1.55.64.64,1.55-.64,1.55-1.55.64-1.55-.64-.64-1.55.64-1.55m3.04,1.55h-2.99,2.99m11.38-1.55l1.55-.64,1.55.64.64,1.55-.64,1.55-1.55.64-1.55-.64-.64-1.55.64-1.55m3.04,1.55h-2.99,2.99Z"/><path class="cls-2" d="m422.37,141.05h-22.49m-186.37,0h-7.44m147.36,0h-90.6m159.52-18.38h-22.48m-186.37,0h-7.44m147.36,0h-100.64m169.55-18.38h-216.27m216.26-18.38h-216.26m216.25-18.38h-216.25m216.24-18.38h-24.07m-188.65,0h-3.52m166.43,0h-24.59m-25.73,0h-24.35m124.47-18.38h-24.06m-188.65,0h-3.52m166.43,0h-24.59m-25.73,0h-24.35m117.45-13.54v137.38m-18.38-137.38v3.19m0,133.43v.75m0-97.35v56.44m-18.38-96.46v3.19m0,133.43v.75m0-95.21v52.1m-18.38-94.26v94.51m0,42.11v.75m-18.38-137.38v1.33m0,41.92v94.13m-18.38-137.38v1.33m0,39.57v96.47m-18.38-137.38v137.38m-18.38-137.38v2.1m0,33.09v102.19m-18.38-137.38v2.1m0,33.09v102.19m-18.38-137.38v2.1m0,33.09v67.07m-18.38-102.26v2.1m0,34.95v53.46m-18.38-90.51v2.1m0,94.68v42.06m0-103.66v58.92"/></g><g id="HATCH-3"><path class="cls-1" d="m134.72,156.06h2.86v-1.47h59.67V17.21H19.31v137.38h60.91v1.47h2.94v-42.06h-1.45v.93h-3.34v-4.54h3.34v.93h1.45v-6.73h2.94l48.62,51.47m38.57-44.07v-9.06h-.79v-.33l-15.89-4.81.43-1.41,16.25,4.92v-12.71l-16.32,4.37-.38-1.42,15.92-4.26v-.03h.12l.67-.18v-13.83h-.79v-.33l-15.89-4.81.43-1.41,16.25,4.92v-6.78l-17.09-2.21.19-1.46,16.9,2.19v-6.89l-16.78,2.58-.22-1.45,17-2.61v-9.38h-.79v-.33l-15.89-4.81.43-1.41,16.25,4.92v-6.32l-12.79-.74v-3.14l12.79-.74v-9.19h2.21v9.19l12.79.74v3.14l-12.79.74v6.98l16.73,5.06-.43,1.41-16.31-4.93v8.46l17.13-2.63.22,1.45-17.36,2.67v7.51l17.36,2.24-.19,1.46-17.17-2.22v7.16l16.73,5.06-.43,1.41-16.31-4.93v12.67l16.61-4.45.38,1.42-16.99,4.55v13.96l16.73,5.06-.43,1.41-16.31-4.93v8.78l17.36,2.24-.19,1.46-17.17-2.22v11.31l16.61-4.45.38,1.42-16.99,4.55v8.47l12.79.74v3.14l-12.79.74v9.19h-2.21v-9.19l-12.79-.74v-3.14l12.79-.74v-7.88l-16.32,4.37-.38-1.42,15.92-4.26v-.03h.12l.67-.18v-12.18l-17.09-2.21.19-1.46,16.9,2.19m-.79.52h4.08v.45h-4.08v-.45m-110.51-4.08l-16.31-4.93v8.78l17.36,2.24-.19,1.46-17.17-2.22v11.31l16.61-4.45.38,1.42-16.99,4.55v8.47l12.79.74v3.14l-12.79.74v9.19h-2.21v-9.19l-12.79-.74v-3.14l12.79-.74v-7.88l-16.32,4.37-.38-1.42,15.92-4.26v-.03h.12l.67-.18v-12.18l-17.09-2.21.19-1.46,16.9,2.19v-9.06h-.79v-.33l-15.89-4.81.43-1.41,16.25,4.92v-12.71l-16.32,4.37-.38-1.42,15.92-4.26v-.03h.12l.67-.18v-13.83h-.79v-.33l-15.89-4.81.43-1.41,16.25,4.92v-6.78l-17.09-2.21.19-1.46,16.9,2.19v-6.89l-16.78,2.58-.22-1.45,17-2.61v-9.38h-.79v-.33l-15.89-4.81.43-1.41,16.25,4.92v-6.32l-12.79-.74v-3.14l12.79-.74v-9.19h2.21v9.19l12.79.74v3.14l-12.79.74v6.98l16.73,5.06-.43,1.41-16.31-4.93v8.46l17.13-2.63.22,1.45-17.36,2.67v7.51l17.36,2.24-.19,1.46-17.17-2.22v7.16l16.73,5.06-.43,1.41-16.31-4.93v12.67l16.61-4.45.38,1.42-16.99,4.55v13.96l16.73,5.06-.43,1.41m110.51-44.12v-.45h4.08v.45h-4.08m0-8.68v-.45h4.08v.45h-4.08m-125.73,56.88v.45h-4.08v-.45h4.08m0-48.19h-4.08v-.45h4.08v.45m0-8.68h-4.08v-.45h4.08v.45m102.23,11.28h-77.58v20.96h77.58v-20.96Z"/><path class="cls-2" d="m197.25,141.05h-21.75m-132.02,0h-24.17m153.99,0h-40.81m-49.32,0h-37.48m151.56-18.38h-7.08m-146.69,0h-24.17m165.18,0h-8.98m-120.83,0h-8.98m127.61,0h-50.85m-39.28,0h-22.81m136.89-18.38h-14.09m-139.68,0h-24.17m158.77,0h-2.58m-127.23,0h-2.58m127.61,0H53.35m143.9-18.38h-13.9m-139.87,0h-24.17m158.36,0h-2.17m-127.65,0h-2.17m127.61,0h-24.28m-77.58,0h-17.9m143.71-18.38h-21.75m-148.52,0h-7.67m153.99,0h-13.53m-116.29,0h-13.53m126.84,0h-7.78m-77.58,0h-25.75m151.56-18.38h-6.86m-146.91,0h-24.17m166,0h-9.81m-120,0h-9.81m127.61,0H60.58m136.67-18.38h-21.75m-132.02,0h-24.17m153.99,0H45.69m148.99-13.54v137.38m-18.38-137.38v15.87m0,106.54v14.96m0-116.99v7.27m0,81.51v8.73m0-88.7v8.1m0,59.36v10.99m0-69.68v.45m0,56.88v.45m0-56.97v7.74m0,40.01v8.64m0-48.52v.45m0,23.47v14.42m0-36.99v7.3m0,1.54v12.21m-18.38-69.06v22.1m0,91.99v23.29m0-113.74v16.48m0,54.15v18.29m0-70.96v2.54m0,36.83v11.82m0-47.16v4.11m0,25.75v3.94m0-28.16v22.7m-18.38-73.98v49.7m0,20.96v66.72M121.15,17.21v49.7m0,20.96v33.33m-18.38-103.99v49.7m0,20.96v20.51m-18.38-91.16v49.7m0,20.96v16.72m-18.38-87.38v137.38M47.62,17.21v15.94m0,106.41v15.03m0-117.05v7.68m0,80.86v9.09m0-88.42v7.59m0,59.68v10.54m0-68.73v8.06m0,40.2v8.44m0-47.16v7.49m0,14.63v15.06m0-28.16v11.57M29.24,17.21v17.56m0,103.17v16.65m0-118.67v3.74m0,91.34v5.8m0-95.6v15.97m0,54.47v17.84m0-70.83v2.86m0,37.02v11.62m0-47.16v4.31m0,25.11v4.58m0-28.16v22.05"/></g><g id="LINE-4"><line class="cls-2" x1="128.18" y1="343.26" x2="125.1" y2="343.26"/></g><g id="LINE-5"><line class="cls-2" x1="61.54" y1="343.26" x2="58.33" y2="343.26"/></g><g id="LINE-6"><line class="cls-2" x1="128.14" y1="324.88" x2="121.82" y2="324.88"/></g><g id="LINE-7"><line class="cls-2" x1="61.54" y1="324.88" x2="58.29" y2="324.88"/></g><g id="LINE-8"><line class="cls-2" x1="271.43" y1="306.49" x2="254.23" y2="306.49"/></g><g id="LINE-9"><line class="cls-2" x1="61.54" y1="306.49" x2="19.31" y2="306.49"/></g><g id="LINE-10"><line class="cls-2" x1="253.01" y1="306.49" x2="244.98" y2="306.49"/></g><g id="LINE-11"><line class="cls-2" x1="145.06" y1="306.49" x2="112.07" y2="306.49"/></g><g id="LINE-12"><line class="cls-2" x1="216.24" y1="306.49" x2="208.21" y2="306.49"/></g><g id="LINE-13"><line class="cls-2" x1="153.52" y1="306.49" x2="145.49" y2="306.49"/></g><g id="LINE-14"><line class="cls-2" x1="207.78" y1="306.49" x2="191.51" y2="306.49"/></g><g id="LINE-15"><line class="cls-2" x1="190.29" y1="306.49" x2="182.26" y2="306.49"/></g><g id="LINE-16"><line class="cls-2" x1="271.43" y1="288.11" x2="254.23" y2="288.11"/></g><g id="LINE-17"><line class="cls-2" x1="56.37" y1="288.11" x2="19.31" y2="288.11"/></g><g id="LINE-18"><line class="cls-2" x1="145.06" y1="288.11" x2="89.75" y2="288.11"/></g><g id="LINE-19"><line class="cls-2" x1="207.78" y1="288.11" x2="191.51" y2="288.11"/></g><g id="LINE-20"><line class="cls-2" x1="271.43" y1="269.73" x2="253.52" y2="269.73"/></g><g id="LINE-21"><line class="cls-2" x1="145.77" y1="269.73" x2="19.31" y2="269.73"/></g><g id="LINE-22"><line class="cls-2" x1="208.49" y1="269.73" x2="190.8" y2="269.73"/></g><g id="LINE-23"><line class="cls-2" x1="271.43" y1="251.34" x2="19.31" y2="251.34"/></g><g id="LINE-24"><line class="cls-2" x1="271.43" y1="232.96" x2="19.31" y2="232.96"/></g><g id="LINE-25"><line class="cls-2" x1="274.37" y1="214.58" x2="19.31" y2="214.58"/></g><g id="LINE-26"><line class="cls-2" x1="274.37" y1="196.2" x2="19.31" y2="196.2"/></g><g id="LINE-27"><line class="cls-2" x1="274.37" y1="177.81" x2="19.31" y2="177.81"/></g><g id="LINE-28"><line class="cls-2" x1="268.22" y1="163.41" x2="268.22" y2="307.29"/></g><g id="LINE-29"><line class="cls-2" x1="249.83" y1="160.47" x2="249.83" y2="265.56"/></g><g id="LINE-30"><line class="cls-2" x1="249.83" y1="306.74" x2="249.83" y2="307.29"/></g><g id="LINE-31"><line class="cls-2" x1="249.83" y1="302.03" x2="249.83" y2="306.74"/></g><g id="LINE-32"><line class="cls-2" x1="231.45" y1="160.47" x2="231.45" y2="264.37"/></g><g id="LINE-33"><line class="cls-2" x1="231.45" y1="306.74" x2="231.45" y2="307.29"/></g><g id="LINE-34"><line class="cls-2" x1="231.45" y1="288.7" x2="231.45" y2="291.73"/></g><g id="LINE-35"><line class="cls-2" x1="213.07" y1="163.41" x2="213.07" y2="265.11"/></g><g id="LINE-36"><line class="cls-2" x1="213.07" y1="306.74" x2="213.07" y2="307.29"/></g><g id="LINE-37"><line class="cls-2" x1="213.07" y1="302.03" x2="213.07" y2="306.74"/></g><g id="LINE-38"><line class="cls-2" x1="194.68" y1="163.41" x2="194.68" y2="307.29"/></g><g id="LINE-39"><line class="cls-2" x1="176.3" y1="163.41" x2="176.3" y2="264.37"/></g><g id="LINE-40"><line class="cls-2" x1="157.92" y1="163.41" x2="157.92" y2="264.37"/></g><g id="LINE-41"><line class="cls-2" x1="157.92" y1="306.74" x2="157.92" y2="307.29"/></g><g id="LINE-42"><line class="cls-2" x1="139.53" y1="163.41" x2="139.53" y2="307.29"/></g><g id="LINE-43"><line class="cls-2" x1="121.15" y1="160.47" x2="121.15" y2="322.97"/></g><g id="LINE-44"><line class="cls-2" x1="102.77" y1="160.47" x2="102.77" y2="296.69"/></g><g id="LINE-45"><line class="cls-2" x1="84.39" y1="160.47" x2="84.39" y2="285.76"/></g><g id="LINE-46"><line class="cls-2" x1="66" y1="163.41" x2="66" y2="281.67"/></g><g id="LINE-47"><line class="cls-2" x1="47.62" y1="163.41" x2="47.62" y2="307.96"/></g><g id="LINE-48"><line class="cls-2" x1="29.24" y1="163.41" x2="29.24" y2="307.99"/></g><g id="LINE-49"><line class="cls-2" x1="422.32" y1="58.17" x2="422.32" y2="17.21"/></g><g id="LINE-50"><line class="cls-2" x1="422.32" y1="58.17" x2="437.91" y2="65.21"/></g><g id="LINE-51"><line class="cls-2" x1="422.46" y1="307.29" x2="422.44" y2="259.77"/></g><g id="LINE-52"><line class="cls-2" x1="422.46" y1="307.29" x2="128.1" y2="307.29"/></g><g id="LINE-53"><line class="cls-2" x1="19.31" y1="17.21" x2="19.31" y2="308.01"/></g><g id="LINE-54"><line class="cls-2" x1="19.31" y1="17.21" x2="197.25" y2="17.21"/></g><g id="LINE-55"><line class="cls-2" x1="206.08" y1="17.21" x2="422.32" y2="17.21"/></g><g id="LINE-56"><line class="cls-2" x1="128.1" y1="307.29" x2="128.1" y2="359.47"/></g><g id="LINE-57"><line class="cls-2" x1="58.25" y1="308.01" x2="58.25" y2="359.47"/></g><g id="LINE-58"><line class="cls-2" x1="437.91" y1="65.21" x2="466.64" y2="65.21"/></g><g id="LINE-59"><line class="cls-2" x1="466.64" y1="65.21" x2="466.64" y2="13.53"/></g><g id="LINE-60"><line class="cls-2" x1="422.44" y1="259.77" x2="437.91" y2="252.79"/></g><g id="LINE-61"><line class="cls-2" x1="437.91" y1="252.79" x2="466.64" y2="252.79"/></g><g id="LINE-62"><line class="cls-2" x1="466.64" y1="252.79" x2="466.64" y2="311.97"/></g><g id="LINE-63"><line class="cls-2" x1="19.31" y1="308.01" x2="58.25" y2="308.01"/></g><g id="LINE-64"><line class="cls-2" x1="422.44" y1="259.94" x2="422.38" y2="163.41"/></g><g id="ARC"><path class="cls-2" d="m125.05,348.27c1.75-35.08-25.26-64.93-60.33-66.69"/></g><g id="LINE-65"><line class="cls-2" x1="69.05" y1="287.85" x2="69.05" y2="292.76"/></g><g id="LINE-66"><line class="cls-2" x1="66.86" y1="287.85" x2="66.86" y2="292.76"/></g><g id="LINE-67"><line class="cls-2" x1="69.88" y1="287.85" x2="69.88" y2="292.76"/></g><g id="LINE-68"><line class="cls-2" x1="66.28" y1="288.86" x2="66.28" y2="287.85"/></g><g id="LINE-69"><line class="cls-2" x1="66.28" y1="287.85" x2="69.88" y2="287.85"/></g><g id="LINE-70"><line class="cls-2" x1="64.71" y1="291.75" x2="66.28" y2="291.75"/></g><g id="LINE-71"><line class="cls-2" x1="64.71" y1="288.86" x2="66.28" y2="288.86"/></g><g id="LINE-72"><line class="cls-2" x1="66.28" y1="291.75" x2="66.28" y2="292.76"/></g><g id="LINE-73"><line class="cls-2" x1="66.28" y1="292.76" x2="69.88" y2="292.76"/></g><g id="LINE-74"><line class="cls-2" x1="59.97" y1="287.85" x2="56.37" y2="287.85"/></g><g id="LINE-75"><line class="cls-2" x1="59.97" y1="292.76" x2="56.37" y2="292.76"/></g><g id="LINE-76"><line class="cls-2" x1="59.97" y1="288.86" x2="59.97" y2="287.85"/></g><g id="LINE-77"><line class="cls-2" x1="59.97" y1="291.75" x2="59.97" y2="292.76"/></g><g id="LINE-78"><line class="cls-2" x1="61.54" y1="288.86" x2="59.97" y2="288.86"/></g><g id="LINE-79"><line class="cls-2" x1="61.54" y1="291.75" x2="59.97" y2="291.75"/></g><g id="LINE-80"><line class="cls-2" x1="59.38" y1="287.85" x2="59.38" y2="292.76"/></g><g id="LINE-81"><line class="cls-2" x1="57.2" y1="287.85" x2="57.2" y2="292.76"/></g><g id="LINE-82"><line class="cls-2" x1="56.37" y1="287.85" x2="56.37" y2="292.76"/></g><g id="LINE-83"><line class="cls-2" x1="324.46" y1="172.14" x2="324.46" y2="168.81"/></g><g id="LINE-84"><line class="cls-2" x1="319.92" y1="172.14" x2="319.92" y2="168.81"/></g><g id="LINE-85"><line class="cls-2" x1="324.46" y1="180.55" x2="319.92" y2="180.55"/></g><g id="LINE-86"><line class="cls-2" x1="324.46" y1="178.53" x2="319.92" y2="178.53"/></g><g id="LINE-87"><line class="cls-2" x1="324.46" y1="181.32" x2="319.92" y2="181.32"/></g><g id="LINE-88"><line class="cls-2" x1="323.53" y1="177.99" x2="324.46" y2="177.99"/></g><g id="LINE-89"><line class="cls-2" x1="324.46" y1="177.99" x2="324.46" y2="181.32"/></g><g id="LINE-90"><line class="cls-2" x1="320.85" y1="176.53" x2="320.85" y2="177.99"/></g><g id="LINE-91"><line class="cls-2" x1="323.53" y1="176.53" x2="323.53" y2="177.99"/></g><g id="LINE-92"><line class="cls-2" x1="320.85" y1="177.99" x2="319.92" y2="177.99"/></g><g id="LINE-93"><line class="cls-2" x1="319.92" y1="177.99" x2="319.92" y2="181.32"/></g><g id="LINE-94"><line class="cls-2" x1="323.53" y1="172.14" x2="324.46" y2="172.14"/></g><g id="LINE-95"><line class="cls-2" x1="320.85" y1="172.14" x2="319.92" y2="172.14"/></g><g id="LINE-96"><line class="cls-2" x1="323.53" y1="173.59" x2="323.53" y2="172.14"/></g><g id="LINE-97"><line class="cls-2" x1="320.85" y1="173.59" x2="320.85" y2="172.14"/></g><g id="LINE-98"><line class="cls-2" x1="324.46" y1="171.6" x2="319.92" y2="171.6"/></g><g id="LINE-99"><line class="cls-2" x1="324.46" y1="169.57" x2="319.92" y2="169.57"/></g><g id="LINE-100"><line class="cls-2" x1="324.46" y1="168.81" x2="319.92" y2="168.81"/></g><g id="ARC-2"><path class="cls-2" d="m275.85,225.06c28.43,1.62,52.79-20.1,54.41-48.53h0"/></g><g id="LINE-101"><line class="cls-2" x1="212.06" y1="110.38" x2="208.73" y2="110.38"/></g><g id="LINE-102"><line class="cls-2" x1="212.06" y1="114.93" x2="208.73" y2="114.93"/></g><g id="LINE-103"><line class="cls-2" x1="220.47" y1="110.38" x2="220.47" y2="114.93"/></g><g id="LINE-104"><line class="cls-2" x1="218.45" y1="110.38" x2="218.45" y2="114.93"/></g><g id="LINE-105"><line class="cls-2" x1="221.24" y1="110.38" x2="221.24" y2="114.93"/></g><g id="LINE-106"><line class="cls-2" x1="217.91" y1="111.32" x2="217.91" y2="110.38"/></g><g id="LINE-107"><line class="cls-2" x1="217.91" y1="110.38" x2="221.24" y2="110.38"/></g><g id="LINE-108"><line class="cls-2" x1="216.45" y1="113.99" x2="217.91" y2="113.99"/></g><g id="LINE-109"><line class="cls-2" x1="216.45" y1="111.32" x2="217.91" y2="111.32"/></g><g id="LINE-110"><line class="cls-2" x1="217.91" y1="113.99" x2="217.91" y2="114.93"/></g><g id="LINE-111"><line class="cls-2" x1="217.91" y1="114.93" x2="221.24" y2="114.93"/></g><g id="LINE-112"><line class="cls-2" x1="212.06" y1="111.32" x2="212.06" y2="110.38"/></g><g id="LINE-113"><line class="cls-2" x1="212.06" y1="113.99" x2="212.06" y2="114.93"/></g><g id="LINE-114"><line class="cls-2" x1="213.51" y1="111.32" x2="212.06" y2="111.32"/></g><g id="LINE-115"><line class="cls-2" x1="213.51" y1="113.99" x2="212.06" y2="113.99"/></g><g id="LINE-116"><line class="cls-2" x1="211.52" y1="110.38" x2="211.52" y2="114.93"/></g><g id="LINE-117"><line class="cls-2" x1="209.49" y1="110.38" x2="209.49" y2="114.93"/></g><g id="LINE-118"><line class="cls-2" x1="208.73" y1="110.38" x2="208.73" y2="114.93"/></g><g id="ARC-3"><path class="cls-2" d="m264.99,159c1.62-28.43-20.1-52.79-48.53-54.41"/></g><g id="LINE-119"><line class="cls-2" x1="81.72" y1="110.38" x2="78.38" y2="110.38"/></g><g id="LINE-120"><line class="cls-2" x1="81.72" y1="114.93" x2="78.38" y2="114.93"/></g><g id="LINE-121"><line class="cls-2" x1="90.13" y1="110.38" x2="90.13" y2="114.93"/></g><g id="LINE-122"><line class="cls-2" x1="88.1" y1="110.38" x2="88.1" y2="114.93"/></g><g id="LINE-123"><line class="cls-2" x1="90.9" y1="110.38" x2="90.9" y2="114.93"/></g><g id="LINE-124"><line class="cls-2" x1="87.56" y1="111.32" x2="87.56" y2="110.38"/></g><g id="LINE-125"><line class="cls-2" x1="87.56" y1="110.38" x2="90.9" y2="110.38"/></g><g id="LINE-126"><line class="cls-2" x1="86.11" y1="113.99" x2="87.56" y2="113.99"/></g><g id="LINE-127"><line class="cls-2" x1="86.11" y1="111.32" x2="87.56" y2="111.32"/></g><g id="LINE-128"><line class="cls-2" x1="87.56" y1="113.99" x2="87.56" y2="114.93"/></g><g id="LINE-129"><line class="cls-2" x1="87.56" y1="114.93" x2="90.9" y2="114.93"/></g><g id="LINE-130"><line class="cls-2" x1="81.72" y1="111.32" x2="81.72" y2="110.38"/></g><g id="LINE-131"><line class="cls-2" x1="81.72" y1="113.99" x2="81.72" y2="114.93"/></g><g id="LINE-132"><line class="cls-2" x1="83.17" y1="111.32" x2="81.72" y2="111.32"/></g><g id="LINE-133"><line class="cls-2" x1="83.17" y1="113.99" x2="81.72" y2="113.99"/></g><g id="LINE-134"><line class="cls-2" x1="81.17" y1="110.38" x2="81.17" y2="114.93"/></g><g id="LINE-135"><line class="cls-2" x1="79.15" y1="110.38" x2="79.15" y2="114.93"/></g><g id="LINE-136"><line class="cls-2" x1="78.38" y1="110.38" x2="78.38" y2="114.93"/></g><g id="ARC-4"><path class="cls-2" d="m134.64,159c1.62-28.43-20.1-52.79-48.53-54.41"/></g><g id="LINE-137"><line class="cls-2" x1="61.54" y1="288.11" x2="59.97" y2="288.11"/></g><g id="LINE-138"><line class="cls-2" x1="455.01" y1="71.39" x2="455.01" y2="148.4"/></g><g id="LINE-139"><line class="cls-2" x1="448.1" y1="71.39" x2="448.1" y2="148.4"/></g><g id="LINE-140"><line class="cls-2" x1="422.32" y1="58.17" x2="422.32" y2="154.59"/></g><g id="LINE-141"><line class="cls-2" x1="455.01" y1="246.6" x2="455.01" y2="169.6"/></g><g id="LINE-142"><line class="cls-2" x1="448.1" y1="246.6" x2="448.1" y2="169.6"/></g><g id="HATCH-4"><rect class="cls-1" x="271.43" y="228.01" width="8.82" height="79.29"/><path class="cls-2" d="m271.43,230.14l2.13-2.13m-2.13,6.68l6.68-6.68m-6.68,11.23l8.82-8.82m-8.82,13.37l8.82-8.82m-8.82,13.37l8.82-8.82m-8.82,13.37l8.82-8.82m-8.82,13.37l8.82-8.82m-8.82,13.37l8.82-8.82m-8.82,13.37l8.82-8.82m-8.82,13.37l8.82-8.82m-8.82,13.37l8.82-8.82m-8.82,13.37l8.82-8.82m-8.82,13.37l8.82-8.82m-8.82,13.37l8.82-8.82m-8.82,13.37l8.82-8.82m-8.82,13.37l8.82-8.82m-8.82,13.37l8.82-8.82m-8.64,13.18l8.64-8.64m-4.09,8.64l4.09-4.09"/></g><g id="HATCH-5"><rect class="cls-1" x="19.31" y="154.59" width="60.91" height="8.82"/><path class="cls-2" d="m19.31,154.69l.1-.1m-.1,4.65l4.65-4.65m-4.27,8.82l8.82-8.82m-4.27,8.82l8.82-8.82m-4.27,8.82l8.82-8.82m-4.27,8.82l8.82-8.82m-4.27,8.82l8.82-8.82m-4.27,8.82l8.82-8.82m-4.27,8.82l8.82-8.82m-4.27,8.82l8.82-8.82m-4.27,8.82l8.82-8.82m-4.27,8.82l8.82-8.82m-4.27,8.82l8.82-8.82m-4.27,8.82l8.82-8.82m-4.27,8.82l5.94-5.94m-1.39,5.94l1.39-1.39"/></g><g id="HATCH-6"><polygon class="cls-1" points="206.08 13.53 197.25 13.53 197.25 154.59 137.58 154.59 137.58 163.41 210.57 163.41 210.57 154.59 206.08 154.59 206.08 13.53"/><path class="cls-2" d="m197.25,17.7l4.17-4.17m-4.17,8.72l8.72-8.72m-8.72,13.27l8.82-8.82m-8.82,13.37l8.82-8.82m-8.82,13.37l8.82-8.82m-8.82,13.37l8.82-8.82m-8.82,13.37l8.82-8.82m-8.82,13.37l8.82-8.82m-8.82,13.37l8.82-8.82m-8.82,13.37l8.82-8.82m-8.82,13.37l8.82-8.82m-8.82,13.37l8.82-8.82m-8.82,13.37l8.82-8.82m-8.82,13.37l8.82-8.82m-8.82,13.37l8.82-8.82m-8.82,13.37l8.82-8.82m-8.82,13.37l8.82-8.82m-68.49,73.04l.13-.13m59.55-59.55l8.82-8.82m-68.49,73.04l4.67-4.67m55-55l8.82-8.82m-68.09,72.64l8.82-8.82m50.45-50.45l8.82-8.82m-63.54,68.09l8.82-8.82m45.9-45.9l8.82-8.82m-58.99,63.54l8.82-8.82m41.35-41.35l8.82-8.82m-54.45,58.99l8.82-8.82m36.8-36.8l8.82-8.82m-49.9,54.45l8.82-8.82m32.25-32.25l8.82-8.82m-45.35,49.9l8.82-8.82m27.7-27.7l8.82-8.82m-40.8,45.35l8.82-8.82m23.15-23.15l8.82-8.82m-36.25,40.8l8.82-8.82m18.6-18.6l8.82-8.82m-31.7,36.25l8.82-8.82m14.05-14.05l8.82-8.82m-27.15,31.7l8.82-8.82m9.5-9.5l8.82-8.82m-22.6,27.15l8.82-8.82m4.95-4.95l8.82-8.82m-18.05,22.6l8.82-8.82m.4-.4l8.82-8.82m-13.5,18.05l13.5-13.5m-8.95,13.5l8.95-8.95m-4.4,8.95l8.82-8.82m-4.27,8.82l4.34-4.34"/></g><g id="HATCH-7"><polygon class="cls-1" points="455.01 154.59 267.93 154.59 267.93 163.41 271.43 163.41 271.43 170.65 280.26 170.65 280.26 163.41 455.01 163.41 455.01 154.59"/><path class="cls-2" d="m267.93,156.3l1.72-1.72m-1.72,6.27l6.27-6.27m-4.27,8.82l8.82-8.82m-7.31,11.86l11.86-11.86m-11.52,16.07l16.07-16.07m-11.52,16.07l3.93-3.93m3.31-3.31l8.82-8.82m-4.27,8.82l8.82-8.82m-4.27,8.82l8.82-8.82m-4.27,8.82l8.82-8.82m-4.27,8.82l8.82-8.82m-4.27,8.82l8.82-8.82m-4.27,8.82l8.82-8.82m-4.27,8.82l8.82-8.82m-4.27,8.82l8.82-8.82m-4.27,8.82l8.82-8.82m-4.27,8.82l8.82-8.82m-4.27,8.82l8.82-8.82m-4.27,8.82l8.82-8.82m-4.27,8.82l8.82-8.82m-4.27,8.82l8.82-8.82m-4.27,8.82l8.82-8.82m-4.27,8.82l8.82-8.82m-4.27,8.82l8.82-8.82m-4.27,8.82l8.82-8.82m-4.27,8.82l8.82-8.82m-4.27,8.82l8.82-8.82m-4.27,8.82l8.82-8.82m-4.27,8.82l8.82-8.82m-4.27,8.82l8.82-8.82m-4.27,8.82l8.82-8.82m-4.27,8.82l8.82-8.82m-4.27,8.82l8.82-8.82m-4.27,8.82l8.82-8.82m-4.27,8.82l8.82-8.82m-4.27,8.82l8.82-8.82m-4.27,8.82l8.82-8.82m-4.27,8.82l8.82-8.82m-4.27,8.82l8.82-8.82m-4.27,8.82l8.82-8.82m-4.27,8.82l8.82-8.82m-4.27,8.82l8.82-8.82m-4.27,8.82l7.65-7.65m-3.1,7.65l3.1-3.1"/></g><g id="LWPOLYLINE"><rect class="cls-2" x="61.54" y="281.59" width="3.18" height="63.51"/></g><g id="LINE-143"><line class="cls-2" x1="128.1" y1="353.04" x2="128.1" y2="345.1"/></g><g id="LINE-144"><line class="cls-2" x1="58.25" y1="353.04" x2="58.25" y2="345.1"/></g><g id="LWPOLYLINE-2"><polyline class="cls-2" points="128.1 345.1 128.1 345.1 128.1 345.1 128.1 345.1 125.05 345.1 125.05 348.27 123.85 348.27 123.85 353.04 128.1 353.04 128.1 353.04 128.1 353.04 128.1 353.04 128.1 353.04"/></g><g id="LWPOLYLINE-3"><polyline class="cls-2" points="58.25 345.1 58.25 345.1 58.25 345.1 58.25 345.1 61.54 345.1 61.54 348.27 62.73 348.27 62.73 353.04 58.25 353.04 58.25 353.04 58.25 353.04 58.25 353.04 58.25 353.04"/></g><g id="LWPOLYLINE-4"><polyline class="cls-2" points="278.79 228.01 278.79 228.01 278.79 228.01 278.79 228.01 278.79 225.06 275.85 225.06 275.85 223.96 271.43 223.96 271.43 228.01 271.43 228.01 271.43 228.01 271.43 228.01 271.43 228.01"/></g><g id="LWPOLYLINE-5"><polyline class="cls-2" points="278.79 170.65 278.79 170.65 278.79 170.65 278.79 170.65 278.79 173.59 275.85 173.59 275.85 174.7 271.43 174.7 271.43 170.65 271.43 170.65 271.43 170.65 271.43 170.65 271.43 170.65"/></g><g id="LWPOLYLINE-6"><rect class="cls-2" x="278.79" y="173.59" width="51.47" height="2.94"/></g><g id="LINE-145"><line class="cls-2" x1="271.43" y1="170.65" x2="278.79" y2="170.65"/></g><g id="LWPOLYLINE-7"><polyline class="cls-2" points="267.93 156.06 267.93 156.06 267.93 156.06 267.93 156.06 264.99 156.06 264.99 159 263.88 159 263.88 163.41 267.93 163.41 267.93 163.41 267.93 163.41 267.93 163.41 267.93 163.41"/></g><g id="LWPOLYLINE-8"><polyline class="cls-2" points="210.57 156.06 210.57 156.06 210.57 156.06 210.57 156.06 213.51 156.06 213.51 159 214.62 159 214.62 163.41 210.57 163.41 210.57 163.41 210.57 163.41 210.57 163.41 210.57 163.41"/></g><g id="LWPOLYLINE-9"><rect class="cls-2" x="213.51" y="104.58" width="2.94" height="51.47"/></g><g id="LINE-146"><line class="cls-2" x1="210.57" y1="163.41" x2="210.57" y2="156.06"/></g><g id="LWPOLYLINE-10"><polyline class="cls-2" points="137.58 156.06 137.58 156.06 137.58 156.06 137.58 156.06 134.64 156.06 134.64 159 133.54 159 133.54 163.41 137.58 163.41 137.58 163.41 137.58 163.41 137.58 163.41 137.58 163.41"/></g><g id="LWPOLYLINE-11"><polyline class="cls-2" points="80.23 156.06 80.23 156.06 80.23 156.06 80.23 156.06 83.17 156.06 83.17 159 84.27 159 84.27 163.41 80.23 163.41 80.23 163.41 80.23 163.41 80.23 163.41 80.23 163.41"/></g><g id="LWPOLYLINE-12"><rect class="cls-2" x="83.17" y="104.58" width="2.94" height="51.47"/></g><g id="LINE-147"><line class="cls-2" x1="80.23" y1="163.41" x2="80.23" y2="156.06"/></g><g id="LWPOLYLINE-13"><rect class="cls-2" x="449.94" y="68.45" width="2.94" height="2.94"/></g><g id="LWPOLYLINE-14"><rect class="cls-2" x="448.1" y="65.21" width="6.91" height="6.19"/></g><g id="LWPOLYLINE-15"><rect class="cls-2" x="449.94" y="148.4" width="2.94" height="2.94"/></g><g id="LWPOLYLINE-16"><rect class="cls-2" x="448.1" y="148.4" width="6.91" height="6.19"/></g><g id="LWPOLYLINE-17"><rect class="cls-2" x="449.94" y="246.6" width="2.94" height="2.94"/></g><g id="LWPOLYLINE-18"><rect class="cls-2" x="448.1" y="246.6" width="6.91" height="6.19"/></g><g id="LWPOLYLINE-19"><rect class="cls-2" x="449.94" y="166.65" width="2.94" height="2.94"/></g><g id="LWPOLYLINE-20"><rect class="cls-2" x="448.1" y="163.41" width="6.91" height="6.19"/></g><g id="LINE-148"><line class="cls-2" x1="137.58" y1="163.41" x2="137.58" y2="156.06"/></g><g id="LINE-149"><line class="cls-2" x1="267.93" y1="163.41" x2="267.93" y2="156.06"/></g><g id="LINE-150"><line class="cls-2" x1="278.79" y1="228.01" x2="271.43" y2="228.01"/></g><g id="LINE-151"><line class="cls-2" x1="54.58" y1="312.37" x2="15.64" y2="312.37"/></g><g id="LWPOLYLINE-21"><polyline class="cls-2" points="15.64 13.53 426.7 13.53 426.73 55.32 438.86 60.79"/></g><g id="LINE-152"><line class="cls-2" x1="132.63" y1="359.47" x2="132.63" y2="311.7"/></g><g id="LINE-153"><line class="cls-2" x1="132.63" y1="311.7" x2="426.88" y2="311.7"/></g><g id="LINE-154"><line class="cls-2" x1="426.88" y1="311.7" x2="426.85" y2="263.47"/></g><g id="LINE-155"><line class="cls-2" x1="455.01" y1="163.41" x2="280.26" y2="163.41"/></g><g id="LINE-156"><line class="cls-2" x1="455.01" y1="154.59" x2="267.93" y2="154.59"/></g><g id="LINE-157"><line class="cls-2" x1="271.43" y1="307.29" x2="271.43" y2="228.01"/></g><g id="LINE-158"><line class="cls-2" x1="280.26" y1="307.29" x2="280.26" y2="228.01"/></g><g id="LINE-159"><line class="cls-2" x1="271.43" y1="228.01" x2="278.79" y2="228.01"/></g><g id="LINE-160"><line class="cls-2" x1="271.43" y1="170.65" x2="280.26" y2="170.65"/></g><g id="LINE-161"><line class="cls-2" x1="271.43" y1="228.01" x2="280.26" y2="228.01"/></g><g id="LINE-162"><line class="cls-2" x1="267.93" y1="163.41" x2="267.93" y2="154.59"/></g><g id="LINE-163"><line class="cls-2" x1="210.57" y1="163.41" x2="210.57" y2="154.59"/></g><g id="LINE-164"><line class="cls-2" x1="267.93" y1="163.41" x2="267.93" y2="154.59"/></g><g id="LINE-165"><line class="cls-2" x1="197.25" y1="154.59" x2="197.25" y2="13.53"/></g><g id="LINE-166"><line class="cls-2" x1="206.08" y1="154.59" x2="206.08" y2="13.53"/></g><g id="LINE-167"><line class="cls-2" x1="197.25" y1="154.59" x2="137.58" y2="154.59"/></g><g id="LINE-168"><line class="cls-2" x1="210.57" y1="154.59" x2="206.08" y2="154.59"/></g><g id="LINE-169"><line class="cls-2" x1="210.57" y1="163.41" x2="137.58" y2="163.41"/></g><g id="LINE-170"><line class="cls-2" x1="271.43" y1="163.41" x2="267.93" y2="163.41"/></g><g id="LINE-171"><line class="cls-2" x1="280.26" y1="170.65" x2="280.26" y2="163.41"/></g><g id="LINE-172"><line class="cls-2" x1="271.43" y1="170.65" x2="271.43" y2="163.41"/></g><g id="LINE-173"><line class="cls-2" x1="137.58" y1="163.41" x2="137.58" y2="156.06"/></g><g id="LINE-174"><line class="cls-2" x1="80.23" y1="163.41" x2="80.23" y2="156.06"/></g><g id="LINE-175"><line class="cls-2" x1="137.58" y1="163.41" x2="137.58" y2="154.59"/></g><g id="LINE-176"><line class="cls-2" x1="80.23" y1="154.59" x2="19.31" y2="154.59"/></g><g id="LINE-177"><line class="cls-2" x1="80.23" y1="163.41" x2="19.31" y2="163.41"/></g><g id="LINE-178"><line class="cls-2" x1="455.01" y1="163.41" x2="455.01" y2="154.59"/></g><g id="LINE-179"><line class="cls-2" x1="15.64" y1="13.53" x2="15.64" y2="312.37"/></g><g id="LINE-180"><line class="cls-2" x1="54.58" y1="312.37" x2="54.58" y2="359.47"/></g><g id="LINE-181"><line class="cls-2" x1="438.86" y1="60.79" x2="462.23" y2="60.79"/></g><g id="LINE-182"><line class="cls-2" x1="462.23" y1="60.79" x2="462.23" y2="13.53"/></g><g id="LINE-183"><line class="cls-2" x1="438.86" y1="257.2" x2="462.23" y2="257.2"/></g><g id="LINE-184"><line class="cls-2" x1="426.85" y1="263.47" x2="438.86" y2="257.2"/></g><g id="LINE-185"><line class="cls-2" x1="462.23" y1="257.2" x2="462.23" y2="312.43"/></g><g id="LINE-186"><line class="cls-2" x1="132.63" y1="311.7" x2="426.88" y2="311.7"/></g><g id="LWPOLYLINE-22"><rect class="cls-2" x="173.8" y="94.51" width="1.47" height="36.77" rx=".29" ry=".29" transform="translate(40.19 271.5) rotate(-82.63)"/></g><g id="LWPOLYLINE-23"><rect class="cls-2" x="173.69" y="54.33" width="1.47" height="36.77" rx=".29" ry=".29" transform="translate(54.34 218.63) rotate(-73.17)"/></g><g id="LWPOLYLINE-24"><rect class="cls-2" x="173.69" y="26.69" width="1.47" height="36.77" rx=".29" ry=".29" transform="translate(80.8 198.99) rotate(-73.17)"/></g><g id="LWPOLYLINE-25"><rect class="cls-2" x="156.2" y="54.78" width="36.77" height="1.47" rx=".29" ry=".29" transform="translate(-6.4 27.15) rotate(-8.73)"/></g><g id="LWPOLYLINE-26"><rect class="cls-2" x="173.8" y="45.86" width="1.47" height="36.77" rx=".29" ry=".29" transform="translate(88.43 229.1) rotate(-82.63)"/></g><g id="LWPOLYLINE-27"><rect class="cls-2" x="172.51" y="45.14" width="4.08" height=".45"/></g><g id="LWPOLYLINE-28"><rect class="cls-2" x="172.51" y="55.18" width="4.08" height=".45"/></g><g id="LWPOLYLINE-29"><rect class="cls-2" x="172.51" y="63.86" width="4.08" height=".45"/></g><g id="LWPOLYLINE-30"><rect class="cls-2" x="156.16" y="86.76" width="36.77" height="1.47" rx=".29" ry=".29" transform="translate(-16.69 48.11) rotate(-14.99)"/></g><g id="LWPOLYLINE-31"><rect class="cls-2" x="173.69" y="84.02" width="1.47" height="36.77" rx=".29" ry=".29" transform="translate(25.92 239.73) rotate(-73.17)"/></g><g id="LWPOLYLINE-32"><rect class="cls-2" x="172.51" y="72.78" width="4.08" height=".45"/></g><g id="LWPOLYLINE-33"><rect class="cls-2" x="172.51" y="87.25" width="4.08" height=".45"/></g><g id="LWPOLYLINE-34"><rect class="cls-2" x="172.51" y="102.47" width="4.08" height=".45"/></g><g id="LWPOLYLINE-35"><rect class="cls-2" x="172.51" y="112.51" width="4.08" height=".45"/></g><g id="LWPOLYLINE-36"><rect class="cls-2" x="156.16" y="125.35" width="36.77" height="1.47" rx=".29" ry=".29" transform="translate(-26.67 49.42) rotate(-14.99)"/></g><g id="LWPOLYLINE-37"><rect class="cls-2" x="172.51" y="125.84" width="4.08" height=".45"/></g><g id="LWPOLYLINE-38"><rect class="cls-2" x="43.99" y="94.51" width="1.47" height="36.77" rx=".29" ry=".29" transform="translate(-72.97 142.76) rotate(-82.63)"/></g><g id="LWPOLYLINE-39"><rect class="cls-2" x="43.88" y="54.33" width="1.47" height="36.77" rx=".29" ry=".29" transform="translate(-37.9 94.37) rotate(-73.17)"/></g><g id="LWPOLYLINE-40"><rect class="cls-2" x="43.88" y="26.69" width="1.47" height="36.77" rx=".29" ry=".29" transform="translate(-11.44 74.73) rotate(-73.17)"/></g><g id="LWPOLYLINE-41"><rect class="cls-2" x="26.38" y="54.78" width="36.77" height="1.47" rx=".29" ry=".29" transform="translate(-7.91 7.44) rotate(-8.73)"/></g><g id="LWPOLYLINE-42"><rect class="cls-2" x="43.99" y="45.86" width="1.47" height="36.77" rx=".29" ry=".29" transform="translate(-24.73 100.36) rotate(-82.63)"/></g><g id="LWPOLYLINE-43"><rect class="cls-2" x="42.7" y="45.14" width="4.08" height=".45"/></g><g id="LWPOLYLINE-44"><rect class="cls-2" x="42.7" y="55.18" width="4.08" height=".45"/></g><g id="LWPOLYLINE-45"><rect class="cls-2" x="42.7" y="63.86" width="4.08" height=".45"/></g><g id="LWPOLYLINE-46"><rect class="cls-2" x="26.35" y="86.76" width="36.77" height="1.47" rx=".29" ry=".29" transform="translate(-21.1 14.54) rotate(-14.99)"/></g><g id="LWPOLYLINE-47"><rect class="cls-2" x="43.88" y="84.02" width="1.47" height="36.77" rx=".29" ry=".29" transform="translate(-66.32 115.47) rotate(-73.17)"/></g><g id="LWPOLYLINE-48"><rect class="cls-2" x="42.7" y="72.78" width="4.08" height=".45"/></g><g id="LWPOLYLINE-49"><rect class="cls-2" x="42.7" y="87.25" width="4.08" height=".45"/></g><g id="LWPOLYLINE-50"><rect class="cls-2" x="42.7" y="102.47" width="4.08" height=".45"/></g><g id="LWPOLYLINE-51"><rect class="cls-2" x="42.7" y="112.51" width="4.08" height=".45"/></g><g id="LWPOLYLINE-52"><rect class="cls-2" x="26.35" y="125.35" width="36.77" height="1.47" rx=".29" ry=".29" transform="translate(-31.08 15.86) rotate(-14.99)"/></g><g id="LWPOLYLINE-53"><rect class="cls-2" x="42.7" y="125.84" width="4.08" height=".45"/></g><g id="CIRCLE"><circle class="cls-2" cx="388.48" cy="231.07" r="2.59"/></g><g id="CIRCLE-2"><circle class="cls-2" cx="388.48" cy="231.07" r="4.41"/></g><g id="LWPOLYLINE-54"><path class="cls-2" d="m362.52,164.74c.09.49.09,1,0,1.49-.41,2.2-2.53,3.64-4.73,3.23s-3.64-2.53-3.23-4.73"/></g><g id="LWPOLYLINE-55"><line class="cls-2" x1="362.93" y1="164.74" x2="354.17" y2="164.74"/></g><g id="LWPOLYLINE-56"><path class="cls-2" d="m354.52,153.83c-.09-.49-.09-1,0-1.49.41-2.2,2.53-3.64,4.73-3.23s3.64,2.53,3.23,4.73"/></g><g id="LWPOLYLINE-57"><line class="cls-2" x1="354.11" y1="153.83" x2="362.87" y2="153.83"/></g><g id="LWPOLYLINE-58"><path class="cls-2" d="m398.12,164.74c.09.49.09,1,0,1.49-.41,2.2-2.53,3.64-4.73,3.23s-3.64-2.53-3.23-4.73"/></g><g id="LWPOLYLINE-59"><line class="cls-2" x1="398.52" y1="164.74" x2="389.77" y2="164.74"/></g><g id="LWPOLYLINE-60"><path class="cls-2" d="m390.11,153.83c-.09-.49-.09-1,0-1.49.41-2.2,2.53-3.64,4.73-3.23s3.64,2.53,3.23,4.73"/></g><g id="LWPOLYLINE-61"><line class="cls-2" x1="389.71" y1="153.83" x2="398.46" y2="153.83"/></g><g id="CIRCLE-3"><circle class="cls-2" cx="391.59" cy="89.69" r="2.59"/></g><g id="CIRCLE-4"><circle class="cls-2" cx="391.59" cy="89.69" r="4.41"/></g><g id="LWPOLYLINE-62"><path class="cls-2" d="m245.01,306.74c-.09-.49-.09-1,0-1.49.41-2.2,2.53-3.64,4.73-3.23s3.64,2.53,3.23,4.73"/></g><g id="LWPOLYLINE-63"><line class="cls-2" x1="244.61" y1="306.74" x2="253.36" y2="306.74"/></g><g id="CIRCLE-5"><circle class="cls-2" cx="314.95" cy="231.07" r="4.41"/></g><g id="CIRCLE-6"><circle class="cls-2" cx="314.95" cy="231.07" r="2.59"/></g><g id="CIRCLE-7"><circle class="cls-2" cx="318.06" cy="89.69" r="4.41"/></g><g id="CIRCLE-8"><circle class="cls-2" cx="318.06" cy="89.69" r="2.59"/></g><g id="CIRCLE-9"><circle class="cls-2" cx="244.53" cy="89.69" r="2.59"/></g><g id="CIRCLE-10"><circle class="cls-2" cx="244.53" cy="89.69" r="4.41"/></g><g id="LWPOLYLINE-64"><path class="cls-2" d="m208.25,306.74c-.09-.49-.09-1,0-1.49.41-2.2,2.53-3.64,4.73-3.23s3.64,2.53,3.23,4.73"/></g><g id="LWPOLYLINE-65"><line class="cls-2" x1="207.84" y1="306.74" x2="216.6" y2="306.74"/></g><g id="LWPOLYLINE-66"><path class="cls-2" d="m182.3,306.74c-.09-.49-.09-1,0-1.49.41-2.2,2.53-3.64,4.73-3.23s3.64,2.53,3.23,4.73"/></g><g id="LWPOLYLINE-67"><line class="cls-2" x1="181.89" y1="306.74" x2="190.64" y2="306.74"/></g><g id="LWPOLYLINE-68"><path class="cls-2" d="m145.53,306.74c-.09-.49-.09-1,0-1.49.41-2.2,2.53-3.64,4.73-3.23s3.64,2.53,3.23,4.73"/></g><g id="LWPOLYLINE-69"><line class="cls-2" x1="145.12" y1="306.74" x2="153.88" y2="306.74"/></g><g id="CIRCLE-11"><circle class="cls-2" cx="146.56" cy="223.12" r="2.59"/></g><g id="CIRCLE-12"><circle class="cls-2" cx="146.56" cy="223.12" r="4.41"/></g><g id="CIRCLE-13"><circle class="cls-2" cx="220.09" cy="223.12" r="4.41"/></g><g id="CIRCLE-14"><circle class="cls-2" cx="220.09" cy="223.12" r="2.59"/></g><g id="CIRCLE-15"><circle class="cls-2" cx="114.02" cy="85.62" r="3.51"/></g><g id="CIRCLE-16"><circle class="cls-2" cx="114.02" cy="85.62" r="11.03"/></g><g id="CIRCLE-17"><circle class="cls-2" cx="73.03" cy="223.12" r="4.41"/></g><g id="CIRCLE-18"><circle class="cls-2" cx="73.03" cy="223.12" r="2.59"/></g><g id="LINE-187"><line class="cls-2" x1="449.94" y1="71.39" x2="449.94" y2="148.4"/></g><g id="LINE-188"><line class="cls-2" x1="452.88" y1="71.39" x2="452.88" y2="148.4"/></g><g id="LINE-189"><line class="cls-2" x1="449.94" y1="246.6" x2="449.94" y2="169.6"/></g><g id="LINE-190"><line class="cls-2" x1="452.88" y1="246.61" x2="452.88" y2="169.6"/></g><g id="LWPOLYLINE-70"><rect class="cls-2" x="173.3" y="23.85" width="2.21" height="125"/></g><g id="LINE-191"><line class="cls-2" x1="188.29" y1="36.91" x2="175.5" y2="37.64"/></g><g id="LINE-192"><line class="cls-2" x1="188.29" y1="33.77" x2="175.5" y2="33.03"/></g><g id="ARC-5"><path class="cls-2" d="m188.29,36.91c.87,0,1.57-.7,1.57-1.57s-.7-1.57-1.57-1.57"/></g><g id="ARC-6"><path class="cls-2" d="m160.51,33.77c-.87,0-1.57.7-1.57,1.57s.7,1.57,1.57,1.57"/></g><g id="LINE-193"><line class="cls-2" x1="160.51" y1="33.77" x2="173.3" y2="33.03"/></g><g id="LINE-194"><line class="cls-2" x1="160.51" y1="36.91" x2="173.3" y2="37.64"/></g><g id="LINE-195"><line class="cls-2" x1="188.29" y1="135.79" x2="175.5" y2="135.06"/></g><g id="LINE-196"><line class="cls-2" x1="188.29" y1="138.93" x2="175.5" y2="139.67"/></g><g id="ARC-7"><path class="cls-2" d="m188.29,138.93c.87,0,1.57-.7,1.57-1.57s-.7-1.57-1.57-1.57"/></g><g id="ARC-8"><path class="cls-2" d="m160.51,135.79c-.87,0-1.57.7-1.57,1.57s.7,1.57,1.57,1.57"/></g><g id="LINE-197"><line class="cls-2" x1="160.51" y1="138.93" x2="173.3" y2="139.67"/></g><g id="LINE-198"><line class="cls-2" x1="160.51" y1="135.79" x2="173.3" y2="135.06"/></g><g id="LWPOLYLINE-71"><rect class="cls-2" x="43.49" y="23.85" width="2.21" height="125"/></g><g id="LINE-199"><line class="cls-2" x1="58.48" y1="36.91" x2="45.69" y2="37.64"/></g><g id="LINE-200"><line class="cls-2" x1="58.48" y1="33.77" x2="45.69" y2="33.03"/></g><g id="ARC-9"><path class="cls-2" d="m58.48,36.91c.87,0,1.57-.7,1.57-1.57s-.7-1.57-1.57-1.57"/></g><g id="ARC-10"><path class="cls-2" d="m30.7,33.77c-.87,0-1.57.7-1.57,1.57s.7,1.57,1.57,1.57"/></g><g id="LINE-201"><line class="cls-2" x1="30.7" y1="33.77" x2="43.49" y2="33.03"/></g><g id="LINE-202"><line class="cls-2" x1="30.7" y1="36.91" x2="43.49" y2="37.64"/></g><g id="LINE-203"><line class="cls-2" x1="58.48" y1="135.79" x2="45.69" y2="135.06"/></g><g id="LINE-204"><line class="cls-2" x1="58.48" y1="138.93" x2="45.69" y2="139.67"/></g><g id="ARC-11"><path class="cls-2" d="m58.48,138.93c.87,0,1.57-.7,1.57-1.57s-.7-1.57-1.57-1.57"/></g><g id="ARC-12"><path class="cls-2" d="m30.7,135.79c-.87,0-1.57.7-1.57,1.57s.7,1.57,1.57,1.57"/></g><g id="LINE-205"><line class="cls-2" x1="30.7" y1="138.93" x2="43.49" y2="139.67"/></g><g id="LINE-206"><line class="cls-2" x1="30.7" y1="135.79" x2="43.49" y2="135.06"/></g><g id="LINE-207"><line class="cls-2" x1="209.59" y1="19.31" x2="297.83" y2="52.4"/></g><g id="LINE-208"><line class="cls-2" x1="297.83" y1="19.31" x2="209.59" y2="52.4"/></g><g id="LINE-209"><line class="cls-2" x1="297.83" y1="19.31" x2="209.59" y2="19.31"/></g><g id="LINE-210"><line class="cls-2" x1="209.59" y1="52.4" x2="297.83" y2="52.4"/></g><g id="LINE-211"><line class="cls-2" x1="273.32" y1="48.58" x2="278.5" y2="52.4"/></g><g id="LINE-212"><line class="cls-2" x1="278.5" y1="52.4" x2="273.32" y2="56.22"/></g><g id="LINE-213"><line class="cls-2" x1="273.32" y1="56.22" x2="273.32" y2="48.58"/></g><g id="LINE-214"><line class="cls-2" x1="297.83" y1="52.4" x2="297.83" y2="19.31"/></g><g id="LINE-215"><line class="cls-2" x1="209.59" y1="19.31" x2="209.59" y2="52.4"/></g><g id="LINE-216"><line class="cls-2" x1="234.11" y1="56.22" x2="234.11" y2="48.58"/></g><g id="LINE-217"><line class="cls-2" x1="234.11" y1="48.58" x2="228.93" y2="52.4"/></g><g id="LINE-218"><line class="cls-2" x1="228.93" y1="52.4" x2="234.11" y2="56.22"/></g></svg>