<?xml version="1.0" encoding="UTF-8"?><svg id="ARREDI_attrezzature_-_furniture" xmlns="http://www.w3.org/2000/svg" width="261.91" height="293.11" viewBox="0 0 261.91 293.11"><defs><style>.cls-1{stroke:#4c4c99;}.cls-1,.cls-2,.cls-3,.cls-4,.cls-5,.cls-6{fill:none;stroke-linecap:round;stroke-linejoin:round;}.cls-1,.cls-3{stroke-width:.26px;}.cls-2{stroke:#000;stroke-width:1.13px;}.cls-3{stroke:#4c9a85;}.cls-4{stroke-width:5.98px;}.cls-4,.cls-6{stroke:#848484;}.cls-5{stroke:#ff0;stroke-width:.71px;}.cls-6{stroke-dasharray:0 0 3.75 1.87;stroke-width:.14px;}</style></defs><g id="LWPOLYLINE"><polyline class="cls-2" points="239.18 278.14 239.18 282.57 17.81 282.57 17.81 278.14 239.18 278.14"/></g><g id="LWPOLYLINE-2"><polyline class="cls-2" points="239.18 50.94 239.18 46.51 163.91 46.51 163.91 50.94 239.18 50.94"/></g><g id="LWPOLYLINE-3"><polyline class="cls-2" points="22.24 278.14 17.81 278.14 17.81 169.7 22.24 169.7 22.24 278.14"/></g><g id="LWPOLYLINE-4"><polyline class="cls-2" points="126.28 107 123.33 107 123.33 278.14 126.28 278.14 126.28 107"/></g><g id="LWPOLYLINE-5"><polyline class="cls-2" points="22.24 107 22.24 104.05 90.87 104.05 90.87 107 22.24 107"/></g><g id="LWPOLYLINE-6"><polyline class="cls-2" points="87.92 124.7 84.97 124.7 84.97 107 87.92 107 87.92 124.7"/></g><g id="LWPOLYLINE-7"><polyline class="cls-2" points="121.86 107 121.86 104.05 135.13 104.05 135.13 107 121.86 107"/></g><g id="LWPOLYLINE-8"><polyline class="cls-2" points="51.82 172.65 51.82 169.7 22.24 169.7 22.24 172.65 51.82 172.65"/></g><g id="LWPOLYLINE-9"><polyline class="cls-2" points="78.3 67.17 75.35 67.17 75.35 50.94 78.3 50.94 78.3 67.17"/></g><g id="LWPOLYLINE-10"><polyline class="cls-2" points="78.3 104.05 75.35 104.05 75.35 98.15 78.3 98.15 78.3 104.05"/></g><g id="LWPOLYLINE-11"><polyline class="cls-2" points="130.71 107 133.66 107 133.66 278.14 130.71 278.14 130.71 107"/></g><g id="LWPOLYLINE-12"><polyline class="cls-2" points="234.75 107 234.75 104.05 166.12 104.05 166.12 107 234.75 107"/></g><g id="LWPOLYLINE-13"><polyline class="cls-2" points="202.29 160.11 202.29 157.16 234.75 157.16 234.75 160.11 202.29 160.11"/></g><g id="LWPOLYLINE-14"><polyline class="cls-2" points="178.69 67.17 181.64 67.17 181.64 50.94 178.69 50.94 178.69 67.17"/></g><g id="LWPOLYLINE-15"><polyline class="cls-2" points="178.69 104.05 181.64 104.05 181.64 98.15 178.69 98.15 178.69 104.05"/></g><g id="LWPOLYLINE-16"><polyline class="cls-2" points="126.28 104.05 130.71 104.05 130.71 50.94 126.28 50.94 126.28 104.05"/></g><g id="LWPOLYLINE-17"><polyline class="cls-2" points="169.07 124.7 172.02 124.7 172.02 107 169.07 107 169.07 124.7"/></g><g id="LWPOLYLINE-18"><polyline class="cls-2" points="17.81 169.7 20.76 169.7 20.76 107 17.81 107 17.81 169.7"/></g><g id="LWPOLYLINE-19"><polyline class="cls-2" points="17.81 107 22.24 107 22.24 50.94 17.81 50.94 17.81 107"/></g><g id="LWPOLYLINE-20"><polyline class="cls-2" points="234.75 278.14 239.18 278.14 239.18 157.16 234.75 157.16 234.75 278.14"/></g><g id="LWPOLYLINE-21"><polyline class="cls-2" points="239.18 157.16 236.23 157.16 236.23 107 239.18 107 239.18 157.16"/></g><g id="LWPOLYLINE-22"><polyline class="cls-2" points="239.18 107 234.75 107 234.75 50.94 239.18 50.94 239.18 107"/></g><g id="LWPOLYLINE-23"><polyline class="cls-2" points="17.82 50.94 17.82 46.51 93.09 46.51 93.09 50.94 17.82 50.94"/></g><g id="LWPOLYLINE-24"><polyline class="cls-2" points="124.07 50.94 124.07 46.51 132.92 46.51 132.92 50.94 124.07 50.94"/></g><g id="LWPOLYLINE-25"><polyline class="cls-2" points="239.18 40.61 253.93 40.61 253.93 288.47 239.18 288.47 239.18 40.61"/></g><g id="LWPOLYLINE-26"><polyline class="cls-2" points="3.06 40.61 17.81 40.61 17.81 288.47 3.06 288.47 3.06 40.61"/></g><g id="LWPOLYLINE-27"><polyline class="cls-5" points="123.33 245.68 123.33 247.16 84.97 247.16 84.97 245.68 123.33 245.68"/></g><g id="LWPOLYLINE-28"><polyline class="cls-5" points="123.33 213.22 123.33 214.7 84.97 214.7 84.97 213.22 123.33 213.22"/></g><g id="LWPOLYLINE-29"><polyline class="cls-5" points="123.33 180.77 123.33 182.24 84.97 182.24 84.97 180.77 123.33 180.77"/></g><g id="LWPOLYLINE-30"><polyline class="cls-5" points="123.33 148.31 123.33 149.79 84.97 149.79 84.97 148.31 123.33 148.31"/></g><g id="LWPOLYLINE-31"><polyline class="cls-5" points="133.66 245.68 133.66 247.16 172.02 247.16 172.02 245.68 133.66 245.68"/></g><g id="LWPOLYLINE-32"><polyline class="cls-5" points="133.66 213.22 133.66 214.7 172.02 214.7 172.02 213.22 133.66 213.22"/></g><g id="LWPOLYLINE-33"><polyline class="cls-5" points="133.66 180.77 133.66 182.24 172.02 182.24 172.02 180.77 133.66 180.77"/></g><g id="LWPOLYLINE-34"><polyline class="cls-5" points="133.66 148.31 133.66 149.79 172.02 149.79 172.02 148.31 133.66 148.31"/></g><g id="LWPOLYLINE-35"><polyline class="cls-5" points="202.29 278.14 203.77 278.14 203.77 239.78 202.29 239.78 202.29 278.14"/></g><g id="LWPOLYLINE-36"><polyline class="cls-5" points="202.29 160.11 203.77 160.11 203.77 198.47 202.29 198.47 202.29 160.11"/></g><g id="LWPOLYLINE-37"><polyline class="cls-4" points="65.15 256.84 65.37 256.62 65.59 256.41 65.82 256.2 66.05 255.99 66.28 255.78 66.51 255.57 66.74 255.37 66.98 255.17 67.22 254.97 67.46 254.78 67.7 254.58 67.95 254.39 68.2 254.21 68.45 254.02 68.7 253.84 68.95 253.66 69.21 253.49 69.46 253.31 69.72 253.14 69.98 252.98 70.25 252.81 70.51 252.65 70.78 252.49 71.05 252.34 71.32 252.18 71.59 252.03 71.86 251.89 71.87 251.88"/></g><g id="LWPOLYLINE-38"><polyline class="cls-4" points="75.93 250.13 76.13 250.06 76.43 249.97 76.72 249.87 77.02 249.78 77.32 249.7 77.62 249.61 77.92 249.53 78.22 249.46 78.52 249.39 78.82 249.32 79.12 249.25 79.43 249.19 79.73 249.13 80.04 249.07 80.34 249.02 80.65 248.97 80.95 248.92 81.26 248.88 81.57 248.84 81.88 248.8 82.19 248.77 82.49 248.74 82.8 248.72 83.11 248.69 83.42 248.68 83.73 248.66 84.04 248.65 84.35 248.64 84.63 248.63"/></g><g id="LWPOLYLINE-39"><polyline class="cls-4" points="87.92 247.16 87.92 249.37 86.45 249.37"/></g><g id="LWPOLYLINE-40"><line class="cls-4" x1="84.97" y1="248.63" x2="84.97" y2="247.16"/></g><g id="LWPOLYLINE-41"><line class="cls-4" x1="86.45" y1="248.63" x2="86.45" y2="276.66"/></g><g id="LWPOLYLINE-42"><line class="cls-4" x1="84.97" y1="276.66" x2="81.33" y2="273.02"/></g><g id="LWPOLYLINE-43"><line class="cls-4" x1="78.19" y1="269.89" x2="71.93" y2="263.62"/></g><g id="LWPOLYLINE-44"><line class="cls-4" x1="68.8" y1="260.49" x2="65.15" y2="256.84"/></g><g id="LWPOLYLINE-45"><line class="cls-4" x1="87.92" y1="249.37" x2="87.92" y2="260.43"/></g><g id="LWPOLYLINE-46"><line class="cls-4" x1="87.92" y1="264.86" x2="87.92" y2="275.93"/></g><g id="LWPOLYLINE-47"><line class="cls-4" x1="87.92" y1="247.16" x2="84.97" y2="247.16"/></g><g id="LWPOLYLINE-48"><line class="cls-4" x1="86.45" y1="248.63" x2="84.97" y2="248.63"/></g><g id="LWPOLYLINE-49"><polyline class="cls-4" points="86.45 276.66 84.97 276.66 84.97 278.14 87.92 278.14 87.92 275.93 86.45 275.93"/></g><g id="LWPOLYLINE-50"><line class="cls-4" x1="87.92" y1="247.9" x2="84.97" y2="247.9"/></g><g id="LWPOLYLINE-51"><line class="cls-4" x1="87.92" y1="277.4" x2="84.97" y2="277.4"/></g><g id="LWPOLYLINE-52"><line class="cls-4" x1="84.97" y1="248.63" x2="84.97" y2="276.66"/></g><g id="LWPOLYLINE-53"><polyline class="cls-4" points="65.15 224.39 65.37 224.17 65.59 223.95 65.82 223.74 66.05 223.53 66.28 223.32 66.51 223.12 66.74 222.91 66.98 222.71 67.22 222.51 67.46 222.32 67.7 222.13 67.95 221.94 68.2 221.75 68.45 221.57 68.7 221.38 68.95 221.21 69.21 221.03 69.46 220.86 69.72 220.69 69.98 220.52 70.25 220.35 70.51 220.19 70.78 220.04 71.05 219.88 71.32 219.73 71.59 219.58 71.86 219.43 71.87 219.43"/></g><g id="LWPOLYLINE-54"><polyline class="cls-4" points="75.93 217.67 76.13 217.61 76.43 217.51 76.72 217.42 77.02 217.33 77.32 217.24 77.62 217.16 77.92 217.08 78.22 217 78.52 216.93 78.82 216.86 79.12 216.79 79.43 216.73 79.73 216.67 80.04 216.61 80.34 216.56 80.65 216.51 80.95 216.46 81.26 216.42 81.57 216.38 81.88 216.35 82.19 216.31 82.49 216.29 82.8 216.26 83.11 216.24 83.42 216.22 83.73 216.2 84.04 216.19 84.35 216.18 84.63 216.18"/></g><g id="LWPOLYLINE-55"><polyline class="cls-4" points="87.92 214.7 87.92 216.91 86.45 216.91"/></g><g id="LWPOLYLINE-56"><line class="cls-4" x1="84.97" y1="216.18" x2="84.97" y2="214.7"/></g><g id="LWPOLYLINE-57"><line class="cls-4" x1="86.45" y1="216.18" x2="86.45" y2="244.21"/></g><g id="LWPOLYLINE-58"><line class="cls-4" x1="84.97" y1="244.21" x2="81.33" y2="240.56"/></g><g id="LWPOLYLINE-59"><line class="cls-4" x1="78.19" y1="237.43" x2="71.93" y2="231.16"/></g><g id="LWPOLYLINE-60"><line class="cls-4" x1="68.8" y1="228.03" x2="65.15" y2="224.39"/></g><g id="LWPOLYLINE-61"><line class="cls-4" x1="87.92" y1="216.91" x2="87.92" y2="227.98"/></g><g id="LWPOLYLINE-62"><line class="cls-4" x1="87.92" y1="232.41" x2="87.92" y2="243.47"/></g><g id="LWPOLYLINE-63"><line class="cls-4" x1="87.92" y1="214.7" x2="84.97" y2="214.7"/></g><g id="LWPOLYLINE-64"><line class="cls-4" x1="86.45" y1="216.18" x2="84.97" y2="216.18"/></g><g id="LWPOLYLINE-65"><polyline class="cls-4" points="86.45 244.21 84.97 244.21 84.97 245.68 87.92 245.68 87.92 243.47 86.45 243.47"/></g><g id="LWPOLYLINE-66"><line class="cls-4" x1="87.92" y1="215.44" x2="84.97" y2="215.44"/></g><g id="LWPOLYLINE-67"><line class="cls-4" x1="87.92" y1="244.94" x2="84.97" y2="244.94"/></g><g id="LWPOLYLINE-68"><line class="cls-4" x1="84.97" y1="216.18" x2="84.97" y2="244.21"/></g><g id="LWPOLYLINE-69"><polyline class="cls-4" points="65.15 191.93 65.37 191.71 65.59 191.49 65.82 191.28 66.05 191.07 66.28 190.86 66.51 190.66 66.74 190.45 66.98 190.25 67.22 190.06 67.46 189.86 67.7 189.67 67.95 189.48 68.2 189.29 68.45 189.11 68.7 188.93 68.95 188.75 69.21 188.57 69.46 188.4 69.72 188.23 69.98 188.06 70.25 187.9 70.51 187.74 70.78 187.58 71.05 187.42 71.32 187.27 71.59 187.12 71.86 186.97 71.87 186.97"/></g><g id="LWPOLYLINE-70"><polyline class="cls-4" points="75.93 185.22 76.13 185.15 76.43 185.05 76.72 184.96 77.02 184.87 77.32 184.78 77.62 184.7 77.92 184.62 78.22 184.54 78.52 184.47 78.82 184.4 79.12 184.34 79.43 184.27 79.73 184.21 80.04 184.16 80.34 184.1 80.65 184.05 80.95 184.01 81.26 183.97 81.57 183.93 81.88 183.89 82.19 183.86 82.49 183.83 82.8 183.8 83.11 183.78 83.42 183.76 83.73 183.75 84.04 183.73 84.35 183.73 84.63 183.72"/></g><g id="LWPOLYLINE-71"><polyline class="cls-4" points="87.92 182.24 87.92 184.46 86.45 184.46"/></g><g id="LWPOLYLINE-72"><line class="cls-4" x1="84.97" y1="183.72" x2="84.97" y2="182.24"/></g><g id="LWPOLYLINE-73"><line class="cls-4" x1="86.45" y1="183.72" x2="86.45" y2="211.75"/></g><g id="LWPOLYLINE-74"><line class="cls-4" x1="84.97" y1="211.75" x2="81.33" y2="208.1"/></g><g id="LWPOLYLINE-75"><line class="cls-4" x1="78.19" y1="204.97" x2="71.93" y2="198.71"/></g><g id="LWPOLYLINE-76"><line class="cls-4" x1="68.8" y1="195.57" x2="65.15" y2="191.93"/></g><g id="LWPOLYLINE-77"><line class="cls-4" x1="87.92" y1="184.46" x2="87.92" y2="195.52"/></g><g id="LWPOLYLINE-78"><line class="cls-4" x1="87.92" y1="199.95" x2="87.92" y2="211.01"/></g><g id="LWPOLYLINE-79"><line class="cls-4" x1="87.92" y1="182.24" x2="84.97" y2="182.24"/></g><g id="LWPOLYLINE-80"><line class="cls-4" x1="86.45" y1="183.72" x2="84.97" y2="183.72"/></g><g id="LWPOLYLINE-81"><polyline class="cls-4" points="86.45 211.75 84.97 211.75 84.97 213.22 87.92 213.22 87.92 211.01 86.45 211.01"/></g><g id="LWPOLYLINE-82"><line class="cls-4" x1="87.92" y1="182.98" x2="84.97" y2="182.98"/></g><g id="LWPOLYLINE-83"><line class="cls-4" x1="87.92" y1="212.49" x2="84.97" y2="212.49"/></g><g id="LWPOLYLINE-84"><line class="cls-4" x1="84.97" y1="183.72" x2="84.97" y2="211.75"/></g><g id="LWPOLYLINE-85"><polyline class="cls-4" points="65.15 159.47 65.37 159.25 65.59 159.04 65.82 158.82 66.05 158.61 66.28 158.41 66.51 158.2 66.74 158 66.98 157.8 67.22 157.6 67.46 157.4 67.7 157.21 67.95 157.02 68.2 156.84 68.45 156.65 68.7 156.47 68.95 156.29 69.21 156.12 69.46 155.94 69.72 155.77 69.98 155.6 70.25 155.44 70.51 155.28 70.78 155.12 71.05 154.97 71.32 154.81 71.59 154.66 71.86 154.52 71.87 154.51"/></g><g id="LWPOLYLINE-86"><polyline class="cls-4" points="75.93 152.76 76.13 152.69 76.43 152.59 76.72 152.5 77.02 152.41 77.32 152.33 77.62 152.24 77.92 152.16 78.22 152.09 78.52 152.01 78.82 151.94 79.12 151.88 79.43 151.82 79.73 151.76 80.04 151.7 80.34 151.65 80.65 151.6 80.95 151.55 81.26 151.51 81.57 151.47 81.88 151.43 82.19 151.4 82.49 151.37 82.8 151.34 83.11 151.32 83.42 151.3 83.73 151.29 84.04 151.28 84.35 151.27 84.63 151.26"/></g><g id="LWPOLYLINE-87"><polyline class="cls-4" points="87.92 149.79 87.92 152 86.45 152"/></g><g id="LWPOLYLINE-88"><line class="cls-4" x1="84.97" y1="151.26" x2="84.97" y2="149.79"/></g><g id="LWPOLYLINE-89"><line class="cls-4" x1="86.45" y1="151.26" x2="86.45" y2="179.29"/></g><g id="LWPOLYLINE-90"><line class="cls-4" x1="84.97" y1="179.29" x2="81.33" y2="175.65"/></g><g id="LWPOLYLINE-91"><line class="cls-4" x1="78.19" y1="172.51" x2="71.93" y2="166.25"/></g><g id="LWPOLYLINE-92"><line class="cls-4" x1="68.8" y1="163.12" x2="65.15" y2="159.47"/></g><g id="LWPOLYLINE-93"><line class="cls-4" x1="87.92" y1="152" x2="87.92" y2="163.06"/></g><g id="LWPOLYLINE-94"><line class="cls-4" x1="87.92" y1="167.49" x2="87.92" y2="178.55"/></g><g id="LWPOLYLINE-95"><line class="cls-4" x1="87.92" y1="149.79" x2="84.97" y2="149.79"/></g><g id="LWPOLYLINE-96"><line class="cls-4" x1="86.45" y1="151.26" x2="84.97" y2="151.26"/></g><g id="LWPOLYLINE-97"><polyline class="cls-4" points="86.45 179.29 84.97 179.29 84.97 180.77 87.92 180.77 87.92 178.55 86.45 178.55"/></g><g id="LWPOLYLINE-98"><line class="cls-4" x1="87.92" y1="150.52" x2="84.97" y2="150.52"/></g><g id="LWPOLYLINE-99"><line class="cls-4" x1="87.92" y1="180.03" x2="84.97" y2="180.03"/></g><g id="LWPOLYLINE-100"><line class="cls-4" x1="84.97" y1="151.26" x2="84.97" y2="179.29"/></g><g id="ARC"><path class="cls-4" d="m92.35,107c0,15.48,12.55,28.03,28.03,28.03"/></g><g id="LWPOLYLINE-101"><polyline class="cls-4" points="90.87 104.05 93.09 104.05 93.09 105.53"/></g><g id="LWPOLYLINE-102"><line class="cls-4" x1="92.35" y1="107" x2="90.87" y2="107"/></g><g id="LWPOLYLINE-103"><line class="cls-4" x1="92.35" y1="105.53" x2="120.38" y2="105.53"/></g><g id="LWPOLYLINE-104"><line class="cls-4" x1="120.38" y1="107" x2="120.38" y2="135.03"/></g><g id="LWPOLYLINE-105"><line class="cls-4" x1="93.09" y1="104.05" x2="104.15" y2="104.05"/></g><g id="LWPOLYLINE-106"><line class="cls-4" x1="108.58" y1="104.05" x2="119.64" y2="104.05"/></g><g id="LWPOLYLINE-107"><line class="cls-4" x1="90.87" y1="104.05" x2="90.87" y2="107"/></g><g id="LWPOLYLINE-108"><line class="cls-4" x1="92.35" y1="105.53" x2="92.35" y2="107"/></g><g id="LWPOLYLINE-109"><polyline class="cls-4" points="120.38 105.53 120.38 107 121.86 107 121.86 104.05 119.64 104.05 119.64 105.53"/></g><g id="LWPOLYLINE-110"><line class="cls-4" x1="91.61" y1="104.05" x2="91.61" y2="107"/></g><g id="LWPOLYLINE-111"><line class="cls-4" x1="121.12" y1="104.05" x2="121.12" y2="107"/></g><g id="LWPOLYLINE-112"><line class="cls-4" x1="92.35" y1="107" x2="120.38" y2="107"/></g><g id="ARC-2"><path class="cls-4" d="m106.33,96.67c0-15.48-12.55-28.03-28.03-28.03"/></g><g id="LWPOLYLINE-113"><polyline class="cls-4" points="75.35 67.17 75.35 69.38 76.83 69.38"/></g><g id="LWPOLYLINE-114"><line class="cls-4" x1="78.3" y1="68.64" x2="78.3" y2="67.17"/></g><g id="LWPOLYLINE-115"><line class="cls-4" x1="76.83" y1="68.64" x2="76.83" y2="96.67"/></g><g id="LWPOLYLINE-116"><line class="cls-4" x1="78.3" y1="96.67" x2="106.33" y2="96.67"/></g><g id="LWPOLYLINE-117"><line class="cls-4" x1="75.35" y1="69.38" x2="75.35" y2="80.44"/></g><g id="LWPOLYLINE-118"><line class="cls-4" x1="75.35" y1="84.87" x2="75.35" y2="95.94"/></g><g id="LWPOLYLINE-119"><line class="cls-4" x1="75.35" y1="67.17" x2="78.3" y2="67.17"/></g><g id="LWPOLYLINE-120"><line class="cls-4" x1="76.83" y1="68.64" x2="78.3" y2="68.64"/></g><g id="LWPOLYLINE-121"><polyline class="cls-4" points="76.83 96.67 78.3 96.67 78.3 98.15 75.35 98.15 75.35 95.94 76.83 95.94"/></g><g id="LWPOLYLINE-122"><line class="cls-4" x1="75.35" y1="67.9" x2="78.3" y2="67.9"/></g><g id="LWPOLYLINE-123"><line class="cls-4" x1="75.35" y1="97.41" x2="78.3" y2="97.41"/></g><g id="LWPOLYLINE-124"><line class="cls-4" x1="78.3" y1="68.64" x2="78.3" y2="96.67"/></g><g id="LWPOLYLINE-125"><polyline class="cls-4" points="191.84 256.84 191.62 256.62 191.39 256.41 191.17 256.2 190.94 255.99 190.71 255.78 190.48 255.57 190.24 255.37 190.01 255.17 189.77 254.97 189.53 254.78 189.28 254.58 189.04 254.39 188.79 254.21 188.54 254.02 188.29 253.84 188.04 253.66 187.78 253.49 187.53 253.31 187.27 253.14 187 252.98 186.74 252.81 186.48 252.65 186.21 252.49 185.94 252.34 185.67 252.18 185.4 252.03 185.13 251.89 184.85 251.74 184.75 251.69"/></g><g id="LWPOLYLINE-126"><polyline class="cls-4" points="180.66 250 180.56 249.97 180.26 249.87 179.97 249.78 179.67 249.7 179.37 249.61 179.07 249.53 178.77 249.46 178.47 249.39 178.17 249.32 177.86 249.25 177.56 249.19 177.26 249.13 176.95 249.07 176.65 249.02 176.34 248.97 176.03 248.92 175.73 248.88 175.42 248.84 175.11 248.8 174.8 248.77 174.49 248.74 174.18 248.72 173.88 248.69 173.57 248.68 173.26 248.66 172.95 248.65 172.64 248.64 172.33 248.63 172.02 248.63"/></g><g id="LWPOLYLINE-127"><polyline class="cls-4" points="169.07 247.16 169.07 249.37 170.54 249.37"/></g><g id="LWPOLYLINE-128"><line class="cls-4" x1="172.02" y1="248.63" x2="172.02" y2="247.16"/></g><g id="LWPOLYLINE-129"><line class="cls-4" x1="170.54" y1="248.63" x2="170.54" y2="276.66"/></g><g id="LWPOLYLINE-130"><line class="cls-4" x1="172.02" y1="276.66" x2="175.66" y2="273.02"/></g><g id="LWPOLYLINE-131"><line class="cls-4" x1="178.79" y1="269.89" x2="185.06" y2="263.62"/></g><g id="LWPOLYLINE-132"><line class="cls-4" x1="188.19" y1="260.49" x2="191.84" y2="256.84"/></g><g id="LWPOLYLINE-133"><line class="cls-4" x1="169.07" y1="249.37" x2="169.07" y2="260.43"/></g><g id="LWPOLYLINE-134"><line class="cls-4" x1="169.07" y1="264.86" x2="169.07" y2="275.93"/></g><g id="LWPOLYLINE-135"><line class="cls-4" x1="169.07" y1="247.16" x2="172.02" y2="247.16"/></g><g id="LWPOLYLINE-136"><line class="cls-4" x1="170.54" y1="248.63" x2="172.02" y2="248.63"/></g><g id="LWPOLYLINE-137"><polyline class="cls-4" points="170.54 276.66 172.02 276.66 172.02 278.14 169.07 278.14 169.07 275.93 170.54 275.93"/></g><g id="LWPOLYLINE-138"><line class="cls-4" x1="169.07" y1="247.9" x2="172.02" y2="247.9"/></g><g id="LWPOLYLINE-139"><line class="cls-4" x1="169.07" y1="277.4" x2="172.02" y2="277.4"/></g><g id="LWPOLYLINE-140"><line class="cls-4" x1="172.02" y1="248.63" x2="172.02" y2="276.66"/></g><g id="LWPOLYLINE-141"><polyline class="cls-4" points="191.84 224.39 191.62 224.17 191.39 223.95 191.17 223.74 190.94 223.53 190.71 223.32 190.48 223.12 190.24 222.91 190.01 222.71 189.77 222.51 189.53 222.32 189.28 222.13 189.04 221.94 188.79 221.75 188.54 221.57 188.29 221.38 188.04 221.21 187.78 221.03 187.53 220.86 187.27 220.69 187 220.52 186.74 220.35 186.48 220.19 186.21 220.04 185.94 219.88 185.67 219.73 185.4 219.58 185.13 219.43 184.85 219.29 184.75 219.24"/></g><g id="LWPOLYLINE-142"><polyline class="cls-4" points="180.66 217.54 180.56 217.51 180.26 217.42 179.97 217.33 179.67 217.24 179.37 217.16 179.07 217.08 178.77 217 178.47 216.93 178.17 216.86 177.86 216.79 177.56 216.73 177.26 216.67 176.95 216.61 176.65 216.56 176.34 216.51 176.03 216.46 175.73 216.42 175.42 216.38 175.11 216.35 174.8 216.31 174.49 216.29 174.18 216.26 173.88 216.24 173.57 216.22 173.26 216.2 172.95 216.19 172.64 216.18 172.33 216.18 172.02 216.18"/></g><g id="LWPOLYLINE-143"><polyline class="cls-4" points="169.07 214.7 169.07 216.91 170.54 216.91"/></g><g id="LWPOLYLINE-144"><line class="cls-4" x1="172.02" y1="216.18" x2="172.02" y2="214.7"/></g><g id="LWPOLYLINE-145"><line class="cls-4" x1="170.54" y1="216.18" x2="170.54" y2="244.21"/></g><g id="LWPOLYLINE-146"><line class="cls-4" x1="172.02" y1="244.21" x2="175.66" y2="240.56"/></g><g id="LWPOLYLINE-147"><line class="cls-4" x1="178.79" y1="237.43" x2="185.06" y2="231.16"/></g><g id="LWPOLYLINE-148"><line class="cls-4" x1="188.19" y1="228.03" x2="191.84" y2="224.39"/></g><g id="LWPOLYLINE-149"><line class="cls-4" x1="169.07" y1="216.91" x2="169.07" y2="227.98"/></g><g id="LWPOLYLINE-150"><line class="cls-4" x1="169.07" y1="232.41" x2="169.07" y2="243.47"/></g><g id="LWPOLYLINE-151"><line class="cls-4" x1="169.07" y1="214.7" x2="172.02" y2="214.7"/></g><g id="LWPOLYLINE-152"><line class="cls-4" x1="170.54" y1="216.18" x2="172.02" y2="216.18"/></g><g id="LWPOLYLINE-153"><polyline class="cls-4" points="170.54 244.21 172.02 244.21 172.02 245.68 169.07 245.68 169.07 243.47 170.54 243.47"/></g><g id="LWPOLYLINE-154"><line class="cls-4" x1="169.07" y1="215.44" x2="172.02" y2="215.44"/></g><g id="LWPOLYLINE-155"><line class="cls-4" x1="169.07" y1="244.94" x2="172.02" y2="244.94"/></g><g id="LWPOLYLINE-156"><line class="cls-4" x1="172.02" y1="216.18" x2="172.02" y2="244.21"/></g><g id="LWPOLYLINE-157"><polyline class="cls-4" points="191.84 191.93 191.62 191.71 191.39 191.49 191.17 191.28 190.94 191.07 190.71 190.86 190.48 190.66 190.24 190.45 190.01 190.25 189.77 190.06 189.53 189.86 189.28 189.67 189.04 189.48 188.79 189.29 188.54 189.11 188.29 188.93 188.04 188.75 187.78 188.57 187.53 188.4 187.27 188.23 187 188.06 186.74 187.9 186.48 187.74 186.21 187.58 185.94 187.42 185.67 187.27 185.4 187.12 185.13 186.97 184.85 186.83 184.75 186.78"/></g><g id="LWPOLYLINE-158"><polyline class="cls-4" points="180.66 185.09 180.56 185.05 180.26 184.96 179.97 184.87 179.67 184.78 179.37 184.7 179.07 184.62 178.77 184.54 178.47 184.47 178.17 184.4 177.86 184.34 177.56 184.27 177.26 184.21 176.95 184.16 176.65 184.1 176.34 184.05 176.03 184.01 175.73 183.97 175.42 183.93 175.11 183.89 174.8 183.86 174.49 183.83 174.18 183.8 173.88 183.78 173.57 183.76 173.26 183.75 172.95 183.73 172.64 183.73 172.33 183.72 172.02 183.72"/></g><g id="LWPOLYLINE-159"><polyline class="cls-4" points="169.07 182.24 169.07 184.46 170.54 184.46"/></g><g id="LWPOLYLINE-160"><line class="cls-4" x1="172.02" y1="183.72" x2="172.02" y2="182.24"/></g><g id="LWPOLYLINE-161"><line class="cls-4" x1="170.54" y1="183.72" x2="170.54" y2="211.75"/></g><g id="LWPOLYLINE-162"><line class="cls-4" x1="172.02" y1="211.75" x2="175.66" y2="208.1"/></g><g id="LWPOLYLINE-163"><line class="cls-4" x1="178.79" y1="204.97" x2="185.06" y2="198.71"/></g><g id="LWPOLYLINE-164"><line class="cls-4" x1="188.19" y1="195.57" x2="191.84" y2="191.93"/></g><g id="LWPOLYLINE-165"><line class="cls-4" x1="169.07" y1="184.46" x2="169.07" y2="195.52"/></g><g id="LWPOLYLINE-166"><line class="cls-4" x1="169.07" y1="199.95" x2="169.07" y2="211.01"/></g><g id="LWPOLYLINE-167"><line class="cls-4" x1="169.07" y1="182.24" x2="172.02" y2="182.24"/></g><g id="LWPOLYLINE-168"><line class="cls-4" x1="170.54" y1="183.72" x2="172.02" y2="183.72"/></g><g id="LWPOLYLINE-169"><polyline class="cls-4" points="170.54 211.75 172.02 211.75 172.02 213.22 169.07 213.22 169.07 211.01 170.54 211.01"/></g><g id="LWPOLYLINE-170"><line class="cls-4" x1="169.07" y1="182.98" x2="172.02" y2="182.98"/></g><g id="LWPOLYLINE-171"><line class="cls-4" x1="169.07" y1="212.49" x2="172.02" y2="212.49"/></g><g id="LWPOLYLINE-172"><line class="cls-4" x1="172.02" y1="183.72" x2="172.02" y2="211.75"/></g><g id="LWPOLYLINE-173"><polyline class="cls-4" points="191.84 159.47 191.62 159.25 191.39 159.04 191.17 158.82 190.94 158.61 190.71 158.41 190.48 158.2 190.24 158 190.01 157.8 189.77 157.6 189.53 157.4 189.28 157.21 189.04 157.02 188.79 156.84 188.54 156.65 188.29 156.47 188.04 156.29 187.78 156.12 187.53 155.94 187.27 155.77 187 155.6 186.74 155.44 186.48 155.28 186.21 155.12 185.94 154.97 185.67 154.81 185.4 154.66 185.13 154.52 184.85 154.37 184.75 154.32"/></g><g id="LWPOLYLINE-174"><polyline class="cls-4" points="180.66 152.63 180.56 152.59 180.26 152.5 179.97 152.41 179.67 152.33 179.37 152.24 179.07 152.16 178.77 152.09 178.47 152.01 178.17 151.94 177.86 151.88 177.56 151.82 177.26 151.76 176.95 151.7 176.65 151.65 176.34 151.6 176.03 151.55 175.73 151.51 175.42 151.47 175.11 151.43 174.8 151.4 174.49 151.37 174.18 151.34 173.88 151.32 173.57 151.3 173.26 151.29 172.95 151.28 172.64 151.27 172.33 151.26 172.02 151.26"/></g><g id="LWPOLYLINE-175"><polyline class="cls-4" points="169.07 149.79 169.07 152 170.54 152"/></g><g id="LWPOLYLINE-176"><line class="cls-4" x1="172.02" y1="151.26" x2="172.02" y2="149.79"/></g><g id="LWPOLYLINE-177"><line class="cls-4" x1="170.54" y1="151.26" x2="170.54" y2="179.29"/></g><g id="LWPOLYLINE-178"><line class="cls-4" x1="172.02" y1="179.29" x2="175.66" y2="175.65"/></g><g id="LWPOLYLINE-179"><line class="cls-4" x1="178.79" y1="172.51" x2="185.06" y2="166.25"/></g><g id="LWPOLYLINE-180"><line class="cls-4" x1="188.19" y1="163.12" x2="191.84" y2="159.47"/></g><g id="LWPOLYLINE-181"><line class="cls-4" x1="169.07" y1="152" x2="169.07" y2="163.06"/></g><g id="LWPOLYLINE-182"><line class="cls-4" x1="169.07" y1="167.49" x2="169.07" y2="178.55"/></g><g id="LWPOLYLINE-183"><line class="cls-4" x1="169.07" y1="149.79" x2="172.02" y2="149.79"/></g><g id="LWPOLYLINE-184"><line class="cls-4" x1="170.54" y1="151.26" x2="172.02" y2="151.26"/></g><g id="LWPOLYLINE-185"><polyline class="cls-4" points="170.54 179.29 172.02 179.29 172.02 180.77 169.07 180.77 169.07 178.55 170.54 178.55"/></g><g id="LWPOLYLINE-186"><line class="cls-4" x1="169.07" y1="150.52" x2="172.02" y2="150.52"/></g><g id="LWPOLYLINE-187"><line class="cls-4" x1="169.07" y1="180.03" x2="172.02" y2="180.03"/></g><g id="LWPOLYLINE-188"><line class="cls-4" x1="172.02" y1="151.26" x2="172.02" y2="179.29"/></g><g id="ARC-3"><path class="cls-4" d="m136.61,135.03c15.48,0,28.03-12.55,28.03-28.03"/></g><g id="LWPOLYLINE-189"><polyline class="cls-4" points="166.12 104.05 163.9 104.05 163.9 105.53"/></g><g id="LWPOLYLINE-190"><line class="cls-4" x1="164.64" y1="107" x2="166.12" y2="107"/></g><g id="LWPOLYLINE-191"><line class="cls-4" x1="164.64" y1="105.53" x2="136.61" y2="105.53"/></g><g id="LWPOLYLINE-192"><line class="cls-4" x1="136.61" y1="107" x2="136.61" y2="135.03"/></g><g id="LWPOLYLINE-193"><line class="cls-4" x1="163.9" y1="104.05" x2="152.84" y2="104.05"/></g><g id="LWPOLYLINE-194"><line class="cls-4" x1="148.41" y1="104.05" x2="137.35" y2="104.05"/></g><g id="LWPOLYLINE-195"><line class="cls-4" x1="166.12" y1="104.05" x2="166.12" y2="107"/></g><g id="LWPOLYLINE-196"><line class="cls-4" x1="164.64" y1="105.53" x2="164.64" y2="107"/></g><g id="LWPOLYLINE-197"><polyline class="cls-4" points="136.61 105.53 136.61 107 135.13 107 135.13 104.05 137.35 104.05 137.35 105.53"/></g><g id="LWPOLYLINE-198"><line class="cls-4" x1="165.38" y1="104.05" x2="165.38" y2="107"/></g><g id="LWPOLYLINE-199"><line class="cls-4" x1="135.87" y1="104.05" x2="135.87" y2="107"/></g><g id="LWPOLYLINE-200"><line class="cls-4" x1="164.64" y1="107" x2="136.61" y2="107"/></g><g id="ARC-4"><path class="cls-4" d="m178.69,68.64c-15.48,0-28.03,12.55-28.03,28.03"/></g><g id="LWPOLYLINE-201"><polyline class="cls-4" points="181.64 67.17 181.64 69.38 180.16 69.38"/></g><g id="LWPOLYLINE-202"><line class="cls-4" x1="178.69" y1="68.64" x2="178.69" y2="67.17"/></g><g id="LWPOLYLINE-203"><line class="cls-4" x1="180.16" y1="68.64" x2="180.16" y2="96.67"/></g><g id="LWPOLYLINE-204"><line class="cls-4" x1="178.69" y1="96.67" x2="150.66" y2="96.67"/></g><g id="LWPOLYLINE-205"><line class="cls-4" x1="181.64" y1="69.38" x2="181.64" y2="80.44"/></g><g id="LWPOLYLINE-206"><line class="cls-4" x1="181.64" y1="84.87" x2="181.64" y2="95.94"/></g><g id="LWPOLYLINE-207"><line class="cls-4" x1="181.64" y1="67.17" x2="178.69" y2="67.17"/></g><g id="LWPOLYLINE-208"><line class="cls-4" x1="180.16" y1="68.64" x2="178.69" y2="68.64"/></g><g id="LWPOLYLINE-209"><polyline class="cls-4" points="180.16 96.67 178.69 96.67 178.69 98.15 181.64 98.15 181.64 95.94 180.16 95.94"/></g><g id="LWPOLYLINE-210"><line class="cls-4" x1="181.64" y1="67.9" x2="178.69" y2="67.9"/></g><g id="LWPOLYLINE-211"><line class="cls-4" x1="181.64" y1="97.41" x2="178.69" y2="97.41"/></g><g id="LWPOLYLINE-212"><line class="cls-4" x1="178.69" y1="68.64" x2="178.69" y2="96.67"/></g><g id="LWPOLYLINE-213"><polyline class="cls-4" points="213.45 219.96 213.24 220.18 213.02 220.4 212.81 220.63 212.6 220.86 212.39 221.09 212.18 221.32 211.98 221.55 211.78 221.79 211.58 222.03 211.39 222.27 211.19 222.51 211 222.76 210.82 223 210.63 223.25 210.45 223.51 210.27 223.76 210.1 224.01 209.92 224.27 209.75 224.53 209.59 224.79 209.42 225.06 209.26 225.32 209.1 225.59 208.95 225.85 208.79 226.12 208.65 226.4 208.5 226.67 208.36 226.94 208.31 227.04"/></g><g id="LWPOLYLINE-214"><polyline class="cls-4" points="206.61 231.13 206.58 231.24 206.48 231.53 206.4 231.83 206.31 232.13 206.23 232.43 206.15 232.73 206.07 233.03 206 233.33 205.93 233.63 205.86 233.93 205.8 234.24 205.74 234.54 205.68 234.85 205.63 235.15 205.58 235.46 205.53 235.76 205.49 236.07 205.45 236.38 205.41 236.69 205.38 236.99 205.35 237.3 205.33 237.61 205.31 237.92 205.29 238.23 205.27 238.54 205.26 238.85 205.25 239.16 205.25 239.47 205.24 239.78"/></g><g id="LWPOLYLINE-215"><polyline class="cls-4" points="203.77 242.73 205.98 242.73 205.98 241.26"/></g><g id="LWPOLYLINE-216"><line class="cls-4" x1="205.24" y1="239.78" x2="203.77" y2="239.78"/></g><g id="LWPOLYLINE-217"><line class="cls-4" x1="205.24" y1="241.26" x2="233.28" y2="241.26"/></g><g id="LWPOLYLINE-218"><line class="cls-4" x1="233.28" y1="239.78" x2="229.63" y2="236.14"/></g><g id="LWPOLYLINE-219"><line class="cls-4" x1="226.5" y1="233" x2="220.23" y2="226.74"/></g><g id="LWPOLYLINE-220"><line class="cls-4" x1="217.1" y1="223.6" x2="213.45" y2="219.96"/></g><g id="LWPOLYLINE-221"><line class="cls-4" x1="205.98" y1="242.73" x2="217.04" y2="242.73"/></g><g id="LWPOLYLINE-222"><line class="cls-4" x1="221.47" y1="242.73" x2="232.54" y2="242.73"/></g><g id="LWPOLYLINE-223"><line class="cls-4" x1="203.77" y1="242.73" x2="203.77" y2="239.78"/></g><g id="LWPOLYLINE-224"><line class="cls-4" x1="205.24" y1="241.26" x2="205.24" y2="239.78"/></g><g id="LWPOLYLINE-225"><polyline class="cls-4" points="233.28 241.26 233.28 239.78 234.75 239.78 234.75 242.73 232.54 242.73 232.54 241.26"/></g><g id="LWPOLYLINE-226"><line class="cls-4" x1="204.51" y1="242.73" x2="204.51" y2="239.78"/></g><g id="LWPOLYLINE-227"><line class="cls-4" x1="234.01" y1="242.73" x2="234.01" y2="239.78"/></g><g id="LWPOLYLINE-228"><line class="cls-4" x1="205.24" y1="239.78" x2="233.28" y2="239.78"/></g><g id="LWPOLYLINE-229"><polyline class="cls-4" points="213.45 218.29 213.24 218.07 213.02 217.85 212.81 217.62 212.6 217.4 212.39 217.17 212.18 216.93 211.98 216.7 211.78 216.46 211.58 216.22 211.39 215.98 211.19 215.74 211 215.49 210.82 215.25 210.63 215 210.45 214.75 210.27 214.49 210.1 214.24 209.92 213.98 209.75 213.72 209.59 213.46 209.42 213.2 209.26 212.93 209.1 212.67 208.95 212.4 208.79 212.13 208.65 211.86 208.5 211.58 208.49 211.57"/></g><g id="LWPOLYLINE-230"><polyline class="cls-4" points="206.74 207.51 206.67 207.31 206.58 207.02 206.48 206.72 206.4 206.42 206.31 206.12 206.23 205.83 206.15 205.53 206.07 205.23 206 204.92 205.93 204.62 205.86 204.32 205.8 204.02 205.74 203.71 205.68 203.41 205.63 203.1 205.58 202.79 205.53 202.49 205.49 202.18 205.45 201.87 205.41 201.57 205.38 201.26 205.35 200.95 205.33 200.64 205.31 200.33 205.29 200.02 205.27 199.71 205.26 199.4 205.25 199.09 205.25 198.81"/></g><g id="LWPOLYLINE-231"><polyline class="cls-4" points="203.77 195.52 205.98 195.52 205.98 197"/></g><g id="LWPOLYLINE-232"><line class="cls-4" x1="205.24" y1="198.47" x2="203.77" y2="198.47"/></g><g id="LWPOLYLINE-233"><line class="cls-4" x1="205.24" y1="197" x2="233.28" y2="197"/></g><g id="LWPOLYLINE-234"><line class="cls-4" x1="233.28" y1="198.47" x2="229.63" y2="202.12"/></g><g id="LWPOLYLINE-235"><line class="cls-4" x1="226.5" y1="205.25" x2="220.23" y2="211.51"/></g><g id="LWPOLYLINE-236"><line class="cls-4" x1="217.1" y1="214.65" x2="213.45" y2="218.29"/></g><g id="LWPOLYLINE-237"><line class="cls-4" x1="205.98" y1="195.52" x2="217.04" y2="195.52"/></g><g id="LWPOLYLINE-238"><line class="cls-4" x1="221.47" y1="195.52" x2="232.54" y2="195.52"/></g><g id="LWPOLYLINE-239"><line class="cls-4" x1="203.77" y1="195.52" x2="203.77" y2="198.47"/></g><g id="LWPOLYLINE-240"><line class="cls-4" x1="205.24" y1="197" x2="205.24" y2="198.47"/></g><g id="LWPOLYLINE-241"><polyline class="cls-4" points="233.28 197 233.28 198.47 234.75 198.47 234.75 195.52 232.54 195.52 232.54 197"/></g><g id="LWPOLYLINE-242"><line class="cls-4" x1="204.51" y1="195.52" x2="204.51" y2="198.47"/></g><g id="LWPOLYLINE-243"><line class="cls-4" x1="234.01" y1="195.52" x2="234.01" y2="198.47"/></g><g id="LWPOLYLINE-244"><line class="cls-4" x1="205.24" y1="198.47" x2="233.28" y2="198.47"/></g><g id="ARC-5"><path class="cls-6" d="m162.43,40.61c0-15.48-12.55-28.03-28.03-28.03"/></g><g id="LWPOLYLINE-245"><line class="cls-6" x1="134.4" y1="40.61" x2="134.4" y2="12.58"/></g><g id="ARC-6"><path class="cls-6" d="m122.6,12.58c-15.48,0-28.03,12.55-28.03,28.03"/></g><g id="LWPOLYLINE-246"><line class="cls-6" x1="122.6" y1="40.61" x2="122.6" y2="12.58"/></g><g id="LWPOLYLINE-247"><polyline class="cls-3" points="17.81 286.99 17.81 288.47 239.18 288.47 239.18 286.99 17.81 286.99"/></g><g id="LWPOLYLINE-248"><polyline class="cls-3" points="163.91 42.09 163.91 40.61 239.18 40.61 239.18 42.09 163.91 42.09"/></g><g id="LWPOLYLINE-249"><polyline class="cls-3" points="163.91 43.56 161.69 43.56 161.69 42.09"/></g><g id="LWPOLYLINE-250"><line class="cls-3" x1="162.43" y1="40.61" x2="163.91" y2="40.61"/></g><g id="LWPOLYLINE-251"><line class="cls-3" x1="162.43" y1="42.09" x2="134.4" y2="42.09"/></g><g id="LWPOLYLINE-252"><line class="cls-3" x1="161.69" y1="43.56" x2="150.63" y2="43.56"/></g><g id="LWPOLYLINE-253"><line class="cls-3" x1="146.2" y1="43.56" x2="135.14" y2="43.56"/></g><g id="LWPOLYLINE-254"><line class="cls-3" x1="163.91" y1="43.56" x2="163.91" y2="40.61"/></g><g id="LWPOLYLINE-255"><line class="cls-3" x1="162.43" y1="42.09" x2="162.43" y2="40.61"/></g><g id="LWPOLYLINE-256"><polyline class="cls-3" points="134.4 42.09 134.4 40.61 132.92 40.61 132.92 43.56 135.14 43.56 135.14 42.09"/></g><g id="LWPOLYLINE-257"><line class="cls-3" x1="163.17" y1="43.56" x2="163.17" y2="40.61"/></g><g id="LWPOLYLINE-258"><line class="cls-3" x1="133.66" y1="43.56" x2="133.66" y2="40.61"/></g><g id="LWPOLYLINE-259"><line class="cls-3" x1="162.43" y1="40.61" x2="134.4" y2="40.61"/></g><g id="LWPOLYLINE-260"><polyline class="cls-3" points="162.43 43.56 163.91 43.56 163.91 50.94 162.43 50.94 162.43 43.56"/></g><g id="LWPOLYLINE-261"><polyline class="cls-3" points="132.92 43.56 134.4 43.56 134.4 50.94 132.92 50.94 132.92 43.56"/></g><g id="LWPOLYLINE-262"><polyline class="cls-3" points="93.09 42.09 93.09 40.61 17.82 40.61 17.82 42.09 93.09 42.09"/></g><g id="LWPOLYLINE-263"><polyline class="cls-3" points="93.09 43.56 95.3 43.56 95.3 42.09"/></g><g id="LWPOLYLINE-264"><line class="cls-3" x1="94.57" y1="40.61" x2="93.09" y2="40.61"/></g><g id="LWPOLYLINE-265"><line class="cls-3" x1="94.57" y1="42.09" x2="122.6" y2="42.09"/></g><g id="LWPOLYLINE-266"><line class="cls-3" x1="95.3" y1="43.56" x2="106.37" y2="43.56"/></g><g id="LWPOLYLINE-267"><line class="cls-3" x1="110.8" y1="43.56" x2="121.86" y2="43.56"/></g><g id="LWPOLYLINE-268"><line class="cls-3" x1="93.09" y1="43.56" x2="93.09" y2="40.61"/></g><g id="LWPOLYLINE-269"><line class="cls-3" x1="94.57" y1="42.09" x2="94.57" y2="40.61"/></g><g id="LWPOLYLINE-270"><polyline class="cls-3" points="122.6 42.09 122.6 40.61 124.07 40.61 124.07 43.56 121.86 43.56 121.86 42.09"/></g><g id="LWPOLYLINE-271"><line class="cls-3" x1="93.83" y1="43.56" x2="93.83" y2="40.61"/></g><g id="LWPOLYLINE-272"><line class="cls-3" x1="123.34" y1="43.56" x2="123.34" y2="40.61"/></g><g id="LWPOLYLINE-273"><line class="cls-3" x1="94.57" y1="40.61" x2="122.6" y2="40.61"/></g><g id="LWPOLYLINE-274"><polyline class="cls-3" points="94.57 43.56 93.09 43.56 93.09 50.94 94.57 50.94 94.57 43.56"/></g><g id="LWPOLYLINE-275"><polyline class="cls-3" points="124.07 43.56 122.6 43.56 122.6 50.94 124.07 50.94 124.07 43.56"/></g><g id="LWPOLYLINE-276"><polyline class="cls-3" points="124.07 42.09 124.07 40.61 132.92 40.61 132.92 42.09 124.07 42.09"/></g><g id="ARC-7"><path class="cls-1" d="m114.69,258.52c-.99,0-1.97.11-2.93.33"/></g><g id="ARC-8"><path class="cls-1" d="m111.76,258.85c-.78.18-1.53.47-2.22.85"/></g><g id="ARC-9"><path class="cls-1" d="m109.53,259.71c-.65.36-1.22.86-1.67,1.46"/></g><g id="ARC-10"><path class="cls-1" d="m107.86,261.17c-.3.41-.47.9-.47,1.41"/></g><g id="ARC-11"><path class="cls-1" d="m107.4,262.57c0,.51.16,1,.47,1.41"/></g><g id="ARC-12"><path class="cls-1" d="m107.86,263.98c.45.6,1.02,1.1,1.67,1.46"/></g><g id="ARC-13"><path class="cls-1" d="m109.53,265.44c.7.39,1.45.68,2.22.85"/></g><g id="ARC-14"><path class="cls-1" d="m111.76,266.29c.96.22,1.95.33,2.93.33"/></g><g id="ARC-15"><path class="cls-1" d="m114.69,266.63c2.24,0,4.05-1.82,4.05-4.05s-1.82-4.05-4.05-4.05"/></g><g id="ARC-16"><path class="cls-1" d="m113.3,257.34c-.92,0-1.84.12-2.74.36"/></g><g id="ARC-17"><path class="cls-1" d="m110.56,257.7c-.79.21-1.55.55-2.24,1"/></g><g id="ARC-18"><path class="cls-1" d="m108.32,258.7c-.71.46-1.31,1.07-1.77,1.78"/></g><g id="ARC-19"><path class="cls-1" d="m106.55,260.48c-.41.65-.63,1.4-.63,2.16"/></g><g id="ARC-20"><path class="cls-1" d="m105.92,262.65c0,.77.22,1.52.63,2.16"/></g><g id="ARC-21"><path class="cls-1" d="m106.55,264.81c.46.71,1.06,1.32,1.77,1.78"/></g><g id="ARC-22"><path class="cls-1" d="m108.32,266.6c.69.45,1.45.79,2.24,1"/></g><g id="ARC-23"><path class="cls-1" d="m110.56,267.6c.89.24,1.81.36,2.74.36"/></g><g id="ARC-24"><path class="cls-1" d="m115.83,260.88c-.97,0-1.76.79-1.76,1.76s.79,1.76,1.76,1.76"/></g><g id="ARC-25"><path class="cls-1" d="m113.3,267.96c3.12-.01,6.23-.29,9.3-.81"/></g><g id="ARC-26"><path class="cls-1" d="m122.59,258.15c-3.07-.52-6.18-.79-9.3-.81"/></g><g id="LWPOLYLINE-277"><line class="cls-1" x1="123.33" y1="266.28" x2="123.33" y2="259.02"/></g><g id="ARC-27"><path class="cls-1" d="m123.33,259.02c0-.43-.31-.8-.74-.87"/></g><g id="ARC-28"><path class="cls-1" d="m122.59,267.15c.43-.07.74-.44.74-.87"/></g><g id="ARC-29"><path class="cls-1" d="m114.69,226.06c-.99,0-1.97.11-2.93.33"/></g><g id="ARC-30"><path class="cls-1" d="m111.76,226.4c-.78.18-1.53.47-2.22.85"/></g><g id="ARC-31"><path class="cls-1" d="m109.53,227.25c-.65.36-1.22.86-1.67,1.46"/></g><g id="ARC-32"><path class="cls-1" d="m107.86,228.71c-.3.41-.47.9-.47,1.41"/></g><g id="ARC-33"><path class="cls-1" d="m107.4,230.12c0,.51.16,1,.47,1.41"/></g><g id="ARC-34"><path class="cls-1" d="m107.86,231.52c.45.6,1.02,1.1,1.67,1.46"/></g><g id="ARC-35"><path class="cls-1" d="m109.53,232.98c.7.39,1.45.68,2.22.85"/></g><g id="ARC-36"><path class="cls-1" d="m111.76,233.84c.96.22,1.95.33,2.93.33"/></g><g id="ARC-37"><path class="cls-1" d="m114.69,234.17c2.24,0,4.05-1.82,4.05-4.05s-1.82-4.05-4.05-4.05"/></g><g id="ARC-38"><path class="cls-1" d="m113.3,224.88c-.92,0-1.84.12-2.74.36"/></g><g id="ARC-39"><path class="cls-1" d="m110.56,225.24c-.79.21-1.55.55-2.24,1"/></g><g id="ARC-40"><path class="cls-1" d="m108.32,226.24c-.71.46-1.31,1.07-1.77,1.78"/></g><g id="ARC-41"><path class="cls-1" d="m106.55,228.03c-.41.65-.63,1.4-.63,2.16"/></g><g id="ARC-42"><path class="cls-1" d="m105.92,230.19c0,.77.22,1.52.63,2.16"/></g><g id="ARC-43"><path class="cls-1" d="m106.55,232.36c.46.71,1.06,1.32,1.77,1.78"/></g><g id="ARC-44"><path class="cls-1" d="m108.32,234.14c.69.45,1.45.79,2.24,1"/></g><g id="ARC-45"><path class="cls-1" d="m110.56,235.14c.89.24,1.81.36,2.74.36"/></g><g id="ARC-46"><path class="cls-1" d="m115.83,228.43c-.97,0-1.76.79-1.76,1.76s.79,1.76,1.76,1.76"/></g><g id="ARC-47"><path class="cls-1" d="m113.3,235.5c3.12-.01,6.23-.29,9.3-.81"/></g><g id="ARC-48"><path class="cls-1" d="m122.59,225.69c-3.07-.52-6.18-.79-9.3-.81"/></g><g id="LWPOLYLINE-278"><line class="cls-1" x1="123.33" y1="233.82" x2="123.33" y2="226.56"/></g><g id="ARC-49"><path class="cls-1" d="m123.33,226.56c0-.43-.31-.8-.74-.87"/></g><g id="ARC-50"><path class="cls-1" d="m122.59,234.69c.43-.07.74-.44.74-.87"/></g><g id="ARC-51"><path class="cls-1" d="m114.69,193.61c-.99,0-1.97.11-2.93.33"/></g><g id="ARC-52"><path class="cls-1" d="m111.76,193.94c-.78.18-1.53.47-2.22.85"/></g><g id="ARC-53"><path class="cls-1" d="m109.53,194.79c-.65.36-1.22.86-1.67,1.46"/></g><g id="ARC-54"><path class="cls-1" d="m107.86,196.25c-.3.41-.47.9-.47,1.41"/></g><g id="ARC-55"><path class="cls-1" d="m107.4,197.66c0,.51.16,1,.47,1.41"/></g><g id="ARC-56"><path class="cls-1" d="m107.86,199.06c.45.6,1.02,1.1,1.67,1.46"/></g><g id="ARC-57"><path class="cls-1" d="m109.53,200.53c.7.39,1.45.68,2.22.85"/></g><g id="ARC-58"><path class="cls-1" d="m111.76,201.38c.96.22,1.95.33,2.93.33"/></g><g id="ARC-59"><path class="cls-1" d="m114.69,201.71c2.24,0,4.05-1.82,4.05-4.05s-1.82-4.05-4.05-4.05"/></g><g id="ARC-60"><path class="cls-1" d="m113.3,192.42c-.92,0-1.84.12-2.74.36"/></g><g id="ARC-61"><path class="cls-1" d="m110.56,192.78c-.79.21-1.55.55-2.24,1"/></g><g id="ARC-62"><path class="cls-1" d="m108.32,193.79c-.71.46-1.31,1.07-1.77,1.78"/></g><g id="ARC-63"><path class="cls-1" d="m106.55,195.57c-.41.65-.63,1.4-.63,2.16"/></g><g id="ARC-64"><path class="cls-1" d="m105.92,197.73c0,.77.22,1.52.63,2.16"/></g><g id="ARC-65"><path class="cls-1" d="m106.55,199.9c.46.71,1.06,1.32,1.77,1.78"/></g><g id="ARC-66"><path class="cls-1" d="m108.32,201.68c.69.45,1.45.79,2.24,1"/></g><g id="ARC-67"><path class="cls-1" d="m110.56,202.68c.89.24,1.81.36,2.74.36"/></g><g id="ARC-68"><path class="cls-1" d="m115.83,195.97c-.97,0-1.76.79-1.76,1.76s.79,1.76,1.76,1.76"/></g><g id="ARC-69"><path class="cls-1" d="m113.3,203.04c3.12-.01,6.23-.29,9.3-.81"/></g><g id="ARC-70"><path class="cls-1" d="m122.59,193.23c-3.07-.52-6.18-.79-9.3-.81"/></g><g id="LWPOLYLINE-279"><line class="cls-1" x1="123.33" y1="201.36" x2="123.33" y2="194.1"/></g><g id="ARC-71"><path class="cls-1" d="m123.33,194.1c0-.43-.31-.8-.74-.87"/></g><g id="ARC-72"><path class="cls-1" d="m122.59,202.24c.43-.07.74-.44.74-.87"/></g><g id="ARC-73"><path class="cls-1" d="m114.69,161.15c-.99,0-1.97.11-2.93.33"/></g><g id="ARC-74"><path class="cls-1" d="m111.76,161.48c-.78.18-1.53.47-2.22.85"/></g><g id="ARC-75"><path class="cls-1" d="m109.53,162.33c-.65.36-1.22.86-1.67,1.46"/></g><g id="ARC-76"><path class="cls-1" d="m107.86,163.8c-.3.41-.47.9-.47,1.41"/></g><g id="ARC-77"><path class="cls-1" d="m107.4,165.2c0,.51.16,1,.47,1.41"/></g><g id="ARC-78"><path class="cls-1" d="m107.86,166.61c.45.6,1.02,1.1,1.67,1.46"/></g><g id="ARC-79"><path class="cls-1" d="m109.53,168.07c.7.39,1.45.68,2.22.85"/></g><g id="ARC-80"><path class="cls-1" d="m111.76,168.92c.96.22,1.95.33,2.93.33"/></g><g id="ARC-81"><path class="cls-1" d="m114.69,169.26c2.24,0,4.05-1.82,4.05-4.05s-1.82-4.05-4.05-4.05"/></g><g id="ARC-82"><path class="cls-1" d="m113.3,159.97c-.92,0-1.84.12-2.74.36"/></g><g id="ARC-83"><path class="cls-1" d="m110.56,160.33c-.79.21-1.55.55-2.24,1"/></g><g id="ARC-84"><path class="cls-1" d="m108.32,161.33c-.71.46-1.31,1.07-1.77,1.78"/></g><g id="ARC-85"><path class="cls-1" d="m106.55,163.11c-.41.65-.63,1.4-.63,2.16"/></g><g id="ARC-86"><path class="cls-1" d="m105.92,165.28c0,.77.22,1.52.63,2.16"/></g><g id="ARC-87"><path class="cls-1" d="m106.55,167.44c.46.71,1.06,1.32,1.77,1.78"/></g><g id="ARC-88"><path class="cls-1" d="m108.32,169.23c.69.45,1.45.79,2.24,1"/></g><g id="ARC-89"><path class="cls-1" d="m110.56,170.23c.89.24,1.81.36,2.74.36"/></g><g id="ARC-90"><path class="cls-1" d="m115.83,163.51c-.97,0-1.76.79-1.76,1.76s.79,1.76,1.76,1.76"/></g><g id="ARC-91"><path class="cls-1" d="m113.3,170.59c3.12-.01,6.23-.29,9.3-.81"/></g><g id="ARC-92"><path class="cls-1" d="m122.59,160.77c-3.07-.52-6.18-.79-9.3-.81"/></g><g id="LWPOLYLINE-280"><line class="cls-1" x1="123.33" y1="168.91" x2="123.33" y2="161.65"/></g><g id="ARC-93"><path class="cls-1" d="m123.33,161.65c0-.43-.31-.8-.74-.87"/></g><g id="ARC-94"><path class="cls-1" d="m122.59,169.78c.43-.07.74-.44.74-.87"/></g><g id="ARC-95"><path class="cls-1" d="m67.14,113.4c-.67.48-1.23,1.09-1.65,1.8"/></g><g id="ARC-96"><path class="cls-1" d="m69.44,112.29c-.82.24-1.6.62-2.3,1.11"/></g><g id="ARC-97"><path class="cls-1" d="m72.36,111.87c-.99,0-1.97.14-2.92.42"/></g><g id="ARC-98"><path class="cls-1" d="m75.28,112.29c-.95-.28-1.93-.42-2.92-.42"/></g><g id="ARC-99"><path class="cls-1" d="m77.57,113.4c-.7-.5-1.47-.87-2.3-1.11"/></g><g id="ARC-100"><path class="cls-1" d="m79.22,115.2c-.41-.71-.98-1.32-1.65-1.8"/></g><g id="ARC-101"><path class="cls-1" d="m79.74,117.11c0-.67-.18-1.33-.51-1.9"/></g><g id="ARC-102"><path class="cls-1" d="m79.22,119.01c.34-.58.51-1.23.51-1.9"/></g><g id="ARC-103"><path class="cls-1" d="m77.58,120.81c.67-.48,1.23-1.09,1.65-1.8"/></g><g id="ARC-104"><path class="cls-1" d="m75.28,121.92c.82-.24,1.6-.62,2.3-1.11"/></g><g id="ARC-105"><path class="cls-1" d="m72.36,122.34c.99,0,1.97-.14,2.92-.42"/></g><g id="ARC-106"><path class="cls-1" d="m69.44,121.92c.95.28,1.93.42,2.92.42"/></g><g id="ARC-107"><path class="cls-1" d="m67.14,120.81c.7.5,1.47.87,2.3,1.11"/></g><g id="ARC-108"><path class="cls-1" d="m65.5,119.01c.41.71.98,1.32,1.65,1.8"/></g><g id="ARC-109"><path class="cls-1" d="m64.98,117.11c0,.67.18,1.33.51,1.9"/></g><g id="ARC-110"><path class="cls-1" d="m65.5,115.2c-.34.58-.51,1.23-.51,1.9"/></g><g id="CIRCLE"><circle class="cls-1" cx="72.36" cy="114.21" r=".74"/></g><g id="LWPOLYLINE-281"><line class="cls-1" x1="84.97" y1="124.7" x2="38.47" y2="124.7"/></g><g id="LWPOLYLINE-282"><line class="cls-1" x1="31.09" y1="172.65" x2="31.09" y2="278.14"/></g><g id="LWPOLYLINE-283"><polyline class="cls-1" points="22.24 191.27 22.24 189.8 31.09 189.8 31.09 191.27 22.24 191.27"/></g><g id="LWPOLYLINE-284"><polyline class="cls-1" points="22.24 209.16 22.24 207.69 31.09 207.69 31.09 209.16 22.24 209.16"/></g><g id="LWPOLYLINE-285"><polyline class="cls-1" points="22.24 227.05 22.24 225.57 31.09 225.57 31.09 227.05 22.24 227.05"/></g><g id="LWPOLYLINE-286"><polyline class="cls-1" points="22.24 244.93 22.24 243.46 31.09 243.46 31.09 244.93 22.24 244.93"/></g><g id="LWPOLYLINE-287"><polyline class="cls-1" points="22.24 262.82 22.24 261.35 31.09 261.35 31.09 262.82 22.24 262.82"/></g><g id="ARC-111"><path class="cls-1" d="m30.88,94.76c.99,0,1.97-.11,2.93-.33"/></g><g id="ARC-112"><path class="cls-1" d="m33.81,94.43c.78-.18,1.53-.47,2.22-.85"/></g><g id="ARC-113"><path class="cls-1" d="m36.04,93.58c.65-.36,1.22-.86,1.67-1.46"/></g><g id="ARC-114"><path class="cls-1" d="m37.71,92.12c.3-.41.47-.9.47-1.41"/></g><g id="ARC-115"><path class="cls-1" d="m38.17,90.71c0-.51-.16-1-.47-1.41"/></g><g id="ARC-116"><path class="cls-1" d="m37.71,89.31c-.45-.6-1.02-1.1-1.67-1.46"/></g><g id="ARC-117"><path class="cls-1" d="m36.04,87.84c-.7-.39-1.45-.68-2.22-.85"/></g><g id="ARC-118"><path class="cls-1" d="m33.81,86.99c-.96-.22-1.95-.33-2.93-.33"/></g><g id="ARC-119"><path class="cls-1" d="m30.88,86.66c-2.24,0-4.05,1.82-4.05,4.05s1.82,4.05,4.05,4.05"/></g><g id="ARC-120"><path class="cls-1" d="m32.27,95.95c.92,0,1.84-.12,2.74-.36"/></g><g id="ARC-121"><path class="cls-1" d="m35.01,95.58c.79-.21,1.55-.55,2.24-1"/></g><g id="ARC-122"><path class="cls-1" d="m37.25,94.59c.71-.46,1.31-1.07,1.77-1.78"/></g><g id="ARC-123"><path class="cls-1" d="m39.01,92.8c.41-.65.63-1.4.63-2.16"/></g><g id="ARC-124"><path class="cls-1" d="m39.65,90.64c0-.77-.22-1.52-.63-2.16"/></g><g id="ARC-125"><path class="cls-1" d="m39.02,88.47c-.46-.71-1.06-1.32-1.77-1.78"/></g><g id="ARC-126"><path class="cls-1" d="m37.25,86.69c-.69-.45-1.45-.79-2.24-1"/></g><g id="ARC-127"><path class="cls-1" d="m35,85.69c-.89-.24-1.81-.36-2.74-.36"/></g><g id="ARC-128"><path class="cls-1" d="m29.73,92.4c.97,0,1.76-.79,1.76-1.76s-.79-1.76-1.76-1.76"/></g><g id="ARC-129"><path class="cls-1" d="m32.27,85.33c-3.12.01-6.23.29-9.3.81"/></g><g id="ARC-130"><path class="cls-1" d="m22.97,95.14c3.07.52,6.18.79,9.3.81"/></g><g id="LWPOLYLINE-288"><line class="cls-1" x1="22.24" y1="87.01" x2="22.24" y2="94.27"/></g><g id="ARC-131"><path class="cls-1" d="m22.24,94.27c0,.43.31.8.74.87"/></g><g id="ARC-132"><path class="cls-1" d="m22.97,86.13c-.43.07-.74.44-.74.87"/></g><g id="ARC-133"><path class="cls-1" d="m45.93,50.94c-.46,0-.84.35-.88.81"/></g><g id="ARC-134"><path class="cls-1" d="m62.64,51.74c-.04-.46-.42-.81-.88-.81"/></g><g id="LWPOLYLINE-289"><line class="cls-1" x1="44.38" y1="59.08" x2="45.05" y2="51.74"/></g><g id="LWPOLYLINE-290"><line class="cls-1" x1="63.3" y1="59.08" x2="62.64" y2="51.74"/></g><g id="ARC-135"><path class="cls-1" d="m48.63,55.38c-.67.48-1.23,1.09-1.65,1.8"/></g><g id="ARC-136"><path class="cls-1" d="m50.92,54.26c-.82.24-1.6.62-2.3,1.11"/></g><g id="ARC-137"><path class="cls-1" d="m53.84,53.84c-.99,0-1.97.14-2.92.42"/></g><g id="ARC-138"><path class="cls-1" d="m56.76,54.26c-.95-.28-1.93-.42-2.92-.42"/></g><g id="ARC-139"><path class="cls-1" d="m59.06,55.38c-.7-.5-1.47-.87-2.3-1.11"/></g><g id="ARC-140"><path class="cls-1" d="m60.7,57.18c-.41-.71-.98-1.32-1.65-1.8"/></g><g id="ARC-141"><path class="cls-1" d="m61.22,59.08c0-.67-.18-1.33-.51-1.9"/></g><g id="ARC-142"><path class="cls-1" d="m60.7,60.98c.34-.58.51-1.23.51-1.9"/></g><g id="ARC-143"><path class="cls-1" d="m59.06,62.78c.67-.48,1.23-1.09,1.65-1.8"/></g><g id="ARC-144"><path class="cls-1" d="m56.76,63.9c.82-.24,1.6-.62,2.29-1.11"/></g><g id="ARC-145"><path class="cls-1" d="m53.84,64.32c.99,0,1.97-.14,2.92-.42"/></g><g id="ARC-146"><path class="cls-1" d="m50.92,63.9c.95.28,1.93.42,2.92.42"/></g><g id="ARC-147"><path class="cls-1" d="m48.63,62.78c.7.5,1.47.87,2.3,1.11"/></g><g id="ARC-148"><path class="cls-1" d="m46.98,60.98c.41.71.98,1.32,1.65,1.8"/></g><g id="ARC-149"><path class="cls-1" d="m46.47,59.08c0,.67.18,1.33.51,1.9"/></g><g id="ARC-150"><path class="cls-1" d="m46.98,57.18c-.34.58-.51,1.23-.51,1.9"/></g><g id="ARC-151"><path class="cls-1" d="m62.5,62.03c.52-.9.8-1.92.8-2.95"/></g><g id="ARC-152"><path class="cls-1" d="m60.27,64.48c.91-.65,1.68-1.48,2.24-2.45"/></g><g id="ARC-153"><path class="cls-1" d="m57.35,65.89c1.04-.31,2.03-.78,2.91-1.41"/></g><g id="ARC-154"><path class="cls-1" d="m53.84,66.4c1.19,0,2.37-.17,3.51-.51"/></g><g id="ARC-155"><path class="cls-1" d="m50.33,65.9c1.14.34,2.32.51,3.51.51"/></g><g id="ARC-156"><path class="cls-1" d="m47.42,64.48c.89.63,1.87,1.11,2.91,1.41"/></g><g id="ARC-157"><path class="cls-1" d="m45.18,62.03c.56.97,1.33,1.8,2.24,2.45"/></g><g id="ARC-158"><path class="cls-1" d="m44.38,59.08c0,1.04.28,2.06.8,2.95"/></g><g id="LWPOLYLINE-291"><line class="cls-1" x1="45.93" y1="50.94" x2="61.76" y2="50.94"/></g><g id="CIRCLE-2"><circle class="cls-1" cx="53.84" cy="56.84" r=".74"/></g><g id="ARC-159"><path class="cls-1" d="m145.23,258.85c-.96-.22-1.95-.33-2.93-.33"/></g><g id="ARC-160"><path class="cls-1" d="m147.46,259.71c-.7-.39-1.45-.68-2.22-.85"/></g><g id="ARC-161"><path class="cls-1" d="m149.13,261.17c-.45-.6-1.02-1.1-1.67-1.46"/></g><g id="ARC-162"><path class="cls-1" d="m149.59,262.57c0-.51-.16-1-.47-1.41"/></g><g id="ARC-163"><path class="cls-1" d="m149.13,263.98c.3-.41.47-.9.47-1.4"/></g><g id="ARC-164"><path class="cls-1" d="m147.46,265.44c.65-.36,1.22-.86,1.67-1.46"/></g><g id="ARC-165"><path class="cls-1" d="m145.23,266.29c.78-.18,1.53-.47,2.22-.85"/></g><g id="ARC-166"><path class="cls-1" d="m142.3,266.63c.99,0,1.97-.11,2.93-.33"/></g><g id="ARC-167"><path class="cls-1" d="m142.3,258.52c-2.24,0-4.05,1.82-4.05,4.05s1.82,4.05,4.05,4.05"/></g><g id="ARC-168"><path class="cls-1" d="m146.42,257.7c-.89-.24-1.81-.36-2.74-.36"/></g><g id="ARC-169"><path class="cls-1" d="m148.67,258.7c-.69-.45-1.45-.79-2.24-1"/></g><g id="ARC-170"><path class="cls-1" d="m150.44,260.48c-.46-.71-1.06-1.32-1.77-1.78"/></g><g id="ARC-171"><path class="cls-1" d="m151.07,262.65c0-.77-.22-1.52-.63-2.16"/></g><g id="ARC-172"><path class="cls-1" d="m150.43,264.81c.41-.65.63-1.4.63-2.16"/></g><g id="ARC-173"><path class="cls-1" d="m148.67,266.6c.71-.46,1.31-1.07,1.77-1.78"/></g><g id="ARC-174"><path class="cls-1" d="m146.43,267.6c.79-.21,1.55-.55,2.24-1"/></g><g id="ARC-175"><path class="cls-1" d="m143.69,267.96c.92,0,1.84-.12,2.74-.36"/></g><g id="ARC-176"><path class="cls-1" d="m141.15,264.41c.97,0,1.76-.79,1.76-1.76s-.79-1.76-1.76-1.76"/></g><g id="ARC-177"><path class="cls-1" d="m134.39,267.15c3.07.52,6.18.79,9.3.81"/></g><g id="ARC-178"><path class="cls-1" d="m143.69,257.34c-3.12.01-6.23.29-9.3.81"/></g><g id="LWPOLYLINE-292"><line class="cls-1" x1="133.66" y1="266.28" x2="133.66" y2="259.02"/></g><g id="ARC-179"><path class="cls-1" d="m134.39,258.15c-.43.07-.74.44-.74.87"/></g><g id="ARC-180"><path class="cls-1" d="m133.66,266.28c0,.43.31.8.74.87"/></g><g id="ARC-181"><path class="cls-1" d="m145.23,226.4c-.96-.22-1.95-.33-2.93-.33"/></g><g id="ARC-182"><path class="cls-1" d="m147.46,227.25c-.7-.39-1.45-.68-2.22-.85"/></g><g id="ARC-183"><path class="cls-1" d="m149.13,228.71c-.45-.6-1.02-1.1-1.67-1.46"/></g><g id="ARC-184"><path class="cls-1" d="m149.59,230.12c0-.51-.16-1-.47-1.41"/></g><g id="ARC-185"><path class="cls-1" d="m149.13,231.52c.3-.41.47-.9.47-1.4"/></g><g id="ARC-186"><path class="cls-1" d="m147.46,232.98c.65-.36,1.22-.86,1.67-1.46"/></g><g id="ARC-187"><path class="cls-1" d="m145.23,233.84c.78-.18,1.53-.47,2.22-.85"/></g><g id="ARC-188"><path class="cls-1" d="m142.3,234.17c.99,0,1.97-.11,2.93-.33"/></g><g id="ARC-189"><path class="cls-1" d="m142.3,226.06c-2.24,0-4.05,1.82-4.05,4.05s1.82,4.05,4.05,4.05"/></g><g id="ARC-190"><path class="cls-1" d="m146.42,225.24c-.89-.24-1.81-.36-2.74-.36"/></g><g id="ARC-191"><path class="cls-1" d="m148.67,226.24c-.69-.45-1.45-.79-2.24-1"/></g><g id="ARC-192"><path class="cls-1" d="m150.44,228.03c-.46-.71-1.06-1.32-1.77-1.78"/></g><g id="ARC-193"><path class="cls-1" d="m151.07,230.19c0-.77-.22-1.52-.63-2.16"/></g><g id="ARC-194"><path class="cls-1" d="m150.43,232.36c.41-.65.63-1.4.63-2.16"/></g><g id="ARC-195"><path class="cls-1" d="m148.67,234.14c.71-.46,1.31-1.07,1.77-1.78"/></g><g id="ARC-196"><path class="cls-1" d="m146.43,235.14c.79-.21,1.55-.55,2.24-1"/></g><g id="ARC-197"><path class="cls-1" d="m143.69,235.5c.92,0,1.84-.12,2.74-.36"/></g><g id="ARC-198"><path class="cls-1" d="m141.15,231.96c.97,0,1.76-.79,1.76-1.76s-.79-1.76-1.76-1.76"/></g><g id="ARC-199"><path class="cls-1" d="m134.39,234.69c3.07.52,6.18.79,9.3.81"/></g><g id="ARC-200"><path class="cls-1" d="m143.69,224.88c-3.12.01-6.23.29-9.3.81"/></g><g id="LWPOLYLINE-293"><line class="cls-1" x1="133.66" y1="233.82" x2="133.66" y2="226.56"/></g><g id="ARC-201"><path class="cls-1" d="m134.39,225.69c-.43.07-.74.44-.74.87"/></g><g id="ARC-202"><path class="cls-1" d="m133.66,233.82c0,.43.31.8.74.87"/></g><g id="ARC-203"><path class="cls-1" d="m145.23,193.94c-.96-.22-1.95-.33-2.93-.33"/></g><g id="ARC-204"><path class="cls-1" d="m147.46,194.79c-.7-.39-1.45-.68-2.22-.85"/></g><g id="ARC-205"><path class="cls-1" d="m149.13,196.25c-.45-.6-1.02-1.1-1.67-1.46"/></g><g id="ARC-206"><path class="cls-1" d="m149.59,197.66c0-.51-.16-1-.47-1.41"/></g><g id="ARC-207"><path class="cls-1" d="m149.13,199.06c.3-.41.47-.9.47-1.4"/></g><g id="ARC-208"><path class="cls-1" d="m147.46,200.53c.65-.36,1.22-.86,1.67-1.46"/></g><g id="ARC-209"><path class="cls-1" d="m145.23,201.38c.78-.18,1.53-.47,2.22-.85"/></g><g id="ARC-210"><path class="cls-1" d="m142.3,201.71c.99,0,1.97-.11,2.93-.33"/></g><g id="ARC-211"><path class="cls-1" d="m142.3,193.6c-2.24,0-4.05,1.82-4.05,4.05s1.82,4.05,4.05,4.05"/></g><g id="ARC-212"><path class="cls-1" d="m146.42,192.79c-.89-.24-1.81-.36-2.74-.36"/></g><g id="ARC-213"><path class="cls-1" d="m148.67,193.78c-.69-.45-1.45-.79-2.24-1"/></g><g id="ARC-214"><path class="cls-1" d="m150.44,195.57c-.46-.71-1.06-1.32-1.77-1.78"/></g><g id="ARC-215"><path class="cls-1" d="m151.07,197.73c0-.77-.22-1.52-.63-2.16"/></g><g id="ARC-216"><path class="cls-1" d="m150.43,199.9c.41-.65.63-1.4.63-2.16"/></g><g id="ARC-217"><path class="cls-1" d="m148.67,201.68c.71-.46,1.31-1.07,1.77-1.78"/></g><g id="ARC-218"><path class="cls-1" d="m146.43,202.68c.79-.21,1.55-.55,2.24-1"/></g><g id="ARC-219"><path class="cls-1" d="m143.69,203.04c.92,0,1.84-.12,2.74-.36"/></g><g id="ARC-220"><path class="cls-1" d="m141.15,199.5c.97,0,1.76-.79,1.76-1.76s-.79-1.76-1.76-1.76"/></g><g id="ARC-221"><path class="cls-1" d="m134.39,202.24c3.07.52,6.18.79,9.3.81"/></g><g id="ARC-222"><path class="cls-1" d="m143.69,192.42c-3.12.01-6.23.29-9.3.81"/></g><g id="LWPOLYLINE-294"><line class="cls-1" x1="133.66" y1="201.36" x2="133.66" y2="194.1"/></g><g id="ARC-223"><path class="cls-1" d="m134.39,193.23c-.43.07-.74.44-.74.87"/></g><g id="ARC-224"><path class="cls-1" d="m133.66,201.36c0,.43.31.8.74.87"/></g><g id="ARC-225"><path class="cls-1" d="m145.23,161.48c-.96-.22-1.95-.33-2.93-.33"/></g><g id="ARC-226"><path class="cls-1" d="m147.46,162.34c-.7-.39-1.45-.68-2.22-.85"/></g><g id="ARC-227"><path class="cls-1" d="m149.13,163.8c-.45-.6-1.02-1.1-1.67-1.46"/></g><g id="ARC-228"><path class="cls-1" d="m149.59,165.2c0-.51-.16-1-.47-1.41"/></g><g id="ARC-229"><path class="cls-1" d="m149.13,166.61c.3-.41.47-.9.47-1.4"/></g><g id="ARC-230"><path class="cls-1" d="m147.46,168.07c.65-.36,1.22-.86,1.67-1.46"/></g><g id="ARC-231"><path class="cls-1" d="m145.23,168.92c.78-.18,1.53-.47,2.22-.85"/></g><g id="ARC-232"><path class="cls-1" d="m142.3,169.26c.99,0,1.97-.11,2.93-.33"/></g><g id="ARC-233"><path class="cls-1" d="m142.3,161.15c-2.24,0-4.05,1.82-4.05,4.05s1.82,4.05,4.05,4.05"/></g><g id="ARC-234"><path class="cls-1" d="m146.42,160.33c-.89-.24-1.81-.36-2.74-.36"/></g><g id="ARC-235"><path class="cls-1" d="m148.67,161.33c-.69-.45-1.45-.79-2.24-1"/></g><g id="ARC-236"><path class="cls-1" d="m150.44,163.11c-.46-.71-1.06-1.32-1.77-1.78"/></g><g id="ARC-237"><path class="cls-1" d="m151.07,165.28c0-.77-.22-1.52-.63-2.16"/></g><g id="ARC-238"><path class="cls-1" d="m150.43,167.44c.41-.65.63-1.4.63-2.16"/></g><g id="ARC-239"><path class="cls-1" d="m148.67,169.23c.71-.46,1.31-1.07,1.77-1.78"/></g><g id="ARC-240"><path class="cls-1" d="m146.43,170.23c.79-.21,1.55-.55,2.24-1"/></g><g id="ARC-241"><path class="cls-1" d="m143.69,170.59c.92,0,1.84-.12,2.74-.36"/></g><g id="ARC-242"><path class="cls-1" d="m141.15,167.04c.97,0,1.76-.79,1.76-1.76s-.79-1.76-1.76-1.76"/></g><g id="ARC-243"><path class="cls-1" d="m134.39,169.78c3.07.52,6.18.79,9.3.81"/></g><g id="ARC-244"><path class="cls-1" d="m143.69,159.97c-3.12.01-6.23.29-9.3.81"/></g><g id="LWPOLYLINE-295"><line class="cls-1" x1="133.66" y1="168.91" x2="133.66" y2="161.65"/></g><g id="ARC-245"><path class="cls-1" d="m134.39,160.77c-.43.07-.74.44-.74.87"/></g><g id="ARC-246"><path class="cls-1" d="m133.66,168.91c0,.43.31.8.74.87"/></g><g id="ARC-247"><path class="cls-1" d="m223.18,94.43c.96.22,1.95.33,2.93.33"/></g><g id="ARC-248"><path class="cls-1" d="m220.95,93.58c.7.39,1.45.68,2.22.85"/></g><g id="ARC-249"><path class="cls-1" d="m219.28,92.12c.45.6,1.02,1.1,1.67,1.46"/></g><g id="ARC-250"><path class="cls-1" d="m218.82,90.71c0,.51.16,1,.47,1.41"/></g><g id="ARC-251"><path class="cls-1" d="m219.28,89.31c-.3.41-.47.9-.47,1.4"/></g><g id="ARC-252"><path class="cls-1" d="m220.95,87.84c-.65.36-1.22.86-1.67,1.46"/></g><g id="ARC-253"><path class="cls-1" d="m223.17,86.99c-.78.18-1.53.47-2.22.85"/></g><g id="ARC-254"><path class="cls-1" d="m226.11,86.66c-.99,0-1.97.11-2.93.33"/></g><g id="ARC-255"><path class="cls-1" d="m226.11,94.77c2.24,0,4.05-1.82,4.05-4.05s-1.82-4.05-4.05-4.05"/></g><g id="ARC-256"><path class="cls-1" d="m221.98,95.58c.89.24,1.81.36,2.74.36"/></g><g id="ARC-257"><path class="cls-1" d="m219.74,94.58c.69.45,1.45.79,2.24,1"/></g><g id="ARC-258"><path class="cls-1" d="m217.97,92.8c.46.71,1.06,1.32,1.77,1.78"/></g><g id="ARC-259"><path class="cls-1" d="m217.34,90.64c0,.77.22,1.52.63,2.16"/></g><g id="ARC-260"><path class="cls-1" d="m217.97,88.47c-.41.65-.63,1.4-.63,2.16"/></g><g id="ARC-261"><path class="cls-1" d="m219.74,86.69c-.71.46-1.31,1.07-1.77,1.78"/></g><g id="ARC-262"><path class="cls-1" d="m221.98,85.69c-.79.21-1.55.55-2.24,1"/></g><g id="ARC-263"><path class="cls-1" d="m224.72,85.33c-.92,0-1.84.12-2.74.36"/></g><g id="ARC-264"><path class="cls-1" d="m227.25,88.87c-.97,0-1.76.79-1.76,1.76s.79,1.76,1.76,1.76"/></g><g id="ARC-265"><path class="cls-1" d="m234.02,86.13c-3.07-.52-6.18-.79-9.3-.81"/></g><g id="ARC-266"><path class="cls-1" d="m224.72,95.95c3.12-.01,6.23-.29,9.3-.81"/></g><g id="LWPOLYLINE-296"><line class="cls-1" x1="234.75" y1="87.01" x2="234.75" y2="94.27"/></g><g id="ARC-267"><path class="cls-1" d="m234.01,95.14c.43-.07.74-.44.74-.87"/></g><g id="ARC-268"><path class="cls-1" d="m234.75,87.01c0-.43-.31-.8-.74-.87"/></g><g id="ARC-269"><path class="cls-1" d="m215.46,266.57c-.22.96-.33,1.95-.33,2.93"/></g><g id="ARC-270"><path class="cls-1" d="m216.32,264.34c-.39.7-.68,1.45-.85,2.22"/></g><g id="ARC-271"><path class="cls-1" d="m217.78,262.67c-.6.45-1.1,1.02-1.46,1.67"/></g><g id="ARC-272"><path class="cls-1" d="m219.18,262.21c-.51,0-1,.16-1.41.47"/></g><g id="ARC-273"><path class="cls-1" d="m220.59,262.67c-.41-.3-.9-.47-1.4-.47"/></g><g id="ARC-274"><path class="cls-1" d="m222.05,264.34c-.36-.65-.86-1.22-1.46-1.67"/></g><g id="ARC-275"><path class="cls-1" d="m222.9,266.56c-.18-.78-.47-1.53-.85-2.22"/></g><g id="ARC-276"><path class="cls-1" d="m223.24,269.5c0-.99-.11-1.97-.33-2.93"/></g><g id="ARC-277"><path class="cls-1" d="m215.13,269.5c0,2.24,1.82,4.05,4.05,4.05s4.05-1.82,4.05-4.05"/></g><g id="ARC-278"><path class="cls-1" d="m214.31,265.37c-.24.89-.36,1.81-.36,2.74"/></g><g id="ARC-279"><path class="cls-1" d="m215.31,263.13c-.45.69-.79,1.45-1,2.24"/></g><g id="ARC-280"><path class="cls-1" d="m217.09,261.36c-.71.46-1.32,1.06-1.78,1.77"/></g><g id="ARC-281"><path class="cls-1" d="m219.26,260.73c-.77,0-1.52.22-2.16.63"/></g><g id="ARC-282"><path class="cls-1" d="m221.42,261.36c-.65-.41-1.4-.63-2.16-.63"/></g><g id="ARC-283"><path class="cls-1" d="m223.21,263.13c-.46-.71-1.07-1.31-1.78-1.77"/></g><g id="ARC-284"><path class="cls-1" d="m224.21,265.37c-.21-.79-.55-1.55-1-2.24"/></g><g id="ARC-285"><path class="cls-1" d="m224.57,268.11c0-.92-.12-1.84-.36-2.74"/></g><g id="ARC-286"><path class="cls-1" d="m221.02,270.64c0-.97-.79-1.76-1.76-1.76s-1.76.79-1.76,1.76"/></g><g id="ARC-287"><path class="cls-1" d="m223.76,277.4c.52-3.07.79-6.18.81-9.3"/></g><g id="ARC-288"><path class="cls-1" d="m213.95,268.1c.01,3.12.29,6.23.81,9.3"/></g><g id="LWPOLYLINE-297"><line class="cls-1" x1="222.89" y1="278.14" x2="215.63" y2="278.14"/></g><g id="ARC-289"><path class="cls-1" d="m214.76,277.4c.07.43.44.74.87.74"/></g><g id="ARC-290"><path class="cls-1" d="m222.89,278.14c.43,0,.8-.31.87-.74"/></g><g id="ARC-291"><path class="cls-1" d="m215.13,168.75c0,.99.11,1.97.33,2.93"/></g><g id="ARC-292"><path class="cls-1" d="m215.46,171.69c.18.78.47,1.53.85,2.22"/></g><g id="ARC-293"><path class="cls-1" d="m216.32,173.91c.36.65.86,1.22,1.46,1.67"/></g><g id="ARC-294"><path class="cls-1" d="m217.78,175.58c.41.3.9.47,1.41.47"/></g><g id="ARC-295"><path class="cls-1" d="m219.18,176.05c.51,0,1-.16,1.41-.47"/></g><g id="ARC-296"><path class="cls-1" d="m220.59,175.58c.6-.45,1.1-1.02,1.46-1.67"/></g><g id="ARC-297"><path class="cls-1" d="m222.05,173.91c.39-.7.68-1.45.85-2.22"/></g><g id="ARC-298"><path class="cls-1" d="m222.9,171.69c.22-.96.33-1.95.33-2.93"/></g><g id="ARC-299"><path class="cls-1" d="m223.24,168.75c0-2.24-1.82-4.05-4.05-4.05s-4.05,1.82-4.05,4.05"/></g><g id="ARC-300"><path class="cls-1" d="m213.95,170.15c0,.92.12,1.84.36,2.74"/></g><g id="ARC-301"><path class="cls-1" d="m214.31,172.88c.21.79.55,1.55,1,2.24"/></g><g id="ARC-302"><path class="cls-1" d="m215.31,175.12c.46.71,1.07,1.31,1.78,1.77"/></g><g id="ARC-303"><path class="cls-1" d="m217.09,176.89c.65.41,1.4.63,2.16.63"/></g><g id="ARC-304"><path class="cls-1" d="m219.26,177.52c.77,0,1.52-.22,2.16-.63"/></g><g id="ARC-305"><path class="cls-1" d="m221.42,176.89c.71-.46,1.32-1.06,1.78-1.77"/></g><g id="ARC-306"><path class="cls-1" d="m223.21,175.12c.45-.69.79-1.45,1-2.24"/></g><g id="ARC-307"><path class="cls-1" d="m224.21,172.88c.24-.89.36-1.81.36-2.74"/></g><g id="ARC-308"><path class="cls-1" d="m217.49,167.61c0,.97.79,1.76,1.76,1.76s1.76-.79,1.76-1.76"/></g><g id="ARC-309"><path class="cls-1" d="m224.57,170.14c-.01-3.12-.29-6.23-.81-9.3"/></g><g id="ARC-310"><path class="cls-1" d="m214.76,160.85c-.52,3.07-.79,6.18-.81,9.3"/></g><g id="LWPOLYLINE-298"><line class="cls-1" x1="222.89" y1="160.11" x2="215.63" y2="160.11"/></g><g id="ARC-311"><path class="cls-1" d="m215.63,160.11c-.43,0-.8.31-.87.74"/></g><g id="ARC-312"><path class="cls-1" d="m223.76,160.85c-.07-.43-.44-.74-.87-.74"/></g><g id="ARC-313"><path class="cls-1" d="m60.71,115.2c-.41-.71-.98-1.32-1.65-1.8"/></g><g id="ARC-314"><path class="cls-1" d="m59.07,113.4c-.7-.5-1.47-.87-2.3-1.11"/></g><g id="ARC-315"><path class="cls-1" d="m56.77,112.29c-.95-.28-1.93-.42-2.92-.42"/></g><g id="ARC-316"><path class="cls-1" d="m53.85,111.87c-.99,0-1.97.14-2.92.42"/></g><g id="ARC-317"><path class="cls-1" d="m50.93,112.29c-.82.24-1.6.62-2.3,1.11"/></g><g id="ARC-318"><path class="cls-1" d="m48.64,113.4c-.67.48-1.23,1.09-1.65,1.8"/></g><g id="ARC-319"><path class="cls-1" d="m46.99,115.2c-.34.58-.51,1.23-.51,1.9"/></g><g id="ARC-320"><path class="cls-1" d="m46.48,117.11c0,.67.18,1.33.51,1.9"/></g><g id="ARC-321"><path class="cls-1" d="m46.99,119.01c.41.71.98,1.32,1.65,1.8"/></g><g id="ARC-322"><path class="cls-1" d="m48.64,120.81c.7.5,1.47.87,2.3,1.11"/></g><g id="ARC-323"><path class="cls-1" d="m50.93,121.92c.95.28,1.93.42,2.92.42"/></g><g id="ARC-324"><path class="cls-1" d="m53.85,122.34c.99,0,1.97-.14,2.92-.42"/></g><g id="ARC-325"><path class="cls-1" d="m56.77,121.92c.82-.24,1.6-.62,2.3-1.11"/></g><g id="ARC-326"><path class="cls-1" d="m59.07,120.81c.67-.48,1.23-1.09,1.65-1.8"/></g><g id="ARC-327"><path class="cls-1" d="m60.71,119.01c.34-.58.51-1.23.51-1.9"/></g><g id="ARC-328"><path class="cls-1" d="m61.23,117.11c0-.67-.18-1.33-.51-1.9"/></g><g id="CIRCLE-3"><circle class="cls-1" cx="53.85" cy="114.21" r=".74"/></g><g id="LWPOLYLINE-299"><line class="cls-1" x1="172.02" y1="124.7" x2="218.53" y2="124.7"/></g><g id="LWPOLYLINE-300"><line class="cls-1" x1="38.47" y1="169.7" x2="38.47" y2="124.7"/></g><g id="ARC-329"><path class="cls-1" d="m28.96,151.74c-.71.41-1.32.98-1.8,1.65"/></g><g id="ARC-330"><path class="cls-1" d="m27.16,153.38c-.5.7-.87,1.47-1.11,2.3"/></g><g id="ARC-331"><path class="cls-1" d="m26.05,155.68c-.28.95-.42,1.93-.42,2.92"/></g><g id="ARC-332"><path class="cls-1" d="m25.63,158.6c0,.99.14,1.97.42,2.92"/></g><g id="ARC-333"><path class="cls-1" d="m26.05,161.52c.24.82.62,1.6,1.11,2.3"/></g><g id="ARC-334"><path class="cls-1" d="m27.16,163.81c.48.67,1.09,1.23,1.8,1.65"/></g><g id="ARC-335"><path class="cls-1" d="m28.96,165.46c.58.34,1.23.51,1.9.51"/></g><g id="ARC-336"><path class="cls-1" d="m30.87,165.97c.67,0,1.33-.18,1.9-.51"/></g><g id="ARC-337"><path class="cls-1" d="m32.77,165.46c.71-.41,1.32-.98,1.8-1.65"/></g><g id="ARC-338"><path class="cls-1" d="m34.57,163.81c.5-.7.87-1.47,1.11-2.3"/></g><g id="ARC-339"><path class="cls-1" d="m35.68,161.52c.28-.95.42-1.93.42-2.92"/></g><g id="ARC-340"><path class="cls-1" d="m36.11,158.6c0-.99-.14-1.97-.42-2.92"/></g><g id="ARC-341"><path class="cls-1" d="m35.68,155.68c-.24-.82-.62-1.6-1.11-2.3"/></g><g id="ARC-342"><path class="cls-1" d="m34.57,153.38c-.48-.67-1.09-1.23-1.8-1.65"/></g><g id="ARC-343"><path class="cls-1" d="m32.77,151.74c-.58-.34-1.23-.51-1.9-.51"/></g><g id="ARC-344"><path class="cls-1" d="m30.87,151.22c-.67,0-1.33.18-1.9.51"/></g><g id="CIRCLE-4"><circle class="cls-1" cx="27.97" cy="158.6" r=".74"/></g><g id="ARC-345"><path class="cls-1" d="m27.16,145.31c.48.67,1.09,1.23,1.8,1.65"/></g><g id="ARC-346"><path class="cls-1" d="m26.05,143.01c.24.82.62,1.6,1.11,2.3"/></g><g id="ARC-347"><path class="cls-1" d="m25.63,140.09c0,.99.14,1.97.42,2.92"/></g><g id="ARC-348"><path class="cls-1" d="m26.05,137.17c-.28.95-.42,1.93-.42,2.92"/></g><g id="ARC-349"><path class="cls-1" d="m27.16,134.88c-.5.7-.87,1.47-1.11,2.3"/></g><g id="ARC-350"><path class="cls-1" d="m28.96,133.23c-.71.41-1.32.98-1.8,1.65"/></g><g id="ARC-351"><path class="cls-1" d="m30.87,132.72c-.67,0-1.33.18-1.9.51"/></g><g id="ARC-352"><path class="cls-1" d="m32.77,133.23c-.58-.34-1.23-.51-1.9-.51"/></g><g id="ARC-353"><path class="cls-1" d="m34.57,134.87c-.48-.67-1.09-1.23-1.8-1.65"/></g><g id="ARC-354"><path class="cls-1" d="m35.68,137.17c-.24-.82-.62-1.6-1.11-2.3"/></g><g id="ARC-355"><path class="cls-1" d="m36.11,140.09c0-.99-.14-1.97-.42-2.92"/></g><g id="ARC-356"><path class="cls-1" d="m35.68,143.01c.28-.95.42-1.93.42-2.92"/></g><g id="ARC-357"><path class="cls-1" d="m34.57,145.31c.5-.7.87-1.47,1.11-2.3"/></g><g id="ARC-358"><path class="cls-1" d="m32.77,146.95c.71-.41,1.32-.98,1.8-1.65"/></g><g id="ARC-359"><path class="cls-1" d="m30.87,147.47c.67,0,1.33-.18,1.9-.51"/></g><g id="ARC-360"><path class="cls-1" d="m28.96,146.95c.58.34,1.23.51,1.9.51"/></g><g id="CIRCLE-5"><circle class="cls-1" cx="27.97" cy="140.09" r=".74"/></g><g id="LWPOLYLINE-301"><line class="cls-1" x1="218.53" y1="157.16" x2="218.53" y2="124.7"/></g><g id="ARC-361"><path class="cls-1" d="m191.5,115.2c-.41-.71-.98-1.32-1.65-1.8"/></g><g id="ARC-362"><path class="cls-1" d="m189.85,113.4c-.7-.5-1.47-.87-2.3-1.11"/></g><g id="ARC-363"><path class="cls-1" d="m187.56,112.29c-.95-.28-1.93-.42-2.92-.42"/></g><g id="ARC-364"><path class="cls-1" d="m184.64,111.87c-.99,0-1.97.14-2.92.42"/></g><g id="ARC-365"><path class="cls-1" d="m181.72,112.29c-.82.24-1.6.62-2.3,1.11"/></g><g id="ARC-366"><path class="cls-1" d="m179.42,113.4c-.67.48-1.23,1.09-1.65,1.8"/></g><g id="ARC-367"><path class="cls-1" d="m177.78,115.2c-.34.58-.51,1.23-.51,1.9"/></g><g id="ARC-368"><path class="cls-1" d="m177.26,117.11c0,.67.18,1.33.51,1.9"/></g><g id="ARC-369"><path class="cls-1" d="m177.78,119.01c.41.71.98,1.32,1.65,1.8"/></g><g id="ARC-370"><path class="cls-1" d="m179.42,120.81c.7.5,1.47.87,2.3,1.11"/></g><g id="ARC-371"><path class="cls-1" d="m181.72,121.92c.95.28,1.93.42,2.92.42"/></g><g id="ARC-372"><path class="cls-1" d="m184.64,122.34c.99,0,1.97-.14,2.92-.42"/></g><g id="ARC-373"><path class="cls-1" d="m187.56,121.92c.82-.24,1.6-.62,2.3-1.11"/></g><g id="ARC-374"><path class="cls-1" d="m189.85,120.81c.67-.48,1.23-1.09,1.65-1.8"/></g><g id="ARC-375"><path class="cls-1" d="m191.5,119.01c.34-.58.51-1.23.51-1.9"/></g><g id="ARC-376"><path class="cls-1" d="m192.01,117.11c0-.67-.18-1.33-.51-1.9"/></g><g id="CIRCLE-6"><circle class="cls-1" cx="184.64" cy="114.21" r=".74"/></g><g id="ARC-377"><path class="cls-1" d="m197.93,113.4c-.67.48-1.23,1.09-1.65,1.8"/></g><g id="ARC-378"><path class="cls-1" d="m200.23,112.29c-.82.24-1.6.62-2.3,1.11"/></g><g id="ARC-379"><path class="cls-1" d="m203.15,111.87c-.99,0-1.97.14-2.92.42"/></g><g id="ARC-380"><path class="cls-1" d="m206.07,112.29c-.95-.28-1.93-.42-2.92-.42"/></g><g id="ARC-381"><path class="cls-1" d="m208.36,113.4c-.7-.5-1.47-.87-2.3-1.11"/></g><g id="ARC-382"><path class="cls-1" d="m210.01,115.2c-.41-.71-.98-1.32-1.65-1.8"/></g><g id="ARC-383"><path class="cls-1" d="m210.52,117.11c0-.67-.18-1.33-.51-1.9"/></g><g id="ARC-384"><path class="cls-1" d="m210.01,119.01c.34-.58.51-1.23.51-1.9"/></g><g id="ARC-385"><path class="cls-1" d="m208.36,120.81c.67-.48,1.23-1.09,1.65-1.8"/></g><g id="ARC-386"><path class="cls-1" d="m206.07,121.92c.82-.24,1.6-.62,2.3-1.11"/></g><g id="ARC-387"><path class="cls-1" d="m203.15,122.34c.99,0,1.97-.14,2.92-.42"/></g><g id="ARC-388"><path class="cls-1" d="m200.22,121.92c.95.28,1.93.42,2.92.42"/></g><g id="ARC-389"><path class="cls-1" d="m197.93,120.81c.7.5,1.47.87,2.3,1.11"/></g><g id="ARC-390"><path class="cls-1" d="m196.28,119.01c.41.71.98,1.32,1.65,1.8"/></g><g id="ARC-391"><path class="cls-1" d="m195.77,117.11c0,.67.18,1.33.51,1.9"/></g><g id="ARC-392"><path class="cls-1" d="m196.28,115.2c-.34.58-.51,1.23-.51,1.9"/></g><g id="CIRCLE-7"><circle class="cls-1" cx="203.15" cy="114.21" r=".74"/></g><g id="ARC-393"><path class="cls-1" d="m228.03,146.95c.71-.41,1.32-.98,1.8-1.65"/></g><g id="ARC-394"><path class="cls-1" d="m229.83,145.31c.5-.7.87-1.47,1.11-2.3"/></g><g id="ARC-395"><path class="cls-1" d="m230.95,143.01c.28-.95.42-1.93.42-2.92"/></g><g id="ARC-396"><path class="cls-1" d="m231.37,140.09c0-.99-.14-1.97-.42-2.92"/></g><g id="ARC-397"><path class="cls-1" d="m230.95,137.17c-.24-.82-.62-1.6-1.11-2.3"/></g><g id="ARC-398"><path class="cls-1" d="m229.83,134.87c-.48-.67-1.09-1.23-1.8-1.65"/></g><g id="ARC-399"><path class="cls-1" d="m228.03,133.23c-.58-.34-1.23-.51-1.9-.51"/></g><g id="ARC-400"><path class="cls-1" d="m226.13,132.72c-.67,0-1.33.18-1.9.51"/></g><g id="ARC-401"><path class="cls-1" d="m224.23,133.23c-.71.41-1.32.98-1.8,1.65"/></g><g id="ARC-402"><path class="cls-1" d="m222.43,134.88c-.5.7-.87,1.47-1.11,2.3"/></g><g id="ARC-403"><path class="cls-1" d="m221.31,137.17c-.28.95-.42,1.93-.42,2.92"/></g><g id="ARC-404"><path class="cls-1" d="m220.89,140.09c0,.99.14,1.97.42,2.92"/></g><g id="ARC-405"><path class="cls-1" d="m221.31,143.01c.24.82.62,1.6,1.11,2.3"/></g><g id="ARC-406"><path class="cls-1" d="m222.43,145.31c.48.67,1.09,1.23,1.8,1.65"/></g><g id="ARC-407"><path class="cls-1" d="m224.23,146.95c.58.34,1.23.51,1.9.51"/></g><g id="ARC-408"><path class="cls-1" d="m226.13,147.47c.67,0,1.33-.18,1.9-.51"/></g><g id="CIRCLE-8"><circle class="cls-1" cx="229.03" cy="140.09" r=".74"/></g><g id="ARC-409"><path class="cls-1" d="m211.95,51.74c-.04-.46-.42-.81-.88-.81"/></g><g id="ARC-410"><path class="cls-1" d="m195.24,50.94c-.46,0-.84.35-.88.81"/></g><g id="LWPOLYLINE-302"><line class="cls-1" x1="212.62" y1="59.08" x2="211.95" y2="51.74"/></g><g id="LWPOLYLINE-303"><line class="cls-1" x1="193.7" y1="59.08" x2="194.36" y2="51.74"/></g><g id="ARC-411"><path class="cls-1" d="m210.02,57.18c-.41-.71-.98-1.32-1.65-1.8"/></g><g id="ARC-412"><path class="cls-1" d="m208.37,55.38c-.7-.5-1.47-.87-2.3-1.11"/></g><g id="ARC-413"><path class="cls-1" d="m206.08,54.26c-.95-.28-1.93-.42-2.92-.42"/></g><g id="ARC-414"><path class="cls-1" d="m203.16,53.84c-.99,0-1.97.14-2.92.42"/></g><g id="ARC-415"><path class="cls-1" d="m200.23,54.26c-.82.24-1.6.62-2.3,1.11"/></g><g id="ARC-416"><path class="cls-1" d="m197.94,55.38c-.67.48-1.23,1.09-1.65,1.8"/></g><g id="ARC-417"><path class="cls-1" d="m196.29,57.18c-.34.58-.51,1.23-.51,1.9"/></g><g id="ARC-418"><path class="cls-1" d="m195.78,59.08c0,.67.18,1.33.51,1.9"/></g><g id="ARC-419"><path class="cls-1" d="m196.29,60.98c.41.71.98,1.32,1.65,1.8"/></g><g id="ARC-420"><path class="cls-1" d="m197.94,62.78c.7.5,1.47.87,2.3,1.11"/></g><g id="ARC-421"><path class="cls-1" d="m200.24,63.9c.95.28,1.93.42,2.92.42"/></g><g id="ARC-422"><path class="cls-1" d="m203.16,64.32c.99,0,1.97-.14,2.92-.42"/></g><g id="ARC-423"><path class="cls-1" d="m206.08,63.9c.82-.24,1.6-.62,2.29-1.11"/></g><g id="ARC-424"><path class="cls-1" d="m208.37,62.78c.67-.48,1.23-1.09,1.65-1.8"/></g><g id="ARC-425"><path class="cls-1" d="m210.02,60.98c.34-.58.51-1.23.51-1.9"/></g><g id="ARC-426"><path class="cls-1" d="m210.53,59.08c0-.67-.18-1.33-.51-1.9"/></g><g id="ARC-427"><path class="cls-1" d="m193.7,59.08c0,1.04.28,2.06.8,2.95"/></g><g id="ARC-428"><path class="cls-1" d="m194.49,62.03c.56.97,1.33,1.8,2.24,2.45"/></g><g id="ARC-429"><path class="cls-1" d="m196.73,64.48c.89.63,1.87,1.11,2.91,1.41"/></g><g id="ARC-430"><path class="cls-1" d="m199.65,65.9c1.14.34,2.32.51,3.51.51"/></g><g id="ARC-431"><path class="cls-1" d="m203.16,66.4c1.19,0,2.37-.17,3.51-.51"/></g><g id="ARC-432"><path class="cls-1" d="m206.67,65.89c1.04-.31,2.03-.78,2.91-1.41"/></g><g id="ARC-433"><path class="cls-1" d="m209.58,64.48c.91-.65,1.68-1.48,2.24-2.45"/></g><g id="ARC-434"><path class="cls-1" d="m211.82,62.03c.52-.9.8-1.92.8-2.95"/></g><g id="LWPOLYLINE-304"><line class="cls-1" x1="211.07" y1="50.94" x2="195.24" y2="50.94"/></g><g id="CIRCLE-9"><circle class="cls-1" cx="203.16" cy="56.84" r=".74"/></g></svg>