<?xml version="1.0" encoding="UTF-8"?><svg id="PAVIMENTAZIONE_-_flooring" xmlns="http://www.w3.org/2000/svg" width="184.99" height="180.2" viewBox="0 0 184.99 180.2"><defs><style>.cls-1{stroke-miterlimit:10;}.cls-1,.cls-2{fill:none;stroke:#000;}.cls-2{stroke-linecap:round;stroke-linejoin:round;stroke-width:.5px;}</style></defs><g id="LWPOLYLINE"><line class="cls-2" x1="7.51" y1="154.62" x2="169.45" y2="154.62"/></g><g id="LWPOLYLINE-2"><line class="cls-2" x1="36.65" y1="108.89" x2="36.65" y2="141.72"/></g><g id="LWPOLYLINE-3"><line class="cls-2" x1="35.79" y1="108.89" x2="35.79" y2="141.72"/></g><g id="LWPOLYLINE-4"><line class="cls-2" x1="45.8" y1="108.89" x2="45.8" y2="141.72"/></g><g id="LWPOLYLINE-5"><line class="cls-2" x1="46.96" y1="108.89" x2="46.96" y2="141.72"/></g><g id="LWPOLYLINE-6"><line class="cls-2" x1="58.18" y1="108.89" x2="58.18" y2="141.72"/></g><g id="LWPOLYLINE-7"><line class="cls-2" x1="59.5" y1="108.89" x2="59.5" y2="141.72"/></g><g id="LWPOLYLINE-8"><line class="cls-2" x1="29.82" y1="108.89" x2="29.82" y2="141.72"/></g><g id="LWPOLYLINE-9"><line class="cls-2" x1="47.17" y1="108.89" x2="47.17" y2="141.72"/></g><g id="LWPOLYLINE-10"><line class="cls-2" x1="36.97" y1="108.89" x2="36.97" y2="141.72"/></g><g id="LWPOLYLINE-11"><line class="cls-2" x1="30.21" y1="108.89" x2="30.21" y2="141.72"/></g><g id="LWPOLYLINE-12"><line class="cls-2" x1="100.73" y1="108.89" x2="100.73" y2="141.72"/></g><g id="LWPOLYLINE-13"><line class="cls-2" x1="93.97" y1="108.89" x2="93.97" y2="141.72"/></g><g id="LWPOLYLINE-14"><line class="cls-2" x1="83.77" y1="108.89" x2="83.77" y2="141.72"/></g><g id="LWPOLYLINE-15"><line class="cls-2" x1="83.98" y1="108.89" x2="83.98" y2="141.72"/></g><g id="LWPOLYLINE-16"><line class="cls-2" x1="85.14" y1="108.89" x2="85.14" y2="141.72"/></g><g id="LWPOLYLINE-17"><line class="cls-2" x1="95.15" y1="108.89" x2="95.15" y2="141.72"/></g><g id="LWPOLYLINE-18"><line class="cls-2" x1="94.29" y1="108.89" x2="94.29" y2="141.72"/></g><g id="LWPOLYLINE-19"><line class="cls-2" x1="71.44" y1="108.89" x2="71.44" y2="141.72"/></g><g id="LWPOLYLINE-20"><line class="cls-2" x1="72.76" y1="108.89" x2="72.76" y2="141.72"/></g><g id="LWPOLYLINE-21"><line class="cls-2" x1="29.82" y1="108.89" x2="101.35" y2="108.89"/></g><g id="LWPOLYLINE-22"><polyline class="cls-2" points="106.8 147.92 106.8 111.91 126.68 111.91 126.68 147.92"/></g><g id="LWPOLYLINE-23"><polyline class="cls-2" points="107.13 147.92 107.13 112.24 126.34 112.24 126.34 147.92"/></g><g id="LWPOLYLINE-24"><line class="cls-2" x1="112.94" y1="112.24" x2="112.94" y2="147.92"/></g><g id="LWPOLYLINE-25"><line class="cls-2" x1="66.45" y1="82.59" x2="30.46" y2="97.67"/></g><g id="LWPOLYLINE-26"><line class="cls-2" x1="31.6" y1="97.67" x2="31.6" y2="104.37"/></g><g id="LWPOLYLINE-27"><line class="cls-2" x1="27.41" y1="97.67" x2="27.41" y2="104.37"/></g><g id="LWPOLYLINE-28"><line class="cls-2" x1="24.06" y1="97.67" x2="24.06" y2="104.37"/></g><g id="LWPOLYLINE-29"><line class="cls-2" x1="22.39" y1="97.67" x2="22.39" y2="104.37"/></g><g id="LWPOLYLINE-30"><line class="cls-2" x1="66.45" y1="82.59" x2="52.2" y2="97.67"/></g><g id="LWPOLYLINE-31"><line class="cls-2" x1="66.45" y1="82.59" x2="44.81" y2="97.67"/></g><g id="LWPOLYLINE-32"><line class="cls-2" x1="66.45" y1="82.59" x2="36.99" y2="97.67"/></g><g id="LWPOLYLINE-33"><line class="cls-2" x1="49.19" y1="97.67" x2="49.19" y2="104.37"/></g><g id="LWPOLYLINE-34"><line class="cls-2" x1="42.49" y1="97.67" x2="42.49" y2="104.37"/></g><g id="LWPOLYLINE-35"><line class="cls-2" x1="36.63" y1="97.67" x2="36.63" y2="104.37"/></g><g id="LWPOLYLINE-36"><line class="cls-2" x1="101.3" y1="97.67" x2="101.3" y2="104.37"/></g><g id="LWPOLYLINE-37"><line class="cls-2" x1="105.49" y1="97.67" x2="105.49" y2="104.37"/></g><g id="LWPOLYLINE-38"><line class="cls-2" x1="108.84" y1="97.67" x2="108.84" y2="104.37"/></g><g id="LWPOLYLINE-39"><line class="cls-2" x1="110.52" y1="97.67" x2="110.52" y2="104.37"/></g><g id="LWPOLYLINE-40"><line class="cls-2" x1="83.72" y1="97.67" x2="83.72" y2="104.37"/></g><g id="LWPOLYLINE-41"><line class="cls-2" x1="90.42" y1="97.67" x2="90.42" y2="104.37"/></g><g id="LWPOLYLINE-42"><line class="cls-2" x1="96.28" y1="97.67" x2="96.28" y2="104.37"/></g><g id="LWPOLYLINE-43"><line class="cls-2" x1="66.45" y1="82.59" x2="80.71" y2="97.67"/></g><g id="LWPOLYLINE-44"><line class="cls-2" x1="66.45" y1="82.59" x2="88.1" y2="97.67"/></g><g id="LWPOLYLINE-45"><line class="cls-2" x1="66.45" y1="82.59" x2="95.92" y2="97.67"/></g><g id="LWPOLYLINE-46"><line class="cls-2" x1="66.45" y1="82.59" x2="102.45" y2="97.67"/></g><g id="LWPOLYLINE-47"><line class="cls-2" x1="66.45" y1="104.37" x2="66.45" y2="82.59"/></g><g id="LINE"><line class="cls-2" x1="156.01" y1="66.7" x2="156.01" y2="69.22"/></g><g id="LINE-2"><line class="cls-2" x1="156.01" y1="69.22" x2="161.03" y2="69.22"/></g><g id="LINE-3"><line class="cls-2" x1="161.03" y1="69.22" x2="158.52" y2="69.22"/></g><g id="LINE-4"><line class="cls-2" x1="158.52" y1="69.22" x2="158.52" y2="71.73"/></g><g id="LINE-5"><line class="cls-2" x1="158.52" y1="71.73" x2="161.03" y2="71.73"/></g><g id="LINE-6"><line class="cls-2" x1="161.03" y1="71.73" x2="156.01" y2="71.73"/></g><g id="LINE-7"><line class="cls-2" x1="156.01" y1="71.73" x2="156.01" y2="74.24"/></g><g id="LINE-8"><line class="cls-2" x1="156.01" y1="74.24" x2="161.03" y2="74.24"/></g><g id="LINE-9"><line class="cls-2" x1="161.03" y1="74.24" x2="158.52" y2="74.24"/></g><g id="LINE-10"><line class="cls-2" x1="158.52" y1="74.24" x2="158.52" y2="76.75"/></g><g id="LINE-11"><line class="cls-2" x1="158.52" y1="76.75" x2="161.03" y2="76.75"/></g><g id="LINE-12"><line class="cls-2" x1="161.03" y1="84.29" x2="158.52" y2="84.29"/></g><g id="LINE-13"><line class="cls-2" x1="158.52" y1="84.29" x2="158.52" y2="86.8"/></g><g id="LINE-14"><line class="cls-2" x1="158.52" y1="86.8" x2="161.03" y2="86.8"/></g><g id="LINE-15"><line class="cls-2" x1="161.03" y1="81.78" x2="156.01" y2="81.78"/></g><g id="LINE-16"><line class="cls-2" x1="156.01" y1="81.78" x2="156.01" y2="84.29"/></g><g id="LINE-17"><line class="cls-2" x1="156.01" y1="84.29" x2="161.03" y2="84.29"/></g><g id="LINE-18"><line class="cls-2" x1="161.03" y1="79.27" x2="158.52" y2="79.27"/></g><g id="LINE-19"><line class="cls-2" x1="158.52" y1="79.27" x2="158.52" y2="81.78"/></g><g id="LINE-20"><line class="cls-2" x1="158.52" y1="81.78" x2="161.03" y2="81.78"/></g><g id="LINE-21"><line class="cls-2" x1="161.03" y1="76.75" x2="156.01" y2="76.75"/></g><g id="LINE-22"><line class="cls-2" x1="156.01" y1="76.75" x2="156.01" y2="79.27"/></g><g id="LINE-23"><line class="cls-2" x1="156.01" y1="79.27" x2="161.03" y2="79.27"/></g><g id="LINE-24"><line class="cls-2" x1="161.03" y1="86.8" x2="156.01" y2="86.8"/></g><g id="LINE-25"><line class="cls-2" x1="156.01" y1="86.8" x2="156.01" y2="89.32"/></g><g id="LINE-26"><line class="cls-2" x1="156.01" y1="89.32" x2="161.03" y2="89.32"/></g><g id="LINE-27"><line class="cls-2" x1="160.18" y1="121.12" x2="155.15" y2="121.12"/></g><g id="LINE-28"><line class="cls-2" x1="155.15" y1="121.12" x2="155.15" y2="123.63"/></g><g id="LINE-29"><line class="cls-2" x1="155.15" y1="123.63" x2="160.18" y2="123.63"/></g><g id="LINE-30"><line class="cls-2" x1="160.18" y1="126.14" x2="155.15" y2="126.14"/></g><g id="LINE-31"><line class="cls-2" x1="155.15" y1="126.14" x2="155.15" y2="128.65"/></g><g id="LINE-32"><line class="cls-2" x1="155.15" y1="128.65" x2="160.18" y2="128.65"/></g><g id="LINE-33"><line class="cls-2" x1="160.18" y1="123.63" x2="157.66" y2="123.63"/></g><g id="LINE-34"><line class="cls-2" x1="157.66" y1="123.63" x2="157.66" y2="126.14"/></g><g id="LINE-35"><line class="cls-2" x1="157.66" y1="126.14" x2="160.18" y2="126.14"/></g><g id="LINE-36"><line class="cls-2" x1="160.18" y1="116.09" x2="155.15" y2="116.09"/></g><g id="LINE-37"><line class="cls-2" x1="155.15" y1="116.09" x2="155.15" y2="118.61"/></g><g id="LINE-38"><line class="cls-2" x1="155.15" y1="118.61" x2="160.18" y2="118.61"/></g><g id="LINE-39"><line class="cls-2" x1="160.18" y1="118.61" x2="157.66" y2="118.61"/></g><g id="LINE-40"><line class="cls-2" x1="157.66" y1="118.61" x2="157.66" y2="121.12"/></g><g id="LINE-41"><line class="cls-2" x1="157.66" y1="121.12" x2="160.18" y2="121.12"/></g><g id="LINE-42"><line class="cls-2" x1="160.18" y1="113.58" x2="157.66" y2="113.58"/></g><g id="LINE-43"><line class="cls-2" x1="157.66" y1="113.58" x2="157.66" y2="116.09"/></g><g id="LINE-44"><line class="cls-2" x1="157.66" y1="116.09" x2="160.18" y2="116.09"/></g><g id="LINE-45"><line class="cls-2" x1="160.18" y1="111.07" x2="155.15" y2="111.07"/></g><g id="LINE-46"><line class="cls-2" x1="155.15" y1="111.07" x2="155.15" y2="113.58"/></g><g id="LINE-47"><line class="cls-2" x1="155.15" y1="113.58" x2="160.18" y2="113.58"/></g><g id="LINE-48"><line class="cls-2" x1="160.18" y1="128.65" x2="157.66" y2="128.65"/></g><g id="LINE-49"><line class="cls-2" x1="157.66" y1="128.65" x2="157.66" y2="131.17"/></g><g id="LINE-50"><line class="cls-2" x1="157.66" y1="131.17" x2="160.18" y2="131.17"/></g><g id="LINE-51"><line class="cls-2" x1="160.18" y1="133.68" x2="157.66" y2="133.68"/></g><g id="LINE-52"><line class="cls-2" x1="157.66" y1="133.68" x2="157.66" y2="136.19"/></g><g id="LINE-53"><line class="cls-2" x1="157.66" y1="136.19" x2="160.18" y2="136.19"/></g><g id="LINE-54"><line class="cls-2" x1="160.18" y1="131.17" x2="155.15" y2="131.17"/></g><g id="LINE-55"><line class="cls-2" x1="155.15" y1="131.17" x2="155.15" y2="133.68"/></g><g id="LINE-56"><line class="cls-2" x1="155.15" y1="133.68" x2="160.18" y2="133.68"/></g><g id="LINE-57"><line class="cls-2" x1="160.18" y1="138.7" x2="157.66" y2="138.7"/></g><g id="LINE-58"><line class="cls-2" x1="157.66" y1="138.7" x2="157.66" y2="141.22"/></g><g id="LINE-59"><line class="cls-2" x1="157.66" y1="141.22" x2="160.18" y2="141.22"/></g><g id="LINE-60"><line class="cls-2" x1="160.18" y1="141.22" x2="155.15" y2="141.22"/></g><g id="LINE-61"><line class="cls-2" x1="155.15" y1="141.22" x2="155.15" y2="143.73"/></g><g id="LINE-62"><line class="cls-2" x1="155.15" y1="143.73" x2="160.18" y2="143.73"/></g><g id="LINE-63"><line class="cls-2" x1="160.18" y1="136.19" x2="155.15" y2="136.19"/></g><g id="LINE-64"><line class="cls-2" x1="155.15" y1="136.19" x2="155.15" y2="138.7"/></g><g id="LINE-65"><line class="cls-2" x1="155.15" y1="138.7" x2="160.18" y2="138.7"/></g><g id="LINE-66"><line class="cls-2" x1="26.18" y1="81.78" x2="31.21" y2="81.78"/></g><g id="LINE-67"><line class="cls-2" x1="31.21" y1="81.78" x2="31.21" y2="84.29"/></g><g id="LINE-68"><line class="cls-2" x1="31.21" y1="84.29" x2="26.18" y2="84.29"/></g><g id="LINE-69"><line class="cls-2" x1="26.18" y1="86.8" x2="31.21" y2="86.8"/></g><g id="LINE-70"><line class="cls-2" x1="31.21" y1="86.8" x2="31.21" y2="89.32"/></g><g id="LINE-71"><line class="cls-2" x1="31.21" y1="89.32" x2="26.18" y2="89.32"/></g><g id="LINE-72"><line class="cls-2" x1="26.18" y1="84.29" x2="28.7" y2="84.29"/></g><g id="LINE-73"><line class="cls-2" x1="28.7" y1="84.29" x2="28.7" y2="86.8"/></g><g id="LINE-74"><line class="cls-2" x1="28.7" y1="86.8" x2="26.18" y2="86.8"/></g><g id="LINE-75"><line class="cls-2" x1="26.18" y1="76.75" x2="31.21" y2="76.75"/></g><g id="LINE-76"><line class="cls-2" x1="31.21" y1="76.75" x2="31.21" y2="79.27"/></g><g id="LINE-77"><line class="cls-2" x1="31.21" y1="79.27" x2="26.18" y2="79.27"/></g><g id="LINE-78"><line class="cls-2" x1="26.18" y1="79.27" x2="28.7" y2="79.27"/></g><g id="LINE-79"><line class="cls-2" x1="28.7" y1="79.27" x2="28.7" y2="81.78"/></g><g id="LINE-80"><line class="cls-2" x1="28.7" y1="81.78" x2="26.18" y2="81.78"/></g><g id="LINE-81"><line class="cls-2" x1="26.18" y1="74.24" x2="28.7" y2="74.24"/></g><g id="LINE-82"><line class="cls-2" x1="28.7" y1="74.24" x2="28.7" y2="76.75"/></g><g id="LINE-83"><line class="cls-2" x1="28.7" y1="76.75" x2="26.18" y2="76.75"/></g><g id="LINE-84"><line class="cls-2" x1="26.18" y1="71.73" x2="31.21" y2="71.73"/></g><g id="LINE-85"><line class="cls-2" x1="31.21" y1="71.73" x2="31.21" y2="74.24"/></g><g id="LINE-86"><line class="cls-2" x1="31.21" y1="74.24" x2="26.18" y2="74.24"/></g><g id="LINE-87"><line class="cls-2" x1="26.18" y1="69.22" x2="28.7" y2="69.22"/></g><g id="LINE-88"><line class="cls-2" x1="28.7" y1="69.22" x2="28.7" y2="71.73"/></g><g id="LINE-89"><line class="cls-2" x1="28.7" y1="71.73" x2="26.18" y2="71.73"/></g><g id="LINE-90"><line class="cls-2" x1="31.21" y1="66.7" x2="31.21" y2="69.22"/></g><g id="LINE-91"><line class="cls-2" x1="31.21" y1="69.22" x2="26.18" y2="69.22"/></g><g id="LINE-92"><line class="cls-2" x1="26.18" y1="89.32" x2="28.7" y2="89.32"/></g><g id="LINE-93"><line class="cls-2" x1="28.7" y1="89.32" x2="28.7" y2="91.83"/></g><g id="LINE-94"><line class="cls-2" x1="28.7" y1="91.83" x2="26.18" y2="91.83"/></g><g id="LINE-95"><line class="cls-2" x1="26.18" y1="91.83" x2="31.21" y2="91.83"/></g><g id="LINE-96"><line class="cls-2" x1="31.21" y1="91.83" x2="31.21" y2="94.34"/></g><g id="LINE-97"><line class="cls-2" x1="31.21" y1="94.34" x2="26.18" y2="94.34"/></g><g id="LWPOLYLINE-48"><polyline class="cls-2" points="26.18 94.34 28.7 94.34 28.7 96.21"/></g><g id="LWPOLYLINE-49"><line class="cls-2" x1="76.22" y1="148.59" x2="156.67" y2="148.59"/></g><g id="LWPOLYLINE-50"><line class="cls-2" x1="76.22" y1="151.94" x2="161.7" y2="151.94"/></g><g id="LWPOLYLINE-51"><rect class="cls-2" x="114.2" y="131.57" width="2.16" height=".37"/></g><g id="LWPOLYLINE-52"><rect class="cls-2" x="114.13" y="132.9" width=".28" height=".56"/></g><g id="LWPOLYLINE-53"><polyline class="cls-2" points="114 131.45 114 132.08 114.64 132.08 114.64 131.93"/></g><g id="LWPOLYLINE-54"><polyline class="cls-2" points="114.64 131.57 114.64 131.45 114 131.45"/></g><g id="LWPOLYLINE-55"><polyline class="cls-2" points="113.49 130.47 113.49 134.62 115.12 134.62 115.12 131.93"/></g><g id="LWPOLYLINE-56"><polyline class="cls-2" points="115.12 131.57 115.12 130.47 113.49 130.47"/></g><g id="LINE-98"><line class="cls-2" x1="155.15" y1="106.04" x2="155.15" y2="108.56"/></g><g id="LINE-99"><line class="cls-2" x1="155.15" y1="108.56" x2="156.46" y2="108.56"/></g><g id="LINE-100"><line class="cls-2" x1="160.18" y1="108.56" x2="158.13" y2="108.56"/></g><g id="LWPOLYLINE-57"><rect class="cls-2" x="52.15" y="59.43" width="13.41" height="21.77"/></g><g id="LWPOLYLINE-58"><rect class="cls-2" x="67.24" y="59.43" width="13.41" height="21.77"/></g><g id="LWPOLYLINE-59"><rect class="cls-2" x="52.99" y="60.27" width="11.74" height="20.1"/></g><g id="LWPOLYLINE-60"><rect class="cls-2" x="68.08" y="60.27" width="11.74" height="20.1"/></g><g id="LWPOLYLINE-61"><rect class="cls-2" x="53.32" y="60.6" width="11.07" height="19.43"/></g><g id="LWPOLYLINE-62"><rect class="cls-2" x="68.41" y="60.6" width="11.07" height="19.43"/></g><g id="LWPOLYLINE-63"><rect class="cls-2" x="106.56" y="59.43" width="13.41" height="21.77"/></g><g id="LWPOLYLINE-64"><rect class="cls-2" x="107.4" y="60.27" width="11.74" height="20.1"/></g><g id="LWPOLYLINE-65"><rect class="cls-2" x="107.74" y="60.6" width="11.07" height="19.43"/></g><g id="LWPOLYLINE-66"><rect class="cls-2" x="121.65" y="59.43" width="13.41" height="21.77"/></g><g id="LWPOLYLINE-67"><rect class="cls-2" x="122.49" y="60.27" width="11.74" height="20.1"/></g><g id="LWPOLYLINE-68"><rect class="cls-2" x="122.82" y="60.6" width="11.07" height="19.43"/></g><g id="HATCH"><rect class="cls-1" x="21.16" y="35.15" width="8.39" height="7.7"/><path class="cls-2" d="m21.16,36.22h8.39m-8.39,1.53h8.39m-8.39,1.53h8.39m-8.39,1.53h8.39m-8.39,1.53h8.39m-7.55.51v-.51m0-1.53v-1.53m0-1.53v-1.53m1.53,6.13v-1.53m0-1.53v-1.53m0-1.53v-1.06m1.53,7.7v-.51m0-1.53v-1.53m0-1.53v-1.53m1.53,6.13v-1.53m0-1.53v-1.53m0-1.53v-1.06m1.53,7.7v-.51m0-1.53v-1.53m0-1.53v-1.53"/></g><g id="LWPOLYLINE-69"><line class="cls-2" x1="76.22" y1="147.92" x2="76.22" y2="154.62"/></g><g id="LWPOLYLINE-70"><line class="cls-2" x1="76.22" y1="151.27" x2="161.7" y2="151.27"/></g><g id="LWPOLYLINE-71"><line class="cls-2" x1="76.22" y1="147.92" x2="156.67" y2="147.92"/></g><g id="LWPOLYLINE-72"><line class="cls-2" x1="76.89" y1="144.57" x2="58.8" y2="144.57"/></g><g id="LWPOLYLINE-73"><line class="cls-2" x1="20.38" y1="104.37" x2="162.69" y2="104.37"/></g><g id="LWPOLYLINE-74"><line class="cls-2" x1="104.75" y1="104.37" x2="104.75" y2="147.92"/></g><g id="LWPOLYLINE-75"><line class="cls-2" x1="29.59" y1="107.72" x2="29.59" y2="142.89"/></g><g id="LWPOLYLINE-76"><line class="cls-2" x1="101.35" y1="107.72" x2="101.35" y2="142.89"/></g><g id="LWPOLYLINE-77"><line class="cls-2" x1="101.12" y1="108.89" x2="101.12" y2="141.72"/></g><g id="LWPOLYLINE-78"><line class="cls-2" x1="29.59" y1="107.72" x2="103.32" y2="107.72"/></g><g id="LWPOLYLINE-79"><line class="cls-2" x1="103.32" y1="142.89" x2="29.59" y2="142.89"/></g><g id="LWPOLYLINE-80"><line class="cls-2" x1="101.12" y1="141.72" x2="29.59" y2="141.72"/></g><g id="LWPOLYLINE-81"><line class="cls-2" x1="103.32" y1="107.72" x2="103.32" y2="142.89"/></g><g id="LWPOLYLINE-82"><polyline class="cls-2" points="105.96 147.92 105.96 111.07 127.51 111.07 127.51 147.92"/></g><g id="LWPOLYLINE-83"><line class="cls-2" x1="23.73" y1="106.04" x2="66.45" y2="106.04"/></g><g id="LWPOLYLINE-84"><line class="cls-2" x1="20.38" y1="99.34" x2="66.45" y2="99.34"/></g><g id="LWPOLYLINE-85"><line class="cls-2" x1="20.38" y1="97.67" x2="66.45" y2="97.67"/></g><g id="LWPOLYLINE-86"><line class="cls-2" x1="24.65" y1="97.67" x2="66.45" y2="82.59"/></g><g id="LWPOLYLINE-87"><line class="cls-2" x1="23.73" y1="104.37" x2="23.73" y2="106.04"/></g><g id="LWPOLYLINE-88"><line class="cls-2" x1="109.18" y1="106.04" x2="66.45" y2="106.04"/></g><g id="LWPOLYLINE-89"><line class="cls-2" x1="112.53" y1="99.34" x2="66.45" y2="99.34"/></g><g id="LWPOLYLINE-90"><line class="cls-2" x1="112.53" y1="97.67" x2="66.45" y2="97.67"/></g><g id="LWPOLYLINE-91"><line class="cls-2" x1="109.18" y1="104.37" x2="109.18" y2="106.04"/></g><g id="LWPOLYLINE-92"><line class="cls-2" x1="108.26" y1="97.67" x2="66.45" y2="82.59"/></g><g id="LWPOLYLINE-93"><line class="cls-2" x1="162.69" y1="90.97" x2="162.69" y2="104.37"/></g><g id="LWPOLYLINE-94"><line class="cls-2" x1="160.18" y1="104.37" x2="160.18" y2="151.27"/></g><g id="LWPOLYLINE-95"><line class="cls-2" x1="89.68" y1="90.97" x2="162.69" y2="90.97"/></g><g id="LWPOLYLINE-96"><line class="cls-2" x1="112.53" y1="99.34" x2="162.69" y2="99.34"/></g><g id="LWPOLYLINE-97"><line class="cls-2" x1="112.53" y1="97.67" x2="162.69" y2="97.67"/></g><g id="LWPOLYLINE-98"><line class="cls-2" x1="109.18" y1="106.04" x2="160.18" y2="106.04"/></g><g id="LWPOLYLINE-99"><line class="cls-2" x1="128.35" y1="106.04" x2="128.35" y2="147.92"/></g><g id="LWPOLYLINE-100"><line class="cls-2" x1="26.18" y1="66.7" x2="26.18" y2="97.67"/></g><g id="LWPOLYLINE-101"><line class="cls-2" x1="26.18" y1="106.04" x2="26.18" y2="154.62"/></g><g id="LWPOLYLINE-102"><line class="cls-2" x1="161.03" y1="66.7" x2="161.03" y2="90.97"/></g><g id="LINE-101"><line class="cls-2" x1="81.49" y1="82.04" x2="51.31" y2="82.04"/></g><g id="LINE-102"><line class="cls-2" x1="66.4" y1="48.83" x2="93.61" y2="65.9"/></g><g id="LINE-103"><line class="cls-2" x1="66.4" y1="42.89" x2="93.61" y2="59.97"/></g><g id="LINE-104"><line class="cls-2" x1="81.49" y1="58.6" x2="81.49" y2="82.04"/></g><g id="LINE-105"><line class="cls-2" x1="66.4" y1="42.89" x2="37.91" y2="60.77"/></g><g id="LINE-106"><line class="cls-2" x1="66.4" y1="48.83" x2="37.91" y2="66.7"/></g><g id="LINE-107"><line class="cls-2" x1="51.31" y1="82.04" x2="51.31" y2="58.6"/></g><g id="LWPOLYLINE-103"><line class="cls-2" x1="40.73" y1="64.94" x2="42.1" y2="64.94"/></g><g id="LWPOLYLINE-104"><line class="cls-2" x1="20.38" y1="61.54" x2="37.91" y2="61.54"/></g><g id="LWPOLYLINE-105"><line class="cls-2" x1="37.91" y1="60.77" x2="37.91" y2="66.7"/></g><g id="LWPOLYLINE-106"><line class="cls-2" x1="20.38" y1="66.7" x2="47.12" y2="66.7"/></g><g id="LWPOLYLINE-107"><line class="cls-2" x1="20.38" y1="66.7" x2="20.38" y2="37.4"/></g><g id="LWPOLYLINE-108"><line class="cls-2" x1="93.61" y1="37.4" x2="166.84" y2="37.4"/></g><g id="LINE-108"><line class="cls-2" x1="120.81" y1="48.83" x2="93.61" y2="65.9"/></g><g id="LINE-109"><line class="cls-2" x1="120.81" y1="42.89" x2="93.61" y2="59.97"/></g><g id="LWPOLYLINE-109"><line class="cls-2" x1="166.84" y1="66.7" x2="140.09" y2="66.7"/></g><g id="LWPOLYLINE-110"><line class="cls-2" x1="166.84" y1="61.54" x2="149.3" y2="61.54"/></g><g id="LWPOLYLINE-111"><line class="cls-2" x1="166.84" y1="66.7" x2="166.84" y2="37.4"/></g><g id="LINE-110"><line class="cls-2" x1="120.81" y1="42.89" x2="149.3" y2="60.77"/></g><g id="LINE-111"><line class="cls-2" x1="120.81" y1="48.83" x2="149.3" y2="66.7"/></g><g id="LWPOLYLINE-112"><line class="cls-2" x1="149.3" y1="60.77" x2="149.3" y2="66.7"/></g><g id="LWPOLYLINE-113"><line class="cls-2" x1="146.49" y1="64.94" x2="145.12" y2="64.94"/></g><g id="LWPOLYLINE-114"><line class="cls-2" x1="20.38" y1="63.26" x2="37.91" y2="63.26"/></g><g id="LWPOLYLINE-115"><line class="cls-2" x1="42.1" y1="64.08" x2="42.1" y2="66.7"/></g><g id="LWPOLYLINE-116"><line class="cls-2" x1="47.12" y1="60.92" x2="47.12" y2="66.7"/></g><g id="LWPOLYLINE-117"><line class="cls-2" x1="166.84" y1="63.26" x2="149.3" y2="63.26"/></g><g id="LWPOLYLINE-118"><line class="cls-2" x1="145.12" y1="64.08" x2="145.12" y2="66.7"/></g><g id="LWPOLYLINE-119"><line class="cls-2" x1="140.09" y1="60.92" x2="140.09" y2="66.7"/></g><g id="LWPOLYLINE-120"><polyline class="cls-2" points="26.91 96.85 26.18 96.85 26.18 94.34"/></g><g id="LWPOLYLINE-121"><line class="cls-2" x1="105.96" y1="143.73" x2="26.18" y2="143.73"/></g><g id="LWPOLYLINE-122"><line class="cls-2" x1="156.67" y1="147.92" x2="156.67" y2="148.59"/></g><g id="LWPOLYLINE-123"><line class="cls-2" x1="156" y1="148.59" x2="156" y2="151.27"/></g><g id="LWPOLYLINE-124"><line class="cls-2" x1="161.03" y1="151.94" x2="161.03" y2="154.62"/></g><g id="LWPOLYLINE-125"><line class="cls-2" x1="161.7" y1="151.27" x2="161.7" y2="151.94"/></g><g id="LWPOLYLINE-126"><line class="cls-2" x1="76.89" y1="145.24" x2="58.8" y2="145.24"/></g><g id="LWPOLYLINE-127"><line class="cls-2" x1="58.8" y1="144.57" x2="58.8" y2="145.24"/></g><g id="LWPOLYLINE-128"><line class="cls-2" x1="59.47" y1="145.24" x2="59.47" y2="154.62"/></g><g id="LWPOLYLINE-129"><line class="cls-2" x1="76.89" y1="145.24" x2="76.89" y2="144.57"/></g><g id="LWPOLYLINE-130"><line class="cls-2" x1="76.22" y1="154.62" x2="76.22" y2="145.24"/></g><g id="LWPOLYLINE-131"><line class="cls-2" x1="30.39" y1="35.15" x2="20.32" y2="35.15"/></g><g id="LWPOLYLINE-132"><line class="cls-2" x1="30.39" y1="34.32" x2="20.32" y2="34.32"/></g><g id="LWPOLYLINE-133"><line class="cls-2" x1="21.16" y1="35.15" x2="21.16" y2="42.85"/></g><g id="LWPOLYLINE-134"><line class="cls-2" x1="20.32" y1="34.32" x2="20.32" y2="35.15"/></g><g id="LWPOLYLINE-135"><line class="cls-2" x1="29.55" y1="35.15" x2="29.55" y2="42.85"/></g><g id="LWPOLYLINE-136"><line class="cls-2" x1="30.39" y1="34.32" x2="30.39" y2="35.15"/></g><g id="LWPOLYLINE-137"><line class="cls-2" x1="93.61" y1="37.4" x2="29.55" y2="37.4"/></g><g id="LWPOLYLINE-138"><line class="cls-2" x1="21.16" y1="37.4" x2="20.38" y2="37.4"/></g><g id="LWPOLYLINE-139"><line class="cls-2" x1="21.16" y1="42.85" x2="29.55" y2="42.85"/></g><g id="LWPOLYLINE-140"><line class="cls-2" x1="21.16" y1="66.7" x2="21.16" y2="97.67"/></g><g id="LWPOLYLINE-141"><line class="cls-2" x1="21.16" y1="104.37" x2="21.16" y2="154.62"/></g><g id="LWPOLYLINE-142"><rect class="cls-2" x="131.33" y="106.04" width="1.67" height="5.02"/></g><g id="LWPOLYLINE-143"><rect class="cls-2" x="139.71" y="106.04" width="1.67" height="5.02"/></g><g id="LWPOLYLINE-144"><rect class="cls-2" x="148.08" y="106.04" width="1.67" height="5.02"/></g><g id="LWPOLYLINE-145"><rect class="cls-2" x="156.46" y="106.04" width="1.67" height="5.02"/></g><g id="LINE-112"><line class="cls-2" x1="158.13" y1="108.56" x2="160.18" y2="108.56"/></g><g id="LWPOLYLINE-146"><polyline class="cls-2" points="158.13 111.07 160.18 111.07 160.18 108.56"/></g><g id="LINE-113"><line class="cls-2" x1="81.49" y1="58.6" x2="51.31" y2="58.6"/></g><g id="LINE-114"><line class="cls-2" x1="105.73" y1="58.6" x2="135.9" y2="58.6"/></g><g id="LINE-115"><line class="cls-2" x1="135.9" y1="82.04" x2="135.9" y2="58.6"/></g><g id="LINE-116"><line class="cls-2" x1="105.73" y1="58.6" x2="105.73" y2="82.04"/></g><g id="LINE-117"><line class="cls-2" x1="105.73" y1="82.04" x2="135.9" y2="82.04"/></g><g id="LWPOLYLINE-147"><line class="cls-2" x1="160.18" y1="143.73" x2="127.51" y2="143.73"/></g><g id="LWPOLYLINE-148"><line class="cls-2" x1="85.68" y1="66.66" x2="101.54" y2="66.66"/></g><g id="LWPOLYLINE-149"><line class="cls-2" x1="85.68" y1="60.92" x2="85.68" y2="66.66"/></g><g id="LWPOLYLINE-150"><line class="cls-2" x1="101.54" y1="60.92" x2="101.54" y2="66.66"/></g><g id="LWPOLYLINE-151"><line class="cls-2" x1="96.51" y1="64.08" x2="96.51" y2="66.66"/></g><g id="LWPOLYLINE-152"><line class="cls-2" x1="90.7" y1="64.08" x2="90.7" y2="66.66"/></g><g id="LWPOLYLINE-153"><line class="cls-2" x1="96.51" y1="64.94" x2="95.14" y2="64.94"/></g><g id="LWPOLYLINE-154"><line class="cls-2" x1="90.7" y1="64.94" x2="92.07" y2="64.94"/></g><g id="LINE-118"><line class="cls-2" x1="112.53" y1="104.37" x2="112.53" y2="97.67"/></g><g id="LINE-119"><line class="cls-2" x1="20.38" y1="104.37" x2="20.38" y2="97.67"/></g></svg>