<?xml version="1.0" encoding="UTF-8"?><svg id="PAVIMENTAZIONE_-_flooring" xmlns="http://www.w3.org/2000/svg" width="231.83" height="190.47" viewBox="0 0 231.83 190.47"><defs><style>.cls-1{stroke-miterlimit:10;}.cls-1,.cls-2{fill:none;stroke:#000;}.cls-2{stroke-linecap:round;stroke-linejoin:round;stroke-width:.5px;}</style></defs><g id="LWPOLYLINE"><line class="cls-2" x1="196.95" y1="151.73" x2="30.41" y2="151.73"/></g><g id="LINE"><line class="cls-2" x1="182.28" y1="78.9" x2="177.26" y2="78.9"/></g><g id="LINE-2"><line class="cls-2" x1="177.26" y1="78.9" x2="177.26" y2="81.41"/></g><g id="LINE-3"><line class="cls-2" x1="177.26" y1="81.41" x2="182.28" y2="81.41"/></g><g id="LINE-4"><line class="cls-2" x1="182.28" y1="81.41" x2="179.77" y2="81.41"/></g><g id="LINE-5"><line class="cls-2" x1="179.77" y1="81.41" x2="179.77" y2="83.92"/></g><g id="LINE-6"><line class="cls-2" x1="179.77" y1="83.92" x2="182.28" y2="83.92"/></g><g id="LINE-7"><line class="cls-2" x1="182.28" y1="83.92" x2="177.26" y2="83.92"/></g><g id="LINE-8"><line class="cls-2" x1="177.26" y1="83.92" x2="177.26" y2="86.43"/></g><g id="LINE-9"><line class="cls-2" x1="177.26" y1="86.43" x2="182.28" y2="86.43"/></g><g id="HATCH"><rect class="cls-1" x="178.92" y="32.27" width="8.39" height="7.7"/><path class="cls-2" d="m178.92,33.34h8.39m-8.39,1.53h8.39m-8.39,1.53h8.39m-8.39,1.53h8.39m-8.39,1.53h8.39m-7.55.51v-.51m0-1.53v-1.53m0-1.53v-1.53m1.53,6.13v-1.53m0-1.53v-1.53m0-1.53v-1.06m1.53,7.7v-.51m0-1.53v-1.53m0-1.53v-1.53m1.53,6.13v-1.53m0-1.53v-1.53m0-1.53v-1.06m1.53,7.7v-.51m0-1.53v-1.53m0-1.53v-1.53"/></g><g id="LINE-10"><line class="cls-2" x1="177.26" y1="63.82" x2="177.26" y2="66.34"/></g><g id="LINE-11"><line class="cls-2" x1="177.26" y1="66.34" x2="182.28" y2="66.34"/></g><g id="LINE-12"><line class="cls-2" x1="182.28" y1="66.34" x2="179.77" y2="66.34"/></g><g id="LINE-13"><line class="cls-2" x1="179.77" y1="66.34" x2="179.77" y2="68.85"/></g><g id="LINE-14"><line class="cls-2" x1="179.77" y1="68.85" x2="182.28" y2="68.85"/></g><g id="LINE-15"><line class="cls-2" x1="182.28" y1="68.85" x2="177.26" y2="68.85"/></g><g id="LINE-16"><line class="cls-2" x1="177.26" y1="68.85" x2="177.26" y2="71.36"/></g><g id="LINE-17"><line class="cls-2" x1="177.26" y1="71.36" x2="182.28" y2="71.36"/></g><g id="LINE-18"><line class="cls-2" x1="182.28" y1="71.36" x2="179.77" y2="71.36"/></g><g id="LINE-19"><line class="cls-2" x1="179.77" y1="71.36" x2="179.77" y2="73.87"/></g><g id="LINE-20"><line class="cls-2" x1="179.77" y1="73.87" x2="182.28" y2="73.87"/></g><g id="LINE-21"><line class="cls-2" x1="182.28" y1="76.38" x2="179.77" y2="76.38"/></g><g id="LINE-22"><line class="cls-2" x1="179.77" y1="76.38" x2="179.77" y2="78.9"/></g><g id="LINE-23"><line class="cls-2" x1="179.77" y1="78.9" x2="182.28" y2="78.9"/></g><g id="LINE-24"><line class="cls-2" x1="182.28" y1="73.87" x2="177.26" y2="73.87"/></g><g id="LINE-25"><line class="cls-2" x1="177.26" y1="73.87" x2="177.26" y2="76.38"/></g><g id="LINE-26"><line class="cls-2" x1="177.26" y1="76.38" x2="182.28" y2="76.38"/></g><g id="LINE-27"><line class="cls-2" x1="47.43" y1="78.9" x2="52.46" y2="78.9"/></g><g id="LINE-28"><line class="cls-2" x1="52.46" y1="78.9" x2="52.46" y2="81.41"/></g><g id="LINE-29"><line class="cls-2" x1="52.46" y1="81.41" x2="47.43" y2="81.41"/></g><g id="LINE-30"><line class="cls-2" x1="47.43" y1="83.92" x2="52.46" y2="83.92"/></g><g id="LINE-31"><line class="cls-2" x1="52.46" y1="83.92" x2="52.46" y2="86.43"/></g><g id="LINE-32"><line class="cls-2" x1="52.46" y1="86.43" x2="47.43" y2="86.43"/></g><g id="LINE-33"><line class="cls-2" x1="47.43" y1="81.41" x2="49.95" y2="81.41"/></g><g id="LINE-34"><line class="cls-2" x1="49.95" y1="81.41" x2="49.95" y2="83.92"/></g><g id="LINE-35"><line class="cls-2" x1="49.95" y1="83.92" x2="47.43" y2="83.92"/></g><g id="LINE-36"><line class="cls-2" x1="47.43" y1="73.87" x2="52.46" y2="73.87"/></g><g id="LINE-37"><line class="cls-2" x1="52.46" y1="73.87" x2="52.46" y2="76.38"/></g><g id="LINE-38"><line class="cls-2" x1="52.46" y1="76.38" x2="47.43" y2="76.38"/></g><g id="LINE-39"><line class="cls-2" x1="47.43" y1="76.38" x2="49.95" y2="76.38"/></g><g id="LINE-40"><line class="cls-2" x1="49.95" y1="76.38" x2="49.95" y2="78.9"/></g><g id="LINE-41"><line class="cls-2" x1="49.95" y1="78.9" x2="47.43" y2="78.9"/></g><g id="LINE-42"><line class="cls-2" x1="47.43" y1="71.36" x2="49.95" y2="71.36"/></g><g id="LINE-43"><line class="cls-2" x1="49.95" y1="71.36" x2="49.95" y2="73.87"/></g><g id="LINE-44"><line class="cls-2" x1="49.95" y1="73.87" x2="47.43" y2="73.87"/></g><g id="LINE-45"><line class="cls-2" x1="47.43" y1="68.85" x2="52.46" y2="68.85"/></g><g id="LINE-46"><line class="cls-2" x1="52.46" y1="68.85" x2="52.46" y2="71.36"/></g><g id="LINE-47"><line class="cls-2" x1="52.46" y1="71.36" x2="47.43" y2="71.36"/></g><g id="LINE-48"><line class="cls-2" x1="47.43" y1="66.34" x2="49.95" y2="66.34"/></g><g id="LINE-49"><line class="cls-2" x1="49.95" y1="66.34" x2="49.95" y2="68.85"/></g><g id="LINE-50"><line class="cls-2" x1="49.95" y1="68.85" x2="47.43" y2="68.85"/></g><g id="LINE-51"><line class="cls-2" x1="52.46" y1="63.82" x2="52.46" y2="66.34"/></g><g id="LINE-52"><line class="cls-2" x1="52.46" y1="66.34" x2="47.43" y2="66.34"/></g><g id="LINE-53"><line class="cls-2" x1="47.43" y1="99" x2="52.46" y2="99"/></g><g id="LINE-54"><line class="cls-2" x1="52.46" y1="99" x2="52.46" y2="101.51"/></g><g id="LINE-55"><line class="cls-2" x1="52.46" y1="101.51" x2="47.43" y2="101.51"/></g><g id="LINE-56"><line class="cls-2" x1="47.43" y1="104.02" x2="52.46" y2="104.02"/></g><g id="LINE-57"><line class="cls-2" x1="52.46" y1="104.02" x2="52.46" y2="106.53"/></g><g id="LINE-58"><line class="cls-2" x1="52.46" y1="106.53" x2="47.43" y2="106.53"/></g><g id="LINE-59"><line class="cls-2" x1="47.43" y1="101.51" x2="49.95" y2="101.51"/></g><g id="LINE-60"><line class="cls-2" x1="49.95" y1="101.51" x2="49.95" y2="104.02"/></g><g id="LINE-61"><line class="cls-2" x1="49.95" y1="104.02" x2="47.43" y2="104.02"/></g><g id="LINE-62"><line class="cls-2" x1="47.43" y1="93.97" x2="52.46" y2="93.97"/></g><g id="LINE-63"><line class="cls-2" x1="52.46" y1="93.97" x2="52.46" y2="96.48"/></g><g id="LINE-64"><line class="cls-2" x1="52.46" y1="96.48" x2="47.43" y2="96.48"/></g><g id="LINE-65"><line class="cls-2" x1="47.43" y1="96.48" x2="49.95" y2="96.48"/></g><g id="LINE-66"><line class="cls-2" x1="49.95" y1="96.48" x2="49.95" y2="99"/></g><g id="LINE-67"><line class="cls-2" x1="49.95" y1="99" x2="47.43" y2="99"/></g><g id="LINE-68"><line class="cls-2" x1="47.43" y1="91.46" x2="49.95" y2="91.46"/></g><g id="LINE-69"><line class="cls-2" x1="49.95" y1="91.46" x2="49.95" y2="93.97"/></g><g id="LINE-70"><line class="cls-2" x1="49.95" y1="93.97" x2="47.43" y2="93.97"/></g><g id="LINE-71"><line class="cls-2" x1="47.43" y1="88.95" x2="52.46" y2="88.95"/></g><g id="LINE-72"><line class="cls-2" x1="52.46" y1="88.95" x2="52.46" y2="91.46"/></g><g id="LINE-73"><line class="cls-2" x1="52.46" y1="91.46" x2="47.43" y2="91.46"/></g><g id="LINE-74"><line class="cls-2" x1="47.43" y1="86.43" x2="49.95" y2="86.43"/></g><g id="LINE-75"><line class="cls-2" x1="49.95" y1="86.43" x2="49.95" y2="88.95"/></g><g id="LINE-76"><line class="cls-2" x1="49.95" y1="88.95" x2="47.43" y2="88.95"/></g><g id="LINE-77"><line class="cls-2" x1="182.28" y1="99" x2="177.26" y2="99"/></g><g id="LINE-78"><line class="cls-2" x1="177.26" y1="99" x2="177.26" y2="101.51"/></g><g id="LINE-79"><line class="cls-2" x1="177.26" y1="101.51" x2="182.28" y2="101.51"/></g><g id="LINE-80"><line class="cls-2" x1="182.28" y1="101.51" x2="179.77" y2="101.51"/></g><g id="LINE-81"><line class="cls-2" x1="179.77" y1="101.51" x2="179.77" y2="104.02"/></g><g id="LINE-82"><line class="cls-2" x1="179.77" y1="104.02" x2="182.28" y2="104.02"/></g><g id="LINE-83"><line class="cls-2" x1="182.28" y1="104.02" x2="177.26" y2="104.02"/></g><g id="LINE-84"><line class="cls-2" x1="177.26" y1="104.02" x2="177.26" y2="106.53"/></g><g id="LINE-85"><line class="cls-2" x1="177.26" y1="106.53" x2="182.28" y2="106.53"/></g><g id="LINE-86"><line class="cls-2" x1="182.28" y1="86.43" x2="179.77" y2="86.43"/></g><g id="LINE-87"><line class="cls-2" x1="179.77" y1="86.43" x2="179.77" y2="88.95"/></g><g id="LINE-88"><line class="cls-2" x1="179.77" y1="88.95" x2="182.28" y2="88.95"/></g><g id="LINE-89"><line class="cls-2" x1="182.28" y1="88.95" x2="177.26" y2="88.95"/></g><g id="LINE-90"><line class="cls-2" x1="177.26" y1="88.95" x2="177.26" y2="91.46"/></g><g id="LINE-91"><line class="cls-2" x1="177.26" y1="91.46" x2="182.28" y2="91.46"/></g><g id="LINE-92"><line class="cls-2" x1="182.28" y1="91.46" x2="179.77" y2="91.46"/></g><g id="LINE-93"><line class="cls-2" x1="179.77" y1="91.46" x2="179.77" y2="93.97"/></g><g id="LINE-94"><line class="cls-2" x1="179.77" y1="93.97" x2="182.28" y2="93.97"/></g><g id="LINE-95"><line class="cls-2" x1="182.28" y1="96.48" x2="179.77" y2="96.48"/></g><g id="LINE-96"><line class="cls-2" x1="179.77" y1="96.48" x2="179.77" y2="99"/></g><g id="LINE-97"><line class="cls-2" x1="179.77" y1="99" x2="182.28" y2="99"/></g><g id="LINE-98"><line class="cls-2" x1="182.28" y1="93.97" x2="177.26" y2="93.97"/></g><g id="LINE-99"><line class="cls-2" x1="177.26" y1="93.97" x2="177.26" y2="96.48"/></g><g id="LINE-100"><line class="cls-2" x1="177.26" y1="96.48" x2="182.28" y2="96.48"/></g><g id="LINE-101"><line class="cls-2" x1="47.43" y1="119.09" x2="52.46" y2="119.09"/></g><g id="LINE-102"><line class="cls-2" x1="52.46" y1="119.09" x2="52.46" y2="121.61"/></g><g id="LINE-103"><line class="cls-2" x1="52.46" y1="121.61" x2="47.43" y2="121.61"/></g><g id="LINE-104"><line class="cls-2" x1="47.43" y1="124.12" x2="52.46" y2="124.12"/></g><g id="LINE-105"><line class="cls-2" x1="52.46" y1="124.12" x2="52.46" y2="126.63"/></g><g id="LINE-106"><line class="cls-2" x1="52.46" y1="126.63" x2="47.43" y2="126.63"/></g><g id="LINE-107"><line class="cls-2" x1="47.43" y1="121.61" x2="49.95" y2="121.61"/></g><g id="LINE-108"><line class="cls-2" x1="49.95" y1="121.61" x2="49.95" y2="124.12"/></g><g id="LINE-109"><line class="cls-2" x1="49.95" y1="124.12" x2="47.43" y2="124.12"/></g><g id="LINE-110"><line class="cls-2" x1="47.43" y1="114.07" x2="52.46" y2="114.07"/></g><g id="LINE-111"><line class="cls-2" x1="52.46" y1="114.07" x2="52.46" y2="116.58"/></g><g id="LINE-112"><line class="cls-2" x1="52.46" y1="116.58" x2="47.43" y2="116.58"/></g><g id="LINE-113"><line class="cls-2" x1="47.43" y1="116.58" x2="49.95" y2="116.58"/></g><g id="LINE-114"><line class="cls-2" x1="49.95" y1="116.58" x2="49.95" y2="119.09"/></g><g id="LINE-115"><line class="cls-2" x1="49.95" y1="119.09" x2="47.43" y2="119.09"/></g><g id="LINE-116"><line class="cls-2" x1="47.43" y1="111.56" x2="49.95" y2="111.56"/></g><g id="LINE-117"><line class="cls-2" x1="49.95" y1="111.56" x2="49.95" y2="114.07"/></g><g id="LINE-118"><line class="cls-2" x1="49.95" y1="114.07" x2="47.43" y2="114.07"/></g><g id="LINE-119"><line class="cls-2" x1="47.43" y1="109.05" x2="52.46" y2="109.05"/></g><g id="LINE-120"><line class="cls-2" x1="52.46" y1="109.05" x2="52.46" y2="111.56"/></g><g id="LINE-121"><line class="cls-2" x1="52.46" y1="111.56" x2="47.43" y2="111.56"/></g><g id="LINE-122"><line class="cls-2" x1="47.43" y1="106.53" x2="49.95" y2="106.53"/></g><g id="LINE-123"><line class="cls-2" x1="49.95" y1="106.53" x2="49.95" y2="109.05"/></g><g id="LINE-124"><line class="cls-2" x1="49.95" y1="109.05" x2="47.43" y2="109.05"/></g><g id="LINE-125"><line class="cls-2" x1="182.28" y1="119.09" x2="177.26" y2="119.09"/></g><g id="LINE-126"><line class="cls-2" x1="177.26" y1="119.09" x2="177.26" y2="121.61"/></g><g id="LINE-127"><line class="cls-2" x1="177.26" y1="121.61" x2="182.28" y2="121.61"/></g><g id="LINE-128"><line class="cls-2" x1="182.28" y1="121.61" x2="179.77" y2="121.61"/></g><g id="LINE-129"><line class="cls-2" x1="179.77" y1="121.61" x2="179.77" y2="124.12"/></g><g id="LINE-130"><line class="cls-2" x1="179.77" y1="124.12" x2="182.28" y2="124.12"/></g><g id="LINE-131"><line class="cls-2" x1="182.28" y1="124.12" x2="177.26" y2="124.12"/></g><g id="LINE-132"><line class="cls-2" x1="177.26" y1="124.12" x2="177.26" y2="126.63"/></g><g id="LINE-133"><line class="cls-2" x1="177.26" y1="126.63" x2="182.28" y2="126.63"/></g><g id="LINE-134"><line class="cls-2" x1="182.28" y1="106.53" x2="179.77" y2="106.53"/></g><g id="LINE-135"><line class="cls-2" x1="179.77" y1="106.53" x2="179.77" y2="109.05"/></g><g id="LINE-136"><line class="cls-2" x1="179.77" y1="109.05" x2="182.28" y2="109.05"/></g><g id="LINE-137"><line class="cls-2" x1="182.28" y1="109.05" x2="177.26" y2="109.05"/></g><g id="LINE-138"><line class="cls-2" x1="177.26" y1="109.05" x2="177.26" y2="111.56"/></g><g id="LINE-139"><line class="cls-2" x1="177.26" y1="111.56" x2="182.28" y2="111.56"/></g><g id="LINE-140"><line class="cls-2" x1="182.28" y1="111.56" x2="179.77" y2="111.56"/></g><g id="LINE-141"><line class="cls-2" x1="179.77" y1="111.56" x2="179.77" y2="114.07"/></g><g id="LINE-142"><line class="cls-2" x1="179.77" y1="114.07" x2="182.28" y2="114.07"/></g><g id="LINE-143"><line class="cls-2" x1="182.28" y1="116.58" x2="179.77" y2="116.58"/></g><g id="LINE-144"><line class="cls-2" x1="179.77" y1="116.58" x2="179.77" y2="119.09"/></g><g id="LINE-145"><line class="cls-2" x1="179.77" y1="119.09" x2="182.28" y2="119.09"/></g><g id="LINE-146"><line class="cls-2" x1="182.28" y1="114.07" x2="177.26" y2="114.07"/></g><g id="LINE-147"><line class="cls-2" x1="177.26" y1="114.07" x2="177.26" y2="116.58"/></g><g id="LINE-148"><line class="cls-2" x1="177.26" y1="116.58" x2="182.28" y2="116.58"/></g><g id="LINE-149"><line class="cls-2" x1="47.43" y1="134.17" x2="52.46" y2="134.17"/></g><g id="LINE-150"><line class="cls-2" x1="52.46" y1="134.17" x2="52.46" y2="136.68"/></g><g id="LINE-151"><line class="cls-2" x1="52.46" y1="136.68" x2="47.43" y2="136.68"/></g><g id="LINE-152"><line class="cls-2" x1="47.43" y1="136.68" x2="49.95" y2="136.68"/></g><g id="LINE-153"><line class="cls-2" x1="49.95" y1="136.68" x2="49.95" y2="139.19"/></g><g id="LINE-154"><line class="cls-2" x1="49.95" y1="139.19" x2="47.43" y2="139.19"/></g><g id="LINE-155"><line class="cls-2" x1="47.43" y1="131.66" x2="49.95" y2="131.66"/></g><g id="LINE-156"><line class="cls-2" x1="49.95" y1="131.66" x2="49.95" y2="134.17"/></g><g id="LINE-157"><line class="cls-2" x1="49.95" y1="134.17" x2="47.43" y2="134.17"/></g><g id="LINE-158"><line class="cls-2" x1="47.43" y1="129.14" x2="52.46" y2="129.14"/></g><g id="LINE-159"><line class="cls-2" x1="52.46" y1="129.14" x2="52.46" y2="131.66"/></g><g id="LINE-160"><line class="cls-2" x1="52.46" y1="131.66" x2="47.43" y2="131.66"/></g><g id="LINE-161"><line class="cls-2" x1="47.43" y1="126.63" x2="49.95" y2="126.63"/></g><g id="LINE-162"><line class="cls-2" x1="49.95" y1="126.63" x2="49.95" y2="129.14"/></g><g id="LINE-163"><line class="cls-2" x1="49.95" y1="129.14" x2="47.43" y2="129.14"/></g><g id="LINE-164"><line class="cls-2" x1="182.28" y1="126.63" x2="179.77" y2="126.63"/></g><g id="LINE-165"><line class="cls-2" x1="179.77" y1="126.63" x2="179.77" y2="129.14"/></g><g id="LINE-166"><line class="cls-2" x1="179.77" y1="129.14" x2="182.28" y2="129.14"/></g><g id="LINE-167"><line class="cls-2" x1="182.28" y1="129.14" x2="177.26" y2="129.14"/></g><g id="LINE-168"><line class="cls-2" x1="177.26" y1="129.14" x2="177.26" y2="131.66"/></g><g id="LINE-169"><line class="cls-2" x1="177.26" y1="131.66" x2="182.28" y2="131.66"/></g><g id="LINE-170"><line class="cls-2" x1="182.28" y1="131.66" x2="179.77" y2="131.66"/></g><g id="LINE-171"><line class="cls-2" x1="179.77" y1="131.66" x2="179.77" y2="134.17"/></g><g id="LINE-172"><line class="cls-2" x1="179.77" y1="134.17" x2="182.28" y2="134.17"/></g><g id="LINE-173"><line class="cls-2" x1="182.28" y1="136.68" x2="179.77" y2="136.68"/></g><g id="LINE-174"><line class="cls-2" x1="179.77" y1="136.68" x2="179.77" y2="139.19"/></g><g id="LINE-175"><line class="cls-2" x1="179.77" y1="139.19" x2="182.28" y2="139.19"/></g><g id="LINE-176"><line class="cls-2" x1="182.28" y1="134.17" x2="177.26" y2="134.17"/></g><g id="LINE-177"><line class="cls-2" x1="177.26" y1="134.17" x2="177.26" y2="136.68"/></g><g id="LINE-178"><line class="cls-2" x1="177.26" y1="136.68" x2="182.28" y2="136.68"/></g><g id="LWPOLYLINE-2"><line class="cls-2" x1="88.82" y1="119.58" x2="107.41" y2="119.58"/></g><g id="LWPOLYLINE-3"><rect class="cls-2" x="67.55" y="99.81" width="40.2" height="20.1"/></g><g id="LWPOLYLINE-4"><polyline class="cls-2" points="107.41 119.58 107.41 100.15 88.82 100.15"/></g><g id="LWPOLYLINE-5"><polyline class="cls-2" points="86.48 100.15 67.89 100.15 67.89 119.58 86.48 119.58"/></g><g id="LWPOLYLINE-6"><line class="cls-2" x1="88.49" y1="100.15" x2="86.81" y2="100.15"/></g><g id="LWPOLYLINE-7"><line class="cls-2" x1="86.81" y1="119.58" x2="88.49" y2="119.58"/></g><g id="LWPOLYLINE-8"><line class="cls-2" x1="88.82" y1="100.15" x2="88.82" y2="119.58"/></g><g id="LWPOLYLINE-9"><line class="cls-2" x1="86.48" y1="100.15" x2="86.48" y2="119.58"/></g><g id="LWPOLYLINE-10"><line class="cls-2" x1="86.81" y1="99.81" x2="86.81" y2="119.91"/></g><g id="LWPOLYLINE-11"><line class="cls-2" x1="88.49" y1="99.81" x2="88.49" y2="119.91"/></g><g id="LWPOLYLINE-12"><line class="cls-2" x1="87.65" y1="100.15" x2="87.65" y2="119.58"/></g><g id="LWPOLYLINE-13"><polyline class="cls-2" points="143.24 100.15 161.83 100.15 161.83 119.58 143.24 119.58"/></g><g id="LWPOLYLINE-14"><rect class="cls-2" x="121.97" y="99.81" width="40.2" height="20.1"/></g><g id="LWPOLYLINE-15"><polyline class="cls-2" points="122.3 119.58 122.3 100.15 140.89 100.15"/></g><g id="LWPOLYLINE-16"><line class="cls-2" x1="140.89" y1="119.58" x2="122.3" y2="119.58"/></g><g id="LWPOLYLINE-17"><line class="cls-2" x1="142.07" y1="100.15" x2="142.07" y2="119.58"/></g><g id="LWPOLYLINE-18"><line class="cls-2" x1="141.23" y1="99.81" x2="141.23" y2="119.91"/></g><g id="LWPOLYLINE-19"><line class="cls-2" x1="142.9" y1="99.81" x2="142.9" y2="119.91"/></g><g id="LWPOLYLINE-20"><line class="cls-2" x1="143.24" y1="100.15" x2="143.24" y2="119.58"/></g><g id="LWPOLYLINE-21"><line class="cls-2" x1="140.89" y1="100.15" x2="140.89" y2="119.58"/></g><g id="LWPOLYLINE-22"><line class="cls-2" x1="142.9" y1="119.58" x2="141.23" y2="119.58"/></g><g id="LWPOLYLINE-23"><line class="cls-2" x1="141.23" y1="100.15" x2="142.9" y2="100.15"/></g><g id="LWPOLYLINE-24"><rect class="cls-2" x="128.99" y="57.72" width="11.07" height="19.43"/></g><g id="LWPOLYLINE-25"><rect class="cls-2" x="128.65" y="57.39" width="11.74" height="20.1"/></g><g id="LWPOLYLINE-26"><rect class="cls-2" x="127.81" y="56.55" width="13.41" height="21.77"/></g><g id="LWPOLYLINE-27"><rect class="cls-2" x="144.07" y="57.72" width="11.07" height="19.43"/></g><g id="LWPOLYLINE-28"><rect class="cls-2" x="143.74" y="57.39" width="11.74" height="20.1"/></g><g id="LWPOLYLINE-29"><rect class="cls-2" x="142.9" y="56.55" width="13.41" height="21.77"/></g><g id="LWPOLYLINE-30"><rect class="cls-2" x="88.49" y="56.55" width="13.41" height="21.77"/></g><g id="LWPOLYLINE-31"><rect class="cls-2" x="89.33" y="57.39" width="11.74" height="20.1"/></g><g id="LWPOLYLINE-32"><rect class="cls-2" x="89.66" y="57.72" width="11.07" height="19.43"/></g><g id="LWPOLYLINE-33"><rect class="cls-2" x="73.4" y="56.55" width="13.41" height="21.77"/></g><g id="LWPOLYLINE-34"><rect class="cls-2" x="74.24" y="57.39" width="11.74" height="20.1"/></g><g id="LWPOLYLINE-35"><rect class="cls-2" x="74.57" y="57.72" width="11.07" height="19.43"/></g><g id="LINE-179"><line class="cls-2" x1="182.28" y1="139.19" x2="177.26" y2="139.19"/></g><g id="LINE-180"><line class="cls-2" x1="177.26" y1="139.19" x2="177.26" y2="140.85"/></g><g id="LINE-181"><line class="cls-2" x1="47.43" y1="139.19" x2="52.46" y2="139.19"/></g><g id="LINE-182"><line class="cls-2" x1="52.46" y1="139.19" x2="52.46" y2="140.85"/></g><g id="LINE-183"><line class="cls-2" x1="142.07" y1="40.01" x2="114.86" y2="57.09"/></g><g id="LWPOLYLINE-36"><line class="cls-2" x1="114.86" y1="34.52" x2="178.92" y2="34.52"/></g><g id="LINE-184"><line class="cls-2" x1="142.07" y1="45.95" x2="114.86" y2="63.02"/></g><g id="LWPOLYLINE-37"><line class="cls-2" x1="187.31" y1="63.82" x2="187.31" y2="151.73"/></g><g id="LWPOLYLINE-38"><line class="cls-2" x1="182.28" y1="63.82" x2="182.28" y2="151.73"/></g><g id="LWPOLYLINE-39"><line class="cls-2" x1="188.09" y1="58.66" x2="170.55" y2="58.66"/></g><g id="LWPOLYLINE-40"><line class="cls-2" x1="187.31" y1="39.97" x2="178.92" y2="39.97"/></g><g id="LWPOLYLINE-41"><line class="cls-2" x1="178.08" y1="31.44" x2="188.14" y2="31.44"/></g><g id="LWPOLYLINE-42"><line class="cls-2" x1="178.08" y1="32.27" x2="188.14" y2="32.27"/></g><g id="LWPOLYLINE-43"><line class="cls-2" x1="188.09" y1="60.38" x2="170.55" y2="60.38"/></g><g id="LWPOLYLINE-44"><line class="cls-2" x1="188.09" y1="63.82" x2="161.34" y2="63.82"/></g><g id="LWPOLYLINE-45"><line class="cls-2" x1="187.31" y1="32.27" x2="187.31" y2="39.97"/></g><g id="LWPOLYLINE-46"><line class="cls-2" x1="187.31" y1="34.52" x2="188.09" y2="34.52"/></g><g id="LWPOLYLINE-47"><line class="cls-2" x1="188.09" y1="63.82" x2="188.09" y2="34.52"/></g><g id="LWPOLYLINE-48"><line class="cls-2" x1="188.14" y1="31.44" x2="188.14" y2="32.27"/></g><g id="LINE-185"><line class="cls-2" x1="142.07" y1="40.01" x2="170.55" y2="57.89"/></g><g id="LINE-186"><line class="cls-2" x1="142.07" y1="45.95" x2="170.55" y2="63.82"/></g><g id="LWPOLYLINE-49"><line class="cls-2" x1="170.55" y1="57.89" x2="170.55" y2="63.82"/></g><g id="LWPOLYLINE-50"><line class="cls-2" x1="178.92" y1="32.27" x2="178.92" y2="39.97"/></g><g id="LWPOLYLINE-51"><line class="cls-2" x1="178.08" y1="31.44" x2="178.08" y2="32.27"/></g><g id="LWPOLYLINE-52"><line class="cls-2" x1="161.34" y1="58.04" x2="161.34" y2="63.82"/></g><g id="LWPOLYLINE-53"><line class="cls-2" x1="166.37" y1="61.2" x2="166.37" y2="63.82"/></g><g id="LWPOLYLINE-54"><line class="cls-2" x1="167.74" y1="62.06" x2="166.37" y2="62.06"/></g><g id="LWPOLYLINE-55"><line class="cls-2" x1="47.43" y1="63.82" x2="47.43" y2="151.73"/></g><g id="LINE-187"><line class="cls-2" x1="87.65" y1="40.01" x2="114.86" y2="57.09"/></g><g id="LWPOLYLINE-56"><line class="cls-2" x1="114.86" y1="34.52" x2="41.63" y2="34.52"/></g><g id="LINE-188"><line class="cls-2" x1="87.65" y1="45.95" x2="114.86" y2="63.02"/></g><g id="LWPOLYLINE-57"><line class="cls-2" x1="111.95" y1="62.06" x2="113.32" y2="62.06"/></g><g id="LWPOLYLINE-58"><line class="cls-2" x1="106.93" y1="63.78" x2="122.79" y2="63.78"/></g><g id="LWPOLYLINE-59"><line class="cls-2" x1="122.79" y1="63.78" x2="114.86" y2="63.78"/></g><g id="LWPOLYLINE-60"><line class="cls-2" x1="117.76" y1="62.06" x2="116.39" y2="62.06"/></g><g id="LINE-189"><line class="cls-2" x1="87.65" y1="40.01" x2="59.16" y2="57.89"/></g><g id="LWPOLYLINE-61"><line class="cls-2" x1="41.63" y1="63.82" x2="68.37" y2="63.82"/></g><g id="LINE-190"><line class="cls-2" x1="87.65" y1="45.95" x2="59.16" y2="63.82"/></g><g id="LWPOLYLINE-62"><line class="cls-2" x1="68.37" y1="58.04" x2="68.37" y2="63.82"/></g><g id="LWPOLYLINE-63"><line class="cls-2" x1="59.16" y1="57.89" x2="59.16" y2="63.82"/></g><g id="LWPOLYLINE-64"><line class="cls-2" x1="41.63" y1="58.66" x2="59.16" y2="58.66"/></g><g id="LWPOLYLINE-65"><line class="cls-2" x1="41.63" y1="63.82" x2="41.63" y2="34.52"/></g><g id="LINE-191"><line class="cls-2" x1="47.43" y1="63.82" x2="52.46" y2="63.82"/></g><g id="LWPOLYLINE-66"><line class="cls-2" x1="63.35" y1="61.2" x2="63.35" y2="63.82"/></g><g id="LWPOLYLINE-67"><line class="cls-2" x1="41.63" y1="60.38" x2="59.16" y2="60.38"/></g><g id="LWPOLYLINE-68"><line class="cls-2" x1="61.98" y1="62.06" x2="63.35" y2="62.06"/></g><g id="LWPOLYLINE-69"><rect class="cls-2" x="66.71" y="98.97" width="41.87" height="21.77"/></g><g id="LWPOLYLINE-70"><rect class="cls-2" x="121.13" y="98.97" width="41.87" height="21.77"/></g><g id="LINE-192"><line class="cls-2" x1="126.98" y1="79.16" x2="157.15" y2="79.16"/></g><g id="LINE-193"><line class="cls-2" x1="126.98" y1="55.71" x2="126.98" y2="79.16"/></g><g id="LINE-194"><line class="cls-2" x1="157.15" y1="79.16" x2="157.15" y2="55.71"/></g><g id="LINE-195"><line class="cls-2" x1="126.98" y1="55.71" x2="157.15" y2="55.71"/></g><g id="LINE-196"><line class="cls-2" x1="72.56" y1="79.16" x2="72.56" y2="55.71"/></g><g id="LINE-197"><line class="cls-2" x1="102.74" y1="55.71" x2="102.74" y2="79.16"/></g><g id="LINE-198"><line class="cls-2" x1="102.74" y1="79.16" x2="72.56" y2="79.16"/></g><g id="LINE-199"><line class="cls-2" x1="102.74" y1="55.71" x2="72.56" y2="55.71"/></g><g id="LWPOLYLINE-71"><line class="cls-2" x1="187.31" y1="140.85" x2="47.43" y2="140.85"/></g><g id="LWPOLYLINE-72"><line class="cls-2" x1="106.93" y1="58.04" x2="106.93" y2="63.78"/></g><g id="LWPOLYLINE-73"><line class="cls-2" x1="111.95" y1="61.2" x2="111.95" y2="63.78"/></g><g id="LWPOLYLINE-74"><line class="cls-2" x1="117.76" y1="61.2" x2="117.76" y2="63.78"/></g><g id="LWPOLYLINE-75"><line class="cls-2" x1="122.79" y1="58.04" x2="122.79" y2="63.78"/></g></svg>