<?xml version="1.0" encoding="UTF-8"?><svg id="PAVIMENTAZIONE_-_flooring" xmlns="http://www.w3.org/2000/svg" width="342.1" height="167.49" viewBox="0 0 342.1 167.49"><defs><style>.cls-1{stroke-dasharray:0 0 .12 .06;}.cls-1,.cls-2{fill:none;stroke:#000;stroke-linecap:round;stroke-linejoin:round;stroke-width:.5px;}</style></defs><g id="ARC"><path class="cls-2" d="m40.92,133.08c.17-1.64.02-3.3-.45-4.88"/></g><g id="ARC-2"><path class="cls-2" d="m40.98,124.47c-.22.27-.33.61-.34.96"/></g><g id="ARC-3"><path class="cls-2" d="m41.23,124.55c-.28.23-.48.54-.59.88"/></g><g id="ARC-4"><path class="cls-2" d="m41.68,126.35c-.14-.3-.49-.44-.8-.3-.1.05-.19.12-.25.22"/></g><g id="ARC-5"><path class="cls-2" d="m41.68,126.35c-.32-.17-.7-.2-1.05-.08"/></g><g id="ARC-6"><path class="cls-2" d="m41.28,121.81c-.36-.29-.88-.24-1.18.12-.17.2-.23.47-.16.73"/></g><g id="ARC-7"><path class="cls-2" d="m41.28,121.81c-.59-.07-1.15.29-1.34.85"/></g><g id="ARC-8"><path class="cls-2" d="m42.04,123.11c-.77.11-1.4.67-1.59,1.42"/></g><g id="ARC-9"><path class="cls-2" d="m42.04,123.11c-.55-.3-1.24-.1-1.54.45-.16.3-.18.66-.05.97"/></g><g id="ARC-10"><path class="cls-2" d="m41.68,122.6c-.66-.07-1.27.32-1.49.94"/></g><g id="ARC-11"><path class="cls-2" d="m41.68,122.6c-.4-.32-.98-.26-1.31.14-.18.23-.25.52-.18.81"/></g><g id="ARC-12"><path class="cls-2" d="m41.54,127.28c-.55-.32-1.22-.36-1.79-.09"/></g><g id="ARC-13"><path class="cls-2" d="m41.54,127.28c-.33-.51-1.01-.66-1.53-.34-.1.07-.19.15-.27.24"/></g><g id="ARC-14"><path class="cls-2" d="m41.6,126.82c-.28-.44-.87-.57-1.31-.29-.09.06-.16.13-.23.21"/></g><g id="ARC-15"><path class="cls-2" d="m41.6,126.82c-.47-.28-1.04-.31-1.54-.08"/></g><g id="ARC-16"><path class="cls-2" d="m40.99,121.33c-.5-.1-1.01.1-1.3.51"/></g><g id="ARC-17"><path class="cls-2" d="m40.77,126.12c-.4-2.17-1.01-4.3-1.84-6.35"/></g><g id="ARC-18"><path class="cls-2" d="m40.86,132.53c-.23-1.57-1.61-2.72-3.2-2.68"/></g><g id="ARC-19"><path class="cls-2" d="m41.44,128.55c-.47-.73-1.45-.95-2.18-.48-.15.09-.27.21-.38.34"/></g><g id="ARC-20"><path class="cls-2" d="m41.44,128.55c-.78-.46-1.74-.51-2.56-.14"/></g><g id="ARC-21"><path class="cls-2" d="m41.48,127.95c-.7-.41-1.56-.46-2.31-.12"/></g><g id="ARC-22"><path class="cls-2" d="m41.48,127.95c-.35-.66-1.17-.91-1.83-.55-.19.1-.36.25-.48.43"/></g><g id="ARC-23"><path class="cls-2" d="m40.99,121.33c-.33-.29-.83-.26-1.11.07-.11.12-.17.27-.19.43"/></g><g id="ARC-24"><path class="cls-2" d="m40.59,133.08c.32-3.47-2.17-6.57-5.62-7.02"/></g><g id="ARC-25"><path class="cls-2" d="m39.78,128.41c0-.09-.05-.17-.13-.22"/></g><g id="ARC-26"><path class="cls-2" d="m40.36,127.85c-.03-.08-.05-.16-.08-.24"/></g><g id="ARC-27"><path class="cls-2" d="m40.14,127.24c-.02-.06-.04-.11-.07-.17"/></g><g id="ARC-28"><path class="cls-2" d="m38.55,129.14c-.28.07-.44.36-.36.63.01.04.03.09.05.12"/></g><g id="ARC-29"><path class="cls-2" d="m38.55,129.14c-.2.2-.31.48-.31.76"/></g><g id="ARC-30"><path class="cls-2" d="m39.12,129.15c-.28.07-.45.35-.38.63.04.16.15.29.3.35"/></g><g id="ARC-31"><path class="cls-2" d="m39.12,129.15c-.25.27-.29.68-.08.98"/></g><g id="ARC-32"><path class="cls-2" d="m38.23,129.89c-.18.08-.27.28-.19.46.03.07.09.14.16.18"/></g><g id="ARC-33"><path class="cls-2" d="m38.23,129.89c-.1.2-.11.43-.03.64"/></g><g id="ARC-34"><path class="cls-2" d="m37.66,129.86c-.08.2-.03.42.12.58"/></g><g id="ARC-35"><path class="cls-2" d="m37.66,129.86c-.15.09-.19.28-.1.43.05.08.13.13.22.15"/></g><g id="ARC-36"><path class="cls-2" d="m37.96,129.29c-.17.15-.27.35-.3.57"/></g><g id="ARC-37"><path class="cls-2" d="m37.96,129.29c-.18-.04-.36.07-.4.25-.03.12.01.24.1.32"/></g><g id="ARC-38"><path class="cls-2" d="m39.04,130.13c-.27.03-.46.28-.43.55.02.17.13.32.28.39"/></g><g id="ARC-39"><path class="cls-2" d="m39.04,130.13c-.23.26-.28.62-.15.94"/></g><g id="ARC-40"><path class="cls-2" d="m38.93,127.15c-.11-.25-.4-.36-.65-.25-.16.07-.27.22-.29.39"/></g><g id="ARC-41"><path class="cls-2" d="m38.93,127.15c-.31-.14-.68-.09-.94.13"/></g><g id="ARC-42"><path class="cls-2" d="m39.46,127.96c0-.08,0-.16-.05-.24"/></g><g id="ARC-43"><path class="cls-2" d="m39.44,127.98c-.11-.24-.4-.33-.63-.22-.05.03-.1.06-.14.1"/></g><g id="ARC-44"><path class="cls-2" d="m37.81,123.16c-.13-.08-.27-.14-.42-.17"/></g><g id="ARC-45"><path class="cls-2" d="m37.81,123.16c-.03-.15-.18-.24-.32-.21-.03,0-.06.02-.09.04"/></g><g id="ARC-46"><path class="cls-2" d="m38.55,123.42c-.23-.09-.48-.06-.68.09"/></g><g id="ARC-47"><path class="cls-2" d="m38.46,123.62c-.19-.06-.38-.1-.58-.12"/></g><g id="LINE"><line class="cls-2" x1="38.51" y1="123.62" x2="38.81" y2="123.81"/></g><g id="ARC-48"><path class="cls-2" d="m39.32,125.52c-.11-.15-.25-.27-.42-.36"/></g><g id="ARC-49"><path class="cls-2" d="m38.9,124.84c-.44-.66-.94-1.28-1.5-1.85"/></g><g id="ARC-50"><path class="cls-2" d="m39.34,127.62c-.16-.15-.42-.14-.57.02-.05.06-.09.13-.1.21"/></g><g id="ARC-51"><path class="cls-2" d="m39.3,128.27c-.06.09-.07.2-.01.29"/></g><g id="ARC-52"><path class="cls-2" d="m39.46,121.16c-.34-.03-.67.15-.84.45"/></g><g id="ARC-53"><path class="cls-2" d="m39.46,121.16c-.19-.2-.5-.2-.7-.02-.12.12-.18.3-.14.46"/></g><g id="ARC-54"><path class="cls-2" d="m39.02,119.99c-.16-.06-.34.02-.41.18-.03.09-.03.18.02.27"/></g><g id="ARC-55"><path class="cls-2" d="m39.02,119.99c-.2.06-.36.23-.39.44"/></g><g id="ARC-56"><path class="cls-2" d="m39.2,120.45c-.22.04-.41.17-.53.36"/></g><g id="ARC-57"><path class="cls-2" d="m39.2,120.45c-.17-.1-.39-.04-.49.13-.04.07-.06.15-.04.23"/></g><g id="ARC-58"><path class="cls-2" d="m39.69,121.84c-.14-.26-.47-.36-.74-.22-.17.09-.28.26-.28.45"/></g><g id="ARC-59"><path class="cls-2" d="m39.69,121.84c-.36-.13-.75-.04-1.02.23"/></g><g id="ARC-60"><path class="cls-2" d="m39.78,128.41c-.13-.11-.33-.09-.44.04-.03.03-.05.07-.06.11"/></g><g id="ARC-61"><path class="cls-2" d="m40.2,123.54c-.2-.47-.75-.69-1.22-.49-.27.11-.47.35-.54.63"/></g><g id="ARC-62"><path class="cls-2" d="m40.2,123.54c-.54-.37-1.28-.32-1.76.14"/></g><g id="ARC-63"><path class="cls-2" d="m39.94,122.66c-.49-.33-1.15-.28-1.58.12"/></g><g id="ARC-64"><path class="cls-2" d="m39.94,122.66c-.18-.42-.67-.62-1.1-.44-.24.1-.42.31-.48.57"/></g><g id="ARC-65"><path class="cls-2" d="m39.76,124.8c-.05-.27-.31-.44-.58-.39-.17.03-.31.15-.37.31"/></g><g id="ARC-66"><path class="cls-2" d="m39.76,124.8c-.27-.21-.64-.24-.95-.08"/></g><g id="ARC-67"><path class="cls-2" d="m39.63,126.1c-.64-.08-1.3.06-1.85.4"/></g><g id="ARC-68"><path class="cls-2" d="m39.63,126.1c-.72-.49-1.7-.31-2.2.41"/></g><g id="ARC-69"><path class="cls-2" d="m40.27,125.6c-.27-.21-.64-.24-.95-.08"/></g><g id="ARC-70"><path class="cls-2" d="m40.27,125.6c-.05-.27-.31-.44-.58-.39-.17.03-.31.15-.37.31"/></g><g id="ARC-71"><path class="cls-2" d="m40.02,126.94c-.26-.63-.57-1.23-.93-1.8"/></g><g id="ARC-72"><path class="cls-2" d="m39.66,119.88c-.07-.17-.27-.24-.44-.17-.11.05-.18.15-.2.27"/></g><g id="ARC-73"><path class="cls-2" d="m39.66,119.88c-.22-.05-.44,0-.63.11"/></g><g id="ARC-74"><path class="cls-2" d="m40,120.25c-.28-.03-.57.04-.79.21"/></g><g id="ARC-75"><path class="cls-2" d="m40,120.25c-.23-.17-.55-.13-.73.09-.03.04-.05.07-.07.12"/></g><g id="LWPOLYLINE"><polygon class="cls-2" points="35.35 132.94 33.98 134.32 34.27 137.35 35.15 134.9 37.11 133.04 35.94 132.55 35.35 132.94"/></g><g id="ARC-76"><path class="cls-2" d="m36.22,126.36c-.31-.29-.79-.28-1.08.03-.13.13-.2.31-.21.49"/></g><g id="ARC-77"><path class="cls-2" d="m36.22,126.36c-.48-.02-.95.17-1.29.52"/></g><g id="ARC-78"><path class="cls-2" d="m37.08,126.72c-.37-.36-.95-.36-1.31,0-.2.21-.3.5-.26.79"/></g><g id="ARC-79"><path class="cls-2" d="m37.08,126.72c-.65-.14-1.3.19-1.57.8"/></g><g id="ARC-80"><path class="cls-2" d="m35.41,126.02c-.1-.11-.27-.13-.38-.03-.03.02-.05.05-.06.08"/></g><g id="ARC-81"><path class="cls-2" d="m35.41,126.02c-.15,0-.3,0-.44.05"/></g><g id="ARC-82"><path class="cls-2" d="m34.93,126.6c.04-.17.05-.35.04-.53"/></g><g id="ARC-83"><path class="cls-2" d="m34.97,126.07c-.1.16-.11.36-.04.53"/></g><g id="ARC-84"><path class="cls-2" d="m37.08,126.31c-.09-.23-.35-.35-.58-.26-.14.05-.25.17-.28.32"/></g><g id="ARC-85"><path class="cls-2" d="m37.08,126.31c-.28-.12-.6-.1-.86.05"/></g><g id="ARC-86"><path class="cls-2" d="m38.23,126.83c-.2-.34-.64-.45-.97-.25-.07.04-.12.09-.17.14"/></g><g id="ARC-87"><path class="cls-2" d="m38.23,126.83c-.37-.13-.76-.16-1.15-.11"/></g><g id="ARC-88"><path class="cls-2" d="m39.28,128.56c-.75-.26-1.59-.03-2.11.58"/></g><g id="ARC-89"><path class="cls-2" d="m37.99,127.28c-.42-.46-1.13-.49-1.59-.07-.17.16-.29.36-.34.59"/></g><g id="ARC-90"><path class="cls-2" d="m37.99,127.28c-.69-.22-1.44-.02-1.93.52"/></g><g id="ARC-91"><path class="cls-2" d="m38.66,127.86c-.38-.5-1.09-.6-1.59-.22-.27.21-.44.52-.45.86"/></g><g id="ARC-92"><path class="cls-2" d="m38.66,127.86c-.75-.22-1.55.03-2.04.64"/></g><g id="ARC-93"><path class="cls-2" d="m39.28,128.56c-.37-.52-1.1-.64-1.62-.27-.28.2-.45.51-.48.85"/></g><g id="ARC-94"><path class="cls-2" d="m37.4,123c-.16.1-.27.26-.29.45"/></g><g id="ARC-95"><path class="cls-2" d="m37.11,123.44c.12-.13.22-.28.29-.45"/></g><g id="ARC-96"><path class="cls-2" d="m37.94,123.58c-.31-.29-.79-.28-1.08.03-.13.13-.2.31-.21.49"/></g><g id="ARC-97"><path class="cls-2" d="m37.94,123.58c-.48-.02-.95.17-1.29.52"/></g><g id="ARC-98"><path class="cls-2" d="m38.36,124.09c-.65-.14-1.3.19-1.57.8"/></g><g id="ARC-99"><path class="cls-2" d="m38.36,124.09c-.37-.36-.95-.36-1.31,0-.2.21-.3.5-.26.79"/></g><g id="ARC-100"><path class="cls-2" d="m38.81,124.72c-.69-.22-1.44-.02-1.93.52"/></g><g id="ARC-101"><path class="cls-2" d="m38.81,124.72c-.42-.46-1.13-.49-1.59-.07-.17.16-.29.36-.34.59"/></g><g id="ARC-102"><path class="cls-2" d="m39.32,125.52c-.75-.26-1.59-.03-2.11.58"/></g><g id="ARC-103"><path class="cls-2" d="m38.49,125.04c-.64-.06-1.21.41-1.27,1.04,0,0,0,.01,0,.02"/></g><g id="ARC-104"><path class="cls-2" d="m40.58,126.18c-.27-.21-.64-.24-.95-.08"/></g><g id="ARC-105"><path class="cls-2" d="m40.58,126.18c-.05-.27-.31-.44-.58-.39-.17.03-.31.15-.37.31"/></g><g id="ARC-106"><path class="cls-2" d="m40.44,124.53c-.16-.61-.78-.97-1.38-.81-.33.09-.6.32-.75.63"/></g><g id="ARC-107"><path class="cls-2" d="m40.44,124.53c-.61-.49-1.45-.56-2.13-.18"/></g><g id="ARC-108"><path class="cls-2" d="m40.64,125.43c-.51-.71-1.5-.86-2.21-.35-.14.1-.26.22-.36.37"/></g><g id="ARC-109"><path class="cls-2" d="m40.64,125.43c-.81-.41-1.76-.41-2.57.01"/></g><g id="ARC-110"><path class="cls-2" d="m40.5,120.5c-.46-.05-.89.22-1.04.66"/></g><g id="ARC-111"><path class="cls-2" d="m40.5,120.5c-.28-.23-.69-.18-.91.09-.13.16-.18.37-.13.57"/></g><g id="ARC-112"><path class="cls-2" d="m71.97,118.66c-.19-.21-.44-.33-.72-.36"/></g><g id="ARC-113"><path class="cls-2" d="m71.97,118.66c.05-.22-.09-.44-.32-.49-.15-.03-.3.02-.4.13"/></g><g id="ARC-114"><path class="cls-2" d="m65.02,118.27c-.24-.25-.63-.26-.87-.02-.16.15-.22.37-.18.58"/></g><g id="ARC-115"><path class="cls-2" d="m65.02,118.27c-.43-.03-.84.19-1.05.56"/></g><g id="ARC-116"><path class="cls-2" d="m66.94,118.49c-.62-.13-1.26.12-1.63.63"/></g><g id="ARC-117"><path class="cls-2" d="m66.94,118.49c-.41-.36-1.03-.32-1.39.09-.13.15-.22.34-.24.54"/></g><g id="ARC-118"><path class="cls-2" d="m66.67,124.47c-.5-2.72-1.27-5.38-2.3-7.94"/></g><g id="ARC-119"><path class="cls-2" d="m71.25,118.3c-1.07,1.75-1.92,3.63-2.51,5.59"/></g><g id="ARC-120"><path class="cls-2" d="m71.25,118.3c-.25-.09-.53-.03-.72.16"/></g><g id="ARC-121"><path class="cls-2" d="m71.25,118.3c-.12-.18-.36-.24-.54-.12-.1.06-.16.16-.18.28"/></g><g id="ARC-122"><path class="cls-2" d="m74.68,123.83c-.15-.3-.51-.42-.8-.27-.07.03-.13.08-.18.13"/></g><g id="ARC-123"><path class="cls-2" d="m74.68,123.83c-.3-.15-.65-.2-.98-.14"/></g><g id="ARC-124"><path class="cls-2" d="m75.57,123.61c-2.17.38-4.12,1.55-5.48,3.28"/></g><g id="ARC-125"><path class="cls-2" d="m46.7,127.33c-.49-.54-1.24-.74-1.93-.52"/></g><g id="ARC-126"><path class="cls-2" d="m46.7,127.33c-.13-.61-.74-.99-1.34-.86-.23.05-.43.17-.59.34"/></g><g id="ARC-127"><path class="cls-2" d="m46.59,126.8c-.22-.3-.53-.51-.88-.6"/></g><g id="ARC-128"><path class="cls-2" d="m46.59,126.8c-.07-.41-.46-.68-.87-.6,0,0,0,0-.01,0"/></g><g id="ARC-129"><path class="cls-2" d="m46.42,125.88c-.2-.1-.43-.11-.64-.05"/></g><g id="ARC-130"><path class="cls-2" d="m46.42,125.88c-.03-.18-.2-.3-.38-.27-.12.02-.22.11-.25.22"/></g><g id="ARC-131"><path class="cls-2" d="m45.71,126.2c-.25-.28-.67-.34-.99-.13"/></g><g id="ARC-132"><path class="cls-2" d="m44.71,126.07c.33.07.66.11.99.13"/></g><g id="ARC-133"><path class="cls-2" d="m46.58,126.45c.06-.2,0-.43-.16-.57"/></g><g id="ARC-134"><path class="cls-2" d="m46.58,126.45c.14-.1.17-.3.07-.44-.05-.08-.14-.12-.23-.13"/></g><g id="ARC-135"><path class="cls-2" d="m47.52,126.07c.05-.21-.09-.41-.29-.46-.01,0-.03,0-.04,0"/></g><g id="ARC-136"><path class="cls-2" d="m47.52,126.07c.12-.11.13-.29.02-.41-.09-.1-.23-.12-.35-.06"/></g><g id="ARC-137"><path class="cls-2" d="m47.94,125.96c.07-.17.06-.37-.04-.53"/></g><g id="ARC-138"><path class="cls-2" d="m47.9,125.43c-.02.18,0,.36.04.53"/></g><g id="ARC-139"><path class="cls-2" d="m47.19,125.61c-.24-.12-.52-.16-.78-.12"/></g><g id="ARC-140"><path class="cls-2" d="m47.19,125.61c-.12-.24-.41-.34-.64-.22-.05.03-.1.06-.14.1"/></g><g id="ARC-141"><path class="cls-2" d="m47.9,125.43c-.14-.04-.29-.06-.44-.05"/></g><g id="ARC-142"><path class="cls-2" d="m47.9,125.43c-.07-.13-.23-.18-.37-.11-.03.02-.06.04-.08.06"/></g><g id="ARC-143"><path class="cls-2" d="m45.02,121.47c.04-.18-.08-.35-.25-.39-.12-.03-.24.02-.32.11"/></g><g id="ARC-144"><path class="cls-2" d="m45.02,121.47c-.15-.16-.35-.27-.57-.29"/></g><g id="LWPOLYLINE-2"><polygon class="cls-2" points="57.42 132.55 55.45 134.9 56.44 135.1 57.42 132.55"/></g><g id="ARC-145"><path class="cls-2" d="m43.99,121.97c-.32-.26-.79-.21-1.05.11,0,0,0,0,0,.01"/></g><g id="ARC-146"><path class="cls-2" d="m43.99,121.97c-.36-.08-.73-.04-1.06.12"/></g><g id="ARC-147"><path class="cls-2" d="m41.29,133.08c.05-1.57-.01-3.14-.19-4.7"/></g><g id="ARC-148"><path class="cls-2" d="m41.81,128.47c-.22,1.53-.25,3.08-.1,4.61"/></g><g id="ARC-149"><path class="cls-2" d="m43.13,128.6c-.86,1.33-1.25,2.91-1.12,4.49"/></g><g id="ARC-150"><path class="cls-2" d="m41.82,125.6c-.33,1.5-.46,3.04-.37,4.58"/></g><g id="ARC-151"><path class="cls-2" d="m44.23,130.09c-1.49-.05-2.75,1.11-2.8,2.61,0,.13,0,.26.01.38"/></g><g id="ARC-152"><path class="cls-2" d="m44.23,130.09c-.07-.13-.23-.18-.37-.11-.03.02-.06.04-.08.06"/></g><g id="ARC-153"><path class="cls-2" d="m44.23,130.09c-.14-.04-.29-.06-.44-.05"/></g><g id="ARC-154"><path class="cls-2" d="m43.51,130.27c-.12-.24-.41-.34-.64-.22-.05.03-.1.06-.14.1"/></g><g id="ARC-155"><path class="cls-2" d="m43.51,130.27c-.24-.12-.52-.16-.78-.12"/></g><g id="ARC-156"><path class="cls-2" d="m44.23,130.09c-.02.18,0,.36.04.53"/></g><g id="ARC-157"><path class="cls-2" d="m44.27,130.62c.07-.17.06-.37-.04-.53"/></g><g id="ARC-158"><path class="cls-2" d="m43.85,130.73c.12-.11.13-.29.02-.41-.09-.1-.23-.12-.35-.06"/></g><g id="ARC-159"><path class="cls-2" d="m43.85,130.73c.05-.21-.09-.41-.29-.46-.01,0-.03,0-.04,0"/></g><g id="ARC-160"><path class="cls-2" d="m43.05,130.96c.14-.1.17-.3.07-.44-.05-.08-.14-.12-.23-.13"/></g><g id="ARC-161"><path class="cls-2" d="m43.05,130.96c.06-.2,0-.43-.16-.57"/></g><g id="ARC-162"><path class="cls-2" d="m42.88,130.39c-.03-.18-.2-.3-.38-.27-.12.02-.22.11-.25.22"/></g><g id="ARC-163"><path class="cls-2" d="m42.88,130.39c-.2-.1-.43-.11-.64-.05"/></g><g id="ARC-164"><path class="cls-2" d="m42.43,125.65c.13-.61-.26-1.22-.87-1.35-.27-.06-.55-.02-.79.12"/></g><g id="ARC-165"><path class="cls-2" d="m42.23,125.46c-.29-.56-.84-.95-1.46-1.03"/></g><g id="ARC-166"><path class="cls-2" d="m41.77,125.85c-.19-.29-.58-.38-.87-.19-.06.04-.11.08-.15.14"/></g><g id="ARC-167"><path class="cls-2" d="m41.77,125.85c-.31-.18-.7-.2-1.03-.05"/></g><g id="ARC-168"><path class="cls-2" d="m40.99,127.43c-.02-.13-.04-.25-.06-.38"/></g><g id="ARC-169"><path class="cls-2" d="m40.82,126.38c0-.05-.02-.1-.03-.15"/></g><g id="ARC-170"><path class="cls-2" d="m40.89,126.81c-.01-.07-.02-.15-.04-.22"/></g><g id="ARC-171"><path class="cls-2" d="m43.6,127.95c-.1-.1-.23-.16-.38-.15"/></g><g id="ARC-172"><path class="cls-2" d="m43.6,127.95c-.03-.21-.23-.36-.44-.34"/></g><g id="ARC-173"><path class="cls-2" d="m44.27,127.25c-.39-.06-.78-.02-1.15.11"/></g><g id="ARC-174"><path class="cls-2" d="m44.27,127.25c-.26-.3-.71-.33-1-.07-.06.05-.11.11-.14.17"/></g><g id="ARC-175"><path class="cls-2" d="m43.97,126.48c-.37-.13-.78-.15-1.16-.07"/></g><g id="ARC-176"><path class="cls-2" d="m41.87,125.4s-.01.05-.02.07"/></g><g id="ARC-177"><path class="cls-2" d="m42.7,124.81c.12-.5-.19-1-.69-1.12-.28-.07-.58,0-.81.19"/></g><g id="ARC-178"><path class="cls-2" d="m42.7,124.81c-.22-.62-.84-1.01-1.5-.93"/></g><g id="ARC-179"><path class="cls-2" d="m42.98,124.09c-.2-.56-.76-.91-1.35-.83"/></g><g id="ARC-180"><path class="cls-2" d="m42.98,124.09c.11-.45-.17-.9-.62-1-.26-.06-.52,0-.72.17"/></g><g id="ARC-181"><path class="cls-2" d="m43.4,123.13c-.04-.3-.31-.51-.61-.47-.19.02-.35.15-.43.32"/></g><g id="ARC-182"><path class="cls-2" d="m43.4,123.13c-.29-.25-.69-.3-1.04-.15"/></g><g id="ARC-183"><path class="cls-2" d="m43.61,122.68c-.26-.22-.63-.27-.94-.13"/></g><g id="ARC-184"><path class="cls-2" d="m43.61,122.68c-.04-.27-.28-.46-.55-.42-.17.02-.32.13-.39.29"/></g><g id="ARC-185"><path class="cls-2" d="m43.96,129.06c-.71-.57-1.65-.75-2.52-.5"/></g><g id="ARC-186"><path class="cls-2" d="m43.96,129.06c-.36-.79-1.3-1.15-2.09-.79-.16.07-.3.17-.43.29"/></g><g id="ARC-187"><path class="cls-2" d="m43.74,128.4c-.32-.72-1.17-1.03-1.88-.71-.14.06-.27.15-.38.26"/></g><g id="ARC-188"><path class="cls-2" d="m43.74,128.4c-.64-.51-1.48-.68-2.27-.45"/></g><g id="ARC-189"><path class="cls-2" d="m43.26,127.82c-.19-.58-.82-.89-1.4-.7-.11.04-.22.09-.32.17"/></g><g id="ARC-190"><path class="cls-2" d="m43.11,127.12c-.42-.34-.99-.45-1.51-.3"/></g><g id="ARC-191"><path class="cls-2" d="m43.11,127.12c-.22-.48-.78-.69-1.25-.47-.09.04-.18.1-.26.17"/></g><g id="ARC-192"><path class="cls-2" d="m42.93,126.6c-.35-.28-.82-.38-1.26-.25"/></g><g id="ARC-193"><path class="cls-2" d="m42.93,126.6c-.18-.4-.65-.57-1.05-.39-.08.04-.15.08-.21.14"/></g><g id="ARC-194"><path class="cls-2" d="m41.77,125.29c-.2-.17-.5-.14-.67.07,0,0,0,0,0,0"/></g><g id="ARC-195"><path class="cls-2" d="m41.72,125.33c-.2-.07-.42-.06-.62.03"/></g><g id="ARC-196"><path class="cls-2" d="m43.26,127.82c-.52-.32-1.11-.51-1.72-.54"/></g><g id="ARC-197"><path class="cls-2" d="m42.7,126.13c-.27-.2-.6-.31-.93-.28"/></g><g id="ARC-198"><path class="cls-2" d="m42.7,126.13c-.12-.32-.47-.48-.78-.37-.05.02-.1.05-.15.08"/></g><g id="ARC-199"><path class="cls-2" d="m42.17,125.42c0-.08-.07-.15-.15-.15-.07,0-.13.05-.14.13"/></g><g id="ARC-200"><path class="cls-2" d="m42.51,125.83c-.04-.18-.17-.33-.34-.41"/></g><g id="ARC-201"><path class="cls-2" d="m42.17,125.42c.09.15.21.29.34.41"/></g><g id="ARC-202"><path class="cls-2" d="m42.17,125.42c-.14.05-.27.12-.39.22"/></g><g id="ARC-203"><path class="cls-2" d="m42.17,125.42c-.13-.07-.3-.01-.36.12-.02.03-.02.06-.03.1"/></g><g id="ARC-204"><path class="cls-2" d="m42.04,125.28c-.13-.07-.3-.01-.36.12-.02.03-.02.06-.03.1"/></g><g id="ARC-205"><path class="cls-2" d="m42.04,125.28c-.14.05-.27.12-.39.22"/></g><g id="ARC-206"><path class="cls-2" d="m41.08,128.16c-.02-.14-.03-.28-.05-.42"/></g><g id="ARC-207"><path class="cls-2" d="m42.35,125.94c-.02.07-.04.14-.06.21"/></g><g id="ARC-208"><path class="cls-2" d="m42.25,126.31c-.02.08-.04.17-.07.25"/></g><g id="ARC-209"><path class="cls-2" d="m42.14,126.75c-.02.1-.05.21-.07.31"/></g><g id="ARC-210"><path class="cls-2" d="m42.01,127.33c-.02.11-.04.21-.06.32"/></g><g id="ARC-211"><path class="cls-2" d="m41.91,127.86c-.02.14-.05.28-.07.42"/></g><g id="ARC-212"><path class="cls-2" d="m42.81,127.93c-.01.06,0,.12,0,.18"/></g><g id="ARC-213"><path class="cls-2" d="m42.9,127.96s-.07.1-.09.15"/></g><g id="ARC-214"><path class="cls-2" d="m42.99,127.66s0,0,0,0"/></g><g id="ARC-215"><path class="cls-2" d="m43.18,128.62s-.04,0-.07,0"/></g><g id="ARC-216"><path class="cls-2" d="m43.42,128.18c-.04.05-.08.1-.12.16"/></g><g id="ARC-217"><path class="cls-2" d="m44.29,126.37c-.45-.4-1.11-.45-1.61-.11"/></g><g id="ARC-218"><path class="cls-2" d="m44.16,121.66c-.2-.1-.43-.11-.64-.02"/></g><g id="ARC-219"><path class="cls-2" d="m44.16,121.66c-.08-.18-.29-.26-.47-.18-.07.03-.13.09-.17.16"/></g><g id="LWPOLYLINE-3"><polygon class="cls-2" points="44.47 133.24 43.88 135.59 44.86 136.67 46.24 134.9 44.47 133.24"/></g><g id="ARC-220"><path class="cls-2" d="m44.44,121.18c-.86,1.4-1.53,2.9-2.01,4.47"/></g><g id="ARC-221"><path class="cls-2" d="m44.92,122.31c-.19-.33-.58-.48-.94-.35"/></g><g id="ARC-222"><path class="cls-2" d="m44.92,121.96c-.21-.19-.48-.3-.76-.3"/></g><g id="ARC-223"><path class="cls-2" d="m44.92,121.96c-.08-.27-.37-.43-.64-.35-.04.01-.08.03-.12.05"/></g><g id="ARC-224"><path class="cls-2" d="m47.9,125.43c-1.73.31-3.29,1.24-4.38,2.62"/></g><g id="ARC-225"><path class="cls-2" d="m45.46,129.67c-.44-.55-1.07-.92-1.77-1.02"/></g><g id="ARC-226"><path class="cls-2" d="m45.46,129.67c-.17-.85-1.01-1.41-1.86-1.23-.03,0-.07.02-.1.02"/></g><g id="ARC-227"><path class="cls-2" d="m45.64,128.59c-.49-.61-1.29-.86-2.04-.64"/></g><g id="ARC-228"><path class="cls-2" d="m45.64,128.59c-.02-.63-.55-1.11-1.18-1.09-.34.01-.66.18-.86.45"/></g><g id="ARC-229"><path class="cls-2" d="m45.84,128.05c-.27-.6-.93-.93-1.57-.8"/></g><g id="ARC-230"><path class="cls-2" d="m45.84,128.05c.07-.51-.28-.98-.79-1.05-.29-.04-.58.05-.79.26"/></g><g id="ARC-231"><path class="cls-2" d="m44.77,126.81c-.26-.22-.63-.27-.94-.13"/></g><g id="ARC-232"><path class="cls-2" d="m44.77,126.81c-.04-.27-.28-.46-.55-.42-.17.02-.32.13-.39.29"/></g><g id="ARC-233"><path class="cls-2" d="m44.51,125.63c-.64-.34-1.43-.29-2.02.13"/></g><g id="ARC-234"><path class="cls-2" d="m44.51,125.63c-.27-.57-.94-.81-1.51-.54-.25.12-.45.32-.56.58"/></g><g id="ARC-235"><path class="cls-2" d="m44.46,124.93c-.49-.45-1.22-.5-1.76-.12"/></g><g id="ARC-236"><path class="cls-2" d="m44.46,124.93c-.13-.5-.64-.79-1.13-.66-.28.07-.51.28-.62.54"/></g><g id="ARC-237"><path class="cls-2" d="m44.56,124.2c-.12-.45-.57-.71-1.02-.6-.25.07-.46.25-.56.49"/></g><g id="ARC-238"><path class="cls-2" d="m44.56,124.2c-.44-.4-1.1-.45-1.58-.11"/></g><g id="ARC-239"><path class="cls-2" d="m44.84,122.76c-.34-.31-.85-.35-1.23-.08"/></g><g id="ARC-240"><path class="cls-2" d="m44.84,122.76c-.09-.35-.45-.55-.79-.46-.2.05-.36.19-.44.38"/></g><g id="ARC-241"><path class="cls-2" d="m44.75,123.49c-.09-.43-.52-.69-.94-.6-.16.04-.3.12-.41.24"/></g><g id="ARC-242"><path class="cls-2" d="m44.75,123.49c-.34-.37-.87-.52-1.35-.36"/></g><g id="ARC-243"><path class="cls-2" d="m43.99,121.97c.31.14.62.25.94.35"/></g><g id="ARC-244"><path class="cls-2" d="m44.44,121.18c-.09-.15-.29-.19-.43-.1-.08.05-.13.13-.14.22"/></g><g id="ARC-245"><path class="cls-2" d="m44.44,121.18c-.2-.07-.42-.02-.58.13"/></g><g id="ARC-246"><path class="cls-2" d="m73.93,124.89c.17-.13.21-.37.09-.55-.07-.09-.18-.15-.29-.16"/></g><g id="ARC-247"><path class="cls-2" d="m73.93,124.89c.07-.26,0-.53-.21-.71"/></g><g id="ARC-248"><path class="cls-2" d="m71.59,124.41c.41.08.82.14,1.24.16"/></g><g id="ARC-249"><path class="cls-2" d="m73.93,125.32c-.09-.51-.58-.84-1.09-.75,0,0-.01,0-.02,0"/></g><g id="ARC-250"><path class="cls-2" d="m73.93,125.32c-.27-.37-.66-.64-1.11-.75"/></g><g id="ARC-251"><path class="cls-2" d="m74.08,125.99c-.17-.76-.92-1.24-1.68-1.07-.28.06-.54.21-.73.42"/></g><g id="ARC-252"><path class="cls-2" d="m74.08,125.99c-.61-.67-1.55-.92-2.41-.65"/></g><g id="ARC-253"><path class="cls-2" d="m72.83,124.58c-.32-.35-.84-.42-1.24-.16"/></g><g id="ARC-254"><path class="cls-2" d="m73.72,124.18c-.04-.22-.26-.37-.48-.33-.15.03-.27.13-.32.28"/></g><g id="ARC-255"><path class="cls-2" d="m73.72,124.18c-.25-.12-.54-.14-.8-.06"/></g><g id="LWPOLYLINE-4"><polygon class="cls-2" points="63.3 132.55 63.89 135.3 64.87 132.94 63.3 132.55"/></g><g id="ARC-256"><path class="cls-2" d="m65.24,124.45c-.9-.62-2.13-.39-2.74.51"/></g><g id="ARC-257"><path class="cls-2" d="m71.07,124.78c-.56-.5-1.39-.56-2.01-.14"/></g><g id="ARC-258"><path class="cls-2" d="m69.37,125.08c-.22-.5-.81-.72-1.31-.49-.1.04-.19.1-.27.18"/></g><g id="ARC-259"><path class="cls-2" d="m69.37,125.08c-.44-.35-1.03-.47-1.57-.31"/></g><g id="ARC-260"><path class="cls-2" d="m65.73,125.5c-.33-.78-.72-1.54-1.17-2.25"/></g><g id="ARC-261"><path class="cls-2" d="m65.24,124.45c-.81-.11-1.62.07-2.31.5"/></g><g id="ARC-262"><path class="cls-2" d="m62.05,124.71c-.35-.15-.75-.12-1.07.07"/></g><g id="ARC-263"><path class="cls-2" d="m62.05,124.71c-.11-.29-.43-.44-.72-.33-.18.07-.31.21-.35.4"/></g><g id="ARC-264"><path class="cls-2" d="m67.79,124.76c-.4-.21-.88-.25-1.31-.1"/></g><g id="ARC-265"><path class="cls-2" d="m67.79,124.76c-.17-.38-.62-.54-.99-.37-.13.06-.24.15-.32.27"/></g><g id="ARC-266"><path class="cls-2" d="m67.98,123.82c-.42,1.88-.57,3.8-.46,5.72"/></g><g id="ARC-267"><path class="cls-2" d="m64.03,126.65c-.93-.27-1.94.04-2.55.8"/></g><g id="ARC-268"><path class="cls-2" d="m64.03,126.65c-.47-.63-1.36-.75-1.98-.28-.34.26-.55.65-.56,1.08"/></g><g id="ARC-269"><path class="cls-2" d="m64.5,129.49c-.28.32-.36.78-.19,1.17"/></g><g id="ARC-270"><path class="cls-2" d="m64.5,129.49c-.34.04-.58.35-.54.68.02.21.16.4.36.49"/></g><g id="ARC-271"><path class="cls-2" d="m70.98,129.44c-1.87-.07-3.44,1.39-3.5,3.26,0,.16,0,.32.02.48"/></g><g id="ARC-272"><path class="cls-2" d="m66.77,132.49c-.29-1.97-2.01-3.4-4-3.34"/></g><g id="ARC-273"><path class="cls-2" d="m69.61,127.57c-1.07,1.66-1.56,3.64-1.4,5.61"/></g><g id="ARC-274"><path class="cls-2" d="m67.96,127.42c-.27,1.91-.31,3.84-.12,5.76"/></g><g id="ARC-275"><path class="cls-2" d="m67.31,133.18c.06-1.96-.01-3.92-.23-5.87"/></g><g id="ARC-276"><path class="cls-2" d="m66.85,133.18c.22-2.05.03-4.12-.56-6.1"/></g><g id="ARC-277"><path class="cls-2" d="m67.54,126.76c-.44-.82-1.46-1.13-2.28-.69-.24.13-.45.31-.6.54"/></g><g id="ARC-278"><path class="cls-2" d="m67.7,125.34c-.59-.34-1.3-.38-1.92-.1"/></g><g id="ARC-279"><path class="cls-2" d="m67.7,125.34c-.35-.55-1.09-.71-1.64-.36-.11.07-.21.16-.29.26"/></g><g id="ARC-280"><path class="cls-2" d="m67.62,125.92c-.41-.64-1.27-.83-1.91-.42-.13.08-.24.18-.33.3"/></g><g id="ARC-281"><path class="cls-2" d="m67.62,125.92c-.68-.4-1.52-.45-2.24-.12"/></g><g id="ARC-282"><path class="cls-2" d="m67.54,126.76c-.88-.52-1.96-.57-2.88-.15"/></g><g id="ARC-283"><path class="cls-2" d="m67.5,127.52c-.98-.57-2.17-.64-3.2-.17"/></g><g id="ARC-284"><path class="cls-2" d="m67.5,127.52c-.59-.92-1.81-1.19-2.73-.6-.18.12-.34.26-.48.43"/></g><g id="ARC-285"><path class="cls-2" d="m64.82,127.16c-.08.11-.09.25-.02.36"/></g><g id="ARC-286"><path class="cls-2" d="m64.87,126.35c-.2-.19-.52-.18-.71.03-.07.07-.11.17-.13.27"/></g><g id="ARC-287"><path class="cls-2" d="m65.88,125.87c-.03-.07-.06-.14-.08-.21"/></g><g id="ARC-288"><path class="cls-2" d="m66.15,126.63c-.03-.1-.07-.2-.1-.31"/></g><g id="ARC-289"><path class="cls-2" d="m64.8,127.52c-.47-.65-1.38-.8-2.03-.34-.35.25-.57.64-.6,1.06"/></g><g id="ARC-290"><path class="cls-2" d="m64.8,127.52c-.94-.32-1.99-.03-2.63.73"/></g><g id="ARC-291"><path class="cls-2" d="m65.43,127.34c-.16-.14-.41-.12-.55.05-.03.04-.06.09-.07.14"/></g><g id="ARC-292"><path class="cls-2" d="m65.43,127.34c0-.11-.07-.21-.16-.27"/></g><g id="ARC-293"><path class="cls-2" d="m64.99,126.8c-.14-.29-.49-.42-.79-.28-.07.03-.13.08-.18.13"/></g><g id="ARC-294"><path class="cls-2" d="m65.03,126.78c.01-.1,0-.21-.06-.3"/></g><g id="ARC-295"><path class="cls-2" d="m64.36,125.76c-.39-.18-.85-.11-1.18.17"/></g><g id="ARC-296"><path class="cls-2" d="m64.36,125.76c-.14-.31-.5-.45-.81-.32-.2.09-.34.27-.36.48"/></g><g id="ARC-297"><path class="cls-2" d="m63.48,125.36c-.46-.16-.95-.2-1.43-.13"/></g><g id="ARC-298"><path class="cls-2" d="m63.48,125.36c-.25-.42-.79-.56-1.22-.31-.08.05-.15.11-.22.18"/></g><g id="ARC-299"><path class="cls-2" d="m63.14,128.44c-.22-.05-.44.09-.5.31-.03.15.01.3.13.4"/></g><g id="ARC-300"><path class="cls-2" d="m63.14,128.44c-.21.18-.34.44-.37.71"/></g><g id="ARC-301"><path class="cls-2" d="m62.77,129.15c-.18.11-.24.35-.13.54.06.1.16.17.28.18"/></g><g id="ARC-302"><path class="cls-2" d="m62.77,129.15c-.1.25-.04.53.15.72"/></g><g id="ARC-303"><path class="cls-2" d="m63.49,129.19c-.12.25-.14.54-.04.8"/></g><g id="ARC-304"><path class="cls-2" d="m63.49,129.19c-.23.09-.33.35-.24.58.04.09.11.17.2.22"/></g><g id="ARC-305"><path class="cls-2" d="m64.6,128.26c-.32.34-.36.85-.1,1.23"/></g><g id="ARC-306"><path class="cls-2" d="m64.6,128.26c-.35.09-.56.44-.48.79.05.2.19.36.37.44"/></g><g id="ARC-307"><path class="cls-2" d="m63.88,128.24c-.25.25-.39.59-.39.95"/></g><g id="ARC-308"><path class="cls-2" d="m63.88,128.24c-.34.09-.55.45-.45.79.01.05.04.11.06.16"/></g><g id="ARC-309"><path class="cls-2" d="m69.97,127.05c-.05.07-.1.13-.14.2"/></g><g id="ARC-310"><path class="cls-2" d="m69.68,127.6s-.06,0-.08,0"/></g><g id="ARC-311"><path class="cls-2" d="m69.44,126.41s0,0,0,0"/></g><g id="ARC-312"><path class="cls-2" d="m69.33,126.77c-.05.06-.09.12-.11.19"/></g><g id="ARC-313"><path class="cls-2" d="m69.21,126.74c-.01.07-.01.15,0,.22"/></g><g id="ARC-314"><path class="cls-2" d="m68.08,126.65c-.03.18-.06.35-.09.53"/></g><g id="ARC-315"><path class="cls-2" d="m68.21,125.99c-.03.13-.05.27-.08.4"/></g><g id="ARC-316"><path class="cls-2" d="m68.37,125.26c-.03.13-.06.26-.09.39"/></g><g id="ARC-317"><path class="cls-2" d="m68.51,124.71c-.03.11-.05.21-.08.32"/></g><g id="ARC-318"><path class="cls-2" d="m67.05,127.02c-.02-.18-.04-.35-.07-.52"/></g><g id="ARC-319"><path class="cls-2" d="m69.77,126.59c-.65-.4-1.38-.63-2.14-.67"/></g><g id="ARC-320"><path class="cls-2" d="m69.59,125.72c-.27-.6-.97-.86-1.57-.59-.12.05-.23.13-.32.21"/></g><g id="ARC-321"><path class="cls-2" d="m69.59,125.72c-.53-.42-1.24-.57-1.89-.38"/></g><g id="ARC-322"><path class="cls-2" d="m69.77,126.59c-.24-.72-1.02-1.12-1.75-.88-.14.05-.28.12-.4.21"/></g><g id="ARC-323"><path class="cls-2" d="m70.38,127.32c-.8-.64-1.85-.85-2.83-.57"/></g><g id="ARC-324"><path class="cls-2" d="m70.38,127.32c-.4-.89-1.46-1.29-2.35-.89-.18.08-.34.19-.48.32"/></g><g id="ARC-325"><path class="cls-2" d="m70.65,128.15c-.45-.99-1.62-1.43-2.61-.98-.2.09-.38.21-.53.36"/></g><g id="ARC-326"><path class="cls-2" d="m70.65,128.15c-.89-.71-2.06-.94-3.15-.63"/></g><g id="ARC-327"><path class="cls-2" d="m70.66,124.93c-.47-.16-.97-.19-1.45-.09"/></g><g id="ARC-328"><path class="cls-2" d="m71.04,125.89c-.32-.37-.88-.41-1.25-.08-.07.06-.13.14-.18.22"/></g><g id="ARC-329"><path class="cls-2" d="m71.04,125.89c-.48-.07-.97-.03-1.43.13"/></g><g id="ARC-330"><path class="cls-2" d="m70.2,126.76c-.04-.27-.28-.46-.55-.43"/></g><g id="ARC-331"><path class="cls-2" d="m70.2,126.76c-.12-.13-.29-.2-.47-.19"/></g><g id="ARC-332"><path class="cls-2" d="m66.81,125.33c-.01-.09-.03-.18-.04-.27"/></g><g id="ARC-333"><path class="cls-2" d="m66.72,124.8c-.01-.06-.02-.13-.03-.19"/></g><g id="ARC-334"><path class="cls-2" d="m66.93,126.11c-.02-.16-.05-.32-.07-.48"/></g><g id="ARC-335"><path class="cls-2" d="m69.3,129.82c-.25-.12-.54-.14-.8-.06"/></g><g id="ARC-336"><path class="cls-2" d="m69.3,129.82c-.04-.22-.26-.37-.48-.33-.15.03-.27.13-.32.28"/></g><g id="ARC-337"><path class="cls-2" d="m69.51,130.52c.07-.26,0-.53-.21-.71"/></g><g id="ARC-338"><path class="cls-2" d="m69.51,130.52c.17-.13.21-.37.09-.55-.07-.09-.18-.15-.29-.16"/></g><g id="ARC-339"><path class="cls-2" d="m70.51,130.24c.06-.26-.11-.52-.37-.57-.02,0-.03,0-.05,0"/></g><g id="ARC-340"><path class="cls-2" d="m70.51,130.24c.15-.13.16-.36.02-.51-.11-.12-.29-.15-.44-.07"/></g><g id="ARC-341"><path class="cls-2" d="m71.03,130.1c.09-.22.07-.46-.05-.66"/></g><g id="ARC-342"><path class="cls-2" d="m70.98,129.44c-.02.22,0,.44.05.66"/></g><g id="ARC-343"><path class="cls-2" d="m70.09,129.66c-.3-.15-.65-.2-.98-.14"/></g><g id="ARC-344"><path class="cls-2" d="m70.09,129.66c-.15-.3-.51-.42-.8-.27-.07.03-.13.08-.18.13"/></g><g id="ARC-345"><path class="cls-2" d="m70.98,129.44c-.18-.05-.37-.08-.56-.06"/></g><g id="ARC-346"><path class="cls-2" d="m70.98,129.44c-.09-.17-.29-.23-.46-.14-.04.02-.07.05-.1.08"/></g><g id="ARC-347"><path class="cls-2" d="m64.22,122.72c-.53-.57-1.42-.61-1.99-.09-.21.2-.36.45-.42.73"/></g><g id="ARC-348"><path class="cls-2" d="m64.22,122.72c-.86-.28-1.8-.02-2.41.65"/></g><g id="ARC-349"><path class="cls-2" d="m63.64,121.93c-.46-.45-1.19-.45-1.64.01-.26.26-.37.62-.32.98"/></g><g id="ARC-350"><path class="cls-2" d="m63.64,121.93c-.81-.17-1.62.24-1.96.99"/></g><g id="ARC-351"><path class="cls-2" d="m63.12,121.3c-.6-.02-1.19.22-1.61.65"/></g><g id="ARC-352"><path class="cls-2" d="m63.12,121.3c-.38-.36-.98-.35-1.35.04-.16.17-.25.39-.26.62"/></g><g id="ARC-353"><path class="cls-2" d="m67.3,119.08c-.45-.36-1.11-.3-1.47.15-.21.25-.28.59-.2.91"/></g><g id="ARC-354"><path class="cls-2" d="m67.24,122.51c-.35.29-.6.67-.74,1.1"/></g><g id="ARC-355"><path class="cls-2" d="m66.92,122.41c-.27.34-.42.77-.42,1.2"/></g><g id="ARC-356"><path class="cls-2" d="m67.8,120.08c-.5-.4-1.23-.33-1.63.17-.23.28-.31.66-.23,1.01"/></g><g id="ARC-357"><path class="cls-2" d="m67.8,120.08c-.82-.09-1.59.4-1.86,1.18"/></g><g id="ARC-358"><path class="cls-2" d="m68.24,120.71c-.69-.38-1.55-.12-1.92.56-.2.37-.23.82-.07,1.22"/></g><g id="ARC-359"><path class="cls-2" d="m68.24,120.71c-.96.14-1.75.84-1.99,1.78"/></g><g id="ARC-360"><path class="cls-2" d="m67.3,119.08c-.74-.08-1.43.36-1.67,1.06"/></g><g id="ARC-361"><path class="cls-2" d="m66.03,123.83c-.06-.33-.39-.55-.72-.49-.21.04-.39.19-.46.39"/></g><g id="ARC-362"><path class="cls-2" d="m66.03,123.83c-.34-.26-.8-.3-1.18-.1"/></g><g id="ARC-363"><path class="cls-2" d="m66.42,124.55c-.06-.33-.39-.55-.72-.49-.21.04-.39.19-.46.39"/></g><g id="ARC-364"><path class="cls-2" d="m66.42,124.55c-.34-.26-.8-.3-1.18-.1"/></g><g id="ARC-365"><path class="cls-2" d="m63.81,123.12c-.8-.08-1.51.51-1.59,1.31,0,0,0,.02,0,.02"/></g><g id="ARC-366"><path class="cls-2" d="m64.32,122.88c-.55-.83-1.18-1.6-1.88-2.31"/></g><g id="ARC-367"><path class="cls-2" d="m66.5,123.61c-1.01-.52-2.21-.51-3.21.02"/></g><g id="ARC-368"><path class="cls-2" d="m66.5,123.61c-.64-.88-1.87-1.08-2.76-.44-.17.13-.33.28-.45.46"/></g><g id="ARC-369"><path class="cls-2" d="m64.85,123.72c-.94-.32-1.99-.03-2.63.73"/></g><g id="ARC-370"><path class="cls-2" d="m64.85,123.72c-.14-.19-.31-.34-.52-.45"/></g><g id="LINE-2"><line class="cls-2" x1="63.84" y1="121.35" x2="64.21" y2="121.59"/></g><g id="ARC-371"><path class="cls-2" d="m65.4,122.82c-.34-.26-.8-.3-1.18-.1"/></g><g id="ARC-372"><path class="cls-2" d="m65.4,122.82c-.06-.33-.39-.55-.72-.49-.21.04-.39.19-.46.39"/></g><g id="ARC-373"><path class="cls-2" d="m63.77,121.36c-.24-.08-.48-.13-.73-.15"/></g><g id="ARC-374"><path class="cls-2" d="m63.89,121.1c-.28-.11-.6-.07-.85.11"/></g><g id="ARC-375"><path class="cls-2" d="m62.97,120.78c-.04-.18-.22-.3-.4-.26-.04,0-.08.03-.12.05"/></g><g id="ARC-376"><path class="cls-2" d="m62.97,120.78c-.16-.1-.34-.17-.52-.21"/></g><g id="ARC-377"><path class="cls-2" d="m62.09,121.13c.15-.17.27-.35.36-.56"/></g><g id="ARC-378"><path class="cls-2" d="m62.45,120.57c-.2.12-.33.33-.36.56"/></g><g id="ARC-379"><path class="cls-2" d="m65.63,120.15c-.23-.53-.84-.78-1.37-.55-.3.13-.53.39-.6.71"/></g><g id="ARC-380"><path class="cls-2" d="m65.63,120.15c-.61-.42-1.43-.35-1.98.15"/></g><g id="ARC-381"><path class="cls-2" d="m66.25,122.49c-.76-.61-1.81-.7-2.66-.23"/></g><g id="ARC-382"><path class="cls-2" d="m66.25,122.49c-.2-.76-.97-1.21-1.73-1.01-.41.11-.76.4-.93.78"/></g><g id="ARC-383"><path class="cls-2" d="m65.94,121.26c-.68-.47-1.59-.39-2.19.17"/></g><g id="ARC-384"><path class="cls-2" d="m65.94,121.26c-.25-.59-.93-.87-1.52-.61-.33.14-.58.43-.67.79"/></g><g id="ARC-385"><path class="cls-2" d="m65.31,119.12c-.44-.16-.94-.05-1.28.29"/></g><g id="ARC-386"><path class="cls-2" d="m65.31,119.12c-.18-.33-.59-.45-.92-.28-.21.11-.34.33-.36.56"/></g><g id="ARC-387"><path class="cls-2" d="m70.89,118.9c-.1-.22-.36-.33-.58-.23-.09.04-.17.11-.22.2"/></g><g id="ARC-388"><path class="cls-2" d="m70.89,118.9c-.25-.12-.54-.13-.8-.03"/></g><g id="ARC-389"><path class="cls-2" d="m68.64,124.25c-.02.09-.05.17-.07.26"/></g><g id="ARC-390"><path class="cls-2" d="m68.24,123.42c-.18.06-.34.15-.49.27"/></g><g id="ARC-391"><path class="cls-2" d="m68.24,123.42c-.17-.08-.37-.02-.45.15-.02.04-.03.08-.03.12"/></g><g id="ARC-392"><path class="cls-2" d="m68.41,123.6c-.17-.08-.37-.02-.45.15-.02.04-.03.08-.03.12"/></g><g id="ARC-393"><path class="cls-2" d="m68.41,123.6c-.18.06-.34.15-.49.27"/></g><g id="ARC-394"><path class="cls-2" d="m68.41,123.6c.11.19.26.36.43.51"/></g><g id="ARC-395"><path class="cls-2" d="m68.83,124.11c-.05-.23-.21-.41-.43-.51"/></g><g id="ARC-396"><path class="cls-2" d="m68.41,123.6c0-.1-.09-.18-.19-.18-.09,0-.16.07-.18.16"/></g><g id="ARC-397"><path class="cls-2" d="m69.08,124.49c-.14-.4-.58-.6-.98-.46-.07.02-.13.06-.19.1"/></g><g id="ARC-398"><path class="cls-2" d="m69.08,124.49c-.33-.26-.75-.38-1.17-.36"/></g><g id="ARC-399"><path class="cls-2" d="m67.85,123.49c-.25-.09-.53-.07-.77.04"/></g><g id="ARC-400"><path class="cls-2" d="m67.91,123.44c-.25-.21-.63-.17-.83.08,0,0,0,0,0,0"/></g><g id="ARC-401"><path class="cls-2" d="m70.22,120.17c-.04-.34-.35-.58-.69-.53-.21.03-.4.17-.48.36"/></g><g id="ARC-402"><path class="cls-2" d="m70.22,120.17c-.33-.28-.78-.34-1.18-.17"/></g><g id="ARC-403"><path class="cls-2" d="m69.94,120.74c-.36-.31-.86-.38-1.29-.18"/></g><g id="ARC-404"><path class="cls-2" d="m69.94,120.74c-.05-.37-.39-.63-.76-.58-.24.03-.44.18-.53.4"/></g><g id="ARC-405"><path class="cls-2" d="m69.42,121.94c.13-.56-.22-1.12-.78-1.26-.32-.07-.65,0-.91.21"/></g><g id="ARC-406"><path class="cls-2" d="m69.42,121.94c-.25-.7-.95-1.13-1.69-1.04"/></g><g id="ARC-407"><path class="cls-2" d="m69.07,122.84c-.28-.78-1.05-1.26-1.87-1.16"/></g><g id="ARC-408"><path class="cls-2" d="m69.07,122.84c.15-.62-.24-1.25-.87-1.39-.35-.08-.73,0-1.01.24"/></g><g id="ARC-409"><path class="cls-2" d="m68.04,123.58s-.01.06-.02.09"/></g><g id="ARC-410"><path class="cls-2" d="m67.91,124.14c-.39-.23-.87-.25-1.28-.07"/></g><g id="ARC-411"><path class="cls-2" d="m67.91,124.14c-.24-.37-.72-.47-1.09-.24-.07.05-.14.1-.19.17"/></g><g id="ARC-412"><path class="cls-2" d="m68.49,123.65c-.36-.7-1.05-1.18-1.83-1.28"/></g><g id="ARC-413"><path class="cls-2" d="m68.74,123.89c.16-.77-.32-1.52-1.09-1.68-.34-.07-.69-.02-.99.15"/></g><g id="ARC-414"><path class="cls-2" d="m70.68,119.28c-.45-.11-.92-.05-1.33.15"/></g><g id="ARC-415"><path class="cls-2" d="m70.68,119.28c-.4-.33-.99-.26-1.32.14,0,0,0,0-.01.01"/></g><g id="ARC-416"><path class="cls-2" d="m59.36,125.07c.05-.22.07-.44.05-.66"/></g><g id="ARC-417"><path class="cls-2" d="m59.96,124.35c-.19-.01-.38.01-.56.06"/></g><g id="ARC-418"><path class="cls-2" d="m59.96,124.35c-.12-.14-.34-.16-.48-.03-.03.03-.06.06-.08.1"/></g><g id="ARC-419"><path class="cls-2" d="m62.05,125.23c-.46-.45-1.19-.45-1.64.01-.26.26-.37.62-.32.98"/></g><g id="ARC-420"><path class="cls-2" d="m66.43,133.18c.4-4.34-2.71-8.21-7.03-8.77"/></g><g id="ARC-421"><path class="cls-2" d="m63.18,125.93c-.86-.28-1.8-.02-2.41.65"/></g><g id="ARC-422"><path class="cls-2" d="m63.18,125.93c-.53-.57-1.42-.61-1.99-.09-.21.2-.36.45-.42.73"/></g><g id="ARC-423"><path class="cls-2" d="m62.05,125.23c-.81-.17-1.62.24-1.96.99"/></g><g id="LWPOLYLINE-5"><polygon class="cls-2" points="70.95 132.26 69.68 135.39 70.66 135 71.34 132.65 70.95 132.26"/></g><g id="ARC-424"><path class="cls-2" d="m71.66,125.34c-.04-.34-.35-.58-.69-.53-.21.03-.4.17-.48.36"/></g><g id="ARC-425"><path class="cls-2" d="m71.66,125.34c-.33-.28-.78-.34-1.18-.17"/></g><g id="ARC-426"><path class="cls-2" d="m73,126.88c.09-.63-.35-1.22-.98-1.32-.36-.05-.72.07-.98.32"/></g><g id="ARC-427"><path class="cls-2" d="m73,126.88c-.34-.75-1.16-1.16-1.96-.99"/></g><g id="ARC-428"><path class="cls-2" d="m72.75,127.56c-.03-.78-.69-1.39-1.47-1.36-.43.02-.82.22-1.08.56"/></g><g id="ARC-429"><path class="cls-2" d="m72.75,127.56c-.61-.76-1.62-1.07-2.55-.8"/></g><g id="ARC-430"><path class="cls-2" d="m72.52,128.91c-.22-1.07-1.26-1.76-2.33-1.54-.04,0-.09.02-.13.03"/></g><g id="ARC-431"><path class="cls-2" d="m72.52,128.91c-.55-.69-1.34-1.15-2.21-1.28"/></g><g id="ARC-432"><path class="cls-2" d="m70.68,119.28c.38.17.77.31,1.17.43"/></g><g id="ARC-433"><path class="cls-2" d="m71.63,121.19c-.43-.47-1.09-.65-1.69-.45"/></g><g id="ARC-434"><path class="cls-2" d="m71.63,121.19c-.12-.53-.64-.87-1.18-.75-.2.04-.38.15-.51.3"/></g><g id="ARC-435"><path class="cls-2" d="m71.75,120.27c-.11-.43-.56-.69-.99-.58-.25.06-.45.24-.54.48"/></g><g id="ARC-436"><path class="cls-2" d="m71.75,120.27c-.42-.39-1.06-.43-1.54-.1"/></g><g id="ARC-437"><path class="cls-2" d="m71.4,122.07c-.55-.5-1.37-.56-1.98-.13"/></g><g id="ARC-438"><path class="cls-2" d="m71.4,122.07c-.15-.56-.72-.89-1.28-.74-.32.08-.58.31-.7.61"/></g><g id="ARC-439"><path class="cls-2" d="m71.85,119.28c-.1-.34-.46-.54-.8-.44-.05.02-.11.04-.15.07"/></g><g id="ARC-440"><path class="cls-2" d="m71.85,119.28c-.26-.24-.6-.38-.95-.38"/></g><g id="ARC-441"><path class="cls-2" d="m71.85,119.71c-.23-.41-.73-.6-1.17-.43"/></g><g id="ARC-442"><path class="cls-2" d="m71.27,122.98c-.16-.62-.8-.99-1.42-.83-.35.09-.64.34-.78.68"/></g><g id="ARC-443"><path class="cls-2" d="m71.27,122.98c-.61-.56-1.52-.62-2.2-.15"/></g><g id="ARC-444"><path class="cls-2" d="m71.33,123.86c-.33-.71-1.18-1.01-1.89-.68-.31.15-.56.41-.7.73"/></g><g id="ARC-445"><path class="cls-2" d="m71.33,123.86c-.81-.43-1.79-.37-2.53.16"/></g><g id="ARC-446"><path class="cls-2" d="m59.4,124.41c-.12.2-.14.44-.05.66"/></g><g id="ARC-447"><path class="cls-2" d="m60.97,124.77c-.38-.36-.98-.35-1.35.04-.16.17-.25.39-.26.62"/></g><g id="ARC-448"><path class="cls-2" d="m60.97,124.77c-.6-.02-1.19.22-1.61.65"/></g><g id="ARC-449"><path class="cls-2" d="m75.57,123.61c-.02.22,0,.44.05.66"/></g><g id="ARC-450"><path class="cls-2" d="m75.62,124.27c.09-.22.07-.46-.05-.66"/></g><g id="ARC-451"><path class="cls-2" d="m75.1,124.42c.15-.13.16-.36.02-.51-.11-.12-.29-.15-.44-.07"/></g><g id="ARC-452"><path class="cls-2" d="m75.1,124.42c.06-.26-.11-.52-.37-.57-.02,0-.03,0-.05,0"/></g><g id="ARC-453"><path class="cls-2" d="m75.57,123.61c-.09-.17-.29-.23-.46-.14-.04.02-.07.05-.1.08"/></g><g id="ARC-454"><path class="cls-2" d="m75.57,123.61c-.18-.05-.37-.08-.56-.06"/></g><g id="ARC-455"><path class="cls-2" d="m65.69,117.13c-.28-.22-.69-.17-.91.11-.03.04-.06.09-.08.15"/></g><g id="ARC-456"><path class="cls-2" d="m65.69,117.13c-.35-.04-.71.05-.99.26"/></g><g id="ARC-457"><path class="cls-2" d="m64.7,117.39c-.21-.12-.48-.05-.61.16-.05.09-.07.19-.06.29"/></g><g id="ARC-458"><path class="cls-2" d="m64.7,117.39c-.27.05-.51.21-.66.45"/></g><g id="ARC-459"><path class="cls-2" d="m64.48,116.81c-.26.07-.45.29-.49.55"/></g><g id="ARC-460"><path class="cls-2" d="m64.48,116.81c-.2-.08-.43.02-.51.22-.04.11-.04.23.02.33"/></g><g id="ARC-461"><path class="cls-2" d="m65.27,116.68c-.27-.06-.55,0-.79.13"/></g><g id="ARC-462"><path class="cls-2" d="m65.27,116.68c-.09-.21-.34-.3-.55-.21-.14.06-.23.19-.24.34"/></g><g id="ARC-463"><path class="cls-2" d="m66.32,117.45c-.35-.28-.86-.23-1.14.12-.16.2-.22.46-.16.71"/></g><g id="ARC-464"><path class="cls-2" d="m66.32,117.45c-.57-.06-1.12.28-1.3.82"/></g><g id="LWPOLYLINE-6"><polyline class="cls-2" points="31.43 133.24 31.03 132.45 32.11 131.77 33.09 130.69 33.88 131.18 33.98 132.26 34.47 132.45 35.25 131.57 34.76 130.39 35.45 129.12 35.54 130.1 35.54 131.47 36.13 132.06 36.72 132.06 37.51 131.18 39.17 131.28 39.86 130.88 39.96 132.45 40.35 133.63 38.19 135.1 38.19 135.88 38.33 137.19"/></g><g id="LWPOLYLINE-7"><polyline class="cls-2" points="36.79 137.19 36.72 135.88 36.92 134.51 35.45 135.98 35.62 137.19"/></g><g id="LWPOLYLINE-8"><polyline class="cls-2" points="33.39 137.19 33.39 136.67 33.09 135.1 31.52 135.59 30.74 137.45 30.35 136.96 31.13 135.2 31.03 134.61 31.43 133.24"/></g><g id="LWPOLYLINE-9"><polyline class="cls-2" points="43.91 137.19 43.98 137.06 43.29 136.37 41.79 137.19"/></g><g id="LWPOLYLINE-10"><polyline class="cls-2" points="41.39 137.19 41.92 136.47 42.21 135.49 41.72 135.39 42.51 134.71 42.41 133.82"/></g><g id="LWPOLYLINE-11"><polyline class="cls-2" points="42.41 133.82 42.41 131.77 43.98 131.67 44.76 132.26 45.45 132.45 46.53 131.96 47.8 132.26 48.98 131.28 49.67 130.2 50.06 130.88 50.75 132.26 52.12 132.06 51.43 133.53 50.84 135.1 50.94 136.67 50.54 137.19"/></g><g id="LWPOLYLINE-12"><polyline class="cls-2" points="49.1 137.19 49.18 136.37 48.1 134.71 47.8 133.73 46.73 134.9 46.53 136.47 45.52 137.19"/></g><g id="LWPOLYLINE-13"><polyline class="cls-2" points="52.05 137.19 52.61 135.88 52.61 135.2 53.1 134.9"/></g><g id="LWPOLYLINE-14"><polyline class="cls-2" points="54.41 137.19 54.38 137.16 54.28 136.18 54.67 135.39 53.03 137.19"/></g><g id="LWPOLYLINE-15"><polyline class="cls-2" points="53.1 134.9 53.49 132.75 54.57 131.47 54.96 130.69 55.94 132.45 57.42 130.59 57.81 130.59 58.1 131.96 59.38 132.16 60.06 131.77 60.26 133.24 59.77 134.22 60.75 136.18 59.08 137.16 59.08 137.19"/></g><g id="LWPOLYLINE-16"><polyline class="cls-2" points="57.88 137.19 57.81 135.59 56.24 136.28 56.09 137.19"/></g><g id="LWPOLYLINE-17"><polyline class="cls-2" points="61.44 130.88 62.03 133.43 62.71 134.81 63.01 137.16 63.02 137.19"/></g><g id="LWPOLYLINE-18"><polyline class="cls-2" points="64.51 137.19 64.67 137.06 64.69 137.19"/></g><g id="LWPOLYLINE-19"><polyline class="cls-2" points="66.14 137.19 66.14 136.77 65.36 135.59 66.73 135 67.81 136.28 67.32 133.43 66.24 132.55 66.14 131.18 64.77 131.67 63.59 130.69 62.91 131.47 61.73 130.49 61.44 130.88"/></g><g id="LWPOLYLINE-20"><polyline class="cls-2" points="69.4 137.19 69.48 136.08 68.3 135.3 68.11 132.94"/></g><g id="LWPOLYLINE-21"><polyline class="cls-2" points="68.11 132.94 68.01 132.06 69.97 131.77 70.46 130.88 71.44 130 72.81 130.88 73.79 132.35 74.58 131.96 74.87 133.14 74.68 134.9 73.6 136.37 73.72 137.19"/></g><g id="LWPOLYLINE-22"><polyline class="cls-2" points="72.36 137.19 72.23 136.77 71.54 135 70.75 136.47 71.02 137.19"/></g><g id="LWPOLYLINE-23"><line class="cls-2" x1="203.81" y1="26.68" x2="276.81" y2="48.42"/></g><g id="LWPOLYLINE-24"><line class="cls-2" x1="203.81" y1="31.8" x2="276.81" y2="53.58"/></g><g id="LWPOLYLINE-25"><line class="cls-2" x1="280.43" y1="93.65" x2="183.63" y2="93.65"/></g><g id="LWPOLYLINE-26"><line class="cls-2" x1="276.24" y1="137.19" x2="183.63" y2="137.19"/></g><g id="LWPOLYLINE-27"><line class="cls-2" x1="280.43" y1="86.95" x2="183.63" y2="86.95"/></g><g id="LWPOLYLINE-28"><line class="cls-2" x1="280.43" y1="138.03" x2="67.83" y2="138.03"/></g><g id="LWPOLYLINE-29"><line class="cls-2" x1="280.43" y1="143.89" x2="58.63" y2="143.89"/></g><g id="LWPOLYLINE-30"><line class="cls-2" x1="106.59" y1="137.19" x2="67.83" y2="137.19"/></g><g id="LWPOLYLINE-31"><line class="cls-2" x1="58.63" y1="140.54" x2="58.63" y2="143.89"/></g><g id="LWPOLYLINE-32"><line class="cls-2" x1="58.63" y1="140.54" x2="67.83" y2="140.54"/></g><g id="LWPOLYLINE-33"><line class="cls-2" x1="67.83" y1="137.19" x2="67.83" y2="140.54"/></g><g id="LWPOLYLINE-34"><line class="cls-2" x1="202.89" y1="32.01" x2="202.89" y2="86.95"/></g><g id="LWPOLYLINE-35"><line class="cls-2" x1="164.37" y1="40.98" x2="164.37" y2="86.95"/></g><g id="LWPOLYLINE-36"><line class="cls-2" x1="166.88" y1="40.39" x2="166.88" y2="86.95"/></g><g id="LWPOLYLINE-37"><line class="cls-2" x1="200.38" y1="32.71" x2="200.38" y2="86.95"/></g><g id="LWPOLYLINE-38"><line class="cls-2" x1="212.94" y1="34.52" x2="212.94" y2="86.95"/></g><g id="LWPOLYLINE-39"><line class="cls-2" x1="211.27" y1="34.28" x2="211.27" y2="86.95"/></g><g id="LWPOLYLINE-40"><line class="cls-2" x1="110.78" y1="70.2" x2="110.78" y2="138.03"/></g><g id="LWPOLYLINE-41"><line class="cls-2" x1="106.59" y1="71.32" x2="106.59" y2="138.03"/></g><g id="LWPOLYLINE-42"><line class="cls-2" x1="181.95" y1="137.19" x2="166.88" y2="137.19"/></g><g id="LWPOLYLINE-43"><line class="cls-2" x1="202.89" y1="117.1" x2="166.88" y2="117.1"/></g><g id="LWPOLYLINE-44"><line class="cls-2" x1="202.89" y1="113.75" x2="166.88" y2="113.75"/></g><g id="LWPOLYLINE-45"><line class="cls-2" x1="141.76" y1="137.19" x2="110.78" y2="137.19"/></g><g id="LWPOLYLINE-46"><line class="cls-2" x1="166.88" y1="93.65" x2="110.78" y2="93.65"/></g><g id="LWPOLYLINE-47"><line class="cls-2" x1="166.88" y1="86.95" x2="110.78" y2="86.95"/></g><g id="LWPOLYLINE-48"><line class="cls-2" x1="144.27" y1="93.65" x2="144.27" y2="138.03"/></g><g id="LWPOLYLINE-49"><line class="cls-2" x1="141.76" y1="93.65" x2="141.76" y2="138.03"/></g><g id="LWPOLYLINE-50"><line class="cls-2" x1="164.37" y1="93.65" x2="164.37" y2="138.03"/></g><g id="LWPOLYLINE-51"><line class="cls-2" x1="166.88" y1="86.95" x2="166.88" y2="138.03"/></g><g id="LWPOLYLINE-52"><line class="cls-2" x1="164.37" y1="137.19" x2="144.27" y2="137.19"/></g><g id="LWPOLYLINE-53"><line class="cls-2" x1="200.38" y1="117.1" x2="200.38" y2="137.19"/></g><g id="LWPOLYLINE-54"><line class="cls-2" x1="181.95" y1="117.1" x2="181.95" y2="138.03"/></g><g id="LWPOLYLINE-55"><line class="cls-2" x1="183.63" y1="117.1" x2="183.63" y2="138.03"/></g><g id="LWPOLYLINE-56"><line class="cls-2" x1="202.89" y1="93.65" x2="202.89" y2="137.19"/></g><g id="LWPOLYLINE-57"><line class="cls-2" x1="183.63" y1="93.65" x2="183.63" y2="86.95"/></g><g id="LWPOLYLINE-58"><line class="cls-2" x1="200.38" y1="93.65" x2="200.38" y2="113.75"/></g><g id="LWPOLYLINE-59"><line class="cls-2" x1="110.22" y1="48.42" x2="103.24" y2="48.42"/></g><g id="LWPOLYLINE-60"><polyline class="cls-2" points="203.81 31.8 110.78 53.45 103.24 53.45"/></g><g id="LWPOLYLINE-61"><line class="cls-2" x1="110.78" y1="70.2" x2="106.59" y2="70.2"/></g><g id="LWPOLYLINE-62"><polyline class="cls-2" points="106.59 70.2 105.75 70.2 104.97 70.48 104.97 71.32 110.78 71.32"/></g><g id="LWPOLYLINE-63"><line class="cls-2" x1="103.24" y1="53.45" x2="103.24" y2="48.42"/></g><g id="LWPOLYLINE-64"><line class="cls-2" x1="280.43" y1="71.32" x2="280.43" y2="96.16"/></g><g id="LWPOLYLINE-65"><line class="cls-2" x1="276.24" y1="70.2" x2="276.24" y2="86.95"/></g><g id="LWPOLYLINE-66"><line class="cls-2" x1="276.24" y1="117.93" x2="276.24" y2="138.03"/></g><g id="LWPOLYLINE-67"><line class="cls-2" x1="280.43" y1="119.06" x2="280.43" y2="143.89"/></g><g id="LWPOLYLINE-68"><line class="cls-2" x1="276.24" y1="93.65" x2="276.24" y2="96.16"/></g><g id="LWPOLYLINE-69"><line class="cls-2" x1="276.24" y1="96.16" x2="280.43" y2="96.16"/></g><g id="LWPOLYLINE-70"><line class="cls-2" x1="276.81" y1="48.42" x2="283.78" y2="48.42"/></g><g id="LWPOLYLINE-71"><line class="cls-2" x1="276.81" y1="48.42" x2="276.81" y2="53.58"/></g><g id="LWPOLYLINE-72"><line class="cls-2" x1="280.43" y1="54.42" x2="283.78" y2="54.42"/></g><g id="LWPOLYLINE-73"><line class="cls-2" x1="283.78" y1="50.04" x2="287.13" y2="50.82"/></g><g id="LWPOLYLINE-74"><line class="cls-2" x1="276.81" y1="53.45" x2="283.78" y2="53.45"/></g><g id="LWPOLYLINE-75"><line class="cls-2" x1="276.24" y1="70.2" x2="281.27" y2="70.2"/></g><g id="LWPOLYLINE-76"><line class="cls-2" x1="106.59" y1="81.43" x2="101.08" y2="86.95"/></g><g id="LWPOLYLINE-77"><polyline class="cls-2" points="99.89 93.65 99.89 95.32 106.59 95.32"/></g><g id="LWPOLYLINE-78"><line class="cls-2" x1="99.89" y1="93.65" x2="106.59" y2="93.65"/></g><g id="LWPOLYLINE-79"><line class="cls-2" x1="100.73" y1="88.62" x2="100.73" y2="93.65"/></g><g id="LWPOLYLINE-80"><line class="cls-2" x1="99.89" y1="88.62" x2="99.89" y2="93.65"/></g><g id="LWPOLYLINE-81"><line class="cls-2" x1="99.89" y1="88.62" x2="106.59" y2="88.62"/></g><g id="LWPOLYLINE-82"><line class="cls-2" x1="99.89" y1="86.95" x2="106.59" y2="86.95"/></g><g id="LWPOLYLINE-83"><line class="cls-2" x1="99.89" y1="86.95" x2="99.89" y2="88.62"/></g><g id="LWPOLYLINE-84"><line class="cls-2" x1="106.59" y1="80.25" x2="99.89" y2="86.95"/></g><g id="LINE-3"><line class="cls-2" x1="281.27" y1="70.2" x2="282.05" y2="70.48"/></g><g id="LINE-4"><line class="cls-2" x1="282.05" y1="70.48" x2="282.05" y2="71.32"/></g><g id="LINE-5"><line class="cls-2" x1="282.05" y1="71.32" x2="276.24" y2="71.32"/></g><g id="LINE-6"><line class="cls-2" x1="276.24" y1="117.93" x2="281.27" y2="117.93"/></g><g id="LINE-7"><line class="cls-2" x1="281.27" y1="117.93" x2="282.05" y2="118.22"/></g><g id="LINE-8"><line class="cls-2" x1="282.05" y1="118.22" x2="282.05" y2="119.06"/></g><g id="LINE-9"><line class="cls-2" x1="282.05" y1="119.06" x2="276.24" y2="119.06"/></g><g id="LINE-10"><line class="cls-2" x1="203.81" y1="26.68" x2="110.22" y2="48.42"/></g><g id="LWPOLYLINE-85"><line class="cls-2" x1="228.54" y1="85.27" x2="276.24" y2="85.27"/></g><g id="LWPOLYLINE-86"><rect class="cls-2" x="245.68" y="121.97" width="7.17" height="13.04"/></g><g id="LWPOLYLINE-87"><line class="cls-2" x1="268.37" y1="135.52" x2="216.87" y2="135.52"/></g><g id="LWPOLYLINE-88"><line class="cls-2" x1="267.53" y1="121.28" x2="216.03" y2="121.28"/></g><g id="LWPOLYLINE-89"><line class="cls-2" x1="67.83" y1="138.03" x2="30.77" y2="138.03"/></g><g id="LWPOLYLINE-90"><line class="cls-2" x1="58.63" y1="141.38" x2="25.72" y2="141.38"/></g><g id="LWPOLYLINE-91"><rect class="cls-2" x="136.54" y="67.36" width=".46" height="4.74"/></g><g id="LWPOLYLINE-92"><rect class="cls-2" x="126.06" y="67.36" width=".46" height="4.74"/></g><g id="LWPOLYLINE-93"><rect class="cls-2" x="124.42" y="67.36" width=".46" height="4.74"/></g><g id="LWPOLYLINE-94"><rect class="cls-2" x="136.25" y="52.72" width="9.8" height="32.4"/></g><g id="LWPOLYLINE-95"><rect class="cls-2" x="125.73" y="52.72" width="9.8" height="32.4"/></g><g id="LWPOLYLINE-96"><rect class="cls-2" x="115.36" y="52.72" width="9.8" height="32.4"/></g><g id="LWPOLYLINE-97"><polyline class="cls-2" points="200.38 52.61 193.34 52.61 193.34 75.22"/></g><g id="LWPOLYLINE-98"><polyline class="cls-2" points="200.38 52.95 193.67 52.95 193.67 75.22"/></g><g id="LWPOLYLINE-99"><polyline class="cls-2" points="185.46 75.22 185.46 52.95 172.73 52.95 172.73 86.95"/></g><g id="LWPOLYLINE-100"><polyline class="cls-2" points="185.8 75.22 185.8 52.61 172.4 52.61 172.4 86.95"/></g><g id="LWPOLYLINE-101"><polyline class="cls-2" points="173.38 68.84 173.38 73.46 174.81 73.46 174.81 71.07"/></g><g id="LWPOLYLINE-102"><polyline class="cls-2" points="218.32 68.51 218.32 72.1 219.16 72.1 219.16 69.98"/></g><g id="LWPOLYLINE-103"><line class="cls-2" x1="171.56" y1="85.27" x2="166.88" y2="85.27"/></g><g id="LWPOLYLINE-104"><line class="cls-2" x1="164.37" y1="85.27" x2="147.62" y2="85.27"/></g><g id="LWPOLYLINE-105"><line class="cls-2" x1="183.63" y1="86.45" x2="172.73" y2="86.45"/></g><g id="LWPOLYLINE-106"><line class="cls-1" x1="181.95" y1="117.1" x2="181.95" y2="93.65"/></g><g id="LWPOLYLINE-107"><line class="cls-1" x1="183.63" y1="117.1" x2="183.63" y2="93.65"/></g><g id="LWPOLYLINE-108"><rect class="cls-2" x="229.03" y="124.98" width=".22" height="7.16"/></g><g id="LWPOLYLINE-109"><rect class="cls-2" x="224.41" y="122.12" width="5.23" height="12.89"/></g><g id="LWPOLYLINE-110"><rect class="cls-2" x="237.3" y="124.98" width=".22" height="7.16"/></g><g id="LWPOLYLINE-111"><rect class="cls-2" x="230.7" y="121.97" width="7.17" height="13.04"/></g><g id="LWPOLYLINE-112"><rect class="cls-2" x="238.59" y="124.98" width=".22" height="7.16"/></g><g id="LWPOLYLINE-113"><rect class="cls-2" x="238.23" y="121.97" width="7.17" height="13.04"/></g><g id="LWPOLYLINE-114"><line class="cls-2" x1="229.99" y1="121.28" x2="229.99" y2="135.52"/></g><g id="LWPOLYLINE-115"><line class="cls-2" x1="212.94" y1="85.27" x2="217.88" y2="85.27"/></g><g id="LWPOLYLINE-116"><line class="cls-2" x1="218.93" y1="102.84" x2="218.93" y2="120.45"/></g><g id="LWPOLYLINE-117"><line class="cls-2" x1="218.93" y1="93.65" x2="218.93" y2="98.13"/></g><g id="LWPOLYLINE-118"><line class="cls-2" x1="219.76" y1="102.84" x2="219.76" y2="120.45"/></g><g id="LWPOLYLINE-119"><line class="cls-2" x1="219.76" y1="93.65" x2="219.76" y2="98.13"/></g><g id="LWPOLYLINE-120"><line class="cls-2" x1="221.1" y1="102.84" x2="221.1" y2="120.45"/></g><g id="LWPOLYLINE-121"><line class="cls-2" x1="221.1" y1="93.65" x2="221.1" y2="98.13"/></g><g id="LWPOLYLINE-122"><line class="cls-2" x1="222.44" y1="102.84" x2="222.44" y2="120.45"/></g><g id="LWPOLYLINE-123"><line class="cls-2" x1="222.44" y1="93.65" x2="222.44" y2="98.13"/></g><g id="LWPOLYLINE-124"><line class="cls-2" x1="223.28" y1="102.84" x2="223.28" y2="120.45"/></g><g id="LWPOLYLINE-125"><line class="cls-2" x1="223.28" y1="93.65" x2="223.28" y2="98.13"/></g><g id="LWPOLYLINE-126"><line class="cls-2" x1="229.57" y1="120.45" x2="229.57" y2="121.28"/></g><g id="LWPOLYLINE-127"><rect class="cls-2" x="214.6" y="122.64" width="4.15" height=".6"/></g><g id="LWPOLYLINE-128"><line class="cls-2" x1="103.24" y1="51.76" x2="99.89" y2="52.54"/></g><g id="LWPOLYLINE-129"><line class="cls-2" x1="103.24" y1="50.04" x2="99.89" y2="50.82"/></g><g id="LWPOLYLINE-130"><line class="cls-2" x1="99.89" y1="50.82" x2="99.89" y2="55.98"/></g><g id="LWPOLYLINE-131"><line class="cls-2" x1="106.59" y1="54.42" x2="99.89" y2="55.98"/></g><g id="LWPOLYLINE-132"><rect class="cls-2" x="173.95" y="71.41" width=".29" height=".4"/></g><g id="LWPOLYLINE-133"><rect class="cls-2" x="174.01" y="70.67" width="2.22" height=".4"/></g><g id="LWPOLYLINE-134"><polyline class="cls-2" points="174.81 70.67 174.81 68.84 173.38 68.84"/></g><g id="LWPOLYLINE-135"><polyline class="cls-2" points="219.16 69.63 219.16 68.51 218.32 68.51"/></g><g id="LWPOLYLINE-136"><polyline class="cls-2" points="220.52 69.98 220.52 69.63 218.81 69.63"/></g><g id="LWPOLYLINE-137"><polyline class="cls-2" points="218.81 69.63 218.81 69.98 220.32 69.98"/></g><g id="LWPOLYLINE-138"><line class="cls-2" x1="220.32" y1="69.63" x2="220.52" y2="69.63"/></g><g id="LWPOLYLINE-139"><polyline class="cls-2" points="220.52 69.63 220.52 70.44 220.32 70.44 220.32 69.98"/></g><g id="LWPOLYLINE-140"><rect class="cls-2" x="220.19" y="69.98" width=".11" height=".46"/></g><g id="LWPOLYLINE-141"><rect class="cls-2" x="218.61" y="69.63" width=".2" height=".37"/></g><g id="LWPOLYLINE-142"><rect class="cls-2" x="261.21" y="124.98" width=".22" height="7.16"/></g><g id="LWPOLYLINE-143"><rect class="cls-2" x="260.85" y="121.97" width="7.17" height="13.04"/></g><g id="LWPOLYLINE-144"><rect class="cls-2" x="253.21" y="121.97" width="7.17" height="13.04"/></g><g id="LWPOLYLINE-145"><rect class="cls-2" x="253.57" y="124.98" width=".22" height="7.16"/></g><g id="LWPOLYLINE-146"><rect class="cls-2" x="252.28" y="124.98" width=".22" height="7.16"/></g><g id="LWPOLYLINE-147"><line class="cls-2" x1="106.59" y1="71.87" x2="96.69" y2="86.95"/></g><g id="LWPOLYLINE-148"><line class="cls-2" x1="106.59" y1="71.87" x2="88.87" y2="86.95"/></g><g id="LWPOLYLINE-149"><line class="cls-2" x1="106.59" y1="71.87" x2="82.34" y2="86.95"/></g><g id="LWPOLYLINE-150"><line class="cls-2" x1="83.48" y1="86.95" x2="83.48" y2="93.65"/></g><g id="LWPOLYLINE-151"><line class="cls-2" x1="88.5" y1="86.95" x2="88.5" y2="93.65"/></g><g id="LWPOLYLINE-152"><line class="cls-2" x1="79.29" y1="86.95" x2="79.29" y2="93.65"/></g><g id="LWPOLYLINE-153"><line class="cls-2" x1="75.94" y1="86.95" x2="75.94" y2="93.65"/></g><g id="LWPOLYLINE-154"><line class="cls-2" x1="74.27" y1="86.95" x2="74.27" y2="93.65"/></g><g id="LWPOLYLINE-155"><line class="cls-2" x1="94.37" y1="86.95" x2="94.37" y2="93.65"/></g><g id="LWPOLYLINE-156"><line class="cls-2" x1="106.59" y1="71.87" x2="104.91" y2="81.93"/></g><g id="LWPOLYLINE-157"><line class="cls-2" x1="231.83" y1="35.03" x2="283.78" y2="35.03"/></g><g id="LWPOLYLINE-158"><polyline class="cls-2" points="260 102.84 217.21 102.84 217.21 98.13 260 98.13"/></g><g id="LWPOLYLINE-159"><line class="cls-2" x1="267.53" y1="120.45" x2="216.03" y2="120.45"/></g><g id="LWPOLYLINE-160"><line class="cls-2" x1="67.83" y1="137.19" x2="30.77" y2="137.19"/></g><g id="LWPOLYLINE-161"><line class="cls-2" x1="58.63" y1="140.54" x2="25.72" y2="140.54"/></g><g id="LWPOLYLINE-162"><line class="cls-2" x1="58.63" y1="143.89" x2="26.56" y2="143.89"/></g><g id="LWPOLYLINE-163"><line class="cls-2" x1="26.56" y1="141.38" x2="26.56" y2="143.89"/></g><g id="LWPOLYLINE-164"><line class="cls-2" x1="25.72" y1="140.54" x2="25.72" y2="141.38"/></g><g id="LWPOLYLINE-165"><line class="cls-2" x1="30.77" y1="137.19" x2="30.77" y2="138.03"/></g><g id="LWPOLYLINE-166"><line class="cls-2" x1="31.61" y1="138.03" x2="31.61" y2="140.54"/></g><g id="LWPOLYLINE-167"><polyline class="cls-2" points="200.38 51.77 192.5 51.77 192.5 75.22"/></g><g id="LWPOLYLINE-168"><polyline class="cls-2" points="186.64 75.22 186.64 51.77 171.56 51.77 171.56 86.95"/></g><g id="LWPOLYLINE-169"><line class="cls-2" x1="214.9" y1="35.11" x2="214.9" y2="86.95"/></g><g id="LWPOLYLINE-170"><line class="cls-2" x1="230.59" y1="39.79" x2="230.59" y2="86.95"/></g><g id="LWPOLYLINE-171"><line class="cls-2" x1="237.07" y1="41.72" x2="237.07" y2="86.95"/></g><g id="LWPOLYLINE-172"><line class="cls-2" x1="147.62" y1="44.88" x2="147.62" y2="86.95"/></g><g id="LWPOLYLINE-173"><line class="cls-2" x1="228.54" y1="51.77" x2="228.54" y2="86.95"/></g><g id="LWPOLYLINE-174"><line class="cls-2" x1="227.29" y1="52.61" x2="227.29" y2="86.95"/></g><g id="LWPOLYLINE-175"><line class="cls-2" x1="217.88" y1="51.77" x2="217.88" y2="86.95"/></g><g id="LWPOLYLINE-176"><line class="cls-2" x1="227.7" y1="51.77" x2="227.7" y2="86.95"/></g><g id="LWPOLYLINE-177"><line class="cls-2" x1="183.63" y1="86.95" x2="166.88" y2="86.95"/></g><g id="LWPOLYLINE-178"><line class="cls-2" x1="183.63" y1="90.3" x2="166.88" y2="90.3"/></g><g id="LWPOLYLINE-179"><line class="cls-2" x1="183.63" y1="93.65" x2="166.88" y2="93.65"/></g><g id="LWPOLYLINE-180"><line class="cls-2" x1="183.63" y1="97" x2="166.88" y2="97"/></g><g id="LWPOLYLINE-181"><line class="cls-2" x1="183.63" y1="100.35" x2="166.88" y2="100.35"/></g><g id="LWPOLYLINE-182"><line class="cls-2" x1="183.63" y1="103.7" x2="166.88" y2="103.7"/></g><g id="LWPOLYLINE-183"><line class="cls-2" x1="183.63" y1="107.05" x2="166.88" y2="107.05"/></g><g id="LWPOLYLINE-184"><line class="cls-2" x1="183.63" y1="110.4" x2="166.88" y2="110.4"/></g><g id="LWPOLYLINE-185"><line class="cls-2" x1="205.71" y1="93.65" x2="205.71" y2="137.19"/></g><g id="LWPOLYLINE-186"><line class="cls-2" x1="200.38" y1="75.22" x2="182.79" y2="75.22"/></g><g id="LWPOLYLINE-187"><line class="cls-2" x1="200.38" y1="76.06" x2="182.79" y2="76.06"/></g><g id="LWPOLYLINE-188"><line class="cls-2" x1="183.63" y1="76.06" x2="183.63" y2="86.95"/></g><g id="LWPOLYLINE-189"><line class="cls-2" x1="182.79" y1="75.22" x2="182.79" y2="76.06"/></g><g id="LWPOLYLINE-190"><line class="cls-2" x1="216.87" y1="123.24" x2="216.87" y2="137.19"/></g><g id="LWPOLYLINE-191"><line class="cls-2" x1="230.49" y1="135.52" x2="230.49" y2="137.19"/></g><g id="LWPOLYLINE-192"><line class="cls-2" x1="218.59" y1="102.84" x2="218.59" y2="120.45"/></g><g id="LWPOLYLINE-193"><line class="cls-2" x1="218.59" y1="93.65" x2="218.59" y2="98.13"/></g><g id="LWPOLYLINE-194"><line class="cls-2" x1="223.62" y1="102.84" x2="223.62" y2="120.45"/></g><g id="LWPOLYLINE-195"><line class="cls-2" x1="223.62" y1="93.65" x2="223.62" y2="98.13"/></g><g id="LWPOLYLINE-196"><line class="cls-2" x1="216.87" y1="121.28" x2="216.87" y2="122.64"/></g><g id="LWPOLYLINE-197"><line class="cls-2" x1="216.03" y1="120.45" x2="216.03" y2="121.28"/></g><g id="LWPOLYLINE-198"><line class="cls-2" x1="167.89" y1="35.03" x2="103.24" y2="35.03"/></g><g id="LWPOLYLINE-199"><line class="cls-2" x1="103.24" y1="54.42" x2="103.24" y2="53.45"/></g><g id="LWPOLYLINE-200"><line class="cls-2" x1="103.24" y1="48.42" x2="103.24" y2="35.03"/></g><g id="LWPOLYLINE-201"><line class="cls-2" x1="106.59" y1="53.45" x2="106.59" y2="70.2"/></g><g id="LWPOLYLINE-202"><line class="cls-2" x1="106.59" y1="54.42" x2="103.24" y2="54.42"/></g><g id="LWPOLYLINE-203"><line class="cls-2" x1="110.78" y1="53.45" x2="110.78" y2="70.2"/></g><g id="LWPOLYLINE-204"><line class="cls-2" x1="189.58" y1="24.43" x2="179.51" y2="24.43"/></g><g id="LWPOLYLINE-205"><line class="cls-2" x1="189.58" y1="23.6" x2="179.51" y2="23.6"/></g><g id="LWPOLYLINE-206"><line class="cls-2" x1="180.35" y1="24.43" x2="180.35" y2="32.13"/></g><g id="LWPOLYLINE-207"><line class="cls-2" x1="188.74" y1="24.43" x2="188.74" y2="30.18"/></g><g id="LWPOLYLINE-208"><line class="cls-2" x1="179.51" y1="23.6" x2="179.51" y2="24.43"/></g><g id="LWPOLYLINE-209"><line class="cls-2" x1="189.58" y1="23.6" x2="189.58" y2="24.43"/></g><g id="LWPOLYLINE-210"><line class="cls-2" x1="227.29" y1="52.61" x2="217.88" y2="52.61"/></g><g id="LWPOLYLINE-211"><line class="cls-2" x1="228.54" y1="51.77" x2="217.88" y2="51.77"/></g><g id="LWPOLYLINE-212"><rect class="cls-2" x="268.32" y="96.19" width="7.58" height="13.8"/></g><g id="LWPOLYLINE-213"><line class="cls-2" x1="276.24" y1="110.4" x2="260" y2="110.4"/></g><g id="LWPOLYLINE-214"><rect class="cls-2" x="268.7" y="99.38" width=".23" height="7.58"/></g><g id="LWPOLYLINE-215"><rect class="cls-2" x="267.33" y="99.38" width=".23" height="7.58"/></g><g id="LWPOLYLINE-216"><rect class="cls-2" x="260.36" y="96.19" width="7.58" height="13.8"/></g><g id="LWPOLYLINE-217"><line class="cls-2" x1="260" y1="93.65" x2="260" y2="120.45"/></g><g id="LWPOLYLINE-218"><line class="cls-2" x1="276.24" y1="96.16" x2="276.24" y2="117.93"/></g><g id="LWPOLYLINE-219"><line class="cls-2" x1="280.43" y1="96.16" x2="280.43" y2="117.93"/></g><g id="LWPOLYLINE-220"><line class="cls-2" x1="283.78" y1="48.42" x2="283.78" y2="35.03"/></g><g id="LWPOLYLINE-221"><line class="cls-2" x1="276.24" y1="53.45" x2="276.24" y2="70.2"/></g><g id="LWPOLYLINE-222"><line class="cls-2" x1="280.43" y1="53.45" x2="280.43" y2="70.2"/></g><g id="LWPOLYLINE-223"><line class="cls-2" x1="280.43" y1="54.42" x2="287.13" y2="55.98"/></g><g id="LWPOLYLINE-224"><line class="cls-2" x1="287.13" y1="50.82" x2="287.13" y2="55.98"/></g><g id="LWPOLYLINE-225"><line class="cls-2" x1="283.78" y1="51.76" x2="287.13" y2="52.54"/></g><g id="LWPOLYLINE-226"><line class="cls-2" x1="30.77" y1="133.01" x2="30.77" y2="133.84"/></g><g id="LWPOLYLINE-227"><line class="cls-2" x1="31.61" y1="133.84" x2="31.61" y2="137.19"/></g><g id="LWPOLYLINE-228"><line class="cls-2" x1="53.29" y1="133.84" x2="51.32" y2="133.84"/></g><g id="LWPOLYLINE-229"><line class="cls-2" x1="53.45" y1="133.01" x2="51.68" y2="133.01"/></g><g id="LWPOLYLINE-230"><line class="cls-2" x1="42.41" y1="133.84" x2="40.03" y2="133.84"/></g><g id="LWPOLYLINE-231"><line class="cls-2" x1="31.25" y1="133.84" x2="30.77" y2="133.84"/></g><g id="LWPOLYLINE-232"><line class="cls-2" x1="42.41" y1="133.01" x2="40.14" y2="133.01"/></g><g id="LWPOLYLINE-233"><line class="cls-2" x1="31.31" y1="133.01" x2="30.77" y2="133.01"/></g><g id="LWPOLYLINE-234"><line class="cls-2" x1="62.23" y1="133.84" x2="59.96" y2="133.84"/></g><g id="LWPOLYLINE-235"><line class="cls-2" x1="61.93" y1="133.01" x2="60.23" y2="133.01"/></g><g id="LWPOLYLINE-236"><line class="cls-2" x1="75.61" y1="133.84" x2="74.8" y2="133.84"/></g><g id="LWPOLYLINE-237"><line class="cls-2" x1="68.18" y1="133.84" x2="67.39" y2="133.84"/></g><g id="LWPOLYLINE-238"><line class="cls-2" x1="75.61" y1="133.01" x2="74.84" y2="133.01"/></g><g id="LWPOLYLINE-239"><line class="cls-2" x1="68.11" y1="133.01" x2="66.8" y2="133.01"/></g><g id="LWPOLYLINE-240"><line class="cls-2" x1="76.53" y1="86.95" x2="106.59" y2="71.87"/></g><g id="LWPOLYLINE-241"><line class="cls-2" x1="74.94" y1="132.84" x2="106.59" y2="132.84"/></g><g id="LWPOLYLINE-242"><line class="cls-2" x1="74.94" y1="132.17" x2="106.59" y2="132.17"/></g><g id="LWPOLYLINE-243"><line class="cls-2" x1="75.61" y1="132.84" x2="75.61" y2="137.19"/></g><g id="LWPOLYLINE-244"><line class="cls-2" x1="74.94" y1="132.17" x2="74.94" y2="132.84"/></g><g id="LWPOLYLINE-245"><line class="cls-2" x1="75.61" y1="95.32" x2="99.89" y2="95.32"/></g><g id="LWPOLYLINE-246"><polyline class="cls-2" points="99.89 93.65 72.26 93.65 72.26 86.95"/></g><g id="LWPOLYLINE-247"><line class="cls-2" x1="72.26" y1="88.62" x2="99.89" y2="88.62"/></g><g id="LWPOLYLINE-248"><line class="cls-2" x1="72.26" y1="86.95" x2="99.89" y2="86.95"/></g><g id="LWPOLYLINE-249"><line class="cls-2" x1="75.61" y1="93.65" x2="75.61" y2="95.32"/></g><g id="LWPOLYLINE-250"><polyline class="cls-2" points="101.22 95.32 101.22 100.35 106.59 100.35"/></g><g id="LWPOLYLINE-251"><line class="cls-2" x1="106.23" y1="100.35" x2="106.23" y2="131.33"/></g><g id="LWPOLYLINE-252"><line class="cls-2" x1="108.48" y1="69.78" x2="108.48" y2="53.87"/></g><g id="LWPOLYLINE-253"><line class="cls-2" x1="107.85" y1="53.87" x2="107.85" y2="69.36"/></g><g id="LWPOLYLINE-254"><line class="cls-2" x1="109.52" y1="53.87" x2="109.52" y2="69.36"/></g><g id="LWPOLYLINE-255"><line class="cls-2" x1="279.17" y1="97" x2="279.17" y2="117.1"/></g><g id="LWPOLYLINE-256"><line class="cls-2" x1="277.5" y1="97" x2="277.5" y2="117.1"/></g><g id="LWPOLYLINE-257"><line class="cls-2" x1="278.55" y1="117.51" x2="278.55" y2="96.58"/></g><g id="LWPOLYLINE-258"><line class="cls-2" x1="277.5" y1="53.87" x2="277.5" y2="69.36"/></g><g id="LWPOLYLINE-259"><line class="cls-2" x1="278.55" y1="69.78" x2="278.55" y2="53.87"/></g><g id="LWPOLYLINE-260"><line class="cls-2" x1="279.17" y1="53.87" x2="279.17" y2="69.36"/></g><g id="LWPOLYLINE-261"><line class="cls-2" x1="278.34" y1="69.78" x2="278.34" y2="53.87"/></g><g id="LWPOLYLINE-262"><line class="cls-2" x1="278.76" y1="69.78" x2="278.76" y2="53.87"/></g><g id="LWPOLYLINE-263"><line class="cls-2" x1="278.34" y1="117.51" x2="278.34" y2="96.58"/></g><g id="LWPOLYLINE-264"><line class="cls-2" x1="278.76" y1="117.51" x2="278.76" y2="96.58"/></g><g id="LWPOLYLINE-265"><line class="cls-2" x1="108.27" y1="69.78" x2="108.27" y2="53.87"/></g><g id="LWPOLYLINE-266"><line class="cls-2" x1="108.69" y1="69.78" x2="108.69" y2="53.87"/></g><g id="LWPOLYLINE-267"><line class="cls-2" x1="78.12" y1="95.32" x2="78.12" y2="132.17"/></g><g id="LWPOLYLINE-268"><line class="cls-2" x1="83.95" y1="96.58" x2="89.66" y2="96.58"/></g><g id="LWPOLYLINE-269"><line class="cls-2" x1="83.95" y1="130.91" x2="89.66" y2="130.91"/></g><g id="LWPOLYLINE-270"><line class="cls-2" x1="78.12" y1="96.16" x2="101.22" y2="96.16"/></g><g id="LWPOLYLINE-271"><line class="cls-2" x1="78.12" y1="131.33" x2="106.59" y2="131.33"/></g><g id="LWPOLYLINE-272"><line class="cls-2" x1="83.95" y1="96.58" x2="83.95" y2="130.91"/></g><g id="LWPOLYLINE-273"><line class="cls-2" x1="83.28" y1="96.58" x2="83.28" y2="130.91"/></g><g id="LWPOLYLINE-274"><line class="cls-2" x1="84.89" y1="96.58" x2="84.89" y2="130.91"/></g><g id="LWPOLYLINE-275"><line class="cls-2" x1="79.69" y1="96.58" x2="79.69" y2="130.91"/></g><g id="LWPOLYLINE-276"><line class="cls-2" x1="79.34" y1="96.58" x2="79.34" y2="130.91"/></g><g id="LWPOLYLINE-277"><line class="cls-2" x1="80.79" y1="96.58" x2="80.79" y2="130.91"/></g><g id="LWPOLYLINE-278"><line class="cls-2" x1="78.12" y1="96.58" x2="83.28" y2="96.58"/></g><g id="LWPOLYLINE-279"><line class="cls-2" x1="78.12" y1="130.91" x2="83.28" y2="130.91"/></g><g id="LWPOLYLINE-280"><line class="cls-2" x1="99.22" y1="96.58" x2="101.22" y2="96.58"/></g><g id="LWPOLYLINE-281"><line class="cls-2" x1="99.22" y1="130.91" x2="105.73" y2="130.91"/></g><g id="LWPOLYLINE-282"><line class="cls-2" x1="99.22" y1="96.58" x2="99.22" y2="130.91"/></g><g id="LWPOLYLINE-283"><line class="cls-2" x1="98.06" y1="96.58" x2="98.06" y2="130.91"/></g><g id="LWPOLYLINE-284"><line class="cls-2" x1="99.54" y1="96.58" x2="99.54" y2="130.91"/></g><g id="LWPOLYLINE-285"><line class="cls-2" x1="91.28" y1="96.58" x2="91.28" y2="130.91"/></g><g id="LWPOLYLINE-286"><line class="cls-2" x1="90.61" y1="96.58" x2="90.61" y2="130.91"/></g><g id="LWPOLYLINE-287"><line class="cls-2" x1="89.66" y1="96.58" x2="89.66" y2="130.91"/></g><g id="LWPOLYLINE-288"><line class="cls-2" x1="90.61" y1="96.58" x2="98.06" y2="96.58"/></g><g id="LWPOLYLINE-289"><line class="cls-2" x1="90.61" y1="130.91" x2="98.06" y2="130.91"/></g><g id="LWPOLYLINE-290"><line class="cls-2" x1="105.73" y1="100.35" x2="105.73" y2="130.91"/></g></svg>