<?xml version="1.0" encoding="UTF-8"?><svg id="PAVIMENTAZIONE_-_flooring" xmlns="http://www.w3.org/2000/svg" width="297.64" height="212.81" viewBox="0 0 297.64 212.81"><defs><style>.cls-1{fill:none;stroke:#000;stroke-linecap:round;stroke-linejoin:round;stroke-width:.5px;}</style></defs><g id="ARC"><path class="cls-1" d="m65.72,158.33c-.5-2.72-1.27-5.38-2.3-7.94"/></g><g id="ARC-2"><path class="cls-1" d="m65.38,151.31c-.35-.28-.86-.23-1.14.12-.16.2-.22.46-.16.71"/></g><g id="ARC-3"><path class="cls-1" d="m63.76,151.26c-.21-.12-.48-.05-.61.16-.05.09-.07.19-.06.29"/></g><g id="LWPOLYLINE"><polyline class="cls-1" points="65.2 171.06 65.2 170.63 64.42 169.45 65.79 168.87 66.87 170.14 66.38 167.3 65.3 166.42 65.2 165.04 63.83 165.53 62.65 164.55 61.97 165.34 60.79 164.36 60.49 164.75"/></g><g id="ARC-4"><path class="cls-1" d="m65.83,166.36c-.29-1.97-2.01-3.4-4-3.34"/></g><g id="ARC-5"><path class="cls-1" d="m66.56,161.38c-.98-.57-2.17-.64-3.2-.17"/></g><g id="ARC-6"><path class="cls-1" d="m66.56,161.38c-.59-.92-1.81-1.19-2.73-.6-.18.12-.34.26-.48.43"/></g><g id="ARC-7"><path class="cls-1" d="m64.05,160.66c-.14-.29-.49-.42-.79-.28-.07.03-.13.08-.18.13"/></g><g id="LWPOLYLINE-2"><polygon class="cls-1" points="62.36 166.42 62.95 169.16 63.93 166.81 62.36 166.42"/></g><g id="ARC-8"><path class="cls-1" d="m63.86,161.39c-.47-.65-1.38-.8-2.03-.34-.35.25-.57.64-.6,1.06"/></g><g id="ARC-9"><path class="cls-1" d="m63.86,161.39c-.94-.32-1.99-.03-2.63.73"/></g><g id="ARC-10"><path class="cls-1" d="m64.08,152.14c-.24-.25-.63-.26-.87-.02-.16.15-.22.37-.18.58"/></g><g id="ARC-11"><path class="cls-1" d="m64.08,152.14c-.43-.03-.84.19-1.05.56"/></g><g id="ARC-12"><path class="cls-1" d="m64.3,158.31c-.9-.62-2.13-.39-2.74.51"/></g><g id="ARC-13"><path class="cls-1" d="m64.78,159.36c-.33-.78-.72-1.54-1.17-2.25"/></g><g id="ARC-14"><path class="cls-1" d="m64.3,158.31c-.81-.11-1.62.07-2.31.5"/></g><g id="ARC-15"><path class="cls-1" d="m65.56,157.47c-1.01-.52-2.21-.51-3.21.02"/></g><g id="ARC-16"><path class="cls-1" d="m65.56,157.47c-.64-.88-1.87-1.08-2.76-.44-.17.13-.33.28-.45.46"/></g><g id="ARC-17"><path class="cls-1" d="m64.46,156.69c-.34-.26-.8-.3-1.18-.1"/></g><g id="ARC-18"><path class="cls-1" d="m64.46,156.69c-.06-.33-.39-.55-.72-.49-.21.04-.39.19-.46.39"/></g><g id="ARC-19"><path class="cls-1" d="m64.69,154.01c-.23-.53-.84-.78-1.37-.55-.3.13-.53.39-.6.71"/></g><g id="ARC-20"><path class="cls-1" d="m64.69,154.01c-.61-.42-1.43-.35-1.98.15"/></g><g id="ARC-21"><path class="cls-1" d="m65.31,156.35c-.76-.61-1.81-.7-2.66-.23"/></g><g id="ARC-22"><path class="cls-1" d="m65.31,156.35c-.2-.76-.97-1.21-1.73-1.01-.41.11-.76.4-.93.78"/></g><g id="ARC-23"><path class="cls-1" d="m65,155.12c-.68-.47-1.59-.39-2.19.17"/></g><g id="ARC-24"><path class="cls-1" d="m65,155.12c-.25-.59-.93-.87-1.52-.61-.33.14-.58.43-.67.79"/></g><g id="ARC-25"><path class="cls-1" d="m64.37,152.99c-.44-.16-.94-.05-1.28.29"/></g><g id="ARC-26"><path class="cls-1" d="m64.37,152.99c-.18-.33-.59-.45-.92-.28-.21.11-.34.33-.36.56"/></g><g id="ARC-27"><path class="cls-1" d="m63.93,160.22c-.2-.19-.52-.18-.71.03-.07.07-.11.17-.13.27"/></g><g id="ARC-28"><path class="cls-1" d="m63.9,157.59c-.94-.32-1.99-.03-2.63.73"/></g><g id="ARC-29"><path class="cls-1" d="m63.9,157.59c-.14-.19-.31-.34-.52-.45"/></g><g id="ARC-30"><path class="cls-1" d="m63.76,151.26c-.27.05-.51.21-.66.45"/></g><g id="ARC-31"><path class="cls-1" d="m65.49,167.05c.4-4.34-2.71-8.21-7.03-8.77"/></g><g id="LWPOLYLINE-3"><polyline class="cls-1" points="30.48 167.1 30.09 166.32 31.17 165.63 32.15 164.55 32.93 165.04 33.03 166.12 33.52 166.32 34.31 165.43 33.82 164.26 34.5 162.98 34.6 163.96 34.6 165.34 35.19 165.92 35.78 165.92 36.56 165.04 38.23 165.14 38.92 164.75 39.02 166.32 39.41 167.49 37.25 168.96 37.25 169.75 37.39 171.06"/></g><g id="ARC-32"><path class="cls-1" d="m39.91,166.4c-.23-1.57-1.61-2.72-3.2-2.68"/></g><g id="ARC-33"><path class="cls-1" d="m37.6,163c-.28.07-.44.36-.36.63.01.04.03.09.05.12"/></g><g id="ARC-34"><path class="cls-1" d="m37.6,163c-.2.2-.31.48-.31.76"/></g><g id="ARC-35"><path class="cls-1" d="m37.99,161.01c-.11-.25-.4-.36-.65-.25-.16.07-.27.22-.29.39"/></g><g id="ARC-36"><path class="cls-1" d="m37.99,161.01c-.31-.14-.68-.09-.94.13"/></g><g id="ARC-37"><path class="cls-1" d="m37.61,157.28c-.23-.09-.48-.06-.68.09"/></g><g id="ARC-38"><path class="cls-1" d="m37.51,157.49c-.19-.06-.38-.1-.58-.12"/></g><g id="ARC-39"><path class="cls-1" d="m37.96,158.71c-.44-.66-.94-1.28-1.5-1.85"/></g><g id="ARC-40"><path class="cls-1" d="m39,156.52c-.18-.42-.67-.62-1.1-.44-.24.1-.42.31-.48.57"/></g><g id="ARC-41"><path class="cls-1" d="m38.69,159.96c-.64-.08-1.3.06-1.85.4"/></g><g id="ARC-42"><path class="cls-1" d="m38.69,159.96c-.72-.49-1.7-.31-2.2.41"/></g><g id="ARC-43"><path class="cls-1" d="m38.34,162.42c-.75-.26-1.59-.03-2.11.58"/></g><g id="ARC-44"><path class="cls-1" d="m37.72,161.72c-.38-.5-1.09-.6-1.59-.22-.27.21-.44.52-.45.86"/></g><g id="ARC-45"><path class="cls-1" d="m37.72,161.72c-.75-.22-1.55.03-2.04.64"/></g><g id="ARC-46"><path class="cls-1" d="m38.34,162.42c-.37-.52-1.1-.64-1.62-.27-.28.2-.45.51-.48.85"/></g><g id="ARC-47"><path class="cls-1" d="m37.41,157.95c-.65-.14-1.3.19-1.57.8"/></g><g id="ARC-48"><path class="cls-1" d="m37.41,157.95c-.37-.36-.95-.36-1.31,0-.2.21-.3.5-.26.79"/></g><g id="ARC-49"><path class="cls-1" d="m37.87,158.58c-.69-.22-1.44-.02-1.93.52"/></g><g id="ARC-50"><path class="cls-1" d="m37.87,158.58c-.42-.46-1.13-.49-1.59-.07-.17.16-.29.36-.34.59"/></g><g id="ARC-51"><path class="cls-1" d="m38.38,159.38c-.75-.26-1.59-.03-2.11.58"/></g><g id="ARC-52"><path class="cls-1" d="m37.54,158.9c-.64-.06-1.21.41-1.27,1.04,0,0,0,.01,0,.02"/></g><g id="ARC-53"><path class="cls-1" d="m39.5,158.4c-.16-.61-.78-.97-1.38-.81-.33.09-.6.32-.75.63"/></g><g id="ARC-54"><path class="cls-1" d="m39.5,158.4c-.61-.49-1.45-.56-2.13-.18"/></g><g id="ARC-55"><path class="cls-1" d="m39.7,159.29c-.51-.71-1.5-.86-2.21-.35-.14.1-.26.22-.36.37"/></g><g id="ARC-56"><path class="cls-1" d="m39.7,159.29c-.81-.41-1.76-.41-2.57.01"/></g><g id="ARC-57"><path class="cls-1" d="m39.65,166.95c.32-3.47-2.17-6.57-5.62-7.02"/></g><g id="LWPOLYLINE-4"><polyline class="cls-1" points="32.44 171.06 32.44 170.53 32.15 168.96 30.58 169.45 29.8 171.32 29.4 170.83 30.19 169.06 30.09 168.47 30.48 167.1"/></g><g id="LWPOLYLINE-5"><polyline class="cls-1" points="35.85 171.06 35.78 169.75 35.98 168.38 34.5 169.85 34.68 171.06"/></g><g id="LWPOLYLINE-6"><polygon class="cls-1" points="34.41 166.81 33.03 168.18 33.33 171.22 34.21 168.77 36.17 166.91 34.99 166.42 34.41 166.81"/></g><g id="ARC-58"><path class="cls-1" d="m37.29,163.76c-.18.08-.27.28-.19.46.03.07.09.14.16.18"/></g><g id="ARC-59"><path class="cls-1" d="m37.29,163.76c-.1.2-.11.43-.03.64"/></g><g id="ARC-60"><path class="cls-1" d="m36.72,163.72c-.08.2-.03.42.12.58"/></g><g id="ARC-61"><path class="cls-1" d="m36.72,163.72c-.15.09-.19.28-.1.43.05.08.13.13.22.15"/></g><g id="ARC-62"><path class="cls-1" d="m37.01,163.15c-.17.15-.27.35-.3.57"/></g><g id="ARC-63"><path class="cls-1" d="m37.01,163.15c-.18-.04-.36.07-.4.25-.03.12.01.24.1.32"/></g><g id="ARC-64"><path class="cls-1" d="m36.87,157.03c-.13-.08-.27-.14-.42-.17"/></g><g id="ARC-65"><path class="cls-1" d="m36.87,157.03c-.03-.15-.18-.24-.32-.21-.03,0-.06.02-.09.04"/></g><g id="ARC-66"><path class="cls-1" d="m36.14,160.59c-.37-.36-.95-.36-1.31,0-.2.21-.3.5-.26.79"/></g><g id="ARC-67"><path class="cls-1" d="m36.14,160.59c-.65-.14-1.3.19-1.57.8"/></g><g id="ARC-68"><path class="cls-1" d="m36.14,160.17c-.09-.23-.35-.35-.58-.26-.14.05-.25.17-.28.32"/></g><g id="ARC-69"><path class="cls-1" d="m36.14,160.17c-.28-.12-.6-.1-.86.05"/></g><g id="ARC-70"><path class="cls-1" d="m37.29,160.69c-.2-.34-.64-.45-.97-.25-.07.04-.12.09-.17.14"/></g><g id="ARC-71"><path class="cls-1" d="m37.29,160.69c-.37-.13-.76-.16-1.15-.11"/></g><g id="ARC-72"><path class="cls-1" d="m37.04,161.15c-.42-.46-1.13-.49-1.59-.07-.17.16-.29.36-.34.59"/></g><g id="ARC-73"><path class="cls-1" d="m37.04,161.15c-.69-.22-1.44-.02-1.93.52"/></g><g id="ARC-74"><path class="cls-1" d="m36.46,156.86c-.16.1-.27.26-.29.45"/></g><g id="ARC-75"><path class="cls-1" d="m36.17,157.31c.12-.13.22-.28.29-.45"/></g><g id="ARC-76"><path class="cls-1" d="m37,157.45c-.31-.29-.79-.28-1.08.03-.13.13-.2.31-.21.49"/></g><g id="ARC-77"><path class="cls-1" d="m37,157.45c-.48-.02-.95.17-1.29.52"/></g><g id="ARC-78"><path class="cls-1" d="m33.98,160.46c.04-.17.05-.35.04-.53"/></g><g id="ARC-79"><path class="cls-1" d="m34.02,159.93c-.1.16-.11.36-.04.53"/></g><g id="ARC-80"><path class="cls-1" d="m35.28,160.22c-.31-.29-.79-.28-1.08.03-.13.13-.2.31-.21.49"/></g><g id="ARC-81"><path class="cls-1" d="m35.28,160.22c-.48-.02-.95.17-1.29.52"/></g><g id="ARC-82"><path class="cls-1" d="m34.47,159.88c-.1-.11-.27-.13-.38-.03-.03.02-.05.05-.06.08"/></g><g id="ARC-83"><path class="cls-1" d="m34.47,159.88c-.15,0-.3,0-.44.05"/></g><g id="LWPOLYLINE-7"><polyline class="cls-1" points="60.49 164.75 61.08 167.3 61.77 168.67 62.06 171.02 62.08 171.06"/></g><g id="LWPOLYLINE-8"><polyline class="cls-1" points="52.16 168.77 52.55 166.61 53.63 165.34 54.02 164.55 55 166.32 56.47 164.45 56.87 164.45 57.16 165.83 58.43 166.02 59.12 165.63 59.32 167.1 58.83 168.08 59.81 170.04 58.14 171.02 58.14 171.06"/></g><g id="LWPOLYLINE-9"><polyline class="cls-1" points="53.46 171.06 53.43 171.02 53.33 170.04 53.73 169.26 52.09 171.06"/></g><g id="LWPOLYLINE-10"><polyline class="cls-1" points="51.11 171.06 51.67 169.75 51.67 169.06 52.16 168.77"/></g><g id="LWPOLYLINE-11"><polyline class="cls-1" points="48.16 171.06 48.23 170.24 47.16 168.57 46.86 167.59 45.78 168.77 45.59 170.34 44.57 171.06"/></g><g id="LWPOLYLINE-12"><polyline class="cls-1" points="41.47 167.69 41.47 165.63 43.04 165.53 43.82 166.12 44.51 166.32 45.59 165.83 46.86 166.12 48.04 165.14 48.73 164.06 49.12 164.75 49.8 166.12 51.18 165.92 50.49 167.4 49.9 168.96 50 170.53 49.59 171.06"/></g><g id="LWPOLYLINE-13"><polyline class="cls-1" points="40.45 171.06 40.98 170.34 41.27 169.36 40.78 169.26 41.57 168.57 41.47 167.69"/></g><g id="ARC-84"><path class="cls-1" d="m40.73,160.22c-.14-.3-.49-.44-.8-.3-.1.05-.19.12-.25.22"/></g><g id="ARC-85"><path class="cls-1" d="m40.73,160.22c-.32-.17-.7-.2-1.05-.08"/></g><g id="ARC-86"><path class="cls-1" d="m41.09,156.97c-.77.11-1.4.67-1.59,1.42"/></g><g id="ARC-87"><path class="cls-1" d="m41.09,156.97c-.55-.3-1.24-.1-1.54.45-.16.3-.18.66-.05.97"/></g><g id="ARC-88"><path class="cls-1" d="m40.74,156.47c-.66-.07-1.27.32-1.49.94"/></g><g id="ARC-89"><path class="cls-1" d="m40.74,156.47c-.4-.32-.98-.26-1.31.14-.18.23-.25.52-.18.81"/></g><g id="ARC-90"><path class="cls-1" d="m40.66,160.68c-.28-.44-.87-.57-1.31-.29-.09.06-.16.13-.23.21"/></g><g id="ARC-91"><path class="cls-1" d="m40.66,160.68c-.47-.28-1.04-.31-1.54-.08"/></g><g id="ARC-92"><path class="cls-1" d="m40.87,162.34c-.22,1.53-.25,3.08-.1,4.61"/></g><g id="ARC-93"><path class="cls-1" d="m40.88,159.46c-.33,1.5-.46,3.04-.37,4.58"/></g><g id="ARC-94"><path class="cls-1" d="m43.28,163.96c-1.49-.05-2.75,1.11-2.8,2.61,0,.13,0,.26.01.38"/></g><g id="ARC-95"><path class="cls-1" d="m41.49,159.52c.13-.61-.26-1.22-.87-1.35-.27-.06-.55-.02-.79.12"/></g><g id="ARC-96"><path class="cls-1" d="m41.29,159.32c-.29-.56-.84-.95-1.46-1.03"/></g><g id="ARC-97"><path class="cls-1" d="m40.83,159.71c-.19-.29-.58-.38-.87-.19-.06.04-.11.08-.15.14"/></g><g id="ARC-98"><path class="cls-1" d="m40.83,159.71c-.31-.18-.7-.2-1.03-.05"/></g><g id="ARC-99"><path class="cls-1" d="m41.76,158.68c.12-.5-.19-1-.69-1.12-.28-.07-.58,0-.81.19"/></g><g id="ARC-100"><path class="cls-1" d="m41.76,158.68c-.22-.62-.84-1.01-1.5-.93"/></g><g id="ARC-101"><path class="cls-1" d="m43.02,162.92c-.71-.57-1.65-.75-2.52-.5"/></g><g id="ARC-102"><path class="cls-1" d="m43.02,162.92c-.36-.79-1.3-1.15-2.09-.79-.16.07-.3.17-.43.29"/></g><g id="ARC-103"><path class="cls-1" d="m42.8,162.26c-.32-.72-1.17-1.03-1.88-.71-.14.06-.27.15-.38.26"/></g><g id="ARC-104"><path class="cls-1" d="m42.8,162.26c-.64-.51-1.48-.68-2.27-.45"/></g><g id="ARC-105"><path class="cls-1" d="m42.31,161.68c-.19-.58-.82-.89-1.4-.7-.11.04-.22.09-.32.17"/></g><g id="ARC-106"><path class="cls-1" d="m42.17,160.98c-.42-.34-.99-.45-1.51-.3"/></g><g id="ARC-107"><path class="cls-1" d="m42.17,160.98c-.22-.48-.78-.69-1.25-.47-.09.04-.18.1-.26.17"/></g><g id="ARC-108"><path class="cls-1" d="m40.83,159.15c-.2-.17-.5-.14-.67.07,0,0,0,0,0,0"/></g><g id="ARC-109"><path class="cls-1" d="m40.78,159.2c-.2-.07-.42-.06-.62.03"/></g><g id="ARC-110"><path class="cls-1" d="m42.31,161.68c-.52-.32-1.11-.51-1.72-.54"/></g><g id="ARC-111"><path class="cls-1" d="m41.09,159.14c-.13-.07-.3-.01-.36.12-.02.03-.02.06-.03.1"/></g><g id="ARC-112"><path class="cls-1" d="m39.98,166.95c.17-1.64.02-3.3-.45-4.88"/></g><g id="ARC-113"><path class="cls-1" d="m40.03,158.33c-.22.27-.33.61-.34.96"/></g><g id="ARC-114"><path class="cls-1" d="m40.29,158.41c-.28.23-.48.54-.59.88"/></g><g id="ARC-115"><path class="cls-1" d="m40.34,155.67c-.36-.29-.88-.24-1.18.12-.17.2-.23.47-.16.73"/></g><g id="ARC-116"><path class="cls-1" d="m40.34,155.67c-.59-.07-1.15.29-1.34.85"/></g><g id="ARC-117"><path class="cls-1" d="m40.6,161.14c-.55-.32-1.22-.36-1.79-.09"/></g><g id="ARC-118"><path class="cls-1" d="m40.6,161.14c-.33-.51-1.01-.66-1.53-.34-.1.07-.19.15-.27.24"/></g><g id="ARC-119"><path class="cls-1" d="m40.05,155.2c-.5-.1-1.01.1-1.3.51"/></g><g id="ARC-120"><path class="cls-1" d="m39.83,159.98c-.4-2.17-1.01-4.3-1.84-6.35"/></g><g id="ARC-121"><path class="cls-1" d="m40.5,162.42c-.47-.73-1.45-.95-2.18-.48-.15.09-.27.21-.38.34"/></g><g id="ARC-122"><path class="cls-1" d="m40.5,162.42c-.78-.46-1.74-.51-2.56-.14"/></g><g id="ARC-123"><path class="cls-1" d="m40.53,161.81c-.7-.41-1.56-.46-2.31-.12"/></g><g id="ARC-124"><path class="cls-1" d="m40.53,161.81c-.35-.66-1.17-.91-1.83-.55-.19.1-.36.25-.48.43"/></g><g id="ARC-125"><path class="cls-1" d="m40.05,155.2c-.33-.29-.83-.26-1.11.07-.11.12-.17.27-.19.43"/></g><g id="ARC-126"><path class="cls-1" d="m38.84,162.28c0-.09-.05-.17-.13-.22"/></g><g id="ARC-127"><path class="cls-1" d="m39.42,161.71c-.03-.08-.05-.16-.08-.24"/></g><g id="ARC-128"><path class="cls-1" d="m39.2,161.1c-.02-.06-.04-.11-.07-.17"/></g><g id="ARC-129"><path class="cls-1" d="m38.18,163.02c-.28.07-.45.35-.38.63.04.16.15.29.3.35"/></g><g id="ARC-130"><path class="cls-1" d="m38.18,163.02c-.25.27-.29.68-.08.98"/></g><g id="ARC-131"><path class="cls-1" d="m38.1,164c-.27.03-.46.28-.43.55.02.17.13.32.28.39"/></g><g id="ARC-132"><path class="cls-1" d="m38.1,164c-.23.26-.28.62-.15.94"/></g><g id="ARC-133"><path class="cls-1" d="m38.52,161.83c0-.08,0-.16-.05-.24"/></g><g id="ARC-134"><path class="cls-1" d="m38.49,161.84c-.11-.24-.4-.33-.63-.22-.05.03-.1.06-.14.1"/></g><g id="LINE"><line class="cls-1" x1="37.57" y1="157.48" x2="37.86" y2="157.67"/></g><g id="ARC-135"><path class="cls-1" d="m38.38,159.38c-.11-.15-.25-.27-.42-.36"/></g><g id="ARC-136"><path class="cls-1" d="m38.39,161.49c-.16-.15-.42-.14-.57.02-.05.06-.09.13-.1.21"/></g><g id="ARC-137"><path class="cls-1" d="m38.36,162.13c-.06.09-.07.2-.01.29"/></g><g id="ARC-138"><path class="cls-1" d="m38.52,155.02c-.34-.03-.67.15-.84.45"/></g><g id="ARC-139"><path class="cls-1" d="m38.52,155.02c-.19-.2-.5-.2-.7-.02-.12.12-.18.3-.14.46"/></g><g id="ARC-140"><path class="cls-1" d="m38.08,153.85c-.16-.06-.34.02-.41.18-.03.09-.03.18.02.27"/></g><g id="ARC-141"><path class="cls-1" d="m38.08,153.85c-.2.06-.36.23-.39.44"/></g><g id="ARC-142"><path class="cls-1" d="m38.26,154.32c-.22.04-.41.17-.53.36"/></g><g id="ARC-143"><path class="cls-1" d="m38.26,154.32c-.17-.1-.39-.04-.49.13-.04.07-.06.15-.04.23"/></g><g id="ARC-144"><path class="cls-1" d="m38.75,155.7c-.14-.26-.47-.36-.74-.22-.17.09-.28.26-.28.45"/></g><g id="ARC-145"><path class="cls-1" d="m38.75,155.7c-.36-.13-.75-.04-1.02.23"/></g><g id="ARC-146"><path class="cls-1" d="m38.84,162.28c-.13-.11-.33-.09-.44.04-.03.03-.05.07-.06.11"/></g><g id="ARC-147"><path class="cls-1" d="m39.25,157.41c-.2-.47-.75-.69-1.22-.49-.27.11-.47.35-.54.63"/></g><g id="ARC-148"><path class="cls-1" d="m39.25,157.41c-.54-.37-1.28-.32-1.76.14"/></g><g id="ARC-149"><path class="cls-1" d="m39,156.52c-.49-.33-1.15-.28-1.58.12"/></g><g id="ARC-150"><path class="cls-1" d="m38.82,158.66c-.05-.27-.31-.44-.58-.39-.17.03-.31.15-.37.31"/></g><g id="ARC-151"><path class="cls-1" d="m38.82,158.66c-.27-.21-.64-.24-.95-.08"/></g><g id="ARC-152"><path class="cls-1" d="m39.32,159.47c-.27-.21-.64-.24-.95-.08"/></g><g id="ARC-153"><path class="cls-1" d="m39.32,159.47c-.05-.27-.31-.44-.58-.39-.17.03-.31.15-.37.31"/></g><g id="ARC-154"><path class="cls-1" d="m39.08,160.8c-.26-.63-.57-1.23-.93-1.8"/></g><g id="ARC-155"><path class="cls-1" d="m38.71,153.75c-.07-.17-.27-.24-.44-.17-.11.05-.18.15-.2.27"/></g><g id="ARC-156"><path class="cls-1" d="m38.71,153.75c-.22-.05-.44,0-.63.11"/></g><g id="ARC-157"><path class="cls-1" d="m39.05,154.11c-.28-.03-.57.04-.79.21"/></g><g id="ARC-158"><path class="cls-1" d="m39.05,154.11c-.23-.17-.55-.13-.73.09-.03.04-.05.07-.07.12"/></g><g id="ARC-159"><path class="cls-1" d="m39.64,160.04c-.27-.21-.64-.24-.95-.08"/></g><g id="ARC-160"><path class="cls-1" d="m39.64,160.04c-.05-.27-.31-.44-.58-.39-.17.03-.31.15-.37.31"/></g><g id="ARC-161"><path class="cls-1" d="m39.56,154.36c-.46-.05-.89.22-1.04.66"/></g><g id="ARC-162"><path class="cls-1" d="m39.56,154.36c-.28-.23-.69-.18-.91.09-.13.16-.18.37-.13.57"/></g><g id="ARC-163"><path class="cls-1" d="m40.35,166.95c.05-1.57-.01-3.14-.19-4.7"/></g><g id="ARC-164"><path class="cls-1" d="m40.04,161.29c-.02-.13-.04-.25-.06-.38"/></g><g id="ARC-165"><path class="cls-1" d="m39.88,160.24c0-.05-.02-.1-.03-.15"/></g><g id="ARC-166"><path class="cls-1" d="m39.95,160.67c-.01-.07-.02-.15-.04-.22"/></g><g id="ARC-167"><path class="cls-1" d="m40.14,162.02c-.02-.14-.03-.28-.05-.42"/></g><g id="ARC-168"><path class="cls-1" d="m45.76,161.19c-.49-.54-1.24-.74-1.93-.52"/></g><g id="ARC-169"><path class="cls-1" d="m45.76,161.19c-.13-.61-.74-.99-1.34-.86-.23.05-.43.17-.59.34"/></g><g id="ARC-170"><path class="cls-1" d="m44.76,160.07c-.25-.28-.67-.34-.99-.13"/></g><g id="ARC-171"><path class="cls-1" d="m43.77,159.94c.33.07.66.11.99.13"/></g><g id="ARC-172"><path class="cls-1" d="m46.96,159.29c-1.73.31-3.29,1.24-4.38,2.62"/></g><g id="ARC-173"><path class="cls-1" d="m44.52,163.53c-.44-.55-1.07-.92-1.77-1.02"/></g><g id="ARC-174"><path class="cls-1" d="m44.52,163.53c-.17-.85-1.01-1.41-1.86-1.23-.03,0-.07.02-.1.02"/></g><g id="ARC-175"><path class="cls-1" d="m44.7,162.45c-.49-.61-1.29-.86-2.04-.64"/></g><g id="ARC-176"><path class="cls-1" d="m44.7,162.45c-.02-.63-.55-1.11-1.18-1.09-.34.01-.66.18-.86.45"/></g><g id="ARC-177"><path class="cls-1" d="m44.9,161.91c-.27-.6-.93-.93-1.57-.8"/></g><g id="ARC-178"><path class="cls-1" d="m44.9,161.91c.07-.51-.28-.98-.79-1.05-.29-.04-.58.05-.79.26"/></g><g id="ARC-179"><path class="cls-1" d="m44.07,155.33c.04-.18-.08-.35-.25-.39-.12-.03-.24.02-.32.11"/></g><g id="ARC-180"><path class="cls-1" d="m44.07,155.33c-.15-.16-.35-.27-.57-.29"/></g><g id="ARC-181"><path class="cls-1" d="m43.04,155.83c-.32-.26-.79-.21-1.05.11,0,0,0,0,0,.01"/></g><g id="ARC-182"><path class="cls-1" d="m43.04,155.83c-.36-.08-.73-.04-1.06.12"/></g><g id="ARC-183"><path class="cls-1" d="m42.19,162.46c-.86,1.33-1.25,2.91-1.12,4.49"/></g><g id="ARC-184"><path class="cls-1" d="m43.28,163.96c-.07-.13-.23-.18-.37-.11-.03.02-.06.04-.08.06"/></g><g id="ARC-185"><path class="cls-1" d="m43.28,163.96c-.14-.04-.29-.06-.44-.05"/></g><g id="ARC-186"><path class="cls-1" d="m42.57,164.13c-.12-.24-.41-.34-.64-.22-.05.03-.1.06-.14.1"/></g><g id="ARC-187"><path class="cls-1" d="m42.57,164.13c-.24-.12-.52-.16-.78-.12"/></g><g id="ARC-188"><path class="cls-1" d="m43.28,163.96c-.02.18,0,.36.04.53"/></g><g id="ARC-189"><path class="cls-1" d="m43.32,164.48c.07-.17.06-.37-.04-.53"/></g><g id="ARC-190"><path class="cls-1" d="m42.9,164.6c.12-.11.13-.29.02-.41-.09-.1-.23-.12-.35-.06"/></g><g id="ARC-191"><path class="cls-1" d="m42.9,164.6c.05-.21-.09-.41-.29-.46-.01,0-.03,0-.04,0"/></g><g id="ARC-192"><path class="cls-1" d="m42.11,164.82c.14-.1.17-.3.07-.44-.05-.08-.14-.12-.23-.13"/></g><g id="ARC-193"><path class="cls-1" d="m42.11,164.82c.06-.2,0-.43-.16-.57"/></g><g id="ARC-194"><path class="cls-1" d="m41.94,164.26c-.03-.18-.2-.3-.38-.27-.12.02-.22.11-.25.22"/></g><g id="ARC-195"><path class="cls-1" d="m41.94,164.26c-.2-.1-.43-.11-.64-.05"/></g><g id="ARC-196"><path class="cls-1" d="m42.66,161.81c-.1-.1-.23-.16-.38-.15"/></g><g id="ARC-197"><path class="cls-1" d="m42.66,161.81c-.03-.21-.23-.36-.44-.34"/></g><g id="ARC-198"><path class="cls-1" d="m43.33,161.11c-.39-.06-.78-.02-1.15.11"/></g><g id="ARC-199"><path class="cls-1" d="m43.33,161.11c-.26-.3-.71-.33-1-.07-.06.05-.11.11-.14.17"/></g><g id="ARC-200"><path class="cls-1" d="m43.03,160.35c-.37-.13-.78-.15-1.16-.07"/></g><g id="ARC-201"><path class="cls-1" d="m40.93,159.27s-.01.05-.02.07"/></g><g id="ARC-202"><path class="cls-1" d="m42.04,157.96c-.2-.56-.76-.91-1.35-.83"/></g><g id="ARC-203"><path class="cls-1" d="m42.04,157.96c.11-.45-.17-.9-.62-1-.26-.06-.52,0-.72.17"/></g><g id="ARC-204"><path class="cls-1" d="m42.45,157c-.04-.3-.31-.51-.61-.47-.19.02-.35.15-.43.32"/></g><g id="ARC-205"><path class="cls-1" d="m42.45,157c-.29-.25-.69-.3-1.04-.15"/></g><g id="ARC-206"><path class="cls-1" d="m42.67,156.54c-.26-.22-.63-.27-.94-.13"/></g><g id="ARC-207"><path class="cls-1" d="m42.67,156.54c-.04-.27-.28-.46-.55-.42-.17.02-.32.13-.39.29"/></g><g id="ARC-208"><path class="cls-1" d="m41.99,160.47c-.35-.28-.82-.38-1.26-.25"/></g><g id="ARC-209"><path class="cls-1" d="m41.99,160.47c-.18-.4-.65-.57-1.05-.39-.08.04-.15.08-.21.14"/></g><g id="ARC-210"><path class="cls-1" d="m41.76,160c-.27-.2-.6-.31-.93-.28"/></g><g id="ARC-211"><path class="cls-1" d="m41.76,160c-.12-.32-.47-.48-.78-.37-.05.02-.1.05-.15.08"/></g><g id="ARC-212"><path class="cls-1" d="m41.22,159.29c0-.08-.07-.15-.15-.15-.07,0-.13.05-.14.13"/></g><g id="ARC-213"><path class="cls-1" d="m41.56,159.69c-.04-.18-.17-.33-.34-.41"/></g><g id="ARC-214"><path class="cls-1" d="m41.22,159.29c.09.15.21.29.34.41"/></g><g id="ARC-215"><path class="cls-1" d="m41.22,159.29c-.14.05-.27.12-.39.22"/></g><g id="ARC-216"><path class="cls-1" d="m41.22,159.29c-.13-.07-.3-.01-.36.12-.02.03-.02.06-.03.1"/></g><g id="ARC-217"><path class="cls-1" d="m41.09,159.14c-.14.05-.27.12-.39.22"/></g><g id="ARC-218"><path class="cls-1" d="m41.41,159.8c-.02.07-.04.14-.06.21"/></g><g id="ARC-219"><path class="cls-1" d="m41.31,160.17c-.02.08-.04.17-.07.25"/></g><g id="ARC-220"><path class="cls-1" d="m41.19,160.62c-.02.1-.05.21-.07.31"/></g><g id="ARC-221"><path class="cls-1" d="m41.07,161.2c-.02.11-.04.21-.06.32"/></g><g id="ARC-222"><path class="cls-1" d="m40.96,161.73c-.02.14-.05.28-.07.42"/></g><g id="ARC-223"><path class="cls-1" d="m41.87,161.79c-.01.06,0,.12,0,.18"/></g><g id="ARC-224"><path class="cls-1" d="m41.96,161.82s-.07.1-.09.15"/></g><g id="ARC-225"><path class="cls-1" d="m42.05,161.53s0,0,0,0"/></g><g id="ARC-226"><path class="cls-1" d="m42.24,162.48s-.04,0-.07,0"/></g><g id="ARC-227"><path class="cls-1" d="m42.48,162.04c-.04.05-.08.1-.12.16"/></g><g id="ARC-228"><path class="cls-1" d="m43.35,160.23c-.45-.4-1.11-.45-1.61-.11"/></g><g id="ARC-229"><path class="cls-1" d="m43.21,155.53c-.2-.1-.43-.11-.64-.02"/></g><g id="ARC-230"><path class="cls-1" d="m43.21,155.53c-.08-.18-.29-.26-.47-.18-.07.03-.13.09-.17.16"/></g><g id="ARC-231"><path class="cls-1" d="m43.5,155.05c-.86,1.4-1.53,2.9-2.01,4.47"/></g><g id="ARC-232"><path class="cls-1" d="m43.98,156.18c-.19-.33-.58-.48-.94-.35"/></g><g id="ARC-233"><path class="cls-1" d="m43.98,155.83c-.21-.19-.48-.3-.76-.3"/></g><g id="ARC-234"><path class="cls-1" d="m43.98,155.83c-.08-.27-.37-.43-.64-.35-.04.01-.08.03-.12.05"/></g><g id="ARC-235"><path class="cls-1" d="m43.83,160.68c-.26-.22-.63-.27-.94-.13"/></g><g id="ARC-236"><path class="cls-1" d="m43.83,160.68c-.04-.27-.28-.46-.55-.42-.17.02-.32.13-.39.29"/></g><g id="ARC-237"><path class="cls-1" d="m43.56,159.49c-.64-.34-1.43-.29-2.02.13"/></g><g id="ARC-238"><path class="cls-1" d="m43.56,159.49c-.27-.57-.94-.81-1.51-.54-.25.12-.45.32-.56.58"/></g><g id="ARC-239"><path class="cls-1" d="m43.52,158.79c-.49-.45-1.22-.5-1.76-.12"/></g><g id="ARC-240"><path class="cls-1" d="m43.52,158.79c-.13-.5-.64-.79-1.13-.66-.28.07-.51.28-.62.54"/></g><g id="ARC-241"><path class="cls-1" d="m43.62,158.06c-.12-.45-.57-.71-1.02-.6-.25.07-.46.25-.56.49"/></g><g id="ARC-242"><path class="cls-1" d="m43.62,158.06c-.44-.4-1.1-.45-1.58-.11"/></g><g id="ARC-243"><path class="cls-1" d="m43.9,156.62c-.34-.31-.85-.35-1.23-.08"/></g><g id="ARC-244"><path class="cls-1" d="m43.9,156.62c-.09-.35-.45-.55-.79-.46-.2.05-.36.19-.44.38"/></g><g id="ARC-245"><path class="cls-1" d="m43.8,157.36c-.09-.43-.52-.69-.94-.6-.16.04-.3.12-.41.24"/></g><g id="ARC-246"><path class="cls-1" d="m43.8,157.36c-.34-.37-.87-.52-1.35-.36"/></g><g id="ARC-247"><path class="cls-1" d="m43.04,155.83c.31.14.62.25.94.35"/></g><g id="ARC-248"><path class="cls-1" d="m43.5,155.05c-.09-.15-.29-.19-.43-.1-.08.05-.13.13-.14.22"/></g><g id="ARC-249"><path class="cls-1" d="m43.5,155.05c-.2-.07-.42-.02-.58.13"/></g><g id="ARC-250"><path class="cls-1" d="m45.65,160.66c-.22-.3-.53-.51-.88-.6"/></g><g id="ARC-251"><path class="cls-1" d="m45.65,160.66c-.07-.41-.46-.68-.87-.6,0,0,0,0-.01,0"/></g><g id="ARC-252"><path class="cls-1" d="m45.47,159.75c-.2-.1-.43-.11-.64-.05"/></g><g id="ARC-253"><path class="cls-1" d="m45.47,159.75c-.03-.18-.2-.3-.38-.27-.12.02-.22.11-.25.22"/></g><g id="ARC-254"><path class="cls-1" d="m45.64,160.31c.06-.2,0-.43-.16-.57"/></g><g id="ARC-255"><path class="cls-1" d="m45.64,160.31c.14-.1.17-.3.07-.44-.05-.08-.14-.12-.23-.13"/></g><g id="ARC-256"><path class="cls-1" d="m46.58,159.94c.05-.21-.09-.41-.29-.46-.01,0-.03,0-.04,0"/></g><g id="ARC-257"><path class="cls-1" d="m46.58,159.94c.12-.11.13-.29.02-.41-.09-.1-.23-.12-.35-.06"/></g><g id="ARC-258"><path class="cls-1" d="m47,159.82c.07-.17.06-.37-.04-.53"/></g><g id="ARC-259"><path class="cls-1" d="m46.96,159.29c-.02.18,0,.36.04.53"/></g><g id="ARC-260"><path class="cls-1" d="m46.24,159.47c-.24-.12-.52-.16-.78-.12"/></g><g id="ARC-261"><path class="cls-1" d="m46.24,159.47c-.12-.24-.41-.34-.64-.22-.05.03-.1.06-.14.1"/></g><g id="ARC-262"><path class="cls-1" d="m46.96,159.29c-.14-.04-.29-.06-.44-.05"/></g><g id="ARC-263"><path class="cls-1" d="m46.96,159.29c-.07-.13-.23-.18-.37-.11-.03.02-.06.04-.08.06"/></g><g id="LWPOLYLINE-14"><polygon class="cls-1" points="43.53 167.1 42.94 169.45 43.92 170.53 45.29 168.77 43.53 167.1"/></g><g id="LWPOLYLINE-15"><polygon class="cls-1" points="56.47 166.42 54.51 168.77 55.49 168.96 56.47 166.42"/></g><g id="ARC-264"><path class="cls-1" d="m63.56,163.36c-.28.32-.36.78-.19,1.17"/></g><g id="ARC-265"><path class="cls-1" d="m63.56,163.36c-.34.04-.58.35-.54.68.02.21.16.4.36.49"/></g><g id="ARC-266"><path class="cls-1" d="m62.2,162.3c-.22-.05-.44.09-.5.31-.03.15.01.3.13.4"/></g><g id="ARC-267"><path class="cls-1" d="m62.2,162.3c-.21.18-.34.44-.37.71"/></g><g id="ARC-268"><path class="cls-1" d="m61.83,163.01c-.18.11-.24.35-.13.54.06.1.16.17.28.18"/></g><g id="ARC-269"><path class="cls-1" d="m61.83,163.01c-.1.25-.04.53.15.72"/></g><g id="ARC-270"><path class="cls-1" d="m62.55,163.06c-.12.25-.14.54-.04.8"/></g><g id="ARC-271"><path class="cls-1" d="m62.55,163.06c-.23.09-.33.35-.24.58.04.09.11.17.2.22"/></g><g id="ARC-272"><path class="cls-1" d="m63.66,162.13c-.32.34-.36.85-.1,1.23"/></g><g id="ARC-273"><path class="cls-1" d="m63.66,162.13c-.35.09-.56.44-.48.79.05.2.19.36.37.44"/></g><g id="ARC-274"><path class="cls-1" d="m62.94,162.11c-.25.25-.39.59-.39.95"/></g><g id="ARC-275"><path class="cls-1" d="m62.94,162.11c-.34.09-.55.45-.45.79.01.05.04.11.06.16"/></g><g id="ARC-276"><path class="cls-1" d="m63.09,160.51c-.93-.27-1.94.04-2.55.8"/></g><g id="ARC-277"><path class="cls-1" d="m63.42,159.63c-.39-.18-.85-.11-1.18.17"/></g><g id="ARC-278"><path class="cls-1" d="m63.42,159.63c-.14-.31-.5-.45-.81-.32-.2.09-.34.27-.36.48"/></g><g id="ARC-279"><path class="cls-1" d="m62.54,159.23c-.46-.16-.95-.2-1.43-.13"/></g><g id="ARC-280"><path class="cls-1" d="m62.54,159.23c-.25-.42-.79-.56-1.22-.31-.08.05-.15.11-.22.18"/></g><g id="ARC-281"><path class="cls-1" d="m63.27,156.58c-.53-.57-1.42-.61-1.99-.09-.21.2-.36.45-.42.73"/></g><g id="ARC-282"><path class="cls-1" d="m63.27,156.58c-.86-.28-1.8-.02-2.41.65"/></g><g id="ARC-283"><path class="cls-1" d="m62.7,155.8c-.81-.17-1.62.24-1.96.99"/></g><g id="ARC-284"><path class="cls-1" d="m62.18,155.17c-.6-.02-1.19.22-1.61.65"/></g><g id="ARC-285"><path class="cls-1" d="m62.86,156.99c-.8-.08-1.51.51-1.59,1.31,0,0,0,.02,0,.02"/></g><g id="ARC-286"><path class="cls-1" d="m63.38,156.74c-.55-.83-1.18-1.6-1.88-2.31"/></g><g id="LINE-2"><line class="cls-1" x1="62.89" y1="155.21" x2="63.26" y2="155.45"/></g><g id="ARC-287"><path class="cls-1" d="m62.83,155.22c-.24-.08-.48-.13-.73-.15"/></g><g id="ARC-288"><path class="cls-1" d="m62.94,154.96c-.28-.11-.6-.07-.85.11"/></g><g id="ARC-289"><path class="cls-1" d="m62.02,154.64c-.04-.18-.22-.3-.4-.26-.04,0-.08.03-.12.05"/></g><g id="ARC-290"><path class="cls-1" d="m62.02,154.64c-.16-.1-.34-.17-.52-.21"/></g><g id="ARC-291"><path class="cls-1" d="m61.15,154.99c.15-.17.27-.35.36-.56"/></g><g id="ARC-292"><path class="cls-1" d="m61.5,154.43c-.2.12-.33.33-.36.56"/></g><g id="ARC-293"><path class="cls-1" d="m60.03,158.64c-.38-.36-.98-.35-1.35.04-.16.17-.25.39-.26.62"/></g><g id="ARC-294"><path class="cls-1" d="m60.03,158.64c-.6-.02-1.19.22-1.61.65"/></g><g id="ARC-295"><path class="cls-1" d="m58.41,158.94c.05-.22.07-.44.05-.66"/></g><g id="ARC-296"><path class="cls-1" d="m59.02,158.21c-.19-.01-.38.01-.56.06"/></g><g id="ARC-297"><path class="cls-1" d="m59.02,158.21c-.12-.14-.34-.16-.48-.03-.03.03-.06.06-.08.1"/></g><g id="ARC-298"><path class="cls-1" d="m58.46,158.28c-.12.2-.14.44-.05.66"/></g><g id="ARC-299"><path class="cls-1" d="m61.11,159.09c-.46-.45-1.19-.45-1.64.01-.26.26-.37.62-.32.98"/></g><g id="ARC-300"><path class="cls-1" d="m62.24,159.79c-.53-.57-1.42-.61-1.99-.09-.21.2-.36.45-.42.73"/></g><g id="ARC-301"><path class="cls-1" d="m61.11,159.09c-.81-.17-1.62.24-1.96.99"/></g><g id="ARC-302"><path class="cls-1" d="m61.1,158.57c-.35-.15-.75-.12-1.07.07"/></g><g id="ARC-303"><path class="cls-1" d="m61.1,158.57c-.11-.29-.43-.44-.72-.33-.18.07-.31.21-.35.4"/></g><g id="ARC-304"><path class="cls-1" d="m63.09,160.51c-.47-.63-1.36-.75-1.98-.28-.34.26-.55.65-.56,1.08"/></g><g id="ARC-305"><path class="cls-1" d="m62.7,155.8c-.46-.45-1.19-.45-1.64.01-.26.26-.37.62-.32.98"/></g><g id="ARC-306"><path class="cls-1" d="m62.18,155.17c-.38-.36-.98-.35-1.35.04-.16.17-.25.39-.26.62"/></g><g id="ARC-307"><path class="cls-1" d="m62.24,159.79c-.86-.28-1.8-.02-2.41.65"/></g><g id="LWPOLYLINE-16"><polyline class="cls-1" points="71.41 171.06 71.28 170.63 70.6 168.87 69.81 170.34 70.08 171.06"/></g><g id="LWPOLYLINE-17"><polyline class="cls-1" points="67.16 166.81 67.07 165.92 69.03 165.63 69.52 164.75 70.5 163.87 71.87 164.75 72.85 166.22 73.64 165.83 73.93 167 73.73 168.77 72.66 170.24 72.77 171.06"/></g><g id="LWPOLYLINE-18"><polyline class="cls-1" points="68.46 171.06 68.54 169.94 67.36 169.16 67.16 166.81"/></g><g id="ARC-308"><path class="cls-1" d="m64.48,161.21c-.16-.14-.41-.12-.55.05-.03.04-.06.09-.07.14"/></g><g id="ARC-309"><path class="cls-1" d="m63.88,161.02c-.08.11-.09.25-.02.36"/></g><g id="ARC-310"><path class="cls-1" d="m70.04,163.3c-1.87-.07-3.44,1.39-3.5,3.26,0,.16,0,.32.02.48"/></g><g id="ARC-311"><path class="cls-1" d="m68.67,161.44c-1.07,1.66-1.56,3.64-1.4,5.61"/></g><g id="ARC-312"><path class="cls-1" d="m69.43,161.19c-.8-.64-1.85-.85-2.83-.57"/></g><g id="ARC-313"><path class="cls-1" d="m69.7,162.01c-.45-.99-1.62-1.43-2.61-.98-.2.09-.38.21-.53.36"/></g><g id="ARC-314"><path class="cls-1" d="m69.7,162.01c-.89-.71-2.06-.94-3.15-.63"/></g><g id="ARC-315"><path class="cls-1" d="m68.36,163.68c-.25-.12-.54-.14-.8-.06"/></g><g id="ARC-316"><path class="cls-1" d="m68.36,163.68c-.04-.22-.26-.37-.48-.33-.15.03-.27.13-.32.28"/></g><g id="ARC-317"><path class="cls-1" d="m67.02,161.28c-.27,1.91-.31,3.84-.12,5.76"/></g><g id="ARC-318"><path class="cls-1" d="m66.37,167.05c.06-1.96-.01-3.92-.23-5.87"/></g><g id="ARC-319"><path class="cls-1" d="m65.91,167.05c.22-2.05.03-4.12-.56-6.1"/></g><g id="ARC-320"><path class="cls-1" d="m64.48,161.21c0-.11-.07-.21-.16-.27"/></g><g id="ARC-321"><path class="cls-1" d="m64.08,160.65c.01-.1,0-.21-.06-.3"/></g><g id="ARC-322"><path class="cls-1" d="m67.14,160.52c-.03.18-.06.35-.09.53"/></g><g id="ARC-323"><path class="cls-1" d="m66.11,160.89c-.02-.18-.04-.35-.07-.52"/></g><g id="ARC-324"><path class="cls-1" d="m69.03,160.91c-.05.07-.1.13-.14.2"/></g><g id="ARC-325"><path class="cls-1" d="m68.73,161.46s-.06,0-.08,0"/></g><g id="ARC-326"><path class="cls-1" d="m68.49,160.27s0,0,0,0"/></g><g id="ARC-327"><path class="cls-1" d="m68.39,160.63c-.05.06-.09.12-.11.19"/></g><g id="ARC-328"><path class="cls-1" d="m68.27,160.6c-.01.07-.01.15,0,.22"/></g><g id="ARC-329"><path class="cls-1" d="m69.26,160.62c-.12-.13-.29-.2-.47-.19"/></g><g id="ARC-330"><path class="cls-1" d="m68.57,164.39c.07-.26,0-.53-.21-.71"/></g><g id="ARC-331"><path class="cls-1" d="m68.57,164.39c.17-.13.21-.37.09-.55-.07-.09-.18-.15-.29-.16"/></g><g id="ARC-332"><path class="cls-1" d="m69.56,164.11c.06-.26-.11-.52-.37-.57-.02,0-.03,0-.05,0"/></g><g id="ARC-333"><path class="cls-1" d="m69.56,164.11c.15-.13.16-.36.02-.51-.11-.12-.29-.15-.44-.07"/></g><g id="ARC-334"><path class="cls-1" d="m70.09,163.96c.09-.22.07-.46-.05-.66"/></g><g id="ARC-335"><path class="cls-1" d="m70.04,163.3c-.02.22,0,.44.05.66"/></g><g id="ARC-336"><path class="cls-1" d="m69.15,163.53c-.3-.15-.65-.2-.98-.14"/></g><g id="ARC-337"><path class="cls-1" d="m69.15,163.53c-.15-.3-.51-.42-.8-.27-.07.03-.13.08-.18.13"/></g><g id="ARC-338"><path class="cls-1" d="m70.04,163.3c-.18-.05-.37-.08-.56-.06"/></g><g id="ARC-339"><path class="cls-1" d="m70.04,163.3c-.09-.17-.29-.23-.46-.14-.04.02-.07.05-.1.08"/></g><g id="LWPOLYLINE-19"><polygon class="cls-1" points="70.01 166.12 68.73 169.26 69.71 168.87 70.4 166.51 70.01 166.12"/></g><g id="ARC-340"><path class="cls-1" d="m71.81,161.42c-.61-.76-1.62-1.07-2.55-.8"/></g><g id="ARC-341"><path class="cls-1" d="m71.58,162.78c-.22-1.07-1.26-1.76-2.33-1.54-.04,0-.09.02-.13.03"/></g><g id="ARC-342"><path class="cls-1" d="m71.58,162.78c-.55-.69-1.34-1.15-2.21-1.28"/></g><g id="ARC-343"><path class="cls-1" d="m66.6,160.62c-.44-.82-1.46-1.13-2.28-.69-.24.13-.45.31-.6.54"/></g><g id="ARC-344"><path class="cls-1" d="m66.6,160.62c-.88-.52-1.96-.57-2.88-.15"/></g><g id="ARC-345"><path class="cls-1" d="m65.09,157.69c-.06-.33-.39-.55-.72-.49-.21.04-.39.19-.46.39"/></g><g id="ARC-346"><path class="cls-1" d="m65.09,157.69c-.34-.26-.8-.3-1.18-.1"/></g><g id="ARC-347"><path class="cls-1" d="m65.38,151.31c-.57-.06-1.12.28-1.3.82"/></g><g id="ARC-348"><path class="cls-1" d="m70.31,152.17c-1.07,1.75-1.92,3.63-2.51,5.59"/></g><g id="ARC-349"><path class="cls-1" d="m68.42,158.94c-.22-.5-.81-.72-1.31-.49-.1.04-.19.1-.27.18"/></g><g id="ARC-350"><path class="cls-1" d="m68.42,158.94c-.44-.35-1.03-.47-1.57-.31"/></g><g id="ARC-351"><path class="cls-1" d="m68.83,160.46c-.65-.4-1.38-.63-2.14-.67"/></g><g id="ARC-352"><path class="cls-1" d="m68.65,159.59c-.27-.6-.97-.86-1.57-.59-.12.05-.23.13-.32.21"/></g><g id="ARC-353"><path class="cls-1" d="m68.65,159.59c-.53-.42-1.24-.57-1.89-.38"/></g><g id="ARC-354"><path class="cls-1" d="m68.83,160.46c-.24-.72-1.02-1.12-1.75-.88-.14.05-.28.12-.4.21"/></g><g id="ARC-355"><path class="cls-1" d="m69.43,161.19c-.4-.89-1.46-1.29-2.35-.89-.18.08-.34.19-.48.32"/></g><g id="ARC-356"><path class="cls-1" d="m68.14,158.36c-.14-.4-.58-.6-.98-.46-.07.02-.13.06-.19.1"/></g><g id="ARC-357"><path class="cls-1" d="m68.14,158.36c-.33-.26-.75-.38-1.17-.36"/></g><g id="ARC-358"><path class="cls-1" d="m69,154.6c-.36-.31-.86-.38-1.29-.18"/></g><g id="ARC-359"><path class="cls-1" d="m69,154.6c-.05-.37-.39-.63-.76-.58-.24.03-.44.18-.53.4"/></g><g id="ARC-360"><path class="cls-1" d="m68.48,155.8c.13-.56-.22-1.12-.78-1.26-.32-.07-.65,0-.91.21"/></g><g id="ARC-361"><path class="cls-1" d="m68.48,155.8c-.25-.7-.95-1.13-1.69-1.04"/></g><g id="ARC-362"><path class="cls-1" d="m68.13,156.7c-.28-.78-1.05-1.26-1.87-1.16"/></g><g id="ARC-363"><path class="cls-1" d="m68.13,156.7c.15-.62-.24-1.25-.87-1.39-.35-.08-.73,0-1.01.24"/></g><g id="ARC-364"><path class="cls-1" d="m67.8,157.76c.16-.77-.32-1.52-1.09-1.68-.34-.07-.69-.02-.99.15"/></g><g id="ARC-365"><path class="cls-1" d="m70.39,157.72c-.33-.71-1.18-1.01-1.89-.68-.31.15-.56.41-.7.73"/></g><g id="ARC-366"><path class="cls-1" d="m70.39,157.72c-.81-.43-1.79-.37-2.53.16"/></g><g id="ARC-367"><path class="cls-1" d="m66,152.35c-.62-.13-1.26.12-1.63.63"/></g><g id="ARC-368"><path class="cls-1" d="m66,152.35c-.41-.36-1.03-.32-1.39.09-.13.15-.22.34-.24.54"/></g><g id="ARC-369"><path class="cls-1" d="m66.85,158.63c-.4-.21-.88-.25-1.31-.1"/></g><g id="ARC-370"><path class="cls-1" d="m66.85,158.63c-.17-.38-.62-.54-.99-.37-.13.06-.24.15-.32.27"/></g><g id="ARC-371"><path class="cls-1" d="m67.04,157.69c-.42,1.88-.57,3.8-.46,5.72"/></g><g id="ARC-372"><path class="cls-1" d="m66.76,159.21c-.59-.34-1.3-.38-1.92-.1"/></g><g id="ARC-373"><path class="cls-1" d="m66.76,159.21c-.35-.55-1.09-.71-1.64-.36-.11.07-.21.16-.29.26"/></g><g id="ARC-374"><path class="cls-1" d="m66.68,159.79c-.41-.64-1.27-.83-1.91-.42-.13.08-.24.18-.33.3"/></g><g id="ARC-375"><path class="cls-1" d="m66.68,159.79c-.68-.4-1.52-.45-2.24-.12"/></g><g id="ARC-376"><path class="cls-1" d="m65.21,160.5c-.03-.1-.07-.2-.1-.31"/></g><g id="ARC-377"><path class="cls-1" d="m67.27,159.86c-.03.13-.05.27-.08.4"/></g><g id="ARC-378"><path class="cls-1" d="m67.43,159.13c-.03.13-.06.26-.09.39"/></g><g id="ARC-379"><path class="cls-1" d="m67.57,158.58c-.03.11-.05.21-.08.32"/></g><g id="ARC-380"><path class="cls-1" d="m65.87,159.2c-.01-.09-.03-.18-.04-.27"/></g><g id="ARC-381"><path class="cls-1" d="m65.78,158.66c-.01-.06-.02-.13-.03-.19"/></g><g id="ARC-382"><path class="cls-1" d="m65.99,159.97c-.02-.16-.05-.32-.07-.48"/></g><g id="ARC-383"><path class="cls-1" d="m66.36,152.95c-.45-.36-1.11-.3-1.47.15-.21.25-.28.59-.2.91"/></g><g id="ARC-384"><path class="cls-1" d="m66.3,156.38c-.35.29-.6.67-.74,1.1"/></g><g id="ARC-385"><path class="cls-1" d="m65.98,156.27c-.27.34-.42.77-.42,1.2"/></g><g id="ARC-386"><path class="cls-1" d="m66.86,153.94c-.5-.4-1.23-.33-1.63.17-.23.28-.31.66-.23,1.01"/></g><g id="ARC-387"><path class="cls-1" d="m66.86,153.94c-.82-.09-1.59.4-1.86,1.18"/></g><g id="ARC-388"><path class="cls-1" d="m67.3,154.57c-.69-.38-1.55-.12-1.92.56-.2.37-.23.82-.07,1.22"/></g><g id="ARC-389"><path class="cls-1" d="m67.3,154.57c-.96.14-1.75.84-1.99,1.78"/></g><g id="ARC-390"><path class="cls-1" d="m66.36,152.95c-.74-.08-1.43.36-1.67,1.06"/></g><g id="ARC-391"><path class="cls-1" d="m65.48,158.41c-.06-.33-.39-.55-.72-.49-.21.04-.39.19-.46.39"/></g><g id="ARC-392"><path class="cls-1" d="m65.48,158.41c-.34-.26-.8-.3-1.18-.1"/></g><g id="ARC-393"><path class="cls-1" d="m67.69,158.11c-.02.09-.05.17-.07.26"/></g><g id="ARC-394"><path class="cls-1" d="m67.3,157.29c-.18.06-.34.15-.49.27"/></g><g id="ARC-395"><path class="cls-1" d="m67.3,157.29c-.17-.08-.37-.02-.45.15-.02.04-.03.08-.03.12"/></g><g id="ARC-396"><path class="cls-1" d="m67.46,157.47c-.17-.08-.37-.02-.45.15-.02.04-.03.08-.03.12"/></g><g id="ARC-397"><path class="cls-1" d="m67.46,157.47c-.18.06-.34.15-.49.27"/></g><g id="ARC-398"><path class="cls-1" d="m67.46,157.47c.11.19.26.36.43.51"/></g><g id="ARC-399"><path class="cls-1" d="m67.89,157.97c-.05-.23-.21-.41-.43-.51"/></g><g id="ARC-400"><path class="cls-1" d="m67.46,157.47c0-.1-.09-.18-.19-.18-.09,0-.16.07-.18.16"/></g><g id="ARC-401"><path class="cls-1" d="m66.9,157.35c-.25-.09-.53-.07-.77.04"/></g><g id="ARC-402"><path class="cls-1" d="m66.97,157.3c-.25-.21-.63-.17-.83.08,0,0,0,0,0,0"/></g><g id="ARC-403"><path class="cls-1" d="m67.09,157.44s-.01.06-.02.09"/></g><g id="ARC-404"><path class="cls-1" d="m66.97,158c-.39-.23-.87-.25-1.28-.07"/></g><g id="ARC-405"><path class="cls-1" d="m66.97,158c-.24-.37-.72-.47-1.09-.24-.07.05-.14.1-.19.17"/></g><g id="ARC-406"><path class="cls-1" d="m67.55,157.51c-.36-.7-1.05-1.18-1.83-1.28"/></g><g id="ARC-407"><path class="cls-1" d="m71.02,152.53c-.19-.21-.44-.33-.72-.36"/></g><g id="ARC-408"><path class="cls-1" d="m71.02,152.53c.05-.22-.09-.44-.32-.49-.15-.03-.3.02-.4.13"/></g><g id="ARC-409"><path class="cls-1" d="m70.31,152.17c-.25-.09-.53-.03-.72.16"/></g><g id="ARC-410"><path class="cls-1" d="m70.31,152.17c-.12-.18-.36-.24-.54-.12-.1.06-.16.16-.18.28"/></g><g id="ARC-411"><path class="cls-1" d="m73.74,157.7c-.15-.3-.51-.42-.8-.27-.07.03-.13.08-.18.13"/></g><g id="ARC-412"><path class="cls-1" d="m73.74,157.7c-.3-.15-.65-.2-.98-.14"/></g><g id="ARC-413"><path class="cls-1" d="m74.63,157.48c-2.17.38-4.12,1.55-5.48,3.28"/></g><g id="ARC-414"><path class="cls-1" d="m72.98,158.75c.17-.13.21-.37.09-.55-.07-.09-.18-.15-.29-.16"/></g><g id="ARC-415"><path class="cls-1" d="m72.98,158.75c.07-.26,0-.53-.21-.71"/></g><g id="ARC-416"><path class="cls-1" d="m70.65,158.28c.41.08.82.14,1.24.16"/></g><g id="ARC-417"><path class="cls-1" d="m72.99,159.19c-.09-.51-.58-.84-1.09-.75,0,0-.01,0-.02,0"/></g><g id="ARC-418"><path class="cls-1" d="m72.99,159.19c-.27-.37-.66-.64-1.11-.75"/></g><g id="ARC-419"><path class="cls-1" d="m73.13,159.85c-.17-.76-.92-1.24-1.68-1.07-.28.06-.54.21-.73.42"/></g><g id="ARC-420"><path class="cls-1" d="m73.13,159.85c-.61-.67-1.55-.92-2.41-.65"/></g><g id="ARC-421"><path class="cls-1" d="m71.89,158.44c-.32-.35-.84-.42-1.24-.16"/></g><g id="ARC-422"><path class="cls-1" d="m72.78,158.04c-.04-.22-.26-.37-.48-.33-.15.03-.27.13-.32.28"/></g><g id="ARC-423"><path class="cls-1" d="m72.78,158.04c-.25-.12-.54-.14-.8-.06"/></g><g id="ARC-424"><path class="cls-1" d="m70.12,158.65c-.56-.5-1.39-.56-2.01-.14"/></g><g id="ARC-425"><path class="cls-1" d="m70.09,159.75c-.32-.37-.88-.41-1.25-.08-.07.06-.13.14-.18.22"/></g><g id="ARC-426"><path class="cls-1" d="m70.09,159.75c-.48-.07-.97-.03-1.43.13"/></g><g id="ARC-427"><path class="cls-1" d="m69.26,160.62c-.04-.27-.28-.46-.55-.43"/></g><g id="ARC-428"><path class="cls-1" d="m69.95,152.77c-.1-.22-.36-.33-.58-.23-.09.04-.17.11-.22.2"/></g><g id="ARC-429"><path class="cls-1" d="m69.95,152.77c-.25-.12-.54-.13-.8-.03"/></g><g id="ARC-430"><path class="cls-1" d="m69.27,154.03c-.04-.34-.35-.58-.69-.53-.21.03-.4.17-.48.36"/></g><g id="ARC-431"><path class="cls-1" d="m69.27,154.03c-.33-.28-.78-.34-1.18-.17"/></g><g id="ARC-432"><path class="cls-1" d="m69.74,153.15c-.45-.11-.92-.05-1.33.15"/></g><g id="ARC-433"><path class="cls-1" d="m69.74,153.15c-.4-.33-.99-.26-1.32.14,0,0,0,0-.01.01"/></g><g id="ARC-434"><path class="cls-1" d="m70.72,159.2c-.04-.34-.35-.58-.69-.53-.21.03-.4.17-.48.36"/></g><g id="ARC-435"><path class="cls-1" d="m70.72,159.2c-.33-.28-.78-.34-1.18-.17"/></g><g id="ARC-436"><path class="cls-1" d="m72.06,160.75c.09-.63-.35-1.22-.98-1.32-.36-.05-.72.07-.98.32"/></g><g id="ARC-437"><path class="cls-1" d="m72.06,160.75c-.34-.75-1.16-1.16-1.96-.99"/></g><g id="ARC-438"><path class="cls-1" d="m71.81,161.42c-.03-.78-.69-1.39-1.47-1.36-.43.02-.82.22-1.08.56"/></g><g id="ARC-439"><path class="cls-1" d="m69.74,153.15c.38.17.77.31,1.17.43"/></g><g id="ARC-440"><path class="cls-1" d="m70.69,155.06c-.43-.47-1.09-.65-1.69-.45"/></g><g id="ARC-441"><path class="cls-1" d="m70.69,155.06c-.12-.53-.64-.87-1.18-.75-.2.04-.38.15-.51.3"/></g><g id="ARC-442"><path class="cls-1" d="m70.81,154.14c-.11-.43-.56-.69-.99-.58-.25.06-.45.24-.54.48"/></g><g id="ARC-443"><path class="cls-1" d="m70.81,154.14c-.42-.39-1.06-.43-1.54-.1"/></g><g id="ARC-444"><path class="cls-1" d="m70.46,155.93c-.55-.5-1.37-.56-1.98-.13"/></g><g id="ARC-445"><path class="cls-1" d="m70.46,155.93c-.15-.56-.72-.89-1.28-.74-.32.08-.58.31-.7.61"/></g><g id="ARC-446"><path class="cls-1" d="m70.91,153.14c-.1-.34-.46-.54-.8-.44-.05.02-.11.04-.15.07"/></g><g id="ARC-447"><path class="cls-1" d="m70.91,153.14c-.26-.24-.6-.38-.95-.38"/></g><g id="ARC-448"><path class="cls-1" d="m70.91,153.58c-.23-.41-.73-.6-1.17-.43"/></g><g id="ARC-449"><path class="cls-1" d="m70.33,156.85c-.16-.62-.8-.99-1.42-.83-.35.09-.64.34-.78.68"/></g><g id="ARC-450"><path class="cls-1" d="m70.33,156.85c-.61-.56-1.52-.62-2.2-.15"/></g><g id="ARC-451"><path class="cls-1" d="m64.94,159.74c-.03-.07-.06-.14-.08-.21"/></g><g id="ARC-452"><path class="cls-1" d="m69.72,158.79c-.47-.16-.97-.19-1.45-.09"/></g><g id="LWPOLYLINE-20"><line class="cls-1" x1="292.58" y1="177.76" x2="21.02" y2="177.76"/></g><g id="LWPOLYLINE-21"><line class="cls-1" x1="105.65" y1="105.74" x2="103.73" y2="117.21"/></g><g id="LWPOLYLINE-22"><line class="cls-1" x1="105.65" y1="105.74" x2="95.74" y2="120.81"/></g><g id="LWPOLYLINE-23"><line class="cls-1" x1="105.65" y1="105.74" x2="87.92" y2="120.81"/></g><g id="LWPOLYLINE-24"><line class="cls-1" x1="105.65" y1="105.74" x2="81.39" y2="120.81"/></g><g id="LWPOLYLINE-25"><line class="cls-1" x1="105.65" y1="171.9" x2="29.83" y2="171.9"/></g><g id="LWPOLYLINE-26"><line class="cls-1" x1="105.65" y1="175.25" x2="24.78" y2="175.25"/></g><g id="LWPOLYLINE-27"><line class="cls-1" x1="82.54" y1="120.81" x2="82.54" y2="127.51"/></g><g id="LWPOLYLINE-28"><line class="cls-1" x1="78.35" y1="120.81" x2="78.35" y2="127.51"/></g><g id="LWPOLYLINE-29"><line class="cls-1" x1="75" y1="120.81" x2="75" y2="127.51"/></g><g id="LWPOLYLINE-30"><line class="cls-1" x1="73.32" y1="120.81" x2="73.32" y2="127.51"/></g><g id="LWPOLYLINE-31"><line class="cls-1" x1="87.56" y1="120.81" x2="87.56" y2="127.51"/></g><g id="LWPOLYLINE-32"><line class="cls-1" x1="93.42" y1="120.81" x2="93.42" y2="127.51"/></g><g id="LWPOLYLINE-33"><polyline class="cls-1" points="137.97 171.06 137.97 136.22 125.24 136.22 125.24 171.06"/></g><g id="LWPOLYLINE-34"><polyline class="cls-1" points="138.3 171.06 138.3 135.89 124.9 135.89 124.9 171.06"/></g><g id="LWPOLYLINE-35"><polyline class="cls-1" points="125.88 152.12 125.88 156.74 127.31 156.74 127.31 154.34"/></g><g id="LWPOLYLINE-36"><polyline class="cls-1" points="127.31 153.94 127.31 152.12 125.88 152.12"/></g><g id="LWPOLYLINE-37"><rect class="cls-1" x="126.51" y="153.94" width="2.22" height=".4"/></g><g id="LWPOLYLINE-38"><rect class="cls-1" x="126.45" y="154.68" width=".29" height=".4"/></g><g id="LWPOLYLINE-39"><rect class="cls-1" x="143.81" y="82.58" width="15.07" height="21.77"/></g><g id="LWPOLYLINE-40"><line class="cls-1" x1="151.77" y1="83.41" x2="151.77" y2="103.51"/></g><g id="LWPOLYLINE-41"><line class="cls-1" x1="150.93" y1="83.41" x2="150.93" y2="103.51"/></g><g id="LWPOLYLINE-42"><polyline class="cls-1" points="150.93 83.41 144.65 83.41 144.65 103.51"/></g><g id="LWPOLYLINE-43"><line class="cls-1" x1="144.65" y1="103.51" x2="150.93" y2="103.51"/></g><g id="LWPOLYLINE-44"><polyline class="cls-1" points="151.77 103.51 158.05 103.51 158.05 83.41 151.77 83.41"/></g><g id="LWPOLYLINE-45"><line class="cls-1" x1="215.7" y1="103.51" x2="221.98" y2="103.51"/></g><g id="LWPOLYLINE-46"><polyline class="cls-1" points="221.98 83.41 215.7 83.41 215.7 103.51"/></g><g id="LWPOLYLINE-47"><rect class="cls-1" x="214.86" y="82.58" width="15.07" height="21.77"/></g><g id="LWPOLYLINE-48"><polyline class="cls-1" points="222.82 103.51 229.1 103.51 229.1 83.41 222.82 83.41"/></g><g id="LWPOLYLINE-49"><line class="cls-1" x1="221.98" y1="83.41" x2="221.98" y2="103.51"/></g><g id="LWPOLYLINE-50"><line class="cls-1" x1="222.82" y1="83.41" x2="222.82" y2="103.51"/></g><g id="LWPOLYLINE-51"><rect class="cls-1" x="173.47" y="108.25" width="18.42" height="21.77"/></g><g id="LWPOLYLINE-52"><line class="cls-1" x1="183.11" y1="109.09" x2="183.11" y2="129.19"/></g><g id="LWPOLYLINE-53"><line class="cls-1" x1="182.27" y1="109.09" x2="182.27" y2="129.19"/></g><g id="LWPOLYLINE-54"><line class="cls-1" x1="183.11" y1="109.09" x2="191.06" y2="109.09"/></g><g id="LWPOLYLINE-55"><polyline class="cls-1" points="191.06 109.09 191.06 129.19 183.11 129.19"/></g><g id="LWPOLYLINE-56"><polyline class="cls-1" points="182.27 129.19 174.31 129.19 174.31 109.09 182.27 109.09"/></g><g id="LWPOLYLINE-57"><rect class="cls-1" x="152.19" y="135.89" width="6.7" height="6.7"/></g><g id="LWPOLYLINE-58"><line class="cls-1" x1="155.96" y1="136.31" x2="155.96" y2="142.17"/></g><g id="LWPOLYLINE-59"><line class="cls-1" x1="155.12" y1="136.31" x2="155.12" y2="142.17"/></g><g id="LWPOLYLINE-60"><line class="cls-1" x1="155.96" y1="136.31" x2="158.47" y2="136.31"/></g><g id="LWPOLYLINE-61"><polyline class="cls-1" points="158.47 136.31 158.47 142.17 155.96 142.17"/></g><g id="LWPOLYLINE-62"><polyline class="cls-1" points="155.12 142.17 152.61 142.17 152.61 136.31 155.12 136.31"/></g><g id="LWPOLYLINE-63"><line class="cls-1" x1="188.63" y1="58.3" x2="178.57" y2="58.3"/></g><g id="LWPOLYLINE-64"><line class="cls-1" x1="188.63" y1="57.46" x2="178.57" y2="57.46"/></g><g id="LWPOLYLINE-65"><line class="cls-1" x1="202.87" y1="60.54" x2="98.95" y2="84.69"/></g><g id="LWPOLYLINE-66"><line class="cls-1" x1="202.87" y1="65.66" x2="98.95" y2="89.85"/></g><g id="LWPOLYLINE-67"><line class="cls-1" x1="75.59" y1="120.81" x2="105.65" y2="105.74"/></g><g id="LWPOLYLINE-68"><line class="cls-1" x1="74.66" y1="129.19" x2="98.95" y2="129.19"/></g><g id="LWPOLYLINE-69"><polyline class="cls-1" points="98.95 127.51 71.31 127.51 71.31 120.81"/></g><g id="LWPOLYLINE-70"><line class="cls-1" x1="71.31" y1="122.49" x2="98.95" y2="122.49"/></g><g id="LWPOLYLINE-71"><line class="cls-1" x1="71.31" y1="120.81" x2="98.95" y2="120.81"/></g><g id="LWPOLYLINE-72"><line class="cls-1" x1="73.99" y1="166.7" x2="105.65" y2="166.7"/></g><g id="LWPOLYLINE-73"><line class="cls-1" x1="73.99" y1="166.03" x2="105.65" y2="166.03"/></g><g id="LWPOLYLINE-74"><line class="cls-1" x1="66.89" y1="171.06" x2="29.83" y2="171.06"/></g><g id="LWPOLYLINE-75"><line class="cls-1" x1="57.68" y1="174.41" x2="24.78" y2="174.41"/></g><g id="LWPOLYLINE-76"><line class="cls-1" x1="30.67" y1="171.9" x2="30.67" y2="174.41"/></g><g id="LWPOLYLINE-77"><line class="cls-1" x1="29.83" y1="171.06" x2="29.83" y2="171.9"/></g><g id="LWPOLYLINE-78"><line class="cls-1" x1="25.62" y1="175.25" x2="25.62" y2="177.76"/></g><g id="LWPOLYLINE-79"><line class="cls-1" x1="24.78" y1="174.41" x2="24.78" y2="175.25"/></g><g id="LWPOLYLINE-80"><line class="cls-1" x1="57.68" y1="174.41" x2="105.65" y2="174.41"/></g><g id="LWPOLYLINE-81"><line class="cls-1" x1="74.66" y1="166.7" x2="74.66" y2="171.06"/></g><g id="LWPOLYLINE-82"><line class="cls-1" x1="73.99" y1="166.03" x2="73.99" y2="166.7"/></g><g id="LWPOLYLINE-83"><line class="cls-1" x1="74.66" y1="127.51" x2="74.66" y2="129.19"/></g><g id="LWPOLYLINE-84"><polyline class="cls-1" points="100.28 129.19 100.28 134.21 105.65 134.21"/></g><g id="LWPOLYLINE-85"><line class="cls-1" x1="105.65" y1="115.3" x2="100.13" y2="120.81"/></g><g id="LWPOLYLINE-86"><polyline class="cls-1" points="98.95 127.51 98.95 129.19 105.65 129.19"/></g><g id="LWPOLYLINE-87"><line class="cls-1" x1="98.95" y1="127.51" x2="105.65" y2="127.51"/></g><g id="LWPOLYLINE-88"><line class="cls-1" x1="98.95" y1="122.49" x2="98.95" y2="127.51"/></g><g id="LWPOLYLINE-89"><line class="cls-1" x1="98.95" y1="122.49" x2="105.65" y2="122.49"/></g><g id="LWPOLYLINE-90"><line class="cls-1" x1="98.95" y1="120.81" x2="105.65" y2="120.81"/></g><g id="LWPOLYLINE-91"><line class="cls-1" x1="98.95" y1="120.81" x2="98.95" y2="122.49"/></g><g id="LWPOLYLINE-92"><line class="cls-1" x1="166.95" y1="68.89" x2="102.3" y2="68.89"/></g><g id="LWPOLYLINE-93"><line class="cls-1" x1="98.95" y1="84.69" x2="98.95" y2="89.85"/></g><g id="LWPOLYLINE-94"><line class="cls-1" x1="179.4" y1="58.3" x2="179.4" y2="66"/></g><g id="LWPOLYLINE-95"><line class="cls-1" x1="178.57" y1="57.46" x2="178.57" y2="58.3"/></g><g id="LWPOLYLINE-96"><line class="cls-1" x1="230.89" y1="68.89" x2="282.84" y2="68.89"/></g><g id="LWPOLYLINE-97"><line class="cls-1" x1="202.87" y1="60.54" x2="286.19" y2="85.36"/></g><g id="LWPOLYLINE-98"><line class="cls-1" x1="202.87" y1="65.66" x2="286.19" y2="90.53"/></g><g id="LWPOLYLINE-99"><line class="cls-1" x1="187.8" y1="58.3" x2="187.8" y2="64.05"/></g><g id="LWPOLYLINE-100"><line class="cls-1" x1="188.63" y1="57.46" x2="188.63" y2="58.3"/></g><g id="LWPOLYLINE-101"><line class="cls-1" x1="102.3" y1="83.91" x2="102.3" y2="68.89"/></g><g id="LWPOLYLINE-102"><line class="cls-1" x1="286.19" y1="85.36" x2="286.19" y2="90.53"/></g><g id="LWPOLYLINE-103"><line class="cls-1" x1="282.84" y1="84.37" x2="282.84" y2="68.89"/></g><g id="LWPOLYLINE-104"><line class="cls-1" x1="279.49" y1="88.53" x2="279.49" y2="177.76"/></g><g id="LWPOLYLINE-105"><line class="cls-1" x1="105.65" y1="88.29" x2="105.65" y2="177.76"/></g><g id="LWPOLYLINE-106"><line class="cls-1" x1="105.65" y1="171.06" x2="66.89" y2="171.06"/></g><g id="LWPOLYLINE-107"><rect class="cls-1" x="142.98" y="81.74" width="16.75" height="23.45"/></g><g id="LWPOLYLINE-108"><rect class="cls-1" x="214.02" y="81.74" width="16.75" height="23.45"/></g><g id="LWPOLYLINE-109"><rect class="cls-1" x="172.64" y="107.41" width="20.1" height="23.45"/></g><g id="LWPOLYLINE-110"><rect class="cls-1" x="124.07" y="135.05" width="15.07" height="36.01"/></g><g id="LWPOLYLINE-111"><rect class="cls-1" x="151.35" y="135.05" width="8.37" height="8.37"/></g><g id="LWPOLYLINE-112"><line class="cls-1" x1="105.65" y1="167.71" x2="124.07" y2="167.71"/></g><g id="LWPOLYLINE-113"><line class="cls-1" x1="139.14" y1="167.71" x2="279.49" y2="167.71"/></g><g id="LWPOLYLINE-114"><rect class="cls-1" x="105.65" y="104.92" width="5.02" height="2.51"/></g><g id="LWPOLYLINE-115"><line class="cls-1" x1="105.65" y1="166.87" x2="105.65" y2="165.22"/></g><g id="LWPOLYLINE-116"><polyline class="cls-1" points="105.65 165.22 110.67 165.22 110.67 166.87"/></g><g id="LWPOLYLINE-117"><rect class="cls-1" x="105.65" y="152.66" width="2.51" height="2.51"/></g><g id="LWPOLYLINE-118"><rect class="cls-1" x="105.65" y="155.17" width="5.02" height="2.51"/></g><g id="LWPOLYLINE-119"><rect class="cls-1" x="105.65" y="157.68" width="2.51" height="2.51"/></g><g id="LWPOLYLINE-120"><rect class="cls-1" x="105.65" y="162.71" width="2.51" height="2.51"/></g><g id="LWPOLYLINE-121"><rect class="cls-1" x="105.65" y="160.19" width="5.02" height="2.51"/></g><g id="LWPOLYLINE-122"><rect class="cls-1" x="105.65" y="132.56" width="2.51" height="2.51"/></g><g id="LWPOLYLINE-123"><rect class="cls-1" x="105.65" y="135.07" width="5.02" height="2.51"/></g><g id="LWPOLYLINE-124"><rect class="cls-1" x="105.65" y="137.58" width="2.51" height="2.51"/></g><g id="LWPOLYLINE-125"><rect class="cls-1" x="105.65" y="142.61" width="2.51" height="2.51"/></g><g id="LWPOLYLINE-126"><rect class="cls-1" x="105.65" y="140.09" width="5.02" height="2.51"/></g><g id="LWPOLYLINE-127"><rect class="cls-1" x="105.65" y="147.63" width="2.51" height="2.51"/></g><g id="LWPOLYLINE-128"><rect class="cls-1" x="105.65" y="150.14" width="5.02" height="2.51"/></g><g id="LWPOLYLINE-129"><rect class="cls-1" x="105.65" y="145.12" width="5.02" height="2.51"/></g><g id="LWPOLYLINE-130"><rect class="cls-1" x="105.65" y="112.46" width="2.51" height="2.51"/></g><g id="LWPOLYLINE-131"><rect class="cls-1" x="105.65" y="114.97" width="5.02" height="2.51"/></g><g id="LWPOLYLINE-132"><rect class="cls-1" x="105.65" y="117.48" width="2.51" height="2.51"/></g><g id="LWPOLYLINE-133"><rect class="cls-1" x="105.65" y="122.51" width="2.51" height="2.51"/></g><g id="LWPOLYLINE-134"><rect class="cls-1" x="105.65" y="120" width="5.02" height="2.51"/></g><g id="LWPOLYLINE-135"><rect class="cls-1" x="105.65" y="127.53" width="2.51" height="2.51"/></g><g id="LWPOLYLINE-136"><rect class="cls-1" x="105.65" y="130.05" width="5.02" height="2.51"/></g><g id="LWPOLYLINE-137"><rect class="cls-1" x="105.65" y="125.02" width="5.02" height="2.51"/></g><g id="LWPOLYLINE-138"><rect class="cls-1" x="105.65" y="109.95" width="5.02" height="2.51"/></g><g id="LWPOLYLINE-139"><rect class="cls-1" x="105.65" y="107.43" width="2.51" height="2.51"/></g><g id="LWPOLYLINE-140"><rect class="cls-1" x="105.65" y="99.9" width="5.02" height="2.51"/></g><g id="LWPOLYLINE-141"><rect class="cls-1" x="105.65" y="102.41" width="2.51" height="2.51"/></g><g id="LWPOLYLINE-142"><rect class="cls-1" x="105.65" y="97.38" width="2.51" height="2.51"/></g><g id="LWPOLYLINE-143"><rect class="cls-1" x="105.65" y="94.87" width="5.02" height="2.51"/></g><g id="LWPOLYLINE-144"><rect class="cls-1" x="105.65" y="92.36" width="2.51" height="2.51"/></g><g id="LWPOLYLINE-145"><rect class="cls-1" x="105.65" y="89.85" width="5.02" height="2.51"/></g><g id="LWPOLYLINE-146"><rect class="cls-1" x="274.46" y="104.92" width="5.02" height="2.51"/></g><g id="LWPOLYLINE-147"><line class="cls-1" x1="279.49" y1="166.87" x2="279.49" y2="165.22"/></g><g id="LWPOLYLINE-148"><polyline class="cls-1" points="279.49 165.22 274.46 165.22 274.46 166.87"/></g><g id="LWPOLYLINE-149"><rect class="cls-1" x="274.46" y="160.19" width="5.02" height="2.51"/></g><g id="LWPOLYLINE-150"><rect class="cls-1" x="276.98" y="162.71" width="2.51" height="2.51"/></g><g id="LWPOLYLINE-151"><rect class="cls-1" x="276.98" y="157.68" width="2.51" height="2.51"/></g><g id="LWPOLYLINE-152"><rect class="cls-1" x="274.46" y="155.17" width="5.02" height="2.51"/></g><g id="LWPOLYLINE-153"><rect class="cls-1" x="276.98" y="152.66" width="2.51" height="2.51"/></g><g id="LWPOLYLINE-154"><rect class="cls-1" x="274.46" y="140.09" width="5.02" height="2.51"/></g><g id="LWPOLYLINE-155"><rect class="cls-1" x="276.98" y="142.61" width="2.51" height="2.51"/></g><g id="LWPOLYLINE-156"><rect class="cls-1" x="276.98" y="137.58" width="2.51" height="2.51"/></g><g id="LWPOLYLINE-157"><rect class="cls-1" x="274.46" y="135.07" width="5.02" height="2.51"/></g><g id="LWPOLYLINE-158"><rect class="cls-1" x="276.98" y="132.56" width="2.51" height="2.51"/></g><g id="LWPOLYLINE-159"><rect class="cls-1" x="274.46" y="150.14" width="5.02" height="2.51"/></g><g id="LWPOLYLINE-160"><rect class="cls-1" x="276.98" y="147.63" width="2.51" height="2.51"/></g><g id="LWPOLYLINE-161"><rect class="cls-1" x="274.46" y="145.12" width="5.02" height="2.51"/></g><g id="LWPOLYLINE-162"><rect class="cls-1" x="274.46" y="120" width="5.02" height="2.51"/></g><g id="LWPOLYLINE-163"><rect class="cls-1" x="276.98" y="122.51" width="2.51" height="2.51"/></g><g id="LWPOLYLINE-164"><rect class="cls-1" x="276.98" y="117.48" width="2.51" height="2.51"/></g><g id="LWPOLYLINE-165"><rect class="cls-1" x="274.46" y="114.97" width="5.02" height="2.51"/></g><g id="LWPOLYLINE-166"><rect class="cls-1" x="276.98" y="112.46" width="2.51" height="2.51"/></g><g id="LWPOLYLINE-167"><rect class="cls-1" x="274.46" y="130.05" width="5.02" height="2.51"/></g><g id="LWPOLYLINE-168"><rect class="cls-1" x="276.98" y="127.53" width="2.51" height="2.51"/></g><g id="LWPOLYLINE-169"><rect class="cls-1" x="274.46" y="125.02" width="5.02" height="2.51"/></g><g id="LWPOLYLINE-170"><rect class="cls-1" x="276.98" y="107.43" width="2.51" height="2.51"/></g><g id="LWPOLYLINE-171"><rect class="cls-1" x="274.46" y="109.95" width="5.02" height="2.51"/></g><g id="LWPOLYLINE-172"><rect class="cls-1" x="274.46" y="89.85" width="5.02" height="2.51"/></g><g id="LWPOLYLINE-173"><rect class="cls-1" x="276.98" y="92.36" width="2.51" height="2.51"/></g><g id="LWPOLYLINE-174"><rect class="cls-1" x="274.46" y="94.87" width="5.02" height="2.51"/></g><g id="LWPOLYLINE-175"><rect class="cls-1" x="276.98" y="97.38" width="2.51" height="2.51"/></g><g id="LWPOLYLINE-176"><rect class="cls-1" x="276.98" y="102.41" width="2.51" height="2.51"/></g><g id="LWPOLYLINE-177"><rect class="cls-1" x="274.46" y="99.9" width="5.02" height="2.51"/></g><g id="LWPOLYLINE-178"><line class="cls-1" x1="30.37" y1="166.87" x2="29.83" y2="166.87"/></g><g id="LWPOLYLINE-179"><line class="cls-1" x1="30.31" y1="167.71" x2="29.83" y2="167.71"/></g><g id="LWPOLYLINE-180"><line class="cls-1" x1="29.83" y1="166.87" x2="29.83" y2="167.71"/></g><g id="LWPOLYLINE-181"><line class="cls-1" x1="30.67" y1="167.71" x2="30.67" y2="171.06"/></g><g id="LWPOLYLINE-182"><line class="cls-1" x1="60.98" y1="166.87" x2="59.29" y2="166.87"/></g><g id="LWPOLYLINE-183"><line class="cls-1" x1="61.29" y1="167.71" x2="59.01" y2="167.71"/></g><g id="LWPOLYLINE-184"><line class="cls-1" x1="41.47" y1="166.87" x2="39.2" y2="166.87"/></g><g id="LWPOLYLINE-185"><line class="cls-1" x1="41.47" y1="167.71" x2="39.09" y2="167.71"/></g><g id="LWPOLYLINE-186"><line class="cls-1" x1="52.5" y1="166.87" x2="50.73" y2="166.87"/></g><g id="LWPOLYLINE-187"><line class="cls-1" x1="52.35" y1="167.71" x2="50.37" y2="167.71"/></g><g id="LWPOLYLINE-188"><line class="cls-1" x1="67.17" y1="166.87" x2="65.86" y2="166.87"/></g><g id="LWPOLYLINE-189"><line class="cls-1" x1="67.24" y1="167.71" x2="66.45" y2="167.71"/></g><g id="LWPOLYLINE-190"><line class="cls-1" x1="77.18" y1="130.02" x2="100.28" y2="130.02"/></g><g id="LWPOLYLINE-191"><line class="cls-1" x1="77.18" y1="165.2" x2="105.65" y2="165.2"/></g><g id="LWPOLYLINE-192"><line class="cls-1" x1="89.67" y1="130.44" x2="97.11" y2="130.44"/></g><g id="LWPOLYLINE-193"><line class="cls-1" x1="89.67" y1="164.78" x2="97.11" y2="164.78"/></g><g id="LWPOLYLINE-194"><line class="cls-1" x1="77.18" y1="129.19" x2="77.18" y2="166.03"/></g><g id="LWPOLYLINE-195"><line class="cls-1" x1="83.01" y1="130.44" x2="88.72" y2="130.44"/></g><g id="LWPOLYLINE-196"><line class="cls-1" x1="77.18" y1="130.44" x2="82.34" y2="130.44"/></g><g id="LWPOLYLINE-197"><line class="cls-1" x1="83.01" y1="164.78" x2="88.72" y2="164.78"/></g><g id="LWPOLYLINE-198"><line class="cls-1" x1="77.18" y1="164.78" x2="82.34" y2="164.78"/></g><g id="LWPOLYLINE-199"><line class="cls-1" x1="90.34" y1="130.44" x2="90.34" y2="164.78"/></g><g id="LWPOLYLINE-200"><line class="cls-1" x1="89.67" y1="130.44" x2="89.67" y2="164.78"/></g><g id="LWPOLYLINE-201"><line class="cls-1" x1="88.72" y1="130.44" x2="88.72" y2="164.78"/></g><g id="LWPOLYLINE-202"><line class="cls-1" x1="83.01" y1="130.44" x2="83.01" y2="164.78"/></g><g id="LWPOLYLINE-203"><line class="cls-1" x1="82.34" y1="130.44" x2="82.34" y2="164.78"/></g><g id="LWPOLYLINE-204"><line class="cls-1" x1="78.75" y1="130.44" x2="78.75" y2="164.78"/></g><g id="LWPOLYLINE-205"><line class="cls-1" x1="78.4" y1="130.44" x2="78.4" y2="164.78"/></g><g id="LWPOLYLINE-206"><line class="cls-1" x1="83.94" y1="130.44" x2="83.94" y2="164.78"/></g><g id="LWPOLYLINE-207"><line class="cls-1" x1="79.85" y1="130.44" x2="79.85" y2="164.78"/></g><g id="LWPOLYLINE-208"><line class="cls-1" x1="98.27" y1="130.44" x2="100.28" y2="130.44"/></g><g id="LWPOLYLINE-209"><line class="cls-1" x1="98.27" y1="164.78" x2="105.65" y2="164.78"/></g><g id="LWPOLYLINE-210"><line class="cls-1" x1="98.27" y1="130.44" x2="98.27" y2="164.78"/></g><g id="LWPOLYLINE-211"><line class="cls-1" x1="97.11" y1="130.44" x2="97.11" y2="164.78"/></g><g id="LWPOLYLINE-212"><line class="cls-1" x1="98.59" y1="130.44" x2="98.59" y2="164.78"/></g></svg>